<?xml version="1.0" standalone="no"?><!DOCTYPE svg PUBLIC "-//W3C//DTD SVG 1.1//EN" "http://www.w3.org/Graphics/SVG/1.1/DTD/svg11.dtd"><svg t="1574844024172" class="icon" viewBox="0 0 1024 1024" version="1.1" xmlns="http://www.w3.org/2000/svg" p-id="917" xmlns:xlink="http://www.w3.org/1999/xlink" width="200" height="200"><defs><style type="text/css"></style></defs><path d="M93.8 587.7c-15.7 0-31.2-1.8-35.1-2.3v-15.3c3.8 0.3 16.6 1 28 1.3H88c21.4 0 34.6-11.6 38.1-15.1 9.3-9.8 13.9-21.3 13.9-34.1v-17.8l-5 3.8c-12.4 9.4-26.8 14.2-43.1 14.2-13 0-25.2-3.3-36.1-9.7-10.9-6.4-19.7-15.2-26.1-26.3-6.5-10.9-9.8-23-9.8-36 0-8.4 1.4-16.7 4.3-24.5 2.8-7.8 6.9-15 12.1-21.3 6.5-8 14.6-14.3 24-19 9.4-4.6 19.5-7.1 30.1-7.2h77v142.1c0 1.7-0.1 2.3-0.1 2.5l-0.1 0.3c-0.6 12.9-4.1 24.6-10.6 35-2.9 5.1-20.2 29.4-62.8 29.4zM92 401.1c-7.2 0-14.2 1.5-20.6 4.5-6.4 3-12 7.3-16.6 13-7 8.6-10.9 19.8-10.9 31.6 0 6.8 1.4 14.2 3.7 19.6 2.4 5.8 6 11 10.5 15.5s9.8 8.1 15.6 10.5c5.8 2.4 11.9 3.7 18.3 3.7 10 0 18.8-2.6 26.3-7.7 6.7-4.6 12.6-11.5 16.6-19.6 3.6-7 5.2-13.4 5.2-20.8V401H92zM732.9 521.5c-30.3 0-56.9-4-62-4.8v-13.9c5.9 0.5 33.1 2.7 50.6 2.7 25.6 0 45.8 0 45.8-20.9 0-15.7-11.4-18.8-23.5-22.1l-42.5-11.7c-26.4-7.3-31-18-31-37.9 0-23.5 8.4-34.7 56.3-34.7 26.6 0 54.7 4.3 60 5.1v13.6c-5.5-0.4-29.7-2.1-50.2-2.4h-1.5c-2.8 0-5.5-0.1-8-0.1-16.8 0-29.7 1.5-29.7 19.7 0 15.6 11.6 18.7 22.8 21.7l43 11.9c24.5 7 31.2 14.7 31.2 36 0.1 30.1-12.6 37.8-61.3 37.8zM939.7 521.5c-25.2 0-54.1-3.7-59.6-4.5v-13.9c5.6 0.5 30.8 2.4 48.2 2.4 25.6 0 45.8 0 45.8-20.9 0-15.7-11.4-18.8-23.5-22.1l-42.5-11.7c-26.4-7.3-31-18-31-37.9 0-23.5 8.4-34.7 56.3-34.7 26.6 0 54.7 4.3 60 5.1v13.6c-5.5-0.4-29.7-2.1-50.2-2.4h-1.5c-2.8 0-5.5-0.1-8-0.1-16.8 0-29.7 1.5-29.7 19.7 0 15.6 11.6 18.7 22.8 21.7l43 11.9c24.5 7 31.2 14.7 31.2 36 0 30.1-12.6 37.8-61.3 37.8zM822.1 383.5H849V518h-26.9zM455.8 518.1v-84.8c0-24.4-13.1-38.9-35.2-38.9-17.4 0-38.6 4.4-38.8 4.4l-0.8 0.2v119.1h-26.9V388c5.9-1.4 42.7-9.8 74.4-9.8 33.5 0 54.3 20 54.3 52.3v87.6h-27zM265 521.5c-20.6 0-36.2-2.9-46.5-8.6-18.6-10.3-23.3-28.9-26.1-40.1l-0.1-0.6c-0.6-2.3-1.1-5.7-1.6-10-0.5-4.1-0.8-8.5-1-12.8l-0.1-2.5c-0.3-13.4 1.1-24.8 4.2-33.8 3-8.7 7.6-15.7 13.5-20.8 6-5.1 13.5-8.8 22.4-10.9 9.2-2.2 20-3.3 32.1-3.3 14.1 0 25.9 1.2 35 3.7 9 2.4 16.2 5.5 21.3 9.3 5 3.6 8.5 7.7 10.4 12.1 1.7 3.9 2.8 9.4 2.8 13.8 0 0.2 0.1 7 0.1 7.2 0 8.5-0.6 11.6-2.2 15.7-1.6 4-6.5 9.5-10.5 12.4-11 8.3-27.9 12.3-51.6 12.3h-48.8l0.2 1.2c1.1 8.8 2.7 15.3 4.8 19.4 4.8 9.7 13 18.9 40.4 20.2 3.1 0.2 6.6 0.2 10.4 0.2 20.3 0 44.1-2.2 49.6-2.8v13.9c-3.8 0.6-19.6 2.8-36.4 3.9-5.7 0.4-13.6 0.9-22.3 0.9z m0-127.1c-9.5 0-17.5 0.8-23.5 2.4-6.5 1.7-11.7 4.6-15.6 8.6-3.9 4-6.4 9.3-7.6 15.6-1.1 5.8-1.6 12.9-1.4 21.2l0.2 6.2h53.6c12.1 0 21.4-3.1 27.7-9.1 1.9-1.8 4.3-4.4 5.1-7.8 0.5-2.2 0.8-4.6 0.8-7.3V417c-0.1-7.9-3.6-13.9-10.3-17.6-6-3.3-15.5-5-29-5zM580.2 521.5c-20.6 0-36.2-2.9-46.5-8.6-18.7-10.3-23.3-29-26.1-40.1l-0.2-0.9-0.1-0.3c-0.5-2-0.9-4.7-1.3-7.8l-0.1-0.9c-0.5-4.4-0.9-9.1-1.1-13.6l-0.1-2.3c-0.3-13.4 1.1-24.8 4.2-33.8 3-8.7 7.5-15.7 13.5-20.8 6-5.1 13.5-8.8 22.4-10.9 9.2-2.2 20-3.3 32.1-3.3 14.1 0 25.9 1.2 35 3.7 9 2.4 16.2 5.5 21.3 9.3 5 3.6 8.5 7.7 10.4 12.1 1.7 3.9 2.8 9.4 2.8 13.8v7.2c0 8.5-0.6 11.6-2.2 15.7-1.5 4-6.5 9.5-10.5 12.4-11 8.3-27.9 12.3-51.6 12.3h-48.8l0.2 1.2c1.1 8.8 2.7 15.3 4.8 19.4 4.8 9.7 13.1 18.9 40.4 20.2 3.1 0.1 6.6 0.2 10.4 0.2 20.9 0 46.5-2.3 52.2-2.8v13.9c-4.2 0.6-22.1 2.9-39.1 4-5.4 0.2-13.3 0.7-22 0.7z m0-127.1c-9.5 0-17.5 0.8-23.6 2.4-6.5 1.7-11.7 4.6-15.6 8.6-3.9 4-6.4 9.3-7.6 15.6-1.1 5.8-1.6 12.9-1.4 21.2l0.2 6.2h53.6c12.1 0 21.4-3.1 27.7-9.1 1.9-1.8 4.3-4.4 5.1-7.8 0.5-2.2 0.8-4.6 0.8-7.3v-7.3c-0.1-7.9-3.6-13.9-10.3-17.6-6-3.2-15.5-4.9-28.9-4.9zM267.4 616.3c-3.5 0-6.7-0.6-9.4-1.8-2.7-1.2-5.1-2.9-7-5-1.9-2.1-3.4-4.6-4.4-7.5-1-2.9-1.5-6-1.5-9.3 0-3.4 0.5-6.5 1.5-9.5 1-2.9 2.5-5.5 4.4-7.6 1.9-2.1 4.2-3.9 7-5.1 2.7-1.2 5.9-1.8 9.4-1.8 2.3 0 4.6 0.4 6.8 1 2.2 0.7 4.1 1.7 5.9 3.1 1.7 1.3 3.2 3 4.3 5 1.1 1.8 1.8 3.9 2.1 6.3h-8.8c-0.7-2.5-1.9-4.5-3.6-5.8-1.8-1.4-4-2-6.6-2-2.4 0-4.4 0.5-6.1 1.4-1.7 0.9-3 2.2-4.1 3.7-1 1.5-1.8 3.3-2.2 5.3-0.5 1.9-0.7 4-0.7 6s0.2 3.9 0.7 5.8c0.5 1.9 1.2 3.6 2.3 5.1 1 1.5 2.4 2.8 4.1 3.7 1.7 0.9 3.7 1.4 6.1 1.4 3.5 0 6.2-0.9 8.1-2.7 1.9-1.8 3.1-4.4 3.4-7.8v-0.5h-10.3v-6.6h18.5v24.1h-5.6l-1.2-5.9-0.7 0.8c-1.8 2.3-3.7 3.9-5.9 4.8-2.1 1-4.3 1.4-6.5 1.4zM328.8 615.2l-3.5-10.3h-18.1l-3.6 10.3h-9.3l17.2-45.4h9.8l17 45.4h-9.5z m-13-34.6l-6.3 17.7H323l-6.2-18h-0.7l-0.3 0.3zM385.3 615.2v-32.9h-0.8l-0.2 0.4-11.3 32.5h-7.2l-11.4-32.6h-0.8l-0.1 0.5v32.1h-8.6v-45.4h13.5l10.9 31.9h0.7l0.2-0.3 10.2-31.6h13.5v45.4zM405.2 569.8h9.2v45.4h-9.2zM454.4 615.2l-19.3-31.1h-0.7l-0.2 0.5v30.6h-8.5v-45.4h9.3l19.4 31.1h0.8l0.1-0.5v-30.6h8.6v45.4zM495.5 616.3c-3.5 0-6.7-0.6-9.4-1.8-2.7-1.2-5.1-2.9-7-5-1.9-2.1-3.4-4.6-4.4-7.5-1-2.9-1.5-6-1.5-9.3 0-3.4 0.5-6.5 1.5-9.5 1-2.9 2.5-5.5 4.4-7.6 1.9-2.1 4.2-3.9 7-5.1 2.7-1.2 5.9-1.8 9.4-1.8 2.3 0 4.6 0.4 6.8 1 2.2 0.7 4.1 1.7 5.9 3.1 1.7 1.3 3.2 3 4.3 5 1.1 1.8 1.8 3.9 2.1 6.3h-8.8c-0.7-2.5-1.9-4.5-3.6-5.8-1.8-1.4-4-2-6.6-2-2.4 0-4.4 0.5-6.1 1.4-1.7 0.9-3 2.2-4.1 3.7-1 1.5-1.8 3.3-2.2 5.3-0.5 1.9-0.7 4-0.7 6s0.2 3.9 0.7 5.8c0.5 1.9 1.2 3.6 2.3 5.1 1 1.5 2.4 2.8 4.1 3.7 1.7 0.9 3.7 1.4 6.1 1.4 3.5 0 6.2-0.9 8.1-2.7 1.9-1.8 3.1-4.4 3.4-7.8v-0.5h-10.3v-6.6h18.5v24.1h-5.6l-1.2-5.9-0.7 0.8c-1.8 2.3-3.7 3.9-5.9 4.8-2.2 1-4.4 1.4-6.5 1.4zM542.3 616c-3 0-5.5-0.5-7.3-1.4-1.8-0.9-3.3-2.1-4.3-3.3-1-1.3-1.6-2.6-2-4-0.3-1.4-0.5-2.6-0.5-3.5 0-1.8 0.3-3.3 0.8-4.6 0.6-1.3 1.3-2.5 2.3-3.6 0.9-1.1 2.1-2.1 3.4-2.9 1.3-0.9 2.7-1.7 4.1-2.5l0.5-0.3-0.3-0.5c-0.7-0.9-1.3-1.8-1.9-2.6-0.6-0.8-1.1-1.6-1.6-2.4-0.5-0.8-0.8-1.6-1.1-2.6-0.3-0.9-0.4-1.9-0.4-3 0-1.2 0.2-2.3 0.7-3.4 0.4-1.1 1.1-2.1 1.9-2.9 0.8-0.8 1.9-1.5 3.1-2 1.2-0.5 2.7-0.7 4.3-0.7 1.4 0 2.7 0.2 4.1 0.6 1.3 0.4 2.5 0.9 3.4 1.7 1 0.8 1.8 1.7 2.4 2.8 0.6 1.1 0.9 2.4 0.9 3.9 0 1.3-0.2 2.6-0.7 3.7-0.5 1.1-1.1 2.2-1.9 3.2-0.8 1-1.7 1.8-2.7 2.6-1 0.8-2.1 1.5-3.2 2.1l-0.5 0.3L555 602l0.3-0.8c0.8-2.2 1.3-4.6 1.5-6.9h4.3c-0.1 1.1-0.2 2.1-0.4 3-0.2 0.9-0.3 1.8-0.6 2.6-0.2 0.8-0.5 1.6-0.9 2.4-0.3 0.8-0.8 1.7-1.2 2.8l-0.1 0.3 8.5 9.9h-5.9l-5.2-6.1-0.4 0.6c-0.7 1-1.5 2-2.4 2.8-0.9 0.8-2 1.5-3.1 2s-2.3 0.9-3.5 1.2c-1.2 0.1-2.4 0.2-3.6 0.2z m-0.9-23.1c-1.1 0.6-2.1 1.2-3.1 1.9s-1.9 1.4-2.7 2.3c-0.8 0.9-1.4 1.8-1.8 2.9-0.5 1.1-0.7 2.4-0.7 3.8 0 1.2 0.3 2.4 0.8 3.4s1.2 1.9 2.1 2.6c0.9 0.7 1.9 1.3 3 1.7 1.1 0.4 2.3 0.6 3.4 0.6 2.2 0 4.2-0.5 5.9-1.6 1.7-1 3.2-2.4 4.4-4.2l0.2-0.3-11.2-13.4-0.3 0.3z m2.9-19.2c-1.4 0-2.7 0.4-3.9 1.3-1.3 0.9-1.9 2.3-1.9 4.1 0 0.8 0.2 1.5 0.5 2.3 0.3 0.7 0.7 1.4 1.1 2.1 0.4 0.7 0.9 1.4 1.5 2l1.8 2.3 0.4-0.3c0.7-0.4 1.4-0.9 2.1-1.4 0.8-0.5 1.5-1.1 2.1-1.8 0.6-0.7 1.2-1.5 1.6-2.3 0.4-0.9 0.6-1.8 0.6-2.9 0-1.5-0.5-2.8-1.6-3.8-1-1.1-2.5-1.6-4.3-1.6zM576.5 615.2v-45.4h21.4c2.2 0 4.2 0.2 5.9 0.6 1.7 0.4 3.3 1 4.5 1.8 1.2 0.8 2.2 2 2.9 3.4 0.7 1.4 1 3.2 1 5.2 0 2.2-0.5 4.1-1.5 5.5-1 1.5-2.5 2.8-4.5 3.7l-1.1 0.6 1.2 0.4c2.7 0.8 4.8 2.2 6.1 4.1 1.3 2 2 4.4 2 7.2 0 2.2-0.4 4.2-1.3 5.8-0.9 1.6-2.1 3-3.5 4-1.5 1-3.2 1.8-5.1 2.3-1.9 0.5-3.9 0.8-6 0.8h-22z m9.2-6.9h11.4c1 0 2-0.1 3-0.3 1-0.2 1.8-0.6 2.6-1 0.8-0.5 1.4-1.2 1.8-2 0.4-0.8 0.7-1.9 0.7-3.2 0-2.5-0.7-4.4-2.2-5.5-1.4-1.1-3.3-1.6-5.6-1.6h-11.6v13.6z m0-19.7h10.8c1.9 0 3.5-0.5 4.8-1.4 1.3-1 2-2.5 2-4.6 0-1.2-0.2-2.1-0.7-2.9-0.4-0.8-1-1.4-1.7-1.8-0.7-0.4-1.5-0.7-2.4-0.9-0.9-0.2-1.8-0.2-2.7-0.2h-10.1v11.8zM623.6 615.2v-45.4h33.7v7.6h-24.5v10.9h22.5v7h-22.5v12.3h25.1v7.6zM679.1 615.2v-17.7l-16.8-27.7h10.4l11.1 18.8 11.1-18.8h10.2l-16.8 28v17.4zM728.5 616.3c-3.5 0-6.7-0.6-9.4-1.8-2.7-1.2-5.1-2.9-7-5-1.9-2.1-3.4-4.6-4.4-7.5-1-2.9-1.5-6-1.5-9.3 0-3.4 0.5-6.5 1.5-9.5 1-2.9 2.5-5.5 4.4-7.6 1.9-2.1 4.2-3.9 7-5.1 2.7-1.2 5.9-1.8 9.4-1.8s6.7 0.6 9.4 1.8c2.7 1.2 5.1 2.9 7 5.1 1.9 2.2 3.4 4.7 4.4 7.6 1 2.9 1.5 6.1 1.5 9.5 0 3.3-0.5 6.4-1.5 9.3-1 2.9-2.5 5.4-4.4 7.5-1.9 2.1-4.3 3.8-7 5-2.8 1.2-5.9 1.8-9.4 1.8z m0-40c-2.4 0-4.4 0.5-6.1 1.4-1.7 0.9-3 2.2-4.1 3.7-1 1.5-1.8 3.3-2.2 5.3-0.5 1.9-0.7 4-0.7 6s0.2 3.9 0.7 5.8c0.5 1.9 1.2 3.6 2.3 5.1 1 1.5 2.4 2.8 4.1 3.7 1.7 0.9 3.7 1.4 6.1 1.4 2.4 0 4.4-0.5 6.1-1.4 1.7-0.9 3-2.2 4.1-3.7 1-1.5 1.8-3.2 2.2-5.1 0.5-1.9 0.7-3.8 0.7-5.8 0-2.1-0.2-4.1-0.7-6-0.5-2-1.2-3.7-2.3-5.3-1-1.6-2.4-2.8-4.1-3.7-1.7-1-3.8-1.4-6.1-1.4zM788.8 615.2l-19.3-31.1h-0.8l-0.1 0.5v30.6H760v-45.4h9.4l19.4 31.1h0.8l0.1-0.5v-30.6h8.6v45.4zM809.5 615.2v-45.4H829c2.9 0 5.7 0.5 8.2 1.4 2.5 0.9 4.7 2.3 6.5 4.2 1.8 1.8 3.3 4.2 4.3 7s1.6 6.1 1.6 9.9c0 3.3-0.4 6.4-1.3 9.2-0.8 2.8-2.1 5.2-3.8 7.2-1.7 2-3.8 3.6-6.4 4.8-2.5 1.2-5.6 1.7-9.1 1.7h-19.5z m9.2-7.6h9.6c1.5 0 3-0.3 4.4-0.7 1.5-0.5 2.8-1.3 3.9-2.5s2-2.7 2.7-4.5c0.7-1.8 1-4.1 1-6.7 0-2.4-0.2-4.5-0.7-6.5-0.5-1.9-1.3-3.6-2.3-5-1.1-1.4-2.5-2.5-4.3-3.2-1.8-0.7-4-1.1-6.5-1.1h-7.8v30.2z" p-id="918"></path></svg>