<?xml version="1.0" standalone="no"?><!DOCTYPE svg PUBLIC "-//W3C//DTD SVG 1.1//EN" "http://www.w3.org/Graphics/SVG/1.1/DTD/svg11.dtd"><svg t="1575517645578" class="icon" viewBox="0 0 1024 1024" version="1.1" xmlns="http://www.w3.org/2000/svg" p-id="6316" xmlns:xlink="http://www.w3.org/1999/xlink" width="200" height="200"><defs><style type="text/css"></style></defs><path d="M18.6 579.9c4.8-13.3 9.5-26.3 14.2-39.4 13.4-37.1 26.8-74.2 40.1-111.4 1.1-3.2 2.5-4.5 6.1-4.5 70.9 0.1 141.8 0.1 212.7 0.1 1.2 0 2.3 0.2 4 0.3-0.5 1.7-0.8 3.2-1.3 4.5-18.3 48.7-36.6 97.3-54.8 146-1.3 3.5-2.9 4.7-6.7 4.7-69.9-0.1-139.8-0.1-209.7-0.1-1.2 0.1-2.6-0.1-4.6-0.2z m84.2-143.3c0.4 3.5 1.5 6.2 0.8 8.3-5.1 14.8-10.1 29.6-16 44-5.8 14-7.5 29.9-18.4 41.3h28.3c-0.4-2.9-1.6-5.6-0.8-7.7 7.9-22.5 16.2-44.8 24.4-67.2 0.5-1.3 2.3-3 3.5-3 12.2 0 24.3 0.1 36.5 0.7 6.1 0.3 7.9 3.8 6.4 9.9-2 7.7-8 12.9-16.6 13.4-6.9 0.4-13.7 0.1-20.6 0.4-1.7 0.1-4.2 0.8-4.8 2-2.2 4.3-3.7 8.8-5.4 13.2 11.2 0 21.8 0.5 32.4-0.1 15.3-0.9 26.6-8.8 33.7-22.2 10.4-19.5 2.5-32.9-19.7-33.1-18.9-0.2-37.7 0-56.6 0-2.4 0.1-4.9 0.1-7.1 0.1z m76.2 96.6c10.2-7.4 20.9-2 30.8-3.8-0.5 10.4-5.9 15.3-15 16.4-8.1 0.9-16.3 2.5-24.5 2.2-16.7-0.7-25.2-12.8-20.2-28.6 1.9-6 5.6-11.5 8.9-17 1.4-2.4 3.8-4.3 6.4-7.2-5.4 0.9-10 2.7-14.1 2.1-12.1-1.8-16.7 5.5-20.2 14.8-1.4 3.7-2.8 7.3-3.7 11.1-5.1 21.3 5.1 37.3 26.8 40.3 9.4 1.3 19.2 1.1 28.6-0.1 15-1.9 29.1-7.2 42.6-14.2-3.9-6.4 2.3-23.4 11.2-32.2-0.2-0.3-0.5-0.8-0.7-0.8-16.1-0.1-32.2-0.2-48.3-0.2-1.1 0-2.7 1-3.1 2-1.9 5.1-3.6 10.2-5.5 15.2z m49-37.6c6-7 11.6-13.6 16.6-19.5-5.2-1.4-10-2.3-14.5-4-10.6-4.1-21.6-5.5-32.8-4.6-1.7 0.1-4 0.5-4.8 1.6-4 5.5-7.5 11.4-11.3 17.2 16.9-4.3 33-4.4 46.8 9.3zM314.4 525.5c-4.9 13.2-9.6 25.6-14.4 38.5h38.4c3.5 0.1 9.3-4.9 8.9-8.2-0.1-0.9-2.3-2.2-3.7-2.2-4.7-0.3-9.4 0.1-14.1-0.1-4.9-0.2-6.3-2.5-4.6-6.9 3.5-9.2 3.7-9.3 14-9.2 8.4 0.1 16.9 0.2 25.3 0.2 6 0 8.2 3.3 6 9.1-2.6 6.6-4.9 13.3-7.2 20.1-2.1 6.2-10.5 13-17.4 13-19.4 0.1-38.9 0.1-58.3 0-5.2 0-9.7-5.3-8.5-10.3 1.3-5.2 3.4-10.2 5.2-15.3 3.1-8.5 6.6-16.9 9.2-25.6 3.6-12.1 11-18.9 23.3-18.4 17.3 0.7 34.6 0.2 51.8 0.2 5.3 0 9.8 3.5 10.4 8.2 0.7 4.9-3.4 11.5-8 12.5-2.5 0.6-5 1.1-7.5 1.5-3.4 0.6-6.4 0.7-6.3-4.3 0-0.9-2.3-2.5-3.6-2.5-12.9-0.4-26-0.3-38.9-0.3zM835.6 553.6c-6.4 0-12 0.1-17.6 0-5.5-0.1-6.7-3-5-8.2 2.2-6.9 6.5-8.5 13.3-8.1 9 0.6 18 0.2 27.1 0.3 4.6 0 7 2.9 5.3 7.2-3.4 8.8-6.9 17.5-10.9 26-2.8 5.9-8.1 8.9-14.7 9-19 0.1-38.1 0-57.1 0-7.2 0-11.3-6.2-8.7-13 3.3-8.9 6.5-17.7 9.9-26.6 2.7-7 5.1-14.1 8.4-20.8 2.9-6 8.4-9.1 15.3-9.1h55.9c5.4 0 9.6 3.7 10 8.5 0.4 4.6-3.8 11.1-7.8 12.1-2.7 0.6-5.3 1.3-8 1.8-3.1 0.6-5.3 0.2-5.8-3.8-0.1-1.2-2.2-3.1-3.5-3.2-13.1-0.2-26.2-0.1-39.4-0.1-4.7 12.7-9.4 25.2-14.4 38.5h35.7c8.7-0.1 8.7-0.1 12-10.5zM443.6 491.2h-29.5c-7.8 0-12-6.3-9.3-13.6 4.7-12.7 9.8-25.2 13.8-38.1 1.9-6.1 4.4-11.2 9.7-14.4 2.8-1.8 6.5-3.1 9.8-3.2 19.8-0.3 39.7-0.1 59.5-0.1 6.6 0 10 3 8.7 9.3-1.6 8.1-4.5 15.9-7 23.8-1.9 6-4.7 11.9-5.9 18-2.1 10.3-11 18.3-21.5 18.3-9.4-0.1-18.9-0.1-28.3 0 0-0.1 0 0 0 0z m-18-15.7c15.4 0 29.5 0.1 43.6-0.1 1.4 0 3.5-1.3 4-2.5 3-7.5 5.7-15.1 8.4-22.7 1.5-4.2 2.8-8.5 4.5-13.3-15 0-29.7-0.1-44.4 0.1-1 0-2.5 1.5-2.9 2.6-2.2 5.3-4.2 10.7-6.2 16-2.3 6.3-4.5 12.6-7 19.9zM539.9 548c4-3.4 8.2-6.8 12.2-10.3 9.6-8.5 18.6-17.7 28.8-25.4 3.5-2.6 9.9-1.4 15-1.4 0.5 0 1.8 3.8 1.3 5.4-2 6.4-4.8 12.6-7 19-2.1 6-3.8 12.1-5.9 18-1.8 5.1-4 10-6 15-0.3 0.7-0.8 1.3-1.1 2.1-1.1 2.8-1.5 7-3.5 8.1-3 1.6-7.2 1.1-10.9 1.1-5.6 0.1-7-2.6-4.8-7.9 3.8-9.3 7.4-18.6 11.1-27.9 0.2-0.6-0.2-1.4-0.5-2.9-4.7 4.2-8.9 8-13.1 11.8-6.4 5.9-12.7 11.9-19.3 17.7-3.5 3.1-7.6 1.8-9.4-2.6-3.7-8.9-7.3-17.8-11-26.7-0.3-0.6-0.8-1.1-1.6-2.2-3.2 10.1-6.1 19.6-9.3 29.1-1.2 3.5-2 8.5-4.6 9.7-4 1.9-9.2 1.4-13.9 1.4-0.3 0-1.4-4.8-0.7-6.8 3.6-10.4 7.8-20.6 11.5-30.9 3.2-8.9 5.9-17.9 9.3-26.7 0.7-1.8 3.3-3.6 5.4-4.1 2.8-0.7 5.9-0.4 8.8-0.1 1.6 0.2 3.8 1 4.4 2.2 2 4.1 3.4 8.4 5.1 12.7 1.7 4.3 3.2 8.7 5 13 1.2 2.9 2.9 5.8 4.7 9.6zM965.2 466.2c5.9 6.4 11 11.7 15.9 17.2 1.3 1.5 1.9 3.6 2.8 5.4-2 0.8-4 1.6-6.1 2.2-0.9 0.3-2-0.1-2.9 0.1-13.5 2.9-20.2-4.7-26-15.4-2.4-4.5-4.8-10.7-12.9-9.9-5 0.5-6.9 2.7-8.1 6.7-1.6 5.2-2.9 10.4-5 15.4-0.6 1.5-3.2 2.7-5 3.1-2.4 0.5-5.1 0.1-7.6 0.1-6.8 0-8.4-2.2-6-8.6 5.1-13.1 10.3-26.2 15.3-39.4 2.1-5.6 3.2-11.5 5.5-17 0.8-2 3.8-4.2 5.9-4.3 20.2-0.3 40.4-0.2 60.6-0.2 4 0 5.7 2.3 5.9 5.8 0.2 3.1 0.8 6.5-0.1 9.3-2.3 7.5-4.5 15.2-8.3 21.9-3.1 5.4-9.4 7.3-15.8 7.4-2.5 0.3-4.6 0.2-8.1 0.2z m12.8-28.4c-1-0.3-1.9-0.7-2.8-0.7-9-0.2-18-0.4-27.1-0.7-4.7-0.2-9.2-0.5-8.9 6.5 0.1 1.4-1.8 2.9-2.7 4.4-1.4 2.6-0.8 4.2 2.4 4.1 10.2-0.2 20.4-0.3 30.6-0.7 1.5-0.1 3.5-1.2 4.2-2.4 1.7-3.2 2.8-6.7 4.3-10.5zM685.3 536.9c-4.7 13.6-9 26.5-13.6 39.3-0.5 1.4-2.3 2.4-3.8 3.2-0.7 0.4-1.9 0.2-2.9 0.2-12.8 0.3-12.9 0.2-8.8-11.4 5.3-15.1 10.9-30.1 16.3-45.1 0.3-0.9 0.3-2 0.8-2.8 1.9-3.4 3.3-8.8 6-9.6 4.7-1.3 10.2-2.4 14.7 3.4 9.2 12.1 19.4 23.5 29.2 35.2 0.8 0.9 2 1.5 3.3 2.5 3.4-10.5 6.5-20.4 9.9-30.2 1.1-3.3 2.6-6.5 4.3-9.5 0.6-1.1 2.4-1.8 3.8-2 2.1-0.3 4.3-0.1 6.5-0.1 8.2 0 8.3 0.6 5.6 8-3.5 9.4-6 19.1-9.5 28.5-3.7 10.1-7.9 20.1-12.1 30-1.7 4-12.5 4.4-15.8 0.6-8.2-9.6-16.2-19.4-24.3-29.2-3.2-3.3-6.2-6.9-9.6-11zM634.6 475.4h38.5c3.2-9.7 6.2-19.4 9.6-29 2.6-7.3 5.4-14.5 8.5-21.6 0.6-1.4 2.9-2.6 4.6-2.9 2.5-0.5 5.1-0.1 7.6-0.1 7.3 0 8.9 2.6 6.2 9.3-4.3 11-8.1 22.1-12.3 33.1-2.5 6.4-4.8 13.1-8.3 19-3 5.1-8.2 8.1-14.8 8.1-16.9-0.2-33.8-0.1-50.7-0.1-9.6 0-13.8-6.6-10.4-15.8 5.3-14.3 10.4-28.6 15.3-43 3.1-9.1 10.3-13.2 19.5-10.5 4.8 1.4 3.2 4.7 1.9 8.1-5.2 14.1-10.2 28.3-15.2 42.5 0 0.6 0.1 1.4 0 2.9zM358.9 465.6h-16.5c-7.3 0-10.1 2.6-11.8 9.9-1.1 4.6-3 9.1-5 13.5-0.5 1.2-2.8 2-4.4 2.2-2.7 0.3-5.5 0.1-8.2 0-6.1-0.1-7.7-3.1-5.3-8.6 2.9-6.5 5-13.3 7.6-20 2.2-5.7 4.8-11.3 7-17.1 2-5.2 3.9-10.4 5.3-15.8 1.4-5.3 3.4-8.4 9.9-8.2 18.5 0.5 36.9 0.1 55.4 0.2 7 0 10.7 3 9.1 9.5-2.3 9.5-5.4 19.1-10.2 27.5-2.1 3.7-9.1 5.7-14.2 6.6-6 1.1-12.4 0.3-18.7 0.3z m-18.9-15h29.2c6.9 0 12.3-6 12.1-14-10 0-19.9-0.2-29.9 0.1-2.9 0.1-7-1-8.2 3.8-0.7 3.1-1.9 6.1-3.2 10.1zM573.6 421.7h28.8c5.8 0 10.2 3.7 8.7 9-2.7 9.8-6 19.7-11 28.4-2.1 3.7-9.3 5.7-14.3 6.1-11.3 0.9-22.7 0.3-34.1 0.3-8 0-10.7 2.6-12.5 10.4-1 4.6-2.9 9.2-4.9 13.5-0.5 1-3 1.5-4.6 1.6-14.1 0.7-14.3 0.6-10.4-12.5 2.2-7.4 5.3-14.4 7.8-21.7 3.2-9.3 6.4-18.6 9.4-27.9 1.5-4.7 3.7-7.7 9.5-7.4 9.2 0.6 18.4 0.2 27.6 0.2z m16.7 14.8c-10.2 0-19.9-0.1-29.7 0-5.1 0-9.3 1-9.2 7.7 0 1.9-1.4 3.7-2.4 6.4h28.3c7.3 0 12.8-5.5 13-14.1zM859.8 421.7c12.2 0 11.8 0.3 13.5 11.8 1.7 11.5 4.9 22.8 7.4 34.2 1.2 5.5 2.4 11 3.7 16.5 1.1 5.1-0.1 6.8-5.5 6.9-2.7 0.1-5.5 0-8.2 0-6.7 0-8.5-1.3-8.6-8 0-4.5-1.5-5.8-5.8-5.7-10 0.2-20 0.3-30-0.1-5.4-0.2-8.3 3.1-11 6.6-5.4 6.9-11.6 9.2-20.1 7.1-3.5-0.9-4-3.5-1.2-6.5 17.5-18.8 35-37.5 52.4-56.4 3.9-4.4 7.8-8.2 13.4-6.4z m-5.6 19.7c-5.1 5.5-9.4 10.1-13.6 14.7-0.6 0.7-0.6 2.1-0.8 3.2 4.7 0.4 9.5 1 14.2 1.2 1.2 0 2.9-1 3.5-2 0.6-1 0.3-2.7 0-4-0.9-4-2-8.1-3.3-13.1zM455.4 579.7c-1.8 0-3.5-0.1-5.3 0-4.4 0.2-6.8-1.7-6.3-6.3 0.7-5.9-2.1-7.5-7.5-7.3-7.1 0.3-14.2 0.9-21.2-0.1-9.9-1.4-16.3 2.8-21.9 10-2.5 3.2-15.1 5.4-18 2.9-1-0.9-1.1-4.2-0.3-5.2 19-20.7 38.1-41.4 57.6-61.7 1.9-1.9 6.5-1.6 9.9-1.7 10-0.2 9.9 0 11.9 9.3 2.8 12.9 5.7 25.8 8.5 38.8 1.1 5.3 2.5 10.6 3 15.9 0.2 1.7-1.9 4.3-3.6 5.1-1.8 0.9-4.5 0.2-6.8 0.3 0-0.1 0 0 0 0zM435.5 530c-4.6 5-9.1 9.5-13.2 14.4-2.2 2.6-1.2 4.8 2.5 4.9 3.3 0.1 6.7-0.3 9.9 0.1 4.7 0.6 5.6-1.6 4.6-5.4-1.1-4.4-2.4-8.8-3.8-14zM741.9 475.5c14.7 0 27.4-0.1 40.1 0.1 3.1 0.1 8.2-2.3 8.2 4.3-0.1 6-4.3 11.2-9.1 11.3h-57.2c-6.3 0-6.7-0.8-4.6-6.8 4.6-13.1 8.9-26.2 13.6-39.2 2.5-7.1 5.3-14.1 8.3-20.9 0.5-1.2 2.6-2.2 4.1-2.3 3.1-0.4 6.3-0.2 9.4-0.1 5.4 0.1 7.1 2.9 5.2 7.9-4.2 11.2-8.2 22.4-12.5 33.6-1.4 3.6-3.2 7.1-5.5 12.1zM612.9 579.7c-1.8 0-3.5 0.1-5.3 0-3.9-0.4-4.9-2.4-3.5-6.1 3.8-10.3 7.2-20.8 11.1-31 3.6-9.6 7.3-19.1 11.5-28.4 0.8-1.8 3.9-2.8 6.1-3.9 1-0.5 2.3-0.1 3.5-0.1 10.8 0 10.7 0 7.3 9.9-4.6 13.3-9 26.6-13.5 39.9-1.5 4.4-2.9 8.8-4.7 13-2.8 6.4-3.5 6.6-12.5 6.7z" p-id="6317"></path></svg>