<?xml version="1.0" standalone="no"?><!DOCTYPE svg PUBLIC "-//W3C//DTD SVG 1.1//EN" "http://www.w3.org/Graphics/SVG/1.1/DTD/svg11.dtd"><svg t="1574847741385" class="icon" viewBox="0 0 1024 1024" version="1.1" xmlns="http://www.w3.org/2000/svg" p-id="3849" xmlns:xlink="http://www.w3.org/1999/xlink" width="200" height="200"><defs><style type="text/css"></style></defs><path d="M872.6 618.5c-1.6 4.3-3.2 8.5-4.8 12.9h-2.6c-1.5-4.3-3-8.6-4.6-13.2-0.1 0.4-0.1 0.5-0.1 0.6 0 3.8 0.1 7.6 0.1 11.4v0.9c0 0.7 0.3 1.2 0.9 1.4 0.6 0.2 0.7 0.6 0.5 1.1h-5.2c-0.2-0.5-0.2-0.9 0.4-1.1 0.8-0.3 1-0.9 1-1.7v-4.7-8.7c0-0.9-0.1-1.6-1.1-2-0.5-0.2-0.4-0.5-0.3-1h7c1.2 3.7 2.5 7.4 3.9 11.4 1.5-4 2.8-7.7 4.2-11.4h6.6c0.2 0.5 0.2 0.9-0.4 1.1-0.7 0.2-0.9 0.8-1 1.5v12.9c0 0.4 0 0.9 0.1 1.3 0.1 0.6 0.3 1 0.9 1.2 0.6 0.2 0.6 0.5 0.5 1.1h-7.1c-0.2-0.5-0.2-0.9 0.5-1.1 0.6-0.2 0.9-0.7 0.9-1.3V630c0-3.7 0.1-7.4 0.1-11.2 0-0.1 0-0.2-0.1-0.3h-0.3zM459.8 614.4c0.2 0.6 0 0.9-0.5 1.1-0.6 0.2-0.9 0.7-0.9 1.3v5.6c0.9 0.2 4.9 0.3 6.3 0v-1.6-3.7c0-0.7-0.2-1.4-1-1.7-0.5-0.2-0.6-0.5-0.4-1.1h7.2c0.2 0.4 0.2 0.8-0.3 1-0.9 0.3-1 1.1-1 1.9v13.4c0 0.8 0.2 1.5 1 1.8 0.4 0.2 0.4 0.2 0.3 1h-7.2c-0.1-0.5-0.2-0.9 0.4-1.1 0.7-0.2 0.9-0.8 1-1.5v-3.5-2.9c-0.8-0.3-4.2-0.3-6.2-0.1 0 0.2-0.1 0.3-0.1 0.5v5.7c0 0.8 0.2 1.5 1 1.8 0.4 0.2 0.4 0.2 0.3 1h-7.3c-0.1-0.5-0.2-0.9 0.5-1.1 0.7-0.2 0.9-0.7 0.9-1.4v-1-12.2-0.2c0-1.1-0.1-2.1-1.5-2.3v-0.9c2.7 0.2 5.1 0.2 7.5 0.2zM828.1 624.5H822c0 0.3-0.1 0.5-0.1 0.8v5.1c0 0.9 0.1 1.8 1.2 2.2 0.2 0.1 0.3 0.6 0.4 1h-7.4c-0.2-0.5-0.2-0.9 0.5-1.1 0.6-0.2 0.8-0.7 0.9-1.3V630v-11.8-1.1c0-0.7-0.2-1.2-0.9-1.4-0.6-0.2-0.6-0.5-0.4-1.1h7.2c0.2 0.5 0.2 0.9-0.4 1.1-0.7 0.2-1 0.8-1 1.5v5.6c2.1 0.1 4.1 0 6.3 0v-2.3-3.4c0-0.7-0.2-1.2-0.9-1.4-0.5-0.2-0.6-0.6-0.4-1.1h7.2v0.9c-1.4 0.2-1.5 1.3-1.5 2.4v12.6c0 1 0 1.9 1.2 2.3 0.2 0.1 0.2 0.6 0.4 1h-7.5v-0.9l0.6-0.3c0.6-0.2 0.8-0.6 0.8-1.2-0.1-2.4-0.1-4.6-0.1-6.9zM676.5 625.6v5.3c0 0.7 0.3 1.3 1 1.5 0.6 0.2 0.6 0.6 0.4 1.1h-7.2c-0.2-0.5-0.2-0.9 0.5-1.1 0.6-0.2 0.8-0.7 0.9-1.3V630v-12.1-1c0-0.7-0.2-1.2-0.9-1.4-0.5-0.2-0.7-0.5-0.5-1.1 0.1 0 0.2-0.1 0.3-0.1 3.2 0 6.3 0 9.5 0.1 1 0 2 0.3 2.9 0.7 1.4 0.6 2.3 1.7 2.5 3.3 0.4 2.7-0.5 4.6-2.9 5.8-0.3 0.2-0.6 0.3-0.9 0.5 0.1 0.1 0.1 0.2 0.2 0.3 1.3 0.7 2.1 1.8 2.7 3.1 0.4 0.8 0.8 1.7 1.2 2.5 0.4 0.8 0.9 1.5 1.8 1.9 0.4 0.2 0.4 0.2 0.3 1.1h-4.9c-0.5 0-0.7-0.3-0.8-0.6-0.6-1.1-1.1-2.1-1.6-3.2-0.4-0.9-0.8-1.8-1.2-2.6-1-1.6-1.4-1.8-3.3-1.6z m0-1.9c2.2 0.4 3.8-0.1 4.5-1.3 0.8-1.4 0.7-4.2-0.3-5.3-0.8-1-2.8-1.3-4.2-0.8v7.4zM477.4 619.5v11.1c0 0.8 0.2 1.5 1.1 1.9 0.4 0.2 0.4 0.2 0.3 1h-5.1c-0.1-0.4-0.3-0.9 0.3-1.1 0.9-0.3 1-1 1-1.8v-6.8-6.6c0-0.8-0.2-1.5-1.1-1.9-0.4-0.1-0.3-0.2-0.4-1 0.3 0 0.6-0.1 0.8-0.1h3.8c0.8 0 1.3 0.3 1.6 1 2.3 4.1 4.6 8.2 7 12.3 0-0.1 0.1-0.3 0.1-0.4 0-2.7-0.1-5.4-0.1-8.2v-1.3c0-1.1-0.1-2.1-1.5-2.4v-0.9h5.2c0.2 0.5 0.1 0.9-0.4 1.1-0.7 0.2-0.9 0.7-0.9 1.4 0 0.6-0.1 1.2-0.1 1.8v14.8h-3.7c-2.4-4.4-5.1-9.1-7.9-13.9zM912.4 615.4v-0.9h5.2c0.2 0.5 0.2 0.9-0.4 1.1-0.7 0.2-0.9 0.7-0.9 1.4 0 0.6-0.1 1.2-0.1 1.8v14.8h-3.7c-2.6-4.6-5.3-9.3-8.1-14.1 0 0.3-0.1 0.4-0.1 0.5 0 3.5 0.1 7 0.1 10.5 0 0.9 0.1 1.8 1.2 2.1 0.3 0.1 0.3 0.2 0.2 1h-5.1c-0.1-0.4-0.3-0.9 0.3-1.1 0.9-0.3 1-1 1-1.8v-7.1-6.3c0-0.8-0.2-1.5-1.1-1.9-0.4-0.1-0.3-0.2-0.4-1 0.3 0 0.6-0.1 0.8-0.1h3.8c0.8 0 1.3 0.3 1.6 1 2.3 4.1 4.6 8.2 7 12.3 0-0.1 0.1-0.3 0.1-0.4 0-2.7-0.1-5.4-0.1-8.2v-1.3c0.2-1.1 0.1-2.1-1.3-2.3zM502.5 614.1c0.5 0 1.2 0.1 1.9 0.2 3.4 0.6 5.4 2.7 6.1 6.3 0.5 2.3 0.4 4.6-0.1 6.9-0.9 4-3.5 6.1-7.5 6.4-1.1 0.1-2.3 0-3.4-0.3-2.4-0.5-4.1-1.9-4.9-4.3-1.2-3.4-1.3-6.9 0.1-10.4 1.1-2.9 3.4-4.4 6.5-4.7 0.3 0 0.7 0 1.3-0.1z m3.8 10.2h-0.1c0-0.9-0.1-1.9-0.2-2.8-0.1-1.3-0.4-2.6-1-3.9-0.6-1.1-1.6-1.8-2.9-1.8-1.4 0-2.4 0.7-2.9 1.9-0.3 0.7-0.6 1.5-0.7 2.2-0.4 2.2-0.4 4.5-0.2 6.7 0.1 1.4 0.4 2.8 1.2 4 1.3 2 4.1 2 5.4 0 0.3-0.5 0.6-1.1 0.7-1.7 0.3-1.5 0.5-3.1 0.7-4.6zM547.3 623.7c-0.1 1.1-0.2 2.3-0.4 3.3-0.8 4.1-3.5 6.5-7.7 6.7-1.1 0.1-2.2 0-3.2-0.2-2.6-0.5-4.4-2.1-5.2-4.7-1-3.1-1-6.2 0-9.3 1.1-3.3 3.6-5.2 7-5.4 1-0.1 2-0.1 3 0.1 3.3 0.6 5.4 2.6 6 6 0.3 1.2 0.4 2.4 0.5 3.5z m-4.5 0.9c-0.1-1.5-0.2-2.7-0.3-3.9-0.2-1.2-0.4-2.3-1.1-3.4-1.3-2-4.1-2.1-5.4 0-0.4 0.6-0.7 1.4-0.9 2.2-0.6 3-0.6 6 0 9 0.2 0.7 0.5 1.5 0.9 2.2 1.3 2.1 4.2 2.1 5.5 0 0.3-0.6 0.6-1.2 0.8-1.8 0.2-1.7 0.4-3.1 0.5-4.3zM700.8 615.1v-0.8h6.1c0 0.3 0 0.6 0.1 0.9-1.4 0.2-1.5 1.2-1.5 2.3v8.8c0 1-0.1 2.1-0.3 3.1-0.4 2-1.6 3.3-3.6 3.9-2.3 0.6-4.6 0.6-6.8-0.1-2.3-0.7-3.4-2.4-3.7-4.7-0.1-1.3-0.1-2.6-0.1-3.9v-6.3-0.9c0-1.1-0.1-2.1-1.5-2.3v-0.9h7.3c0.2 0.5 0.2 0.9-0.4 1.1-0.6 0.2-0.9 0.7-0.9 1.4v0.4c0 3.8 0 7.5 0.1 11.3v0.4c0.3 2.6 1.8 3.5 4.6 2.9 0.9-0.2 1.5-0.9 1.7-1.8 0.2-0.9 0.4-1.9 0.4-2.9v-9.6c-0.1-1.5-0.1-1.6-1.5-2.3zM836.9 615.2v-0.9h7.3c0.2 0.5 0.2 0.9-0.4 1.1-0.7 0.2-0.9 0.8-1 1.5v0.3c0 3.8 0 7.5 0.1 11.3v0.4c0.3 2.6 1.9 3.5 4.6 2.9 0.9-0.2 1.5-0.9 1.7-1.8 0.2-0.9 0.4-1.9 0.4-2.9v-9.6c0-1.1-0.1-2.1-1.4-2.4v-0.9h6.1c0 0.3 0 0.5 0.1 0.9-1.4 0.2-1.5 1.3-1.5 2.4v8.8c0 1-0.1 2.1-0.3 3.1-0.4 1.9-1.6 3.2-3.4 3.8-2.3 0.7-4.7 0.7-7-0.1-2.2-0.7-3.3-2.4-3.6-4.7-0.1-1.2-0.1-2.5-0.1-3.7v-6.5-0.9c-0.2-0.9-0.3-1.9-1.6-2.1zM424.8 631.9h3.5c0.8 0 1.4-0.6 1.7-1.2 0.4-0.6 0.6-1.3 0.9-2.1h1.9c-0.1 1.7-0.2 3.3-0.2 5h-13.8c-0.2-0.5-0.2-0.9 0.5-1.1 0.6-0.2 0.8-0.7 0.9-1.3 0-0.4 0.1-0.8 0.1-1.2v-11.9-0.2c0-1.7-0.1-1.8-1.5-2.6v-0.8h13.9v4.4h-1.9c-0.2-0.4-0.3-0.8-0.5-1.2-0.4-1-1.2-1.5-2.3-1.5h-3.3v6.5c2.5 0.5 2.9 0.3 3.8-1.8h1.5v5.7h-1.5c-1.1-2.2-1.1-2.2-3.8-1.9 0.1 2.2 0.1 4.6 0.1 7.2zM567 624.7c-0.2 0.5-0.3 0.9-0.5 1-0.8 0.4-1 1.1-1 1.8v5.7c-0.7 0.2-1.3 0.3-2 0.5-0.3-0.3-0.7-0.6-1-0.9-1.4 0.7-2.8 1.1-4.3 0.9-0.7-0.1-1.5-0.1-2.2-0.3-2.4-0.6-4-2.1-4.8-4.4-1-2.9-1-5.9-0.2-8.9 1-3.6 3.8-5.8 7.6-6 1.9-0.1 3.9 0 5.8 0.5 0.2 0.1 0.5 0.2 0.8 0.2v3.9h-1.9c-0.1-0.2-0.2-0.5-0.3-0.8-0.8-2.1-2.9-2.9-4.9-1.9-0.9 0.4-1.5 1.1-1.9 2-0.6 1.2-0.9 2.6-1 4-0.2 2.1-0.2 4.3 0.4 6.3 0.2 0.9 0.6 1.7 1.1 2.5 0.5 0.8 1.3 1.1 2.3 1.1 1.2 0 2-0.6 2.1-1.8 0.1-1.1 0.1-2.3 0-3.4 0-0.5-0.4-0.9-0.9-1.1-0.6-0.2-0.6-0.6-0.4-1.1 2.3 0.2 4.6 0.2 7.2 0.2zM891 633.6c-0.1-0.5-0.1-0.8 0.4-1 0.9-0.3 1-0.6 0.9-1.5 0-0.4-0.1-0.8-0.2-1.2l-0.6-2.1h-6c-0.3 1-0.6 1.9-0.8 2.9-0.2 1 0.1 1.5 1 1.9 0.5 0.2 0.4 0.5 0.3 1h-5.9c-0.1-0.5-0.2-0.8 0.4-1.1 0.8-0.4 1.2-1.2 1.5-2 0.7-1.8 1.3-3.5 2-5.3 1.2-3.3 2.4-6.5 3.7-9.8 0.1-0.3 0.3-0.7 0.4-1.1h3.8c0.1 0.4 0.3 0.8 0.4 1.2 1.4 4.8 2.8 9.6 4.3 14.4 0.1 0.5 0.2 1 0.5 1.4 0.3 0.4 0.6 0.9 1 1.1 0.5 0.3 0.6 0.6 0.5 1.1-2.5 0.1-5 0.1-7.6 0.1z m0.1-7.6c-0.7-2.5-1.4-4.9-2.1-7.3h-0.3c-0.9 2.4-1.7 4.8-2.6 7.3h5zM709.5 633.2v-4.3h1.9c0.2 0.5 0.3 1 0.6 1.4 0.8 1.8 3.4 2.4 5 1.3 1.2-0.9 1.4-3 0.2-4.3-0.7-0.7-1.5-1.2-2.3-1.7-0.9-0.6-1.9-1.1-2.8-1.8-1.2-0.8-1.9-2-2.2-3.4-0.4-2.3 0.6-4.4 2.7-5.5 0.6-0.3 1.3-0.5 2-0.7 2.5-0.4 4.9-0.2 7.3 0.4v4.1H720c-0.1-0.4-0.3-0.8-0.5-1.2-0.8-1.7-3.1-2.4-4.6-1.3-1.1 0.8-1.4 2.5-0.4 3.7 0.3 0.4 0.8 0.8 1.2 1.1 0.6 0.4 1.4 0.8 2 1.2 0.7 0.4 1.5 0.9 2.2 1.4 2 1.6 2.6 3.7 2 6.1-0.6 2.3-2.2 3.4-4.4 3.9-2.1 0.5-4.2 0.2-6.2-0.1-0.6 0-1.2-0.2-1.8-0.3zM663.4 633.6h-7.6v-0.9c1.5-0.6 1.6-0.7 1.6-2.3v-13.5c0-0.3 0-0.5-0.1-0.7-2.4-0.4-2.9-0.1-4.1 3.1h-1.8v-4.8c0.8-0.2 14.5-0.3 16.4-0.1v4.8H666c-1.4-3.2-1.7-3.5-4.1-3.1 0 0.3-0.1 0.6-0.1 0.8V631c0 0.7 0.3 1.3 1 1.4 0.8 0.3 0.8 0.6 0.6 1.2zM579.9 614.4h5.5c0.2 0.4 0.2 0.7-0.2 1-0.6 0.5-1.2 0.9-1.5 1.6-1.6 2.9-3.2 5.9-4.8 8.8-0.1 0.3-0.2 0.6-0.2 1v3.8c0 0.9 0.2 1.7 1.3 1.9 0.4 0.1 0.4 0.2 0.3 1h-7.5c-0.3-0.8-0.3-0.8 0.4-1.1 0.7-0.3 1-0.7 1-1.4v-4.6c0-0.3-0.1-0.6-0.3-0.8-1.3-2.8-2.6-5.6-4-8.4-0.4-0.8-0.7-1.5-1.6-2-0.2-0.1-0.2-0.5-0.3-0.9h7.5c0.1 0.4 0.2 0.7-0.2 1-0.7 0.5-0.8 0.8-0.6 1.7 0 0.1 0.1 0.2 0.1 0.3 0.9 2.1 1.8 4.1 2.8 6.4 0.3-0.5 0.5-0.9 0.7-1.3 0.6-1.3 1.3-2.6 1.9-3.9 0.3-0.6 0.5-1.2 0.6-1.8 0.1-0.5 0-1.1-0.6-1.3-0.4-0.2-0.4-0.5-0.3-1zM960.7 632.7v0.5c0 0.1-0.1 0.2-0.1 0.4H953c-0.2-0.5-0.2-0.9 0.5-1.1 0.8-0.2 1.1-0.8 1.1-1.5v-4.5c0-0.3-0.1-0.6-0.2-0.8-1.3-2.8-2.6-5.6-4-8.4-0.4-0.8-0.7-1.5-1.6-2-0.2-0.1-0.2-0.5-0.4-0.9h7.6c0.1 0.4 0.2 0.8-0.3 1-0.6 0.2-0.7 0.7-0.6 1.3 0 0.2 0.1 0.4 0.1 0.5 0.9 2.1 1.9 4.2 2.8 6.5 0.2-0.4 0.4-0.6 0.5-0.9 0.7-1.4 1.4-2.7 2-4.1 0.3-0.6 0.5-1.2 0.7-1.8 0.2-0.7 0.1-1.3-0.6-1.6-0.5-0.2-0.4-0.5-0.3-1h5.5c0.2 0.4 0.2 0.8-0.2 1-0.8 0.4-1.3 1-1.7 1.8-1.6 2.9-3.1 5.8-4.6 8.7-0.2 0.3-0.2 0.7-0.2 1.1v3.6c-0.1 1.4 0.1 1.6 1.6 2.2zM401.4 619.3h-1.9v-4.7c0.8-0.3 15-0.3 16.5-0.1v4.8h-1.9l-0.3-0.9c-0.7-2.1-1.4-2.5-3.8-2.3 0 0.3-0.1 0.5-0.1 0.8v13.7c0 1.1 0.3 2 1.6 2 0 0.4 0 0.6 0.1 1h-7.7c0-0.3 0-0.5-0.1-0.9 0.2-0.1 0.5-0.2 0.7-0.2 0.6-0.2 0.9-0.6 1-1.2 0-0.4 0.1-0.8 0.1-1.2v-13c0-0.3 0-0.6-0.1-0.9-2.2-0.5-2.7-0.1-4.1 3.1zM730.3 616.2c-2.5-0.3-2.9 0-4.1 3.1h-1.9v-4.7c0.7-0.3 14.8-0.4 16.5-0.1v4.8h-1.9c-0.1-0.2-0.2-0.5-0.3-0.8-0.7-2.1-1.4-2.5-3.7-2.3 0 0.3-0.1 0.5-0.1 0.8V630.8c0 1.1 0.4 1.8 1.6 1.9 0 0.3 0 0.6 0.1 0.9h-7.8v-0.9c0.2-0.1 0.4-0.1 0.6-0.2 0.6-0.2 0.9-0.6 1-1.2 0-0.4 0.1-0.8 0.1-1.2v-13c0-0.3 0-0.6-0.1-0.9zM932.4 619.3h-1.9v-4.7c0.8-0.3 14.9-0.3 16.5-0.1v4.8h-1.9l-0.3-0.9c-0.7-2.1-1.4-2.5-3.8-2.3 0 0.3-0.1 0.5-0.1 0.8v13.6c0 1.1 0.3 2 1.6 2 0 0.4 0 0.6 0.1 1h-7.7c0-0.3-0.1-0.5-0.1-0.9 0.2-0.1 0.5-0.2 0.7-0.2 0.6-0.2 0.9-0.6 1-1.2 0-0.4 0.1-0.8 0.1-1.2v-13c0-0.3 0-0.6-0.1-0.9-2.2-0.4-2.8 0.1-4.1 3.2zM449.6 614.9v4h-1.9c-0.1-0.3-0.2-0.6-0.4-0.9-0.9-2.2-3.3-2.8-5-1.2-0.5 0.4-0.8 1-1.1 1.5-0.3 0.8-0.6 1.7-0.8 2.6-0.4 2.5-0.4 5 0.1 7.5 0.2 0.8 0.5 1.6 1 2.3 0.8 1.3 2.2 1.7 3.9 1.2 0.8-0.2 1.3-0.8 1.6-1.5 0.2-0.5 0.4-1 0.6-1.6h1.8v4.3c-2.9 0.7-5.7 1.1-8.6 0.3-2.2-0.6-3.7-1.9-4.4-4-1.1-3.3-1.2-6.7 0-9.9 1.2-3.3 3.6-5 7.1-5.3 2.4-0.2 4.5 0 6.1 0.7zM519.8 631.8h3.1c1 0 1.6-0.6 1.9-1.5 0.3-0.8 0.6-1.6 0.9-2.5h1.8c0.1 1.9-0.1 3.7-0.2 5.5-0.9 0.2-10.8 0.3-13.3 0.1-0.1-0.5-0.3-0.9 0.4-1.1 0.7-0.2 0.9-0.8 0.9-1.5v-1.6-10.9-1.4c0-0.7-0.2-1.2-0.9-1.5-0.6-0.2-0.6-0.6-0.4-1.1h7.2c0.2 0.5 0.1 0.9-0.4 1.1-0.7 0.2-0.9 0.8-0.9 1.4V631c-0.2 0.2-0.1 0.4-0.1 0.8zM927.9 633.6h-7.2c-0.2-0.5-0.2-0.9 0.4-1.1 0.6-0.2 0.9-0.7 0.9-1.4v-1.6-11.2-1.3c0-0.7-0.2-1.2-0.9-1.5-0.6-0.2-0.6-0.6-0.4-1.1h7.2v0.9c-1.4 0.3-1.5 1.3-1.5 2.5v12.4c0 0.3 0 0.7 0.1 1 0.1 0.6 0.3 1.1 0.9 1.3 0.6 0.1 0.7 0.5 0.5 1.1zM616.4 609.4h3.3v29.2h-3.3zM774.3 609.4h3.3v29.2h-3.3z" p-id="3850"></path><path d="M557.9 432.2c0.8 3.5 1.7 7 2.5 10.5 4.4 18.1 8.9 36.3 13.3 54.4 4.7 19 9.3 38.1 14 57.1 1.7 7 3.4 13.9 5.1 20.9 0.1 0.3 0.1 0.6 0.2 1-6 0.9-12 1.7-18.1 2.5-8.3-34.5-16.5-69-24.8-103.5h-0.2c-8 34.5-16 69-24.1 103.6-6.6-0.8-13.1-1.7-19.7-2.5 0.1-0.4 0.1-0.8 0.2-1.1 7.1-27.1 14.3-54.2 21.4-81.4 4.3-16.3 8.6-32.5 12.8-48.8 0.2-0.7 0.5-1.1 1.1-1.5 5-3.4 10-6.9 14.9-10.4 0.4-0.2 0.7-0.6 1-0.8h0.4zM884.4 432.2l1.8 6.9c5 20.2 9.9 40.4 14.9 60.6 4.6 18.8 9.2 37.5 13.8 56.3 1.6 6.5 3.2 12.9 4.7 19.4 0.1 0.2 0.1 0.4 0.1 0.7-6.1 0.8-12 1.7-18.1 2.5-1.7-6.9-3.3-13.8-5-20.7-1.7-6.9-3.3-13.9-5-20.8-1.7-6.9-3.3-13.8-5-20.7-1.7-6.9-3.3-13.9-5-20.8-1.7-6.9-3.3-13.7-5-20.6h-0.2c-8 34.5-16 68.9-24 103.5-6.6-0.8-13.1-1.7-19.7-2.5 0.1-0.5 0.2-0.9 0.3-1.3 8.8-33.5 17.6-66.9 26.4-100.4 2.6-9.8 5.2-19.6 7.7-29.4 0.2-0.7 0.5-1.2 1.2-1.6 5-3.4 10-6.9 14.9-10.4 0.3-0.2 0.6-0.5 0.8-0.8 0.3 0.1 0.4 0.1 0.4 0.1zM363.3 436.6c0.4 0 0.8-0.1 1.2-0.1h24c5.7 0 11.5 0.4 17.1 1.6 2.9 0.6 5.7 1.4 8.4 2.7 6.4 3 10.6 8.1 13.3 14.6 1.6 3.8 2.4 7.9 2.9 12 0.7 6 0.8 12.1 0.4 18.2-0.3 5.4-1 10.8-2.9 16-1.1 3-2.5 5.9-4.6 8.4-3.2 3.9-7.4 6.2-12.1 7.7-3.4 1-6.8 1.4-10.3 1.8-5.8 0.6-11.6 0.4-17.4 0.4h-1.2l-0.1 0.1s0 0.1-0.1 0.1v55.7s0 0.1-0.1 0.2c-0.2 0-0.4 0.1-0.7 0.1h-17.3c-0.1 0-0.3 0-0.4-0.1-0.1-46.4-0.1-92.9-0.1-139.4z m18.6 69.7h6.9c3.1-0.1 6.2-0.4 9.2-1.1 2.9-0.7 5.6-1.8 7.7-4 1.5-1.6 2.6-3.5 3.3-5.5 1.2-3.1 1.7-6.4 2-9.7 0.4-4.9 0.4-9.8 0-14.8-0.3-3-0.8-6-1.8-8.8-1.7-4.7-4.7-8.1-9.4-9.8-0.8-0.3-1.6-0.5-2.4-0.7-5-1.3-10.1-1.2-15.2-1.1-0.1 0-0.1 0.1-0.2 0.1-0.1 18.4-0.1 36.8-0.1 55.4zM745.5 432.2l1.8 3.3c1.6 2.8 3.2 5.6 4.9 8.4 0.2 0.3 0.3 0.6 0.6 1-1.4 0.4-2.7 0.8-4.1 1.2-5 1.5-10.1 2.9-15.1 4.4-3.9 1.2-7.5 3-10.7 5.5-3.9 3.1-6.5 6.9-7.4 11.9-0.2 0.9-0.2 1.8 0 2.7 0.7 3.1 1.9 6.1 3.5 8.9 10.2 17 20.5 33.9 30.6 50.9 5.3 8.9 5.4 20.9-3 30.1-5.3 5.8-11.7 9.9-19 12.7-3.7 1.4-7.6 2.4-11.4 3.4-3.8 1-7.6 2.1-11.4 3.1-0.2 0.1-0.5 0.1-0.8 0.2l-7.5-12.9c0.4-0.1 0.7-0.2 1-0.3 6-1.5 11.9-2.9 17.9-4.4 4.5-1.2 8.6-3.1 12.2-6.2 2.5-2.2 4.5-4.8 5.4-8 1.2-4 0.6-7.9-1-11.6-0.4-0.9-0.8-1.7-1.3-2.5-9.9-16.4-19.9-32.8-29.9-49.2-2.8-4.6-4.6-9.4-5.2-14.7-0.2-2 0.2-3.9 0.6-5.8 1.3-5.3 4.1-9.8 7.8-13.7 4.6-4.8 10.2-8.1 16.3-10.7 4.3-1.8 8.8-2.9 13.2-4.2 3.5-1 7-1.9 10.5-2.9 0.3-0.1 0.7-0.3 1-0.4 0.2-0.2 0.3-0.2 0.5-0.2zM931.8 436.6c0.4 0 0.6-0.1 0.9-0.1 9.7 0 19.4 0 29.1 0.1 5.7 0.1 11.3 0.9 16.7 2.6 8.7 2.6 14.5 8.2 17.8 16.6 1.5 3.8 2.3 7.8 2.8 11.9 0.5 4.3 0.8 8.7 0.7 13.1-0.2 5.9-0.7 11.7-2.4 17.3-0.9 2.8-1.9 5.6-3.4 8.2-2.6 4.5-6.2 7.8-11 9.7-1.9 0.8-3.9 1.6-5.8 2.4-0.3 0.1-0.6 0.3-1 0.5 8.6 18.5 17.3 37 26 55.7-5.4 1.5-10.7 2.9-16.2 4.4-10.8-24.3-21.7-48.5-32.6-72.9 0.5 0 0.9-0.1 1.3-0.1 2.2 0 4.3 0 6.5-0.1 2.6-0.1 5.2-0.6 7.7-1.5 2.6-0.9 4.6-2.4 6.2-4.6 2.1-2.8 3.2-6 3.8-9.4 1-5.5 1.2-11.1 0.7-16.7-0.3-3.6-0.8-7.1-1.8-10.5-0.8-2.7-2.1-5.1-4-7.1-2.4-2.5-5.3-3.7-8.6-4.4-2.6-0.6-5.3-0.9-8-0.9h-6.8v125.6h-18.6V436.6zM675.6 432.6c6.5 1.5 12.8 3 19.2 4.5-24.5 48-48.9 95.9-73.4 143.9-5.9-2-11.7-4-17.7-6 0.2-0.5 0.4-0.9 0.6-1.3 8.4-16.5 16.9-33 25.3-49.6 0.4-0.7 0.9-1.4 1-2.2 0-0.7-0.5-1.4-0.8-2.1-11.8-27.2-23.6-54.3-35.3-81.5-0.2-0.4-0.3-0.7-0.5-1.2 6.2-1.5 12.4-3 18.7-4.5 9.8 22.4 19.6 44.8 29.5 67.5 11.1-22.7 22.2-45.1 33.4-67.5zM442.6 436.6h19.1v125.3H493c1 0 1.4 0.3 1.8 1.2 1.8 3.9 3.8 7.8 5.6 11.7 0.2 0.4 0.3 0.7 0.5 1v0.2h-57.7c-0.2 0-0.4 0-0.6-0.1V436.6zM785 450.7h-18.5c0.1-0.9 4.9-10.7 6.9-14.1H825c-2.5 4.8-5 9.4-7.5 14.1H804v125.4c-1.6 0.1-3.2 0-4.8 0.1H785.1c-0.1-41.9-0.1-83.6-0.1-125.5z" p-id="3851"></path><path d="M858.6 554.9h36v0.2c-0.3 0.3-0.5 0.6-0.8 0.9-5.7 5.5-11.3 10.9-17.1 16.5-6.1-5.8-12.2-11.6-18.2-17.4 0 0 0-0.1 0.1-0.2zM550.1 572.5c-6.1-5.8-12.2-11.6-18.4-17.6h36.6c-6.2 6-12.2 11.8-18.2 17.6z" p-id="3852"></path><path d="M93.2 623.1l68.6-51.4L188 427.6c0.3-1.8 2.8-2 3.4-0.3l45.3 123 22.4 13.3-54.2-205c-0.4-1.7-2.7-1.8-3.4-0.2L90.4 621c-0.7 1.7 1.3 3.2 2.8 2.1z" p-id="3853"></path><path d="M159.7 433.7l-11.1 26.2c-0.2 0.6-0.8 1-1.4 1.1l-44.8 5.9c-1.7 0.2-2.1 2.4-0.7 3.3l156.7 93.1c0.4 0.2 0.7 0.6 0.8 1.1l14.7 55.1c0.4 1.7-1.5 2.9-2.8 1.9L20.7 426.8c-1.4-1.1-0.6-3.3 1.2-3.2l136.3 7.6c1.2 0.1 2 1.3 1.5 2.5z m174.3 7.4l-109-6.3 4.5 16.9 40.8-4.9c1.7-0.2 2.7 1.9 1.4 3.1l-25.8 24.4c-0.5 0.5-0.7 1.1-0.5 1.8l6.2 23.2c0.3 1.2 1.7 1.7 2.8 1l80.6-55.9c1.3-1 0.7-3.2-1-3.3z" p-id="3854"></path></svg>