<?xml version="1.0" encoding="utf-8"?>
<!-- Generator: Adobe Illustrator 23.1.1, SVG Export Plug-In . SVG Version: 6.00 Build 0)  -->
<svg version="1.1" id="圖層_1" xmlns="http://www.w3.org/2000/svg" xmlns:xlink="http://www.w3.org/1999/xlink" x="0px" y="0px"
	 viewBox="0 0 1024 1024" style="enable-background:new 0 0 1024 1024;" xml:space="preserve">
<path d="M77.5,680c-1-0.3-1.9-0.7-2.9-1c-4.9-1.9-7.6-5.9-7.5-11.2c0.4-0.1,0.9-0.2,1.3-0.3c0.8,0,1.6,0,2.4,0c54,0,108,0,161.9,0
	c1.4,0,2.9-0.1,4.3-0.3c6.2-1.1,10.2-5.3,11-11.6c0.4-2.9,0.6-5.9,0.8-8.8c0.7-8.3,1.4-16.5,2.1-24.8c0.9-11,1.9-21.9,2.9-32.9
	c0.9-10.2,1.8-20.4,2.7-30.5c0.9-10.2,1.7-20.4,2.6-30.5c1-11.8,2.1-23.7,3.1-35.5c0.9-10.2,1.7-20.4,2.6-30.5
	c1-11.8,2.1-23.5,3.1-35.3c0.9-10.1,1.7-20.2,2.6-30.3c0.5-5.6,1-11.3,1.5-17.1c0.4,0,0.9,0,1.1,0.1c5.3,3.2,8.6,7.8,9.2,14
	c0.2,2,0.1,4-0.1,6c-0.9,10.2-1.8,20.4-2.7,30.5c-0.9,10.2-1.7,20.4-2.6,30.5c-1,11.8-2.1,23.7-3.1,35.5
	c-0.9,10.2-1.7,20.4-2.6,30.5c-1,11.8-2.1,23.5-3.1,35.3c-0.9,10.2-1.7,20.4-2.6,30.5c-0.8,9.8-1.7,19.6-2.6,29.3
	c-0.6,6.7-1.1,13.4-1.7,20c-0.7,8.4-1.5,16.9-2.2,25.3c-0.2,2.5-1,4.8-2.3,7c-1.6,2.7-3.8,4.5-6.7,5.4c-0.5,0.2-1,0.4-1.5,0.6
	C191.6,680,134.5,680,77.5,680z"/>
<path d="M219.8,602.9c0.1,0.7,0.2,1,0.1,1.3c-0.5,5.6-1,11.3-1.5,16.9c-0.2,1.9-0.7,3.8-1.5,5.5c-2.5,5.6-6.9,8.7-13.1,8.7
	c-30.7,0-61.3,0-92,0c-0.6,0-1.1,0-1.6,0c-0.3-0.8,0.3-0.9,0.7-1.1c3.7-2.2,7.2-4.7,10.4-7.6c3.3-3,6.2-6.2,8.7-9.8
	c0.4-0.5,0.7-1.1,1.1-1.6c-0.4-1-1.3-1.4-2-2.1c-8.2-7.5-14.5-16.3-18.6-26.7c-6.9-17.8-6.8-35.5,0.3-53.3c0.4-0.9,0.7-1.8,1.1-2.6
	c-0.3-0.8-1-1.1-1.7-1.4c-9-5.1-18.7-7.7-29.1-7.7c-17.4,0-32.1,6.3-44.2,18.6c-3.8,3.9-7,8.3-9.6,13.1c-0.3,0.6-0.7,1.2-1,1.8
	c-0.7-0.1-0.4-0.5-0.4-0.7c0.9-10.7,1.8-21.3,2.8-32c0.9-9.9,1.7-19.7,2.6-29.6c0.6-6.6,1.1-13.2,1.7-19.8
	c0.6-6.4,1.1-12.7,1.7-19.1c0.5-6.3,1.1-12.6,1.6-18.9c0.7-8.3,1.5-16.5,2.2-24.8c0.6-6.6,1.1-13.2,1.7-19.8
	c0.6-6.4,1.1-12.7,1.7-19.1c0.4-4.2,0.7-8.4,1.1-12.6c0.5-5.8,1-11.6,1.5-17.4c0.2-2.2,0.7-4.4,1.7-6.5c2.6-5.5,6.9-8.4,13-8.6
	c0.2,0,0.5,0,0.7,0c56.6,0,113.2,0,169.9,0c1.3,0,2.7,0.1,4,0.4c4.1,0.9,6.8,3.4,8.1,7.4c0.5,1.7,0.7,3.4,0.9,5.2
	c0.3,3.4-0.3,6.7-0.5,10c-0.7,8.6-1.5,17.2-2.2,25.8c-0.6,6.6-1.2,13.2-1.7,19.8c-0.4,4.5-0.8,8.9-1.1,13.4
	c-0.6,6.5-1.2,13-1.7,19.6c-0.4,4.5-0.8,8.9-1.1,13.4c-0.6,6.6-1.2,13.2-1.7,19.8c-0.4,4.4-0.7,8.8-1.1,13.1
	c-0.1,1.1-0.2,2.2-0.3,3.3c-0.4,4.5-0.8,8.9-1.1,13.4c-0.6,6.5-1.2,13-1.7,19.6c-0.4,4.5-0.8,8.9-1.1,13.4c0,0.5-0.1,0.9-0.1,1.4
	c-0.7,0.4-0.9-0.2-1.2-0.5c-2.5-3.4-5.4-6.5-8.5-9.4c-9.4-8.3-20.4-13.4-32.9-14.9c-31.7-3.9-60,17.3-66.5,47.1
	c-7.1,32.2,12.8,64.2,44.9,71.9c20.5,4.9,38.9-0.1,54.8-14C218.2,604.3,218.8,603.7,219.8,602.9z M156.5,491.5
	c-0.1-0.4-0.1-0.6-0.2-0.7c-0.3-0.6-0.6-1.1-0.9-1.7c-14.9-25.4-36.1-43.2-63.7-53.2c-9.7-3.5-19.8-5.6-30.1-6.4
	c-3.8-0.3-7.7-0.3-11.5-0.3c-0.8,0-1.7-0.1-2.5,0.4c-0.3,2.4-0.3,12.8,0.1,14.8c2.2,0.2,4.4,0,6.6,0.1c2.2,0.1,4.5,0.2,6.7,0.4
	c2.2,0.2,4.4,0.5,6.7,0.8c2.2,0.3,4.4,0.7,6.6,1.2c2.3,0.5,4.5,1.1,6.7,1.7c2.1,0.6,4.3,1.3,6.4,2.1c2.1,0.8,4.2,1.6,6.2,2.5
	c2,0.9,4.1,1.9,6.1,2.9c2,1,3.9,2.1,5.9,3.3c1.9,1.2,3.8,2.4,5.6,3.6c1.8,1.3,3.6,2.6,5.4,4c1.8,1.4,3.5,2.8,5.1,4.3
	c1.7,1.6,3.4,3.2,5,4.8c1.6,1.6,3.1,3.3,4.5,5c1.4,1.7,2.8,3.5,4.2,5.2c1.3,1.8,2.6,3.7,3.8,5.5c1.3,1.8,2.2,3.8,3.6,5.6
	c2.3-1.1,4.5-2.2,6.8-3.1C151.8,493.2,154.1,492.4,156.5,491.5z M186.9,357c-1.2,0.7-2,1.1-2.7,1.5c-10.3,5.9-20.5,12.1-30.4,18.7
	c-15.6,10.4-30.6,21.7-44.6,34.2c-2.4,2.2-4.8,4.4-7.2,6.6c-0.3,0.3-0.8,0.6-0.6,1.3c0.2,0,0.5,0.2,0.8,0.1c3.5-0.5,7-0.8,10.4-1.5
	c11.2-2.1,21.5-6.5,31-12.7c13.1-8.6,24.1-19.4,33.1-32.2c3-4.2,5.8-8.4,8.6-12.7c0.4-0.7,0.8-1.4,1.2-2.1
	C186.8,358.2,186.8,357.9,186.9,357z M106.2,515c0-0.5,0.1-0.9,0.1-1.2c0-1.1,0-2.2-0.1-3.4c-0.8-11.1-2.9-22-6.7-32.5
	c-1.4-3.8-3.1-7.5-4.6-11.3c-0.4-0.9-1-1.6-1.9-2c-0.9-0.4-1.7-0.8-2.6-1.2c-7.5-3.4-15.4-5.7-23.6-7.1c-0.7-0.1-1.3-0.3-2.2,0.1
	c1.7,2.4,3.3,4.7,4.8,7c1.5,2.3,3,4.7,4.3,7.2c1.3,2.5,2.6,5,3.7,7.5c1.1,2.6,2.1,5.2,3,7.8c0.9,2.6,1.7,5.3,2.4,8
	c0.7,2.7,1.2,5.5,1.7,8.2c0.5,2.7,0.8,5.5,1.1,8.2c3.5,0.6,6.9,1,10.3,1.7C99.3,512.9,102.6,514,106.2,515z M98,402.2
	c1.3-0.4,1.9-1,2.6-1.5c19-13.2,38.1-26.4,57.1-39.5c0.7-0.5,1.3-0.9,2-1.4c0.2-0.2,0.3-0.4,0.6-1c-1.4,0.2-2.5,0.4-3.6,0.6
	c-13.2,2.6-25.1,7.9-35.6,16.2c-9,7.1-16.3,15.7-22.5,25.3C98.4,401.2,98.3,401.5,98,402.2z"/>
<path d="M998.7,400c0,0.5,0,1,0,1.5c-1.1,9.2-2,18.4-3.2,27.6c-1.1,8.6-2.4,17.2-3.7,25.8c-0.5,3.1-1.1,6.3-2,9.4
	c-4.1,14-13,23.5-26.8,28.5c-4.3,1.6-8.7,2.5-13.2,3.3c-9.5,1.7-19.1,2.6-28.8,3c-14.8,0.8-29.7,0.9-44.5,0.9
	c-8.5,0-17.1,0-25.6-0.1c-11.8-0.1-23.6-0.4-35.4-1.5c-7.3-0.6-14.6-1.6-21.7-3.7c-5.2-1.6-10.1-4-14.5-7.2
	c-6-4.3-9.7-10.1-11.2-17.3c-0.9-4.5-1.3-9-1.4-13.6c-0.2-9.2,0.4-18.4,1.2-27.5c0.8-9.2,1.7-18.4,2.7-27.7
	c1.3-11.6,2.8-23.1,5.7-34.5c1.1-4.4,2.4-8.8,4.3-13c1-2.3,2.1-4.5,3.4-6.6c4.4-7.5,10.7-12.8,18.7-16.1c5.1-2.1,10.5-3.4,15.9-4.4
	c8.4-1.5,16.9-2.4,25.4-3c19.6-1.4,39.3-1.4,58.9-1.4c10.3,0,20.6,0.1,30.9,0.6c10.2,0.5,20.4,1.1,30.5,2.8
	c5.2,0.9,10.4,1.9,15.3,3.8c2,0.7,4,1.6,5.9,2.6c8.5,4.4,13.4,11.4,15,20.7c0.3,1.9,0.5,3.8,0.5,5.7c0.1,5,0.1,10.1,0,15.1
	c-0.1,3-0.3,6.1-0.5,9.1c0,0.5-0.2,1.1-0.3,1.6c-0.9,0.4-1.8,0.3-2.6,0.3c-11.3,0-22.5,0-33.8,0c-4.4,0-8.8,0-13.2,0
	c-0.8,0-1.6-0.1-2.5-0.1c0-0.7-0.1-1.3-0.1-2c0.1-1.9,0.2-3.8,0.2-5.7c-0.1-4.5-1.7-6.8-6-8.2c-2.1-0.7-4.3-1.2-6.5-1.5
	c-4-0.5-8.1-0.9-12.2-1c-8.8-0.3-17.6-0.5-26.3-0.5c-10.9-0.1-21.7,0-32.6,0.1c-6.1,0.1-12.1,0.4-18.1,1.3c-2.6,0.4-5.2,1-7.7,1.8
	c-5.6,1.9-9.4,5.6-11.5,11.1c-1.5,3.9-2.4,7.9-3,12.1c-0.9,7.1-1.7,14.3-2.5,21.4c-0.5,5-0.9,10-1.2,15c-0.3,4.9-0.5,9.7,0.1,14.6
	c0.1,1.1,0.3,2.2,0.6,3.3c1,4.7,4,7.7,8.4,9.4c1.9,0.7,3.8,1.2,5.8,1.4c4,0.3,8,0.8,11.9,0.9c18,0.3,35.9,0.8,53.9,0.4
	c7.2-0.1,14.4-0.5,21.5-0.8c3.3-0.2,6.5-0.6,9.7-1.4c1.1-0.3,2.1-0.6,3.2-1.1c3.1-1.3,5.3-3.6,6.2-6.8c0.5-1.7,0.9-3.4,1.2-5.1
	c0.5-2.9,0.8-5.8,1.2-8.9c-0.6-0.1-1.1-0.3-1.5-0.3c-0.7,0-1.4,0-2.2,0c-20.7,0-41.4,0-62.1,0c-0.9,0-1.9,0-3-0.1
	c0-0.7-0.1-1.2-0.1-1.7c0.8-8.3,1.7-16.7,2.6-25c0.2-2.4,0.5-4.8,0.8-7.2c0.5-0.1,0.9-0.3,1.4-0.3c0.6-0.1,1.3,0,1.9,0
	c37.9,0,75.7,0,113.6,0C996.7,399.7,997.7,399.5,998.7,400z"/>
<path d="M527.8,497c-0.3,0.1-0.5,0.3-0.8,0.3c-16.5,0-33.1,0-49.6,0c-0.3,0-0.6-0.1-1.1-0.2c0-0.5,0-1,0-1.4
	c0.5-5.3,1.1-10.6,1.5-16c0.3-3.4,0.3-6.9,0.3-10.3c0-1.7-0.3-3.5-0.5-5.2c-0.2-1-0.5-2-0.9-3c-1.6-3.5-4-6-8-6.5
	c-3-0.4-6-0.7-9-0.9c-4.1-0.2-8.3-0.1-12.5-0.2c-24,0-48.1,0-72.1,0c-0.9,0-1.9-0.2-3,0.3c-0.6,4.7-1,9.5-1.5,14.2
	c-0.5,4.8-1,9.7-1.5,14.5c-0.5,4.7-0.9,9.5-1.5,14.2c-1,0.5-1.9,0.3-2.7,0.3c-13.3,0-26.7,0-40,0c-2.6,0-5.1,0-7.7,0
	c-0.5,0-1.1-0.1-1.8-0.1c0-0.5-0.1-0.9-0.1-1.2c1.3-13,2.6-26.1,4-39.1c1-10.2,2-20.5,3.1-30.7c1-10.2,2.1-20.3,3.1-30.5
	c0.9-8.7,1.7-17.5,2.6-26.2c1-10.2,2.1-20.3,3.1-30.5c0.4-3.9,0.8-7.8,1.1-11.7c0.1-0.7,0-1.4,0.7-2.2c0.7,0,1.4-0.1,2.2-0.1
	c48.2,0,96.3,0,144.5,0c9.4,0,18.8,0.3,28.3,0.5c3.6,0.1,7.2,0.4,10.7,1.3c1.2,0.3,2.3,0.6,3.4,1c4.7,2,8.9,4.7,12.5,8.3
	c3.1,3.1,4.9,6.8,6.1,11c0.8,2.8,1.2,5.6,1.4,8.5c0.5,6.1,0.3,12.3-0.3,18.4c-0.6,6.3-1.3,12.5-2.1,18.8c-0.6,4.5-1.5,9-2.9,13.3
	c-0.3,0.9-0.6,1.8-0.9,2.7c-3.7,10-10.8,16.4-20.9,19.5c-2.1,0.6-4.2,1-6.3,1.5c-0.9,0.2-1.9,0.4-3.1,0.6c1,0.5,1.9,0.6,2.7,0.7
	c2.7,0.6,5.3,1.1,7.9,1.7c0.9,0.2,1.8,0.6,2.7,1c6,2.3,9.6,6.7,11,12.9c0.7,2.9,1,5.8,1,8.8c0.1,5-0.2,10.1-0.7,15.1
	c-0.8,8.2-1.7,16.4-2.6,24.5C528,495.8,527.8,496.5,527.8,497z M376.6,410.2c1.2,0.4,2.2,0.3,3.1,0.3c20.5,0,41,0,61.5,0
	c8,0,16-0.2,23.9-0.3c3.1-0.1,6.2-0.2,9.3-0.5c5.1-0.5,8.8-3.2,10.8-7.9c0.6-1.4,1.1-2.8,1.4-4.3c1.2-4.9,1.7-9.9,1.7-14.9
	c0-1.6-0.1-3.2-0.4-4.8c-0.7-4.1-2.5-7.4-8.6-8.7c-1.3-0.3-2.7-0.4-4-0.4c-10-0.2-20-0.4-29.9-0.4c-16.7-0.1-33.4,0-50,0
	c-4.1,0-8.1,0-12.2,0c-0.8,0-1.6-0.2-2.6,0.4C379.4,382.3,378,396.2,376.6,410.2z"/>
<path d="M554,368.9c-0.1-2.6,3.9-41.7,4.4-43.6c0.2-0.1,0.4-0.2,0.6-0.2c68.8,0,137.5,0,206.3,0c0.3,0,0.6,0.1,0.8,0.1
	c0.1,0.2,0.2,0.2,0.2,0.3c0,0.1,0.1,0.2,0.1,0.2c0,0.4,0,0.8,0,1.2c-1.4,13.8-2.8,27.6-4.3,41.4c0,0.1-0.2,0.3-0.3,0.5
	c-2.7,0.3-5.5,0.1-8.2,0.1c-2.9,0-5.7,0-8.6,0c-2.8,0-5.6,0-8.4,0s-5.6,0-8.4,0c-2.9,0-5.7,0-8.6,0c-2.8,0-5.6,0-8.4,0
	c-2.8,0-5.6,0-8.4,0c-2.9,0-5.7,0-8.6,0c-2.8,0-5.6,0-8.2,0c-0.7,0.7-0.7,1.5-0.8,2.2c-0.8,8-1.6,16-2.4,24.1
	c-0.9,8.7-1.8,17.5-2.6,26.2c-1.1,10.7-2.2,21.4-3.2,32.2c-0.9,8.5-1.7,17-2.6,25.5c-0.6,5.4-1.1,10.8-1.6,16.2
	c-0.1,0.5-0.2,1.1-0.2,1.7c-0.5,0.1-0.9,0.2-1.4,0.3c-0.4,0-0.8,0-1.2,0c-16.5,0-33.1,0-49.6,0c-0.8,0-1.6-0.1-2.4-0.1
	c-0.5-0.9-0.2-1.8-0.2-2.6c0.3-3.6,0.7-7.1,1.1-10.7c0.9-8.4,1.7-16.8,2.6-25.3c1.1-10.8,2.2-21.6,3.3-32.4c1-10.2,2-20.5,3.1-30.7
	c0.8-8.1,1.6-16.2,2.5-24.3c0.1-0.6,0.1-1.2,0.1-1.9c-0.4-0.1-0.7-0.2-1-0.2c-0.8,0-1.6,0-2.4,0c-23.3,0-46.6,0-70,0
	C556,369,555.1,369,554,368.9z"/>
<path d="M634.9,669c-7.7-0.1-16.9-0.3-26.1-0.5c-5.7-0.2-11.5-0.5-17.1-1.8c-2.3-0.5-4.6-1.3-6.8-2.3c-4.1-1.8-7.2-4.7-9.3-8.6
	c-1.2-2.2-2-4.5-2.6-6.9c-0.6-2.8-1-5.6-1.1-8.5c-0.1-4.3,0.1-8.6,0.6-12.9c0.9-8.4,1.8-16.8,2.9-25.2c0.5-4.3,1.5-8.5,2.8-12.6
	c0.8-2.4,1.8-4.8,3-7c2.6-4.8,6.3-8.4,11.1-10.9c4.7-2.4,9.6-3.8,14.8-4.7c5.2-0.9,10.5-1.3,15.7-1.4c17.9-0.5,35.8-0.4,53.6,0
	c5.1,0.1,10.2,0.4,15.3,1.3c3,0.6,5.9,1.5,8.7,2.7c4.7,2,8,5.4,10.1,10c1.7,3.7,2.5,7.5,2.9,11.5c0.5,4.8,0.2,9.6-0.3,14.3
	c-0.7,7-1.4,14-2.2,20.9c-0.7,5.6-1.7,11.2-3.3,16.6c-1.6,5.1-4,9.7-7.6,13.7c-3.6,3.9-8,6.6-13,8.3c-4.9,1.7-9.9,2.6-15,2.9
	c-5.3,0.3-10.7,0.5-16,0.6C649.5,668.8,642.9,668.9,634.9,669z M640.4,644.2c7.1-0.2,14-0.4,21-0.7c2.1-0.1,4.3-0.5,6.4-0.9
	c5-1.1,8.5-4,10.2-8.8c0.8-2.1,1.4-4.3,1.8-6.4c1.1-5.2,1.5-10.6,2-15.9c0.2-2.8,0.4-5.6,0.4-8.4c0-1.9-0.3-3.8-0.7-5.7
	c-0.5-2.4-2.1-4.1-4.4-5c-1.1-0.4-2.3-0.8-3.4-1c-3.3-0.7-6.6-1-10-1c-7.4-0.1-14.9-0.3-22.3-0.3c-6.6,0-13.3,0-19.9,0.8
	c-2,0.2-3.9,0.7-5.9,1.2c-3.1,0.9-5.3,2.8-6.7,5.7c-0.9,1.9-1.5,3.9-2,5.9c-1.1,4.7-1.9,9.4-2.3,14.2c-0.4,4-0.5,8-0.6,12
	c0,1.8,0.2,3.7,0.5,5.5c0.6,3.2,2.4,5.3,5.5,6.4c1,0.4,2,0.7,3,0.9c2.6,0.6,5.4,0.9,8.1,1C627.6,643.9,634.1,644,640.4,644.2z"/>
<path d="M986.2,597.2c-1.9,0.3-24.5,0.4-28.4,0.2c-0.4,0-0.8-0.1-1.2-0.2c0-0.5-0.1-1-0.1-1.5c0-0.8,0-1.6-0.1-2.4
	c-0.3-2.1-1.3-3.6-3.3-4.3c-1.2-0.4-2.4-0.8-3.7-1c-2.5-0.3-4.9-0.5-7.4-0.6c-12.2-0.2-24.4-0.1-36.6,0.6c-1.7,0.1-3.4,0.3-4.9,0.8
	c-5.3,1.7-6.7,6.4-5.7,10.9c0.3,1.4,1.2,2.6,2.5,3.4c1.4,0.9,2.8,1.5,4.5,1.6c4.1,0.2,8.1,0.4,12.2,0.4c10.5,0.1,20.9,0,31.4,0.1
	c6.6,0.1,13.2,0.5,19.9,0.9c4.1,0.2,8,1.1,11.8,2.9c4.3,2.1,7.2,5.3,8.6,9.8c0.5,1.5,0.8,3.1,1,4.7c0.9,8.3,0.1,16.4-2.5,24.4
	c-0.5,1.6-1.2,3.1-1.9,4.7c-2.5,5.3-6.5,9-11.9,11.2c-3.4,1.4-7,2.2-10.6,2.8c-5.4,0.9-10.9,1.3-16.4,1.5
	c-12.3,0.6-24.6,0.5-36.9,0.4c-6.7-0.1-13.4-0.3-20.1-0.6c-3.7-0.1-7.3-0.7-10.9-1.4c-2.4-0.5-4.6-1.2-6.8-2.2
	c-5.1-2.4-8-6.5-8.8-12c-0.4-2.8-0.6-5.6-0.4-8.4c0.2-2.5,0.5-4.9,0.8-7.4c0-0.3,0.2-0.6,0.2-0.9c0.3-0.1,0.5-0.2,0.7-0.2
	c9.7,0,19.3,0,29.1,0c0.1,0.5,0.2,0.9,0.3,1.4c0,1-0.1,1.9,0,2.9c0.2,3.7,2,5.7,5.7,6.3c1.3,0.2,2.7,0.4,4,0.5
	c5.7,0.4,11.5,0.6,17.2,0.5c8-0.2,16-0.3,23.9-0.6c2.2-0.1,4.4-0.5,6.6-0.9c1.4-0.3,2.7-0.9,4-1.5c2-1,3.2-2.8,3.7-5
	c0.4-1.8,0.3-3.5-0.2-5.2c-0.6-2.2-1.9-3.7-4-4.4c-1.9-0.7-3.9-1-5.9-1c-5.3-0.1-10.5-0.2-15.8-0.2c-9.7,0-19.3,0-29,0
	c-5.3,0-10.7-0.2-16-0.8c-2.1-0.3-4.3-0.6-6.4-1c-1.6-0.4-3.2-0.9-4.7-1.6c-5.5-2.5-8.7-6.9-9.7-12.8c-0.5-2.6-0.5-5.2-0.5-7.9
	c0.1-6,1-11.9,2.9-17.7c0.5-1.5,1.1-3,1.7-4.5c2.3-5.1,6-8.8,11.1-11.1c3.1-1.4,6.3-2.3,9.6-2.9c5.9-1.1,11.9-1.6,17.9-1.9
	c16.9-0.7,33.8-0.7,50.8-0.1c4.3,0.2,8.6,0.5,12.8,1.4c1.9,0.4,3.7,0.9,5.5,1.6c6.2,2.2,9.7,6.7,10.9,13.1c0.7,3.7,0.6,7.5,0.2,11.2
	C986.7,594.6,986.7,595.9,986.2,597.2z"/>
<path d="M307.3,635.6c0.6-0.1,1-0.2,1.4-0.2c9.5,0,19,0,28.6,0c0.1,0.6,0.2,1,0.2,1.5c0,1.3,0,2.6,0.1,3.8c0.2,2.5,1.7,4.1,4,4.9
	c0.7,0.2,1.4,0.4,2.1,0.5c4.1,0.3,8.3,0.7,12.4,0.8c10.9,0.2,21.7,0.1,32.6-0.5c2.1-0.1,4.1-0.5,6.2-0.9c0.9-0.2,1.9-0.5,2.7-0.8
	c3.8-1.5,5.4-4.1,5.3-8.2c0-0.9-0.1-1.8-0.3-2.6c-0.5-2.3-1.9-3.8-4.1-4.6c-1.8-0.6-3.7-0.9-5.6-1c-5.3-0.1-10.5-0.2-15.8-0.2
	c-9.7,0-19.5,0-29.2,0c-5.3,0-10.7-0.2-16-0.8c-2.1-0.3-4.3-0.6-6.4-1.1c-1.5-0.3-2.9-0.8-4.3-1.4c-5.7-2.5-9.1-6.9-10.1-13
	c-0.4-2.3-0.5-4.6-0.5-6.9c0-6.4,0.9-12.6,2.9-18.6c0.4-1.4,1-2.7,1.5-4c2.4-5.5,6.3-9.3,11.8-11.7c2.9-1.2,5.9-2,8.9-2.6
	c6-1.2,12-1.6,18.1-1.9c16.8-0.7,33.7-0.7,50.5-0.1c4.4,0.2,8.8,0.5,13.1,1.5c1.9,0.4,3.9,1,5.7,1.7c5.9,2.2,9.3,6.5,10.6,12.6
	c0.8,4,0.7,7.9,0.3,11.9c-0.1,1.2-0.1,2.4-0.6,3.4c-2,0.4-15.1,0.6-27.8,0.3c-0.6,0-1.2-0.1-2-0.2c0-0.9,0-1.7,0-2.5
	c-0.1-3.5-1.4-5.2-4.8-6.2c-0.8-0.2-1.7-0.4-2.6-0.5c-2.2-0.2-4.5-0.5-6.7-0.5c-12.4-0.2-24.8-0.1-37.1,0.6
	c-1.8,0.1-3.5,0.3-5.2,0.9c-4.5,1.7-6.8,6.3-5.3,10.9c0.4,1.4,1.3,2.6,2.5,3.4c1.4,0.9,2.8,1.5,4.5,1.5c4,0.2,8,0.4,12,0.4
	c10.5,0.1,21.1,0,31.6,0.1c6.6,0.1,13.2,0.5,19.9,0.9c4,0.2,7.9,1.1,11.6,2.8c4.5,2.1,7.5,5.6,8.9,10.4c0.4,1.4,0.7,2.8,0.9,4.2
	c0.9,8.1,0.1,16.1-2.4,23.9c-0.6,1.7-1.2,3.5-2,5.1c-2.5,5.2-6.4,8.9-11.7,11.1c-3.5,1.4-7.1,2.3-10.9,2.8
	c-5.4,0.8-10.8,1.2-16.2,1.5c-13.1,0.6-26.2,0.5-39.3,0.4c-5.9,0-11.8-0.3-17.7-0.5c-3.7-0.1-7.3-0.7-10.9-1.4
	c-2.3-0.4-4.5-1.1-6.6-2.1c-5.4-2.5-8.4-6.7-9.2-12.5c-0.6-4.5-0.4-8.9,0.2-13.4C306.9,637.7,307.1,636.7,307.3,635.6z"/>
<path d="M313.5,532.8c-0.4-1.9-0.1-9,0.4-11.9c0.4-0.1,0.8-0.2,1.3-0.2c0.7,0,1.4,0,2.2,0c226.3,0,452.6,0,678.9,0
	c1.1,0,2.2-0.2,3.4,0.2c0.4,1.4,0,2.7,0,4c0,1.3-0.1,2.6-0.2,3.8c-0.1,1.3,0.2,2.7-0.4,4c-2.5,0.3-671.8,0.5-684.2,0.2
	C314.3,532.9,313.9,532.8,313.5,532.8z"/>
<path d="M252.3,356.7c4.2,1.8,7.6,5.6,9.2,9.9c0.9,2.5,1.3,5.1,1.1,7.8c-0.2,2.9-0.4,5.9-0.7,8.8c-1.1,13-2.3,26.1-3.4,39.1
	c-1,11-1.9,22-2.9,32.9c-1,11-1.9,22-2.9,32.9c-1,11.1-1.9,22.1-2.9,33.2c-1,11-1.9,22-2.9,32.9c-1,11.1-1.9,22.1-2.9,33.2
	c-0.9,10.9-1.9,21.8-2.8,32.7c-0.7,8.1-1.5,16.2-2.2,24.3c-0.2,2.6-1,5-2.3,7.2c-2.1,3.5-5.2,5.5-9.3,5.9c-1,0.1-2.1,0.1-3.1,0.1
	c-54.4,0-108.8,0-163.2,0c-2.5,0-4.9-0.2-7.3-1.3c-4.6-2-6.7-5.7-7-10.6c0-0.1,0.1-0.3,0.2-0.6c0.3-0.1,0.7-0.2,1.1-0.2
	c0.8,0,1.6,0,2.4,0c54.1,0,108.1,0,162.2,0c1.7,0,3.3,0,5-0.4c5.7-1.4,9.3-5.3,10.1-11.1c0.4-2.5,0.5-5.1,0.8-7.6
	c0.7-8.5,1.4-17,2.2-25.5c0.9-10.1,1.8-20.2,2.7-30.3c0.6-6.4,1.1-12.7,1.6-19.1c0.9-10.1,1.8-20.2,2.7-30.3
	c0.5-6.3,1.1-12.6,1.6-18.9c0.6-6.4,1.1-12.7,1.7-19.1c0.4-4.5,0.8-9.1,1.2-13.6c0.6-6.4,1.1-12.9,1.7-19.3
	c0.4-4.5,0.8-9.1,1.2-13.6c0.6-6.4,1.1-12.9,1.7-19.3c0.4-4.5,0.8-9.1,1.2-13.6c0.6-6.5,1.1-13,1.7-19.6c0.4-4.5,0.8-9.1,1.2-13.6
	c0.4-4.1,0.7-8.3,1.1-12.4C252.1,357.5,252.2,357.2,252.3,356.7z"/>
<path d="M773.8,591.5c-1.2,0-2.1-0.1-2.9-0.1c-13.1,0-26.2,0-39.3,0c-0.9,0-1.7,0.2-2.7-0.3c0-0.5,0-0.9,0-1.4
	c0.9-7.7,1.6-15.4,2.5-23.1c0.6-0.1,1-0.2,1.5-0.2c0.6,0,1.1,0,1.7,0c38.2,0,76.5,0,114.7,0c1,0,2.1-0.2,3,0.3
	c0.2,2-1.9,22-2.5,24.6c-0.9,0.4-1.9,0.2-2.8,0.2c-13,0-26,0-39,0c-0.9,0-1.9,0-3,0c-0.2,0.8-0.3,1.5-0.4,2.2c-1,9.4-2,18.9-3,28.3
	c-0.9,8-1.7,16-2.6,24c-0.7,6.5-1.4,13-2.1,19.5c-0.1,0.7-0.2,1.4-0.4,2.2c-0.8,0.1-1.4,0.2-2,0.2c-14,0.2-26.5,0.1-28.6-0.3
	c0-3.1,0.6-6.3,0.9-9.4c0.3-3.2,0.7-6.3,1-9.5c0.3-3.2,0.7-6.3,1.1-9.5c0.3-3.2,0.7-6.3,1-9.5c0.3-3.1,0.7-6.2,1-9.3
	c0.3-3.2,0.7-6.3,1-9.5c0.3-3.2,0.7-6.3,1-9.5C773.2,598.1,773.6,594.9,773.8,591.5z"/>
<path d="M554.5,667.6c-0.3,0.1-0.6,0.2-0.9,0.2c-32.9,0-65.8,0-98.7,0c-0.2,0-0.4-0.1-0.8-0.3c0-0.5,0-0.9,0-1.4
	c3.5-33.2,7.1-66.3,10.7-99.4c0.9-0.6,1.8-0.4,2.7-0.4c6.4,0,12.8,0,19.2,0c2.3,0,4.6,0,6.9,0c0.6,0,1.2,0.1,2,0.2
	c-0.2,4.3-0.8,8.5-1.3,12.7c-0.4,4.2-0.9,8.4-1.4,12.6c-0.5,4.2-0.9,8.4-1.4,12.6c-0.5,4.2-0.9,8.4-1.3,12.6
	c-0.4,4.2-0.9,8.4-1.3,12.6c-0.4,4.2-0.9,8.4-1.4,12.7c0.6,0.1,1,0.3,1.5,0.3c0.7,0,1.4,0,2.2,0c21,0,42,0,63,0
	c0.9,0,1.9-0.1,2.9,0.2c0,0.4,0.1,0.8,0.1,1.2C557,647.6,554.9,666,554.5,667.6z"/>
<path d="M136.1,546.3c1.3-14.8,13.8-28.8,29-32.8c8.2-2.2,16.3-1.8,24.2,1.1c6,2.2,12.4,6.4,14.8,10c-1.5,0.1-2.9-0.4-4.2-0.6
	c-1.4-0.2-2.8-0.4-4.3-0.5c-1.5-0.1-3-0.2-4.5-0.2c-1.4,0-2.9,0-4.3,0.1c-1.4,0.1-2.9,0.1-4.3,0.3c-1.4,0.2-2.8,0.4-4.3,0.6
	c-1.5,0.2-3,0.5-4.5,0.8c-1.4,0.3-2.8,0.7-4.2,1.1c-1.4,0.4-2.8,0.8-4.1,1.3c-1.4,0.5-2.7,1-4,1.5c-1.4,0.6-2.8,1.2-4.2,1.8
	c-1.3,0.6-2.6,1.3-3.8,2c-1.3,0.7-2.5,1.4-3.7,2.2c-1.2,0.8-2.4,1.6-3.6,2.4c-1.2,0.9-2.4,1.8-3.6,2.8c-1.1,0.9-2.2,1.9-3.2,2.9
	C138.4,543.9,137.4,544.9,136.1,546.3z"/>
<path d="M96.9,550.6c-7.4-1.5-14.7-1.7-22-0.6c-7.2,1.1-14.1,3.2-20.7,6.5c-6.6,3.3-12.5,7.6-17.6,13.3c-0.1-4.2,2.6-11,6.2-15.8
	c4.9-6.6,11.3-11,19.1-13.2c7.9-2.2,15.6-1.7,23.2,1.4C90.2,544.1,95.4,547.9,96.9,550.6z"/>
<path d="M22.5,599.2c0.8,2.1,1.5,4.1,2.4,6.2c0.9,2,1.9,4.1,3,6c1.1,1.9,2.3,3.8,3.6,5.6c1.3,1.9,2.8,3.7,4.3,5.4
	c1.5,1.7,3.1,3.2,4.8,4.7c1.7,1.5,3.5,2.8,5.2,4.2c1.7,1.4,3.8,2.2,5.8,3.9c-0.8,0.1-1.1,0.1-1.5,0.1c-6,0-12,0-17.9,0
	c-6.5-0.1-11.2-4.5-11.6-11c-0.2-3.3,0-6.5,0.2-9.8c0.3-4.6,0.8-9.2,1.2-13.8c0-0.5,0.1-0.9,0.1-1.4
	C22.2,599.3,22.3,599.2,22.5,599.2z"/>
</svg>
