<?xml version="1.0" encoding="utf-8"?>
<!-- Generator: Adobe Illustrator 24.1.1, SVG Export Plug-In . SVG Version: 6.00 Build 0)  -->
<svg version="1.1" id="圖層_1" xmlns="http://www.w3.org/2000/svg" xmlns:xlink="http://www.w3.org/1999/xlink" x="0px" y="0px"
	 viewBox="0 0 200 200" style="enable-background:new 0 0 200 200;" xml:space="preserve">
<path d="M100.2,34.7L66.8,75.8h34l0.1,87.3l19.7-67.8c0,0,37.9,4.1,30.1-32.4c0,0-1.8,17.1-15.1,19.1s-18.6-3.3-21.4-11.3
	c0,0,7.8,8.9,18.1,5.2c10.3-3.7,10.9-8.6,12.5-18.4c1.7-9.7,1.9-21.2,12.1-22.3c0,0-11.9-5.3-19.4,11.3c0,0-1.6,5-2.3,10.5
	c-0.8,5.5-4.4,13.2-12.2,9.3s-1-12.7,5.7-13.4c0,0-6.9-2.2-10.5,4.9c0,0-1.6-5.3,7.4-8c7.8-2.2,7.3-6.9,7.3-6.9s-0.2-5-3.9-5.9
	c0,0,2.5,4.7-5.7,6.1s-13.7,6.9-15.2,11.1s-3,13.3,1.6,21.5c0,0-11.2-6.1-3.2-24.9c0,0-4.5,2.4-6.6,10.5h-7.3L100.2,34.7z"/>
<path d="M151.8,53.7c0,0-2-10.9,7.6-16.1c9.1-4.9,9.9-8.2,9.9-8.2s0.2,7.7-2,11C162.2,48.1,158.4,44.4,151.8,53.7z"/>
<polygon points="44.3,75.9 100.2,34.7 66.8,75.8 100.8,75.8 100.9,163.1 99.7,166.2 79.9,97.1 56.7,96.8 "/>
</svg>
