<?xml version="1.0" standalone="no"?><!DOCTYPE svg PUBLIC "-//W3C//DTD SVG 1.1//EN" "http://www.w3.org/Graphics/SVG/1.1/DTD/svg11.dtd"><svg t="1574677147175" class="icon" viewBox="0 0 1024 1024" version="1.1" xmlns="http://www.w3.org/2000/svg" p-id="2268" xmlns:xlink="http://www.w3.org/1999/xlink" width="200" height="200"><defs><style type="text/css"></style></defs><path d="M508.7 770h-481c2.7-15.7 5.2-30.8 7.9-45.9 17.3-98 34.6-196.1 51.9-294.2 7.9-44.7 15.8-89.5 23.6-134.2 0.7-4.3 2.3-6.7 7.1-6.2 2.2 0.3 4.5 0 6.7 0h377.3c3-16.4 5.6-32.6 8.8-48.8 3.7-18.7-1.5-15.9 18.8-15.9 151-0.1 302.1 0 453.1 0h11.9c-3.6 20.6-6.9 40.1-10.3 59.7-14.4 81.8-28.8 163.5-43.3 245.3-9.8 55.5-19.9 111-29.3 166.6-1.3 7.8-4.3 9.2-11.3 9.2-121.2-0.2-242.4-0.1-363.7-0.1-16.5 0-16.5 0-19.4 16.1-2.9 15.9-5.8 31.9-8.8 48.4z m382.1-363.6c-2.8-9.1-4.8-17-7.6-24.6-24.2-63.6-87.3-98.8-160.6-89.4-64.4 8.3-114.6 41.3-151.7 93.7-30.6 43.2-44.2 91.6-33.8 144.4 15.1 76.4 83.4 122.5 166.7 112.7 51.8-6.1 94.2-30.8 130.9-67.1 28.2-27.8 41-61.4 41.7-100.7H715c-3.2 18.3-6.3 36.2-9.6 55.4H804c-0.6 1.8-0.7 2.3-1 2.8-0.4 0.7-1 1.4-1.5 2-28.3 31.9-63 51.6-106.2 53-66.5 2.2-112.9-49.3-103.9-112.9 8.9-63.8 47.6-104.8 108.4-123.8 52-16.3 105.7 4.2 127.1 50.3 0.9 1.9 4 3.9 6.2 4 18.6 0.3 37.1 0.2 57.7 0.2z m-463 296.9c1.6-2.9 2.2-3.5 2.3-4.2 6.2-34.2 12.3-68.5 18.3-102.8 0.4-2.5-0.7-5.5-1.7-8-26.8-67.6-53.6-135.1-80.4-202.6-6.8-17.2-13.7-34.3-21.3-53-93.4 124.5-186 247.9-280.1 373.2 21.3 0 39.7-0.2 58.2 0.1 5.5 0.1 8.7-2 11.8-6.2 24.8-33.4 49.8-66.6 74.5-100 3.1-4.1 6.1-6.3 11.7-6.3 52 0.2 104 0.3 156.1 0 6 0 8.3 2.2 10.2 7.3 7.2 19.1 14.8 38.2 22.3 57.2 5.7 14.5 11.5 28.9 18.1 45.3z" p-id="2269"></path><path d="M325.5 444.9c12.5 31.7 24.3 61.5 36.4 92H256.7c23-30.7 45.2-60.5 68.8-92z" p-id="2270"></path></svg>