<?xml version="1.0" standalone="no"?><!DOCTYPE svg PUBLIC "-//W3C//DTD SVG 1.1//EN" "http://www.w3.org/Graphics/SVG/1.1/DTD/svg11.dtd"><svg t="1574758782234" class="icon" viewBox="0 0 1024 1024" version="1.1" xmlns="http://www.w3.org/2000/svg" p-id="3416" xmlns:xlink="http://www.w3.org/1999/xlink" width="200" height="200"><defs><style type="text/css"></style></defs><path d="M500.1 499.3m-21.7 0a21.7 21.7 0 1 0 43.4 0 21.7 21.7 0 1 0-43.4 0Z" p-id="3417"></path><path d="M500.1 405.8m-21.7 0a21.7 21.7 0 1 0 43.4 0 21.7 21.7 0 1 0-43.4 0Z" p-id="3418"></path><path d="M500.1 591.5m-21.7 0a21.7 21.7 0 1 0 43.4 0 21.7 21.7 0 1 0-43.4 0Z" p-id="3419"></path><path d="M585.69271 519.113285a21.7 21.7 0 1 0 14.574295-40.879701 21.7 21.7 0 1 0-14.574295 40.879701Z" p-id="3420"></path><path d="M399.973001 519.093335a21.7 21.7 0 1 0 14.574296-40.8797 21.7 21.7 0 1 0-14.574296 40.8797Z" p-id="3421"></path><path d="M434.5 433m-21.7 0a21.7 21.7 0 1 0 43.4 0 21.7 21.7 0 1 0-43.4 0Z" p-id="3422"></path><path d="M565.8 564.3m-21.7 0a21.7 21.7 0 1 0 43.4 0 21.7 21.7 0 1 0-43.4 0Z" p-id="3423"></path><path d="M544.430106 436.855199a21.7 21.7 0 1 0 42.718642-7.660129 21.7 21.7 0 1 0-42.718642 7.660129Z" p-id="3424"></path><path d="M413.170393 568.112122a21.7 21.7 0 1 0 42.718642-7.660129 21.7 21.7 0 1 0-42.718642 7.660129Z" p-id="3425"></path><path d="M500.1 317.7m-21.7 0a21.7 21.7 0 1 0 43.4 0 21.7 21.7 0 1 0-43.4 0Z" p-id="3426"></path><path d="M500.1 229.7m-21.7 0a21.7 21.7 0 1 0 43.4 0 21.7 21.7 0 1 0-43.4 0Z" p-id="3427"></path><path d="M500.1 680.9m-21.7 0a21.7 21.7 0 1 0 43.4 0 21.7 21.7 0 1 0-43.4 0Z" p-id="3428"></path><path d="M297.169797 502.576513a21.7 21.7 0 1 0 42.896616-6.590925 21.7 21.7 0 1 0-42.896616 6.590925Z" p-id="3429"></path><path d="M660.272103 502.566714a21.7 21.7 0 1 0 42.896617-6.590925 21.7 21.7 0 1 0-42.896617 6.590925Z" p-id="3430"></path><path d="M628.5 370.9m-21.7 0a21.7 21.7 0 1 0 43.4 0 21.7 21.7 0 1 0-43.4 0Z" p-id="3431"></path><path d="M371.7 627.7m-21.7 0a21.7 21.7 0 1 0 43.4 0 21.7 21.7 0 1 0-43.4 0Z" p-id="3432"></path><path d="M359.103488 388.575475a21.7 21.7 0 1 0 25.215457-35.323374 21.7 21.7 0 1 0-25.215457 35.323374Z" p-id="3433"></path><path d="M615.906407 645.345144a21.7 21.7 0 1 0 25.215456-35.323374 21.7 21.7 0 1 0-25.215456 35.323374Z" p-id="3434"></path><path d="M569.6 331.5m-21.7 0a21.7 21.7 0 1 0 43.4 0 21.7 21.7 0 1 0-43.4 0Z" p-id="3435"></path><path d="M430.6 667m-21.7 0a21.7 21.7 0 1 0 43.4 0 21.7 21.7 0 1 0-43.4 0Z" p-id="3436"></path><path d="M326.16971 450.606696a21.7 21.7 0 1 0 12.395971-41.592065 21.7 21.7 0 1 0-12.395971 41.592065Z" p-id="3437"></path><path d="M661.705325 589.608474a21.7 21.7 0 1 0 12.395971-41.592066 21.7 21.7 0 1 0-12.395971 41.592066Z" p-id="3438"></path><path d="M430.6 331.5m-21.7 0a21.7 21.7 0 1 0 43.4 0 21.7 21.7 0 1 0-43.4 0Z" p-id="3439"></path><path d="M569.6 667m-21.7 0a21.7 21.7 0 1 0 43.4 0 21.7 21.7 0 1 0-43.4 0Z" p-id="3440"></path><path d="M311.789058 575.627323a21.7 21.7 0 1 0 41.191011-13.669696 21.7 21.7 0 1 0-41.191011 13.669696Z" p-id="3441"></path><path d="M647.279449 436.639865a21.7 21.7 0 1 0 41.191012-13.669696 21.7 21.7 0 1 0-41.191012 13.669696Z" p-id="3442"></path><path d="M500.1 772.3m-21.7 0a21.7 21.7 0 1 0 43.4 0 21.7 21.7 0 1 0-43.4 0Z" p-id="3443"></path><path d="M750.656081 506.972536a21.7 21.7 0 1 0 41.703062-12.017261 21.7 21.7 0 1 0-41.703062 12.017261Z" p-id="3444"></path><path d="M207.962092 506.997105a21.7 21.7 0 1 0 41.703062-12.017261 21.7 21.7 0 1 0-41.703062 12.017261Z" p-id="3445"></path><path d="M308.3 309.1m-21.7 0a21.7 21.7 0 1 0 43.4 0 21.7 21.7 0 1 0-43.4 0Z" p-id="3446"></path><path d="M692 692.9m-21.7 0a21.7 21.7 0 1 0 43.4 0 21.7 21.7 0 1 0-43.4 0Z" p-id="3447"></path><path d="M677.980727 325.666478a21.7 21.7 0 1 0 27.957284-33.195637 21.7 21.7 0 1 0-27.957284 33.195637Z" p-id="3448"></path><path d="M294.360488 709.42193a21.7 21.7 0 1 0 27.957283-33.195637 21.7 21.7 0 1 0-27.957283 33.195637Z" p-id="3449"></path><path d="M265.1 365.3m-21.7 0a21.7 21.7 0 1 0 43.4 0 21.7 21.7 0 1 0-43.4 0Z" p-id="3450"></path><path d="M735.1 636.7m-21.7 0a21.7 21.7 0 1 0 43.4 0 21.7 21.7 0 1 0-43.4 0Z" p-id="3451"></path><path d="M627.035088 285.834547a21.7 21.7 0 1 0 17.433435-39.744627 21.7 21.7 0 1 0-17.433435 39.744627Z" p-id="3452"></path><path d="M355.787617 755.764948a21.7 21.7 0 1 0 17.433435-39.744627 21.7 21.7 0 1 0-17.433435 39.744627Z" p-id="3453"></path><path d="M364.5 266m-21.7 0a21.7 21.7 0 1 0 43.4 0 21.7 21.7 0 1 0-43.4 0Z" p-id="3454"></path><path d="M635.8 736m-21.7 0a21.7 21.7 0 1 0 43.4 0 21.7 21.7 0 1 0-43.4 0Z" p-id="3455"></path><path d="M717.33773 377.763246a21.7 21.7 0 1 0 35.487215-24.984347 21.7 21.7 0 1 0-35.487215 24.984347Z" p-id="3456"></path><path d="M247.408664 649.183219a21.7 21.7 0 1 0 35.487215-24.984346 21.7 21.7 0 1 0-35.487215 24.984346Z" p-id="3457"></path><path d="M238 430.8m-21.7 0a21.7 21.7 0 1 0 43.4 0 21.7 21.7 0 1 0-43.4 0Z" p-id="3458"></path><path d="M762.2 571.2m-21.7 0a21.7 21.7 0 1 0 43.4 0 21.7 21.7 0 1 0-43.4 0Z" p-id="3459"></path><path d="MNaN NaNaNaN NaN NaN 1 0 NaN NaN NaN NaN NaN 1 0 NaN NaNZ" p-id="3460"></path><path d="MNaN NaNaNaN NaN NaN 1 0 NaN NaN NaN NaN NaN 1 0 NaN NaNZ" p-id="3461"></path><path d="M429.9 238.9m-21.7 0a21.7 21.7 0 1 0 43.4 0 21.7 21.7 0 1 0-43.4 0Z" p-id="3462"></path><path d="M570.4 763.1m-21.7 0a21.7 21.7 0 1 0 43.4 0 21.7 21.7 0 1 0-43.4 0Z" p-id="3463"></path><path d="M742.041323 438.772365a21.7 21.7 0 1 0 40.351184-15.979423 21.7 21.7 0 1 0-40.351184 15.979423Z" p-id="3464"></path><path d="M217.828584 579.199599a21.7 21.7 0 1 0 40.351184-15.979423 21.7 21.7 0 1 0-40.351184 15.979423Z" p-id="3465"></path></svg>