<?xml version="1.0" standalone="no"?><!DOCTYPE svg PUBLIC "-//W3C//DTD SVG 1.1//EN" "http://www.w3.org/Graphics/SVG/1.1/DTD/svg11.dtd"><svg t="1574735243211" class="icon" viewBox="0 0 1024 1024" version="1.1" xmlns="http://www.w3.org/2000/svg" p-id="1665" xmlns:xlink="http://www.w3.org/1999/xlink" width="200" height="200"><defs><style type="text/css"></style></defs><path d="M723.2 213c7.6 3.2 15.1 6.5 22.7 9.7 35.7 14.9 54.6 42 54.8 80.1 0.6 129.7 0.1 259.4 0.1 389 0 36.1-14.5 64.5-46.9 81.4-11.2 5.8-24.8 9.9-37.3 9.9-146.1 0.7-292.2 0.7-438.4 0.2-31.2-0.1-52.6-18.6-69.4-43.1-2.8-4-5.9-7.8-8.8-11.7V271.8c1.8-1.9 4.2-3.6 5.3-5.9 10.7-22.7 28.5-37.3 51.7-46 5.5-2.1 10.8-4.6 16.2-6.9h250.4c-2.5 3.6-4.3 9-7.7 10.5-14.5 6.1-29.9 10.1-44.2 16.6-43.4 19.7-81.8 46.6-113.8 82.2-25.4 28.2-48.6 58.1-64.5 92.6-23.6 51.3-33.4 105.6-28.1 161.7 2.4 24.8 5.9 50.6 15 73.4 12.4 30.9 33.6 57.3 63.9 73.8 24 13.1 47.4 29.2 76 30 53.3 1.6 106 1.1 158-16.4 58.3-19.5 113.7-42.6 158.5-85.6 15.3-14.6 27.9-32.2 23.4-55.6-0.9-4.9-5.4-9.1-8.2-13.6-3.7 2.5-7.9 4.3-10.9 7.5-31.3 33.2-65.4 62.2-107.6 81.5-27.4 12.5-55.5 20.7-84.9 26.9-26.8 5.6-52.8 3.5-77.1-6-62.3-24.4-95.5-70.8-102-137.8-5.6-57.6-3.6-113 23.9-165.8 23.9-46 57.1-82.4 106.3-100.1 27.4-9.9 56.6-16.7 85.5-19.8 49.5-5.3 97.9-2.2 134.6 42.1 4.1-6.1 8.3-12.4 12.6-18.7 19.6-29.3 14.2-50.8-16.4-68.1-3.3-1.9-4.5-7.4-6.7-11.2 4.7-0.1 9.4-0.1 14-0.1z" p-id="1666"></path></svg>