<?xml version="1.0" standalone="no"?><!DOCTYPE svg PUBLIC "-//W3C//DTD SVG 1.1//EN" "http://www.w3.org/Graphics/SVG/1.1/DTD/svg11.dtd"><svg t="1575540008057" class="icon" viewBox="0 0 1024 1024" version="1.1" xmlns="http://www.w3.org/2000/svg" p-id="6909" xmlns:xlink="http://www.w3.org/1999/xlink" width="200" height="200"><defs><style type="text/css"></style></defs><path d="M137.6 575.3c0.4 0.1 0.9 0 1.2 0.2 9.1 6.7 19.8 9.2 30.5 11.3 21.4 4.3 43.1 5.8 64.9 6 21.6 0.2 43.3-0.1 64.9 0 27.6 0.2 55.2 1.5 82.7 4.2 24 2.4 47.9 5.7 71.2 12.2 79.9 22.4 155.3 55 225.2 99.8 11.4 7.3 22.4 15.4 33.5 23.1 0.7 0.5 1.2 1 2.1 1.8-0.9 0.9-1.7 1.7-2.5 2.3-13.6 10.8-28 20.4-43.2 28.8-1.9 1-3.4 1.7-5.7 0.3-29.2-18.4-61.1-30.5-93.9-40.5-32.1-9.8-64.8-17.1-97.9-22.5-26.7-4.4-53.5-7.4-80.4-10.1-28.4-2.8-56.8-2.4-85.2-2.4h-33.7c-1.4 0-2.8-0.2-4-0.7-26.9-10.2-52.9-22.1-76.7-38.5-19.9-13.7-34.5-31.9-45.1-53.4-2.7-5.4-4.1-11.4-6.2-17.1-0.4-1.1-1.1-2.2-1.6-3.2-0.1-0.5-0.1-1-0.1-1.6z" p-id="6910"></path><path d="M729.5 259.6c-4.7-1.4-9.3-2.8-14-4.1 0-0.3 0.1-0.5 0.1-0.8 8.5-1.3 17.1-2.5 26.4-3.9-4.1-2.9-7.2-5.8-7.3-10.9 1.2 0.3 2.2 0.5 3.1 0.8 6.2 2.5 12.3 5.1 18.5 7.4 1.9 0.7 4 1.2 6 1.1 8.1-0.4 15 1.8 20.8 7.5 3.6 3.6 7.9 6 12.8 7.5 4.2 1.4 8.3 3 11.6 6.2 1.1 1 2.6 1.5 4 2.2 13.3 6.6 26.6 13.2 39.8 19.8 1.8 0.9 3.7 2 5.2 3.3 3 2.5 3.4 5.5 0.9 8.4-3.4 3.9-6 8.2-8.7 12.6-2.7 4.5-7 6.4-12.1 5.1-3.4-0.9-6.7-2.5-10-4-2.5-1.2-4.8-2.8-7.2-4.1-6.5-3.4-12.7-3.2-18.5 1.8-5.5 4.8-12 7.4-19.2 8.2-4.9 0.5-9.6-0.4-14.4-1.6-3.6-1-4.4-0.6-6.4 2.5 54.9 74.6 73.8 157.3 53.6 247.9-14 62.8-46.8 114.8-95.4 157.4-3-2.3-5.8-4.3-8.5-6.5-48.4-38.4-101.9-67.7-158.9-90.9-33.9-13.8-68.6-25.3-104.3-33.7-21.6-5.1-43.5-8.3-65.6-10.5-36.2-3.6-72.5-5-108.8-5-15.9 0-31.9 0.4-47.8 0.7-3 0.1-5.7-0.4-8.4-1.7-16.6-7.8-29.8-19.6-40.1-34.7-11.6-17-18.4-35.9-22.5-55.9-1-4.9-1.6-9.8-2.3-14.8-0.1-0.7 0-1.5 0-2.3 0.4 0 0.6 0 0.6 0.1 6.9 9.5 16.9 14.4 27.7 18.2 12.2 4.3 24.9 6.6 37.7 8.2 4 0.5 7.9 0.8 12.4 1.3 0.1-2.2 0.2-3.9 0.3-5.7 1-38.7 9.4-75.7 25.1-111.1 38.3-86.5 116.7-150 209.1-169.4 30.1-6.3 60.5-7.9 91-4.9 50.1 4.9 96 21.7 137.6 50.1 2.2 1.5 4.3 2 7 1.7 7.3-0.9 14.6-1.5 21.9-2.2 2.3-0.2 4.7-0.5 7-0.8 0.1 0 0.1-0.2 0.2-0.5zM640 264c-67.6-34-173.6-40.5-262.7 19.7-45.6 30.8-78.8 71.8-99.4 122.8-12.6 31.2-18.9 63.7-18.9 97.8 2.4 0.2 4.3 0.2 6.2 0.5 2.8 0.5 5-0.3 7.2-2.1 11.3-9.3 23.3-17.5 35.7-25 1-0.6 1.9-1.3 3.6-2.5-6.5-3.1-12.2-5.8-18.7-8.8 1.9-0.7 3.3-1.4 4.7-1.5 3.8-0.4 7.7-0.8 11.6-0.6 6.7 0.3 12.8-1.2 18.6-4.6 14.2-8.3 29.6-10.7 45.7-8 3.1 0.5 6.1 1.4 9.6 2.1 0.2-2.7 0.5-5.3 0.7-8.3 5.4 3 10.3 2.3 15.1-0.7 2.3-1.5 4.5-3.2 6.7-4.9 3.4-2.6 6.7-5.4 10.2-7.9 4.5-3.2 9.6-4.9 15.3-4.3 0.4 0 0.8-0.2 0.8-0.2 1.8-3.9 3.1-7.7 5.2-11.1 11-17.7 25.9-30.4 46.7-34.5 12.8-2.5 25.7-3.8 38.6-6 7.2-1.2 14.4-2.8 21.5-4.5 3.1-0.7 3.9-2.7 2.6-5.6-0.6-1.3-1.6-2.6-2.7-3.6-1.2-1.1-2.7-2-4.1-2.7-5.8-2.7-8.2-7.2-7.6-13.4 0.1-1.5 0.2-3 0.4-4.5 2.8-15.4 11.4-26.5 25.1-33.7 17.7-9.3 36-17.1 55.3-22.6 5.1-1.5 9.3-4.2 12.1-8.8 3.4-5.9 7.9-10.2 14.9-12.5z m107.3 91.3c-0.2 0.3-0.5 0.6-0.7 1-8 17.7-16 35.3-23.9 53-1.4 3-1.3 5.9 0.7 8.6 0.3 0.4 0.6 0.9 0.9 1.4 5 8 3.7 17.3-3.3 23.7-1.6 1.5-3.4 2.9-5.1 4.2-4.5 3.5-6.6 8.1-6.3 13.8 0.9 14.2 1.6 28.5 2.9 42.7 0.9 10.6 2.4 21.2 3.8 31.7 0.3 2.2-0.3 3.6-2 5-5.3 4.5-11.5 6.6-18.2 7.4-9 1.2-17.7-0.3-26.4-2.1-8.3-1.7-16.5-3.8-25-3.8-4.6 0-6 0.8-7 5.4-1.3 5.7-4.2 10.5-8 14.8l-6.3 7.2c-3.3 3.8-6.1 8-7.5 12.8-2.8 9.5-5.3 19.1-7.9 28.8 38.5 24.6 74.8 51.8 109.3 81.5 94.6-93.6 98.4-242.6 30-337.1z m-55.4-85.2c-83.6-60.4-207.7-73.8-311.2-12.9-52.6 30.9-91.6 74.3-116.9 129.8-16.8 36.7-25.1 75.4-25.5 116 4.7 0.4 8.9 0.9 13.2 0.5 1.6-70.3 25.1-131.7 72.4-183.2 47.3-51.5 106.2-81 175.9-87.8 69.6-6.8 132.9 11.3 190 52.1 1.4-1.5 2.8-2.9 4.4-4.5-5.1-3-10.3-4.1-15.6-5.8 4.2-1.4 8.5-2.7 13.3-4.2z m-84.2 252c0.8-2.6 2.8-3.7 4.8-4.7s4.1-1.7 6.1-2.6c9.2-4.5 13.8-16.2 10.3-25.8-1.4-3.7-3.7-5.8-7.9-6.2-14.9-1.3-29.8-2.7-44.7-4.2-5.9-0.6-10.5 1.4-14.2 6-9.4 11.7-18.8 23.3-28.2 34.9-0.7 0.8-1.5 1.9-1.5 2.8 0.1 8.8-0.4 11.9 8.6 15.9 0.6 0.3 1.3 0.6 1.9 0.8 12.9 5.7 25.8 11.4 38.7 17.2 1.5 0.7 2.9 1.4 4.7 2.3 0 6.4 0.2 12.6-0.1 18.8-0.3 6.3-1 12.7-1.6 19.3 1 0.6 2.2 1.2 2.8 1.5 6-9.2 11.8-17.9 17.4-26.8 2.9-4.5 5.8-9.1 8.3-13.9 2.9-5.2 4.9-10.8 5.8-16.8 1.6-9.4-1.8-15.2-11.2-18.5zM733 706.4c31.4-32.4 54.2-69.7 67.8-112.3 18.3-57.1 18.7-114.6 1.6-172.1-9.6-32.2-24.6-61.6-45.2-89-1.9 4-3.2 7.3-4.9 10.4-1.3 2.4-1.1 4.1 0.5 6.4 27.8 40.3 43.7 84.9 47.6 133.7 2.5 31.2-0.1 61.9-8.2 92.2-12 45.1-34.2 84.5-66.1 118.4-1 1.1-1.9 2.2-3 3.4 3.4 3.2 6.5 5.9 9.9 8.9zM567.6 586.8c0.7-4.5 1.3-8.2 1.8-11.9 0.2-1.2 0.1-2.5 0.1-3.7-0.2-7.9-3.6-12.4-11-14.8-1.3-0.4-2.7-0.8-4-1.1-19.1-5-38.3-10-57.4-15-1.3-0.3-2.6-0.8-3.8-1.2-0.5-2.8 0.8-4.6 2.2-6.3 1.6-1.9 3.5-3.6 5-5.6 3.3-4.5 1.4-9.3-4.2-10.1-1.5-0.2-3.1 0-4.5 0.4-2.1 0.6-4.1 1.6-6.2 2.4-10 3.7-20 7.4-30 11-2.5 0.9-5.2 1.4-7.7 2.1 41.6 14.1 81.1 32.3 119.7 53.8z m-108-85.9c-3.9-1.4-7.3-2.6-10.6-3.9-4.9-2-9.6-4.5-13.3-8.4-4.4-4.6-7-9.9-6.7-16.4 0.1-1.6 0.5-3.2 0.7-4.7-4.7-3.1-9.9-2.1-13.1 2.6-1.9 2.7-2.7 5.8-2.7 9 0 4 0.2 8 0.4 12 0.5 8.8-2.9 15.6-10.1 20.6-4.4 3-9.4 4.7-14.6 5.5-1.5 0.2-3.1 0.5-4.6 0.8 8.2 2.1 16.4 3.6 24.5 5.5 9.8 2.4 19.6 5.1 29.3 7.6 1.6 0.4 3 1.1 4.7-0.2 9.6-7.7 15-17.5 16.1-30zM643 527.7c0.8 0.3 1.2 0.6 1.8 0.8 13.4 3.8 27 4.7 40.8 3.3 2.6-0.3 5.2-0.7 7.8-1.3 3-0.7 3.5-2.2 1.9-4.8-0.7-1.2-1.7-2.2-2.6-3.3-6.3-7.7-12.5-15.5-16.6-24.8-0.9-2-2-3.9-3.2-5.8-3.3-5.2-5.3-5.3-8.5 0.2-2.6 4.4-4.8 9-7.1 13.6-2.7 5.5-5.6 10.8-10.9 14.4-2.5 1.7-4.1 4.1-3.4 7.7z m-284.2-13.6c0.1 0.3 0.2 0.7 0.2 1 4 0.4 7.9 1 11.9 1.3 1.9 0.1 4 0.2 5.7-0.3 5.5-1.7 11.1-3.5 16.4-5.8 2.7-1.2 5.1-3.2 7.3-5.3 2-1.9 3.2-4.5 2.3-8-17.2-0.9-31 6.9-43.8 17.1z m294-204.8c1.5 0.2 2.4 0.4 3.3 0.3 3.8-0.3 6.7-2.3 9.6-4.6 3.8-3 7.7-5.9 11.5-8.9 0.5-0.4 1-0.8 2.1-1.7-3.4-0.5-6.1-0.8-8.8-1.2-3.7-0.5-6.4 0.7-8.2 4.2-1.5 2.9-4.9 4.4-5.8 7.9-0.4 1.5-2.2 2.4-3.7 4z m26-22.4l0.3-0.9c-2.4-1.6-4.9-3.2-7.8-5.2 0.4 2.3 0.6 3.9 0.9 5.7 2.3 0.1 4.5 0.3 6.6 0.4zM656 771c-110.2 55.5-261 35.4-352.9-71.8 2.3-0.2 4.3-0.6 6.2-0.6 15 0.3 29.9 0.4 44.9 1 15.1 0.7 30.2 1.6 45.2 3 15.7 1.4 31.5 3.1 47.1 5.1 23.4 3 46.6 7.1 69.6 12.2 38.7 8.5 76.4 20 112.3 36.8 9.2 4.3 18 9.3 27.6 14.3z" p-id="6911"></path></svg>