<?xml version="1.0" standalone="no"?><!DOCTYPE svg PUBLIC "-//W3C//DTD SVG 1.1//EN" "http://www.w3.org/Graphics/SVG/1.1/DTD/svg11.dtd"><svg t="1575011544773" class="icon" viewBox="0 0 1024 1024" version="1.1" xmlns="http://www.w3.org/2000/svg" p-id="6597" xmlns:xlink="http://www.w3.org/1999/xlink" width="200" height="200"><defs><style type="text/css"></style></defs><path d="M284.7 507c8.6-2.6 16.6-5.3 24.8-7.2 12.3-3 24.6-1.9 36.7 1.3 17 4.5 25.7 20.2 21.7 38.5-7.3 33.6-33.5 52.5-66.3 54.2-9.9 0.5-20 1-29-4.6-3.4-2.1-6.5-4.6-9.9-7-0.1 0-0.7 0.1-0.8 0.3-2.6 8.1-8.5 9.7-16.3 9.2-9-0.6-18.1 0-27.1-0.3-6.3-0.2-6.9-1.1-5.3-7 3.7-13.4 7.7-26.8 11.6-40.2 7.1-24.3 14.4-48.6 21.5-73 2.6-9 2.9-9.7 12.4-9.7 10.3-0.1 20.6 0.1 31 0.4 6 0.2 6.7 1.3 5.1 7.2-2.7 9.7-5.7 19.4-8.5 29.1-0.8 2.8-1 5.8-1.6 8.8z m1.4 66.6c0.2 0.5 0.4 0.9 0.6 1.4 5.6-2.3 12.2-3.6 16.8-7.2 11.2-8.9 15.4-21.7 15.8-35.5 0.2-7-4.2-12.2-10.9-13-4.7-0.6-9.6-0.3-14.2 0.7-17.5 4-26.8 32.8-23.1 44.1 2 6.2 7.1 9.5 15 9.5z m150.7 21.7c-11.5-2-23.4-2.7-34.5-6.2-31.3-9.7-32-35.9-18.1-57.4 9.7-14.9 24.3-23.3 41-28.1 24-6.9 48.3-8 72.5-1 13.4 3.9 24.3 11.2 27 26.1 2.2 12.2-1.8 23.4-8.9 33.1-15.9 21.6-39.2 28.5-64.3 31.6-4.7 0.6-9.6 0.1-14.4 0.1-0.1 0.7-0.2 1.2-0.3 1.8z m18.8-76.9c-6.4 0.2-15.6 3.1-20.8 11.7-4.4 7.4-8.2 15.8-9.7 24.2-2.4 13.4 5.9 20.5 19.5 19.4 21.2-1.7 31-22.4 31.2-39.3 0.2-10.5-6-16-20.2-16zM914.9 562c2.6-3.2 4.2-5 5.7-7 10.9-15 22.1-29.9 32.6-45.2 4.5-6.6 9.8-9.8 17.9-9.1 6.2 0.5 12.5-0.1 18.8 0.1 3.2 0.1 6.4 0.8 11.2 1.5-2.6 4.2-4.2 7.6-6.5 10.4-17.4 20.9-35 41.7-52.6 62.5-12.9 15.3-25.9 30.5-38.7 46-3.2 3.9-7.1 5.5-11.9 5.6-9.2 0.3-18.3 1.2-27.5 1.2-6.2 0-12.4-0.9-18.6-1.6-3.4-0.4-4.6-2.2-3.5-5.8 6.4-20.8 4.1-18.2 23.9-18.8 3.4-0.1 7.4 0.1 10.1-1.6 4.4-2.7 6.5-6.9 4.8-12.8-7.2-25.6-14.1-51.4-21.2-77-2.3-8.2-1.5-9.6 6.9-9.6 10.9 0 21.8-0.1 32.6 0 9.2 0.1 9.5 0.5 10.4 9.5 1.5 15.4 3 30.7 4.6 46.1 0.1 1.3 0.4 2.5 1 5.6z" p-id="6598"></path><path d="M320.3 448.3c3.4-3.6 7-7.1 10.3-10.9 3.5-4 7.2-7.9 10.1-12.3 9.5-14.6 2.4-23.6-10.8-27.8-12.4-3.9-25.4-5.4-38.7-3-8.5 1.5-17.2 1.5-25.8 2.6-25.1 3.4-49.4 9.9-73.4 17.6-29.3 9.4-57.8 20.7-85.3 34.5-19.9 9.9-39.3 21-56.7 34.9-8 6.4-14.6 14.4-22.2 21.3-1.7 1.6-4.6 1.8-7 2.6-0.3-2.4-1.4-4.9-0.8-7.1 3.6-12.8 11.7-22.2 22-30.7 17.3-14.2 36.5-25.3 56.1-35.7 15.4-8.2 31.5-15.3 47.8-21.5 23.7-9 47.5-18 71.8-24.9 27.9-7.9 56.1-14.8 85.3-16.9 15.6-1.2 31.1-3.2 46.8-1.3 9.3 1.2 18.1 3 25.3 9.6 5.7 5.2 6.9 12.7 4.2 20.1-4.3 11.6-13 19.6-22.1 27-9.6 7.8-20.3 14.4-30.7 21.4-1.5 1-3.5 1.2-5.3 1.8-0.3-0.4-0.6-0.8-0.9-1.3z m326.9 84.4h-17.1c-3.3 0-5.6-0.7-5.6-4.9-0.1-5.5-3.7-8.1-8.8-8.8-10.2-1.4-18.7 1.5-24.6 10.1-6.6 9.7-9.7 20.6-9.8 32.2-0.1 8.8 5.8 13.1 14.5 12.2 9-1 15.3-5.3 19.8-13.1 1.3-2.2 4.8-4.3 7.3-4.4 11.2-0.4 22.5-0.2 33.7 0.1 5.9 0.2 7.1 2.6 4.3 7.8-4.7 8.8-12 15-20.8 19.1-27.9 12.7-56.9 14.8-86.2 6.3-17.9-5.2-24.9-19.8-20.8-38 6.2-27 24.9-40.9 49.9-48.3 20-5.9 40.4-6.3 60.7-2.4 12 2.4 23.2 7 27.3 20.3 2.7 8.7 0.6 11.6-8.3 11.8-5.2 0.1-10.3 0-15.5 0z m208.4-31.2c0.2 1.6 0.4 2 0.3 2.3-4 18.6-4 18.6-23.2 18.9-9.9 0.2-10 0.3-12.7 10-2.5 8.8-5.1 17.6-7.8 26.4-2.9 9.4-1 12.2 8.6 12.6 2.6 0.1 5.2 0.4 7.7 0.3 5.3-0.2 6.1 2.4 5 7-3.3 13.4-4.4 14.5-18.6 14.6-10.1 0.1-20.3 0.2-30.4-0.3-4.7-0.2-9.6-1.1-14-2.8-9.5-3.7-12.4-12.2-8.9-23.5 3.7-11.9 7.4-23.8 10.9-35.8 2.1-7.1 1.4-8-5.9-8.3-1.8-0.1-3.7 0-5.5-0.1-9.2-0.5-10.1-1.9-7.4-10.8 0.6-1.9 1.3-3.8 1.8-5.8 1-3.7 3.3-5.5 7.2-5.5 4.6 0 9.2-0.3 13.8-0.1 3.5 0.1 5.4-1.4 6.3-4.8 2.3-8.1 4.9-16.2 7.1-24.3 1.3-4.9 3.8-7.5 9.2-7.4 10.3 0.2 20.6-0.1 30.9 0 2.8 0 5.7 0.9 9.6 1.5-3.3 11.7-6.3 22.7-9.5 34.4 9.1 0.6 17.3 1.1 25.5 1.5z m-160.3 89.8c-5.5 0-11-0.1-16.6 0-5.2 0.1-6.9-1.9-5.3-7 3.7-12.1 7.1-24.3 10.7-36.4 4.1-13.5 8.3-26.9 12.3-40.5 1.3-4.3 3.6-6.6 8.2-6.5 11.2 0.1 22.4 0.1 33.7 0.1 4.8 0 6.9 2 5.4 6.9-7.8 26.4-15.5 52.8-23.5 79.1-0.5 1.8-3.6 3.8-5.6 4-6.4 0.5-12.9 0.2-19.3 0.2v0.1z m-529.6-0.1H148c-4.2 0-5.7-2.1-4.8-6 1.7-6.8 3.5-13.5 5.4-20.2 4.9-16.7 9.9-33.3 14.7-50 4.1-14.2 4.1-14.3 18.6-14.4 8.3 0 16.6-0.1 24.8 0.3 7 0.3 8 1.8 6 8.7-4.5 15.5-9.2 30.9-13.8 46.4-2.9 9.8-5.9 19.7-8.7 29.5-1.1 4-3.6 5.7-7.6 5.7h-17.1c0.2 0.1 0.2 0.1 0.2 0z" p-id="6599"></path><path d="M197.6 492.7c-17.1 0-26.4-14-25.3-26.8 1.4-16.1 13-24.7 27.8-24.8 12.1-0.1 24.8 14.7 23.8 27-1.4 15.2-11.9 24.8-26.3 24.6z m535.5-30.9h18.2c4.1 0 5.8 1.8 4.6 5.9 0 0.2-0.1 0.4-0.1 0.5-3.3 16.7-4.5 17.8-21.5 17.9-8.3 0-16.5-0.2-24.8-0.2-4.4 0-6-2.3-4.9-6.4 1.3-4.9 2.5-10 4.7-14.6 0.8-1.7 4-3.1 6.2-3.3 5.8-0.5 11.8-0.2 17.6-0.2v0.4z" p-id="6600"></path></svg>