<?xml version="1.0" encoding="utf-8"?>
<!-- Generator: Adobe Illustrator 23.1.1, SVG Export Plug-In . SVG Version: 6.00 Build 0)  -->
<svg version="1.1" id="圖層_1" xmlns="http://www.w3.org/2000/svg" xmlns:xlink="http://www.w3.org/1999/xlink" x="0px" y="0px"
	 viewBox="0 0 1024 1024" style="enable-background:new 0 0 1024 1024;" xml:space="preserve">
<g>
	<path d="M498.2,805.7c-52.6,0-105.1,0.1-157.7,0c-81.5-0.1-144.6-63.4-144.6-145c0-103.6,0-207.1,0-310.7
		c0-81.5,63.3-144.6,144.9-144.7c104.8-0.1,209.6-0.1,314.5,0c81.4,0.1,144.6,63.4,144.7,145c0.1,103.6,0.1,207.1,0,310.7
		c-0.1,81.5-63.3,144.6-145,144.7C602.7,805.8,550.5,805.7,498.2,805.7z M434.8,469.4c3.4,3.1,5,4.5,6.5,6
		c37.3,37.5,74.5,75,112,112.3c4.1,4.1,9.4,8,14.8,9.6c10.4,3,20.6-2.5,25.6-12c5.1-9.6,3.7-19.5-4.7-27.8
		C535.7,503.7,482.2,450,428.7,396.4c-8-8-16.7-9.8-26-5.8c-9.7,4.2-15.1,13.2-15.1,24.4c0.2,47.1,0.3,94.2,0.5,141.4
		c0,6.7-0.3,13.4,0.6,20c2,14.5,15.8,23.1,29.6,19c10.1-3,16.4-12.4,16.5-25.2C434.9,537.4,434.8,504.6,434.8,469.4z M743,570.5
		c-1.3-2.4-3-8.1-6.7-11.9C682.6,504.2,628.6,450,574.5,395.9c-9.8-9.8-23.9-9.2-33.2,0.5c-9.1,9.5-9.4,22.9,0.2,32.5
		c53.9,54.2,107.9,108.4,162,162.4c7.1,7.1,17,8.6,25.5,4.4C738.1,591.3,743,584.1,743,570.5z M282.1,492.4c0,25.5-0.1,50.9,0,76.4
		c0.1,16.9,9.5,27.6,23.7,27.5c13.9-0.1,23-10.6,23.4-26.9c0.1-6.7,0-13.4,0-20c0-42.6,0-85.3,0-127.9c0-2.9,0.1-5.7-0.1-8.6
		c-1.2-14.3-10.8-23.9-23.7-23.8c-13.2,0.1-23.1,10.4-23.2,25.1C281.9,440.2,282.1,466.3,282.1,492.4z"/>
</g>
</svg>
