<?xml version="1.0" standalone="no"?><!DOCTYPE svg PUBLIC "-//W3C//DTD SVG 1.1//EN" "http://www.w3.org/Graphics/SVG/1.1/DTD/svg11.dtd"><svg t="1575015914506" class="icon" viewBox="0 0 1024 1024" version="1.1" xmlns="http://www.w3.org/2000/svg" p-id="12379" xmlns:xlink="http://www.w3.org/1999/xlink" width="200" height="200"><defs><style type="text/css"></style></defs><path d="M202.1 523c0-34.8 0.6-73.7 1.5-96.8h-1.5c-10.2 41.6-32 109.4-52.9 173.2h-40.1c-15.9-55.7-38.4-133-48-173.7h-1.5c1.9 23.9 2.8 65.8 2.8 100.8v73H19.5V395.7h70.1c17 53.2 36 120 42.6 150.4h0.4c5.3-26.8 29.3-98.2 47.4-150.4h67.6v203.7h-45.4V523zM661.1 537c0 27.8-15.1 65.6-91.9 65.1l-76.4-0.5V387.3l82.6 0.6c40.8 0.3 74.4 13 74.4 56.2 0 24.2-16.1 39.3-33.6 45v1.2c22.2 2.5 44.9 16.4 44.9 46.7z m-91.5-110.7l-27-0.2v47.4l25 0.2c24.4 0.2 33.9-11.4 33.9-23.6 0-13.2-8.2-23.6-31.9-23.8z m40.5 111.9c0-18.6-16.8-25.8-35.6-25.9l-31.9-0.2v51.4l34.6 0.2c25.3 0.1 32.9-13.3 32.9-25.5zM686.5 604.7V390.4l136.6 0.9v38.5l-86.6-0.6V477l74.4 0.5V516l-74.4-0.5v51.1l90.5 0.6v38.5l-140.5-1zM893.3 429.3l-57.3-0.4v-38.5l165 1.1V430l-57.3-0.4v175.8l-50.4-0.3V429.3zM256.3 560.9c0-38.1 26.7-61.4 48.8-71.4-22.9-14.2-36.9-32.1-36.9-62.3 0-50.7 37.1-84.2 104.2-84.2 61.4 0 101.7 32 101.7 83.4 0 34.4-17.6 51.2-38 59.9 21.5 8 48.6 33.1 48.6 72.6 0 61.5-49.2 93.4-117.2 93.4-60.8-0.1-111.2-32.3-111.2-91.4zM420 558c0-29.6-20.4-43.2-49.4-43.2-32.5 0-49.1 17.6-49.1 42.8 0 26.5 19.9 44.1 50.2 44.1 28 0.1 48.3-13.2 48.3-43.7z m-90.2-128.6c0 20.2 14.4 33.7 41.8 33.7 26.5 0 41-10.2 41-33.5 0-22.6-14.9-36.6-41.5-36.6-27.3 0-41.3 12.8-41.3 36.4z" p-id="12380"></path></svg>