<?xml version="1.0" standalone="no"?><!DOCTYPE svg PUBLIC "-//W3C//DTD SVG 1.1//EN" "http://www.w3.org/Graphics/SVG/1.1/DTD/svg11.dtd"><svg t="1574677103703" class="icon" viewBox="0 0 1024 1024" version="1.1" xmlns="http://www.w3.org/2000/svg" p-id="2153" xmlns:xlink="http://www.w3.org/1999/xlink" width="200" height="200"><defs><style type="text/css"></style></defs><path d="M504 277.1v70.1c-80.3 3.4-143.1 70-143.1 151.8S423.7 647.4 504 650.8v70.1c-56.9-1.7-110.1-25.2-149.8-66.3C314.1 613 292 557.7 292 499s22.1-114 62.2-155.6c39.7-41.1 92.9-64.6 149.8-66.3m1-1C386.3 279 291 376.6 291 499s95.3 220 214 222.9v-72C425.5 647 361.9 581.3 361.9 499S425.5 351 505 348.1v-72zM516 277.1c57.1 1.4 110.5 24.8 150.5 66 40.3 41.6 62.5 97 62.5 155.9s-22.2 114.3-62.5 155.9c-39.9 41.2-93.3 64.6-150.5 66v-70c38.7-1.4 74.8-17.6 101.8-45.7 27.3-28.4 42.3-66.2 42.3-106.2s-15-77.8-42.3-106.2c-26.9-28.1-63.1-44.3-101.8-45.7v-70m-1-1v72c80 2.4 144.1 68.3 144.1 150.9S595 647.5 515 649.9v72c119.1-2.4 215-100.2 215-222.9s-95.9-220.5-215-222.9z" p-id="2154"></path><path d="M505 649.9C425.5 647 361.9 581.3 361.9 499S425.5 351 505 348.1v-72C386.3 279 291 376.6 291 499s95.3 220 214 222.9v-72zM515 276.1v72c80 2.4 144.1 68.3 144.1 150.9S595 647.5 515 649.9v72c119.1-2.4 215-100.2 215-222.9s-95.9-220.5-215-222.9z" p-id="2155"></path><path d="M653.8 680.7c34.6 25 76.7 40.1 122.2 41.2v-72c-27.2-1-52.5-9.3-74-23.1a242.84 242.84 0 0 1-48.2 53.9zM703.3 370.4c21.3-13.3 46.1-21.3 72.7-22.3v-72c-45.1 1.1-86.7 15.9-121.1 40.5 18.8 15.2 35.2 33.4 48.4 53.8zM786 276.1v72c80 2.4 144.1 68.3 144.1 150.9S866 647.5 786 649.9v72c119.1-2.4 215-100.2 215-222.9s-95.9-220.5-215-222.9z" p-id="2156"></path><path d="M20 499c0 122.4 95.3 220 214 222.9v-72C154.5 647 90.9 581.3 90.9 499S154.5 351 234 348.1v-72C115.3 279 20 376.6 20 499zM318.3 627.2c-21.7 13.7-47.1 21.9-74.3 22.7v72c45.7-0.9 87.9-15.9 122.7-40.9-18.7-15.3-35.1-33.5-48.4-53.8zM365.6 316.2c-34.5-24.5-76.4-39.2-121.6-40.1v72c26.7 0.8 51.6 8.7 73 21.9 13.3-20.4 29.7-38.6 48.6-53.8z" p-id="2157"></path></svg>