<?xml version="1.0" standalone="no"?><!DOCTYPE svg PUBLIC "-//W3C//DTD SVG 1.1//EN" "http://www.w3.org/Graphics/SVG/1.1/DTD/svg11.dtd"><svg t="1574995300974" class="icon" viewBox="0 0 1024 1024" version="1.1" xmlns="http://www.w3.org/2000/svg" p-id="2852" xmlns:xlink="http://www.w3.org/1999/xlink" width="200" height="200"><defs><style type="text/css"></style></defs><path d="M919.2 498.9c0.2-19.5-0.4-39 0.3-58.5 4.2-9.6 6.1-19.9 8.4-30.1-3.4-4-6.8-8.1-10-12.3 4.8-17 10.6-33.7 16.5-50.4-33.1 0.5-66.3-1-99.4 0.9-18.6-13.6-46.1-13.9-64.5 0.2-16 0.1-32.1 0-48.1 0-7.3 0-14.3 2.2-21.1 4.4-19.7-4.7-40.1-0.8-60.1-2.5-9.6-6.8-21.5-9.6-33.2-9-13.8-0.4-29 0-40.1 9.3-16.6 0.3-33.3-0.8-49.8 0.6-10.3-5.5-22.2-3.8-33.4-4H201.5c-8.8 0.1-17.5-0.4-26.2 0.9-19-11.3-44.9-8.4-60.3 7.5-8.5 8.8-11 21-12.9 32.6 1.3 9.1 3.1 18.3 7.7 26.4-4.3 7.8-6.2 16.6-7.7 25.4 0.6 8.6 3 17.2 6.4 25.1-3.2 10.1-3.6 20.7-3.1 31.3H45.9c-8.7 27.4-17.3 54.8-25.9 82.2 33.5 0 67.1-0.1 100.6 0-12.1 25.6-21.4 52.3-33.6 77.8h283.3c10.2-0.2 20.9 0 30.5-4.2 7.9-3.8 13.1-11.4 15.5-19.7h25.8c4.8 7.9 11.1 15.2 19.8 18.9 10.9 3.5 22.2 5.8 33.6 5 126.9-0.1 253.8 0 380.7 0 12.7-0.7 26-5.5 34-15.8 7.5-8.7 8-20.9 10.1-31.7h31.5c15.1-36.8 30.4-73.5 45.4-110.3h-78z m19.4 95c-11.2 0.3-22.3 0.4-33.4 0.3 0.6 11.2 0 22.5-3.2 33.3-5.1 8.1-13.9 14.3-23.7 14.3-108.2-0.5-216.4-0.2-324.6-0.3-20.9 0.1-41.8-0.2-62.7 0.3-9.7 0.3-20.2-0.5-28.4-6.3-5.9-4.2-8.5-11.1-11-17.6-16.7 0-33.3 0.2-50-0.1 2.1 8.3 0 18.7-8.7 22.3-8.1 2.4-16.8 1.4-25.1 1.7-86.5-0.6-173 0.1-259.5-0.3 11.4-26 22.9-51.9 34.6-77.8-34.6 0.6-69.2 0.2-103.8 0 5.8-17.3 11.4-34.6 17.3-51.8 21.1-0.5 42.1-0.3 63.2-0.3 1.1-14.8-3.2-30.9 4.3-44.6 0.9-0.2 2.7-0.5 3.7-0.7-4-4.7-8-9.8-9.5-15.9-4.1-12.7 1.1-26.7 10.5-35.7-3.5-3.8-6.7-8-9.4-12.4-4.9-13.9-1.9-31.4 10.6-40.3 12.9-9.3 31.2-7.9 43 2.6 2.9-1.1 5.8-2.4 9-2.3h326.6c1.2 1.8 2.4 3.6 3.7 5.4 5.1-1.1 10.3-2.7 15.7-2.6 15.7 0 31.3 0.1 47 0 7.7-11.8 23.3-8.6 35.3-9.1 8.8-0.6 18.7 1.2 23.9 9 17.3 0.1 34.5 0 51.8 0 6.4-0.1 13 1.3 18.2 5.2 4.2-5.7 11.6-7.5 18.4-7.3 17.5 0 35 0 52.6 0.1 15.1-14 40-14.3 55.1-0.1 3.2 0.1 6.3 0.2 9.5 0.3 4 1.7 8.3 1.4 12.5 1.5 20.2-0.1 40.3 0 60.5 0-4.3 11.7-6.3 24.2-11.9 35.5 4 4 8 8 12 12.1-3.3 9.3-8.1 18.1-10.7 27.6-0.3 24.7 0 49.4-0.1 74.1 23.5-0.1 47 0 70.5 0-11.1 26.7-21.8 53.7-33.8 79.9z" p-id="2853"></path><path d="M883.7 398.9c3-6.7 6-13.4 9.2-20-23.5 0.2-46.9 0-70.4 0.1-4.5-5.6-10.2-11.3-18-10.9-8.7-1.2-17 3.4-21.3 10.9-22.2 0-44.5 0.1-66.8 0v19.9c55.8 0 111.6-0.1 167.3 0zM147.5 406c10.9 2 21.2-9.1 19.2-19.7-1-10.5-13.1-18.1-23-14-6.1 2.1-10.4 7.6-11.3 13.9-1.9 9.4 5.7 18.9 15.1 19.8zM302.2 371.1c-40.1 2.1-80.2 4.1-120.3 6.2v24.4c37.7-2.5 75.4-4.7 113.1-6.9 2.4-7.8 4.8-15.8 7.2-23.7zM737.9 529.2H619.7v-18.4h48.5l24.6-24.6v-105h-73.1c0-3.1 0.1-6.2 0.1-9.2-10.2 0.1-20.5 0-30.8 0v9.2h-68.2v129.6H589v39.5c55.4-0.4 110.8 0.9 166.2 0.6 12.8-14 25.5-28.1 38.3-42.1-11.9 0.1-23.8 0.1-35.7 0-6.8 6.6-13.5 13.3-19.9 20.4z m-149-38.4h-39.5v-35.2h39.5c0 11.8 0.1 23.5 0 35.2z m0-55.6h-39.5V401h39.5c0 11.4 0.1 22.8 0 34.2z m30.8 0v-34.1h43.4v89.8h-43.4v-35.2h31.7c2.9-6.9 5.9-13.7 8.9-20.5h-40.6z" p-id="2854"></path><path d="M324.6 398.3h50.3v126.5H248.7c-3.9 0.2-7.4-1.6-10.9-2.9 20-21.2 41.5-40.8 61.9-61.6v-22H183.5v23.2h77.6c-29.6 29.1-59.3 58.1-89.2 87 11.9 0.1 23.7 0 35.6 0 4.7-3.6 9.5-7.2 14.2-10.8 7.7 3.3 14.4 9.5 22.8 10.7 78 0.1 156 0 234 0.1 3.2 0.3 6.8-1.2 8-4.4 3.2-6.4 6.1-13 9.2-19.4h-48.9V398.2h42.6c3.6-7.8 7.2-15.5 10.9-23.2H324.7c-0.1 7.8-0.1 15.5-0.1 23.3z m92 0v126.5h-11.4V398.2c3.7 0.1 7.5 0.1 11.4 0.1z" p-id="2855"></path><path d="M232.6 404.8c-5.4 2.3-7.9 8.7-8.5 14.1-1.4 10.6 10.4 19.9 20.4 16.6 9.4-2.4 15.1-14.2 10.1-22.8-2.8-9.1-14.2-11.6-22-7.9zM716.5 436.2h168.2c3.1-6.7 6.1-13.4 9.2-20h-22.3c1.4-3.6 2.8-7.3 4.2-10.9-11.3 0.1-22.6 0-33.9 0-1.6 3.6-3.3 7.2-4.9 10.8h-64.8c-1.8-3.6-3.7-7.2-5.4-10.8h-35.4c1.4 3.6 2.8 7.2 4.3 10.8h-19.1c-0.1 6.7-0.1 13.4-0.1 20.1zM352.6 415.1h-28.8c3 28.6 5.8 57.3 8.7 85.9h28.9c-2.9-28.6-5.9-57.2-8.8-85.9zM457.2 500.5c9.7 0 19.4 0 29-0.1 3.6-28.4 7.4-56.8 10.9-85.3h-28.7c-3.7 28.5-7.5 56.9-11.2 85.4zM144 424.4c-12.2 3.7-16 21.6-6.1 29.8 9.6 10.3 29.1 2.4 29-11.6 1.7-12.3-11.5-22.3-22.9-18.2zM840.7 529.2v-25c5 0 9.9 0 14.9 0.1 10.7-7.6 21.3-15.3 32-22.8v-33.3c-56.2 0-112.4 0.1-168.6 0v56.1c29.7-0.1 59.4 0 89.1 0v45c44.7 0.4 89.3-0.9 133.9-0.6 3.1-6.5 6.2-13 9.4-19.5H840.7z m-93.5-44.9V468h104.9v16.3H747.2zM135.4 477.8c0.1 16.4 0 32.8 0.1 49.2H68.8l-7.2 21.6h103.1c-0.4-23.6-0.8-47.2-0.6-70.8-9.6 0-19.1 0.1-28.7 0z" p-id="2856"></path><path d="M220 626.3h-17.9l-6.6-14.7H166l-6.7 14.7h-17.8l29.3-64.2h19.9l29.3 64.2z m-30.3-27.4l-9-19.7-8.9 19.7h17.9zM281.3 562.1L252 626.3h-20l-29.3-64.2h17.9l21.4 47.1 21.4-47.1h17.9zM300.1 626.3h-15.7v-64.2h15.7v64.2zM381.8 626.3h-17.9l-6.6-14.7h-29.5l-6.7 14.7h-17.8l29.3-64.2h19.9l29.3 64.2z m-30.3-27.4l-9-19.7-8.9 19.7h17.9z" p-id="2857"></path><path d="M524.2 627.5h-41.3c-2.5 0-4.7-0.9-6.5-2.7-1.8-1.8-2.7-4-2.7-6.5v-45.9c0-2.5 0.9-4.7 2.7-6.5 1.8-1.8 4-2.7 6.5-2.7h41.3V576h-36.7v13h36.7v12.8h-36.7v13h36.7v12.7zM584.7 618.3c0 2.5-0.9 4.7-2.7 6.5-1.8 1.8-4 2.7-6.5 2.7h-45.9v-12.8H571v-13h-32.1c-2.5 0-4.7-0.9-6.5-2.7-1.8-1.8-2.7-4-2.7-6.5v-20.2c0-2.5 0.9-4.7 2.7-6.5 1.8-1.8 4-2.7 6.5-2.7h45.9V576h-41.3v13h32.1c2.5 0 4.7 0.9 6.5 2.7 1.8 1.8 2.7 4 2.7 6.5v20.1zM645.3 592.6c0 2.5-0.9 4.7-2.7 6.5-1.8 1.8-4 2.7-6.5 2.7H604v25.7h-13.8v-64.2h45.9c2.5 0 4.7 0.9 6.5 2.7 1.8 1.8 2.7 4 2.7 6.5v20.1z m-13.8-3.6v-13H604v13h27.5zM705.8 618.3c0 2.5-0.9 4.7-2.7 6.5-1.8 1.8-4 2.7-6.5 2.7h-36.7c-2.5 0-4.7-0.9-6.5-2.7-1.8-1.8-2.7-4-2.7-6.5v-45.9c0-2.5 0.9-4.7 2.7-6.5 1.8-1.8 4-2.7 6.5-2.7h36.7c2.5 0 4.7 0.9 6.5 2.7 1.8 1.8 2.7 4 2.7 6.5v45.9z m-13.7-3.6V576h-27.5v38.7h27.5zM766.4 627.5h-13.8v-25.7h-27.5v25.7h-13.8v-64.2h45.9c2.5 0 4.7 0.9 6.5 2.7 1.8 1.8 2.7 4 2.7 6.5v13.8c0 2.5-0.9 4.7-2.7 6.5-1.8 1.8-4 2.7-6.5 2.7 2.5 0 4.7 0.9 6.5 2.7 1.8 1.8 2.7 0.2 2.7 2.8v26.5zM752.6 589v-13h-27.5v13h27.5zM826.9 576h-19.7v51.5h-13.8V576h-21.6v-12.8h55.1V576zM887.5 618.3c0 2.5-0.9 4.7-2.7 6.5-1.8 1.8-4 2.7-6.5 2.7h-45.9v-12.8h41.3v-13h-32.1c-2.5 0-4.7-0.9-6.5-2.7-1.8-1.8-2.7-4-2.7-6.5v-20.2c0-2.5 0.9-4.7 2.7-6.5 1.8-1.8 4-2.7 6.5-2.7h93.7L929 576h-82.8v13h32.1c2.5 0 4.7 0.9 6.5 2.7 1.8 1.8 2.7 4 2.7 6.5v20.1z" p-id="2858"></path><path d="M400.1 591h55.3v8.7h-55.3z" p-id="2859"></path></svg>