<?xml version="1.0" standalone="no"?><!DOCTYPE svg PUBLIC "-//W3C//DTD SVG 1.1//EN" "http://www.w3.org/Graphics/SVG/1.1/DTD/svg11.dtd"><svg t="1574845332131" class="icon" viewBox="0 0 1024 1024" version="1.1" xmlns="http://www.w3.org/2000/svg" p-id="1772" xmlns:xlink="http://www.w3.org/1999/xlink" width="200" height="200"><defs><style type="text/css"></style></defs><path d="M168.8 401.3c0.3 0.3 0.5 0.6 0.8 0.9l29.4 29.4c4.1 4.1 7.3 8.7 9.5 14 0.2 0.5 0.7 1.1 1.2 1.3 6.8 3.3 12.7 7.7 17.8 13.3 7.6 8.4 12.4 18.1 14.2 29.3 2.5 16.1-0.9 30.7-10.6 43.9-1.7 2.3-3.6 4.5-5.6 6.5-18.7 18.8-37.4 37.5-56.1 56.2l-0.8 0.8-36.7-36.4-36.6 36.6c-0.3-0.3-0.6-0.5-0.9-0.8-18.8-18.8-37.6-37.5-56.3-56.4-8.7-8.8-14.2-19.3-16.1-31.5-2.5-16 1-30.6 10.7-43.7 1.7-2.3 3.5-4.4 5.5-6.4L94 402.5c0.3-0.3 0.6-0.7 0.9-1.1h0.7c0.3 0.3 0.6 0.7 0.9 1l22.5 22.5c0.3 0.3 0.6 0.6 1 1.1-0.5 0.4-1 0.7-1.4 1.1-18.2 18.2-36.4 36.3-54.5 54.5-0.7 0.7-1.4 1.4-2 2.1-4.5 5-6.4 10.9-5.9 17.5 0.5 5.5 2.8 10.2 6.7 14.2l31.4 31.4c0.3 0.3 0.5 0.7 0.7 1.1 0.5-0.5 0.8-0.8 1.1-1 10.4-10.4 20.9-20.8 31.3-31.3 6.3-6.4 8.2-14 6.1-22.6-0.4-1.7-1.3-3.4-2.1-5.4l-36.2 36.2c-0.2-0.1-0.3-0.3-0.5-0.5-6.7-6.6-13.3-13.3-19.9-20-0.3-0.3-0.6-0.7-0.8-1-1.6-2.5-1.2-5.3 1.1-7.6l92.4-92.4c0.3-0.3 0.6-0.6 0.9-1h0.4z m35.9 86.6L157 535.6l11.7 11.7c0.1-0.1 0.4-0.3 0.6-0.6l32.1-32.1c6.8-6.7 8.2-18.4 3.3-26.7z m-39.5-10.3c3.3-3.3 6.7-6.4 9.8-9.8 3-3.2 2.6-8.3-0.5-11.4-3.1-3.1-8.1-3.3-11.4-0.3-2.3 2.1-4.4 4.4-6.6 6.6 3.6 4.5 6.5 9.5 8.7 14.9zM915.9 486.4c-0.3-6.9-0.6-13.2-0.7-19.5-0.1-13.1 0-26.3-0.1-39.4 0-2.3 0.7-2.9 2.9-2.9 7.3 0.1 7.3 0 7.3 7.3 0 22.4 0 44.8 0.1 67.2 0 2.5-0.8 2.9-3.2 3.2-5.7 0.8-8.8-1.5-11.6-6.3-10.3-17.4-21.1-34.6-31.6-51.8-0.8-1.3-1.5-2.8-2.2-4.2v13.2c0 15.5 0 30.9 0.1 46.4 0 2-0.5 2.7-2.6 2.7-7.6 0.1-7.6 0.1-7.6-7.6 0-22.3 0-44.6-0.1-66.9 0-2.4 0.7-2.9 3.1-3.3 6.3-0.9 9.8 1.6 13 7 9.6 16.3 19.8 32.2 29.7 48.3 1.3 2 2.2 4.1 3.5 6.6zM495.4 460.1c3.2 2.5 7.2 4.5 9.8 7.7 8.4 10.4 4.2 25.9-8.1 31.3-8.5 3.8-17.6 3.8-26.7 3.5-2.8-0.1-5.5-0.5-8.3-0.7-1.6-0.1-2.1-0.9-2.1-2.4v-71.8c0-1.5 0.5-2.1 1.9-2.3 10.1-1.5 20.2-2.5 30.2 0.3 6.4 1.8 11.5 5.6 13.6 12.3 2.5 7.9-0.5 15.6-7.4 20.2-1.1 0.9-2.4 1.6-2.9 1.9z m-24.5 5.2v29.1c4.9-0.2 9.7-0.1 14.3-0.8 8.2-1.2 13.2-6.8 13-13.9-0.2-7.2-5.1-12.4-13.2-13.5-4.5-0.6-9.2-0.6-14.1-0.9z m-0.1-8.4c4.2 0 8.3 0.3 12.3-0.1 2.5-0.3 5-1.3 7.3-2.5 4.5-2.5 5.8-6.9 5.2-11.7-0.6-4.6-3.4-7.4-7.7-8.7-5.6-1.7-11.2-1.6-17-0.5-0.1 7.8-0.1 15.5-0.1 23.5zM637.4 460.1c3.2 2.5 7.3 4.6 9.8 7.8 8.3 10.3 4.2 25.7-7.9 31.2-5.9 2.7-12.2 3.4-18.6 3.6-5 0.2-10.1-0.3-15.1-0.4-2.5-0.1-3.7-0.8-3.7-3.8 0.2-23.3 0.1-46.6 0.1-69.9 0-1.5-0.1-2.8 2-3.1 10-1.4 20-2.4 29.9 0.3 6.5 1.8 11.7 5.6 13.8 12.4 2.4 7.9-0.5 15.6-7.4 20.2-1.1 0.7-2.2 1.3-2.9 1.7z m-24.6 33.7c6.7 0.9 13.2 0.9 19.4-1.7 5.3-2.2 7.9-6.5 7.9-12 0.1-5.2-2.1-9.4-6.9-11.9-6.5-3.4-13.5-2.6-20.5-2.6 0.1 9.5 0.1 18.6 0.1 28.2z m0.1-36.4c5.1-0.3 9.9-0.2 14.5-1 6.4-1.1 10.2-5.7 10.3-11.3 0.1-6.3-2.8-10.1-9.3-11.6-5.1-1.2-10.3-1.1-15.5-0.1v24zM447.7 463c0 9.6-2 18.6-7.8 26.4-8.1 10.9-19.2 14.9-32.5 13.7-7.3-0.7-13.7-3.5-19-8.5-5.7-5.3-9.2-11.9-10.7-19.5-2.3-11.3-1.6-22.3 3.8-32.7 6.9-13.4 20.9-20.3 35.8-18.5 16.4 2 27.2 14.5 29.6 30.3 0.5 2.9 0.6 5.8 0.8 8.8z m-11.4 0.4c0-6.9-1.4-13.5-4.9-19.6-7.9-13.6-26.1-15.3-36.2-3.3-4.2 5-6.1 11.1-6.8 17.5-1 8.8-0.1 17.4 4.6 25.2 8.2 13.5 26.1 15.2 36 3.3 5.5-6.7 7.2-14.7 7.3-23.1zM990.3 469.9c-4.7 0-9-0.1-13.4 0-1.8 0-2.4-0.6-2.3-2.3 0.2-7.8-1-6.3 6.3-6.4 5.8-0.1 11.5 0 17.3 0 1.9 0 2.8 0.4 2.7 2.5-0.1 11.1 0 22.1-0.1 33.2 0 0.9-0.8 2.4-1.5 2.7-12.4 4.1-25.1 5.7-37.8 1.6-13.7-4.4-21.2-14.5-23.6-28.4-2-11.6-0.7-22.8 6.3-32.7 6.7-9.5 16.2-14.4 27.5-16 8-1.1 15.9-0.4 23.7 2 2.5 0.8 3.5 1.7 2.4 4.4-0.8 1.8-1.2 3.7-1.6 5.2-4.9-0.9-9.4-2.2-14-2.6-10.2-0.9-19.5 1.3-26.6 9.3-5.2 5.8-6.9 12.8-7 20.4-0.1 8.3 1.5 16.1 7.1 22.6 5.1 6 12.1 8.6 19.8 9 4.3 0.2 8.6-0.6 12.8-1.1 0.8-0.1 2-1.2 2-1.9 0.1-7.2 0-14.2 0-21.5zM313.2 435.5c-5.4-1-10.3-2.3-15.2-2.6-11.9-0.7-23.5 3.3-28.8 14.3-5.9 12.4-5.5 24.9 2.3 36.5 4.9 7.2 12.5 10 20.9 10.4 4.3 0.2 8.6-0.6 12.8-1.1 1.2-0.1 2.1-0.6 2-2.2-0.1-6.8 0-13.7 0-20.9h-12.1c-3.5 0-3.6 0-3.5-3.5 0-6.1-0.7-5.2 5.3-5.3 6.1 0 12.2 0.1 18.4 0 2 0 2.6 0.7 2.6 2.7-0.1 11 0 21.9-0.1 32.9 0 1-0.8 2.6-1.6 2.8-12.5 4.1-25.2 5.7-38 1.5-13.5-4.5-20.9-14.5-23.2-28.1-2-11.7-0.7-22.9 6.4-32.9 6.7-9.4 16.1-14.3 27.3-15.9 8.2-1.1 16.3-0.4 24.2 2.1 2.4 0.7 3 1.8 2 4.1-0.9 1.7-1.3 3.7-1.7 5.2zM563.8 433.8h-31.4v23.3h13.5c4.5 0 9 0.1 13.5 0 2.1-0.1 2.8 0.6 2.8 2.7 0 6.4 0.1 6.4-6.3 6.4h-23.4v27h2.8c9.3 0 18.5 0.1 27.8 0 2 0 2.6 0.6 2.6 2.6 0 6.6 0.1 6.6-6.4 6.6-11.6 0-23.2-0.1-34.8 0-2.2 0-2.9-0.6-2.9-2.9 0.1-24 0.1-48.1 0-72.1 0-2.2 0.7-2.9 2.9-2.9 12.2 0.1 24.5 0.1 36.7 0 2.2 0 2.9 0.7 2.7 2.8-0.2 2-0.1 4.1-0.1 6.5zM674.4 433.8v23.3h2.9c8.1 0 16.2 0.1 24.3 0 2 0 2.6 0.7 2.6 2.6 0 6.5 0.1 6.5-6.2 6.5h-23.6v27h2.8c9.2 0 18.4 0.1 27.5 0 2.1 0 3 0.4 3 2.8-0.1 6.4 0 6.4-6.4 6.4-11.7 0-23.4-0.1-35.1 0-2.2 0-2.7-0.7-2.7-2.8 0.1-24.1 0.1-48.2 0-72.4 0-2.2 0.7-2.7 2.8-2.7 12.3 0.1 24.7 0.1 37 0 1.8 0 2.5 0.4 2.5 2.4 0.1 6.8 0.2 6.8-6.7 6.8-8 0.1-16.2 0.1-24.7 0.1zM746.7 434v3.2c0 20.7 0 41.4 0.1 62 0 2.4-0.7 3.1-3 3-7.7-0.1-7.7 0-7.7-7.7v-56.9-3.6h-23.3c0-2.9-0.2-5.5 0.1-8 0.1-0.5 1.7-1.3 2.6-1.3 9.5-0.1 19.1-0.1 28.6-0.1 7.9 0 15.8 0.1 23.7 0 2 0 2.7 0.5 2.7 2.6 0 6.8 0.1 6.8-6.6 6.8h-17.2zM797 434c-7 0-13.5-0.1-20.1 0.1-2.6 0.1-3.4-0.6-3.3-3.3 0.2-6.1 0.1-6.1 6.1-6.1 16.2 0 32.4 0.1 48.6-0.1 2.6 0 3.2 0.8 3.1 3.2-0.1 6.1 0 6.1-6.1 6.1h-17.6v65.3c0 2.2-0.5 3-2.8 2.9-7.9 0-7.9 0-7.9-7.8v-56.9-3.4zM375.6 493.1v9.1c-0.8 0.1-1.5 0.2-2.2 0.2-12.9 0-25.7 0-38.6 0.1-2.1 0-2.8-0.5-2.8-2.7 0.1-24.1 0.1-48.2 0-72.3 0-2.2 0.8-2.8 2.8-2.7 2.5 0.2 5.9-0.7 7.2 0.6 1.3 1.3 0.7 4.7 0.7 7.2v60.6c11-0.1 21.8-0.1 32.9-0.1zM849.8 463.8v35.6c0 2.2-0.5 3.2-2.8 2.9-1.7-0.2-3.4-0.2-5.1 0-2.4 0.2-2.8-0.8-2.8-3 0.1-19 0-38 0-56.9 0-5.1 0.1-10.3 0-15.4 0-1.7 0.5-2.5 2.3-2.4 2 0.1 4 0.1 5.9 0 2.1-0.2 2.6 0.7 2.5 2.7v36.5zM708.3 540.3v30.6c0 1-0.3 2.7-0.7 2.8-1.4 0.4-3 0.2-4.5 0-0.3 0-0.6-1.2-0.6-1.8 0-13.3 0-26.6-0.1-39.9 0-1.5 0.6-1.9 2.1-2.1 2.9-0.3 4.9 0.5 6.5 3.3 5.7 9.8 11.8 19.5 17.8 29.3 0.1-0.5 0.2-1 0.2-1.5 0-9.4 0.1-18.9-0.1-28.3-0.1-2.6 1.2-2.6 3.1-2.7 2-0.1 2.9 0.4 2.8 2.7-0.1 12.7 0 25.4-0.1 38 0 1.1-0.7 3.2-1.1 3.2-2.1 0.1-4.5 1.2-6-1.5-3.1-5.3-6.3-10.4-9.5-15.6-3.4-5.6-6.7-11.2-9.8-16.5zM336.9 552.3v-19.4c0-1.6 0.4-2.8 2.1-2.8 5.7 0 11.6-0.7 17.1 0.2 9.7 1.6 15.6 9.2 15.7 19.3 0 3.4-0.4 7-1.3 10.3-2.5 8.7-8.9 13.2-17.7 14.2-4.3 0.5-8.8 0-13.1 0.2-2.5 0.1-2.8-1-2.8-3.1 0.1-6.3 0-12.6 0-18.9z m6.4 16.5c6.6 2 15.2-0.6 18.8-5.7 4.3-5.9 4.2-17 0-22.9-3.4-4.7-11.9-6.8-18.8-4.6v33.2zM740.2 552.9c0.3-8.1 2.2-15.1 8.8-19.8 11.9-8.5 27.8-1.6 30.1 13 0.8 5.3 0.6 10.6-1.2 15.6-3.1 8.6-11.4 13.9-20.2 12.9-8.9-1-15.6-7.7-17-16.8-0.2-1.8-0.3-3.6-0.5-4.9z m33.1 0.7c-0.5-6.1-1.3-10.3-3.9-14-4.5-6.2-14.2-6.4-18.8-0.2-4.7 6.5-5.1 17.4-0.7 24.2 4.9 7.5 15.4 7.6 19.8 0 2.1-3.5 2.8-7.7 3.6-10zM809.9 552.9c0.3-8.1 2.2-15.1 8.8-19.8 12-8.5 27.8-1.6 30.1 13 0.8 5.3 0.6 10.6-1.2 15.6-3.1 8.6-11.4 13.9-20.2 12.9-8.9-1-15.6-7.7-16.9-16.9-0.3-1.7-0.5-3.5-0.6-4.8z m6.3 1.3c0.9 2.3 1.8 6.5 3.9 10 4.1 6.8 14.3 6.7 18.9 0.2 4.8-6.9 4.9-17.5 0.2-24.4-4.6-6.8-14.4-6.8-19.2-0.1-2.7 3.7-3.2 8-3.8 14.3zM687.4 553.7h-19.1v2.9c0 5.1-0.1 10.3 0 15.4 0.1 2.5-1.5 2.2-3 2.1-1.5-0.1-3.3 0.7-3.3-2.1 0.1-13.3 0.1-26.6 0-39.9 0-3.1 2.2-1.8 3.7-2 1.6-0.2 2.8 0.1 2.7 2.2-0.1 4.2 0 8.5 0 12.7 0 0.9 0.1 1.8 0.1 2.8h19c0-5 0.1-9.9-0.1-14.8-0.1-2.6 1.1-2.9 3.2-2.9s3.2 0.2 3.2 2.9c-0.1 12.9-0.1 25.7 0 38.6 0 2.7-1.3 2.8-3.3 2.8-1.9 0-3.2-0.1-3.1-2.7 0.1-6.1 0-11.9 0-18zM423 537c-4.6-2-9.2-2.5-13.8-1.5-9.3 2-12.4 9.1-12.2 17.1 0.2 6.6 2.4 12.3 9 15.2 3.9 1.7 7.9 1.5 11.9 0.8 0.6-0.1 1.5-1.2 1.6-1.9 0.2-3.5 0.1-7 0.1-11-2.2 0-4.3-0.1-6.4 0-2.2 0.2-2.2-1.1-2.2-2.7 0-1.7 0.2-2.7 2.3-2.6 3.5 0.1 7 0.1 10.5 0 1.4 0 1.9 0.5 1.9 1.9 0 6.1 0 12.2-0.1 18.3 0 0.7-0.7 1.7-1.4 1.9-7.8 2.5-15.6 3.3-23.3-0.5-8.4-4.2-11.3-13.9-10.4-22.2 1.8-18.1 18.6-23.2 32-19 1.7 0.5 2.1 1.3 1.4 3-0.4 0.9-0.6 2-0.9 3.2zM885.2 537c-4.5-2-9.2-2.5-13.8-1.5-9.4 2-12.5 9.1-12.3 17.1 0.2 6.6 2.3 12.3 9 15.2 4 1.7 8.1 1.5 12.2 0.8 0.6-0.1 1.3-1 1.4-1.6 0.1-3.7 0.1-7.3 0.1-11.3-2.4 0-4.5-0.1-6.7 0-2.1 0.1-2-1.3-2-2.7 0-1.4-0.2-2.7 2-2.7 3.6 0.1 7.2 0.1 10.8 0 1.3 0 2 0.4 2 1.8 0 6.1 0 12.2-0.1 18.3 0 0.7-0.7 1.8-1.3 2-7.7 2.5-15.4 3.3-23-0.3-8.8-4.2-11.6-14.3-10.7-22.6 1.9-17.8 18.5-23 32-18.8 1.6 0.5 2.2 1.3 1.5 2.9-0.5 1.1-0.7 2.2-1.1 3.4zM506.5 574.1c-2 0-3.7 0.2-5.4-0.1-0.7-0.1-1.4-1.2-1.7-2-1.2-3.2-2.1-6.5-3.3-9.6-0.3-0.7-1.4-1.6-2.2-1.6-3.6-0.2-7.2-0.2-10.8 0-0.8 0-1.9 0.9-2.2 1.6-1.1 2.8-2 5.7-2.8 8.7-0.6 2.4-1.7 3.6-4.3 3.1-0.9-0.2-1.7-0.1-2.9-0.1 0.1-0.9 0.1-1.6 0.3-2.2 4.3-13.2 8.8-26.5 13-39.7 0.7-2.2 2-2.2 3.7-2 1.8 0.2 3.9-1 4.9 1.9 4.3 13.4 8.8 26.8 13.3 40.2 0.2 0.2 0.3 0.7 0.4 1.8z m-17.9-36.4c-2 6.2-3.7 11.8-5.5 17.5h11.1c-1.9-5.8-3.6-11.3-5.6-17.5zM602 535.5v12.7h15.7c0.2 0.4 0.3 0.6 0.4 0.7 0.2 4.6 0.2 4.6-4.3 4.6H602v15h17.3c0.2 0.6 0.4 0.8 0.4 1 0.2 4.5 0.2 4.5-4.4 4.5-5.8 0-11.5-0.1-17.3 0-2.1 0-2.6-0.7-2.6-2.7 0.1-12.9 0.1-25.9 0-38.8 0-1.9 0.4-2.7 2.5-2.7 6.2 0.1 12.4 0.1 18.6 0 2.1 0 2.5 0.8 2.5 2.7 0 2-0.4 3-2.7 2.9-4.5 0-9.3 0.1-14.3 0.1zM654.7 536.8c-9-3.3-16.5-1.9-21.1 3.9-4.3 5.4-4.5 16.2-0.4 22.4 3.9 5.9 11 7.3 21.7 4.3 0.4 1.2 0.9 2.4 1 3.5 0 0.7-0.7 1.9-1.3 2.1-8.1 2.5-16.1 2.8-23-2.7-7-5.4-8.6-13.2-7.5-21.6 1.2-9.4 6.2-16.2 15.6-18.4 4.1-1 8.7-0.6 13-0.1 3.8 0.4 3.9 1 2.8 4.6-0.3 0.7-0.5 1.3-0.8 2zM891.4 530.7c4-1.8 6.6-1 8.4 2.6 2.7 5.5 5.4 11.1 8.2 16.7 2.8-5.5 5.6-11 8.3-16.5 1.9-3.8 3.8-4.4 8.4-2.8-1.4 2.6-2.8 5.2-4.2 7.7-2.3 4.1-4.5 8.4-7.1 12.3-2.1 3.2-2.8 6.4-2.6 10.1 0.2 3.7-0.1 7.4 0.1 11 0.1 2.7-1.6 2.2-3.2 2.3-1.6 0-3 0.3-3.2-2.3-0.5-6.6 1.8-13.4-1.7-19.8-3.2-5.9-6.3-11.8-9.5-17.8-0.6-1.1-1.3-2.3-1.9-3.5zM461.5 535.7V563c0 2.9-0.1 5.8 0 8.6 0.2 2.9-1.7 2.3-3.3 2.4-1.7 0.1-3.1 0.1-3.1-2.4 0.1-11.3 0.1-22.7 0-34 0-0.5-0.1-1-0.1-1.9-3.4 0-6.7-0.1-10 0-2.2 0.1-2.7-0.9-2.7-2.9 0-1.9 0.2-3 2.6-3 8.9 0.1 17.8 0.1 26.7 0 2.4 0 2.5 1.2 2.5 3s-0.2 2.9-2.4 2.8c-3.2 0-6.5 0.1-10.2 0.1zM572.4 535.7c-3.7 0-7-0.1-10.3 0-2.5 0.1-2.4-1.3-2.5-3.1 0-1.9 0.4-2.8 2.5-2.8 9 0.1 18 0.1 27 0 2.3 0 2.3 1.3 2.3 2.9 0 1.7-0.1 3-2.4 2.9-3.3-0.1-6.6 0-10.4 0v3c0 10.8-0.1 21.6 0.1 32.4 0 2.7-1 3-3.3 3.1-2.3 0-3.2-0.5-3.1-3 0.1-10.7 0.1-21.4 0.1-32.1v-3.3zM518.2 568.6h17.5c0.2 0.5 0.4 0.7 0.4 1 0.2 4.5 0.2 4.5-4.4 4.5-5.7 0-11.5-0.1-17.2 0-2 0-2.6-0.6-2.6-2.6 0.1-12.9 0.1-25.9 0-38.8 0-2.8 1.3-2.8 3.3-2.8 1.9 0 3.2 0.1 3.1 2.7-0.1 10.9-0.1 21.7-0.1 32.6v3.4zM792.5 568.6h17.4c0.3 0.4 0.4 0.5 0.4 0.6 0.5 4.9 0.5 4.9-4.5 4.9-5.7 0-11.3-0.1-17 0-1.9 0-2.7-0.4-2.7-2.5 0.1-13 0.1-26 0-39.1 0-2.7 1.4-2.6 3.2-2.6 1.8 0 3.2-0.1 3.2 2.6-0.1 11-0.1 21.9-0.1 32.9 0.1 1 0.1 1.9 0.1 3.2zM384.2 552.2c0 6.5-0.1 13 0.1 19.4 0.1 2.5-1.2 2.6-3 2.5-1.6-0.1-3.4 0.5-3.4-2.4 0.1-13.1 0.1-26.3 0-39.4 0-2.9 1.8-2.2 3.4-2.3 1.8-0.1 3.1 0 3 2.5-0.2 6.5-0.1 13.1-0.1 19.7zM439.3 552c0 6.5-0.1 13 0.1 19.4 0.1 2.6-1.2 2.7-3.1 2.6-1.8-0.1-3.3 0.3-3.3-2.5 0.1-13 0.1-26.1 0-39.1 0-2.8 1.5-2.4 3.3-2.5 1.9-0.1 3.2 0 3.1 2.6-0.2 6.6-0.1 13.1-0.1 19.5z" p-id="1773"></path></svg>