<?xml version="1.0" standalone="no"?><!DOCTYPE svg PUBLIC "-//W3C//DTD SVG 1.1//EN" "http://www.w3.org/Graphics/SVG/1.1/DTD/svg11.dtd"><svg t="1575013546992" class="icon" viewBox="0 0 1024 1024" version="1.1" xmlns="http://www.w3.org/2000/svg" p-id="8936" xmlns:xlink="http://www.w3.org/1999/xlink" width="200" height="200"><defs><style type="text/css"></style></defs><path d="M203 343.6c-9.6 47.2-19.1 94.2-28.7 141.8 2.1 0.1 3.6 0.3 5 0.3 25 0 50-0.1 75 0.1 4.2 0 5.7-1.4 6.5-5.5 8.1-41.3 16.6-82.6 24.8-123.9 0.8-4 2.5-5.2 6.4-5.2 34.1 0.1 68.3 0.1 102.4 0.2 7 0 7 0 5.6 6.9-6.8 33.8-13.6 67.7-20.4 101.5-12.9 64.2-25.8 128.5-38.8 192.7-3 14.8-0.3 12-14.8 12.1-31.9 0.2-63.7 0-95.6 0-6.4 0-6.5-0.2-5.2-6.5 10.1-50.4 20.2-100.7 30.3-151.1 0.1-0.4 0-0.9 0-2.1-1 1.4-1.8 2.2-2.3 3.1-6.4 10.2-12.8 20.4-19 30.7-2 3.4-4.5 4.8-8.5 4.8-18.7-0.2-37.5 0-56.2-0.4-4.5-0.1-6.1 1.6-6.9 5.7-4.8 25.2-9.9 50.4-14.7 75.7-0.9 4.7-2.5 6.5-7.6 6.5-34.3-0.3-68.6-0.2-102.9-0.2-6.3 0-6.6-0.4-5.3-6.5 5.2-25.2 10.4-50.3 15.5-75.5 0.3-1.6 0.4-3.3 0.7-5.7H27.5c-8.4 0-8.4 0-6.7-8.1 3-15 6.2-30.1 9.1-45.2 0.8-4.4 2.8-6.2 7.3-5.9 5.3 0.3 10.7-0.2 16 0.1 3.6 0.2 5.1-1.2 5.8-4.7 5.4-27.6 11-55.1 16.5-82.7 3.1-15.8 6.3-31.6 9.2-47.4 0.8-4.3 2.9-6.1 7.4-6.1 35.7 0.1 71.3 0 107 0 1.1 0 2.1 0.2 3.9 0.5zM594.5 431.7c-7.2-2.6-13.7-5.6-20.6-7.2-32.6-7.8-66.1 8.2-80.2 37.9-14.6 30.5-6.4 66.4 20.6 86.9 19.7 15 41.7 19.1 65.5 10.7 12-4.2 12-4.1 18.7 6.6 13.1 21.1 26.2 42.1 39.3 63.2 3.1 5 3 4.9-2.2 7.7-27.3 14.7-56.5 21.6-87.5 19.7-83.6-5.2-139.7-67.8-151.9-133.3-13.7-73.3 23-140.2 77.7-171.7 51.3-29.5 104.4-30.8 157.9-5.3 5.5 2.6 5.5 2.8 2.3 7.8-4.4 6.7-5.4 14-2.9 21.4 4.7 13.8-1.9 30-18.7 34.5-8.7 2.3-14.2 8.5-16.6 17.3-0.5 1.2-1 2.4-1.4 3.8zM1001 574.4v80.9H659.8v-80.9H1001z m-110.6 47.4c8.8-2.1 12.9-6.5 11.8-14.9-0.4-3-0.1-6.1-0.1-9.1 0-4.3-4.9-11.3-9-11.5-7.5-0.4-15.1-0.1-22.6-0.1v59h6.9v-51.8c4.4 0 8.2-0.1 12 0 4 0.1 6.1 2.3 6.2 6.2 0.1 2.9-0.1 5.8 0.1 8.7 0.3 4.5-2.2 5.9-6.1 6-2.4 0.1-4.8 0-7.9 0 0.5 3.6 0.3 6.7 1.4 9.4 2.5 6.5 5.6 12.8 8.6 19.1 0.5 1.1 2 2.4 3.1 2.5 3.6 0.3 7.2 0.1 10.8 0.1v-6.5c-3.1-0.8-6.9-0.7-8.1-2.5-2.9-4.5-4.8-9.7-7.1-14.6z m99.4-35.1h-23.2c-7.8 0-12.1 4.3-12.1 12.2v7.3c0 8.4 3.3 11.9 11.9 12.3 3.8 0.2 7.6 0.3 11.4 0.3 3.3 0.1 5.1 1.5 5 5-0.1 2.6 0.1 5.2 0.1 7.8 0 5.3-1.2 6.5-6.3 6.5h-21.8v6.3c9.3 0 18.4 0.1 27.5-0.1 1.1 0 2.2-1.2 3.2-2.1 5.1-4.4 4.4-10.4 4.7-16.4 0.2-5-0.8-9.5-5.3-11.5-3.4-1.6-7.7-1.9-11.6-1.9-13.1 0-12.6 0.1-12.5-12.4 0.1-6 0.8-6.7 7-6.7h22v-6.6z m-244.6 57.7h22.5c8.3 0 12.8-4.6 12.8-13.1v-7.8c0-6.4-4.8-11.2-11.3-11.2h-5.9c-12.3 0.2-12.1 0.2-12-12 0.1-6.5 0.6-7.1 7-7.1h21.8v-5.9c-0.5-0.3-0.7-0.5-1-0.5-7.2-0.1-14.3-0.1-21.5-0.1-8.7 0-12.6 3.8-12.6 12.5 0 3-0.3 6.1 0.1 9.1 0.3 2.1 1.2 4.2 2.3 6 3.1 5.5 8.7 4.1 13.5 4.2 14.1 0.4 12.3-0.4 12.5 13.3 0.1 4.7-1.5 6.1-6.3 6.1h-21.8c-0.1 2.5-0.1 4.3-0.1 6.5z m47.6-25.6c3.7 0 6.7-0.3 9.7 0.1 6.8 0.9 11.7-1.6 16.2-6.7 7.3-8.1 3.9-23.2-7-25.1-7.9-1.4-16.3-0.3-24.3-0.3v57.4h5.3v-12.4c0.1-4.1 0.1-8.2 0.1-13z m-87.3-32c-7.4 0-14.4-0.1-21.4 0.1-1.4 0-2.9 1.4-4.1 2.3-6.5 4.7-9.5 10.7-8.4 19.1 0.8 5.8 0.6 11.9 0 17.8-0.6 6.3 1.1 11.2 6.3 14.9 2.1 1.5 3.8 4.6 5.8 4.8 7.2 0.6 14.5 0.2 21.8 0.2v-6.9c-0.6-0.2-1-0.5-1.4-0.5-5-0.1-10-0.1-15.1-0.1-6.3 0-10.1-3.7-10.2-9.9v-25.5c0-5 4.7-9.6 9.8-9.6h16.9v-6.7z m123.9 31.5c0 5.3-1.8 11.5 0.4 15.3 3.9 6.4 8.5 13.8 18.8 11.8 4.6-0.9 14.6-7.8 15-12.4 0.4-4.8 0.1-9.6 0.1-14.7h-6.2c0 2.5-0.3 5 0.1 7.3 1 5.7-2.5 9.4-6.4 11.5-2.8 1.5-7.9 1-10.8-0.6-3.9-2.2-6.2-6.5-5.2-11.7 0.4-2 0.1-4.2 0.1-6.5h-5.9z m34.3-5.5c0-3.1-0.4-5.8 0.1-8.3 1.5-8.1-4.8-12.1-9.4-16.5-1.9-1.9-6-1.7-9.2-1.9-2.4-0.1-5.6-0.2-7.3 1.1-8.7 6.4-10.9 15.3-8.2 25.6h5.2c0.1-8.6-1.5-18.1 10.6-19.7 2.1-0.3 4.8 0 6.5 1.1 6.8 4.4 5.7 11.7 5.5 18.7 2.2-0.1 3.9-0.1 6.2-0.1z m63.4 0h6.5v-19.9h13.8v-5.8h-34.6c0.1 2.1 0.2 3.8 0.4 6h13.9v19.7z m0.2 6v26.6h6.1v-26.6h-6.1z m-224.4-3.7c-5.5-3-10.2-5.5-15.3-8.2v17.4c5.2-3.1 9.8-5.9 15.3-9.2z m31.2 4.2v-5.8h-19.6l-1.1 1.1c1.1 1.6 2.1 4.4 3.3 4.5 5.7 0.5 11.5 0.2 17.4 0.2z" p-id="8937"></path><path d="M652.2 470.3c-7.9 0.6-9.9-0.7-12.4-8.2-2-6-3.5-7.2-10.2-7.8-7.7-0.7-9.5-2.1-10.9-9.6-0.8-3.9-1.3-7.8-1.6-11.7-0.3-5.7 1.8-9.1 7.3-10.6 6.5-1.7 9.3-5.3 9.2-12-0.1-5.5 2.3-8.1 7.7-9.2 4.8-1 9.6-1.6 14.4-2.1 4.7-0.5 8.4 2.1 9.6 7.3 1.5 6.6 5.1 9.3 11.9 9.3 6.3 0 8.2 2 9.6 8.2 0.9 3.8 1.6 7.8 2 11.7 0.7 6.3-1.7 9.9-7.6 11.7-7.5 2.4-8.9 4.2-9.2 12-0.3 6.5-2.2 8.7-8.5 9.7-2 0.3-3.9 0.6-5.9 0.9-1.8 0.1-3.6 0.2-5.4 0.4zM721.2 470.9c-11.2 0-19.2-8.2-19.1-19.4 0.1-10.2 9.1-19 19.1-18.8 10.6 0.2 19.4 8.8 19.3 19-0.1 11.3-8.1 19.3-19.3 19.2zM700.1 415.8c-4.9 0.2-6.5-2-4.4-6.4 5.1-10.9 10.3-21.7 15.6-32.4 2.4-4.8 4.9-4.9 8-0.4 6.7 9.7 13.4 19.6 19.9 29.5 2.9 4.4 1.7 6.8-3.6 7.3-11.8 0.9-23.7 1.6-35.5 2.4zM664.1 389c-5.7 0.5-7-0.4-7.9-6-0.9-5.7-1.8-11.4-2.5-17.1-0.7-6.7 0.8-8.4 7.4-9.2 5.4-0.7 10.8-1.5 16.3-2.2 5.3-0.7 7.5 0.7 8.2 5.9 1 6.3 1.7 12.6 2.6 18.9 0.6 4-1.1 6.4-5.2 7-3.2 0.5-6.3 1-9.5 1.4-3.1 0.5-6.3 0.9-9.4 1.3z" p-id="8938"></path><path d="M793.2 594v17.8c5.1 0 9.8 0.1 14.5 0 3.2-0.1 7.7-5.4 7.8-8.8 0.1-3.6-3.4-8.6-6.9-8.9-5.1-0.3-10.2-0.1-15.4-0.1z" p-id="8939"></path><path d="M793.2 594c5.2 0 10.3-0.3 15.5 0.1 3.5 0.2 7 5.2 6.9 8.9-0.1 3.4-4.6 8.7-7.8 8.8-4.7 0.1-9.4 0-14.5 0-0.1-5.9-0.1-11.6-0.1-17.8z" p-id="8940"></path></svg>