<?xml version="1.0" encoding="utf-8"?>
<!-- Generator: Adobe Illustrator 24.1.1, SVG Export Plug-In . SVG Version: 6.00 Build 0)  -->
<svg version="1.1" id="圖層_1" xmlns="http://www.w3.org/2000/svg" xmlns:xlink="http://www.w3.org/1999/xlink" x="0px" y="0px"
	 viewBox="0 0 200 200" style="enable-background:new 0 0 200 200;" xml:space="preserve">
<g>
	<path d="M43.4,57.4L21,85.1h22.9L44,144l13.3-45.7c0,0,25.5,2.8,20.3-21.8c0,0-1.2,11.5-10.2,12.8S54.9,87.1,53,81.7
		c0,0,5.2,6,12.2,3.5c6.9-2.5,7.3-5.8,8.4-12.4c1.1-6.6,1.3-14.3,8.1-15c0,0-8-3.6-13.1,7.6c0,0-1,3.4-1.6,7.1s-3,8.9-8.2,6.3
		c-5.2-2.6-0.7-8.6,3.8-9c0,0-4.6-1.5-7.1,3.3c0,0-1.1-3.6,5-5.4c5.2-1.5,4.9-4.6,4.9-4.6s-0.1-3.4-2.6-4c0,0,1.7,3.1-3.8,4.1
		s-9.3,4.6-10.2,7.5c-1,2.8-2,9,1,14.5c0,0-7.5-4.1-2.2-16.8c0,0-3.1,1.6-4.5,7.1h-4.9L43.4,57.4z"/>
	<path d="M78.3,70.3c0,0-1.3-7.3,5.2-10.8c6.1-3.3,6.6-5.6,6.6-5.6s0.1,5.2-1.3,7.4C85.3,66.5,82.7,64,78.3,70.3z"/>
	<polygon points="5.8,85.2 43.4,57.4 21,85.1 43.9,85.1 44,144 43.1,146.1 29.8,99.6 14.2,99.3 	"/>
	<g>
		<path d="M98.6,86.5h1l2.1,3.4l-2.8,4.6h7l3-4.9l-1.9-3.1h2.3v8.2h8.9v-8.2h2l-1.8,3.3l3,4.9h7.4l-3-4.9l1.9-3.3h1.3v8.2l8.8-3.3
			v-9.3H118l0-0.3l0.5-0.7H118v-1h19.9c0,0,0-2.1,0-3.5c0-1.5-1.1-1.2-1.1-1.2s-44.4,0-46,0c-0.6,0-1.3,0.3-1.3,0.9
			c0,0.7,0,1.4,0,1.4l0,2.5h19.8v1h-0.6l0.6,0.7v0.3H89.4v14.5l9-2L98.6,86.5z"/>
		<path d="M91.5,96.5c-1.9,0-1.9,1.5-1.9,1.5v15.8h39.9l8.5-6.2V96.5C138,96.5,93.9,96.5,91.5,96.5z M99,101.4h9.5v1.2H99V101.4z
			 M108.8,108.5h-9.5v-0.9h9.5V108.5z M128.2,108.5h-9.4v-0.9l5.2,0.1l3.4-3.9c0,0,0.6-1-1-1c-1.6,0-7.5,0-7.5,0v-1.5h9.4V108.5z"/>
	</g>
	<g>
		<polygon points="155.8,87.8 151.6,75.5 142.1,75.5 148.4,94.5 		"/>
		<polygon points="171.4,94.5 171.4,75.5 161.8,75.5 161.8,79.8 161.7,94.5 140.9,113.8 153.3,113.8 167,100.9 181,113.8 
			192.8,113.8 		"/>
		<polygon points="191.6,75.5 181.9,75.5 175.8,94.5 185.4,94.5 		"/>
	</g>
	<g>
		<path d="M188.3,125.6v1.3l3.4-0.1c0,0-0.1,2.4-0.1,3.3c0,0.8-0.7,0.7-0.7,0.7s-3.1,0-4.7,0c-1.6,0-1.5-1.1-1.5-1.1s0-3.8,0-5.9
			c0-1.8,1.1-1.8,1.1-1.8h6.8c1.6,0,1.3-0.7,0.6-1.1c-0.7-0.4-1.1-0.4-1.1-0.4s-4,0-6.9,0s-3,2-3,2s0,4.2,0,6.9s2.7,3,2.7,3h9.2
			v-6.9H188.3z"/>
		<path d="M121.2,127l3.4-0.1c0,0-0.1,2.2-0.1,3s-0.7,1-0.7,1s-3.1,0-4.7,0c-1.6,0-1.5-1.1-1.5-1.1s0-3.8,0-5.9
			c0-1.8,1.1-1.8,1.1-1.8h6.8c1.6,0,1.3-0.7,0.6-1.1c-0.7-0.4-1.1-0.4-1.1-0.4s-4,0-6.9,0c-2.9,0-3,2-3,2s0,4.2,0,6.9s2.7,3,2.7,3
			h9.2v-6.9h-5.9V127z"/>
		<path d="M132.9,120.7l-4.6,11.8h2.4l0.8-2.4h7.1l1,2.4h2.3l-4.8-11.8H132.9z M136.3,128.1c-1.4,0-3.4,0-3.4,0s-0.9,0-0.4-1.3
			c0.6-1.5,1.5-3.7,1.5-3.7s0.3-0.9,0.7-0.9c0.3,0,0.3,0.2,0.6,0.8c0.3,0.6,1.5,3.9,1.5,3.9S137.5,128.1,136.3,128.1z"/>
		<path d="M89.5,123c0,0,3.1,0,3.9,0c0.8,0,0.6,1,0.6,1v8.5h3.9c0,0,0-7.8,0-8.7c0-0.9,0.6-0.8,0.6-0.8h3.8v-2.4H89.5V123z"/>
		<path d="M103.2,132.4h3.9c0,0,0-2.3,0-3.4s0.5-1.1,0.5-1.1h5.8v-2.2c0,0-5.2,0-5.9,0c-0.6,0-0.6-0.5-0.6-0.5s0-0.5,0-1.5
			s0.5-1,0.5-1h6.6v-2.2h-11V132.4z"/>
		<polygon points="151.2,128.4 150.8,128.4 146.1,120.6 143,120.6 143,132.5 145.6,132.5 145.6,124.2 146,124.2 149.9,130.6 
			152,130.6 155.9,124 156.5,124 156.5,132.5 159,132.5 159,120.6 155.7,120.6 		"/>
		<rect x="161.9" y="120.6" width="2.6" height="11.9"/>
		<polygon points="177.1,129.4 169.9,120.6 167,120.6 167,132.5 169.6,132.5 169.6,123.2 176.9,132.5 179.5,132.5 179.5,120.6 
			177.1,120.5 		"/>
	</g>
</g>
</svg>
