<?xml version="1.0" standalone="no"?><!DOCTYPE svg PUBLIC "-//W3C//DTD SVG 1.1//EN" "http://www.w3.org/Graphics/SVG/1.1/DTD/svg11.dtd"><svg t="1574760876818" class="icon" viewBox="0 0 1024 1024" version="1.1" xmlns="http://www.w3.org/2000/svg" p-id="6458" xmlns:xlink="http://www.w3.org/1999/xlink" width="200" height="200"><defs><style type="text/css"></style></defs><path d="M831.1 346.5c-1.8 5.4-4.8 9.5-10.6 10.9-1.3 0.3-2.6 0.4-4 0.4h-87c-9 0-14.6-5.8-14.6-14.8v-28.4c0-9-5.8-14.8-14.7-14.8h-37.8c-8.8 0-14.5 5.7-14.5 14.6 0 9.6 0.2 19.1-0.1 28.7-0.2 6.7 2.6 11.3 8.3 14.7 53.1 31.5 106 63.2 159.1 94.7 10.4 6.2 15.4 15 15.4 27.1-0.1 67.7 0 135.3 0 203 0 25.9-15.7 47.6-39.7 54.5-5.5 1.6-11.4 2.4-17.1 2.4-61.2 0.2-122.3-0.3-183.5 0.3-33.6 0.3-60.4-28.5-60-59.4 0.4-40 0.1-80 0.1-120 0-9.8 5.6-15.3 15.3-15.3h86.2c9.7 0 15.3 5.6 15.3 15.3v40.4c0 9.8 5.4 15.3 15.2 15.3h36.2c9.5 0 15.1-5.7 15.1-15.2 0-15.2-0.1-30.4 0-45.5 0-6.5-2.6-11.2-8.2-14.5-53.3-31.5-106.4-63.2-159.7-94.7-10.4-6.2-15.5-15-15.5-27 0.1-59.3 0.3-118.6-0.1-177.8-0.2-29.6 21.2-52.9 43-58.8 5.4-1.4 11.1-2.4 16.6-2.4 61.1-0.2 122.1-0.1 183.2-0.1 28.7 0 52.3 19.8 57.4 48 0.3 1.5 0.5 3 0.8 4.4-0.1 38-0.1 76-0.1 114zM781.8 819c0-11.1 0-22.1-0.1-33.2 0-2.5 0.8-3.3 3.4-3.3 8.7 0.2 17.5-0.3 26.2 0.3 4.1 0.3 8 2.8 10 6.8 1.7 3.3 1 6.8-1.3 9.8-0.7 0.9-1.7 1.6-2.5 2.3-1.2 1.1-1.8 2.3-0.1 3.3 3.1 1.8 3.8 4.8 4.4 7.9 0.4 2 0.5 4.1 0.8 6.1h-10.7c-0.3-1.9-0.6-3.8-0.9-5.8-0.6-4.6-3.7-7.6-8.4-7.8-2.7-0.1-5.5 0-8.3 0-2.4 0-3.3 1.1-3.2 3.5 0.1 3.4-0.1 6.7-0.1 10.1h-9.2z m18.6-31.5H794c-1.9 0-3 0.9-2.9 3 0.1 2.5 0.1 5 0 7.5 0 1.9 0.9 2.9 2.7 2.9 4.2 0 8.4 0.2 12.6-0.1 3.3-0.2 5.2-2.9 5.1-6.9-0.1-3.8-2.1-6.2-5.4-6.3-2-0.1-3.9-0.1-5.7-0.1zM167.3 819c0.9-1.3 1.9-2.6 2.6-4 5.4-10.4 10.7-20.9 16-31.3 0.3-0.5 1-0.9 1.5-1 0.8-0.2 1.6 0.1 2.4-0.1 5.6-1.1 8.6 1.3 10.8 6.4 3.7 8.2 8 16.1 12.1 24.1 1 2 1.8 4 2.7 6h-11.2c-0.8-6.6-3.6-9.1-9.9-9.1h-3.5c-7.9 0.2-7.3-1.5-10.8 7.1-0.3 0.6-0.4 1.4-0.5 2-4-0.1-8.1-0.1-12.2-0.1z m24.5-13.7c1.2 0 2.6 0.3 3.7-0.1 0.7-0.2 1.7-1.6 1.5-2-1.1-2.6-2.3-5.2-3.8-7.6-0.9-1.5-2.2-1.3-3 0.4-0.6 1.3-1.2 2.6-1.9 3.8-2.7 5.6-2.7 5.6 3.5 5.5zM686.4 819c0.9-2.1 1.7-4.3 2.7-6.3 5.1-9.9 10.2-19.7 15.5-30.1h9.8c0.4 0 1.1 0.6 1.3 1 5 9.6 9.9 19.1 14.7 28.7 1 2.1 1.7 4.3 2.5 6.5h-10.7c-1.2-7-3.6-9.1-10.3-9.1h-3.2c-7.6 0.2-7.1-1.7-10.6 7.1-0.3 0.6-0.3 1.4-0.5 2-3.7 0.2-7.4 0.2-11.2 0.2z m23.3-13.7c1.3 0 2.7 0.3 4-0.1 0.6-0.2 1.5-1.7 1.3-2.2-1-2.5-2.2-4.9-3.6-7.1-1.1-1.8-2.4-1.6-3.3 0.3-0.6 1.3-1.2 2.6-1.9 3.8-2.6 5.4-2.6 5.4 3.5 5.3zM411.1 819c0.9-2.3 1.6-4.8 2.7-7 4.7-9.3 9.5-18.5 14.3-27.7 0.3-0.7 1.1-1.5 1.7-1.5 3.3-0.2 6.6-0.1 9.6-0.1 4.4 8.5 8.7 16.8 13 25.1 1.6 3 3.2 5.9 4.7 8.9 0.3 0.7 0.3 1.6 0.4 2.3h-10.7c-1.1-2.4-2-5-3.3-7.2-0.6-1-2.3-1.8-3.5-1.9-4-0.2-8-0.1-12 0-0.9 0-2.4 0.3-2.6 0.9-1.2 2.7-2.2 5.5-3.2 8.2h-11.1z m23.1-13.6c1.3 0 2.7 0.1 4 0 1.5-0.2 2-1.1 1.3-2.5-1.2-2.4-2.5-4.9-3.8-7.3-0.8-1.5-1.8-1.5-2.6-0.2-0.9 1.4-1.5 3-2.3 4.5-2.9 5.5-2.9 5.5 3.4 5.5zM519.8 819c-0.8-4.1-0.3-4.7 3.9-4.7h18.5c3.5 0 6.4-2.4 6.4-5.1 0-2.6-3-6.4-6.5-6.1-3.8 0.3-7.7-0.1-11.5 0.1-3.4 0.2-6.3-0.8-9.1-2.4-5.6-3.2-5-11.6 0.3-15.6 3.4-2.6 6.7-2.6 10.3-2.6h21.7c1.8 0 3.2 0.1 3.1 2.4-0.1 2.2-1.5 2.5-3.3 2.5h-19.3c-4 0-6.5 2.1-6.5 5.4 0 3.3 2.9 5.7 6.7 5.7 3.9 0 7.9-0.2 11.8 0.1 2.6 0.2 5.2 0.9 7.7 1.8 3.6 1.2 4.9 4.2 5.1 7.7 0.2 3.7-1.3 6.5-4.6 8.4-0.8 0.5-1.3 1.5-2 2.3-10.9 0.1-21.8 0.1-32.7 0.1zM263.7 819c0-4.7 0-4.7 4.7-4.7 6.2 0 12.3 0.1 18.5 0 4.1-0.1 6.5-2.9 5.8-6.6-0.5-2.5-3-4.5-5.9-4.5-4.6-0.1-9.3 0.1-13.9-0.1-3.8-0.2-7.3-1.5-9.6-4.9-3.2-4.6-1.3-10.2 3.3-13.4 3.4-2.3 6.7-2.2 10.3-2.2h21.4c1.6 0 3 0 3.1 2.2 0 2.3-1.4 2.7-3.1 2.7h-20.1c-3.7 0-5.9 2-5.9 5.4 0 3.6 2.1 5.7 5.9 5.8 3.6 0.1 7.2 0.2 10.7 0 3.6-0.3 6.9 0.7 10 2.2 3.2 1.4 4.4 4.4 4.6 7.6 0.2 3.8-1.8 6.5-5 8.5-0.8 0.5-1.4 1.4-2.1 2.1-10.9-0.1-21.8-0.1-32.7-0.1zM618.9 819c0-9.2-0.1-18.4-0.1-27.6 0-3.7-0.2-3.9-3.9-3.9h-7.2c-1.8 0-3.2-0.5-3.2-2.7s1.4-2.3 3.1-2.3h32.9c0.7 0 1.4 0.1 2.1 0.1 1.5 3.7 0.8 4.8-3.1 4.8h-7.8c-3.1 0.1-3.5 0.6-3.6 3.6 0 9.3-0.1 18.6-0.1 27.8-3 0.2-6 0.2-9.1 0.2zM353.2 819c0-11.3-0.1-22.6-0.2-33.9 0-1.9 0.8-2.5 2.7-2.5 6.7 0 6.7-0.1 6.7 6.6 0 10-0.1 19.9-0.1 29.9-3-0.1-6.1-0.1-9.1-0.1zM407.5 180.2c-43.2 93-70.3 190.6-88.4 291.4h-54.3c0 0.2-0.1 0.4-0.1 0.7 0.6 0.5 1.1 1 1.7 1.5 12.1 9.6 24.1 19.3 36.3 28.8 1.5 1.2 1.8 2.2 1.3 4-4.6 15.7-9.1 31.5-13.6 47.3-0.3 1-0.5 2-0.9 3.6 1.3-0.9 2.1-1.4 2.9-1.9 13.5-9.3 27.1-18.6 40.6-27.9 1.7-1.2 2.8-1.1 4.4 0 13.5 9.4 27 18.6 40.6 27.9 0.7 0.5 1.4 1 2.7 1.8-0.4-1.4-0.5-2.2-0.8-2.9-4.9-15.7-9.7-31.5-14.7-47.2-0.6-1.9-0.2-2.8 1.3-4 12.3-9.6 24.5-19.3 36.8-29 0.8-0.6 1.5-1.2 2.2-2.5h-57c1.1-5.5 1.9-10.5 3-15.4 9-41.5 22.6-81.4 42.8-118.8 10.9-20.2 23.8-39 39.3-55.9 0.6-0.6 1.2-1.3 2.2-2.4 0.9 5.3 1.7 10 2.4 14.6 4.7 29 9.5 57.9 14.2 86.9 4.4 26.8 8.8 53.7 13.2 80.5 4.4 26.8 8.8 53.7 13.2 80.5 4.4 26.8 8.7 53.5 13.1 80.3 4.6 27.9 9.1 55.8 13.7 83.7 0.9 5.7 1.9 11.4 2.8 17.2 1.5 9.6-4.7 16.9-14.5 16.9h-94.8c-8.6 0-14.1-4.7-15-13.2-2-18.5-3.9-37.1-5.8-55.6-0.4-3.7-0.7-7.5-1.2-11.2-1-7.1-6.5-12.1-13.7-12.1-18.2-0.1-36.4-0.1-54.6 0-7.2 0-12.7 4.8-13.6 11.9-1.4 11.4-2.5 22.9-3.6 34.3-1.1 11-2.1 22-3.4 33-0.9 7.9-6.5 12.8-14.5 12.8h-95.6c-9.5 0-15.7-7.5-14.2-16.9 6-36.7 11.9-73.4 17.9-110.1 5.4-33.4 10.9-66.7 16.4-100.1 5.3-32.3 10.5-64.6 15.8-96.9 5.8-35.6 11.7-71.1 17.5-106.7 5.6-34.4 11.2-68.8 16.8-103.3 2.1-13.2 9.7-22.2 21.7-24.9 2.2-0.5 4.4-0.7 6.6-0.7h128.8c0.2-0.2 1-0.1 2.1 0z" p-id="6459"></path></svg>