<?xml version="1.0" standalone="no"?><!DOCTYPE svg PUBLIC "-//W3C//DTD SVG 1.1//EN" "http://www.w3.org/Graphics/SVG/1.1/DTD/svg11.dtd"><svg t="1574760064745" class="icon" viewBox="0 0 1024 1024" version="1.1" xmlns="http://www.w3.org/2000/svg" p-id="5850" xmlns:xlink="http://www.w3.org/1999/xlink" width="200" height="200"><defs><style type="text/css"></style></defs><path d="M283.9 503.8c-0.2 72.9-59.8 132.1-132.5 131.5-73-0.6-131.7-59.9-131.4-132.9 0.3-72.1 59.9-131.1 132.2-131 72.9 0.1 131.9 59.4 131.7 132.4z m-132.2-99.7c-13.8 27.4-34.7 46.2-57.4 63.5-7.4 5.6-14.2 13-19 21-13.7 22.7-1.3 50 24.5 56.4 14.5 3.6 27.9 0.8 42-6.9-3.3 15.3-8.9 27.3-19.7 36.9-2.7 2.4-4.4 6-7.5 10.4H190c-12.4-15.4-26.9-27.1-27.4-44.5 10.6 1.9 20.7 5.1 31 5.3 16 0.3 28.6-7.4 36.1-21.8 7.5-14.3 5-28.4-4.4-40.8-5.1-6.7-11.4-12.8-18.2-17.9-22.1-16.3-41.8-34.9-55.4-61.6zM606.9 581.3c9.8 0.9 19.7 1.9 30.2 2.9v-70.8h-82.4c0.6-11.6 0-22.2 2-32.3 4.6-23.2 10.3-46.2 16.1-69.2 0.7-2.9 4.4-7.1 6.8-7.1 60.7-0.4 121.5-0.3 183.5-0.3-2.4 7.2-3.8 14-6.9 19.9-1.3 2.4-6.3 4-9.6 4-38.6 0.3-77.2 0.2-115.9 0.2h-11.9c-4.5 19.6-8.9 39-13.6 59.3h32.2v-46.6h49.8v47h83.2v24.5h-82.6v96.3c-22.8 0-44.5 0.1-66.2-0.1-1.6 0-3.9-1.5-4.5-3-3.6-8.2-6.7-16.6-10.1-24.9l-0.1 0.2zM531 415.6c3.6 0.8 6.1 1.3 9.1 1.9v21.9c-2.5 0.6-5 1.1-8 1.8v93.2c4 0.4 8.1 0.9 13.1 1.4v22.3H416.5V590h-17.8c-1.3-43.2-2.7-86.1-4-129.8h17.4c0.7 17.2 1.5 34.8 2.2 52.4 0.2 4.9 0.6 9.9 0.3 14.8-0.5 6.8 2.2 9.1 10 6.8v-37.8V450c0-8.5-0.1-8.5-8.3-11.4v-20.9c2.6-0.7 5-1.4 8.4-2.3v-22.7h43v23.2h19.9v-23.1h43.6c-0.2 7.6-0.2 14.7-0.2 22.8z m-62.8 25.3v14.7h18.6v-14.7h-18.6z m18.7 39.7h-18.5V495h18.5v-14.4z m0.4 39.7h-18.8v14.2h18.8v-14.2zM908.4 610.4c-11.4 0-22.4 1.1-33-0.5-4.2-0.6-7.6-7.2-11.4-11.2 0.4 13.2-9.5 12.1-19.2 11.8-7.2-0.3-14.4-0.1-21.4-0.1-0.2-1.3-0.3-1.6-0.2-1.9 14-36 10.6-73.7 10.7-111.1 0.1-11.8 0.6-23.7-0.2-35.5-0.5-8.1 3.1-16.5-4.9-24.3-3.4-3.3-0.6-13.1-0.6-20.4 6.3-0.4 11.7-0.7 18.1-1.1-1.9-7.8-3.6-15-5.5-22.9h44.5c2 7.2 4.2 14.9 6.4 22.9 5.2 0.3 10 0.6 15.3 0.9v23h-36.5v29.2h37.9v141.2z m-35.3-116.1c-1.3 0.8-2.5 1.6-3.8 2.3v89.7c2.6-0.1 5.7-0.3 9.4-0.5 0-28.8 0.1-56.7-0.2-84.6-0.1-2.3-3.5-4.6-5.4-6.9z" p-id="5851"></path><path d="M920.9 465.6h-18.1c6.3-24.5 12.3-48.3 18.4-72.4h39.6c-1.4 6.1-2.7 12-4.3 19.2h43v25.2h-50c-2.1 8-3.9 15.2-6.1 23.4h51.1c-0.1 13.3 3.3 25.7-6.3 37.1-5.4 6.5-12.8 13.2-8.6 24.7h21.4v24h-22.2v63.6c-16.1 0-31.2 0.1-46.2-0.2-1.7 0-4.2-2-4.9-3.7-2.6-6-4.6-12.2-7.3-19.5 6-0.3 11.1-0.6 16.9-0.9v-39h-23.7V523h24.3c-2.3-15 4.8-25.8 16.1-37h-32.2c-0.3-7.5-0.6-13.8-0.9-20.4zM349.8 448.5h-24.2v-24h23.8V393h40.3v31h20.9v24.1h-20.2v161.7h-40.7c0.1-53.5 0.1-106.9 0.1-161.3zM607 581c-0.5 0.8-1.5 1.6-1.6 2.5-2.2 17.3-13.4 19.6-28 17.9-8.7-1-17.5-0.2-28-0.2 3.9-11.2 7.2-20.7 10.5-30.1 4.8-13.6 9.9-27.2 14.4-40.9 1.6-4.9 3.6-7.5 9.5-7.3 13.8 0.5 27.6 0.2 42.2 0.2-6.6 19.9-12.9 39.1-19.2 58.2 0.1 0 0.2-0.3 0.2-0.3zM699.3 523.1c15.7 0 29.5-0.2 43.3 0.2 2.3 0.1 5.8 1.9 6.6 3.9 9.5 24 18.6 48.2 28.4 74-16.2 0-30.9 0.2-45.6-0.2-1.8 0-4.4-2.7-5.2-4.7-9.1-24-18-48-27.5-73.2zM786.7 517.4h40.5c-2.5 30.7-4.9 61.2-7.4 92.4h-41.2c2.6-30.8 5.3-61.3 8.1-92.4z" p-id="5852"></path><path d="M342.7 590.3h-18.2c1.1-43.2 2.1-86.3 3.2-130.1h18.1c-1 43.1-2.1 86-3.1 130.1zM829.6 508.5h-40.5c-3.4-17.7-6.7-35.4-10.2-53.8h41c3.2 17.8 6.4 35.4 9.7 53.8zM776.8 393c12.7 0 23.9-0.2 35 0.2 2.1 0.1 5.5 2.6 5.9 4.5 3.3 15.7 6.1 31.4 9.1 48h-40.2c-3.1-16.8-6.3-33.9-9.8-52.7zM484.4 565.6c15 0 28.1-0.2 41.2 0.2 2.3 0.1 5.6 2.3 6.5 4.4 5.4 12.6 10.2 25.5 15.9 40.1-15.2 0-29.1 0.1-43-0.2-1.5 0-3.6-2.5-4.4-4.3-5.3-12.7-10.3-25.5-16.2-40.2zM413.7 610.4c5.4-14.5 10-27.8 15.3-40.8 0.8-1.9 4.4-3.8 6.7-3.8 12.2-0.4 24.3-0.2 38.5-0.2-5.5 14.7-10.4 28.3-15.9 41.8-0.6 1.6-4.2 2.8-6.4 2.9-12 0.3-24.2 0.1-38.2 0.1z" p-id="5853"></path></svg>