<?xml version="1.0" encoding="utf-8"?>
<!-- Generator: Adobe Illustrator 24.1.1, SVG Export Plug-In . SVG Version: 6.00 Build 0)  -->
<svg version="1.1" id="圖層_1" xmlns="http://www.w3.org/2000/svg" xmlns:xlink="http://www.w3.org/1999/xlink" x="0px" y="0px"
	 viewBox="0 0 200 200" style="enable-background:new 0 0 200 200;" xml:space="preserve">
<g>
	<g>
		<path d="M162.2,39.1c-15.8,0-28.7,11.7-28.7,26c0,14.4,12.8,26,28.7,26c10.2,0,19.2-4.9,24.3-12.2c-2.8,10.8-12.6,18.9-24.3,18.9
			c-14.4,0-23.7-5-33.1-10.5c-0.6-0.3-1.2-0.7-1.8-1c1.8-4.1,2.8-8.7,2.8-13.5c0-18.6-15-33.6-33.6-33.6c-18.6,0-33.6,15-33.6,33.6
			c0,5.1,1.2,10,3.2,14.3c-0.2,0.1-0.3,0.2-0.5,0.3c-8.5,5.6-16.1,10.4-27.8,10.4c-13.8,0-25.1-11.2-25.1-25.1
			c0-13.8,11.2-25.1,25.1-25.1c9,0,16.8,4.7,21.3,11.8c1.1-3,2.5-5.9,4.3-8.6C57.1,43.7,48,39.1,37.8,39.1
			c-18.6,0-33.6,15-33.6,33.6c0,18.6,15.1,33.6,33.6,33.6c14.3,0,24.1-6.3,32.5-11.8c0.1-0.1,0.3-0.2,0.4-0.3
			c6.2,7.4,15.4,12.1,25.8,12.1c10.7,0,20.2-5,26.4-12.8c0.6,0.4,1.2,0.7,1.9,1.1c9.5,5.6,21,11.7,37.5,11.7
			c18.6,0,33.6-15.1,33.6-33.6C195.8,54.1,180.8,39.1,162.2,39.1z M162.2,82.6c-11.1,0-20.1-7.8-20.1-17.5c0-9.7,9-17.5,20.1-17.5
			c11.1,0,20.1,7.8,20.1,17.5C182.3,74.8,173.3,82.6,162.2,82.6z M96.5,97.8c-13.8,0-25.1-11.2-25.1-25.1
			c0-13.8,11.2-25.1,25.1-25.1c13.8,0,25.1,11.2,25.1,25.1c0,3.3-0.6,6.4-1.8,9.2c-6.7-3.5-14-6.4-23.1-6.4c-6.9,0-12.7,1.7-17.8,4
			c1.1,2.8,2.8,5.2,4.9,7.2c3.9-1.6,8-2.6,12.9-2.6c7,0,12.8,2.1,18.6,5.2C110.7,94.5,104,97.8,96.5,97.8z"/>
	</g>
	<g>
		<path d="M62,119.4l-0.1,3.1h-12l-0.2,4.5h12.4L62,160.7h3.8c0,0,2.1,0.2,2-2.7c-0.1-3.5,0.1-38.6,0.1-38.6H62z"/>
		<path d="M52.6,129.9l0,26.3h-3l-0.3,4.7c0,0,7.4,0.5,8.6-0.6c1.1-1.1,0.7-6.1,0.7-6.1l-0.2-24.2H52.6z"/>
		<path d="M96.8,148.4l-0.1-21.6c0.3,0,0.5,0,0.7,0c3.4-0.3,2.6-4.5,2.6-4.5l-3.4,0l0-2.9H91l0,2.9l-9.6,0.1l0-3h-5.6l0,3l-4.9,0
			l0,4.6c0,0,12.2,0,20.2,0l0.1,21.5L81,148.5c0-0.1,0-0.1,0-0.1l0-4.1c1.4,0,2.9,0,4.4-0.1c3.8-0.2,2.8-3.6,2.8-3.6h-7.1l0-4.5
			c1.4,0,3.1,0,4.7-0.1c3.8-0.2,2.8-3.8,2.8-3.8h-7.4l0-3.1h-5.6l0.1,19.4l-5,0l0,4.6c0,0,2.7,0,6.4,0l-2.2,7.6h5.3
			c0,0,0.9,0.1,1.9-2.9c0.3-1,0.8-2.7,1.4-4.7c2.1,0,4.2,0,6.2,0c1,1.7,1.9,3.4,2.6,4.6c1.7,3.1,2.8,3,2.8,3h5.7l-4.5-7.7
			c1.1,0,1.9-0.1,2.3-0.1c3.4-0.3,2.6-4.5,2.6-4.5L96.8,148.4z"/>
		<path d="M150.5,151.7l-9.2,0.1c0-1.8,0-3.5,0-3.5h-6l0,3.5l-14.2,0.1c0-5.8,0-13.4,0-13.4H117h-1.6h-3.1c0-1.5,0-3,0-4.5h8.8l0,0
			l0,0l0-14.6h-5.5l0,10h-3.3c0-5.7,0.1-10,0.1-10h-5.8l0,41.4h3.7c0,0,2.1,0.2,2-2.7c0-1.4,0-7.8,0-15h3.1l-0.1,17.7
			c0,0,5.6,0.6,5.8-2.1c0-0.5,0.2-0.7,0.1-2.2c1.7,0,8.6,0,14.2,0l0,4.3c0,0,5.4,0.9,5.9-2.1c0.1-0.6,0.1-0.8,0.1-2.3
			c4.1,0,5.5-0.1,6.6-0.2C151.4,156,150.5,151.7,150.5,151.7z"/>
		<path d="M124.8,145h2.9l-0.2,3.7c0,0,5.9,1,6.1-2.1c0-0.5,0.1-1.1,0.1-1.7h11.8c0,0,2.7,0.4,3.3-3.2c0.3-1.6,0.1-5.9,0.1-10.1
			c0-5.2,0-10.2,0-10.2h-9.5l0.8-2.5h-5.8l-0.8,2.5h-8.8L124.8,145z M144.7,140.1H139l0-5.9h5.7L144.7,140.1z M144.7,131.9H139
			l0-5.8h5.7L144.7,131.9z M129.5,126.1h5.4l0,5.8h-5.4L129.5,126.1z M129.6,134.3h5.5l0,5.7h-5.5L129.6,134.3z"/>
	</g>
</g>
</svg>
