<?xml version="1.0" standalone="no"?><!DOCTYPE svg PUBLIC "-//W3C//DTD SVG 1.1//EN" "http://www.w3.org/Graphics/SVG/1.1/DTD/svg11.dtd"><svg t="1575006586158" class="icon" viewBox="0 0 1024 1024" version="1.1" xmlns="http://www.w3.org/2000/svg" p-id="962" xmlns:xlink="http://www.w3.org/1999/xlink" width="200" height="200"><defs><style type="text/css"></style></defs><path d="M386.7 232H397c159 0 318-0.1 477 0.1 32.6 0 63.5 6.4 89.1 28.8 43.3 38.1 50.6 100.6 16.6 147.2-8.1 11.1-17.5 21.3-27 32.7 20.8 25.2 25.7 55.1 21.3 86.8-5.6 40.1-29.2 68.5-62 90-29.8 19.6-62.9 28.8-98.6 28.8-148-0.1-296 0-444 0H354c1.4-5.7 2.4-10.1 3.5-14.3 28.5-105.8 57.1-211.6 85.2-317.6 1-3.9-0.9-9.7-3.4-13.2-14.1-19.2-28.8-37.9-43.2-56.7-2.8-3.5-5.4-7.1-9.4-12.6z m69.5 338.3c16.6 0 31.5 0.5 46.3-0.2 11.6-0.5 23.3-2.2 34.8-3.9 86.6-13.1 151.5-87.4 151.8-173.7 0.1-44.4-21.2-72.6-65.2-79.5-28.8-4.5-58.6-3.1-87.9-4.9-7.6-0.4-10.3 2.4-12.2 9.5-13.6 51.8-27.7 103.4-41.6 155.1-8.5 32.1-17.1 64.2-26 97.6z m230.3 0.2h129.3c4.3 0 8.6 0.2 12.8-0.3 17.9-2.1 34.6-7.6 48.8-19.3 16.6-13.6 22.9-31.3 17-48.9-6.4-19.1-21.9-24.1-39.5-24.4-33.7-0.5-67.4-0.4-101.1-0.1-2.9 0-7.4 2.1-8.4 4.5-14 32.1-32.8 61.1-58.9 88.5z m79-170.4c1.9 0.5 3.3 1.1 4.6 1.1 30.5 0.1 61 0.9 91.5-0.4 11.3-0.5 23.2-4.3 33.3-9.5 19.7-10.1 29-33.5 24.1-54.4-4-17.3-19.5-27.4-43.7-28.5-1.4-0.1-2.8-0.1-4.3-0.1H757.2c-2.6 0-5.2 0.5-9.4 0.9 15.9 29.2 18.2 59.8 17.7 90.9zM20 745.3c17.5-22.9 34.2-44.9 51.3-66.6 1.5-1.8 6.1-2.1 9-1.7 11.2 1.8 22.1 5.1 33.3 6.3 29 3.1 50-10.8 65.2-34 6.3-9.6 11.4-20.7 14.4-31.8 27-100.4 53.4-200.9 79.6-301.5 1.2-4.5-0.6-11.3-3.4-15.2-16.5-22.6-33.8-44.6-51.8-68.1h163.9c-5.3 20.3-10.3 39.8-15.4 59.2-29.5 112.6-58.6 225.2-88.7 337.7C248 739.9 128.5 796.6 27 749.1c-1.9-0.9-3.7-2-7-3.8z" p-id="963"></path></svg>