<?xml version="1.0" standalone="no"?><!DOCTYPE svg PUBLIC "-//W3C//DTD SVG 1.1//EN" "http://www.w3.org/Graphics/SVG/1.1/DTD/svg11.dtd"><svg t="1574995251977" class="icon" viewBox="0 0 1024 1024" version="1.1" xmlns="http://www.w3.org/2000/svg" p-id="1910" xmlns:xlink="http://www.w3.org/1999/xlink" width="200" height="200"><defs><style type="text/css"></style></defs><path d="M145.8 432.3c0.3-1.5 0.6-3 0.8-4.6 0.4-2.8 0.5-5.7 1.2-8.4 1.2-4.7 5.3-7.5 10.1-7 9.4 0.9 18.7 2 28.1 3.1 14.5 1.6 29.1 3.2 43.6 4.8 10.2 1.1 20.4 2.2 30.7 3.4 5.7 0.6 9.3 5.3 8.6 11.1-2.1 18.8-4.2 37.5-6.3 56.3-1.9 17.1-3.7 34.2-5.6 51.3-1.5 13.8-3 27.5-4.6 41.3-0.7 6-6 10-12.5 9.3l-51.6-5.7c-16.3-1.8-32.5-3.6-48.8-5.3-3.3-0.4-5.9-1.7-7.7-4.6-1-1.6-2.3-2.4-4.4-2-17.6 3.3-35.2 6.5-52.8 9.7l-14.7 2.7c-6.3 1.2-11.1-2.1-12.3-8.4-1.7-8.8-3.3-17.5-4.9-26.3l-9.3-50.4c-4.4-23.6-8.8-47.2-13.1-70.8-1.2-6.5 2.5-11.5 8.9-12.7 33-6 66-12 99.1-18.1 6.7-1.2 11.1 1.6 12.5 8.2 0.8 4.1 1.5 8.2 2.3 12.3 0.6 3.3 1.3 6.7 1.9 10 0 0.2 0.2 0.4 0.3 0.6 0.1 0.2 0.3 0.2 0.5 0.2z m5.4 91.9c-2-0.1-3.8 0-5.5-0.3-5.1-0.8-8.8-3.9-12.2-7.6-8.2-9.1-16.4-18.2-24.7-27.3-4.2-4.7-8.6-9.3-12.8-13.9 0.5-1 1-2 1.5-2.9 3.7-7 7.3-14.1 11.2-21 3.5-6.1 8.3-10.8 14.9-13.5 1.5-0.6 3.1-1 4.8-1.6-0.5-2.3-0.9-4.5-1.4-6.9-3.8 0.8-7.3 1.6-10.9 2.3-8.5 1.8-16.9 3.6-25.4 5.4-0.4 0.1-1.1 0.6-1.1 0.9 0.4 2.1 0.9 4.2 1.3 6.4 0.5-0.1 0.7-0.1 1-0.1 2.1-0.1 4.2-0.4 6.2-0.2 1.8 0.2 2.4 1.3 1.9 3-0.9 2.7-1.7 5.3-2.8 7.9-5 12.4-11.4 24.2-17.9 35.9-0.5 0.9-1 1.8-1.7 2.9-0.2-0.8-0.3-1.3-0.4-1.7-1.5-7.2-3.1-14.3-4.5-21.5-0.9-4.4-1.9-8.9-2.5-13.3-0.6-5 1.5-7.9 6.2-9.5 1.1-0.4 2.2-0.7 3.4-1.1-0.5-2.4-1-4.6-1.5-6.9-14.1 3-28 5.9-42.1 8.9 0.5 2.4 1 4.7 1.5 7 1.1-0.2 2-0.3 2.9-0.4 4.8-0.6 7.5 0.8 9.2 5.3 0.8 2 1.4 4.2 1.8 6.3 4 18.6 7.9 37.2 11.9 55.8 0.8 3.8 1.6 7.6 2 11.4 0.6 5-1.1 7.6-5.9 9.3-1.2 0.4-2.4 0.7-3.7 1.1 0.4 2 0.9 4 1.3 6.1 14.4-3 28.6-6 42.9-9-0.5-2.2-0.9-4.1-1.3-6H96c-6.4 0.3-9.7-1.8-11.3-8-1.5-5.6-2.3-11.4-3.8-17-1-3.7-1-6.9 1.3-10.1 0.9-1.2 1.3-2.6 2-3.9 0.4-0.9 0.9-1.7 1.4-2.8 1.2 1.4 2.3 2.6 3.4 3.8 10.9 12.5 21.8 25 32.7 37.6 1 1.1 1.9 1.5 3.4 1.1 5.6-1.3 11.1-2.4 16.7-3.6 3.5-0.7 6.9-1.5 10.5-2.2-0.3-2.3-0.7-4.2-1.1-6.1z m62.3 22.4c-2.3-0.7-4.4-1.3-6.4-2-3.2-1.2-4.8-3.7-4.9-7 0-1.1-0.1-2.2 0.1-3.2 1.3-9.1 2.7-18.2 3.8-27.4 0.3-2.5 1.4-4.5 2.9-6.3 4.5-5.5 8.9-11.1 13.3-16.7 3.8-4.8 7.5-9.8 11.5-14.5 3.7-4.3 8.3-7.5 14.1-8.5 1.9-0.3 3.8-0.3 5.8-0.4 0.3-2.3 0.6-4.5 1-6.8-12-1.7-23.7-3.5-35.6-5.2-0.3 2.4-0.7 4.7-1 7 0.6 0.1 1.1 0.2 1.6 0.4 2.1 0.7 4.2 1.2 6.1 2.2 2.2 1.2 2.8 3 1.8 5.3-1 2.3-2.1 4.7-3.6 6.6-6 7.8-12.2 15.4-18.3 23.1-0.6 0.8-1.4 1.5-2.1 2.3-4.1-10.7-8.3-21.2-12.2-31.7-0.8-2.3-1.3-4.7-1.6-7.1-0.3-2.2 0.8-3.4 2.9-3.8 1.3-0.2 2.6-0.3 3.9-0.2 1.1 0 2.2 0.2 3.4 0.3 0.3-2.4 0.7-4.6 1-7-14.7-2.2-29.3-4.3-44-6.4-0.3 2.5-0.6 4.8-0.9 7.1 4.1 0.7 6.9 3 9 6.3 1.3 2.1 2.6 4.3 3.5 6.6 5.8 15.1 11.5 30.2 17.2 45.3 0.2 0.6 0.3 1.3 0.2 1.9-1.1 7.8-2.2 15.5-3.4 23.3-1.2 7.6-5.6 10.9-13.3 10-0.6-0.1-1.2-0.1-1.8-0.2-0.3 1.7-0.4 3.3-0.7 4.8-0.2 1 0.2 1.4 1.2 1.5 13.1 1.9 26.3 3.8 39.4 5.7 1.7 0.2 3.4 0.5 5.1 0.7 0.4-2.1 0.7-4 1-6zM676.3 467.7H655v-21.5h23.2v-19.3c0-8.4 0-8.3 8.1-7.4 3.6 0.4 7.3 0.5 11 1 3.9 0.4 4 3 3.5 6.2-1 6.2-1.7 12.5-2.5 19.1h13.1c1.5-3.3 2.1-7.7 4.4-9 2.9-1.5 7.1-0.4 11.7-0.4v-13.7c0-3.4 1.3-4.7 4.8-4.2 4.7 0.6 9.4 0.8 14.1 1.1 4.5 0.3 4.8 3.1 4.2 6.7-0.6 3-1.1 6.1-1.7 9.6h24.9c0-4 0.1-8.3 0-12.6-0.1-3.4 1.2-4.7 4.7-4.3 4.7 0.6 9.4 0.6 14.1 1.3 5.3 0.8 6.3 3.3 4.2 8.1-1 2.2-1.3 4.7-2.2 7.9h18.2v21.8h-17.2v64.5c4.2 0 8.4 0.2 12.5-0.1 3.2-0.2 4.6 1 4.5 4.2v0.5c0.9 16.5 0.9 16.5-15.6 16.5h-7.6c-0.3 0.6-0.5 1.1-0.8 1.7 7.1 5.1 14.2 10.4 21.5 15.4 4.1 2.8 4.5 4.7 0.8 7.9-4 3.6-8.2 7.1-13 11.2-10.3-8.5-20.6-16.9-30.7-25.4-4.7-4-0.5-7 2.2-10.5h-14.3c0.8 1.5 1.8 2.9 2.3 4.4 1 3.1 1 5.4-3 7-3.9 1.6-7.3 4.6-11 6.9-7.8 4.9-15.8 9.8-23.6 14.7-2.3 1.5-3.9 1.3-5.8-0.9-2.5-2.9-5.5-5.4-8.4-7.9-3.5-3.1-3.2-5.1 0.9-7.3 9.3-5 18.5-10.2 27.8-15.3-0.2-0.7-0.5-1.4-0.7-2.1-7 0-14.1-0.3-21.1 0.1-4.9 0.3-6.1-1.7-5.9-6 0.2-4.9 0-9.7 0-15.2H727v-63.9h-10.4c2 15-10.1 6.6-15.9 9.8 3.9 10.3 9.8 19.3 17.4 27.4 1.2 1.3 3.1 2.3 3.6 3.7 0.6 2.1 1.1 5.2-0.1 6.7-3.5 4.5-7.8 8.5-12.2 13.1-1.6-1.5-3.3-2.9-4.8-4.5-1.6-1.6-3.1-3.3-5.4-5.9v70.3c-6.6 0-12.5 0.3-18.3-0.2-1-0.1-2.5-3.3-2.6-5.2-0.2-13.3-0.1-26.6-0.1-39.9 0-2.4 0-4.9-0.8-7.6-3.1 5.1-6.2 10.2-9.6 15.6-5.9-3.5-11.7-6.6-17-10.5-1-0.7-0.7-5 0.5-6.6 11.6-15.5 19.4-32.7 23.8-51.5 0.4-1.3 0.7-3 1.2-5.5z m73 25.5h23.9v-6.4h-23.9v6.4z m0 29.1h23.8v-6.5h-23.8v6.5z m0.1-57.4h23.7v-6.1h-23.7v6.1zM956.6 433.4h35.2c0.3 2.5 0.8 4.7 0.8 6.8 0.1 20.3-0.1 40.6 0.1 60.9 0 5-1.1 7.2-6.7 6.8-7.8-0.6-15.7-0.1-24.1-0.1-1 5.5-2 10.8-3.2 16.8h36.2v24.3h-35.2V580h-21.3v-30.7h-42c0-7.9-0.1-15.1 0.1-22.4 0-1 2-2 3.3-3.2-2.3-3.1-1.5-5.5 2.6-7.7 3.6-1.9 6.7-4.7 10.3-7.2-0.8-0.6-1.1-1-1.3-1-7.5-0.4-7.5-0.4-7.5-8.1v-58.8c0-2.4 0.3-4.8 0.6-7.6 8.2 0 15.9-0.3 23.5 0.1 4.6 0.3 6.6-1.4 7.4-5.7 0.7-3.8 2.3-7.4 2.9-11.1 0.5-2.9 1.9-3.4 4.3-3 5 0.8 10.1 1.3 15 2.3 5.6 1.1 6.7 5.1 3.3 9.6-1.6 2.3-2.6 4.8-4.3 7.9z m14.2 46.1h-10.2c-7.2 0-7.2 0-8.1 7.4h18.3v-7.4z m-12-25.1c-0.2 2.6-0.3 4.8-0.4 7.1h12.3v-7.1h-11.9z m-31.6 0v7.3h11.6c0.3-2.4 0.5-4.7 0.8-7.3h-12.4z m10.8 57.1c-4.3 4.7-7.9 8.6-11.7 12.9H938v-12.9z m-11.1-24.2c5.3-0.3 4.9-4.4 6.4-7.3h-6.4v7.3zM518.1 496.3c-12 0-23.6-0.2-35.1 0.1-4.6 0.1-6.3-1.2-6-5.9 0.4-5.4 0.1-10.8 0.1-16.3 0-2.6 0.8-4.2 3.9-4.2 49.7 0.1 99.4 0.1 149.1 0.1 0.5 0 1 0.2 2.4 0.6 0 7.6 0.1 15.4-0.2 23.2 0 0.8-2.8 2.1-4.4 2.2-13.1 0.2-26.3 0.1-39.4 0.1h-6.2V542.8c0 4.4 2.1 6.4 6.4 6.4h8.9c8.6 0 9.2-0.4 12.1-8.4 1.1-3.1 2-6.3 3.2-9.9 7.3 3.1 14.3 5.9 21.1 9.3 1.1 0.6 1.8 3.7 1.4 5.5-0.9 4.6-2.1 9.2-3.8 13.6-4.3 11.2-10.6 16-22.1 15-11.6-1-23.4-0.2-35.2-0.2-11.8-0.1-17.3-5.5-17.4-17.4-0.1-18 0-36.1 0-54.1v-6h-12c-0.9 8.6-1.8 17-2.8 25.5-2.2 18-11 31.9-26.6 41.1-9 5.3-18.6 9.6-27.9 14.4-2.7 1.4-4.2 1-5.9-1.7-3.2-5-6.8-9.7-10.3-14.5-3.1-4.2-2.6-5.6 2.2-7.4 7.2-2.6 14.5-5.1 21.4-8.3 14.8-6.8 21.6-19.3 22.9-35 0.6-4.6 0.2-9.2 0.2-14.4z" p-id="1911"></path><path d="M841.6 425.5c7.2 0.7 13.5 1.2 19.7 1.9 4.4 0.5 3.7 3.8 3.4 6.8-0.9 8.5-1.8 17.1-2.8 26h12.5v-11.7c0-3.3-0.1-6.7 0-10 0.4-14.4-2.9-13.1 13.8-12 1.9 0.1 3.8 0.5 5.7 0.8 4.2 0.6 4.5 3.3 4.1 6.9-1 8.5-1.6 17.1-2.4 25.9 2.9 0.3 4.6 0.6 7.1 0.9 0 6.8 0.2 13.5-0.2 20.3-0.1 1-2.9 2.5-4.5 2.5-11.5 0.2-23 0.1-34.9 0.1v9.1H894v86.6c-5.9 0-11.7 0.2-17.6-0.2-1-0.1-2.4-3.4-2.4-5.2-0.2-15.8-0.1-31.5-0.1-47.3v-11.5h-10.7c-1.9 10.9-3.4 22.1-6 33-1.9 8.5-4.9 16.7-7.9 24.9-0.5 1.4-2.9 3.1-4.3 3-6.9-0.5-13.8-1.6-21.5-2.6 0.8-2.1 1.2-4.3 2.3-6.1 8.3-14 12.8-29.4 13.5-45.3 1.4-29.3 1.5-58.7 2.1-88.1 0.3-2.6 0.2-5 0.2-8.7zM415.5 554.3c3.7 0 7.2 0.3 10.6-0.1 3.7-0.4 6.7-1.8 6.7-6.4-0.2-20.5-0.2-41-0.3-61.4 0-0.9-0.1-1.7-0.2-3.4h-9.8c-11.7 0-23.5-0.2-35.2 0.1-4 0.1-5.2-1.3-5.2-5.1 0.1-17.2 0-34.3 0.1-51.5 0-2.1-0.3-4.8 3.3-4.7h69.4c0.1 2.5 0.3 4.7 0.3 6.9v118.7c0 4.2 0.2 8.4 0 12.5-0.3 7.7-4.6 13-11.4 15.5-6 2.1-12.5 2.9-18.8 4-1.1 0.2-3.1-0.7-3.4-1.5-2.3-6.9-4.4-14-6.4-21-0.3-0.7 0.1-1.6 0.3-2.6z m-10.2-108.7h27.2c-0.1-2.2-0.2-4-0.3-5.7h-26.8c-0.1 2-0.1 3.6-0.1 5.7z m27 15.2H405c0.1 2 0.2 3.5 0.4 4.9h27c-0.1-1.6-0.1-3-0.1-4.9z" p-id="1912"></path><path d="M370.3 537.4c-2.9 15.6-11.4 27.5-23.8 37-2.7 2-4.6 2.4-7.2 0-3.1-2.8-6.6-5.2-9.9-7.8-3.8-3.1-3.7-5.1 0.4-8.1 7.3-5.3 13.5-11.5 16.3-21.5-5.4 0-10.2-0.1-15 0.1-3.2 0.1-4.4-1.1-4.3-4.3 0.2-4.4 0.1-8.8 0-13.1-0.1-3.2 1.3-4.3 4.4-4.1 5.9 0.2 11.8 0.1 18.1 0.1v-8.4c-4.1 0-8.3-0.2-12.4 0.1-3.5 0.2-4.5-1.3-4.7-4.5-1.1-16.8-1.1-16.8 15.6-16.8 23.1 0 46.2 0.1 69.3-0.1 4.3 0 5.8 1.2 5.8 5.6 0.3 15.6 0.5 15.6-14.8 15.8-1.4 0-2.7 0.2-4.3 0.3v8.1c6.3 0 12.6-0.2 18.8 0.1 1.4 0.1 3.9 1.6 4 2.5 0.4 6 0.2 12.1 0.2 18.7h-23.2v28.6c0 10.8 0.1 8.5-8.7 8.7-4 0.1-8 0-12.7 0v-36.8c-4.4-0.2-7.9-0.2-11.9-0.2z m11.3-29.8h-8.9v7.7h8.9v-7.7z" p-id="1913"></path><path d="M321.7 483v91.9H300V422.1c1.2-0.1 2.5-0.4 3.9-0.4 21.4 0 42.7 0.1 64-0.1 4.4 0 5.3 1.6 5.3 5.5-0.1 17-0.1 34 0 50.9 0 4-1.5 5-5.2 4.9-13.3-0.2-26.6-0.1-39.9-0.1-1.9 0.2-3.8 0.2-6.4 0.2z m0.5-22.4v5.1h28.4v-5.4h-24.5c-1.1 0-2.3 0.2-3.9 0.3z m27.9-20.9h-28v5.6h28v-5.6zM494.8 450v-22.2c0-2.8 1.4-3.5 4-3.5 4.5 0.1 9.1 0 13.6 0 32.4 0 64.7 0.1 97.1-0.1 4.7 0 6.2 1.6 6.1 6-0.2 5.4 0 10.9-0.1 16.3 0 2.5-0.6 4.2-3.9 4.2-38.1-0.1-76.3-0.1-114.4-0.1-0.5 0-1-0.2-2.4-0.6z" p-id="1914"></path></svg>