<?xml version="1.0" standalone="no"?><!DOCTYPE svg PUBLIC "-//W3C//DTD SVG 1.1//EN" "http://www.w3.org/Graphics/SVG/1.1/DTD/svg11.dtd"><svg t="1574997172281" class="icon" viewBox="0 0 1024 1024" version="1.1" xmlns="http://www.w3.org/2000/svg" p-id="1091" xmlns:xlink="http://www.w3.org/1999/xlink" width="200" height="200"><defs><style type="text/css"></style></defs><path d="M255.2 456.2c0 1.7 0.1 3.3-0.1 5-0.1 0.7-0.6 1.5-1.1 2-27.3 26.1-54.5 52.1-81.8 78.2-0.4 0.4-0.8 0.7-1.3 1.1-0.5-0.4-0.9-0.8-1.4-1.1-26-24.8-51.9-49.6-77.9-74.4-11.2-10.7-22.3-21.3-33.5-31.9-1-1-1.8-5.9-1-6.9 0.4-0.5 1.1-0.7 1.7-0.9 17.8-6.8 36.1-12.4 54.8-16.4 12.9-2.7 26-4.5 39.2-5.7 7.2-0.7 12.2-4.2 14.9-11 0.9-2.2 2-4.4 3.3-7 1.2 2.5 2.2 4.7 3.3 6.8 1.8 3.7 3.7 7.6 7.9 9.1 3 1 6.2 1.7 9.3 1.9 22.8 1.6 45.1 5.7 66.8 13 8.2 2.7 16.3 6 24.5 9 1.5 0.6 2 1.4 2.1 3.1 0.2 2.9-0.8 4.9-3 6.9-6 5.5-11.8 11.1-17.6 16.8-1.2 1.1-2.1 1.3-3.5 0.6-23.2-10-47.4-15.4-72.6-17-0.9-0.1-1.8-0.1-2.7-0.1-4.9 0-8.5 2.1-10.7 6.6-1.1 2.5-2.4 4.9-3.7 7.6-1.3-2.7-2.5-5.1-3.6-7.5-2-4.4-5.5-6.3-10.2-6.1-8.7 0.5-17.3 2.1-25.7 4.2-3.5 0.9-7 1.9-11.1 3 17 16.2 33.7 32.2 50.6 48.3 5.2-5 10.4-9.9 15.5-14.7 0-0.2 0-0.3-0.1-0.5h-2.7c-1.8 0-3.7 0.1-5.5 0-2.9-0.1-5.3 0.6-6.2 4.1-1.1-1-1.9-1.7-2.6-2.5-5.4-5.1-10.7-10.3-16.2-15.4-1.5-1.4-2.4-2.8-2.1-4.9 0.1-1 0-2 0-3.1 34.5-0.2 69.1-0.2 104-0.2zM712.2 464.8c1-2.1 2-4.2 3.2-6.3 0.6-1.1 0.5-1.7-0.4-2.7-2.5-2.6-4.9-5.2-7.1-8.1-2.7-3.5-4.2-7.5-3.9-12 0.1-2.3 0-4.7 0-7.2 2.9-0.6 5.8-0.9 8.6-1.7 2.9-0.8 5.8-1.9 8.6-3.2 2.6-1.2 3.6-3.6 3.1-6.4-0.5-2.7-1.1-5.5-4.5-6.2-0.4-0.1-0.9-0.9-0.9-1.4 0.3-3.8 0.7-7.6 1.3-11.4 0-0.4 0.9-0.9 1.4-0.9 2.4-0.1 4.7-0.1 7.1 0 2.5 0 4 1.7 5.2 3.7 2.5 4.1 3.5 8.8 4.5 13.5 0.4 1.8 0.5 3.6 0.9 5.4 0.3 1.1 0.7 2.2 1.4 3.2 1.7 2.4 3.4 4.8 5.3 7 1.3 1.5 1.9 3.1 1.8 5.2-0.1 1.5-0.3 2.5-1.6 3.7-1.6 1.5-2.3 4.1-3.3 6.3-0.6 1.3-1 2.8-1.8 4.1-3.3 5.5-4.8 11.5-5.7 17.7-0.5 3.8-0.9 7.7-1 11.5-0.1 1.7 0.6 3.4 0.9 5.4 1-0.5 1.8-0.7 2.4-1.2 2.6-1.9 5.4-1.8 8.1-0.6 2.6 1.2 5.2 2.3 7.7 3.8 2.3 1.4 3.7 3.7 3.7 6.4 0.1 3.5 0 7-0.5 10.5-0.5 3.4-2.2 6.4-6 7.9 1.7 1 3.1 1.7 5 1.3 4.1-0.9 8.2-1.5 12.5-2.3-0.5-4.9-0.9-9.6-1.5-14.3-1.7-11.8-2.4-23.6-1.2-35.5 0.5-4.8 0.3-9.4-1.6-14-1.7-4.1-2.7-8.4-4.3-12.5-1.5-3.6-1.5-7.4-1.6-11.1-0.1-2.1 0-4.2 0.1-6.3 0.1-1.7 1.3-2.6 2.7-1.9 3.2 1.7 5.6-0.3 8.3-1.3 0.3-0.1 0.4-1 0.4-1.6 0-4.7-0.2-9.4-0.1-14 0-1.2 0.6-2.4 1.3-3.4 1.3-2 3-2.1 5.1-0.9 2.3 1.2 3.2 3 3.4 5.6 0.2 2.8 0.9 5.7 1.6 8.4 0.2 1 1 1.9 1.8 3.4 2-4.2 5-3 8-2.6 3.8 0.6 7.6 1.2 11.4 1.7 1.7 0.2 2.2-0.3 1.6-1.9-1-2.8-2.1-5.6-3.6-8.2-0.9-1.6-1.4-3-1.3-4.8 0.1-1.7 0.2-3.4 0.2-5 4.8-1 8.8 0.9 11.1 5.1 2.2 4.1 3 8.6 3.6 13.1 0.2 1.4 0.3 2.9 0.5 4.2 0.2 0.1 0.3 0.3 0.4 0.3 5.1 0.1 8.6 3.7 9.1 10.3 0.3 3.2-0.4 5.5-3.2 7.4-1.8 1.2-3.2 3-4.6 4.8-2.3 2.8-2.9 6-2.4 9.7 0.9 6.6 1.6 13.4 1.8 20.1 0.1 5.3-0.7 10.7-1.2 16-0.2 2.7-0.7 5.4-0.9 8.2-0.2 2.6 3.5 6.8 5.5 5.7 2.1-1.1 3.4-0.5 4.9 0.4 1.6 1 3.1 2.1 4.6 3.3 0.5 0.4 1 1 0.9 1.5-0.2 2.4-0.2 4.8-0.9 7.1-1 3.6-2.4 7.2-3.9 10.6-0.5 1.2-1.4 2.3-2.4 3.1-2.4 1.8-5 3.4-7.6 5.1 3.9 3.6 7.7 7.2 11.5 10.8 5.8 5.4 11.7 10.8 17.5 16.3 0.5 0.5 1.1 1.2 1.2 1.9 0.7 6.5 0.4 12.8-3.9 18.2-2.7 3.4-6 6-9.9 7.8-1.6 0.8-3.7 0.7-4.9 0.9-1.2-1.2-2-2.2-3-2.9-1.9-1.3-3.8-2.6-5.8-3.6-1.8-0.9-2.4-2.2-2.6-4.1-0.6-5.2-1.8-10.5-1.8-15.7 0-5.9-3.5-10.7-4.1-16.4-0.2-1.7-0.2-3.5-0.2-5.2 0-0.4 0.2-0.8 0.4-1.1 2-1.9 2-1.9 2.3-4.9-4.6 3.3-8.9 6.3-13.3 9.5-2.1 1.5-4 3.2-6.2 4.5-4.4 2.7-6.9 7-10.2 10.7-2.2 2.4-4.6 4.6-7 6.8-0.9 0.9-1.9 0.7-3.3 0.1-2.2-1-4.7-1-7 0.3-3.5-5-1.1-10.3-0.6-15.4 0.1-1.6 0.3-3.1 0.8-4.6 0.5-1.6-0.2-2.5-1.5-3.1-1.1-0.5-2.1-1-3.2-1.4-5.6-1.8-10-5.2-13.7-9.7-2.5-3.1-3.8-6.7-3.7-10.7 0-2.1-0.1-4.2 0-6.3 0-0.5 0.5-1 0.9-1.6-2.1-1.9-4.6-4.1-7-6.2-1.8 1.2-2.9 2.5-2.6 4.8 0.7 5.7 1.3 11.4 1.7 17.1 0.4 5 0.5 10 0.7 15 0 0.4 0 1-0.3 1.3-2.6 2.8-2.3 6.4-2.3 9.8 0 1-0.1 1.7-1.3 2.2-2.3 0.9-2.9 3.2-3.7 5.3-0.1 0.4-0.3 0.7-0.7 1.6-1-1.2-2.1-2.1-2.5-3.3-1.4-3.8-2.6-7.6-3.6-11.5-0.5-1.8-0.3-3.7-0.5-5.6-0.1-0.7-0.1-1.5-0.4-2.1-1.3-2.8-1.4-5.6-0.3-8.5 0.2-0.6 0.1-1.4 0-2.1-0.2-2.5-0.5-5.1-0.8-7.7-1.5-0.5-2.6-0.2-3.5 1.3-4 5.8-8.2 11.5-12.4 17.4-3.4-1.4-6.9-2.9-9.9-4.1-1.2 2-2 3.7-3.2 5-0.6 0.6-2 0.4-3.5 0.6 0.4-4.8 0.5-9.3 1-13.7 0.8-6.3 1.9-12.5 3-18.8 0.1-0.8 0.5-1.7 1.1-2.1 9.7-6.8 15.5-16.4 19.7-27.2 0.9-2.3 1.7-4.6 2.3-7 0.2-1-0.3-2.1-0.5-3.1-0.9-0.2-1-0.2-1.2-0.3z m78.7 11.9c-3.3-7.5-6.3-14.8-5.8-22.9-5 0.3-6.5 3.4-7.3 7.5-1 5.5-0.5 10.9-0.1 16.4 0.6 8.5 1.3 17.1 1.9 25.6 0.1 1.6 0 3.3 0 4.9 2.2 0.4 3.9 0.5 5-1.8 0.4-0.8 1.4-1.4 2.3-1.7 2.7-1 5.3-2.3 8.1-2.7 4.1-0.6 6-3.1 7-6.7 1.8-6.1 2-12.3 1.8-18.6 0-0.1-0.2-0.2-0.1-0.2-2.9-1-4.7 0.4-6.4 2.3-0.7 0.8-1.8 1.1-2.8 1.7 2.7 2.6 5.2 5.8 4.7 10.5-0.3 3.5-1.5 5.9-4.9 6.9-2.9 0.8-6.1 1.1-9.4 1.6 0-2.4-0.4-4.4 0.1-6.1 1.4-4.9-0.1-9.4-1-14-0.4-2.4-0.5-5-0.7-7.9 3.6 0.8 5 3.8 7.6 5.2z m14.3-35.3c-1.5 1.9-2.6 3.4-3.8 4.8-0.6-0.4-1.1-0.7-1.6-1.1-3 2.6-5.9 5-8.7 7.5 4.1 3.1 8.1 6 12.2 9 1.3-0.8 2-2.2 1.9-4.3-0.2-3.3-0.1-6.5-0.1-9.8 0.1-1.8 0.1-3.7 0.1-6.1z" p-id="1092"></path><path d="M171 618.6c-9-8.6-17.9-17.1-26.7-25.5-41.3-39.5-82.6-78.9-123.9-118.3-0.9-0.8-1.3-1.6-1.2-2.9 0.1-1.4 0-2.7 0-4.3H91c0 0.4 0 0.6 0.1 0.9 0.4 3.2 0.1 5.8-3.8 6.6-1.1 0.2-2 1.2-2.9 2-2.2 2-2.9 4.2-1.8 7.2 1.5 3.8 3.8 6.9 6.8 9.7 17.7 16.8 35.3 33.7 52.9 50.5 9.1 8.7 18.3 17.4 27.4 26.1 0.4 0.4 0.9 0.8 1.4 1.3 2.2-2.1 4.3-4.1 6.4-6.1 22.9-21.9 45.7-43.7 68.6-65.6 3.4-3.2 6.8-6.3 10-9.6 1.7-1.8 3.1-4 4.5-6.1 1.3-1.9 1.1-4-0.6-5.5-1.9-1.7-4-3.3-6.2-4.6-1-0.6-1.4-1.1-1.3-2.2 0.1-1.5 0-3 0-4.5h70.3c0.3 3.3 0.4 5.9-2.3 8.5-47.4 45.1-94.8 90.3-142.1 135.5-2.6 2.2-4.9 4.4-7.4 6.9zM581.2 491.8c5-1.6 8.9-4.5 13.1-6.8 4.8-2.6 6.6-6.1 7-11.5 0.3-4.2 2-8.3 3.2-12.4 0.3-1.1 1.2-2.2 2-3.1 2.6-3.1 4.6-3.3 7.9-0.4 0-1.9-0.1-3.5 0-5 0.1-0.7 0.4-1.5 0.8-2 3.7-3.5 7.8-6.3 13.1-6.8 0.8-0.1 1.9-1.2 2.2-2.1 1.3-4.2 2.6-8.4 3.3-12.6 1.8-10.6 3.4-21.1 3.3-31.9 0-2.3 0.7-4.6 1.2-6.9 0.1-0.4 0.6-0.9 0.9-0.9 0.4 0 0.9 0.5 1 0.9 0.6 2.1 1.1 4.3 1.8 6.4 0.6 1.7 1.4 3.4 2.3 4.9 2.3 3.7 4.9 7.3 7.2 11 4.1 6.5 5.9 13.6 5.3 21.3-0.1 1.9 0 3.9 0 6 3.5 0.2 6.8 0.2 10.1 0.5 3.9 0.4 7.8 0.9 11.6 1.6 1.7 0.3 3.3 1.1 4.9 1.9 2.1 1.1 2.9 2.9 3 5.3 0.9 17.8-5.4 33.4-14.7 48-3.1 4.9-6.6 9.6-9.8 14.4-0.7 1-1.5 1.6-2.9 1.7-3.8 0.3-6.1 3.4-5.6 7.2l0.6 4.8c0.4 3.3-0.7 6.1-2.1 9-1 2.2-1.4 4.7-0.9 7.4 0.4 1.9-0.5 3.9-0.8 5.9-0.9 7.2-1.8 14.5-2.6 21.7-1 8.1-1.7 16.2-2.9 24.3-0.4 2.9-2 5.6-3 8.4-2.1 5.5-4.2 11.1-6.3 16.6-1.9-0.8-2.2-5-5.5-1.9-0.4-3.1-0.7-5.9-1.1-8.7-2.6-17.5-2.2-35.2-2.8-52.8l-0.3-10.2c0-1.7 0.3-3.4 0.3-5.1 0-1.3-0.1-2.7-0.1-4 0-2.7 0-5.3 0.1-8 0.1-2.3 0.4-4.6 0.3-7-0.1-3-0.4-6-0.6-9.2-1.3 0.2-2.4 0.3-3.4 0.7-2.1 0.8-3.8 0.2-5.5-0.9-5.8-3.6-8.6-8.7-7.9-15.6 0.3-2.6 0.4-5.3 0.5-8.1h-3.5c-0.4 2.2-0.6 4.5-1.3 6.6-2.6 7.6-8.3 12.3-15.3 15.6-3.3 1.6-6.7 3-9.8 4.9-3.2 1.9-4.9 4.8-4.7 8.9 0.2 3.7 0 7.5 0 11.2 0 1.7-0.9 2.5-2.5 2.9-1 0.3-1.9 1.1-2.8 1.7-0.4 0.2-0.8 0.8-1.1 0.7-2.6-0.4-5.2-0.6-7.6-1.5-3.8-1.4-5.4-4.7-5.6-9-2.7 1.4-5.3 2.7-7.8 4.2-0.4 0.2-0.5 1.3-0.5 1.9 0 1.3-0.3 2.2-1.9 1.9-1.6-0.3-2.2 0.4-3 1.8-1 1.7-2.6 3.2-4.4 4.3-5.7 3.5-12.1 4.9-18.4 6.5-2.5-3-3.5-6.1-3.7-10-0.5-6.7 2.4-12.3 4.6-18.2 0.1-0.4 0.6-0.7 1-0.8 3-0.7 5-2.8 6.8-5 4.6-5.6 7.6-12.1 10.9-18.8-0.9-0.4-1.8-0.7-2.6-1.1-4-1.9-7-4.9-9.4-8.4-2.3-3.3-4.4-6.8-6.2-10.4-0.7-1.4-0.5-3.4-0.4-5.2 0.2-1.9 0.7-3.7 1.2-5.5 0.1-0.6 0.5-1.5 0.8-1.6 0.6-0.1 1.4 0.3 1.8 0.7 1.6 1.5 3.1 3 4.6 4.6 0.9 1 1.7 1.1 2.9 0.6 4.6-1.9 9.2-3.7 13.8-5.5 1.3-0.5 2.5-0.9 3.6 0.3 0.2 0.2 0.7 0.4 0.8 0.3 2.2-1.1 4.8-1.9 6.4-3.6 4.2-4.4 8-9.2 13.1-12.6 7.5-5 8.5-4.2 16 0.4 1.8 1.1 2.3 2.8 2.5 5 0.8 10-2.3 19.3-4.7 28.8-0.4 2.2-1 4.6-1.8 7.4z m77-40.9c-0.2 2.9-0.5 5.7-0.7 8.4-0.2 2.9-0.4 5.5 1.5 8.3 1.5 2.2 1.4 5.7-0.3 8.2-1.4 2.1-2.1 4.1-1.9 6.6 0.1 1.5 0 3-0.1 4.5-0.1 3-0.3 6-0.5 9 0.1 0.1 0.3 0.1 0.4 0.2 2.3-4.4 4.7-8.9 7-13.4-0.7-0.3-1.1-0.5-1.6-0.8 0.2-0.6 0.3-1.1 0.5-1.6 2.3-7.8 4.5-15.7 7-23.4 0.6-1.9 0-3-1.5-3.9-2.9-2.1-6.2-2-9.8-2.1z m-99 38.3c-2.7 1.3-5 2.4-7.2 3.6-0.4 0.2-0.8 1-0.8 1.5 0.8 4 0.5 7.9-1.1 11.6-0.7 1.7-1.1 3.4-1.7 5.2 4.1 0.7 5.9-0.1 7.4-3.7 2.3-5.8 2.8-11.8 3.4-18.2z m55.9-30.7c3.2 3.2 6.4 6.2 9.4 9.4 1.2 1.2 2.3 1.8 4.4 1 0.3-4.8 0.7-9.8 1.1-15.3-5.3 1.7-10 3.3-14.9 4.9zM404 427.1c-4 0.3-7.9 0.2-11.6 1.1-5 1.1-9.9 2.9-14.8 4.6-2.2 0.7-4.1 0.9-6.2-0.1-0.6-0.3-1.2-0.4-2-0.6-0.1 0.5-0.3 0.9-0.4 1.6-3-0.8-5.9-1.7-8.4-3.6-0.4-0.4-1.1-0.9-1.1-1.3-0.2-2.8-0.7-5.8-0.1-8.5 0.4-1.6 2.4-3.2 4.1-4.1 5.3-2.9 11.1-4.2 17-5.1 9.1-1.3 18.3-2.3 27.4-3.5 5.4-0.7 8.9 2.3 11.9 6.1 2 2.5 2.7 5.4 2.5 8.6-0.6 7.4-1.1 14.7-1.7 22.1-0.1 1.5-0.5 3.1-0.8 4.7 2.4 0 4.7 0.3 6.9-0.1 14.2-2.5 28.4-5.4 42.1-10.1 3.3-1.1 6.6-2.5 9.9-3.8 0.5-0.2 1-0.5 1.5-0.6 4.5-0.3 7-3.3 8.2-7.1 1.6-4.9 2.6-10.1 3.6-15.2 0.4-2.2 0.5-4.4 0.6-6.6 0.1-3.1-1-4.4-4.1-4.9-0.7-0.1-1.4-0.2-2.5-0.3 0-2.5-0.3-5.1 0.1-7.5 0.2-1.2 1.7-2.1 2.4-3.2 1-1.6 2.3-1 3.6-0.8 5.8 0.9 9.8 4.2 12.5 9.2 3.3 6.1 4.9 12.8 5.2 19.7 0.2 3.3 0.1 6.5 0 9.8 0 1.2 0.4 1.8 1.4 2.2 1.7 0.7 3.5 1.6 5.1 2.5 0.5 0.3 1.1 0.9 1.1 1.4-0.2 4.3-0.3 8.6-1 12.9-0.5 3.7-2.2 6.7-6.7 7.4v7.5c-0.5 29.8-3.2 59.3-10.3 88.4-2.1 8.6-4.8 17.1-7.3 25.6-1.1 3.7-3.3 4.7-6.9 3.1-2.9-1.2-5.8-2.7-8.7-4.1-12.4-6-24.8-12-37.2-18.1-2.3-1.1-4.5-2.7-6.6-4.3-3.5-2.7-3.1-9.4 0.7-11.7 1.4-0.9 2.9-1.5 4.5-1.9 8.1-2.1 16.3-4.2 24.5-6.2 1.2-0.3 1.9-0.7 2.3-1.9 1.7-4.2 4.1-8.1 5.2-12.4 2.3-9.2 4.1-18.5 5.9-27.8 1.8-9.2 3.4-18.5 5.1-27.8 0.5-2.5-0.3-3.3-2.7-2.7-10.3 2.5-20.5 5-30.8 7.5-1.6 0.4-3.1 0.7-4-0.7-0.8 0.3-1.4 0.6-1.9 0.6-1-0.2-2-0.5-3-0.9-1.9-0.7-3.7-1-5 1.4-5.1-4-10.2-7.9-15.5-12.1-0.3 1-0.5 1.8-0.7 2.6-5.5 21.8-11.4 43.4-19.7 64.4-1.1 2.7-2.2 5.3-3.4 7.9-0.5 1.1-0.4 1.9 0.2 2.9 4.3 6.6 8.4 13.2 12.8 19.7 2 2.9 1.7 5.9 1.3 8.9-0.6 4.4-2.9 7.9-6.6 10.5-2.2 1.6-4.6 2.2-7.2 1.7-1.2-0.2-2.1-1.3-3.2-2-2.3-1.4-3-3.4-3.4-6.1-1.2-8.8-2.8-17.5-4.4-26.2-0.4-2.3-1.4-4.6-1.8-6.9-0.2-1.2 0.2-2.6 0.6-3.8 6.8-18.2 11.5-36.9 15.4-55.9 2.7-12.8 4.9-25.7 5.7-38.8 0.5-2.4 0.4-4.6 0.4-7.3zM932 479.9c-0.6 5.7-1.1 11.2-1.6 16.7h-7.6c-0.5 0-1.2-0.3-1.6-0.7-3.7-4.6-7.1-9.3-6.1-15.6 0.5-3.3 1.5-6.6 2.2-9.9 3.3-13.6 6.4-27.2 11.5-40.3 1.2-3.1 2.9-6.1 4.6-9.1 0.7-1.2 2-2 3.2-3.2 1.4 1.7 1.1 3.2 0.7 4.6l-4.2 18.9c-0.1 0.3-0.1 0.6-0.2 1.4 1.3-0.9 2.3-1.6 3.3-2.3 11-7.7 22.3-15 34.9-20.1 6.6-2.7 13.3-4.1 20.5-3.7 1.7 0.1 5 3.1 5 4.8 0.2 13.7 0.5 27.3-2.2 40.8-2.1 10.4-5.6 20.3-12.6 28.6-1 1.2-2.2 2.2-3.2 3.5-0.3 0.4-0.6 1.3-0.4 1.8 1.7 3.4 3.5 6.7 5.3 10.1 5.3-1.2 10.1-4.7 15.9-3.4 0.9 4 0.4 7.9-1.8 11.2-2.7 4.2-5.9 8.1-8.8 12.2-0.6 0.9-1.2 2.1-1.1 3.1 0.3 11.6 0.7 23.3 1.2 34.9 0.5 9.7-2.2 18.6-6.1 27.2-0.6 1.2-1.4 2.4-2.2 3.5-1.4 1.8-3.1 2.8-5.5 2.7-4.9-0.1-9.8-0.2-14.7 0-2.7 0.1-4.4-1.1-5.1-3.4-1.1-3.8-1.9-7.7-2.5-11.6-1.7-11.8 0.3-23.5 1.1-35.2 0.2-3.3 0.6-6.5 0.8-9.8 0.1-2.1-0.5-2.5-2.4-1.7-12.6 5.3-25.6 9.3-39.1 11.9-1.6 0.3-2.5-0.1-3.7-1.2-3.2-2.9-4.4-6.3-4-10.6 0.2-2 0.1-4 0.1-6.1 0-2.2 0.8-3 2.9-3.3 2.1-0.2 4.1-0.5 4.7-3.1 0.1-0.3 0.6-0.6 1-0.6 8.5-0.5 14.4-5.3 19.3-11.7 5.1-6.6 8.5-14.2 11.4-22 0.2-0.7-0.1-2-0.6-2.4-2.3-1.8-4.7-3.5-7.2-5-1.3-0.7-3.2-1.2-5.1-1.9z m4.1-16.6c4.8-3.1 9.6-6.4 14.5-9.4 2.4-1.4 3.9-3.1 4-5.9 0-1 0.4-1.9 0.7-2.8 1.4-4.4 2.2-5 6.8-5h1.2c2.6 0 5.3 2.7 5.3 5.3 0 4.3-0.1 8.6 0 12.9 0.1 2.3-0.7 3.9-2.3 5.5-4.7 4.8-7.8 10.5-8.3 17.3 0 0.6 0.3 1.7 0.7 1.9 4.4 2 8.5 1.5 12.3-1.5 2.9-2.3 4.8-5.3 6.3-8.6 3.9-8.2 5.3-17 6.6-25.9 0.7-4.9 1.2-9.8 0-14.8-0.3-1.1-0.6-1.9-2-1.7-2.3 0.2-4.6 0.1-6.8 0.4-1.8 0.2-3.6 0.7-4.3 2.8-0.1 0.3-0.9 0.6-1.5 0.6-4 0.4-7.6 1.7-11 3.9-2 1.3-3.9 2.7-5.7 4.2-6.7 5.7-12 12.9-16.5 20.8z m5.5 55.9c2-0.2 3.6-0.4 5.2-0.7 10.4-1.9 15.4-8.5 16-18.1 0.1-1.8-0.6-3.2-2.5-3.7-2.4-0.7-4.8-0.1-5.7 1.4-3.6 5.9-7.3 11.8-10.9 17.6-0.7 1.1-1.3 2.1-2.1 3.5zM875.6 460.5c3.9-2.3 7.8-4.5 11.6-6.9 0.5-0.3 0.9-1.1 0.9-1.7 0.9-13 1.8-26.1 2.6-39.1 0.1-1.7-0.1-3.6-0.9-5-0.6-1.1-2.4-1.5-4.1-2.4 0-1 0.2-2.5 0-4-0.4-2.9 0.9-4.9 3.3-6.2 0.5-0.3 1-0.5 1.6-0.6 6-0.4 11.3 2.5 14 7.9 3.1 6.2 3.5 12.9 3.6 19.7 0.2 6.3-2.1 12.2-3.2 18.2-0.5 2.6-1.2 5.2-1.7 7.8-0.1 0.6 0 1.5 0.3 2 2.8 5.1 1.2 11.2-3.8 14.1-5.3 3.1-11.3 4.4-17.2 5.7-3.2 0.7-3.2 0.6-2.7 4 0.4 2.8 0.8 5.6 1.1 8.5 0.5-0.2 1.1-0.3 1.6-0.6 3.7-1.5 7.5-2.8 11-4.6 4-2.1 8.2-2.5 12.5-2.1 1.1 0.1 2.5 0.9 3 1.8 3.1 5.3 4.8 10.9 0.7 16.5-1.9 2.6-4.2 5-6.6 7.1-1.2 1.1-1.5 1.9-1.5 3.4 0.5 8.4 0.8 16.8 1.2 25.3 0.1 1.9-2.2 5.4-4 5.9-0.6 0.2-1.6 0-2.2-0.4-5.5-3.4-8.5-8.2-8.4-14.7 0.1-4.3 0.5-8.6 0.9-12.9 0.2-2.7-0.2-2.9-2.9-2.7-4.2 0.3-6.2 2.3-7.7 6.4-2.5 7-5.9 13.8-9.4 20.4-1.5 2.9-4.1 5.4-6.5 7.7-1.6 1.6-3.8 2.2-6 1.1-3.4-1.6-6.7-0.4-9.9 0.3-3.3 0.7-5.8 0.1-8.1-2.6-3.9-4.7-6.2-9.7-6.3-16-0.1-6.7 1-13.1 2.2-19.6 0.1-0.6 0.6-1.4 1.1-1.7 11.2-8.4 16.1-20.1 17.1-33.7 0.4-5.1 0.5-10.3 0.1-15.5-0.1-1.8-1.7-3.5-2.8-5.2-1-1.6-1.2-6.6-0.3-8.3 0.7-1.2 1.4-1.4 2.7-0.8 6.6 3.3 12.1 8 16.5 13.9 2.3 3.1 4.3 6.3 6.6 9.6z" p-id="1093"></path><path d="M360 530c0.3-2.8 0.8-5.6 0.9-8.4 0.6-23.7 1.1-47.3 1.7-71 0-0.8 0.5-1.8 1-2.3 3.9-2.8 14.3-3.6 19 0.2 2.1 1.7 3.8 3.4 3.3 6.7-1.3 10.4-2.3 20.8-3.4 31.3-1.2 10.5-2.5 21-3.7 31.5-0.5 4.5-0.9 9-1.8 13.4-0.7 3-2.1 6-3.7 8.7-2.1 3.6-4.4 7.1-7 10.4-3.1 3.9-6.5 7.7-9.9 11.3-0.9 1-2.3 1.6-3.4 2.3-5.3-3.7-4.1-8.8-3.8-13.8 0.4-6 4-10.7 7.1-15.4 0.5-0.7 0.9-1.4 1.5-2.3-4-0.6-7.8-1.1-11.5-1.8-5.2-0.9-10.3-2.4-15-5-6.9-3.9-9.5-9.2-8.3-17.5 1.2 0.1 2.5 0.1 3.7 0.4 5 1.4 10.1 2.8 15.1 4.3 0.8 0.2 1.6 0.4 2.3 0.6 0.1-0.2 0.1-0.3 0.2-0.5-0.3-0.2-0.7-0.4-1-0.5-1.4-0.4-2.8-0.7-4.1-1.2-3.8-1.5-4.7-2.8-4.7-6.9 0-13.5-0.1-27.1 0-40.6 0-2.4 0.7-4.9 1.1-7.3 0.9-5.1 1.9-10.1 2.9-15.2 0.2-0.8 0.7-2.1 1.2-2.2 1.5-0.3 3.2-0.1 4 1.6 0.3 0.7 0.4 1.5 0.7 2.2 0.4 0.8 0.9 1.9 1.6 2.3 5.9 3.6 9.2 8.4 8.8 15.6-0.2 3.2 0.8 6.5 0.6 9.7-0.2 3.9-0.9 7.7-1.7 11.5-0.7 3.3-1.9 6.5-2.8 9.8-0.1 0.5 0.1 1.5 0.5 1.7 1.2 0.8 1.6 1.9 1.8 3.2 1.6 8.3 3.4 16.6 5 25 0.5 2.6 0.8 5.3 1.1 8 0.5 0.1 0.6 0.1 0.7 0.2zM411 500.7c-1.1-15.6 9.4-29.4 24.3-32 17.8-3.2 36.2 11.9 36.6 30 0.2 6.7-0.3 13.3-3.3 19.5-7.1 14.3-22.6 20-37.7 13.3-10.5-4.7-17.6-12.5-19.7-24.1-0.2-1.1-0.2-2.2-0.2-3.3v-3.4z m30.2-19.7c0.2 0.9 0.3 1.6 0.5 2.3 2 7.8 6.9 12.7 14.7 14.6 3.1 0.8 3 0.9 3 4 0 1.1-0.5 1.3-1.4 1.6-2.5 0.8-5.1 1.6-7.4 2.8-5.3 2.9-7.6 8-9.3 13.8 8.8-0.6 15.2-4.6 19.2-12 3.8-6.9 2.3-13.4-2.1-19.4-4.2-5.6-10-8.1-17.2-7.7z m-0.7 0.1c-0.4 0-0.7-0.1-1-0.1-6.6 1-12.2 3.9-16.4 9.1-5.4 6.7-5.8 12.9-1.1 20 4.4 6.6 10.6 9.8 18.7 10.1-1.1-4.9-3.1-8.9-7-11.6-2.9-1.9-6-3.5-9.1-4.8-1.6-0.7-1.9-1.5-1.8-3 0.1-1.5 0.3-2.4 2.1-2.8 8.8-2.1 13.5-8.3 15.6-16.9zM568.7 444.3c-3.7 0.7-5.9-0.8-8.1-3.8-4.1-5.7-9.8-9.7-16.4-12.4-1.1-0.5-1.7-1-1.7-2.2 0.1-2.1 0-4.2 0-6.3 0-1.5 0.8-2.5 2.4-2.4 9 0.7 18 1.3 26.7 3.9 3.1 0.9 6.1 2.7 9 4.2 1.5 0.8 2.1 2.2 1.9 4-0.3 2.2-0.1 4.5-0.7 6.6-1 4-4 6.4-7.6 7.9-1.5 0.7-3.6 0.4-5.5 0.5zM957.3 401.6c-0.6-2.7-1.9-4.4-4.8-4.7v-8.5c6.8 1.2 13.5 2.1 19.1 6.5 3 2.3 4.4 8.3 2.8 12-0.7 1.6-1.2 3.3-2 5.2-1.8-0.6-3.5-1.2-5.2-1.6-1.1-0.2-2.3-0.4-3.3 0-6.8 2.2-13.6 4.6-20.4 6.8-0.2 0.1-0.5 0-0.9 0-0.5-2.8-0.7-5.6 2-7.4 3.6-2.5 7.3-4.8 10.9-7.2 0.5-0.4 1.1-0.7 1.8-1.1z" p-id="1094"></path></svg>