<?xml version="1.0" standalone="no"?><!DOCTYPE svg PUBLIC "-//W3C//DTD SVG 1.1//EN" "http://www.w3.org/Graphics/SVG/1.1/DTD/svg11.dtd"><svg t="1574760060179" class="icon" viewBox="0 0 1024 1024" version="1.1" xmlns="http://www.w3.org/2000/svg" p-id="5725" xmlns:xlink="http://www.w3.org/1999/xlink" width="200" height="200"><defs><style type="text/css"></style></defs><path d="M727.5 341.7c-0.3 125.4-102.9 227.1-228 226.2-125.5-1-226.5-103.1-225.9-228.6 0.6-124.1 103-225.5 227.4-225.3 125.4 0.2 226.8 102.1 226.5 227.7zM500.2 170.3c-23.8 47.1-59.6 79.5-98.8 109.3-12.8 9.7-24.5 22.4-32.7 36.1-23.5 39.1-2.2 85.9 42.2 97.1 24.9 6.3 47.9 1.3 72.3-11.8-5.6 26.3-15.3 47-33.9 63.4-4.6 4.1-7.5 10.2-12.9 17.9H566c-21.3-26.5-46.2-46.7-47.1-76.5 18.2 3.3 35.7 8.8 53.2 9.2 27.6 0.6 49.2-12.8 62.2-37.4 13-24.6 8.5-48.8-7.5-70.1-8.7-11.6-19.7-22.1-31.3-30.8-38.1-28.6-72-60.6-95.3-106.4zM438.4 848.3c10.9 1 21.9 2.1 33.6 3.2v-78.8h-91.7c0.7-12.8 0-24.6 2.3-35.9 5.1-25.8 11.5-51.4 17.9-76.9 0.8-3.2 4.9-7.9 7.5-7.9 67.5-0.4 135-0.3 204.1-0.3-2.6 8-4.2 15.6-7.6 22.1-1.4 2.7-7 4.4-10.6 4.5-42.9 0.3-85.9 0.2-128.8 0.2h-13.3c-5 21.8-9.9 43.3-15.1 65.9h35.8v-51.8h55.4v52.3h92.5v27.3h-91.9v107.1c-25.4 0-49.5 0.1-73.7-0.1-1.7 0-4.4-1.7-5-3.3-4-9.1-7.5-18.5-11.2-27.7l-0.2 0.1zM354.1 664c4 0.9 6.8 1.4 10.1 2.2v24.4c-2.8 0.6-5.5 1.2-8.9 2v103.7c4.5 0.5 9 1 14.5 1.6v24.7H226.7v35.5H207c-1.5-48-3-95.7-4.5-144.3h19.3c0.8 19.1 1.6 38.7 2.4 58.3 0.2 5.5 0.7 11 0.3 16.5-0.5 7.6 2.4 10.1 11.1 7.6v-42-51.6c0-9.5-0.1-9.5-9.2-12.7v-23.2c2.9-0.8 5.6-1.5 9.3-2.5v-25.3h47.8v25.8h22.2V639h48.5c-0.1 8-0.1 15.9-0.1 25z m-69.9 28.1v16.4h20.6v-16.4h-20.6z m20.9 44.1h-20.6v16h20.6v-16z m0.3 44.2h-20.9v15.8h20.9v-15.8zM773.7 880.6c-12.7 0-25 1.2-36.7-0.6-4.7-0.7-8.4-8-12.7-12.4 0.5 14.6-10.5 13.5-21.3 13.1-8-0.3-16-0.1-23.8-0.1-0.2-1.4-0.4-1.8-0.3-2.1 15.6-40 11.8-82 11.9-123.5 0.1-13.2 0.6-26.4-0.2-39.5-0.6-9 3.5-18.3-5.5-27-3.8-3.7-0.6-14.5-0.6-22.7 7-0.4 13-0.8 20.1-1.2-2.1-8.6-4-16.6-6.2-25.5h49.5c2.2 8 4.6 16.6 7.1 25.5 5.7 0.3 11.1 0.7 17 1v25.6h-40.6v32.5h42.2c0.1 52.4 0.1 103.8 0.1 156.9z m-39.3-129.1c-1.4 0.9-2.8 1.7-4.2 2.6v99.7c2.9-0.2 6.4-0.3 10.4-0.6 0-32.1 0.1-63.1-0.3-94.1 0.1-2.5-3.8-5-5.9-7.6z" p-id="5726"></path><path d="M787.6 719.5h-20.1c7-27.3 13.7-53.7 20.5-80.5h44c-1.5 6.8-3 13.3-4.8 21.4h47.9v28h-55.6c-2.3 8.8-4.4 16.8-6.8 26.1h56.9c-0.1 14.8 3.7 28.6-7 41.2-6.1 7.2-14.2 14.6-9.6 27.4h23.7v26.7H852v70.8c-17.9 0-34.7 0.1-51.4-0.2-1.9 0-4.6-2.3-5.5-4.1-2.9-6.6-5.2-13.5-8.2-21.7 6.7-0.4 12.3-0.7 18.8-1.1v-43.4h-26.3v-26.8h27c-2.5-16.7 5.3-28.7 17.9-41.1h-35.8c-0.3-8.3-0.6-15.2-0.9-22.7zM152.6 700.5h-26.9v-26.7h26.4v-35h44.8v34.4h23.3V700h-22.4v179.7h-45.2V700.5zM438.6 847.9c-0.6 0.9-1.6 1.8-1.8 2.7-2.4 19.2-14.8 21.8-31.2 19.9-9.6-1.1-19.5-0.2-31.2-0.2 4.3-12.4 8-23 11.7-33.5 5.4-15.1 11-30.2 16-45.4 1.8-5.5 4.1-8.3 10.6-8.1 15.4 0.6 30.7 0.2 46.9 0.2-7.3 22.1-14.3 43.4-21.4 64.7 0.2 0.1 0.4-0.3 0.4-0.3zM541.2 783.5c17.4 0 32.8-0.2 48.2 0.2 2.5 0.1 6.5 2.2 7.3 4.3 10.6 26.7 20.7 53.6 31.6 82.3-18 0-34.4 0.2-50.7-0.2-2-0.1-4.9-3-5.7-5.2-10.3-26.6-20.2-53.3-30.7-81.4zM638.3 777.2h45c-2.7 34.1-5.5 68.1-8.3 102.7h-45.8c3.1-34.2 6.1-68.2 9.1-102.7z" p-id="5727"></path><path d="M144.6 858.2h-20.2c1.2-48.1 2.3-96 3.5-144.6H148c-1 47.9-2.2 95.6-3.4 144.6zM686.1 767.2h-45c-3.7-19.7-7.5-39.3-11.3-59.8h45.6c3.5 19.8 7 39.4 10.7 59.8zM627.4 638.8c14.2 0 26.6-0.3 38.9 0.2 2.4 0.1 6.2 2.9 6.6 5 3.7 17.4 6.7 34.9 10.2 53.3h-44.8c-3.4-18.5-7-37.6-10.9-58.5zM302.2 830.8c16.7 0 31.3-0.2 45.8 0.2 2.5 0.1 6.2 2.6 7.2 4.9 6 14 11.3 28.3 17.7 44.6-16.9 0-32.4 0.2-47.8-0.2-1.7 0-4-2.8-4.9-4.8-5.9-14.1-11.4-28.3-18-44.7zM223.6 880.6c6-16.2 11.2-30.9 17-45.4 0.9-2.1 4.9-4.2 7.5-4.3 13.5-0.4 27.1-0.2 42.8-0.2-6.1 16.3-11.6 31.5-17.6 46.5-0.7 1.8-4.6 3.1-7.1 3.2-13.5 0.4-27 0.2-42.6 0.2z" p-id="5728"></path></svg>