<?xml version="1.0" standalone="no"?><!DOCTYPE svg PUBLIC "-//W3C//DTD SVG 1.1//EN" "http://www.w3.org/Graphics/SVG/1.1/DTD/svg11.dtd"><svg t="1574995248600" class="icon" viewBox="0 0 1024 1024" version="1.1" xmlns="http://www.w3.org/2000/svg" p-id="1784" xmlns:xlink="http://www.w3.org/1999/xlink" width="200" height="200"><defs><style type="text/css"></style></defs><path d="M502.3 216.5c0.7-3.8 1.6-7.6 2.1-11.5 1-7 1.3-14.3 3-21.1 2.9-11.7 13.2-18.8 25.3-17.6 23.4 2.3 46.8 5.1 70.2 7.7 36.3 4 72.6 8 109 12 25.6 2.8 51.1 5.6 76.7 8.4 14.2 1.6 23.2 13.2 21.6 27.7-5.2 46.9-10.5 93.9-15.7 140.8-4.7 42.8-9.4 85.6-14.1 128.3-3.8 34.4-7.6 68.8-11.4 103.3-1.7 15.1-15.1 25.1-31.3 23.3-43-4.7-86.1-9.5-129.1-14.2-40.6-4.4-81.3-8.9-121.9-13.2-8.3-0.9-14.7-4.3-19.1-11.5-2.5-4.1-5.8-5.9-10.9-4.9-44 8.2-87.9 16.2-131.9 24.3-12.3 2.3-24.6 4.5-36.8 6.8-15.7 2.9-27.8-5.3-30.8-21-4.2-21.9-8.2-43.8-12.2-65.7-7.8-42-15.6-83.9-23.4-125.9-10.9-59-22-118-32.8-177-3-16.2 6.2-28.7 22.2-31.6 82.6-15 165.1-30.1 247.7-45.1 16.7-3 27.8 4.1 31.2 20.4 2.1 10.2 3.8 20.5 5.7 30.7 1.5 8.4 3.1 16.7 4.7 25.1 0.1 0.6 0.5 1.1 0.8 1.6 0.3-0.1 0.7-0.1 1.2-0.1z m13.6 229.8c-5-0.3-9.5-0.1-13.9-0.8-12.7-2.1-22.1-9.8-30.4-19.1-20.5-22.8-41.1-45.6-61.7-68.3-10.6-11.7-21.4-23.2-32.1-34.8 1.3-2.5 2.5-4.9 3.8-7.2 9.3-17.5 18.3-35.2 28.1-52.4 8.6-15.2 20.8-27 37.2-33.7 3.7-1.5 7.7-2.6 11.9-4-1.2-5.6-2.3-11.3-3.5-17.3-9.4 2-18.3 3.9-27.3 5.8-21.2 4.5-42.3 8.9-63.5 13.4-1 0.2-2.8 1.6-2.7 2.1 0.9 5.3 2.2 10.6 3.4 15.9 1.2-0.1 1.8-0.2 2.4-0.3 5.2-0.2 10.4-1 15.5-0.5 4.6 0.5 6 3.3 4.6 7.6-2.2 6.6-4.3 13.3-6.9 19.8-12.5 31.1-28.5 60.5-44.8 89.7-1.3 2.3-2.6 4.6-4.2 7.4-0.5-1.9-0.8-3.1-1-4.4-3.8-17.9-7.7-35.8-11.3-53.8-2.3-11.1-4.8-22.2-6.2-33.4-1.5-12.5 3.7-19.7 15.6-23.8 2.7-1 5.5-1.7 8.4-2.7-1.2-5.9-2.4-11.5-3.6-17.3-35.2 7.4-70.1 14.8-105.2 22.2 1.3 6.1 2.5 11.7 3.8 17.4 2.6-0.4 5-0.8 7.4-1.1 12-1.6 18.6 2.1 23 13.4 1.9 5.1 3.5 10.4 4.6 15.7 10 46.5 19.8 93 29.6 139.6 2 9.4 3.9 18.9 5.1 28.5 1.6 12.6-2.7 19.1-14.7 23.3-3 1.1-6 1.8-9.3 2.8 1.1 5.1 2.1 10 3.3 15.2 35.9-7.6 71.4-15.1 107.2-22.6-1.2-5.4-2.2-10.3-3.3-14.9-2.7 0-4.9-0.1-7 0-16.1 0.7-24.2-4.6-28.2-20.1-3.6-14-5.8-28.4-9.5-42.4-2.4-9.1-2.5-17.2 3.2-25.1 2.1-2.9 3.3-6.6 5-9.8 1.1-2.2 2.3-4.4 3.6-6.9 3.1 3.5 5.9 6.5 8.5 9.5 27.3 31.3 54.6 62.5 81.8 93.9 2.5 2.9 4.7 3.7 8.4 2.8 13.9-3.2 27.8-6 41.8-8.9 8.7-1.8 17.3-3.7 26.3-5.6-1.1-5.3-2.2-10.1-3.2-14.8z m155.6 56.1c-5.7-1.8-11-3.2-16.1-5-8.1-3-11.9-9.1-12.2-17.6-0.1-2.7-0.1-5.4 0.2-8 3.2-22.8 6.7-45.6 9.6-68.4 0.8-6.3 3.6-11.1 7.4-15.9 11.2-13.9 22.3-27.8 33.3-41.8 9.6-12.1 18.7-24.5 28.7-36.2 9.3-10.8 20.8-18.8 35.2-21.3 4.7-0.8 9.5-0.7 14.5-1 0.8-5.6 1.6-11.2 2.4-17.1-29.9-4.3-59.3-8.6-89-12.9-0.9 6.1-1.6 11.7-2.5 17.5 1.6 0.3 2.9 0.5 4 0.9 5.1 1.8 10.5 3.1 15.3 5.6 5.6 2.9 7.1 7.4 4.6 13.3-2.5 5.8-5.3 11.7-9.1 16.6-15 19.4-30.5 38.5-45.8 57.7-1.6 2-3.5 3.8-5.3 5.7-10.3-26.7-20.6-53-30.5-79.4-2.1-5.6-3.3-11.7-4.1-17.7-0.7-5.4 1.9-8.4 7.3-9.4 3.2-0.6 6.6-0.6 9.8-0.6 2.8 0 5.5 0.4 8.6 0.7 0.9-5.9 1.7-11.5 2.6-17.5-36.8-5.4-73.2-10.7-109.9-16-0.8 6.2-1.5 11.9-2.3 17.7 10.3 1.7 17.4 7.6 22.5 15.7 3.3 5.2 6.5 10.7 8.7 16.5 14.5 37.7 28.7 75.5 43 113.3 0.6 1.5 0.7 3.3 0.5 4.8-2.7 19.4-5.4 38.8-8.4 58.2-2.9 18.9-14.1 27.2-33.3 25.1-1.5-0.2-2.9-0.3-4.5-0.4-0.6 4.3-1.1 8.2-1.8 12.1-0.4 2.6 0.4 3.5 3.1 3.9 32.9 4.7 65.7 9.5 98.6 14.3 4.2 0.6 8.4 1.2 12.8 1.8 0.7-5.6 1.4-10.4 2.1-15.2zM532.3 779.1h-24.4v-24.7h26.6v-22.1c0-9.6 0-9.6 9.3-8.5 4.2 0.5 8.4 0.6 12.6 1.1 4.4 0.5 4.5 3.5 4 7.1-1.1 7.1-1.9 14.3-2.9 21.9h15c1.7-3.8 2.4-8.9 5-10.3 3.3-1.7 8.2-0.4 13.4-0.4 0-5.5 0.1-10.6 0-15.7-0.1-3.9 1.4-5.4 5.5-4.8 5.4 0.7 10.8 0.9 16.2 1.3 5.2 0.3 5.6 3.6 4.8 7.6-0.7 3.5-1.2 6.9-2 11.1H644c0-4.6 0.1-9.6 0-14.5-0.1-3.9 1.4-5.4 5.4-4.9 5.4 0.7 10.8 0.7 16.2 1.4 6.1 0.9 7.3 3.8 4.8 9.3-1.1 2.5-1.5 5.4-2.5 9.1h20.9v25.1h-19.7v74c4.9 0 9.6 0.2 14.3-0.1 3.6-0.2 5.3 1.2 5.1 4.8v0.6c1 19 1 19-17.9 19h-8.7c-0.3 0.7-0.6 1.3-0.9 2 8.2 5.9 16.3 11.9 24.6 17.6 4.7 3.2 5.2 5.4 1 9.1-4.6 4.1-9.4 8.1-14.9 12.9-11.8-9.7-23.6-19.3-35.2-29.2-5.4-4.6-0.6-8 2.5-12h-16.4c0.9 1.7 2 3.3 2.6 5.1 1.1 3.5 1.1 6.2-3.4 8.1-4.5 1.9-8.4 5.3-12.6 8-9 5.7-18.1 11.2-27.1 16.9-2.7 1.7-4.4 1.5-6.6-1-2.9-3.3-6.3-6.2-9.6-9.1-4-3.6-3.6-5.8 1.1-8.4 10.7-5.7 21.3-11.7 31.9-17.5-0.3-0.8-0.6-1.6-0.8-2.4-8.1 0-16.2-0.4-24.2 0.1-5.6 0.3-7-2-6.8-6.9 0.2-5.6 0.1-11.2 0.1-17.4h23.4v-73.3h-11.9c2.3 17.3-11.5 7.5-18.3 11.3 4.4 11.8 11.2 22.2 20 31.4 1.4 1.5 3.6 2.6 4.1 4.3 0.7 2.4 1.2 6-0.1 7.7-4 5.2-8.9 9.7-14 15-1.8-1.7-3.7-3.3-5.5-5.1-1.8-1.8-3.5-3.8-6.2-6.7v80.7c-7.5 0-14.3 0.3-21-0.3-1.2-0.1-2.9-3.8-2.9-5.9-0.3-15.3-0.1-30.5-0.1-45.8 0-2.8 0-5.6-1-8.7-3.6 5.8-7.1 11.7-11 17.9-6.7-4-13.4-7.6-19.5-12-1.1-0.8-0.8-5.8 0.6-7.6 13.3-17.8 22.3-37.6 27.4-59.1 0.2-2.4 0.6-4.4 1.1-7.1z m83.8 29.1h27.4v-7.4h-27.4v7.4z m0 33.5h27.3v-7.5h-27.3v7.5z m0.1-65.9h27.2v-7h-27.2v7zM853.9 739.7h40.4c0.3 2.8 0.9 5.3 0.9 7.8 0.1 23.3-0.1 46.6 0.1 69.9 0 5.7-1.3 8.3-7.7 7.8-9-0.6-18-0.2-27.7-0.2-1.2 6.3-2.3 12.4-3.6 19.3h41.5v27.9h-40.4v35.7H833v-35.3h-48.2c0-9-0.1-17.4 0.2-25.7 0-1.2 2.3-2.3 3.8-3.6-2.7-3.6-1.7-6.3 3-8.8 4.1-2.2 7.7-5.4 11.8-8.3-0.9-0.7-1.2-1.1-1.5-1.2-8.6-0.4-8.6-0.4-8.6-9.2v-67.5c0-2.7 0.4-5.5 0.6-8.7 9.4 0 18.2-0.4 27 0.1 5.3 0.3 7.5-1.6 8.5-6.5 0.8-4.3 2.6-8.4 3.4-12.8 0.6-3.3 2.1-3.9 5-3.5 5.8 0.9 11.6 1.5 17.3 2.6 6.4 1.3 7.7 5.9 3.7 11.1-1.9 2.6-3.1 5.5-5.1 9.1z m16.4 52.9h-11.7c-8.3 0-8.3 0-9.2 8.5h20.9v-8.5z m-13.8-28.8c-0.2 2.9-0.3 5.6-0.5 8.1h14.1v-8.1h-13.6z m-36.3-0.1v8.4h13.3c0.3-2.8 0.6-5.4 0.9-8.4h-14.2z m12.5 65.6c-4.9 5.4-9 9.9-13.5 14.8h13.5v-14.8z m-12.9-27.8c6.1-0.3 5.6-5.1 7.3-8.4h-7.3v8.4zM350.8 811.8c-13.8 0-27-0.2-40.3 0.1-5.2 0.1-7.3-1.3-6.9-6.7 0.4-6.2 0.1-12.4 0.1-18.7 0-3 0.9-4.8 4.5-4.8 57 0.1 114.1 0.1 171.1 0.1 0.6 0 1.1 0.3 2.7 0.7 0 8.8 0.2 17.7-0.2 26.7 0 0.9-3.3 2.5-5 2.5-15.1 0.2-30.1 0.1-45.2 0.1h-7.1v32.4c0 7 0.1 14.1 0 21.1 0 5 2.4 7.4 7.4 7.3h10.2c9.8 0 10.6-0.5 13.9-9.6 1.3-3.6 2.3-7.2 3.7-11.3 8.3 3.6 16.4 6.8 24.2 10.7 1.3 0.7 2 4.3 1.7 6.3-1 5.3-2.4 10.6-4.4 15.6-5 12.9-12.2 18.4-25.3 17.2-13.4-1.1-26.9-0.2-40.3-0.3-13.6-0.1-19.9-6.4-20-20-0.1-20.7 0-41.4 0-62.1v-6.9h-13.8c-1.1 9.8-2 19.5-3.2 29.2-2.5 20.7-12.6 36.6-30.5 47.1-10.3 6.1-21.4 11-32 16.5-3.1 1.6-4.9 1.1-6.8-2-3.6-5.8-7.8-11.2-11.9-16.7-3.6-4.8-3-6.5 2.5-8.5 8.3-3 16.6-5.9 24.6-9.6 17-7.8 24.8-22.1 26.3-40.2 0.4-5 0-10.2 0-16.2z" p-id="1785"></path><path d="M722 730.6c8.3 0.8 15.4 1.3 22.6 2.1 5 0.6 4.3 4.4 3.9 7.8-1 9.8-2.1 19.6-3.2 29.8h14.3v-13.4c0-3.8-0.1-7.6 0-11.5 0.4-16.6-3.3-15 15.8-13.8 2.2 0.1 4.4 0.6 6.6 0.9 4.9 0.7 5.2 3.8 4.7 7.9-1.1 9.8-1.9 19.6-2.8 29.7 3.3 0.4 5.3 0.6 8.2 1 0 7.8 0.2 15.5-0.2 23.3-0.1 1.1-3.3 2.8-5.1 2.9-13.2 0.2-26.4 0.1-40 0.1v10.4h35.5v99.4c-6.7 0-13.5 0.3-20.2-0.3-1.1-0.1-2.7-3.9-2.7-6-0.2-18.1-0.1-36.2-0.1-54.2v-13.1h-12.2c-2.2 12.5-4 25.3-6.8 37.9-2.2 9.7-5.7 19.2-9 28.6-0.6 1.6-3.4 3.5-5 3.4-8-0.6-15.9-1.9-24.7-3 0.9-2.4 1.4-4.9 2.6-7 9.5-16.1 14.6-33.7 15.5-52 1.6-33.7 1.7-67.4 2.5-101.1-0.1-2.8-0.2-5.6-0.2-9.8zM233.1 878.4c4.3 0 8.3 0.3 12.2-0.1 4.3-0.4 7.7-2.1 7.7-7.4-0.2-23.5-0.2-47-0.4-70.5 0-1-0.1-2-0.2-3.9h-11.3c-13.5 0-26.9-0.2-40.4 0.1-4.6 0.1-6-1.5-6-5.8 0.1-19.7 0-39.4 0.1-59.1 0-2.5-0.4-5.5 3.8-5.4 26.3 0.1 52.6 0 79.6 0 0.1 2.9 0.3 5.4 0.3 7.9v136.2c0 4.8 0.2 9.6 0 14.4-0.4 8.8-5.2 15-13.1 17.8-6.9 2.5-14.3 3.3-21.6 4.6-1.2 0.2-3.6-0.8-3.9-1.7-2.7-8-5-16-7.4-24.1-0.1-0.8 0.4-1.9 0.6-3z m-11.7-124.7h31.2c-0.1-2.5-0.3-4.6-0.4-6.5h-30.8v6.5z m31 17.4H221c0.2 2.3 0.3 4 0.4 5.7h31v-5.7z" p-id="1786"></path><path d="M181.3 859c-3.3 17.9-13.1 31.6-27.3 42.5-3.1 2.4-5.2 2.8-8.2 0-3.6-3.2-7.6-5.9-11.3-9-4.3-3.5-4.2-5.9 0.5-9.3 8.4-6.1 15.5-13.2 18.7-24.7-6.2 0-11.8-0.2-17.3 0.1-3.7 0.2-5-1.3-4.9-4.9 0.2-5 0.1-10 0-15.1-0.1-3.6 1.4-4.9 5.1-4.8 6.8 0.2 13.6 0.1 20.7 0.1v-9.6c-4.8 0-9.5-0.2-14.2 0.1-4 0.2-5.2-1.5-5.4-5.2-1.2-19.3-1.3-19.3 17.9-19.3 26.5 0 53 0.1 79.5-0.1 4.9 0 6.6 1.4 6.7 6.4 0.4 17.9 0.5 17.9-17 18.2-1.6 0-3.1 0.2-5 0.3v9.2c7.2 0 14.4-0.2 21.6 0.1 1.6 0.1 4.5 1.8 4.6 2.9 0.4 6.9 0.2 13.9 0.2 21.4h-26.6v32.9c0 12.4 0.1 9.7-10 10-4.6 0.1-9.2 0-14.6 0V859h-13.7z m12.8-34.2h-10.2v8.8h10.2v-8.8z" p-id="1787"></path><path d="M125.4 796.6v105.5h-24.9V726.8c1.4-0.1 2.9-0.4 4.4-0.4 24.5 0 49 0.1 73.5-0.1 5.1-0.1 6.1 1.9 6.1 6.3-0.1 19.5-0.2 39 0 58.5 0 4.6-1.7 5.7-6 5.7-15.3-0.2-30.5-0.1-45.8-0.1-2.1-0.1-4.3-0.1-7.3-0.1z m0.6-25.7v5.8h32.6v-6.2h-28.1c-1.3 0-2.7 0.3-4.5 0.4z m32-24.1h-32.1v6.5H158v-6.5zM324.1 758.7v-25.4c0-3.2 1.6-4.1 4.5-4 5.2 0.1 10.4 0 15.7 0 37.1 0 74.3 0.1 111.4-0.1 5.4 0 7.1 1.8 7 6.9-0.2 6.2 0 12.5-0.1 18.7 0 2.9-0.7 4.9-4.5 4.8-43.8-0.1-87.5-0.1-131.3-0.2-0.6 0-1.1-0.3-2.7-0.7z" p-id="1788"></path></svg>