<?xml version="1.0" standalone="no"?><!DOCTYPE svg PUBLIC "-//W3C//DTD SVG 1.1//EN" "http://www.w3.org/Graphics/SVG/1.1/DTD/svg11.dtd"><svg t="1574996090039" class="icon" viewBox="0 0 1024 1024" version="1.1" xmlns="http://www.w3.org/2000/svg" p-id="3690" xmlns:xlink="http://www.w3.org/1999/xlink" width="200" height="200"><defs><style type="text/css"></style></defs><path d="M362 528.4c-8.2-3-14.4-5.1-20.5-7.5-10.5-4.2-21.3 0-27.2 11.8 8.2 0.5 16.1 0.1 23.5 1.6 5.4 1.1 11.3 3.9 15.1 7.8 4.1 4 1.7 8.3-4.2 8.9-5.8 0.6-10.2 2.3-10.3 10.6-3.8-2-6.8-3.3-9.4-5-4.2-2.8-7.7-2.5-11.1 1.3-1.4 1.6-2.7 3.2-4.3 4.5-7.9 6.7-8.5 9.7-0.5 16.1 6.6 5.2 14 10.5 22 12.7 6 1.7 13.4-1.4 20.7-2.5 4.4 8.1 2.4 28.4-4.3 36.4-3.5 4.1-7.9 4.6-11.8 1.2-14.8-12.8-29.4-25.7-43.8-39-2.1-1.9-2.9-6.1-2.8-9.2 0.2-8.1 0.9-16.2 2.2-24.1 0.9-5.6-0.1-9.9-3.8-14.3-6.5-7.8-5.5-11.7 3.1-16.8 8-4.7 16.1-9.3 25.7-14.8-12.6-5.5-23.4-10.2-35.9-15.7-0.5 11.9-1.5 22.5-1.3 33 0.7 30.5 1.9 61 9 90.9 6.6 27.8 20.3 39.9 49 41.5 11.4 0.6 23-0.1 34.4-0.7 18.8-0.9 23.7-4.5 30.4-27.5 4.6 7 8.9 13.3 13.1 19.7 1-0.3 1.9-0.6 2.9-1-0.5-3.8-0.2-8-1.7-11.4-5.6-13.2-11.8-26.1-17.8-39.1-1.5-3.2-3.1-6.3-4.2-8.6 22.2 17.6 44.7 35.4 67.4 53.5v-9c11 15 21.2 28.1 30.5 41.7 5.4 7.8 3.8 15.8-2.5 22.9-10.5 12.1-24.4 16.5-39.8 17.1-21.5 0.9-41.7-5.7-62-11.7-22.5-6.7-44.8-13.8-67.4-20.1-9.8-2.7-19.3-3.4-28.9 3.5-8.3 5.9-13.9 3.8-18.1-5.8-7.2-16.5-17.4-30.8-28.4-44.8-2-2.5-2.7-7.3-1.8-10.5 5.5-21.1 13.2-41.8 17-63.2 3.6-20.6 4.9-42 4.3-62.9-0.5-18.2-10.2-33.9-21.8-50.2-6.2 13.8-8.5 26-2.6 39.6-18.7 6.3-18.4 23-19.1 38.1-0.9 19.2-0.5 38.6 0.9 57.8 0.7 9.7 4.8 19.1 7.1 28.7 3.7 15.2 8.3 30.2 10.5 45.6 2.1 15.1-4.4 23.7-17.5 28.4-0.2 0.5-0.4 0.9-0.5 1.4-0.4 3.9-0.7 7.8-1 11.8-3.5-2.3-7.7-4-10.3-7-14-16-25.1-33.9-33.2-53.6-0.6-1.4-1.2-2.9-1.6-4.4-0.2-0.6 0.3-1.4 1-4.6 8.1 6.3 15.4 11.9 22.7 17.6 0.7-0.3 1.3-0.6 2-0.8-0.4-5-0.5-10-1.4-14.9-3.9-20.5-9.6-40.8-3.2-61.9-0.6-0.2-1.2-0.5-1.8-0.7-1.1 1.7-2.2 3.4-3.2 5.2-6.6 11.8-12.9 23.9-19.9 35.5-8.2 13.5-9.9 13.5-21.4 2.6-0.9 10.7-1.4 21.2-2.9 31.5-2.9 19.7-11.6 36.7-26.5 50.1-2.5 2.3-6.2 3.2-9.3 4.7-1.4-3.2-3.7-6.3-4-9.6-1-10.6-1.9-21.3-1.8-32 0.1-10.1-3-18.7-8.3-27.1-10.3-16.3-11.1-19.2 2.4-32.7 18.1-18.2 24.2-41 28.6-64.4 2.4-12.9 5.7-24 17.6-30.9 2-1.2 4.2-2.2 6.3-3.3-0.9-1.1-1.8-2.3-2.7-3.4-3.5 1.8-7.3 3.3-10.4 5.5-16.9 12-33.9 23.6-54.8 27.5-4.7 0.9-5.2 3.6-3.8 7.4 1 2.6 2.1 5.1 3.6 8.7-5.3-1.2-9.4-2.2-15.7-3.7 3.6 3.3 5.7 5.2 8.1 7.3-20.9 5.5-37.6-1.1-48.1-18.5-7.1-11.9-12.7-31.2-11.7-40.8 3.7 2.8 7.3 5.5 10.9 8.2 0.7-0.7 1.5-1.4 2.2-2.1-2.5-4.6-5-9.2-7.7-14.3 1.3-1 2.7-2 4.5-3.2-7.9-15.3-10.5-31.5-7.6-50.4 1.7 2.2 2.5 2.9 2.8 3.7 7.2 20.9 22.8 32 43.8 35.6 35 6 68.9-0.1 101-13.7 18.8-8 36.2-19.3 55-29.6-10.7-6-32.5-7.2-45.6-1.7-9.5 4-18.7 9.3-27.4 14.9-13.3 8.6-27.9 12-45.1 14 1.9-3.2 2.7-5.1 3.9-6.4 7.3-7.9 7.5-14.1 0.6-22.3-3.9-4.6-7.8-9.2-11.6-13.8 0.5-0.7 0.9-1.3 1.4-2 2.6 0.6 5.2 1.1 7.8 1.7 6 1.6 11.9 3.7 18 4.9 11 2.2 16.3-1.2 20.3-12.6-20.3-2.8-35.3-14.3-50.2-30 9.9 1.6 17.5 3.8 25.1 3.7 5 0 9.9-3.3 14.9-5 3-1.1 6.3-3.2 9.2-2.8 17.5 2.4 33.9-8.6 37.3-25.7 1.3-6.3 2.9-12.6 4.4-18.9 0.1-0.5 0.6-1.2 0.4-1.5-8-11.5 3.9-14.6 9.1-19.6 4.9-4.7 11.6-7.4 19.6-12.2-1.4 6.6-2.3 10.8-3.2 14.9 4.6-1.1 8.7-2.1 12.8-3.1 0.1 0.5 0.2 1.1 0.3 1.6 4.7-3.5 9.5-6.9 14.2-10.4 0.5 0.4 1 0.7 1.5 1.1-1.9 6.8-4.1 13.6-5.6 20.5-1.4 6.8-2 13.8-3.2 22.1 8.1-6.4 12.2-3.4 15.7 3.7 1.9 3.9 5.7 6.7 8.4 10.2 6 7.7 5.7 9.8-2.6 14.5-14.9 8.6-30 16.9-44.9 25.6-3 1.8-5.3 4.8-7.9 7.2 0.4 0.6 0.9 1.3 1.3 1.9 9.9-1.8 19.9-3.6 29.8-5.2 2.1-0.3 5.2-0.5 6.4 0.7 8.8 8.3 17.3 16.9 26.1 25.7-5.1 2.8-10.8 5.8-18.3 9.9 8.4 3.2 3.5 17.2 15.9 15.3 11.3-1.7 11.6-2.9 12-24.2 3 1.7 5.8 3.2 8.8 4.9 1.1-3.5 2.1-6.3 3-9.2 14.2 5.5 14.4 16.2 0.9 36.7h23.3c1.2-18.4 14.2-31.2 18.8-48.6-7.7 0.3-15.6 1.2-23.4 0.8-4.6-0.2-11.2-0.9-13.4-3.8-8.5-11.4-11.8-25-13.2-38.9 0.7-0.6 1.4-1.2 2.2-1.8 2.8 2.2 5.6 4.4 8.3 6.7 7.3 6.2 13.6 14.6 22 18.2 7.2 3.1 16.7 1 25.1 0.9 0.7 0 1.8-2.2 2.1-3.5 0.8-3.1 1.2-6.2 1.9-9.9-4.6-1.9-10-4.1-15.4-6.3 0.1-1.1 0.1-2.2 0.2-3.3 29.4 1.6 59.3 6.5 86.4-10.5-7 19.5-22.6 35-20.2 58.7-5.5 1-11.4 2-17.5 3.1 2.8 11-11.4 5.7-12.7 14.8-0.1-0.1 1.7 1.6 1.3 2.6-4.1 11.5-8.2 23.1-13.2 34.2-0.9 2-5.8 2.9-8.9 3.3-12.2 1.4-24.4 2.1-36.5 3.7-4.7 0.6-9.2 3.1-13.8 4.7 0 0.9-0.1 1.9-0.1 2.8 5.3 1.1 10.5 2.5 15.8 3.3 5.4 0.8 10.9 1.1 16.4 1.5 7.3 0.6 15.1-1.2 19.2 8.2 2.9 6.8 7.5 12.8 11.2 19.2 2.1 4.4 3.8 8.3 6.9 14.6z m-146.6-74.2c-0.1 0.8-0.1 1.7-0.2 2.5 5 1.2 10 2.3 14.9 3.5 0.5-3.4 1-6.8 1.7-12.1-6.9 2.6-11.6 4.4-16.4 6.1zM748.6 498.3c15.8 9.9 16.8 9.5 29.5-4.9 16-18.1 26.5-38.4 26.5-63.3-3.7 0.9-7.3 1.8-11.9 2.9 1-11.2-9.4-7.7-14.7-12.3 3.7-2.7 6.8-5 9.8-7.3-0.1-0.9-0.2-1.7-0.3-2.6h-56c0-1-0.1-1.9-0.1-2.9 6.2-1.5 12.3-2.9 18.5-4.6 26.8-7.2 50.7-20.4 73.9-35.3 6.6-4.2 13.1-8.7 19.8-12.6 7.5-4.3 11.8-10.2 10.6-19.1-0.9-6.6 2-9.5 8.5-10.2 15.7-1.6 31-2.1 43 10.8 9.2 9.8 10.3 23.9 2.4 34.5-0.9 1.3-3.3 1.7-5.1 2.1-6.4 1.6-14 1.5-19.2 5-21.7 14.4-42.5 30.1-67 39.3 5.9 5.3 11.3 10.2 16.8 14.9 0.8 0.7 2.5 0.8 3.7 0.8 7.5-0.5 15-1 23.1-1.6-0.4-1.2-0.9-2.5-1.2-3.8-0.8-3.3-1.4-6.7-2.1-10.1 3.5-0.3 7.3-1.7 10.5-0.8 8 2.2 16.1 4.7 23.5 8.3 3.4 1.7 5.9 6.2 7.6 9.9 2.6 5.8 4.1 12.1 6.3 18.9 9.6-1 18.8-3.7 27.1-9.6 2.1-1.5 6.6-2 8.6-0.8 8.9 5.3 18 10.7 25.9 17.3 9.4 7.9 10.4 20.2 3 28.7-11.6-11.8-24.5-8.2-38.2-3.6-8.5 2.8-17.9 3-27 3.7-5.7 0.4-9 2.7-9.3 8.3-0.5 9-0.7 18.1-1 27.1-0.1 3.1 0.1 6.2-0.5 9.2-1.4 7.1 2.2 10.8 9.5 9.1 9.8-2.4 19.9-4.6 29.2-8.3 4-1.6 6.6-6.7 9.8-10.2-0.3-0.8-0.6-1.7-0.9-2.5 6.1 1.8 12.5 3 18.3 5.5 18.7 8.3 34.8 19.5 40.5 40.6 6.7 24.5-18.9 54-43.8 49.5-6.8-1.2-12.6-7.8-18.9-11.9 0.4-0.9 0.9-1.7 1.3-2.6 6.9 0.5 13.9 1.1 20.8 1.6 0.3-1 0.5-1.9 0.8-2.9-5-1.9-10-3.7-15-5.7-5.3-2.1-10.7-4.1-15.9-6.5-5.2-2.3-10.2-4.9-16.8-8.2 3.3-1.2 4.8-2.2 6.3-2.3 17.2-1.3 27.5-12.6 36.3-25.7 3.8-5.7 2.1-9.2-4.7-9-19.5 0.7-37.9 5.6-52.9 18.6-8.9 7.6-8.8 19.2-9 29.8-0.2 15.6 0.9 31.3 1.1 46.9 0.1 10-10.3 21.5-20.1 22.6 0.5-3.5 1.4-6.8 1.6-10.2 0.2-6.7-2.7-11.5-8.3-15.7-13.2-10-25.8-20.8-39-32.6 25.9 1.3 39.8-10 41.6-36.5-19.7 6.7-38.2 12.7-54 24.9-15.5 12-31.3 23.5-41.3 43.4-2.1-6.9-3.5-11.5-4.9-16.2h-2.9c-1.2 8.3-2.3 16.6-3.9 27.4-11.6-14.4-12.9-29.9-11.8-44.7 1.3-16.5 14.8-24.4 30.1-32.3-1.6 3.9-3.2 5.9-3.1 7.9 0.2 2.8 0.9 6.5 2.9 8 1.9 1.6 6.7 2.4 8.3 1.2 21.1-16.3 46.7-22.9 70.6-33.2 7.7-3.3 11.6-6.6 10.3-16-1.2-9.1 0.6-18.7 0.9-28 0.1-2.7-0.4-5.5-0.7-10.2-19.2 9-37.3 16.8-54.8 25.9-17.1 8.9-34.8 16.6-50.6 27.9-0.6 3.2-1.2 6.4-1.9 9.9-13.7-9.3-19.5-49.3-10-65.6z m92.3-35.9c-1.3-1.4-3.2-3.9-5.6-5.9-2.1-1.8-5.9-5-6.8-4.4-3.1 2.1-6.2 5.3-7.5 8.7-2.1 5.2-2.3 11.1-4 16.5-1.2 3.7-3.5 7-6.3 12.2 13.9-5.3 26.1-9.2 37.6-14.6 7.2-3.3 13.8-8.3 19.6-13.7 2.3-2.2 3.6-9.2 2.1-10.8-2.3-2.5-8.8-4.3-11.5-2.7-6.4 3.7-11.5 9.4-17.6 14.7z" p-id="3691"></path><path d="M566.6 627c-3.3 1.7-5.9 3.1-10.1 5.2 5.3-13.4 12.2-23.2 23.8-29.7-12.3 2.2-21.3-3.7-27.7-12.1-8.7-11.6-15.6-24.5-23.2-36.9-1.9-3.1-3.1-6.5-5-10.5-8.1 7.3-13.8 16.9-24.3 19.5-1.7-5.3-3-9.5-4.3-13.8 18.4-10 21.7-17.4 14.1-31.9-12.4 14.1-16.6 35.7-39.7 42-4.6-13.3-9.2-26.6-13.6-39.4 0 20.5-9.1 36.3-27.4 47.2 0.9-2.9 2.7-5.8 2.6-8.6-0.1-3.8-0.5-8.3-2.6-11.2-3.3-4.3-3.2-7.2-0.2-11.6 4-6 7.3-12.6 10.1-19.2 1.1-2.5 0.2-5.8 0.2-11.2-9.5 8.1-18.4 13.9-24.8 21.7-7.9 9.6-13.6 20.9-20.3 31.4-1.6 2.5-3.6 4.7-5.4 7.1-2.2-2.3-5.3-4.3-6.5-7.1-2.9-7.2-8.2-14.6 0.7-22.8-7.4-1.1-13.7-2-19.9-2.9 14.5-5.4 24.4-15.1 30.7-28.4-10.2-2.4-20.1-4.6-30-6.9v-2.5c2.2-1.4 4.3-2.9 6.4-4.2-6.3-5.9-12.4-11.6-18.5-17.3 0.5-1 1-1.9 1.6-2.9 3.5 0.8 7 1.5 10.4 2.6 10.2 3.1 29.7-2.6 36.1-10.9 0.9-1.1 1.1-2.9 1.3-4.4 2-11.5-0.8-31.2-5.5-38.4 6.3-1.2 18.6 5.1 22.1 10.9 1.2 2 3.4 4.3 5.6 4.8 4.8 1.1 5.9 3.1 4.4 7.7-1.2 3.7-1.2 7.7-1.8 11.5 0.8 0.4 1.5 0.9 2.3 1.3 3.9-2.6 7.7-5.3 11.6-7.9 0.7 0.4 1.4 0.8 2.2 1.2-3.1 5.2-6.2 10.3-9.4 15.5-2.3 3.6-4.7 7.1-7 10.7-1.5 2.4-2.6 5.3-4.6 7.1-5.4 4.9-9.7 9.6-4.9 17.3 1 1.5 0.3 4 0.5 7.6 9-6.7 18.6-10.6 19.8-23.6 0.7-7 5.5-13.7 8.4-20.5 0.8 0.1 1.7 0.1 2.5 0.2l4.5 27s0.6-0.2 0.6-0.3c-1.4-12.5 6-19.4 15.5-25.5 5.4-3.5 10-8.2 14.9-12.4-13.4-22.3-23.5-45.4-28.8-70.7l12.9 15h3c0.8-2.3 1.7-4.5 2.5-6.8 0.3 1 0.6 1.9 0.9 2.9 5.1 1.7 10.2 3.7 15.4 4.9 5.3 1.2 6.8 4.3 6 9.1-0.9 5.1-2.2 10.2-2.8 15.4-1.5 14 6.3 20.3 19 14 8.1-4 14.1 2.4 21.3 1.3 0.1 0 1.9 4.6 1.2 6.4-1.6 3.8-4.2 7.2-6.7 10.5-14 19.2-14.1 28 1.1 49.7 1.4-10.4 2.5-19 3.7-27.7 10.7 2.5 20.5 14.1 19.4 23.9-0.2 2.3-2.5 4.4-4.1 6.4-15.7 20.6-15.6 15.9-2.5 38.3 3.3 5.6 7.4 10.8 11.9 15.4 7.6 7.7 15.9 5 18.2-5.6 0.7-3.2 0.7-6.6 2.6-10.2 2.1 9.3 4.1 18.7 6.2 28 0.8 0.1 1.6 0.2 2.4 0.4 5.5-11.2 10.5-22.6 11.7-36.1 5.7 15.3 11.5 30.5 17.3 45.8 16.5-6.7 19.7-19.3 17.1-35-1.6-10.2-7-16.2-12.1-23.3 8.2-5.3 14.7-2.5 25.7 7.8 7.9 7.4 10.7 16 10 28.1 3.5-3.3 5.4-5.2 7.3-7 0.6 0.2 1.2 0.3 1.8 0.5-0.7 3.2-0.8 6.7-2 9.7-6.9 16.9-14.2 33.6-21.1 50.5-1.8 4.3-3.4 8.9-3.7 13.4-0.3 5.1 2.1 8 7.9 4.8 5.2-2.9 11.2-4.7 16.1-8 4.7-3.2 8.5-7.7 13.5-12.3-6.9-2.4-11.8-3.5-16-5.9-2.6-1.4-6.2-5-5.9-7 0.5-2.9 3.8-5.9 6.6-7.6 8.3-4.9 16.9-9.2 25.4-13.8 1.7-0.9 3.1-2.4 4.6-3.6-0.4-0.6-0.7-1.1-1.1-1.7-3.3 2-6.6 4-10.4 6.3-6.1-4.3-11-9.8-9.3-18.5 2-10.5-1.8-18.4-9.9-25.6 5-0.4 10-0.7 17.4-1.3 6.2-5.2 14.1-12.3 22.6-18.8 1.9-1.5 5.9-1.7 8.2-0.8 6.3 2.5 12.4 5.6 18.1 9.2 1.9 1.2 3.6 5.3 3 7.3-1.6 5.6-4.2 11.1-7.1 16.3-2.6 4.7-5.9 9 1.3 13.5-4.8 4.2-8.7 10.7-13.3 11.2-10 1.2-14.3 11.3-23.6 12.7-0.7 0.1-1.3 1.3-3.6 3.7 11-3.8 19.7-6.8 28.7-9.9 1.8 1.7 3.4 3.8 5.5 5.1 7.2 4.3 7.7 6.9 1.5 13.1-5.3 5.3-10.9 10.2-15.3 16.8 10.4-0.5 20.8-1.2 31.2-1.6 1.5-0.1 3.4 0.8 4.7 1.8 5.9 4.7 7.6 11.2 8.6 19.6-2.7-1.5-4.2-2.3-5.7-3.2-3.6-2.2-6.8-5.4-11.4-0.8-1.8 1.8-6 1.1-9.1 1.4-17.5 1.9-31.9 8-40.3 25.3-2.8 5.8-9.2 10.2-14.7 14.3-2.8 2.2-6.1 3.6-10.9 0.5-3.7-2.4-10.3-0.5-16.6-0.5 10.5-6.6 23.3-9.3 29.6-22.9-8.9-0.6-16.7-1.2-25.1-1.7v14.2c-6-2.1-11.8-4.1-17.6-6.1-0.4 0.7-0.8 1.4-1.2 2.2 2.1 3.2 4.3 6.4 7.7 11.6-4.7-0.8-7.4-0.9-9.9-1.6-13.4-4.2-23.8-12.6-32.9-23-2.2-2.5-4-3.5-8.2-3.3-6 0.1-13.7-1.6-14.1-10.9z m139.9-93.1c-10.6 1-19 1.8-27.9 2.7 2.4 5.5 4.1 10.1 6.3 14.4 2.1 4.1 5.6 5 8.7 1.1 4.3-5.4 8-11.2 12.9-18.2z m-87.8 109.7c-3.1-5.5-5.2-10.3-8.2-14.3-2.7-3.5-6.8-8.9-9.7-8.5-4.2 0.6-7.7 5.5-11.5 8.6 0.2 0.9 0.3 1.8 0.5 2.8 9.1 3.7 18.2 7.2 28.9 11.4z m-127-170.7c-0.4-0.9-0.8-1.7-1.2-2.6-5.5 1.9-10.9 4.2-16.6 5.7-8.1 2.2-9.7 6.9-6.7 14.1 8.4-5.8 16.4-11.5 24.5-17.2z m134.7 142.2c1.2-0.8 2.4-1.6 3.5-2.3-1.6-5.4-3.3-10.8-5.6-18.3-3.8 4.3-8.9 8.6-8.4 9.5 2.7 4.2 6.9 7.5 10.5 11.1zM487.1 511c-4 2.7-6.9 4.6-11.4 7.5 3 2.7 6.3 7.1 7.6 6.6 5.8-2.4 5.3-7.6 3.8-14.1z" p-id="3692"></path><path d="M717.4 694.6c0-11.7 2.7-22-0.8-29.6-3.4-7.6-13-12.5-19.5-18.3 11.9-5.1 38.5 0.8 47.5 11.1 4 4.6 5.1 9-0.2 13.4-8.7 7.5-17.3 15-27 23.4zM555.7 432.1c-2-3.2-4-6.3-6.5-10.2-2 2.3-3.3 3.7-4.6 5.2 0-0.7 0-1.4-0.1-2-6.4-0.6-12.7-1.2-19.5-1.9 1.7-2.2 3.7-4.7 6.4-8.2-7.4-4.5-14.5-8.9-21.9-13.4 16-13.3 45.7-7.1 51.4 10.5 1.9 5.9-1.5 13.6-2.5 20.4-0.8-0.1-1.8-0.2-2.7-0.4z" p-id="3693"></path></svg>