<?xml version="1.0" standalone="no"?><!DOCTYPE svg PUBLIC "-//W3C//DTD SVG 1.1//EN" "http://www.w3.org/Graphics/SVG/1.1/DTD/svg11.dtd"><svg t="1575014352664" class="icon" viewBox="0 0 1024 1024" version="1.1" xmlns="http://www.w3.org/2000/svg" p-id="10478" xmlns:xlink="http://www.w3.org/1999/xlink" width="200" height="200"><defs><style type="text/css"></style></defs><path d="M865.7 573h-807c-11.9-3.4-19.8-10.8-23-23v-11.5c0.4-0.8 0.9-1.6 1.2-2.5 29.9-106.3 59.8-212.7 89.7-319 2.3-8.3 6.2-16 13.2-21 6.4-4.5 14-7.5 21-11.1h807c11.9 3.4 19.8 10.8 23 23v11.5c-0.4 0.6-0.9 1.2-1.1 1.9-30 106.5-59.9 213.1-89.9 319.6-2.3 8.3-6.2 16-13.2 21-6.3 4.6-13.9 7.5-20.9 11.1z m-22.2-367.4s0 0.1 0 0c-34.8 0-69.6 0-104.4 0.1-6.3 0-12.7 0.3-18.8 1.8-35.5 8.8-57.8 31.9-68 66.3-19.6 66.2-38.3 132.5-57.2 198.8-3.5 12.4-5.5 25-4.1 38 2.8 26.6 18.1 40.6 44.7 40.7 23 0.1 45.9 0 68.9 0 46.5 0 93 0.1 139.4-0.1 16.7-0.1 24.3-5.9 28.6-19.6 0.8-2.5 2-5 2.7-7.5 16.1-54.4 32.3-108.7 48.2-163.1 3-10.2-1.3-15.1-12.1-15.1H766.8c-10.6 0-16.1 3.9-19.9 13.9-4.1 10.9-8.1 21.8-12.1 32.8-3.3 9 0.2 14 10 14.1 12.1 0.1 24.1 0 36.2 0 12.6 0 25.3-0.1 37.9 0 9.7 0.1 11.3 2.3 8.9 11.3-5.3 19.9-10.5 39.9-15.7 59.8-3.4 12.9-7.4 16.1-21 16.1h-89.5c-6.3 0-12.6 0.1-18.9-0.1-6-0.2-8.9-3-8.7-9 0.1-4.5 0.8-9.2 2-13.5 17.1-60.2 34.4-120.4 51.7-180.6 4.8-16.6 10.1-20.5 27.5-20.4 59.1 0.1 118.2 0.1 177.3 0.1 11.4 0 17.7-4.7 20.9-15.7 3.4-11.5 6.8-23.1 10.2-34.6 3.1-10.7 0.6-14.2-10.5-14.2-36.5-0.3-73.1-0.3-109.6-0.3z m-175.8-1.8l2.1 1.5c-0.7-0.1-1.4-0.3-2.1-0.3-71.4 0.2-142.7 0.3-214.1 0.8-9.2 0.1-18.7 1.6-27.6 4.1-33.4 9.7-53.3 33.6-62.9 65.7-16.8 56-32.5 112.3-48.5 168.5-4.5 15.7-9.7 31.3-9.3 48 0.7 35.8 23 58.2 58.7 58.3 70.6 0.1 141.2 0 211.8 0 1.8 0 3.5-0.2 6.4-0.4-14.3-16.7-16.5-36.6-19.6-56.3H421.5c-8.6 0-17.2 0.1-25.8 0-8.7-0.1-12.8-4.5-11.9-12.9 0.3-2.8 0.7-5.7 1.6-8.4 18.7-62.2 37.4-124.3 56.3-186.4 3.6-11.7 10.3-16 22.7-16.1 52 0 104.1 0 156.1 0.1 4.5 0 6.9-0.6 8.1-5.9 3.1-13.3 9.2-25.4 18.3-35.9 6.9-8 13.9-16.2 20.8-24.4zM279.8 493.2h-17.6c-30 0.2-60.1 0.4-90.1 0.5-8.3 0-12.2-3.5-12.1-11.8 0-4.9 1-9.9 2.3-14.7 18.4-66.2 36.9-132.5 55.4-198.7 4.9-17.7 10-35.3 14.9-52.9 1.8-6.5-0.2-10.1-6.1-10.1-21.8-0.1-43.6-0.1-65.4 0.1-5.2 0-8.4 2.9-9.7 8.1-1.6 6.1-3.3 12.2-5 18.2-21.8 76.8-43.8 153.5-65.1 230.4-4 14.4-6.6 29.6-7.1 44.5-0.7 23 10.4 37.2 30 41.6 5.2 1.2 10.6 1.6 15.9 1.6 58.2 0.2 116.3 0.2 174.5 0.3 2 0 4-0.2 7.1-0.3-14.5-16.6-20.1-35.6-21.9-56.8zM507 345.7h-49.3c-10.2 0-15.7 3.8-18.7 13.4-3.6 11.2-7 22.5-10.4 33.8-2.7 8.9 0.8 13.6 10.1 13.6h98.6c8.9 0 15.4-4.5 18.2-12.9 4-11.7 7.9-23.4 11.7-35.2 2.6-8-0.8-12.6-9.2-12.7h-51z m-249.4-47.3h29c-2.3-5.9-4.5-11.7-7.1-18.3 3.4 0.4 5.4 0.6 7.4 0.9 20.3 2.4 39.1-11.7 42.4-31 3.6-20.8-16.4-40.4-30.6-43.8-1.7-0.4-3.9-0.1-5.5 0.7-10.2 5.2-20.6 9.9-30.2 16.1-10.8 6.9-18.9 16.7-24.1 28.6-6.2 14.3-0.4 25.9 14.9 28.7 5.4 1 11.2 0.2 18.9 0.2-5.6 6.7-10.3 12.2-15.1 17.9zM937.8 779.3c-4.2 11.6-12.9 15.3-24.7 15.2-26-0.3-51.9-0.1-78.6-0.1V685.7c3.5-0.2 7.2-0.3 10.9-0.5 2.3-0.2 6.2 0.1 6.6-1 6.7-16.2 20.4-4.6 29.9-9-0.2 1.4-0.4 2.8-0.6 4.1 4.4 1.9 8.8 5.3 13.3 5.6 14.4 0.8 28.8 0.5 43.2 0.7v93.7z m-39.5-52.2h13v-19.3c-4.9 0.2-8.8 0.4-13 0.6v18.7z m-39.6 45c5-0.4 8.6-0.7 12.1-0.9v-19.6c-4.7 0.3-8.4 0.5-12.1 0.8v19.7z m12.4-44.8v-18.9h-12.3v18.9h12.3z m27.5 44.3c3.8-0.3 10.6 0.5 11.1-1 2-5.7 1.9-12.1 2.7-18.4h-13.8v19.4zM714.8 832c-7.7 0.6-12.6 1-17.5 1.4-0.2 11.7 8.9 8.5 15.4 9.6v22.5c-10.5 0-20.7 1.1-30.4-0.5-4.6-0.8-9.5-6.1-12.1-10.6-3-5.2-3-12.1-5.4-17.8-1-2.4-4.8-4.9-7.5-5-2.7-0.1-5.5 2.6-8.2 4.2-0.5 0.3-0.6 1.4-0.9 2.1-11.7 28.1-16.9 30.8-50.4 25.3V844c6.9-2.7 18.6 2.7 18.2-12.2-6.2-0.3-12.5-0.7-20.7-1.1 2.9-7.6-7.3-18 7.4-22.5 1.3-0.4 1.8-4.8 1.8-7.4 0.1-26.5 0.1-53 0-79.5 0-2.5-0.5-5.7-2.1-7.2-8.4-8-9-16.9-2-25.2 2.3-2.7 2.9-6.7 4.5-10.6 1.6-0.2 3.5-0.6 5.4-0.7 7.8-0.1 15.5 0 23.9 0 0.8 3.7 1.5 7 2.3 11h36.3c1-3.2 1.9-6.4 2.9-9.7h30.5c0 9.7 13.8 14.3 9.4 26.2-0.8 2.1-0.3 6.3-1.2 6.5-13.5 3.4-7.8 14.1-8 21.7-0.7 21-0.5 42.1 0 63.2 0.1 3.7 4.1 7.2 4.9 11.1 1.8 7.6 2.4 15.5 3.5 24.4z m-78.6-63.8h38.4v-15.4h-38.4v15.4z m38.8-54h-38.7V729H675v-14.8z m0.1 77.7h-38.8v14.4h38.8v-14.4zM142.2 866v-20.7c2.7-0.5 5.2-1.2 7.8-1.3 19.4-0.7 19.4-0.7 19.4-20.7 0-10.9-0.1-21.9-0.2-32.8 0-0.7-0.4-1.4-1.2-3.7-18.4 0-37.4-0.1-56.4 0-22.2 0.2-23.1-0.9-22.9-22.7 0.3-26.5 0.1-53 0.1-80.8h13.6c40.6 0 81.2 0.1 121.8-0.1 6.8 0 13.1 1.1 20-5 4.5-4 15.6-0.8 25.6-0.8 0 6.1-0.2 12.2 0 18.3 0.3 9.3-3.8 13.6-13.3 13.5-18.3-0.2-36.6-0.1-55.8-0.1v52.7h70.6v24.3h-71.4v52.2c0 27.2-0.5 27.7-27.2 27.7h-30.5z m-23.4-156.5v51.7h49.9v-51.7h-49.9zM358.8 720.1c-4.1-0.8-7.3-1.5-10.7-2.1v-20.8h23c0.7-5.4 1.3-10 2-15.3H401c0.3 4.6 0.6 9.1 0.9 14.2 12.7 1.5 23.8 3.2 32.7-10.6 3.2-5 15.5-4.2 26.8-6.7-3.4 6.6-4.9 9.5-7.1 13.9H487v18.8c-11.5 0-23-0.5-34.5 0.2-4.9 0.3-9.7 3.2-14.6 4.6-4 1.1-8.1 2.5-12.2 2.5-14.4 0.3-28.7 0.1-44 0.1v17h34.8V837.5c0 27.3-2.4 29.5-31.6 28.1 3-8-6.7-18.5 7.5-23.8 1.3-0.5 1.9-4.1 1.9-6.2 0.1-24.1 0.1-48.2 0.1-73.1h-13.6v78.1c0 20.3-5.5 25.7-25.6 25.5-1.9 0-3.9-0.2-6.7-0.3V843c10 1.8 10.6-4.5 10.5-12.5-0.4-36.7-0.2-73.3-0.2-110.4zM784.8 733.1h13.7v-53.3h25c0 10.3-0.7 20.7 0.2 31 1.2 14.6 3.6 29.1 5.6 45h-43.5v15.8h43.6c-1.8 9.2 5.4 18-4.7 25.2-1.7 1.2-1.2 5.8-1.2 8.9-0.1 19.4 0 38.9 0 59.2h-24.7v-68.8c-4.9-0.2-8.5-0.4-13.6-0.6 0 15.1 0.1 29.5 0 43.8-0.1 21.3-10.4 30.2-32.6 27.6 0.6-8.8-5.4-18.3 5.1-25.9 1.9-1.3 1.1-6.6 1.1-10.1 0.1-44.8 0-89.7 0-134.5v-14.8h26v51.5z" p-id="10479"></path><path d="M526.1 855.7c2.3-42 4.5-83.3 6.8-124.9 8.3-1 16.6-2 24.7-3.3 0.4-0.1 0-4.1 0-7.2h-29.3v-22.7h27.4c0.4-6.7 0.7-12 1.1-18.2h26.3c4.8 6-5.5 19.4 11.2 18.6-3 8.5 3.2 16.2-6.6 24.5-7.6 6.4 5.2 5.8 9.8 8.2v22.5c-3.1 0.5-6.4 1-10.7 1.8v108.1h-26.3V759.2c-1 0-1.9-0.1-2.9-0.1-0.5 10.6-1.1 21.2-1.6 31.8-0.7 13.6-0.9 27.3-2.1 40.9-1.5 15.9-11.3 24.2-27.8 23.9zM489.6 728.6c-2.6 10.6-5.1 19.4-6.8 28.3-2.2 11.7-4.3 23.4-5 35.3-0.2 3.1 4.9 6.6 9.8 8.4v19.5c-2.8 0.7-5.9 1.5-10.3 2.6 0 8.6-0.1 17.5 0 26.4 0.2 10.8-5.1 15.7-15.7 15.6-9.7-0.1-19.3 0-29.9 0v-18.9c6.6-1.6 14.9-1.3 18.8-5.3 3.1-3.1 0.6-11.6 0.6-18.6h-27.9v-22.2h27.5v-18.5c-6.2-0.5-12.2-1-18.8-1.5v-15.8c8.1-4.4 23.6 5 25.1-13.9h-33.8v-21.4h66.4zM845.5 801h24.2v12.9h16.7c0.7-3.1 1.3-6.4 2.2-10.5h24.7c0.6 3.2 1.2 6.8 2.1 11.2h19.5v23.6c-6.1 0.3-12.5 0.7-20.2 1.2V863h-26.4c-0.5-7.7-0.9-15.2-1.4-23.5-11 0.3-20.9-3.7-30.8 6-5.3 5.2-16.4 4.4-25.9 6.5-0.6-11.6-4.4-20 6.9-27.5 5.2-3.5 5.5-14.6 8.4-23.5zM89.8 861.3V840c18.8 4.4 22.3-10.2 26.5-22.3 4.8-13.7 12.5-20.3 27.3-17.4 3 0.6 6.2 0.1 11.8 0.1-8.6 18.9-16.1 36.7-25 53.7-2 3.8-8.8 6.3-13.7 6.9-8.4 1.1-17.1 0.3-26.9 0.3zM272.9 839.8c0.3 3.8 0.5 6 0.6 8.3 0.1 3.9 0 7.8 0 13.1-9.2 0-17.8 1.1-26-0.4-4.5-0.8-10.2-5.1-12.1-9.3-7.2-16.3-13-33.2-20.1-52 9.6 0 17.6-0.5 25.5 0.3 2.5 0.3 5.4 3.8 6.7 6.5 3.5 7.4 6.6 15 9.1 22.8 2.5 7.6 6.4 12.4 16.3 10.7zM301.5 862.1v-20.3c0.8 0.4 1.6 0.8 2.5 1.2 3.2-5.2 7-10.1 9.4-15.7 2.3-5.3 3.1-11.2 4.6-16.8 5.3-20.2 5.6-20.3 28.9-16.2-5.3 19.1-10.1 38.2-16 57.1-3.5 11.1-10.3 13.2-29.4 10.7zM300.7 682.9c8 0 14.5-0.1 21 0 1.5 0 4.2 0.3 4.3 0.9 3.3 15 21.4 23.7 18.7 41.3-19.6 6.1-25.7 3.4-32.8-14.1-3.6-8.9-7.1-17.8-11.2-28.1zM344.3 761.2v14.1c-19.5 4.4-21.5 3.6-30.8-13.1-4.3-7.7-8.5-15.5-12.8-23.5 20.1-3.8 20.7-3.2 30.5 12.3 2.5 4.1 7.9 6.3 13.1 10.2z" p-id="10480"></path></svg>