<?xml version="1.0" standalone="no"?><!DOCTYPE svg PUBLIC "-//W3C//DTD SVG 1.1//EN" "http://www.w3.org/Graphics/SVG/1.1/DTD/svg11.dtd"><svg t="1574997168868" class="icon" viewBox="0 0 1024 1024" version="1.1" xmlns="http://www.w3.org/2000/svg" p-id="965" xmlns:xlink="http://www.w3.org/1999/xlink" width="200" height="200"><defs><style type="text/css"></style></defs><path d="M680.7 277.4c0 3.4 0.2 6.6-0.1 9.8-0.1 1.4-1.1 2.9-2.1 3.9-54.2 51.8-108.3 103.5-162.5 155.2-0.7 0.7-1.6 1.3-2.5 2.1-1-0.8-1.9-1.5-2.7-2.3L356.3 298.5c-22.1-21.1-44.3-42.3-66.5-63.4-2-1.9-3.6-11.7-2.1-13.8 0.7-0.9 2.1-1.4 3.3-1.8 35.4-13.6 71.5-24.7 108.7-32.5 25.7-5.4 51.6-8.9 77.7-11.3 14.3-1.3 24.1-8.3 29.5-21.8 1.8-4.4 4-8.7 6.5-13.9 2.4 5.1 4.4 9.3 6.5 13.6 3.6 7.4 7.3 15.1 15.7 18 5.9 2.1 12.3 3.4 18.5 3.8 45.2 3.1 89.5 11.4 132.5 25.7 16.3 5.4 32.3 12 48.5 17.9 3.1 1.1 4 2.7 4.2 6.1 0.4 5.9-1.6 9.8-5.9 13.7-11.9 10.8-23.4 22-34.9 33.3-2.3 2.3-4.1 2.6-7 1.3-46-19.8-94.1-30.6-144-33.8-1.8-0.1-3.6-0.1-5.4-0.1-9.7 0-16.9 4.1-21.2 13.1-2.3 4.9-4.8 9.7-7.4 15-2.6-5.4-5-10.1-7.1-14.8-4-8.8-10.8-12.5-20.3-12-17.3 0.9-34.2 4.1-51 8.3-7 1.7-14 3.8-21.9 6 33.7 32.2 66.8 63.8 100.3 95.8 10.4-9.9 20.5-19.6 30.7-29.3 0-0.3-0.1-0.7-0.1-1h-5.4c-3.6 0-7.3 0.1-10.9 0-5.8-0.2-10.6 1.2-12.3 8.2-2.1-2-3.7-3.5-5.2-5-10.7-10.2-21.3-20.5-32.2-30.6-3-2.8-4.8-5.5-4.2-9.7 0.3-1.9 0-3.9 0-6.2 68.9 0.1 137.5 0.1 206.8 0.1z" p-id="966"></path><path d="M513.5 599.5c-17.9-17.1-35.4-33.9-53-50.6-81.9-78.2-163.9-156.4-245.9-234.6-1.7-1.7-2.6-3.3-2.4-5.7 0.2-2.7 0-5.4 0-8.6h142.4c0.1 0.8 0.1 1.3 0.1 1.8 0.9 6.3 0.2 11.6-7.6 13.2-2.1 0.4-4 2.4-5.7 3.9-4.3 3.9-5.8 8.4-3.6 14.3 2.9 7.6 7.6 13.6 13.4 19.2 35.1 33.3 70 66.8 105 100.2 18.1 17.3 36.2 34.6 54.4 51.8 0.8 0.8 1.7 1.5 2.9 2.5 4.3-4.1 8.6-8.1 12.7-12.1 45.4-43.4 90.8-86.8 136.2-130.1 6.7-6.4 13.6-12.5 19.9-19.1 3.4-3.6 6.1-8 8.8-12.2 2.5-3.9 2.1-7.9-1.2-11-3.8-3.4-8-6.5-12.4-9.2-2-1.2-2.8-2.2-2.7-4.4 0.2-2.9 0-5.9 0-8.9h139.5c0.7 6.5 0.8 11.7-4.7 16.9-94.1 89.5-188 179.3-282 269-4.4 4.5-9.1 8.9-14.1 13.7z" p-id="967"></path><path d="M571 751.2c1.2-2.4 2.3-4.8 3.6-7.1 0.7-1.3 0.5-2-0.5-3-2.8-2.9-5.6-5.9-8.1-9.1-3.1-3.9-4.7-8.5-4.5-13.6 0.1-2.6 0-5.3 0-8.2 3.3-0.6 6.6-1 9.7-1.9 3.3-0.9 6.6-2.2 9.7-3.6 3-1.4 4.1-4 3.5-7.2-0.6-3.1-1.2-6.2-5-7-0.4-0.1-1-1.1-1-1.6 0.4-4.3 0.8-8.6 1.4-12.9 0.1-0.4 1-1 1.6-1 2.7-0.1 5.3-0.1 8 0 2.9 0.1 4.5 1.9 5.9 4.1 2.9 4.7 4 10 5.1 15.3 0.4 2 0.6 4.1 1.1 6.1 0.3 1.3 0.8 2.5 1.5 3.6 1.9 2.7 3.9 5.4 6 8 1.5 1.7 2.2 3.6 2 5.8-0.1 1.7-0.3 2.8-1.9 4.2-1.9 1.7-2.6 4.6-3.7 7.1-0.7 1.5-1.1 3.2-2 4.6-3.7 6.2-5.5 13-6.5 20.1-0.6 4.3-1 8.7-1.2 13-0.1 1.9 0.6 3.9 1 6.1 1.1-0.5 2-0.8 2.7-1.3 2.9-2.1 6.1-2.1 9.2-0.7 2.9 1.3 5.9 2.7 8.7 4.3 2.6 1.6 4.1 4.2 4.2 7.2 0.1 4 0 8-0.5 11.9-0.6 3.9-2.5 7.2-6.7 8.9 2 1.2 3.5 2 5.6 1.5 4.6-1 9.3-1.7 14.1-2.6-0.6-5.5-1-10.9-1.8-16.2-1.9-13.4-2.7-26.8-1.4-40.2 0.5-5.4 0.3-10.7-1.8-15.8-1.9-4.6-3-9.6-4.9-14.2-1.6-4.1-1.7-8.3-1.9-12.6-0.1-2.4 0-4.7 0.1-7.1 0.1-1.9 1.5-3 3.1-2.1 3.6 1.9 6.4-0.4 9.4-1.5 0.3-0.1 0.5-1.2 0.5-1.8 0-5.3-0.2-10.6-0.1-15.9 0-1.3 0.7-2.7 1.5-3.9 1.5-2.2 3.4-2.3 5.7-1.1 2.6 1.4 3.6 3.4 3.8 6.3 0.2 3.2 1 6.4 1.8 9.6 0.3 1.1 1.1 2.2 2 3.9 2.3-4.7 5.7-3.4 9-2.9 4.3 0.7 8.6 1.3 12.9 2 1.9 0.3 2.5-0.3 1.9-2.1-1.2-3.2-2.4-6.3-4-9.3-1-1.8-1.6-3.4-1.5-5.4 0.2-1.9 0.2-3.8 0.3-5.7 5.4-1.1 10 1 12.6 5.8 2.5 4.6 3.4 9.7 4.1 14.9 0.2 1.6 0.4 3.2 0.5 4.8 0.2 0.1 0.3 0.3 0.4 0.3 5.8 0.2 9.7 4.2 10.3 11.7 0.3 3.6-0.4 6.2-3.7 8.3-2.1 1.3-3.6 3.4-5.2 5.4-2.6 3.2-3.3 6.8-2.7 11 1 7.5 1.9 15.1 2 22.7 0.1 6-0.8 12.1-1.4 18.1-0.3 3.1-0.8 6.2-1 9.2-0.2 2.9 4 7.6 6.3 6.5 2.4-1.2 3.8-0.5 5.5 0.5 1.8 1.1 3.5 2.4 5.2 3.7 0.5 0.4 1.1 1.2 1.1 1.8-0.2 2.7-0.3 5.4-1 8-1.2 4.1-2.7 8.1-4.4 12-0.5 1.3-1.6 2.6-2.7 3.5-2.7 2-5.6 3.8-8.6 5.8 4.4 4.1 8.7 8.2 13 12.2 6.6 6.1 13.3 12.2 19.8 18.4 0.6 0.6 1.3 1.4 1.3 2.2 0.7 7.3 0.4 14.4-4.4 20.6-3 3.8-6.8 6.8-11.2 8.9-1.9 0.9-4.2 0.8-5.6 1-1.4-1.4-2.3-2.5-3.4-3.2-2.1-1.5-4.3-2.9-6.6-4-2-1-2.8-2.5-3-4.7-0.6-5.9-2-11.9-2-17.8 0-6.7-4-12.2-4.6-18.5-0.2-2-0.2-3.9-0.2-5.9 0-0.4 0.2-0.9 0.5-1.2 2.3-2.1 2.3-2.1 2.6-5.6-5.2 3.7-10.1 7.2-15 10.7-2.3 1.7-4.5 3.6-7 5.1-5 3-7.8 8-11.6 12.1-2.5 2.7-5.2 5.2-7.9 7.7-1.1 1-2.2 0.8-3.7 0.1-2.4-1.2-5.3-1.2-7.9 0.4-4-5.7-1.2-11.6-0.7-17.4 0.2-1.8 0.4-3.6 0.9-5.2 0.6-1.9-0.2-2.8-1.7-3.5-1.2-0.6-2.4-1.1-3.7-1.6-6.3-2-11.4-5.9-15.5-11-2.9-3.5-4.3-7.5-4.2-12.1 0-2.4-0.1-4.7 0-7.1 0-0.6 0.6-1.1 1-1.9-2.4-2.1-5.2-4.6-8-7.1-2.1 1.3-3.3 2.9-3 5.5 0.8 6.5 1.5 12.9 2 19.4 0.4 5.6 0.5 11.3 0.8 17 0 0.5 0 1.1-0.3 1.5-3 3.2-2.6 7.2-2.6 11.1 0 1.2-0.1 1.9-1.5 2.4-2.6 1-3.3 3.6-4.2 5.9-0.2 0.4-0.3 0.8-0.8 1.8-1.1-1.4-2.4-2.4-2.9-3.7-1.5-4.3-2.9-8.6-4-13.1-0.5-2-0.4-4.2-0.6-6.3-0.1-0.8-0.1-1.6-0.4-2.3-1.5-3.2-1.6-6.3-0.4-9.6 0.3-0.7 0.1-1.6 0-2.4-0.3-2.9-0.6-5.7-0.9-8.7-1.7-0.6-2.9-0.2-4 1.4-4.6 6.5-9.3 13-14 19.7-3.9-1.6-7.8-3.2-11.2-4.6-1.4 2.2-2.2 4.2-3.6 5.6-0.7 0.7-2.3 0.4-4 0.7 0.4-5.5 0.5-10.5 1.2-15.5 0.9-7.1 2.2-14.2 3.4-21.2 0.1-0.9 0.5-2 1.2-2.4 11-7.7 17.5-18.6 22.3-30.8 1-2.6 1.9-5.2 2.6-7.9 0.3-1.1-0.3-2.4-0.5-3.6-0.4-0.4-0.5-0.5-0.7-0.5z m89 13.4c-3.7-8.4-7.1-16.8-6.6-26-5.7 0.3-7.4 3.9-8.3 8.5-1.2 6.2-0.5 12.4-0.1 18.6 0.7 9.7 1.4 19.3 2.1 29 0.1 1.8 0 3.7 0 5.5 2.5 0.4 4.4 0.6 5.6-2 0.4-0.9 1.6-1.6 2.6-2 3-1.2 6-2.6 9.2-3.1 4.7-0.7 6.8-3.5 7.9-7.5 2-6.9 2.3-14 2-21.1 0-0.1-0.2-0.2-0.1-0.2-3.3-1.1-5.3 0.5-7.2 2.6-0.8 0.9-2.1 1.3-3.2 2 3 2.9 5.9 6.5 5.4 11.9-0.4 3.9-1.7 6.7-5.5 7.8-3.3 1-6.9 1.2-10.7 1.8 0-2.8-0.4-4.9 0.1-6.9 1.5-5.5-0.2-10.6-1.1-15.9-0.5-2.8-0.5-5.6-0.8-8.9 4.2 1 5.8 4.3 8.7 5.9z m16.1-39.9c-1.7 2.2-3 3.8-4.3 5.4-0.7-0.5-1.2-0.8-1.8-1.2-3.4 2.9-6.6 5.7-9.8 8.4 4.7 3.5 9.2 6.8 13.8 10.2 1.4-0.9 2.3-2.5 2.1-4.9-0.2-3.7-0.1-7.4-0.1-11.1 0.1-2 0.1-4.1 0.1-6.8zM422.8 781.7c5.7-1.8 10.1-5.1 14.8-7.6 5.4-2.9 7.5-6.9 7.9-13 0.3-4.8 2.3-9.4 3.7-14.1 0.4-1.3 1.3-2.5 2.2-3.5 2.9-3.5 5.2-3.7 9-0.5 0-2.1-0.1-3.9 0-5.7 0.1-0.8 0.4-1.7 1-2.3 4.2-4 8.8-7.1 14.9-7.7 0.9-0.1 2.2-1.4 2.5-2.4 1.4-4.7 3-9.5 3.8-14.3 2-11.9 3.9-23.9 3.7-36.1 0-2.6 0.8-5.2 1.3-7.8 0.1-0.4 0.7-1 1.1-1 0.4 0 1 0.6 1.1 1 0.7 2.4 1.2 4.9 2.1 7.2 0.7 1.9 1.5 3.8 2.6 5.5 2.6 4.2 5.5 8.2 8.1 12.4 4.7 7.4 6.6 15.4 6 24.1-0.2 2.2 0 4.4 0 6.8 3.9 0.2 7.7 0.2 11.4 0.6 4.4 0.4 8.8 1.1 13.1 1.9 1.9 0.4 3.8 1.2 5.5 2.1 2.4 1.2 3.2 3.3 3.4 6 1 20.1-6.2 37.8-16.6 54.3-3.5 5.6-7.4 10.9-11.1 16.3-0.8 1.2-1.7 1.8-3.2 1.9-4.3 0.3-6.9 3.8-6.3 8.1 0.3 1.8 0.4 3.6 0.7 5.5 0.5 3.7-0.8 6.8-2.3 10.1-1.2 2.5-1.6 5.4-1 8.4 0.4 2.1-0.6 4.5-0.9 6.7l-3 24.6c-1.1 9.2-1.9 18.4-3.3 27.5-0.5 3.3-2.2 6.4-3.4 9.5-2.3 6.3-4.7 12.5-7.1 18.8-2.1-0.9-2.5-5.7-6.2-2.1-0.5-3.5-0.8-6.7-1.3-9.9-3-19.8-2.5-39.8-3.1-59.7-0.1-3.8-0.3-7.7-0.3-11.5 0-1.9 0.3-3.8 0.4-5.7 0.1-1.5-0.1-3-0.1-4.6 0-3 0-6 0.1-9 0.1-2.6 0.4-5.3 0.3-7.9-0.1-3.4-0.5-6.8-0.7-10.4-1.4 0.3-2.7 0.3-3.8 0.7-2.3 0.9-4.3 0.2-6.2-1-6.5-4.1-9.8-9.8-9-17.6 0.3-3 0.4-6 0.6-9.2h-3.9c-0.5 2.5-0.6 5.1-1.5 7.5-2.9 8.7-9.4 13.9-17.3 17.6-3.7 1.8-7.5 3.4-11 5.5-3.6 2.2-5.6 5.5-5.3 10 0.3 4.2 0 8.4 0 12.6 0 2-1 2.8-2.8 3.3-1.2 0.3-2.1 1.2-3.2 1.9-0.4 0.3-0.9 0.9-1.3 0.8-2.9-0.5-5.9-0.7-8.6-1.7-4.3-1.6-6.1-5.3-6.3-10.2-3.1 1.6-6 3.1-8.8 4.8-0.5 0.3-0.5 1.4-0.5 2.2 0 1.5-0.4 2.5-2.2 2.1-1.8-0.4-2.5 0.4-3.4 2.1-1.1 1.9-3 3.7-4.9 4.9-6.4 3.9-13.7 5.6-20.9 7.3-2.8-3.4-3.9-6.9-4.2-11.3-0.5-7.6 2.7-13.9 5.2-20.6 0.2-0.4 0.7-0.8 1.1-0.9 3.4-0.7 5.6-3.2 7.7-5.7 5.2-6.4 8.6-13.7 12.3-21.2-1.1-0.4-2-0.8-2.9-1.2-4.5-2.1-7.9-5.5-10.6-9.5-2.6-3.8-5-7.7-7-11.8-0.8-1.6-0.6-3.9-0.4-5.8 0.2-2.1 0.8-4.2 1.3-6.3 0.2-0.7 0.5-1.7 0.9-1.8 0.7-0.1 1.6 0.3 2.1 0.8 1.8 1.6 3.6 3.4 5.2 5.2 1 1.1 1.9 1.3 3.3 0.7 5.2-2.2 10.4-4.2 15.6-6.3 1.4-0.6 2.8-1 4.1 0.3 0.2 0.2 0.7 0.4 1 0.3 2.4-1.3 5.4-2.1 7.2-4.1 4.7-5 9-10.4 14.8-14.3 8.5-5.7 9.6-4.8 18.1 0.5 2.1 1.3 2.6 3.2 2.8 5.6 0.9 11.3-2.7 21.8-5.4 32.5-1.2 3-1.9 5.6-2.7 8.8z m87.1-46.3c-0.3 3.3-0.6 6.4-0.8 9.6-0.2 3.3-0.4 6.2 1.7 9.4 1.7 2.5 1.6 6.4-0.3 9.3-1.6 2.3-2.4 4.6-2.2 7.4 0.1 1.7 0 3.4-0.1 5.1-0.2 3.4-0.4 6.8-0.5 10.2 0.1 0.1 0.3 0.1 0.4 0.2 2.6-5 5.3-10.1 8-15.2-0.8-0.4-1.3-0.6-1.8-0.9 0.2-0.7 0.3-1.3 0.5-1.9 2.6-8.8 5.1-17.7 7.9-26.5 0.7-2.2-0.1-3.4-1.7-4.4-3.3-2.2-7.1-2.2-11.1-2.3z m-112.1 43.3c-3 1.5-5.6 2.7-8.1 4.1-0.5 0.3-1 1.2-0.9 1.7 0.9 4.5 0.6 8.9-1.2 13.2-0.8 1.9-1.3 3.9-1.9 5.8 4.7 0.8 6.7-0.1 8.3-4.2 2.6-6.5 3.1-13.3 3.8-20.6z m63.3-34.7c3.6 3.6 7.2 7 10.6 10.6 1.3 1.4 2.6 2 5 1.2 0.4-5.5 0.8-11.1 1.2-17.3-5.9 1.9-11.2 3.7-16.8 5.5zM222.2 708.5c-4.5 0.4-8.9 0.2-13.2 1.2-5.7 1.3-11.2 3.3-16.7 5.2-2.4 0.8-4.7 1-7-0.1-0.7-0.3-1.4-0.5-2.3-0.7-0.1 0.5-0.3 1-0.5 1.8-3.4-0.9-6.7-1.9-9.5-4.1-0.5-0.4-1.2-1-1.2-1.5-0.2-3.2-0.8-6.6-0.1-9.6 0.4-1.8 2.8-3.6 4.7-4.6 6-3.3 12.6-4.7 19.3-5.7 10.3-1.5 20.7-2.6 31-3.9 6.1-0.8 10 2.6 13.5 6.9 2.3 2.8 3.1 6.1 2.8 9.8-0.7 8.3-1.2 16.7-1.9 25-0.1 1.7-0.6 3.5-1 5.4 2.7 0 5.3 0.4 7.8-0.1 16.1-2.9 32.1-6.2 47.6-11.4 3.8-1.3 7.5-2.9 11.2-4.3 0.6-0.2 1.1-0.6 1.6-0.6 5.1-0.4 8-3.8 9.3-8 1.8-5.6 2.9-11.4 4.1-17.2 0.5-2.4 0.5-5 0.6-7.5 0.1-3.5-1.1-5-4.6-5.6-0.8-0.1-1.6-0.2-2.9-0.3 0-2.8-0.3-5.7 0.1-8.5 0.2-1.3 1.9-2.4 2.7-3.7 1.1-1.8 2.6-1.2 4.1-0.9 6.5 1 11 4.8 14.1 10.4 3.8 6.9 5.5 14.5 5.9 22.3 0.2 3.7 0.1 7.4 0 11.1 0 1.3 0.4 2 1.6 2.5 2 0.8 3.9 1.8 5.8 2.8 0.5 0.3 1.2 1 1.2 1.6-0.3 4.9-0.4 9.8-1.1 14.6-0.6 4.1-2.5 7.6-7.5 8.4v8.5c-0.6 33.7-3.7 67.2-11.6 100-2.4 9.7-5.4 19.3-8.2 29-1.2 4.1-3.7 5.3-7.8 3.5-3.3-1.4-6.6-3.1-9.8-4.6-14-6.8-28.1-13.5-42.1-20.4-2.6-1.3-5.1-3-7.4-4.8-3.9-3-3.5-10.6 0.7-13.2 1.5-1 3.3-1.7 5.1-2.2 9.2-2.4 18.5-4.8 27.7-7 1.4-0.3 2.1-0.8 2.7-2.2 1.9-4.7 4.7-9.2 5.9-14 2.6-10.4 4.6-20.9 6.7-31.4 2.1-10.4 3.8-20.9 5.8-31.4 0.5-2.8-0.3-3.7-3.1-3-11.6 2.8-23.2 5.7-34.9 8.5-1.8 0.4-3.5 0.8-4.5-0.8-0.9 0.3-1.5 0.7-2.1 0.6-1.2-0.2-2.3-0.6-3.4-1-2.2-0.8-4.2-1.1-5.7 1.5-5.8-4.5-11.5-9-17.5-13.7-0.3 1.2-0.5 2-0.7 2.9-6.2 24.7-12.9 49.2-22.2 72.9-1.2 3-2.5 6-3.8 9-0.6 1.2-0.5 2.1 0.2 3.2 4.9 7.4 9.5 15 14.5 22.3 2.2 3.2 1.9 6.7 1.5 10-0.7 4.9-3.3 8.9-7.5 11.8-2.5 1.8-5.3 2.5-8.1 1.9-1.3-0.3-2.4-1.5-3.7-2.3-2.6-1.6-3.4-3.9-3.8-6.9-1.4-9.9-3.2-19.8-4.9-29.7-0.5-2.6-1.6-5.2-2.1-7.8-0.2-1.4 0.2-3 0.7-4.3 7.7-20.6 13-41.8 17.4-63.2 3-14.5 5.6-29.1 6.5-43.9 0.1-2.9 0-5.4 0-8.5zM819.6 768.2c-0.6 6.5-1.2 12.6-1.8 18.9h-8.6c-0.6 0-1.4-0.3-1.8-0.8-4.2-5.2-8.1-10.5-6.9-17.7 0.6-3.8 1.6-7.5 2.5-11.2 3.7-15.4 7.3-30.8 13-45.6 1.4-3.6 3.3-6.9 5.2-10.3 0.8-1.4 2.3-2.3 3.6-3.6 1.5 1.9 1.2 3.6 0.8 5.2-1.6 7.1-3.1 14.3-4.7 21.4-0.1 0.3-0.1 0.7-0.3 1.5 1.5-1 2.6-1.8 3.7-2.6 12.5-8.8 25.3-17 39.5-22.8 7.4-3 15.1-4.6 23.2-4.2 1.9 0.1 5.7 3.5 5.7 5.4 0.2 15.5 0.6 30.9-2.4 46.2-2.3 11.8-6.4 22.9-14.2 32.3-1.1 1.4-2.5 2.5-3.6 3.9-0.4 0.5-0.7 1.5-0.5 2 1.9 3.8 3.9 7.6 6 11.5 6-1.4 11.4-5.4 18-3.8 1 4.5 0.4 8.9-2.1 12.7-3.1 4.8-6.7 9.2-9.9 13.8-0.7 1-1.3 2.3-1.3 3.5 0.4 13.2 0.7 26.3 1.4 39.5 0.5 10.9-2.5 21-6.9 30.8-0.6 1.4-1.6 2.7-2.5 3.9-1.5 2.1-3.5 3.2-6.3 3.1-5.5-0.1-11.1-0.2-16.6 0-3 0.1-5-1.2-5.7-3.8-1.2-4.3-2.2-8.7-2.8-13.1-1.9-13.3 0.3-26.6 1.2-39.8 0.3-3.7 0.7-7.4 0.9-11.1 0.2-2.3-0.6-2.8-2.7-2-14.3 6-29 10.5-44.2 13.5-1.8 0.4-2.8-0.2-4.2-1.4-3.7-3.3-5-7.2-4.5-12 0.3-2.3 0.1-4.6 0.1-6.9 0-2.5 0.9-3.4 3.3-3.7 2.3-0.3 4.6-0.6 5.3-3.5 0.1-0.3 0.7-0.7 1.1-0.7 9.6-0.6 16.3-6.1 21.8-13.3 5.8-7.5 9.7-16.1 12.9-24.9 0.3-0.7-0.1-2.2-0.7-2.7-2.6-2-5.3-4-8.1-5.6-1.5-0.7-3.7-1.2-5.9-2z m4.7-18.8c5.5-3.6 10.8-7.2 16.4-10.6 2.7-1.6 4.4-3.5 4.5-6.7 0-1.1 0.5-2.2 0.8-3.2 1.6-5 2.5-5.6 7.7-5.6h1.3c2.9 0 6 3 6 5.9 0 4.9-0.2 9.8 0 14.6 0.1 2.6-0.8 4.4-2.6 6.2-5.3 5.4-8.8 11.8-9.4 19.5-0.1 0.7 0.3 1.9 0.8 2.1 4.9 2.2 9.6 1.7 13.9-1.7 3.3-2.6 5.4-6 7.2-9.7 4.4-9.3 6-19.3 7.5-29.3 0.8-5.6 1.4-11.1-0.1-16.7-0.3-1.3-0.7-2.1-2.3-2-2.6 0.2-5.2 0.2-7.7 0.5-2.1 0.3-4.1 0.8-4.9 3.2-0.1 0.4-1.1 0.6-1.7 0.7-4.5 0.4-8.7 1.9-12.4 4.4-2.2 1.4-4.4 3-6.4 4.7-7.5 6.7-13.5 14.9-18.6 23.7z m6.2 63.4c2.3-0.3 4.1-0.4 5.9-0.7 11.7-2.2 17.4-9.7 18.1-20.5 0.1-2.1-0.7-3.6-2.8-4.2-2.8-0.8-5.5-0.1-6.5 1.5-4.1 6.6-8.2 13.3-12.3 20-0.7 1.1-1.4 2.2-2.4 3.9z" p-id="968"></path><path d="M755.9 746.3c4.4-2.6 8.8-5.1 13.2-7.8 0.5-0.3 1-1.3 1-1.9 1.1-14.7 2.1-29.5 3-44.3 0.1-1.9-0.1-4.1-1-5.6-0.7-1.2-2.8-1.7-4.7-2.7 0-1.2 0.2-2.9 0-4.5-0.4-3.3 1-5.5 3.7-7 0.6-0.3 1.2-0.6 1.8-0.7 6.8-0.5 12.8 2.8 15.8 8.9 3.5 7 3.9 14.6 4.1 22.3 0.2 7.2-2.4 13.8-3.7 20.6-0.6 3-1.4 5.9-2 8.8-0.1 0.7 0 1.7 0.3 2.3 3.1 5.8 1.4 12.6-4.3 15.9-6 3.5-12.8 5-19.5 6.4-3.6 0.8-3.6 0.7-3 4.5 0.5 3.1 0.9 6.3 1.3 9.6l1.8-0.6c4.2-1.7 8.5-3.2 12.5-5.2 4.6-2.3 9.3-2.9 14.2-2.4 1.2 0.1 2.8 1 3.4 2 3.5 6 5.4 12.3 0.8 18.6-2.2 2.9-4.8 5.6-7.5 8-1.4 1.2-1.7 2.2-1.6 3.9 0.5 9.5 1 19.1 1.4 28.6 0.1 2.1-2.5 6.1-4.6 6.7-0.7 0.2-1.8 0-2.5-0.4-6.2-3.8-9.7-9.3-9.5-16.7 0.1-4.9 0.6-9.7 1-14.6 0.3-3.1-0.2-3.3-3.2-3.1-4.7 0.4-7 2.6-8.7 7.2-2.9 8-6.6 15.6-10.6 23.1-1.7 3.3-4.7 6.1-7.3 8.8-1.8 1.8-4.3 2.5-6.8 1.3-3.8-1.8-7.5-0.4-11.2 0.3-3.7 0.8-6.6 0.1-9.2-3-4.4-5.3-7.1-10.9-7.2-18.1-0.1-7.6 1.2-14.9 2.5-22.2 0.1-0.7 0.6-1.5 1.2-2 12.7-9.5 18.2-22.7 19.4-38.1 0.4-5.8 0.5-11.7 0.2-17.5-0.1-2-2-4-3.1-5.9-1.2-1.9-1.4-7.5-0.4-9.4 0.8-1.4 1.5-1.6 3-0.9 7.5 3.7 13.7 9.1 18.7 15.7 2.4 3.7 4.7 7.4 7.3 11.1zM172.5 824.9c0.3-3.2 0.9-6.3 1-9.5 0.7-26.8 1.3-53.5 2-80.3 0-0.9 0.5-2.1 1.2-2.6 4.4-3.2 16.2-4.1 21.5 0.2 2.4 2 4.2 3.9 3.8 7.6-1.5 11.8-2.6 23.6-3.9 35.4-1.3 11.9-2.8 23.8-4.2 35.6-0.6 5.1-1 10.2-2.1 15.1-0.8 3.4-2.4 6.8-4.2 9.9-2.3 4.1-5 8.1-7.9 11.8-3.5 4.5-7.3 8.7-11.2 12.8-1.1 1.1-2.6 1.8-3.8 2.6-6-4.2-4.7-10-4.3-15.6 0.5-6.8 4.5-12.1 8.1-17.5 0.5-0.8 1-1.6 1.7-2.6-4.5-0.7-8.8-1.2-13-2-5.9-1.1-11.7-2.7-16.9-5.7-7.8-4.4-10.7-10.4-9.4-19.8 1.4 0.1 2.9 0.1 4.2 0.5 5.7 1.5 11.4 3.2 17.1 4.8 0.9 0.2 1.8 0.5 2.7 0.7 0.1-0.2 0.1-0.4 0.2-0.6-0.4-0.2-0.7-0.4-1.1-0.5-1.6-0.5-3.2-0.8-4.7-1.4-4.3-1.6-5.3-3.2-5.3-7.8 0-15.3-0.1-30.6 0-45.9 0-2.8 0.8-5.5 1.3-8.3 1.1-5.7 2.1-11.5 3.3-17.2 0.2-0.9 0.8-2.4 1.4-2.5 1.7-0.4 3.6-0.1 4.5 1.8 0.4 0.8 0.4 1.7 0.8 2.5 0.5 1 1 2.1 1.8 2.6 6.7 4 10.4 9.5 10 17.7-0.2 3.6 0.9 7.3 0.6 11-0.2 4.4-1 8.8-2 13.1-0.8 3.7-2.2 7.4-3.2 11.1-0.2 0.6 0.2 1.6 0.6 1.9 1.4 0.9 1.8 2.1 2.1 3.7 1.8 9.4 3.8 18.8 5.7 28.2 0.6 3 0.9 6 1.3 9 0 0.1 0.1 0.2 0.3 0.2zM230.1 791.7c-1.2-17.6 10.6-33.2 27.5-36.2 20.2-3.6 41 13.4 41.4 34 0.2 7.6-0.3 15.1-3.7 22.1-8 16.2-25.6 22.6-42.7 15-11.9-5.3-19.9-14.1-22.3-27.3-0.2-1.2-0.2-2.5-0.3-3.8 0.1-1.2 0.1-2.5 0.1-3.8z m34.2-22.3c0.2 1 0.4 1.8 0.6 2.6 2.3 8.8 7.8 14.3 16.7 16.6 3.5 0.9 3.4 1 3.4 4.5 0 1.2-0.6 1.5-1.6 1.9-2.9 0.9-5.8 1.8-8.4 3.2-6 3.3-8.6 9.1-10.5 15.7 10-0.7 17.2-5.2 21.8-13.6 4.3-7.8 2.6-15.2-2.4-22-4.8-6.5-11.4-9.3-19.6-8.9z m-0.7 0.2c-0.5 0-0.8-0.1-1.2-0.1-7.5 1.1-13.7 4.4-18.5 10.3-6.1 7.5-6.6 14.6-1.3 22.6 4.9 7.4 12 11.1 21.1 11.4-1.2-5.5-3.5-10.1-8-13.1-3.2-2.2-6.8-3.9-10.3-5.4-1.9-0.8-2.2-1.7-2.1-3.4 0.1-1.7 0.3-2.7 2.4-3.2 10.2-2.3 15.4-9.3 17.9-19.1zM408.6 728c-4.1 0.8-6.7-0.9-9.2-4.3-4.7-6.5-11.1-11-18.5-14-1.3-0.5-1.9-1.1-1.9-2.5 0.1-2.4 0-4.7 0-7.1 0.1-1.7 1-2.9 2.7-2.7 10.2 0.7 20.4 1.4 30.2 4.4 3.5 1.1 6.8 3 10.1 4.8 1.6 0.9 2.4 2.5 2.1 4.5-0.3 2.5-0.1 5-0.8 7.4-1.2 4.5-4.5 7.3-8.6 8.9-1.6 0.7-3.9 0.4-6.1 0.6zM848.3 679.7c-0.7-3-2.2-5-5.5-5.3v-9.6c7.7 1.4 15.3 2.4 21.6 7.4 3.3 2.6 5 9.4 3.1 13.6-0.8 1.8-1.4 3.7-2.2 5.8-2-0.6-3.9-1.4-5.9-1.8-1.2-0.3-2.6-0.4-3.8 0-7.7 2.5-15.4 5.2-23.1 7.7-0.3 0.1-0.6 0-1 0-0.6-3.2-0.7-6.3 2.3-8.4 4.1-2.8 8.2-5.5 12.4-8.2l2.1-1.2z" p-id="969"></path></svg>