<?xml version="1.0" standalone="no"?><!DOCTYPE svg PUBLIC "-//W3C//DTD SVG 1.1//EN" "http://www.w3.org/Graphics/SVG/1.1/DTD/svg11.dtd"><svg t="1574995297273" class="icon" viewBox="0 0 1024 1024" version="1.1" xmlns="http://www.w3.org/2000/svg" p-id="2726" xmlns:xlink="http://www.w3.org/1999/xlink" width="200" height="200"><defs><style type="text/css"></style></defs><path d="M647.5 358.6c-29.6 4-37.2 8-53.1 47.8-11.9 29.2-73 177.4-94.6 232.2h-14.6C459 567.4 421 463.9 395.8 398.4c-12.4-32.7-19.9-37.2-46.9-39.8v-12.4h112.3v12.4c-32.7 3.5-34.5 8.8-28.3 25.2 11.1 32.3 43.3 120.3 71.2 193.7 23.4-57.1 52.6-129.1 73.4-184.9 9.7-25.7 4.4-29.6-31.8-34.1v-12.4h101.7v12.5z" p-id="2727"></path><path d="M348.9 653c29.6-4 37.2-8 53.1-47.8 11.9-29.2 73-177.4 94.6-232.2h14.6c26.1 71.2 64.1 174.7 89.3 240.2 12.4 32.7 19.9 37.2 46.9 39.8v12.4H535.1V653c32.7-3.5 34.5-8.8 28.3-25.2-11.1-32.3-43.3-120.3-71.2-193.7-23.4 57.1-52.6 129.1-73.4 184.9-9.7 25.7-4.4 29.6 31.8 34.1v12.4H348.9V653z" p-id="2728"></path><path d="M498.2 771.4c-149.6 0-271.4-121.7-271.4-271.4 0-149.6 121.7-271.4 271.4-271.4 149.6 0 271.4 121.7 271.4 271.4-0.1 149.6-121.8 271.4-271.4 271.4z m0-525.6C358 245.8 244 359.8 244 500s114 254.2 254.2 254.2 254.2-114 254.2-254.2-114-254.2-254.2-254.2z" p-id="2729"></path><path d="M498.2 813c-172.6 0-313-140.4-313-313s140.4-313 313-313 313 140.4 313 313-140.4 313-313 313z m0-608.8c-163.1 0-295.8 132.7-295.8 295.8 0 163.1 132.7 295.8 295.8 295.8C661.3 795.8 794 663.1 794 500c0-163.1-132.7-295.8-295.8-295.8z" p-id="2730"></path></svg>