<?xml version="1.0" standalone="no"?><!DOCTYPE svg PUBLIC "-//W3C//DTD SVG 1.1//EN" "http://www.w3.org/Graphics/SVG/1.1/DTD/svg11.dtd"><svg t="1574845335720" class="icon" viewBox="0 0 1024 1024" version="1.1" xmlns="http://www.w3.org/2000/svg" p-id="1895" xmlns:xlink="http://www.w3.org/1999/xlink" width="200" height="200"><defs><style type="text/css"></style></defs><path d="M601 109c0.7 0.8 1.4 1.6 2.2 2.4 26.4 26.4 52.8 52.9 79.3 79.3 11 11 19.6 23.6 25.7 37.8 0.6 1.4 2 2.9 3.4 3.6 18.3 8.8 34.3 20.7 47.9 35.7 20.4 22.6 33.5 48.9 38.3 79 6.8 43.3-2.5 82.8-28.5 118.3-4.6 6.2-9.7 12.1-15.2 17.6-50.4 50.5-100.8 101-151.3 151.4-0.8 0.8-1.6 1.5-2.2 2.1-33-32.8-65.9-65.4-98.9-98.2-32.9 32.8-65.7 65.6-98.8 98.6-0.9-0.8-1.7-1.5-2.5-2.2-50.6-50.6-101.3-101.1-151.7-151.9-23.5-23.6-38.3-52-43.4-84.9-6.7-43.1 2.8-82.6 28.7-117.9 4.5-6.1 9.5-12 14.9-17.4 50-50.2 100.2-100.3 150.4-150.5 0.9-0.9 1.7-2 2.5-2.9h2c0.8 0.9 1.5 1.8 2.3 2.6l60.7 60.7c0.8 0.8 1.6 1.7 2.8 3-1.3 1.1-2.6 2-3.7 3.1-49 49-98 97.9-146.9 146.9-1.9 1.9-3.7 3.7-5.4 5.7-12.1 13.4-17.4 29.3-15.8 47.2 1.2 14.8 7.5 27.6 18 38.2l84.6 84.6c0.8 0.8 1.3 1.8 2 2.9 1.4-1.3 2.2-2.1 3-2.8 28.1-28.1 56.3-56.2 84.3-84.4 17-17.1 22.2-37.7 16.3-61-1.2-4.7-3.5-9.1-5.6-14.6l-97.5 97.5c-0.4-0.4-0.9-0.8-1.4-1.2l-53.8-53.8c-0.8-0.8-1.6-1.8-2.3-2.8-4.3-6.7-3.1-14.2 3.1-20.4l248.9-248.9c0.8-0.8 1.6-1.7 2.4-2.6 0.3 0.2 0.8 0.2 1.2 0.2z m96.8 233.5L569.2 471.1c10.3 10.3 21 20.9 31.7 31.6 0.3-0.3 1-0.9 1.6-1.5 28.8-28.8 57.6-57.6 86.4-86.5 18.3-18.4 22.1-49.8 8.9-72.2z m-106.5-27.8c8.9-8.9 18-17.2 26.3-26.3 8-8.7 7-22.4-1.4-30.8-8.5-8.4-21.8-9-30.8-0.9-6.2 5.6-11.9 11.8-17.8 17.8 10 12.2 17.8 25.6 23.7 40.2zM850.4 785.8c-0.3-8.4-0.8-16-0.8-23.6-0.1-15.9 0-31.9-0.1-47.8 0-2.7 0.8-3.5 3.5-3.5 8.9 0.1 8.9 0 8.9 8.9 0 27.2 0 54.4 0.1 81.6 0 3.1-1 3.5-3.9 3.9-6.9 1-10.6-1.8-14.1-7.7-12.5-21.2-25.6-42-38.4-62.9-1-1.6-1.8-3.4-2.7-5.1v16c0 18.8 0 37.6 0.1 56.3 0 2.4-0.6 3.2-3.1 3.2-9.3 0.1-9.3 0.2-9.3-9.2 0-27.1 0-54.2-0.1-81.2 0-3 0.8-3.6 3.8-4 7.6-1 11.9 1.9 15.8 8.5 11.6 19.8 24 39.1 36.1 58.6 1.4 2.4 2.6 4.9 4.2 8zM339.8 753.9c3.9 3 8.8 5.5 11.9 9.4 10.2 12.6 5.2 31.4-9.8 38-10.4 4.6-21.4 4.6-32.4 4.3-3.4-0.1-6.7-0.6-10.1-0.8-1.9-0.1-2.6-1-2.6-3v-87.2c0-1.8 0.7-2.6 2.4-2.8 12.2-1.8 24.5-3 36.6 0.4 7.8 2.2 14 6.8 16.5 14.9 3 9.6-0.6 18.9-9 24.6-1.2 0.9-2.7 1.7-3.5 2.2z m-29.6 6.2v35.3c6-0.3 11.8-0.1 17.4-0.9 10-1.4 16-8.2 15.8-16.9-0.2-8.7-6.2-15-16-16.3-5.6-0.8-11.3-0.8-17.2-1.2z m-0.1-10.1c5.1 0 10.1 0.4 14.9-0.1 3-0.3 6.1-1.6 8.8-3.1 5.5-3.1 7-8.3 6.3-14.2-0.7-5.6-4.2-9-9.4-10.5-6.8-2-13.6-1.9-20.6-0.6V750zM512.3 753.8c3.9 3 8.8 5.6 12 9.5 10.1 12.5 5.1 31.2-9.6 37.9-7.2 3.3-14.9 4.2-22.6 4.4-6.1 0.2-12.2-0.3-18.3-0.5-3-0.1-4.5-1-4.5-4.6 0.2-28.3 0.1-56.6 0.1-84.9 0-1.8-0.1-3.4 2.4-3.8 12.1-1.7 24.3-3 36.3 0.4 7.9 2.2 14.3 6.8 16.8 15 3 9.6-0.6 18.9-9 24.6-1.4 0.8-2.8 1.6-3.6 2z m-29.9 40.9c8.2 1.1 16 1.1 23.6-2.1 6.4-2.7 9.6-7.9 9.6-14.6 0.1-6.3-2.6-11.4-8.4-14.4-7.9-4.1-16.4-3.2-24.9-3.1 0.1 11.6 0.1 22.7 0.1 34.2z m0.1-44.2c6.1-0.4 12-0.3 17.6-1.2 7.7-1.3 12.4-6.9 12.5-13.7 0.1-7.7-3.4-12.2-11.3-14.1-6.2-1.5-12.5-1.4-18.8-0.1v29.1zM282 757.4c0 11.6-2.5 22.6-9.5 32-9.8 13.2-23.4 18.1-39.5 16.6-8.9-0.8-16.6-4.3-23.1-10.3-6.9-6.4-11.1-14.4-13-23.6-2.7-13.7-1.9-27.1 4.6-39.7 8.4-16.2 25.3-24.6 43.5-22.5 19.9 2.4 33 17.6 35.9 36.7 0.7 3.6 0.8 7.2 1.1 10.8z m-13.9 0.4c0.1-8.4-1.7-16.4-6-23.8-9.6-16.5-31.6-18.6-43.9-4-5.1 6.1-7.4 13.5-8.3 21.3-1.2 10.7-0.1 21.1 5.6 30.5 10 16.4 31.7 18.4 43.7 4 6.7-8 8.8-17.7 8.9-28zM940.7 765.7c-5.7 0-11-0.1-16.2 0-2.2 0-2.9-0.7-2.8-2.8 0.2-9.5-1.2-7.7 7.7-7.8 7-0.1 14 0 21-0.1 2.3 0 3.3 0.5 3.3 3.1-0.1 13.4 0 26.9-0.1 40.3 0 1.1-1 2.9-1.9 3.2-15.1 4.9-30.4 7-45.8 2-16.6-5.4-25.8-17.6-28.7-34.5-2.4-14-0.8-27.6 7.7-39.6 8.1-11.5 19.6-17.5 33.4-19.4 9.7-1.3 19.3-0.5 28.7 2.4 3 0.9 4.3 2.1 2.9 5.3-0.9 2.1-1.4 4.5-1.9 6.3-6-1.1-11.4-2.7-17-3.1-12.3-1.1-23.7 1.6-32.3 11.2-6.3 7-8.4 15.6-8.5 24.7-0.2 10.1 1.9 19.5 8.6 27.4 6.2 7.3 14.7 10.5 24 10.9 5.2 0.2 10.4-0.7 15.6-1.3 0.9-0.1 2.4-1.5 2.4-2.3-0.1-8.5-0.1-17-0.1-25.9zM118.7 724c-6.6-1.2-12.5-2.8-18.5-3.2-14.5-0.9-28.6 4-34.9 17.4-7.2 15.1-6.7 30.2 2.8 44.3 5.9 8.8 15.2 12.1 25.4 12.6 5.2 0.2 10.4-0.8 15.6-1.3 1.4-0.2 2.5-0.8 2.5-2.7-0.1-8.3-0.1-16.6-0.1-25.4H96.8c-4.3 0-4.3 0-4.3-4.3 0.1-7.4-0.9-6.3 6.5-6.4 7.4 0 14.9 0.1 22.3-0.1 2.5 0 3.2 0.8 3.2 3.2-0.1 13.3 0 26.6-0.1 40 0 1.2-1 3.1-2 3.5-15.2 4.9-30.6 6.9-46.1 1.8-16.4-5.4-25.3-17.6-28.2-34.1-2.5-14.1-0.9-27.8 7.7-39.9 8.1-11.4 19.5-17.4 33.1-19.3 10-1.4 19.7-0.5 29.4 2.5 2.9 0.9 3.7 2.2 2.5 5-1.1 2.2-1.6 4.5-2.1 6.4zM423 721.9h-38.1v28.3h16.4c5.5 0 10.9 0.1 16.4 0 2.5-0.1 3.4 0.7 3.4 3.3 0 7.7 0.1 7.7-7.7 7.7H385V794h3.4c11.3 0 22.5 0.1 33.8-0.1 2.5 0 3.2 0.8 3.2 3.2 0 8 0.1 8-7.8 8-14.1 0-28.2-0.1-42.3 0.1-2.7 0-3.6-0.7-3.6-3.5 0.1-29.2 0.1-58.3 0-87.5 0-2.7 0.8-3.5 3.5-3.5 14.9 0.1 29.7 0.1 44.6 0 2.7 0 3.5 0.8 3.3 3.3-0.3 2.5-0.1 5-0.1 7.9zM557.2 721.9v28.3h3.6c9.8 0 19.7 0.1 29.5 0 2.4 0 3.2 0.8 3.2 3.2 0 7.9 0.1 7.9-7.6 7.9h-28.6v32.8h3.4c11.1 0 22.3 0.1 33.4-0.1 2.6 0 3.7 0.5 3.6 3.4-0.1 7.8 0 7.8-7.7 7.8-14.2 0-28.4-0.1-42.6 0.1-2.7 0-3.3-0.8-3.3-3.4 0.1-29.3 0.1-58.6 0-87.8 0-2.7 0.9-3.3 3.4-3.3 15 0.1 29.9 0.1 44.9 0 2.2 0 3 0.5 3.1 2.9 0.1 8.3 0.2 8.3-8.1 8.3-10-0.1-19.9-0.1-30.2-0.1zM644.9 722.1v3.9c0 25.1 0 50.2 0.1 75.3 0 2.9-0.8 3.7-3.7 3.7-9.4-0.1-9.4 0-9.4-9.4v-69.1-4.3h-28.3c0-3.5-0.2-6.7 0.1-9.8 0.1-0.7 2-1.6 3.1-1.6 11.6-0.1 23.1-0.1 34.7-0.1 9.6 0 19.2 0.1 28.8 0 2.4 0 3.2 0.6 3.2 3.1 0 8.2 0.1 8.2-8 8.2-6.6 0.1-13.4 0.1-20.6 0.1zM706 722.1c-8.5 0-16.4-0.1-24.4 0.1-3.1 0.1-4.1-0.7-4-3.9 0.2-7.4 0.1-7.4 7.4-7.4 19.6 0 39.3 0.1 58.9-0.1 3.1 0 3.9 1 3.8 3.9-0.2 7.5 0 7.5-7.4 7.5h-21.4v4c0 25.1 0 50.2 0.1 75.3 0 2.7-0.7 3.6-3.5 3.6-9.6 0-9.6 0.1-9.6-9.5v-69.1c0.1-1.3 0.1-2.6 0.1-4.4zM194.4 793.9v11c-0.9 0.1-1.8 0.2-2.6 0.2-15.6 0-31.2 0-46.9 0.1-2.5 0-3.4-0.6-3.4-3.3 0.1-29.3 0.1-58.5 0-87.8 0-2.7 1-3.4 3.4-3.2 3 0.3 7.1-0.8 8.8 0.8 1.6 1.5 0.8 5.7 0.8 8.7V794c13.4-0.1 26.5-0.1 39.9-0.1zM770.1 758.3c0 14.4-0.1 28.8 0.1 43.2 0 2.7-0.7 3.8-3.5 3.6-2.1-0.2-4.2-0.2-6.2 0-2.9 0.3-3.4-1-3.4-3.6 0.1-23 0-46.1 0-69.1 0-6.2 0.1-12.4 0-18.7 0-2.1 0.6-3 2.8-2.9 2.4 0.1 4.8 0.2 7.2 0 2.5-0.2 3.1 0.9 3.1 3.3-0.1 14.7-0.1 29.4-0.1 44.2zM598.3 851.3v37.2c0 1.2-0.3 3.3-0.9 3.4-1.7 0.4-3.6 0.2-5.4 0-0.4 0-0.7-1.4-0.7-2.2 0-16.2 0-32.3-0.1-48.5 0-1.9 0.8-2.3 2.5-2.5 3.6-0.4 5.9 0.5 7.9 4 6.9 11.9 14.3 23.6 21.6 35.5 0.1-0.6 0.2-1.2 0.2-1.9 0-11.5 0.1-22.9-0.1-34.4-0.1-3.2 1.5-3.2 3.8-3.3 2.4-0.1 3.5 0.5 3.5 3.2-0.1 15.4 0 30.8-0.1 46.2 0 1.4-0.9 3.9-1.4 3.9-2.5 0.1-5.4 1.5-7.3-1.8-3.7-6.4-7.7-12.6-11.5-19-4.2-6.6-8.2-13.4-12-19.8zM147.5 865.8v-23.6c0-1.9 0.4-3.4 2.5-3.4 6.9-0.1 14-0.9 20.8 0.3 11.8 2 18.9 11.2 19 23.4 0 4.2-0.4 8.5-1.6 12.5-3.1 10.6-10.8 16.1-21.5 17.2-5.3 0.6-10.6 0-16 0.2-3 0.1-3.4-1.2-3.3-3.7 0.2-7.6 0.1-15.3 0.1-22.9z m7.8 19.9c8 2.4 18.4-0.8 22.8-6.9 5.2-7.2 5.2-20.7 0-27.8-4.1-5.7-14.5-8.2-22.8-5.6v40.3zM637.1 866.5c0.4-9.9 2.7-18.4 10.6-24.1 14.5-10.4 33.8-1.9 36.5 15.8 1 6.5 0.7 12.8-1.4 19-3.7 10.4-13.8 16.8-24.5 15.6-10.8-1.2-19-9.3-20.6-20.4-0.2-2.2-0.4-4.3-0.6-5.9z m40.1 0.9c-0.6-7.4-1.5-12.5-4.7-16.9-5.4-7.6-17.3-7.8-22.8-0.3-5.8 7.8-6.1 21.2-0.8 29.3 5.9 9.1 18.6 9.3 24.1-0.1 2.4-4.2 3.2-9.3 4.2-12zM721.7 866.5c0.4-9.9 2.7-18.4 10.7-24.1 14.5-10.4 33.8-1.9 36.5 15.8 1 6.5 0.7 12.8-1.5 19-3.7 10.4-13.9 16.8-24.5 15.6-10.8-1.2-19-9.4-20.6-20.5-0.3-2.1-0.5-4.3-0.6-5.8z m7.6 1.5c1.1 2.8 2.2 7.9 4.8 12.1 5 8.3 17.4 8.2 22.9 0.2 5.8-8.3 5.9-21.2 0.2-29.6-5.6-8.2-17.5-8.2-23.3-0.1-3.2 4.6-3.9 9.8-4.6 17.4zM572.9 867.4h-23.2v3.5c0 6.2-0.1 12.4 0 18.7 0.1 3.1-1.9 2.7-3.7 2.6-1.8-0.1-4.1 0.8-4-2.6 0.1-16.2 0.1-32.3 0-48.5 0-3.7 2.7-2.2 4.4-2.5 2-0.3 3.3 0.1 3.3 2.7-0.2 5.1-0.1 10.3 0 15.4 0 1.1 0.1 2.1 0.1 3.4h23c0-6.1 0.2-12.1-0.1-18-0.1-3.2 1.3-3.5 3.9-3.5 2.6 0 3.9 0.3 3.9 3.5-0.2 15.6-0.2 31.2 0 46.8 0 3.3-1.6 3.4-4 3.4s-3.9-0.1-3.8-3.2c0.4-7.2 0.2-14.2 0.2-21.7zM252 847.2c-5.5-2.5-11.2-3-16.8-1.8-11.3 2.4-15.1 11-14.8 20.8 0.2 8 2.9 15 11 18.5 4.7 2 9.6 1.8 14.5 1 0.8-0.1 1.9-1.5 1.9-2.4 0.2-4.2 0.1-8.5 0.1-13.3-2.7 0-5.3-0.1-7.8 0-2.7 0.2-2.7-1.4-2.7-3.3 0-2 0.2-3.3 2.8-3.2 4.2 0.2 8.5 0.1 12.8 0 1.7 0 2.3 0.6 2.3 2.3 0 7.4 0 14.8-0.1 22.3 0 0.8-0.9 2.1-1.6 2.3-9.5 3.1-18.9 4-28.2-0.6-10.2-5-13.7-16.8-12.7-27 2.2-22 22.5-28.2 38.9-23.1 2 0.6 2.6 1.6 1.7 3.6-0.7 1.2-0.9 2.4-1.3 3.9zM813.1 847.2c-5.5-2.5-11.2-3-16.7-1.8-11.4 2.4-15.1 11-14.9 20.8 0.2 8 2.8 15 10.9 18.5 4.8 2.1 9.8 1.8 14.8 0.9 0.7-0.1 1.6-1.2 1.7-1.9 0.1-4.4 0.1-8.9 0.1-13.7-2.9 0-5.5-0.1-8.1 0-2.6 0.1-2.4-1.5-2.4-3.2 0-1.7-0.2-3.3 2.4-3.3 4.4 0.1 8.7 0.1 13.1 0 1.6 0 2.4 0.4 2.4 2.2 0 7.4 0 14.8-0.1 22.3 0 0.8-0.9 2.1-1.6 2.4-9.3 3.1-18.7 4-28-0.4-10.7-5.1-14.1-17.3-13-27.4 2.3-21.7 22.5-27.9 38.8-22.8 2 0.6 2.7 1.5 1.8 3.6-0.6 1-0.8 2.3-1.2 3.8zM353.4 892.2c-2.5 0-4.5 0.2-6.5-0.1-0.8-0.2-1.7-1.5-2.1-2.5-1.4-3.9-2.5-7.9-4-11.7-0.3-0.9-1.7-1.9-2.6-2-4.4-0.2-8.7-0.2-13.1 0-0.9 0-2.3 1.1-2.6 2-1.3 3.4-2.5 7-3.4 10.5-0.7 2.9-2.1 4.4-5.3 3.8-1-0.2-2.1-0.1-3.5-0.2 0.2-1.1 0.2-1.9 0.4-2.7 5.3-16.1 10.6-32.1 15.8-48.2 0.8-2.7 2.5-2.7 4.5-2.5 2.1 0.3 4.8-1.2 5.9 2.3 5.3 16.3 10.7 32.5 16.1 48.8 0.2 0.6 0.2 1.2 0.4 2.5zM331.6 848c-2.4 7.5-4.5 14.3-6.7 21.3h13.5c-2.2-7-4.4-13.8-6.8-21.3zM469.3 845.4v15.4h19.1c0.3 0.5 0.4 0.7 0.4 0.9 0.3 5.6 0.3 5.6-5.2 5.6h-14.3v18.2h21c0.3 0.7 0.5 1 0.5 1.3 0.3 5.5 0.3 5.5-5.3 5.5-7 0-14-0.1-21 0-2.5 0.1-3.1-0.8-3.1-3.2 0.1-15.7 0.1-31.4 0-47.1 0-2.3 0.5-3.3 3.1-3.3 7.5 0.1 15.1 0.2 22.6 0 2.6-0.1 3.1 1 3.1 3.3 0 2.4-0.5 3.6-3.2 3.5-5.8-0.3-11.6-0.1-17.7-0.1zM533.3 847c-10.9-4-20.1-2.3-25.6 4.7-5.3 6.6-5.5 19.7-0.5 27.2 4.8 7.1 13.4 8.9 26.3 5.2 0.4 1.4 1.1 2.9 1.2 4.3 0 0.9-0.8 2.3-1.6 2.6-9.8 3-19.5 3.4-28-3.3-8.5-6.6-10.4-16-9.1-26.2 1.5-11.5 7.5-19.6 18.9-22.3 5-1.2 10.6-0.7 15.8-0.1 4.7 0.5 4.7 1.2 3.4 5.6-0.2 0.7-0.5 1.4-0.8 2.3zM820.6 839.5c4.8-2.2 8-1.2 10.1 3.1 3.3 6.7 6.6 13.4 9.9 20.2 3.4-6.7 6.7-13.4 10.1-20.1 2.3-4.6 4.6-5.4 10.2-3.4-1.7 3.1-3.4 6.3-5.1 9.3-2.8 5-5.4 10.2-8.6 15-2.5 3.9-3.4 7.8-3.2 12.3 0.2 4.5-0.1 8.9 0.1 13.4 0.1 3.3-2 2.7-3.9 2.7-2 0-3.7 0.4-3.9-2.8-0.6-8 2.2-16.3-2-24-3.9-7.2-7.7-14.4-11.5-21.6-0.7-1.2-1.4-2.6-2.2-4.1zM298.7 845.7v33.2c0 3.5-0.2 7 0 10.5s-2 2.8-4.1 2.9c-2.1 0.1-3.7 0.1-3.7-3 0.1-13.8 0.1-27.5 0.1-41.3 0-0.6-0.1-1.3-0.1-2.3-4.1 0-8.1-0.1-12.1 0-2.7 0.1-3.3-1-3.3-3.5 0-2.3 0.3-3.6 3.1-3.6 10.8 0.1 21.6 0.1 32.4 0 2.9 0 3.1 1.4 3.1 3.7 0 2.2-0.3 3.6-3 3.4-3.9-0.2-7.9 0-12.4 0zM433.3 845.7c-4.5 0-8.5-0.1-12.5 0-3 0.1-2.9-1.6-3-3.7-0.1-2.3 0.4-3.4 3-3.4 10.9 0.1 21.8 0.1 32.7 0 2.8 0 2.8 1.5 2.8 3.6s-0.1 3.6-2.9 3.5c-4-0.2-8.1 0-12.6 0v3.6c0 13.1-0.1 26.2 0.1 39.3 0.1 3.3-1.2 3.7-4 3.7-2.7 0-3.8-0.6-3.8-3.6 0.2-13 0.1-26 0.1-39 0.1-1.2 0.1-2.3 0.1-4zM367.5 885.5h21.2c0.2 0.6 0.5 0.9 0.5 1.2 0.3 5.5 0.3 5.5-5.3 5.5-7 0-14-0.1-20.9 0-2.5 0-3.2-0.8-3.2-3.2 0.1-15.7 0.1-31.4 0-47.1 0-3.3 1.6-3.3 4-3.3 2.3 0 3.8 0.1 3.8 3.2-0.2 13.2-0.1 26.4-0.1 39.6v4.1zM700.5 885.6h21.1c0.4 0.5 0.5 0.6 0.5 0.7 0.6 5.9 0.6 5.9-5.4 5.9-6.9 0-13.7-0.1-20.6 0-2.3 0-3.3-0.5-3.3-3.1 0.1-15.8 0.1-31.6 0-47.4 0-3.3 1.7-3.1 3.9-3.1s3.9-0.2 3.9 3.1c-0.2 13.3-0.1 26.6-0.1 39.9v4zM205 865.6c0 7.9-0.1 15.7 0.1 23.6 0.1 3-1.5 3.1-3.7 3-2-0.1-4.1 0.6-4.1-2.9 0.1-15.9 0.1-31.9 0-47.8 0-3.5 2.2-2.7 4.1-2.8 2.2-0.1 3.7 0 3.6 3-0.2 8 0 15.9 0 23.9zM271.8 865.4c0 7.9-0.2 15.7 0.1 23.6 0.1 3.2-1.5 3.3-3.8 3.2-2.1-0.1-4 0.3-4-3 0.2-15.8 0.2-31.7 0-47.5 0-3.4 1.8-3 4-3 2.3-0.1 3.9 0 3.8 3.2-0.2 7.8-0.1 15.7-0.1 23.5z" p-id="1896"></path></svg>