<?xml version="1.0" standalone="no"?><!DOCTYPE svg PUBLIC "-//W3C//DTD SVG 1.1//EN" "http://www.w3.org/Graphics/SVG/1.1/DTD/svg11.dtd"><svg t="1575013543853" class="icon" viewBox="0 0 1024 1024" version="1.1" xmlns="http://www.w3.org/2000/svg" p-id="8809" xmlns:xlink="http://www.w3.org/1999/xlink" width="200" height="200"><defs><style type="text/css"></style></defs><path d="M305 292c-11.1 55-22.2 109.7-33.4 165 2.5 0.2 4.2 0.4 5.9 0.4 29.1 0 58.2-0.1 87.3 0.1 4.9 0 6.6-1.6 7.5-6.4 9.5-48.1 19.3-96.1 28.8-144.2 0.9-4.7 2.9-6 7.4-6 39.7 0.2 79.5 0.1 119.2 0.2 8.1 0 8.2 0 6.6 8-7.9 39.4-15.8 78.8-23.8 118.1-15 74.8-30 149.5-45.2 224.3-3.5 17.2-0.3 14-17.2 14.1-37.1 0.2-74.2 0.1-111.2 0.1-7.4 0-7.5-0.2-6.1-7.5 11.8-58.6 23.6-117.3 35.3-175.9 0.1-0.5 0-1 0-2.5-1.2 1.6-2.1 2.5-2.7 3.6-7.4 11.9-14.9 23.7-22.1 35.7-2.4 4-5.3 5.6-9.9 5.6-21.8-0.2-43.6 0-65.5-0.4-5.2-0.1-7.1 1.8-8 6.7-5.6 29.4-11.6 58.7-17.1 88.1-1 5.5-2.9 7.6-8.9 7.6-39.9-0.3-79.8-0.2-119.8-0.2-7.4 0-7.7-0.5-6.2-7.6 6-29.3 12.1-58.6 18.1-87.9 0.4-1.9 0.5-3.8 0.9-6.6h-24.2c-9.7 0-9.7 0-7.8-9.4 3.5-17.5 7.2-35 10.5-52.6 1-5.2 3.2-7.2 8.5-6.9 6.2 0.4 12.4-0.2 18.6 0.1 4.2 0.2 5.9-1.4 6.7-5.4 6.3-32.1 12.9-64.2 19.2-96.3 3.7-18.4 7.3-36.8 10.7-55.2 0.9-5 3.4-7.1 8.6-7.1 41.5 0.1 83 0 124.5 0.1 1.6-0.3 2.7 0 4.8 0.3zM760.7 394.5c-8.4-3-16-6.5-24-8.4-37.9-9-76.9 9.5-93.4 44.1-17 35.5-7.4 77.3 24 101.2 22.9 17.4 48.5 22.2 76.2 12.4 13.9-4.9 13.9-4.8 21.7 7.7 15.3 24.5 30.5 49 45.8 73.5 3.6 5.8 3.5 5.8-2.5 9-31.8 17.1-65.8 25.2-101.9 22.9-97.3-6.1-162.7-79-176.9-155.2-15.7-85.2 26.9-163 90.6-199.7 59.7-34.4 121.5-35.9 183.8-6.1 6.4 3.1 6.4 3.3 2.6 9-5.1 7.8-6.2 16.3-3.3 24.9 5.5 16.1-2.2 35-21.8 40.1-10.2 2.7-16.5 9.9-19.4 20.1-0.4 1.5-0.9 3-1.5 4.5z" p-id="8810"></path><path d="M827.9 439.5c-9.2 0.7-11.5-0.8-14.4-9.5-2.3-7-4.1-8.4-11.9-9.1-9-0.8-11-2.4-12.7-11.2-0.9-4.5-1.5-9.1-1.8-13.7-0.4-6.6 2.1-10.6 8.5-12.3 7.6-2 10.9-6.2 10.7-14-0.1-6.4 2.7-9.4 8.9-10.7 5.5-1.1 11.2-1.9 16.8-2.5 5.5-0.5 9.8 2.5 11.2 8.5 1.8 7.7 5.9 10.8 13.8 10.8 7.4 0 9.6 2.3 11.2 9.6 1 4.5 1.8 9 2.4 13.6 0.9 7.3-1.9 11.5-8.8 13.7-8.8 2.8-10.3 4.8-10.7 14-0.3 7.5-2.6 10.1-9.9 11.3-2.3 0.4-4.5 0.7-6.8 1-2.3 0.2-4.4 0.3-6.5 0.5zM908.2 440.3c-13.1 0-22.3-9.5-22.2-22.6 0.1-11.8 10.6-22.1 22.2-21.9 12.4 0.2 22.6 10.3 22.5 22.2-0.1 13-9.5 22.3-22.5 22.3zM883.7 376.1c-5.7 0.3-7.6-2.3-5.1-7.5 5.9-12.6 12-25.2 18.2-37.7 2.8-5.5 5.7-5.7 9.3-0.5 7.8 11.3 15.5 22.8 23.1 34.3 3.4 5.1 2 7.9-4.2 8.5-13.8 1.1-27.6 1.9-41.3 2.9zM841.8 344.8c-6.7 0.6-8.2-0.5-9.2-7-1-6.6-2.1-13.3-2.9-19.9-0.9-7.8 0.9-9.7 8.6-10.7 6.3-0.8 12.6-1.7 18.9-2.5 6.2-0.8 8.7 0.9 9.6 6.9 1.1 7.3 2 14.7 3 22.1 0.6 4.7-1.2 7.5-6 8.2-3.7 0.5-7.3 1.1-11 1.6s-7.4 0.9-11 1.3z" p-id="8811"></path><path d="M923.2 689.9v94.2H526v-94.2h397.2zM794.4 745c10.2-2.4 15-7.6 13.7-17.4-0.5-3.5-0.1-7.1-0.1-10.6 0-5-5.8-13.2-10.5-13.4-8.7-0.5-17.5-0.1-26.3-0.1v68.7h8.1v-60.3c5.1 0 9.5-0.1 13.9 0 4.7 0.1 7.1 2.7 7.3 7.3 0.2 3.4-0.2 6.7 0.1 10.1 0.4 5.2-2.6 6.9-7.1 7-2.8 0.1-5.6 0-9.2 0 0.5 4.2 0.4 7.8 1.6 10.9 3 7.6 6.5 14.9 10 22.2 0.6 1.3 2.3 2.8 3.7 2.9 4.2 0.4 8.4 0.1 12.6 0.1v-7.6c-3.6-1-8-0.9-9.4-2.9-3.5-5-5.7-11.1-8.4-16.9z m115.7-40.7h-27c-9.1 0-14 5-14 14.2v8.5c0 9.8 3.9 13.9 13.9 14.3 4.4 0.2 8.9 0.3 13.3 0.4 3.8 0.1 5.9 1.7 5.8 5.8-0.1 3 0.1 6 0.1 9 0 6.1-1.4 7.5-7.4 7.5h-25.4v7.4c10.9 0 21.5 0.1 32.1-0.1 1.3 0 2.6-1.4 3.7-2.4 5.9-5.2 5.1-12.2 5.4-19.1 0.3-5.9-1-11-6.2-13.4-4-1.9-9-2.2-13.5-2.2-15.2 0-14.7 0.2-14.5-14.5 0.1-7 0.9-7.8 8.1-7.8h25.6v-7.6z m-284.7 67.1h26.2c9.6 0 14.8-5.4 14.9-15.3v-9c0-7.5-5.6-13-13.2-13h-6.9c-14.3 0.3-14.1 0.3-13.9-13.9 0.1-7.5 0.7-8.2 8.2-8.2H666v-6.9c-0.6-0.3-0.9-0.6-1.2-0.6-8.3-0.1-16.7-0.1-25-0.2-10.2 0-14.6 4.5-14.6 14.6 0 3.5-0.3 7.1 0.1 10.6 0.3 2.4 1.4 4.8 2.7 7 3.6 6.5 10.1 4.8 15.7 4.9 16.5 0.5 14.4-0.4 14.6 15.5 0.1 5.5-1.7 7.1-7.3 7.1h-25.4c-0.2 2.7-0.2 4.8-0.2 7.4z m55.3-29.8c4.3 0 7.8-0.4 11.3 0.1 7.9 1.1 13.6-1.9 18.9-7.8 8.6-9.5 4.5-27.1-8.1-29.2-9.2-1.6-18.9-0.3-28.2-0.3v66.8h6.2v-14.5c-0.1-4.8-0.1-9.5-0.1-15.1z m-101.5-37.3c-8.7 0-16.8-0.2-24.9 0.1-1.6 0.1-3.3 1.6-4.8 2.7-7.6 5.5-11.1 12.5-9.8 22.2 0.9 6.8 0.6 13.8 0 20.7-0.7 7.3 1.3 13 7.3 17.4 2.4 1.8 4.4 5.4 6.8 5.6 8.4 0.7 16.8 0.3 25.4 0.3v-8c-0.7-0.2-1.2-0.6-1.6-0.6-5.8-0.1-11.7-0.1-17.5-0.1-7.3 0-11.8-4.3-11.8-11.6v-29.7c0-5.9 5.4-11.2 11.4-11.2h19.7c-0.2-2.9-0.2-5-0.2-7.8z m144.2 36.8c0 6.2-2.2 13.4 0.5 17.8 4.5 7.5 9.9 16.1 21.9 13.8 5.4-1 17-9.1 17.5-14.4 0.5-5.6 0.1-11.2 0.1-17.1h-7.2c0 2.9-0.4 5.8 0.1 8.5 1.2 6.6-2.9 11-7.4 13.4-3.3 1.7-9.2 1.2-12.6-0.7-4.5-2.6-7.2-7.6-6.1-13.6 0.4-2.4 0.1-4.9 0.1-7.6-2.6-0.1-4.5-0.1-6.9-0.1z m40-6.5c0-3.7-0.4-6.7 0.1-9.6 1.7-9.5-5.6-14.1-10.9-19.3-2.2-2.2-7-2-10.7-2.2-2.9-0.2-6.5-0.3-8.5 1.2-10.2 7.5-12.7 17.8-9.6 29.8h6c0.1-10-1.8-21.1 12.3-22.9 2.4-0.3 5.6 0 7.5 1.2 7.9 5.2 6.6 13.6 6.4 21.7 2.6 0.1 4.7 0.1 7.4 0.1z m73.8 0h7.6v-23.1h16.1v-6.7h-40.3c0.1 2.4 0.3 4.4 0.4 7h16.2v22.8z m0.2 7v31h7v-31h-7z m-261.3-4.3c-6.4-3.4-11.9-6.4-17.8-9.6V748c6.1-3.6 11.4-6.9 17.8-10.7z m36.4 4.9v-6.8h-22.8l-1.3 1.3c1.3 1.8 2.4 5.1 3.8 5.3 6.6 0.5 13.3 0.2 20.3 0.2z" p-id="8812"></path><path d="M681.2 712.8v20.7c5.9 0 11.4 0.1 16.9 0 3.7-0.1 8.9-6.2 9.1-10.2 0.2-4.2-3.9-10-8-10.3-6-0.5-11.9-0.2-18-0.2z" p-id="8813"></path><path d="M681.2 712.8c6.1 0 12-0.3 18 0.1 4.1 0.3 8.2 6.1 8 10.3-0.2 4-5.4 10.1-9.1 10.2-5.5 0.2-11 0-16.9 0v-20.6z" p-id="8814"></path></svg>