<?xml version="1.0" encoding="utf-8"?>
<!-- Generator: Adobe Illustrator 23.1.1, SVG Export Plug-In . SVG Version: 6.00 Build 0)  -->
<svg version="1.1" id="圖層_1" xmlns="http://www.w3.org/2000/svg" xmlns:xlink="http://www.w3.org/1999/xlink" x="0px" y="0px"
	 viewBox="0 0 1024 1024" style="enable-background:new 0 0 1024 1024;" xml:space="preserve">
<g>
	<path d="M208.5,491.9c-14.4-13.1-28-27.8-39.9-44c-10-13.6-18.8-27.9-23.9-44.2c-9.2-29.3-1.3-51.7,24.5-68.5
		c18.8-12.3,39.9-18.7,61.5-23.5c46.9-10.3,94.4-12.1,142.2-11c48.8,1.1,97.3,5.6,145.4,14.2c47.4,8.5,94,21,140.3,34.2
		c83.7,23.7,166.4,50.7,248.6,78.9c56.1,19.3,93.3,71,93.7,130.1c0.5,67.3-50.9,126.7-117.7,136c-57.5,8-111.6-19-140.3-69
		c-6.4-11.2-15.2-21.1-23.7-31c-45.6-52.9-95.9-100.7-154.1-139.8c-36.4-24.4-75.9-41.8-117.6-54.9c-45.5-14.2-91.2-27.5-138.2-35.4
		c-32-5.4-64.2-9.6-96.8-4.9c-6.8,1-13.6,2.6-20,4.9c-19.9,7.1-29.1,22-27.2,43.5c1.5,17,8.3,32.2,17.2,46.4
		C190.7,467,200,479.5,208.5,491.9z M821.6,537.6c0.2,0,0.4,0.1,0.6,0.1c0,3.8,0.3,7.6-0.1,11.4c-0.5,4.8,1.2,8.3,5.1,11
		c11.4,8.1,22.6,16.4,34,24.3c1.7,1.2,5,1.6,6.9,0.8c15.7-6.6,31.2-13.6,46.7-20.6c1.5-0.7,3.3-2.7,3.5-4.3
		c1.9-14.7,3.5-29.4,5-44.2c0.2-1.5-0.6-3.8-1.8-4.7c-13.5-10.6-27.1-21.1-40.9-31.3c-1.6-1.2-4.7-1.8-6.5-1.2
		c-13.4,4.9-26.6,10.3-39.9,15.4c-5.1,2-7.7,5.8-8.4,11C824.3,516.1,823,526.8,821.6,537.6z M897.1,664.1
		c14.5-2.2,28.2-6.2,39.5-15.7c2.8-2.4,5.3-5.6,6.8-8.9c6.5-14,8.7-29,10.5-44.1c0.2-1.8-1.3-4.5-2.8-5.7
		c-9.3-7.4-18.8-14.7-28.5-21.7c-1.6-1.1-4.8-1.1-6.7-0.3c-16,6.8-31.8,13.8-47.6,20.9c-1.8,0.8-3.7,2.9-4.2,4.7
		c-3.2,11.5-5.8,23.1-9.1,34.6c-1.2,4.1-0.1,6.8,2.5,9.7c10.2,11.5,23.9,17.9,36.8,25.7C895,663.8,896.2,663.9,897.1,664.1z
		 M744,540.1c0.1,0,0.1,0,0.2,0c0,2.7,0.3,5.5-0.1,8.1c-0.9,5.7,1.5,9.9,6,12.9c9.6,6.3,19.4,12.5,29.3,18.3
		c1.4,0.9,4.6,0.2,6.2-0.9c9.7-6.7,19-13.9,28.6-20.6c3.7-2.5,5.1-5.2,5.1-9.7c-0.2-16.1,0.1-32.2,4.6-47.9c0.4-1.4-0.9-4-2.2-5.1
		c-7.4-6.1-14.9-12.1-22.7-17.7c-1.7-1.2-5.4-1.9-7.1-0.9c-11.3,6.8-22.5,13.7-33.3,21.3c-8.5,6-13,14.8-13.5,25.4
		C744.9,529,744.4,534.5,744,540.1z M965.3,504.9c-1-11-1.6-21.4-3-31.7c-0.4-3.1-2.2-6.6-4.4-8.8c-11.5-11.8-24.9-20.9-39.9-27.7
		c-2.1-1-4.5-2.3-6.6-2.1c-12.5,1.2-25,2.9-37.9,4.4c1.3,12.3,2.3,23.1,3.6,33.8c0.1,1,1.1,2.4,2,2.9c16.2,8.2,29.5,20.3,43.1,32
		c1.3,1.1,3.6,2,5.3,1.8C939.5,508.1,951.5,506.6,965.3,504.9z M785.2,662.2c7.4,5.8,13.9,12.4,21.7,16.6
		c16.2,8.5,33.9,12.3,52.3,12.7c21.3,0.4,22.8-0.9,30.9-20.8c1.7-4.1,0.8-5.9-2.9-8c-12.2-7-24.7-13.7-33.8-25
		c-0.7-0.9-2.4-1.5-3.7-1.5c-14.6-0.3-29.2-0.3-43.8-0.7c-3.4-0.1-5.3,0.8-6.9,3.6C794.7,646.4,790.3,653.6,785.2,662.2z
		 M743.3,558.8c-5.6,8.1-13.2,14.4-11,25c5.2,25.2,16.3,47.5,34.2,66.1c3.3,3.4,7.9,5.4,12,7.9c3.3,2,5.5,1,7.3-2.5
		c3.2-5.9,6.5-11.7,10.2-17.3c1.9-2.9,2.2-5.2,0.5-8.4c-7.4-13.6-12.7-28-15.9-43.1c-0.4-1.8-2.1-3.8-3.7-4.6
		C765,575.9,753.4,569.4,743.3,558.8z M986.6,557.2c-8.9,11-17.2,21.1-25.3,31.5c-2,2.5-3.9,5.7-4.4,8.7
		c-2.4,15.2-4.8,30.3-11.1,44.6c-0.6,1.3,0.4,3.9,1.5,5.2c1.5,1.7,3.9,2.6,5.7,4c2.8,2.1,4.7,1.3,6.9-1.1
		c20.3-21.7,32.4-47.3,35.9-76.8c1.4-11.5,1.1-11.5-9.7-16.2C986,557.1,985.8,557.1,986.6,557.2z M749.6,502.2
		c12.2-12.1,26.2-21.5,41.7-28.8c1.7-0.8,2.8-3.2,4-4.9c7-9.2,13.8-18.5,21-27.4c2.2-2.7,3.1-4.6,0.9-7.6c-1.1,0.3-2.1,0.4-3.1,0.8
		c-29.7,12.2-52.4,32.1-68.2,60.1C743.4,499.2,746.3,500.5,749.6,502.2z M967.2,474.6c0,11.1-0.1,21.8,0.1,32.6
		c0,1.6,1.5,3.2,2.2,4.9c4.6,11.1,9.6,22.1,13.5,33.5c2.7,8,4.9,10.9,13.8,12.2C996.2,526.7,986.6,499,967.2,474.6z M902,431.3
		c-1.1-0.5-2.1-1.2-3.2-1.5c-24.9-6.8-49.6-6.4-74.3,1.1c-1.3,0.4-2.1,2.2-3.2,3.3c1.5,0.8,2.9,2.3,4.4,2.3
		c11.9,0.2,23.8,0.1,35.6,0.2c3,0,6.2,1.3,9.1,0.8C880.9,435.8,891.2,433.5,902,431.3z"/>
	<path d="M227.7,519.5c11.7,0,22.9,0,34.3,0c0.2,2.5,0.4,4.7,0.6,8.2c5.8-7.6,13.1-7.6,20.6-7.6c27,0.1,54-0.1,81,0.2
		c5.2,0,10.5,0.9,15.4,2.4c7.7,2.5,11.8,8.3,11.8,16.5c0.1,21.6,0.2,43.1,0,64.7c-0.1,11.5-8.3,19.1-21.1,19.5
		c-17,0.5-34.1,0.2-51.1,0.3c-11.8,0-23.6-0.1-35.4,0c-8.2,0.1-16-0.3-21.6-8.4c0,3.9,0,7.7,0,11.6c0,10.1-0.1,20.3,0,30.4
		c0.2,14.1,6.6,21.7,20.6,23.2c7.3,0.8,14.8,0.4,22.3,0.4c16.7,0.1,33.4-0.2,50,0.3c24.2,0.7,40.7-9.6,47.2-32.3
		c0.1-0.5,0.5-0.9,0.9-1.5c5.2,24.6-6.5,41.3-31,44.4c-6.1,0.8-12.3,1.2-18.4,1.2c-28.5,0.1-56.9,0.1-85.4,0c-2.7,0-5.4,0-8.2-0.2
		c-20.5-1.4-32.7-13.7-32.8-33.9c-0.2-45.3-0.1-90.6-0.1-135.9C227.5,522.1,227.6,521,227.7,519.5z M327,528.8c0,29.1,0,57.9,0,87
		c6.5,0,12.4,0.1,18.4,0c7.7-0.2,12.1-3.9,12.2-11.6c0.3-21.2,0.2-42.4,0-63.5c-0.1-6.8-3.9-11.1-10.5-11.7
		C340.4,528.4,333.8,528.8,327,528.8z M293.1,528.5c-5.4,0-10.4,0.1-15.5,0c-10-0.2-15.3,4.9-15.4,15.1c-0.1,18.7,0,37.3,0,56
		c0,8,5.4,14.9,13.5,15.9c5.6,0.7,11.4,0.1,17.4,0.1C293.1,586.5,293.1,557.8,293.1,528.5z"/>
	<path d="M128.7,642.1c0-43.5,0-86.3,0-129.5c10,0,19.7,0,29.8,0c0,38.8,0,77.3,0,115.8c0.8,0.1,1.3,0.4,1.4,0.2
		c5.2-6.8,12.3-7,20-6.6c7.7,0.4,15.5,0.1,24.6,0.1c-9.3,8.7-17.5,16.8-26,24.4c-15.3,13.8-30.5,27.8-46.4,41
		c-4.8,3.9-11.5,6.1-17.6,7.6c-13.7,3.3-27.6,2.5-43.2,1c28.2-14,50.4-33.3,72.6-52.6c-0.2-0.5-0.4-1-0.6-1.5
		C138.5,642.1,133.7,642.1,128.7,642.1z"/>
	<path d="M91.4,530.4c9.9,0,18.9,0,28.6,0c-0.6,8.8-1.2,17.2-1.9,25.6c-1.2,14.1-2.6,28.1-3.5,42.2c-1.3,19.4-10.1,28.2-29.4,27.2
		c-6.8-0.3-10,2.1-13.1,7.5c-5.3,9.5-6.5,19.8-8,30.2c-1.3,9-3,17.8-4.3,26.8c-0.5,3.1-1.7,4.2-4.9,4.1c-9-0.2-18.1-0.1-27.8-0.1
		c1.1-7.2,2-13.8,3-20.3c1.2-7.9,2.6-15.7,3.6-23.6c2-16.5,10.6-25.9,27.1-28.5c4.5-0.7,9-1.3,13.5-1.1c3.8,0.1,5.8-1.4,6.4-4.9
		c1.9-10.3,4.1-20.6,5.3-30.9C88.1,566.7,89.6,548.7,91.4,530.4z"/>
	<path d="M434.2,580.1c0-4.3,0-7.7,0-11.5c39.4,0,78.6,0,118.1,0c0,3.6,0,7.1,0,11.3c-17.5,0-35,0-52.7,0c0,19.8,0,38.9,0,58.7
		c18.9,0,37.8,0,57.1,0c0,4.2,0,7.7,0,11.9c-18.9,0-37.8,0-57.3,0c0,14.7,0,28.7,0,43.1c-4.3,0-8,0-12.3,0c0-14.1,0-28.1,0-42.8
		c-19.5,0-38.5,0-57.9,0c0-4.1,0-7.6,0-11.8c18.9,0,37.9,0,57.4,0c0-20,0-39.2,0-59C469.1,580.1,452,580.1,434.2,580.1z"/>
	<path d="M685.3,692.3c-3.7,0-7.4,0-11.4,0c-0.2-1.9-0.5-3.6-0.7-5.6c-26,0-51.8,0-77.9,0c-0.2,1.9-0.4,3.6-0.6,5.6
		c-3.9,0-7.7,0-12.1,0c0-5.9,0-11.4,0-17c0-12.7,0.1-25.4,0-38c-0.1-5.2,1.7-7.2,7.3-7.2c29.9,0.3,59.8,0.2,89.7,0.1
		c3.9,0,6.2,0.8,6.2,5.3c-0.1,18.3-0.1,36.6-0.1,54.9C685.7,690.9,685.5,691.4,685.3,692.3z M673.2,643c-0.5-0.4-0.6-0.7-0.7-0.7
		c-24.8-0.1-49.6-0.2-74.4-0.2c-1,0-2.9,1.4-2.9,2.2c-0.2,10-0.1,20.1-0.1,30c26.6,0,52.4,0,78.1,0
		C673.2,663.5,673.2,653.1,673.2,643z"/>
	<path d="M700.6,613.4c-3.9,3.1-6.7,5.3-9.8,7.7c-0.6-0.5-1.3-0.9-1.5-1.4c-4.7-9.7-12.6-10.5-22.4-9.5c-29.7,3-59.5,5.1-89.3,7.5
		c-1.6,0.1-3.3,0-5.7,0c-1-3.5-2-7.2-3.2-11.4c1.9-0.3,3.5-1,5-0.8c6.7,0.8,10.6-2.8,14-8c7.2-11,14.8-21.8,22.5-33.2
		c2.8,1.8,5.9,3.7,9.9,6.2c-7.2,11-14.1,21.7-21.6,33.2c24.3-1.7,47.8-3.4,72.7-5.2c-6.8-6.1-12.8-11.5-19.1-17.1
		c4.2-3.7,7.2-6.3,10.8-9.4C675.4,585.7,687.7,599.3,700.6,613.4z"/>
	<path d="M205.6,614.7c-15.7,5.9-32-3.8-33.5-21c-1.8-20.2-3-40.4-4.5-60.5c-0.1-1.1,0-2.1,0-3.6c8.3,0,16.3,0,24.5,0
		C197.6,557.8,194.8,587.3,205.6,614.7z"/>
	<path d="M52.7,566.2c1.6,18.4,8.1,34,22.7,46.6c-3.4,0-6.9,0.3-10.3-0.1c-6.6-0.6-13.4-1.1-19.8-2.6c-10.5-2.4-17.7-8.2-19.4-19.8
		c-1.2-8-3.6-15.8-5.5-24.2C31.3,566.2,41.7,566.2,52.7,566.2z"/>
	<path d="M237.2,365.9c-8.5,3.3-18.2,6.3-27.2,10.8c-17.1,8.5-22.9,20.3-20.2,39c2.8,19.9,9.9,38.4,17.5,56.8c0.7,1.6,1.3,3.3,1,5.6
		c-5.9-8.7-12.2-17.1-17.7-26c-8-13-14.7-26.6-16.1-42.2c-1.8-20.7,5.3-31.8,24.9-38.2C212,367.7,225,366,237.2,365.9z"/>
	<path d="M30.2,515.9c11,0,21.5,0,32.3,0c3.3,16.5,5.1,33.8,21.4,45.8c-14.7,0.1-28.1,0.9-39.8-6.8c-3.2-2.1-6.3-5.9-7.3-9.6
		C34.1,535.9,32.4,526.1,30.2,515.9z"/>
	<path d="M539,588.9c3,1.5,6.1,3.1,10.6,5.4c-7.1,12.9-14,25.4-21.1,38.2c-4.1-2.3-7.2-4.1-10.4-6C525,614.1,531.8,601.8,539,588.9z
		"/>
	<path d="M436.1,594.6c3-1.8,6.1-3.8,10.2-6.3c6.9,12.4,13.7,24.4,20.7,36.9c-4,2.2-7.3,3.9-10.6,5.7
		C449.6,618.7,443,606.9,436.1,594.6z"/>
</g>
</svg>
