<?xml version="1.0" encoding="utf-8"?>
<!-- Generator: Adobe Illustrator 24.1.1, SVG Export Plug-In . SVG Version: 6.00 Build 0)  -->
<svg version="1.1" id="圖層_1" xmlns="http://www.w3.org/2000/svg" xmlns:xlink="http://www.w3.org/1999/xlink" x="0px" y="0px"
	 viewBox="0 0 200 200" style="enable-background:new 0 0 200 200;" xml:space="preserve">
<path d="M98.6,36.2L65.5,77h33.7l0.1,86.6l19.6-67.3c0,0,37.6,4.1,29.9-32.1c0,0-1.8,16.9-15,18.9s-18.5-3.3-21.2-11.2
	c0,0,7.7,8.8,17.9,5.2c10.2-3.6,10.8-8.6,12.4-18.2c1.6-9.7,1.9-21,12-22.1c0,0-11.8-5.3-19.2,11.2c0,0-1.5,4.9-2.3,10.4
	s-4.4,13.1-12.1,9.2s-1-12.6,5.6-13.3c0,0-6.8-2.2-10.4,4.8c0,0-1.6-5.3,7.4-7.9c7.7-2.2,7.3-6.8,7.3-6.8s-0.2-4.9-3.8-5.8
	c0,0,2.5,4.6-5.6,6c-8.1,1.4-13.6,6.8-15.1,11c-1.4,4.2-3,13.2,1.5,21.3c0,0-11.1-6-3.2-24.7c0,0-4.5,2.4-6.6,10.4h-7.3L98.6,36.2z"
	/>
<path d="M149.8,55.2c0,0-2-10.8,7.6-15.9c9-4.9,9.8-8.2,9.8-8.2s0.2,7.6-2,10.9C160.2,49.6,156.4,45.9,149.8,55.2z"/>
<polygon points="43.2,77.1 98.6,36.2 65.5,77 99.3,77 99.4,163.7 98.2,166.7 78.5,98.2 55.5,97.9 "/>
</svg>
