<?xml version="1.0" standalone="no"?><!DOCTYPE svg PUBLIC "-//W3C//DTD SVG 1.1//EN" "http://www.w3.org/Graphics/SVG/1.1/DTD/svg11.dtd"><svg t="1575532434942" class="icon" viewBox="0 0 1024 1024" version="1.1" xmlns="http://www.w3.org/2000/svg" p-id="3511" xmlns:xlink="http://www.w3.org/1999/xlink" width="200" height="200"><defs><style type="text/css"></style></defs><path d="M798.3 229c0.1 2.8 0.2 5.7 0.2 8.5v531.6H197.3v-540c200.4-0.1 400.7-0.1 601-0.1zM319.4 671c1-2.2 1.6-3.7 2.3-5.1 10.1-19.3 21.2-38.2 30.1-58.1 5.7-12.9 13.9-17.5 27.4-19.4 73.6-10.4 147.1-21.8 220.6-33.1 4.7-0.7 6.7 0.4 8.8 4.4 24.9 47.9 50 95.6 74.9 143.5 1.9 3.7 4 4.7 7.9 4.7 23.3-0.2 46.5-0.1 69.8-0.1 1.7 0 3.4-0.2 5.9-0.3-30.4-54.3-60.5-107.9-90.8-162 22.7-3.7 44.1-7.2 65.5-10.7-0.8-0.9-1.6-1.1-2.4-1.1-21.6-1.2-43.2-2.6-64.8-3.6-5.1-0.2-8.2-1.7-10.9-6.5C635 471.8 606 420.2 577 368.5c-7-12.5-14-25-21.3-38 35.9-13.5 71.3-26.7 106.6-39.9-1.6-1.2-3-1.4-4.4-1.4-64.5 0-129.1 0-193.6-0.1-4.2 0-6 1.8-7.8 5.1-75 136.3-150.2 272.7-225.2 409-0.7 1.3-1.2 2.8-1.9 4.3h194.8c0.1-0.3 0.1-0.6 0.2-0.9-34.9-11.8-69.6-23.6-105-35.6z" p-id="3512"></path><path d="M590.9 526.1c-64.2-3.3-126.9-6.5-190.7-9.7 5.6-10.8 10.8-20.8 16-30.7 20.3-38.8 41.1-77.5 60.7-116.6 5-10 11.9-15 22.8-16.9 30 57.2 60.3 114.9 91.2 173.9z" p-id="3513"></path></svg>