<?xml version="1.0" standalone="no"?><!DOCTYPE svg PUBLIC "-//W3C//DTD SVG 1.1//EN" "http://www.w3.org/Graphics/SVG/1.1/DTD/svg11.dtd"><svg t="1575013403190" class="icon" viewBox="0 0 1024 1024" version="1.1" xmlns="http://www.w3.org/2000/svg" p-id="8174" xmlns:xlink="http://www.w3.org/1999/xlink" width="200" height="200"><defs><style type="text/css"></style></defs><path d="M531.9 688.8H90V309.9h611.3c2.5 5 4.5 10.4 7.6 14.9C788.7 441.2 868.7 557.6 948.5 674c2.9 4.2 3.7 9.8 5.5 14.7h-97.6c-13.3-18.5-27.1-36.8-39.8-55.7-5.2-7.7-10.8-10.2-19.9-10.2-73 0.4-145.9 0.4-218.9 0-10.1-0.1-15.9 3.1-20 12-8.3 18.2-17.2 36.1-25.9 54z m-43.2-287.3c-19.3-10.1-35.6-21.7-53.8-27.7-61.2-20.2-123.3-20.7-184.6-0.2-33.1 11.1-60.6 30.6-77.8 62.1-39.6 72.5-6.2 157.8 73.4 187.1 44.1 16.2 89.8 17.4 135.9 12.5 36.7-3.9 71.3-13.9 101.2-36.7 3.8-2.9 8.7-7.8 8.8-11.9 0.7-36.2 0.4-72.4 0.4-109.3H312.9v49.9h124.7c0 8.7-1 15.5 0.2 21.9 2.9 15.4-4.6 22.7-18.1 27.2-49.6 16.5-99.6 17.9-149.5 2.7-24.5-7.5-41.8-24.2-49.6-49.7-17.4-56.7 9.2-104.9 67.2-116 58.5-11.2 116.3-11.3 167.3 29.7 10.5-13 20.6-25.5 33.6-41.6z m264.5 140.1c-23.2-33.8-44.8-65.2-67.3-98-22.5 33.4-43.5 64.8-65.8 98h133.1z" p-id="8175"></path></svg>