<?xml version="1.0" standalone="no"?><!DOCTYPE svg PUBLIC "-//W3C//DTD SVG 1.1//EN" "http://www.w3.org/Graphics/SVG/1.1/DTD/svg11.dtd"><svg t="1574850207306" class="icon" viewBox="0 0 1024 1024" version="1.1" xmlns="http://www.w3.org/2000/svg" p-id="838" xmlns:xlink="http://www.w3.org/1999/xlink" width="200" height="200"><defs><style type="text/css"></style></defs><path d="M654.2 267.8c0.4-1.4 0.7-2.8 1-4.2 0.3-1.5 0.5-3 0.7-4.5 0.2-1.5 0.2-3 0.3-4.5l4.8 0.1c0-1.7 0-3.3-0.1-4.9-0.1-1.7-0.3-3.3-0.6-4.9-0.3-1.6-0.6-3.2-1-4.8l-4.6 1.2c-0.4-1.5-0.8-2.9-1.3-4.3s-1.1-2.8-1.7-4.2c-0.6-1.4-1.3-2.7-2-4-0.7-1.3-1.5-2.6-2.4-3.8l3.9-2.7c-0.9-1.4-1.9-2.7-3-4-1-1.3-2.1-2.5-3.3-3.7-1.2-1.2-2.4-2.3-3.6-3.4l-3.1 3.6c-1.1-1-2.3-1.9-3.6-2.8-1.2-0.9-2.5-1.7-3.8-2.5l2.4-4.1c-1.4-0.8-2.9-1.6-4.4-2.3-1.5-0.7-3-1.4-4.5-1.9l-1.7 4.5c-1.4-0.5-2.7-1-4.2-1.4h-0.2c-1.4-0.4-2.9-0.7-4.3-1-1.5-0.3-3-0.5-4.5-0.7-1.5-0.2-3-0.2-4.5-0.3-1.5 0-3 0-4.5 0.1l-0.4-4.8c-1.6 0.1-3.3 0.3-4.9 0.6-1.6 0.3-3.2 0.6-4.8 1l1.2 4.6c-1.5 0.4-2.9 0.8-4.3 1.3s-2.8 1.1-4.2 1.7c-1.4 0.6-2.7 1.3-4 2-1.3 0.7-2.6 1.5-3.8 2.4-1.2 0.8-2.5 1.8-3.6 2.7l-3-3.7c-1.3 1-2.5 2.1-3.7 3.3-1.2 1.1-2.3 2.3-3.4 3.6-1.1 1.2-2.1 2.5-3.1 3.9l3.9 2.8c-0.9 1.2-1.7 2.5-2.5 3.8-0.8 1.3-1.5 2.6-2.1 4l-4.3-2.1c-0.7 1.5-1.4 3-1.9 4.5-0.6 1.5-1.1 3.1-1.5 4.7l4.6 1.3c-0.4 1.5-0.8 2.9-1 4.4-0.3 1.5-0.5 3-0.7 4.5-0.2 1.5-0.2 3-0.3 4.5l-4.8-0.1c0 1.7 0 3.3 0.1 4.9 0.1 1.6 0.3 3.3 0.6 4.9 0.3 1.6 0.6 3.2 1 4.8l4.6-1.2c0.4 1.5 0.8 2.9 1.3 4.3s1.1 2.8 1.7 4.2c0.6 1.4 1.3 2.7 2 4 0.7 1.3 1.5 2.6 2.4 3.8l-3.9 2.7c0.9 1.4 1.9 2.7 3 4 1 1.3 2.1 2.5 3.3 3.7 1.1 1.2 2.4 2.3 3.6 3.4l3.1-3.6c1.1 1 2.3 1.9 3.6 2.8 1.2 0.9 2.5 1.7 3.8 2.5l-2.4 4.1c1.4 0.8 2.9 1.6 4.4 2.3 1.5 0.7 3 1.4 4.5 1.9l1.7-4.5c1.4 0.5 2.8 1 4.2 1.4h0.2c1.4 0.4 2.9 0.7 4.3 1 1.5 0.3 3 0.5 4.5 0.7l4.5 0.3c1.5 0 3 0 4.5-0.1l0.4 4.8c1.6-0.1 3.3-0.3 4.9-0.6 1.6-0.3 3.2-0.6 4.8-1l-1.2-4.6c1.5-0.4 2.9-0.8 4.3-1.3s2.8-1.1 4.2-1.7c1.4-0.6 2.7-1.3 4-2 1.3-0.7 2.6-1.5 3.8-2.4 1.2-0.9 2.5-1.8 3.6-2.7l3 3.7c1.3-1 2.5-2.1 3.7-3.3 1.2-1.1 2.3-2.4 3.4-3.6 1.1-1.2 2.1-2.5 3.1-3.9l-3.9-2.8c0.9-1.2 1.7-2.5 2.5-3.8 0.8-1.3 1.5-2.6 2.1-4l4.3 2.1c0.7-1.5 1.4-3 1.9-4.6 0.6-1.5 1.1-3.1 1.5-4.7l-4.6-1.3v-0.1z m-36.4-9c0 4-3.2 7.2-7.2 7.2h-12.9c-4 0-7.2-3.2-7.2-7.2v-9.6c0-4 3.2-7.2 7.2-7.2h12.9c4 0 7.2 3.2 7.2 7.2v9.6z" p-id="839"></path><path d="M531.9 740c-7.8 0.5-12.9 6.7-18 9.3-5.1 2.7-16 5.5-23.8 4.2-7.8-1.3-13.6-8.5-22.6-5.1-8.5 3.2-13.5 13.6-18.9 19.1-4.1 4.2-14 10.2-19 11.3-5 1.1-10.4 1-15.2 6.7-4.8 5.7-4.9 15.3 1.4 21.2 6.4 5.9 18.3 5.7 23.6-2.1 5.6-8.2 2.6-10.9 5.6-15.9 3-5 7.6-9.3 13.4-6.6 10.9 5.1 1.6 33.5-2.2 38.2-3.7 4.7-7.4 5.6-9.4 13.2-2.3 8.6 3.5 17.9 13 18.5 9.6 0.6 18.4-3.6 19.4-14.1 0.6-6.8-3.8-11.6-5.3-18-1.5-6.6-1.3-28 8.1-32 10.5-4.5 20.9 10.2 23.4 15.3 1.8 3.5 2.1 6.7 6.1 11.4 5.5 6.5 17.1 7.3 23.1-0.8s3.3-18.5-1.3-22.1c-7.3-5.7-13.2-3-18.5-3.8-4.5-0.7-23.3-11.3-21.5-19.9 1.8-8.6 18.8-6 22.1-4.3 7.6 3.8 10.5 8.9 19 7.9 8.4-1 13.1-8.4 12.5-17.1-0.4-9.3-7.1-15-15-14.5zM385 218.8c5.5 1.5 15.1 7 19.8 13.3 4.7 6.3 4 15.8 12.6 19.5 8.2 3.5 18.8-0.8 26.3-1.2 5.8-0.3 16.9 2 21.2 4.6 4.3 2.6 8 6.4 15.3 5.5 7.3-0.9 13.9-8.1 13.3-16.8-0.6-8.8-9.2-16.9-18.2-14.8-9.6 2.3-9.2 6.4-14.8 8.1-5.6 1.7-11.7 1.7-14-4.3-4.3-11.4 21.5-26.1 27.4-27.1 5.8-0.9 8.9 0.5 15.6-3.3 7.6-4.3 9.7-15.8 3.3-22.9-6.4-7.1-15.6-10-23.3-2.8-5 4.7-5.2 11.3-8.4 17.1-3.4 6-18 21.9-27.4 18.3-10.5-3.9-7.9-22.1-6.3-27.7 1.1-3.9 3-6.5 3.4-12.7 0.5-8.7-7.3-17.3-17-15.4-9.8 1.9-14.9 11.6-14 17.5 1.3 9.3 7.4 11.4 10.5 15.7 2.7 3.6 8.9 24.6 1.8 29.8-7.1 5.2-17.4-8.6-18.6-12-2.9-8.1-1.2-14.6-8.2-19.1-7-4.5-16.2-2.7-20.5 4.2-5.5 8.7-4.7 16 1.3 21.1 5.7 4.9 13.5 3.9 18.9 5.4z m153.3 274.7c3.9-33.1-4.5-41.6-6.7-52.8 30.2-11.5 42.4-23.7 47.9-31.8 2.3-3.4 4.3-6 5.5-11.3 1-4.1 1.4-9.9 1.5-16.3 0.5-20 9.3-31 14.7-44.1 4.7-11.6 5.1-32.3-9.2-44-20.7-17-50.5-4.3-58.3 4.3-4.1 4.5-10.9 11.1-19.2 13.9-12.3 4.1-20.1 4.5-26.2 6.5-4.5 1.5-9.7 6.5-12.4 9.2-10.9 10.9-15.8 25.7-20.1 41.4-7.4-11.9-34-26.8-61.3-38.8 0 0 30.2-65.7 16.8-72.3-11.8-5.8-83.7 75.9 7.5 136.9-108.4 38.4-145.2 104.5-112.7 169.5 35.9 71.9 99.3 97.5 99.3 97.5-39.5 8.5-68.6 54-77.4 71.2-2.2 4.4 2.8 6.4 2.8 6.4 72 33.8 124.3 16.9 125.2 7 1.7-18.5-86.1-24.8-86.1-24.8s67-21.8 76.1-67.5c3.8-19.1-15.6-44.1-39.4-66.8 14-5.1 29.1-13.1 44.7-25.3 39.1-30.5 42.2-74 56.8-92.4 0.7-0.9 1.6-1.9 2.5-3C505.4 534.5 573 518 573 518s21.5-4.4 21.3-13.3v-0.4c0.1-12.7-56-10.8-56-10.8z m150.8-14.9c-6.7 0.4-11 5.6-17.1 8.1-6.3 2.6-27.3 5.7-32.4-3.1-5.6-9.8 7.6-22.5 12.3-25.8 3.3-2.3 6.3-3.1 10.5-7.9 5.7-6.5 5.2-18.2-3.5-23-8.6-4.7-18.6-0.4-21.6 4.8-4.8 8.2-1.4 13.7-1.6 19.1-0.2 4.6-8.4 25.1-17.1 24.6-8.7-0.5-8-17.9-6.8-21.4 2.8-8.2 8.1-12.3 5.5-20.3-2.6-8-10.7-12.4-18.3-9.8-9.6 3.3-13.5 9.6-12.1 17.5 1.4 7.7 8 11.8 11.2 16.5 3.2 4.7 7.2 15.2 6.9 23.1-0.3 8-6.7 15-2.4 23.4 4.1 8 14.9 11.4 20.9 15.9 4.6 3.4 11.7 12.4 13.3 17.2 1.6 4.8 2.2 10.2 8.3 14.1 6.1 3.9 15.6 2.5 20.6-4.7 5-7.3 3.3-18.9-4.8-23.3-7.2-4-11-0.9-16.3-3.1-5.3-2.2-10.1-6.1-8.1-12.3 3.8-11.7 32.7-6.8 37.8-3.8 5 3 6.5 6.1 14 7.4 8.5 1.4 16.2-6.3 16.7-15.9 0.7-9.2-5.5-18-15.9-17.3zM606.4 365c1.8 0.3 3.3 1.3 4.5 2.5-0.4-11.4-6.4-20.9-6.4-20.9s-10.1 9.7-12.8 23.9c-2.7 14.2 3 27.5 3 27.5s9.3-6.8 13.8-17.5c-1.5 0.8-3.3 1.1-5.2 0.7-4.5-0.9-7.4-5.2-6.5-9.6 0.8-4.5 5.1-7.5 9.6-6.6z m-121.9-55.7s13.5 3.6 27-1.5 22-16.9 22-16.9-10.6-4.4-22.1-2.7c1.5 0.9 2.7 2.3 3.3 4 1.6 4.3-0.6 9-4.8 10.6-4.3 1.6-9-0.6-10.6-4.8-0.6-1.7-0.7-3.5-0.2-5.1-9.6 6.4-14.6 16.4-14.6 16.4z" p-id="840"></path></svg>