<?xml version="1.0" standalone="no"?><!DOCTYPE svg PUBLIC "-//W3C//DTD SVG 1.1//EN" "http://www.w3.org/Graphics/SVG/1.1/DTD/svg11.dtd"><svg t="1574844020176" class="icon" viewBox="0 0 1024 1024" version="1.1" xmlns="http://www.w3.org/2000/svg" p-id="793" xmlns:xlink="http://www.w3.org/1999/xlink" width="200" height="200"><defs><style type="text/css"></style></defs><path d="M500.9 811c-169-0.1-305.6-137.4-305.3-306.7 0.3-168.6 137.2-305.5 305.7-305.3 168.9 0.2 305.7 137.5 305.3 306.7-0.4 168.7-137.2 305.4-305.7 305.3z m72.8-253.1c0 14.9 0.6 28.7-0.1 42.5-2.1 42.5-30.1 77.7-70.8 89.8-17.4 5.2-35.2 3.8-52.9 3-10.3-0.4-20.6-1.1-31.2-1.7v31.6c7.2 0.8 14.4 1.7 21.5 2.3 25.8 2.1 51.6 4.3 77.4-0.5 34.8-6.4 64.3-22.1 84.9-51.5 17.5-24.9 24.2-53.7 24.2-83.8 0.2-94.7 0.2-189.5 0.2-284.2v-6.6H482.3c-35.7 0-66.4 12.9-92 37.5-54.1 52.1-61.3 138.2-16.9 200.4 43.9 61.6 126.4 76 186.1 32.3 4.6-3.3 9-7 14.2-11.1z" p-id="794"></path><path d="M573.8 346.2v5c0 32.3 0.2 64.6 0 97-0.2 33-13.8 60.1-38.9 80.8-33.4 27.6-84.1 23-115.5-9.4-43.6-44.9-36.6-124.2 14-158.8 14.2-9.7 30-14.8 47.1-14.9 30-0.2 60-0.1 90.1-0.1 0.8 0 1.6 0.2 3.2 0.4z" p-id="795"></path></svg>