<?xml version="1.0" standalone="no"?><!DOCTYPE svg PUBLIC "-//W3C//DTD SVG 1.1//EN" "http://www.w3.org/Graphics/SVG/1.1/DTD/svg11.dtd"><svg t="1575453214779" class="icon" viewBox="0 0 1024 1024" version="1.1" xmlns="http://www.w3.org/2000/svg" p-id="835" xmlns:xlink="http://www.w3.org/1999/xlink" width="200" height="200"><defs><style type="text/css"></style></defs><path d="M812.2 501.9c-0.5 173.7-140.8 313.4-314.4 313.1-174.5-0.3-314.2-141.1-313.6-316.1 0.6-171.5 142-311.3 314.5-310.9 173.7 0.4 314 140.8 313.5 313.9zM370.2 386c-0.1 1.8-0.3 3.2-0.3 4.6 0 114.7 0 229.5-0.1 344.2 0 4.7 1.9 6.7 5.8 8.6 54.5 27.1 111.9 35.8 171.7 24.7 147.1-27.3 243.1-165 218.6-312.7-23.9-144.1-162-244.1-307.2-222.3-121.9 18.3-216.7 115.3-229.9 237-10.1 93.9 21.4 172.5 91.3 236 2.4 2.2 4.9 4.1 8.7 7.2V341.4c2.1-0.2 3.5-0.4 4.9-0.4 76.2 0 152.4-1 228.6 0.3 51.4 0.9 93.1 23.2 122.2 66.4 21.8 32.4 25.8 68.7 20.1 106.4-6.9 45.3-29.2 79.7-72.3 98.5-22.4 9.8-46.2 12.7-70.4 12.9-37.5 0.3-75 0.1-112.5 0.1-2.5 0-5.1-0.3-7.6-0.4V460.8c2.5-0.1 4.7-0.3 6.8-0.3h108.9c14.2 0 23.6 8.6 23.7 21.4 0.1 13.1-9.4 21.9-24 21.9-21.6 0.1-43.3 0-64.9 0h-7.5v78h8.1c23.3 0 46.6-0.1 70 0 58.3 0.2 99.5-40.4 99.2-98.4-0.2-40-15.5-71.8-53.9-88.1-13.2-5.6-28.3-8.9-42.6-9.1-64.2-1-128.4-0.5-192.6-0.5-0.7-0.1-1.4 0.1-2.8 0.3z" p-id="836"></path></svg>