<?xml version="1.0" standalone="no"?><!DOCTYPE svg PUBLIC "-//W3C//DTD SVG 1.1//EN" "http://www.w3.org/Graphics/SVG/1.1/DTD/svg11.dtd"><svg t="1574763509533" class="icon" viewBox="0 0 1024 1024" version="1.1" xmlns="http://www.w3.org/2000/svg" p-id="10371" xmlns:xlink="http://www.w3.org/1999/xlink" width="200" height="200"><defs><style type="text/css"></style></defs><path d="M501 872.6h-0.5c-1.1-0.8-2.2-1.6-3.4-2.3-78.8-45.5-157.7-91.1-236.6-136.6-2.2-1.3-3.3-2.7-2.9-5.1v-0.3-275.5c0-9 0.2-18 0.5-27.1 0.3-10.1 10.2-17.3 20-14.8 7.2 1.8 12.2 8 12.3 15.5 0.1 8.6-0.1 17.1 0.1 25.7 0.1 7.9 5.8 14.2 13.8 15.6 7.4 1.2 15-3.3 17.4-10.6 0.7-2.1 1-4.5 1-6.7 0.1-24.2 0-48.5 0-72.7v-3c0.6-11 11.6-18.3 21.9-14.4 5.8 2.2 10.5 7.9 10.4 15.3-0.1 8.5 0 16.9 0 25.4 0 1.5 0.1 2.9 0.3 4.4 1.2 7.9 8 13.7 16 13.6 8.1 0 14.9-6 15.9-14.1 0.2-1.5 0.2-3.1 0.2-4.6v-98.7c0-1.4 0-2.7 0.1-4.1 0.9-9.4 10.1-16.2 19.4-14.1 7.8 1.7 12.8 8.2 12.8 16.5v67.3c0.2 8.5 6.5 15.3 15 16 8.1 0.7 15.4-5 17-13.1 0.3-1.4 0.3-2.9 0.3-4.3 0-15.9 0-31.9 0.1-47.8 0.1-8 6.2-14.7 14.1-15.6 8.4-1 15.7 4 17.7 12 0.4 1.6 0.5 3.2 0.5 4.9 0.1 7.4-0.1 14.8 0.1 22.1 0.1 8.1 6.3 14.9 14 15.8 8.5 0.9 15.9-4.1 17.9-12.2 0.4-1.7 0.4-3.6 0.4-5.4V280v-2.5c0.4-8.3 6.3-14.8 14.4-15.7 7.9-0.9 15.4 4 17.4 11.8 0.5 2 0.6 4.1 0.6 6.2v68.6c0 1.4 0 2.7 0.1 4.1 1 10.4 12 17.2 21.8 13.2 6.4-2.6 10.5-8.6 10.5-15.6 0.1-8.6-0.1-17.1 0-25.7 0.2-11.8 12.5-19.4 23.1-14.2 6.1 3 9.2 8.1 9.2 15v68.1c0.3 7.9 6.5 14.6 14.2 15.3 8.3 0.8 15.6-4 17.6-11.9 0.5-1.8 0.5-3.8 0.6-5.7 0.5-10.8 11.2-18.1 21.4-14.7 6.2 2.1 10.6 7.7 10.9 14.3 0.1 1.2 0.1 2.4 0.1 3.6 0 12.5-0.1 25 0 37.4 0.1 10.6 8.7 18 19 16.4 7.5-1.2 13.1-7.7 13.4-15.7 0.1-2.9-0.1-5.8 0.2-8.7 0.5-7.1 5.8-13 12.6-14.4 7.3-1.5 14.4 1.8 17.7 8.3 0.6 1.2 1 2.5 1.5 3.7v311.6c-0.3 0.1-0.7 0.1-1 0.3-3.6 2.1-7.3 4.2-10.9 6.3-75.9 43.8-151.8 87.6-227.7 131.5-0.8 0.3-1.6 1-2.5 1.7z m-38.4-246.9h76.3v57.5c2.7 0.6 73.9 0.6 76.1 0v-181c-3.6-0.6-74.1-0.4-76.2 0.2V552.8c0 3.3 0.2 6.7-0.1 9.9-4.9 0.6-74 0.4-76.1-0.3v-30.3c0-10.1 0.1-20.1-0.1-30.2h-76.1v181.2c2.7 0.6 73.8 0.5 76.2-0.1v-57.3z" p-id="10372"></path><path d="M484.6 236.6v23.5c0 7.6-5 13.8-12.4 15.7-9.9 2.4-19.8-5.1-19.8-15.2-0.1-15.9-0.1-31.9 0-47.8 0-8.7 7.3-15.6 16-15.7 8.8 0 16 6.9 16.2 15.5 0.1 8 0 16 0 24zM549.3 193.6v23.8c0 7.5-5.5 13.5-11.5 15.2-9.5 2.8-19.3-3.6-20.6-13.3-0.1-0.9-0.2-1.8-0.2-2.7v-45.9c0-4.5 1.4-8.5 4.6-11.6 4.9-4.9 10.9-6.2 17.3-3.8 6.5 2.4 10.1 7.4 10.3 14.4 0.3 7.8 0.1 15.8 0.1 23.9zM597.9 256.6c8.9 0 16.1 7 16.2 15.8 0.1 8.9-7.1 16.2-16.1 16.2-8.9 0-16.1-7-16.2-15.8 0-8.9 7.1-16.2 16.1-16.2zM468.8 136c8.5-0.3 15.9 7.4 15.9 16.1-0.1 8.6-7.6 16.2-16.7 15.8-8.7-0.3-15.7-7.5-15.6-16.4 0.1-8 7.2-15.9 16.4-15.5z" p-id="10373"></path></svg>