<?xml version="1.0" standalone="no"?><!DOCTYPE svg PUBLIC "-//W3C//DTD SVG 1.1//EN" "http://www.w3.org/Graphics/SVG/1.1/DTD/svg11.dtd"><svg t="1575006582790" class="icon" viewBox="0 0 1024 1024" version="1.1" xmlns="http://www.w3.org/2000/svg" p-id="839" xmlns:xlink="http://www.w3.org/1999/xlink" width="200" height="200"><defs><style type="text/css"></style></defs><path d="M394.4 282h8.5c131.9 0 263.8-0.1 395.7 0.1 27 0 52.7 5.3 73.9 23.9 35.9 31.6 42 83.5 13.7 122.1-6.7 9.2-14.5 17.7-22.4 27.1 17.2 20.9 21.3 45.7 17.6 72-4.6 33.3-24.2 56.8-51.4 74.7-24.7 16.3-52.2 23.9-81.8 23.9-122.8-0.1-245.5 0-368.3 0h-12.7c1.2-4.7 2-8.3 2.9-11.9 23.6-87.8 47.3-175.6 70.7-263.4 0.9-3.2-0.7-8.1-2.8-10.9-11.7-15.9-23.9-31.4-35.9-47.1-2.2-2.9-4.3-5.9-7.7-10.5z m57.7 280.7c13.8 0 26.1 0.4 38.4-0.1 9.7-0.4 19.3-1.8 28.9-3.3 71.9-10.8 125.7-72.5 125.9-144.1 0.1-36.8-17.5-60.2-54.1-66-23.9-3.8-48.6-2.6-72.9-4-6.3-0.4-8.5 2-10.1 7.8-11.3 42.9-23 85.8-34.5 128.6-7.1 26.7-14.2 53.4-21.6 81.1z m191 0.1h107.3c3.5 0 7.1 0.1 10.6-0.3 14.9-1.7 28.7-6.3 40.5-16 13.8-11.3 19-26 14.1-40.6-5.3-15.9-18.2-20-32.8-20.2-28-0.4-55.9-0.3-83.9-0.1-2.4 0-6.1 1.8-6.9 3.7-11.6 26.7-27.2 50.8-48.9 73.5z m65.5-141.3c1.6 0.4 2.7 0.9 3.8 0.9 25.3 0.1 50.6 0.8 75.9-0.3 9.3-0.4 19.2-3.6 27.6-7.9 16.3-8.4 24.1-27.8 20-45.1-3.4-14.3-16.2-22.7-36.3-23.7-1.2-0.1-2.4-0.1-3.5-0.1h-94.4c-2.2 0-4.3 0.4-7.8 0.8 13.3 24.2 15.2 49.5 14.7 75.4zM90.2 707.8c14.5-19 28.4-37.2 42.6-55.2 1.2-1.5 5.1-1.8 7.5-1.4 9.3 1.5 18.3 4.2 27.6 5.2 24.1 2.6 41.5-9 54.1-28.2 5.2-8 9.4-17.1 11.9-26.4 22.4-83.3 44.3-166.7 66-250.1 1-3.8-0.5-9.3-2.9-12.6-13.7-18.7-28-37-42.9-56.5h136c-4.4 16.8-8.5 33-12.7 49.1-24.5 93.4-48.6 186.8-73.6 280.1-24.4 91.6-123.6 138.6-207.7 99.2-1.6-0.7-3.1-1.7-5.9-3.2z" p-id="840"></path></svg>