<?xml version="1.0" encoding="utf-8"?>
<!-- Generator: Adobe Illustrator 23.1.1, SVG Export Plug-In . SVG Version: 6.00 Build 0)  -->
<svg version="1.1" id="圖層_1" xmlns="http://www.w3.org/2000/svg" xmlns:xlink="http://www.w3.org/1999/xlink" x="0px" y="0px"
	 viewBox="0 0 1024 1024" style="enable-background:new 0 0 1024 1024;" xml:space="preserve">
<path d="M734.5,607.8c-9.8-18.3-20.9-35.3-28.3-53.8c-8.8-22-15.8-44.9-20.8-68c-5.6-25.9-8.2-52.5-12.1-78.7
	c-1.5-10.2-12.4-20.4-23.1-21.8c-8.6-1.1-20.6,5.6-24.9,14.8c-7.7,16.2-14.8,32.7-22.4,49c-11.9,25.4-23.1,51.1-36.2,75.8
	c-14,26.6-28.8,53.1-45.2,78.3c-11.1,17-25.2,32-38.7,47.3c-5.9,6.6-11.1,5.3-15.2-2.4c-9.3-17.3-14.5-35.7-17.9-55.3
	c-11.6-67.1-11.8-134.6-9.5-202.2c1-30.3,4.4-60.5,7.6-90.7c1.9-18.5-2.7-31.2-15.8-37.3c-13.7-6.3-27.8,0.3-36,15.6
	c-24.4,45.5-47.4,91.8-74.2,135.9c-35.8,58.9-74.6,116-112.1,173.9c-1.5,2.3-3.3,4.3-6.8,8.8c-2.9-8.8-5.8-15.7-7.4-22.9
	c-10.2-46.4-10.9-93.1,0.1-139.4c11.9-50.2,34.7-95.1,68.9-134.1c33.4-38.1,73.5-66.8,120.9-85.2c34.7-13.5,70.1-21.4,107.7-21.3
	c33.4,0.1,66.4,1.9,98.2,12.2c58.8,18.9,108.9,51.1,148.8,98.6c26.7,31.8,46.7,67.3,58.9,106.8c14.9,48.4,18.6,97.7,9.2,147.9
	c-15.3,81.8-56,147.9-123,196.8c-71.8,52.4-152.4,71.1-240.2,55.2c-81.5-14.8-146.7-56.6-196.2-122.5c-13.2-17.6-12.5-11.4-1.5-29.7
	c38.7-64.4,77.2-128.9,115.6-193.4c6.7-11.3,12.4-23.3,18.8-34.9c0.9-1.6,2.6-2.8,6-6.4c0.8,6.4,1.6,10.4,1.7,14.4
	c0.4,31.1-0.5,62.3,1.4,93.4c2.2,35.7,6.2,71.4,16.9,105.8c6.5,21,15.7,41,34.3,54.5c21.9,15.8,54.8,14.2,76.3-7.2
	c19.2-19.1,37.1-40.5,51.2-63.5c22.8-37.1,42.2-76.3,62.8-114.7c3.6-6.8,6.2-14.1,9.3-21.2c1.1-0.2,2.1-0.4,3.2-0.6
	c5,10.4,9.9,20.9,14.9,31.3c15.7,32.5,33.7,63.4,60.3,88.4C726.9,611.6,727,611.6,734.5,607.8z"/>
</svg>
