<?xml version="1.0" standalone="no"?><!DOCTYPE svg PUBLIC "-//W3C//DTD SVG 1.1//EN" "http://www.w3.org/Graphics/SVG/1.1/DTD/svg11.dtd"><svg t="1574849470016" class="icon" viewBox="0 0 1024 1024" version="1.1" xmlns="http://www.w3.org/2000/svg" p-id="4470" xmlns:xlink="http://www.w3.org/1999/xlink" width="200" height="200"><defs><style type="text/css"></style></defs><path d="M380.4 275h39.1v39.1h-39.1zM19.1 320.2h39.1v39.1H19.1zM64.3 681.4h39.1v39.1H64.3zM290.1 591.1h39.1v39.1h-39.1zM148.6 275h-39.1v39.1h39.1V275z m-45.2 0H64.3v39.1h39.1V275z m51.2 39.1h39.1V275h-39.1v39.1z m84.3-39.1h-39.1v39.1h39.1V275z m45.1 0h-39.1v39.1H284V275z m90.3 0h-39.1v39.1h39.1V275z m-310 84.3h39.1v-39.1H64.3v39.1z m-45.2 45.1h39.1v-39.1H19.1v39.1z m45.2 0h39.1v-39.1H64.3v39.1z m-45.2 45.2h39.1v-39.1H19.1v39.1z m45.2 0h39.1v-39.1H64.3v39.1z m-45.2 45.1h39.1v-39.1H19.1v39.1z m45.2 0h39.1v-39.1H64.3v39.1z m-45.2 45.2h39.1v-39.1H19.1v39.1z m45.2 0h39.1v-39.1H64.3v39.1zM19.1 585h39.1v-39.1H19.1V585z m45.2 0h39.1v-39.1H64.3V585z m-45.2 45.2h39.1v-39.1H19.1v39.1z m45.2 0h39.1v-39.1H64.3v39.1z m45.1-45.2h39.1v-39.1h-39.1V585z m0 45.2h39.1v-39.1h-39.1v39.1z m45.2-45.2h39.1v-39.1h-39.1V585z m0 45.2h39.1v-39.1h-39.1v39.1z m45.2-45.2h39.1v-39.1h-39.1V585z m0 45.2h39.1v-39.1h-39.1v39.1z m45.1-45.2H284v-39.1h-39.1V585z m0 45.2H284v-39.1h-39.1v39.1z m90.3-45.2h39.1v-39.1h-39.1V585zM19.1 675.3h39.1v-39.1H19.1v39.1z m0 45.2h39.1v-39.1H19.1v39.1z m45.2-45.1h39.1v-39.1H64.3v39.1z m45.1-316.1h39.1v-39.1h-39.1v39.1z m45.2 0h39.1v-39.1h-39.1v39.1z m45.2 0h39.1v-39.1h-39.1v39.1z m45.1 0H284v-39.1h-39.1v39.1z m45.2-45.2h39.1V275h-39.1v39.1z m0 270.9h39.1v-39.1h-39.1V585z m0-225.7h39.1v-39.1h-39.1v39.1z m45.1 0h39.1v-39.1h-39.1v39.1z m45.2 0h39.1v-39.1h-39.1v39.1z m-45.2 45.1h39.1v-39.1h-39.1v39.1z m45.2 0h39.1v-39.1h-39.1v39.1z m45.1-39.1v39.1h39.1v-39.1h-39.1z m-45.1 84.3h39.1v-39.1h-39.1v39.1z m45.1 0h39.1v-39.1h-39.1v39.1z m-45.1 45.1h39.1v-39.1h-39.1v39.1z m45.1 0h39.1v-39.1h-39.1v39.1z m-45.1 45.2h39.1v-39.1h-39.1v39.1z m0 45.1h39.1v-39.1h-39.1V585z m-45.2-45.1h39.1v-39.1h-39.1v39.1z m90.3 0h39.1v-39.1h-39.1v39.1z" p-id="4471"></path><path d="M553.8 449.6h39.1v-39.1h-39.1v39.1z m0 45.1h39.1v-39.1h-39.1v39.1z m0 45.2h39.1v-39.1h-39.1v39.1z m0 45.2h39.1V546h-39.1v39.1z m0 45.1h39.1v-39.1h-39.1v39.1z m45.1-225.8H638v-39.1h-39.1v39.1z m0-45.1H638v-39.1h-39.1v39.1z m45.2 45.1h39.1v-39.1h-39.1v39.1z m0-45.1h39.1v-39.1h-39.1v39.1z m84.2-39.1h-39.1v39.1h39.1v-39.1z m-39.1-6.1h39.1V275h-39.1v39.1z m45.2 45.2h39.1v-39.1h-39.1v39.1z m0-45.2h39.1V275h-39.1v39.1z m45.1 45.2h39.1v-39.1h-39.1v39.1z m39.1-84.3h-39.1v39.1h39.1V275z m45.2 45.2h-39.1v39.1h39.1v-39.1z m-39.1-6.1h39.1V275h-39.1v39.1zM598.9 449.6H638v-39.1h-39.1v39.1z m0 45.1H638v-39.1h-39.1v39.1z m0 45.2H638v-39.1h-39.1v39.1z m180.6-45.2h39.1v-39.1h-39.1v39.1z m0 45.2h39.1v-39.1h-39.1v39.1z m84.3-84.3h-39.1v39.1h39.1v-39.1z m0 45.2h-39.1v39.1h39.1v-39.1z m6-6.1H909v-39.1h-39.1v39.1z m0 45.2H909v-39.1h-39.1v39.1z m0 90.3H909v-39.1h-39.1v39.1zM915 494.7h39.1v-39.1H915v39.1z m0 45.2h39.1v-39.1H915v39.1z m-45.2-180.6H909v-39.1h-39.1v39.1z m0 45.1H909v-39.1h-39.1v39.1z m45.2-45.1h39.1v-39.1H915v39.1z m0 45.1h39.1v-39.1H915v39.1zM598.9 585H638v-39.1h-39.1V585z m0 45.2H638v-39.1h-39.1v39.1z m45.2 0h39.1v-39.1h-39.1v39.1z m0 45.2h39.1v-39.1h-39.1v39.1z m0 45.1h39.1v-39.1h-39.1v39.1z m84.2-84.3h-39.1v39.1h39.1v-39.1z m-39.1 84.3h39.1v-39.1h-39.1v39.1z m45.2-45.1h39.1v-39.1h-39.1v39.1z m0 45.1h39.1v-39.1h-39.1v39.1z m45.1-45.1h39.1v-39.1h-39.1v39.1z m0 45.1h39.1v-39.1h-39.1v39.1z m84.3-84.3h-39.1v39.1h39.1v-39.1z m-39.1 84.3h39.1v-39.1h-39.1v39.1z m45.1-45.1H909v-39.1h-39.1v39.1z m45.2 0h39.1v-39.1H915v39.1z m0-90.3h39.1V546H915v39.1z m0 45.1h39.1v-39.1H915v39.1z m45.1-129.4v39.1h39.1v-39.1h-39.1z m0 84.2h39.1v-39.1h-39.1V585zM553.8 365.3h39.1v39.1h-39.1zM644.1 275h39.1v39.1h-39.1zM598.9 636.2H638v39.1h-39.1zM869.8 681.4h39.1v39.1h-39.1zM960.1 455.6h39.1v39.1h-39.1zM960.1 591.1h39.1v39.1h-39.1z" p-id="4472"></path></svg>