<?xml version="1.0" standalone="no"?><!DOCTYPE svg PUBLIC "-//W3C//DTD SVG 1.1//EN" "http://www.w3.org/Graphics/SVG/1.1/DTD/svg11.dtd"><svg t="1575519419228" class="icon" viewBox="0 0 1024 1024" version="1.1" xmlns="http://www.w3.org/2000/svg" p-id="6963" xmlns:xlink="http://www.w3.org/1999/xlink" width="200" height="200"><defs><style type="text/css"></style></defs><path d="M722.2 599.9c1.3 125.1-107.6 229.5-231.8 223.9-115.7-5.2-217.9-104.4-213.2-234.5 4.3-120.7 104.2-214.9 219-215.5 132.5-0.7 228.3 106.4 226 226.1zM500.6 401.6c-107.5-3.2-196.4 90.8-197 194.6-0.6 110 88.5 198.6 194.7 199.4 110.5 0.9 196.5-91.8 197.4-195.4 0.9-109.7-90.8-200.6-195.1-198.6zM298.6 284.1c16.9-9.4 25.2-5.5 83.7 38.2-4.9-47.4-16.1-92.3-9.5-142.3 33.3 37.3 51.8 79.5 72.6 121.2 4.7-32.5 17.7-59.2 42.6-79 1.3 0.5 2.7 0.9 4 1.4-2.7 10.2-5.3 20.4-8.1 30.5-7.8 27.8-7.9 55.6-0.2 83.4 4.1 14.8 2.2 16.8-13 18-29.1 2.2-56.1 12-81.7 25.5-8.8 4.7-13.6 4.9-17.5-5.1-14.6-37.6-37.5-68.9-72.9-91.8z" p-id="6964"></path><path d="M560.9 523.9c-30.5-3.5-55.3-12.8-68.4-42.1-9.1-20.5-2-45 25.3-50.9 31.4-6.8 78 8.7 88.3 46.6 4.9 17.8-3.8 37.4-21.4 42.1-8.1 2.3-16.7 3.1-23.8 4.3zM606.1 666.5c-19.5 5.5-22.4 4.7-27.6-11.2-3.2-9.7-7.9-14.3-18.4-12.6-4.6 0.8-9.5 0.6-14.1 0.1-14.2-1.7-24.7 0.2-26.8 18-1.3 11.3-12.4 9.7-19.8 7.8-10-2.6-3-10.1-1.4-14.6 11.6-32.9 23.5-65.7 36.2-98.2 1.5-3.9 8-8 12.2-8.1 6-0.1 16 1.9 17.5 5.7 14.7 37.1 28.1 74.7 42.2 113.1z m-73.6-43.6h33.8c-5.4-15.5-10.4-29.9-16.6-47.8-6.4 17.9-11.5 32.1-17.2 47.8zM352.1 623.1c0 12.8-0.3 24.3 0.1 35.8 0.3 10.2-6 10.5-13.6 10.4-7.7 0-10.3-2.7-10.1-10.7 0.6-33.8 0.7-67.6 0.4-101.5-0.1-9.4 2.8-13.4 12.5-12.8 13.2 0.9 26.6 0.1 39.8 1.6 21.3 2.4 33.4 17.2 33 38.5-0.3 20.8-12.3 33.8-33.8 36.3-8.9 1.1-17.8 1.5-28.3 2.4z m0.5-20.6c13.7-0.6 28.1 4.1 35.8-9.5 2.9-5.1 2.7-15.1-0.5-20-8.3-12.8-22.1-9.1-35.3-8.2v37.7zM632.4 598.1c7.8-15.5 14.8-28.9 21.4-42.4 6.1-12.5 14.7-14.9 28.7-6.9-10.4 20.3-19.9 41.3-31.7 60.9-9 15-7.3 30.5-6.8 46.1 0.3 11-3.7 15.7-14 13.1-3.6-0.9-9-6.4-8.6-9.1 4.3-30.5-8.1-55.8-23.5-80.4-3.8-6.1-7.2-12.7-9.9-19.4-1.8-4.4-2-9.5-2.9-14.3 7.5 1.2 18.5-0.2 21.7 4.1 9 12.2 14.7 26.8 21.7 40.5 0.9 1.7 1.7 3.5 3.9 7.8zM447.7 649.3H472c17.3 0.1 18.6 1.9 13.2 19.8-17.2 0-34.8 0.4-52.3-0.4-2.9-0.1-7.9-5.5-7.9-8.4-0.6-35.5-0.4-71.1-0.5-106.7 0-8.8 5.5-8.8 12.1-9 7.5-0.2 11.2 2.1 11.2 10.2-0.2 26.1-0.1 52.3-0.1 78.4v16.1z" p-id="6965"></path></svg>