<?xml version="1.0" standalone="no"?><!DOCTYPE svg PUBLIC "-//W3C//DTD SVG 1.1//EN" "http://www.w3.org/Graphics/SVG/1.1/DTD/svg11.dtd"><svg t="1574998183844" class="icon" viewBox="0 0 1024 1024" version="1.1" xmlns="http://www.w3.org/2000/svg" p-id="1857" xmlns:xlink="http://www.w3.org/1999/xlink" width="200" height="200"><defs><style type="text/css"></style></defs><path d="M342.7 751.8c-52.4-0.7-93.4-5-132.2-21.9-28.1-12.3-51.9-29.9-66.2-57.9-17-33.4-14.4-67.4-2.1-101.4 14.9-41.2 41-75.2 71.2-106.2 36.2-37.2 77.6-67.7 122.4-93.7 6.5-3.8 9.1-7.8 8.9-15.5-0.6-21.1-0.2-42.2-0.2-63.3 0.1-29.5 28.8-46.1 54.5-31.2 24 13.9 47.6 28.4 71.6 42.3 2.8 1.6 7.1 2.8 10 1.9 44-14.1 88.7-24.8 134.7-29.3 52.6-5.2 104.9-4.5 155.6 12.9 30 10.3 56.7 25.9 75 53 20.5 30.5 22.6 63.7 13.2 98.1-12 43.8-37.5 79.7-67.9 112.3C737 609.6 671.9 652 600.8 685.5c-61.6 29-125.8 49.9-193.2 59.8-25 3.7-50.3 5.1-64.9 6.5z m219-391v1.8c2 1.2 4 2.5 6.1 3.6 34.8 19.1 69.7 38.1 104.4 57.3 23.3 12.9 24.1 42.9 1.3 56.2-91.7 53.4-183.6 106.7-275.5 159.9-26.6 15.4-53.2-0.4-53.3-31.3-0.1-30.4-0.1-60.9-0.1-91.3v-21.5c-2.1 1.4-2.9 1.8-3.5 2.4-18.2 21.8-34 45.1-43.7 72-6.4 17.8-10 36.1-5.5 54.9 7.9 32.6 31.9 46.6 62.3 52.6 22.9 4.5 46 3.7 68.8-0.7 104.1-19.9 190.6-70.3 258.8-151.5 19.4-23.1 34.6-48.8 42.2-78.4 12.1-47.6-9-82.1-56.6-93-23.1-5.3-46.3-4.3-69.4-0.5-12.1 1.9-24.1 4.9-36.3 7.5z m-177.2 87.7h0.8v53.7c0 18.2 0 36.3 0.2 54.5 0.2 20.8 19 31.5 37 21.1 61.7-35.8 123.4-71.6 185-107.4 17.3-10 17.6-29.9 0.5-40.2-61.1-36.7-122.4-73.3-183.5-110.1-8.9-5.3-17.8-7.2-27.1-2.2-9.9 5.3-13.1 14.4-13 25.3 0.2 35.1 0.1 70.2 0.1 105.3zM224.7 599.2c-0.9 0.6-1.6 0.8-1.7 1.1-6.3 22.7-8.3 45.4-0.1 68 10.9 30.2 34.3 46.3 63.8 54.7 34 9.7 68.5 8 102.9 2 58.1-10.1 112-32.1 163.4-60.6 5.5-3 10.8-6.2 16.3-9.3-1.7-1-2.8-0.7-3.8-0.3-50.4 21.4-102.6 36-157.3 40.4-39.4 3.2-78.5 1.9-116-12.4-38.4-14.6-64.7-39.4-67.5-83.6z m558.5-204c3.8-32.5-10.4-64.8-41.1-82.4-21.2-12.1-44.4-16.5-68.4-17.7-31.6-1.5-62.7 3-93 11.4-22 6.1-43.7 13.6-66.4 20.8 10.6 10.5 18.6 13.3 28.4 11.2 48.5-10.4 97.4-15.6 146.6-6.1 39.4 7.7 74.2 22.8 93.9 62.8z" p-id="1858"></path></svg>