<?xml version="1.0" standalone="no"?><!DOCTYPE svg PUBLIC "-//W3C//DTD SVG 1.1//EN" "http://www.w3.org/Graphics/SVG/1.1/DTD/svg11.dtd"><svg t="1574762015545" class="icon" viewBox="0 0 1024 1024" version="1.1" xmlns="http://www.w3.org/2000/svg" p-id="8522" xmlns:xlink="http://www.w3.org/1999/xlink" width="200" height="200"><defs><style type="text/css"></style></defs><path d="M481.8 804c-7.1-0.4-14.3-0.7-21.4-1.1-32.4-1.5-64.3-6-95-16.9-12.4-4.4-24.2-9.7-34.4-18.2-7.7-6.4-13.3-14.1-14.9-24.2-1.2-7.8 0.7-15.2 3.8-22.3 0.7-1.6 2.4-2.9 3.9-4.1 14.8-12.4 28.7-25.7 41.2-40.4 16.4-19.3 29.6-40.6 37.2-65 1.9-6 4-11.9 2.6-18.6-0.9-4.3 1.1-8.4 3.5-12.1 5.1-8 11.6-14.7 19.8-19.7 8.5-5.1 17.6-9 27-11.8 16.6-5 33.6-8.5 50.9-10.4 18.5-2 35.7 2.7 51.5 12.2 3 1.8 6.1 3.1 9.6 3.8 9.2 1.6 16.8 5.9 22.9 13.3 32.4 39.1 69.1 73.9 109.3 105 2.6 2 3.9 4.2 4.1 7.5 0.6 13.9-0.3 27.7-5.2 40.9-6.9 18.5-19.3 32.3-35.6 43-14.4 9.4-30.1 15.8-46.6 20.5-29.9 8.5-60.4 14.1-91.4 16.6-10.6 0.8-21.3 1.1-31.9 1.6-1.1 0.1-2.2 0.3-3.3 0.5-2.5-0.1-5.1-0.1-7.6-0.1zM793.2 516.6c-0.2 1.5-0.7 3.1-0.7 4.6 0.1 17.7-2.1 35.2-5.3 52.6-3.7 20.5-14.5 37.2-30.1 50.7-5.1 4.5-10.7 8.6-16.4 12.3-15.8 10.2-35.4 9.4-49.2-7.2-0.7-0.9-1.5-1.7-2-2.6-6.1-10.6-15.1-18.8-23.2-27.8-4-4.4-8.2-8.5-12-13-7.8-8.9-13.2-19.1-15.1-30.9-2.1-13 1.7-24.3 10.3-34 19.1-21.5 38.5-42.8 57.5-64.5 4.7-5.3 8.5-11.5 12.7-17.3 2.9-4 5.8-8 8.4-12.2 1.8-2.8 3.3-5.7 4.6-8.8 2.2-5.3 6.1-8.8 11.3-11 5.8-2.4 12-3.3 18.2-3.4 5.1-0.1 9.1 2.7 12.3 6.5 5.5 6.6 9.3 14 11 22.5 4.1 20.5 6.9 41.1 7 62 0 1.4 0.5 2.8 0.7 4.2v17.3zM584 191c11.2 11.6 17.8 25.5 19.9 41.3 1.1 8.4 0.8 17.1 1 25.6 0 2-0.5 4.1-1.1 6.1-1.5 4.4-4.6 6.7-9.2 7-4.9 0.3-9.8 0.5-14.7 0.7-3.5 0.2-6.9-0.7-9.2-3.2-3.4-3.7-6.4-7.8-9.3-12-0.8-1.1-0.6-3.2-0.2-4.6 0.6-2.3 1.6-4.5 2.8-6.5 1.5-2.6 3.2-5.1 5.1-7.4 6.3-7.6 8.4-16.5 8.7-26.1 0.1-3.5 0.3-7 0-10.5-0.4-4.4 1-7.8 4.3-10.5 0.6 0.1 1.3 0.1 1.9 0.1zM498.3 469.9c-1 6.5-1.8 13.8-3.4 20.9-0.8 3.6-2.5 7.2-4.4 10.5-3.1 5.4-8 8.4-14.2 9.5-1.7 0.3-3.4 0.8-4.9 1.5-22.1 10.4-45.4 16.5-69.7 18.4-2.5 0.2-5.1 0-7.6-0.5-8.3-1.6-16.3-4.1-23.9-8-19.4-9.8-27.9-26.1-26.8-48 0.2-3.5 0.6-7 1.5-10.4 2-7.3 2.1-14.7 2-22.2 0-1.1 0.1-2.2 0-3.3-1.1-9.9 1.6-19.2 4.9-28.4 6.4-17.7 13.5-35 23.3-51.1 8.1-13.1 17.4-25.1 29.8-34.4 14.4-10.8 30.3-15.7 48.4-13.2 11.4 1.6 20.7 6.8 28.3 15.3 1.6 1.7 2.4 3.6 2.7 5.9 1.6 16.3 3.3 32.6 5 48.8 2.1 20.6 4.2 41.1 6.3 61.7 1 8.8 1.8 17.5 2.7 27zM664 417.2c0 39.1-15.9 70.5-46.5 94.5-5.6 4.4-11.7 8.3-17.6 12.2-9.9 6.6-20.8 7.3-32.1 5.4-9-1.5-16.8-5.7-24.1-11.1-16.9-12.7-23.3-23.6-26.4-44.9-2.2-14.7-2.6-29.4-1.4-44.2 1.1-14.6 3.1-29.1 7-43.3 8.6-30.8 27.2-53.7 55.6-68.2 11.5-5.9 23.8-4.7 35.6 0.6 9 4.1 16.1 10.7 22.2 18.4 10.1 12.7 17.5 27 22.7 42.3 2.6 7.6 3.1 15.9 4.2 23.9 0.5 4.8 0.5 9.6 0.8 14.4zM270.1 473.6c5.6-0.1 10.5 1 14.6 3.8 9.6 6.8 20.4 11.7 30.2 18.1 12.6 8.3 23.1 18.9 33.2 30 3.3 3.7 6.6 7.3 9.9 11 8.1 9 13.5 19.2 14.4 31.5 0.7 9.7-1 19.1-5.4 27.7-8.8 17.3-19.2 33.7-31.8 48.6-1.4 1.7-3 3.3-4.7 4.7-9.4 7.6-18.9 15.1-28.2 22.8-2.4 2-4.5 2.7-7.7 1.5-22.2-8-41.8-20.1-58.7-36.5-16.5-16.1-24.8-36.5-30.2-58.5-1.9-7.8-0.9-14.1 3.1-21.1 13.3-22.8 25.8-46 38.7-69.1 4.7-8.7 14.1-14.5 22.6-14.5zM259.1 339.2c2.8 4.8 4 9.2 3.7 13.8-0.2 2.7 0.6 4.8 2.4 6.8 4.9 5.5 8 11.8 8.8 19.2 0.2 1.7 0.8 3.4 1.3 5.1 4.4 15.3 1.3 29.5-5.7 43.3-0.4 0.7-0.8 1.4-1.4 1.9-5 3.5-10.3 6.4-16.6 6.3-6.3-0.1-11.6-3.9-13.8-9.9-5.6-15.6-4.8-31.2 0.3-46.7 4.5-14.3 11.7-27.1 21-39.8zM736.8 277.6c14.7 15.1 27.3 31.3 29.2 53.5 1 11.2-4.2 19.2-12.6 25.7-0.2 0.2-0.6 0.3-0.8 0.5-10.4 6.5-29.8-1.4-33.4-11-1-2.6-1.7-5.6-1.5-8.3 0.6-6 1.4-12 3-17.8 2.2-8 6.9-14 15.6-15.7 2.8-0.6 3.7-2.6 3.4-4.9-0.6-5.3-1.6-10.7-2.5-16-0.3-1.8-0.9-3.6-1.4-5.5 0.4-0.2 0.7-0.4 1-0.5zM432.8 214.6c-0.7 4.2-1.6 8.3-2 12.6-0.3 3.4-0.1 7 0.3 10.4 0.4 3.1 2.2 5.3 5.6 5.5 2 0.1 3.1 0.9 4.1 2.6 5.9 10.1 8 21 6.5 32.6-0.4 3-1.7 5.3-4.1 7.2-6.1 4.9-12.9 8.2-20.6 9.4-7.3 1.2-13.2-1.3-17.1-7.7-3.9-6.4-5.8-13.2-4.4-20.9 2.9-15.8 10.3-29.2 20.7-41.3 3.3-3.8 6.9-7.3 10.4-10.9 0.2 0.2 0.4 0.4 0.6 0.5z" p-id="8523"></path></svg>