<?xml version="1.0" encoding="utf-8"?>
<!-- Generator: Adobe Illustrator 23.1.1, SVG Export Plug-In . SVG Version: 6.00 Build 0)  -->
<svg version="1.1" id="圖層_1" xmlns="http://www.w3.org/2000/svg" xmlns:xlink="http://www.w3.org/1999/xlink" x="0px" y="0px"
	 viewBox="0 0 1024 1024" style="enable-background:new 0 0 1024 1024;" xml:space="preserve">
<g>
	<path d="M361.4,827c-1.8-0.6-3.6-1.2-5.3-1.9c-8.9-3.5-14-10.9-13.8-20.7c0.8-0.2,1.6-0.4,2.4-0.5c1.5-0.1,2.9,0,4.4,0
		c99.6,0,199.1,0,298.7,0c2.6,0,5.3-0.1,7.9-0.5c11.5-2,18.9-9.8,20.4-21.4c0.7-5.4,1.1-10.8,1.6-16.3c1.3-15.3,2.6-30.5,3.9-45.8
		c1.8-20.2,3.5-40.5,5.3-60.7c1.6-18.8,3.3-37.5,5-56.3c1.6-18.8,3.2-37.6,4.8-56.3c1.9-21.9,3.9-43.7,5.8-65.6
		c1.6-18.8,3.2-37.6,4.8-56.3c1.9-21.7,3.9-43.4,5.7-65.1c1.6-18.6,3.2-37.3,4.8-55.9c0.9-10.4,1.9-20.8,2.8-31.5
		c0.8,0.1,1.6,0,2.1,0.3c9.9,5.9,15.8,14.4,17,25.9c0.4,3.6,0.2,7.4-0.1,11c-1.6,18.8-3.3,37.5-5,56.3c-1.6,18.8-3.2,37.6-4.8,56.3
		c-1.9,21.9-3.9,43.7-5.8,65.6c-1.6,18.8-3.2,37.6-4.8,56.3c-1.9,21.7-3.9,43.4-5.7,65.1c-1.6,18.8-3.2,37.6-4.8,56.3
		c-1.6,18-3.2,36.1-4.8,54.1c-1.1,12.3-2.1,24.6-3.2,37c-1.4,15.5-2.7,31.1-4.1,46.6c-0.4,4.6-1.9,8.9-4.3,12.9
		c-2.9,4.9-7,8.3-12.4,10c-1,0.3-1.9,0.7-2.8,1.1C571.7,827,466.6,827,361.4,827z"/>
	<path d="M623.8,684.7c0.1,1.3,0.3,1.9,0.2,2.4c-0.9,10.4-1.8,20.8-2.8,31.2c-0.3,3.5-1.2,7-2.7,10.2c-4.7,10.4-12.7,16-24.2,16
		c-56.6,0.1-113.1,0-169.7,0c-1,0-2,0-3,0c-0.6-1.5,0.6-1.7,1.2-2.1c6.9-4,13.3-8.7,19.2-14.1c6-5.5,11.4-11.5,16.1-18.2
		c0.7-1,1.3-2,2-3c-0.7-1.8-2.3-2.7-3.6-3.8c-15.2-13.8-26.8-30.1-34.2-49.3c-12.7-32.8-12.5-65.6,0.5-98.2c0.6-1.6,1.3-3.3,2-4.8
		c-0.6-1.6-1.9-1.9-3-2.6c-16.7-9.3-34.5-14.2-53.6-14.3c-32-0.1-59.2,11.6-81.6,34.3c-7.1,7.2-12.9,15.3-17.7,24.2
		c-0.6,1.1-1.3,2.3-1.9,3.3c-1.2-0.2-0.8-0.9-0.8-1.4c1.7-19.7,3.4-39.3,5.1-59c1.6-18.2,3.2-36.4,4.8-54.6
		c1.1-12.2,2.1-24.4,3.1-36.5c1-11.7,2.1-23.5,3.1-35.2c1-11.6,2-23.2,3-34.8c1.3-15.3,2.7-30.5,4-45.8c1.1-12.2,2.1-24.4,3.1-36.5
		c1-11.7,2.1-23.5,3.1-35.2c0.7-7.8,1.3-15.6,2-23.3c0.9-10.7,1.8-21.4,2.8-32.1c0.4-4.1,1.3-8.2,3-11.9c4.7-10.2,12.8-15.5,24-15.8
		c0.4,0,0.9,0,1.3,0c104.4,0,208.9,0,313.3,0c2.5,0,5,0.1,7.4,0.7c7.5,1.7,12.6,6.3,14.9,13.7c0.9,3.1,1.3,6.3,1.6,9.5
		c0.5,6.2-0.5,12.3-1,18.5c-1.3,15.8-2.8,31.7-4.1,47.5c-1.1,12.2-2.2,24.4-3.2,36.5c-0.7,8.2-1.4,16.4-2.1,24.7
		c-1,12-2.1,24.1-3.2,36.1c-0.7,8.2-1.4,16.4-2.1,24.7c-1.1,12.2-2.2,24.3-3.2,36.5c-0.7,8.1-1.4,16.1-2.1,24.2
		c-0.2,2.1-0.4,4.1-0.6,6.2c-0.7,8.2-1.4,16.4-2.1,24.6c-1,12-2.1,24.1-3.2,36.1c-0.7,8.2-1.4,16.4-2.1,24.7
		c-0.1,0.9-0.2,1.7-0.3,2.5c-1.3,0.7-1.7-0.4-2.2-1c-4.7-6.3-9.9-12.1-15.8-17.3c-17.4-15.4-37.6-24.7-60.6-27.5
		c-58.5-7.1-110.6,31.9-122.7,86.8c-13.1,59.5,23.6,118.5,82.8,132.5c37.9,9,71.8-0.2,101.2-25.7C620.9,687.4,622,686.3,623.8,684.7
		z M507.1,479.3c-0.2-0.8-0.2-1.1-0.3-1.4c-0.5-1-1.1-2.1-1.7-3.1c-27.4-46.8-66.5-79.6-117.6-98.1c-18-6.5-36.5-10.3-55.6-11.8
		c-7-0.5-14.1-0.5-21.2-0.6c-1.6,0-3.2-0.2-4.6,0.7c-0.6,4.4-0.6,23.6,0.1,27.3c4,0.4,8.1-0.1,12.1,0.2c4.1,0.2,8.2,0.3,12.3,0.7
		c4.1,0.4,8.2,0.9,12.3,1.5c4.1,0.6,8.1,1.3,12.2,2.2c4.2,0.9,8.3,2,12.4,3.2c4,1.1,7.9,2.4,11.8,3.8c3.9,1.4,7.7,2.9,11.5,4.6
		c3.8,1.6,7.5,3.4,11.2,5.3c3.7,1.9,7.3,3.9,10.8,6c3.5,2.1,7,4.4,10.4,6.7c3.4,2.3,6.7,4.8,9.9,7.4c3.2,2.6,6.4,5.2,9.4,8
		c3.2,2.9,6.2,5.8,9.2,8.9c2.9,3,5.7,6,8.3,9.1c2.7,3.1,5.2,6.4,7.7,9.7c2.5,3.3,4.7,6.7,7.1,10.1c2.3,3.4,4.1,7.1,6.7,10.4
		c4.3-2,8.4-4,12.6-5.7C498.4,482.5,502.7,481,507.1,479.3z M563.2,231.2c-2.3,1.2-3.7,1.9-5.1,2.7c-19.1,10.9-37.8,22.3-56,34.5
		c-28.8,19.2-56.4,40-82.2,63.2c-4.5,4-8.9,8.2-13.3,12.3c-0.6,0.6-1.4,1.1-1,2.4c0.4,0.1,1,0.3,1.5,0.2c6.4-0.9,12.9-1.5,19.2-2.7
		c20.7-3.9,39.7-12,57.3-23.4c24.2-15.8,44.4-35.8,61.1-59.3c5.4-7.7,10.6-15.5,15.9-23.3c0.8-1.2,1.6-2.5,2.2-3.8
		C562.9,233.4,562.9,232.8,563.2,231.2z M414.3,522.6c0.1-1,0.2-1.6,0.1-2.2c-0.1-2.1-0.1-4.1-0.2-6.2c-1.4-20.5-5.3-40.6-12.3-59.9
		c-2.6-7-5.7-13.9-8.5-20.8c-0.7-1.7-1.8-2.9-3.6-3.6c-1.6-0.7-3.2-1.5-4.8-2.2c-13.9-6.3-28.4-10.6-43.4-13.1
		c-1.2-0.2-2.5-0.6-4,0.1c3.1,4.5,6.1,8.6,8.9,12.9c2.8,4.3,5.5,8.7,7.9,13.3c2.5,4.5,4.7,9.2,6.8,13.9c2.1,4.7,3.9,9.5,5.6,14.4
		c1.7,4.9,3.1,9.8,4.4,14.8c1.2,5,2.3,10.1,3.1,15.1c0.9,5,1.4,10.1,2.1,15.2c6.5,1.1,12.8,1.8,19,3.2
		C401.6,518.8,407.7,520.8,414.3,522.6z M399.1,314.5c2.4-0.7,3.6-1.8,4.9-2.7c35.1-24.3,70.2-48.6,105.3-72.9
		c1.2-0.8,2.4-1.7,3.6-2.6c0.4-0.3,0.5-0.8,1.2-1.8c-2.7,0.4-4.7,0.7-6.7,1.1c-24.3,4.7-46.2,14.6-65.7,29.9
		c-16.6,13.1-30.1,29-41.4,46.7C399.9,312.7,399.7,313.3,399.1,314.5z"/>
	<path d="M683.8,230.6c7.7,3.3,14,10.3,17,18.3c1.7,4.6,2.3,9.4,2,14.3c-0.4,5.4-0.8,10.9-1.3,16.3c-2.1,24.1-4.2,48.1-6.2,72.2
		c-1.8,20.2-3.5,40.5-5.3,60.7c-1.8,20.2-3.5,40.5-5.3,60.7c-1.8,20.4-3.5,40.8-5.3,61.2c-1.8,20.2-3.5,40.5-5.3,60.7
		c-1.8,20.4-3.6,40.8-5.3,61.2c-1.8,20.1-3.5,40.2-5.3,60.3c-1.3,15-2.7,29.9-4,44.9c-0.4,4.8-1.8,9.2-4.3,13.3
		c-3.9,6.5-9.6,10.2-17.2,10.9c-1.9,0.2-3.8,0.2-5.7,0.2c-100.3,0-200.6,0-301,0c-4.6,0-9.1-0.5-13.4-2.4
		c-8.4-3.8-12.4-10.4-12.9-19.5c0-0.3,0.2-0.5,0.4-1c0.6-0.1,1.3-0.3,2-0.4c1.5-0.1,2.9,0,4.4,0c99.7,0,199.5,0,299.2,0
		c3.1,0,6.2,0,9.2-0.7c10.5-2.6,17.2-9.8,18.7-20.5c0.7-4.7,1-9.4,1.4-14.1c1.4-15.7,2.7-31.4,4-47.1c1.6-18.6,3.3-37.3,4.9-55.9
		c1-11.7,2-23.5,3-35.2c1.6-18.6,3.3-37.3,4.9-55.9c1-11.6,2-23.2,3-34.8c1-11.7,2.1-23.5,3.1-35.2c0.7-8.4,1.4-16.7,2.1-25.1
		c1-11.9,2.1-23.8,3.1-35.6c0.7-8.4,1.4-16.7,2.2-25.1c1-11.9,2.1-23.8,3.1-35.6c0.7-8.4,1.4-16.7,2.2-25.1
		c1.1-12,2.1-24.1,3.2-36.1c0.7-8.4,1.4-16.7,2.2-25.1c0.7-7.6,1.3-15.3,2-22.9C683.4,232.1,683.6,231.5,683.8,230.6z"/>
	<path d="M469.4,580.3c2.3-27.3,25.4-53,53.5-60.5c15.1-4,30-3.4,44.7,2c11,4,22.8,11.9,27.3,18.4c-2.8,0.1-5.3-0.8-7.8-1.1
		c-2.6-0.3-5.3-0.7-7.9-0.9c-2.8-0.2-5.6-0.3-8.4-0.4c-2.6,0-5.3,0-7.9,0.1c-2.6,0.1-5.3,0.3-7.9,0.5c-2.6,0.3-5.3,0.7-7.9,1.1
		c-2.8,0.5-5.5,0.9-8.2,1.5c-2.6,0.6-5.1,1.3-7.7,2c-2.5,0.7-5.1,1.5-7.6,2.4c-2.5,0.9-5,1.8-7.4,2.8c-2.6,1.1-5.1,2.2-7.7,3.4
		c-2.4,1.1-4.7,2.4-7.1,3.6c-2.3,1.3-4.6,2.6-6.8,4c-2.2,1.4-4.4,2.9-6.6,4.5c-2.3,1.7-4.5,3.4-6.6,5.2c-2,1.7-4,3.5-5.9,5.3
		C473.6,576,471.8,577.9,469.4,580.3z"/>
	<path d="M397.2,588.3c-13.6-2.8-27-3.2-40.6-1.1c-13.4,2-26.1,6-38.2,12c-12.2,6.1-23.1,14-32.5,24.5c-0.2-7.7,4.8-20.2,11.4-29.1
		c9-12.1,20.8-20.3,35.3-24.4c14.5-4.1,28.8-3.2,42.8,2.5C384.7,576.4,394.4,583.3,397.2,588.3z"/>
	<path d="M259.8,678c1.4,3.8,2.8,7.6,4.4,11.4c1.6,3.8,3.4,7.5,5.4,11.1c2,3.6,4.2,7.1,6.6,10.4c2.5,3.5,5.2,6.8,8,10
		c2.7,3.1,5.7,6,8.8,8.7c3.1,2.7,6.4,5.2,9.6,7.7c3.2,2.5,6.9,4.1,10.6,7.2c-1.4,0.1-2.1,0.3-2.8,0.3c-11,0-22.1,0.1-33.1,0
		c-11.9-0.1-20.7-8.4-21.3-20.3c-0.3-6,0-12.1,0.4-18.1c0.6-8.5,1.4-17,2.2-25.5c0.1-0.9,0.2-1.7,0.2-2.6
		C259.3,678.1,259.6,678,259.8,678z"/>
</g>
</svg>
