<?xml version="1.0" standalone="no"?><!DOCTYPE svg PUBLIC "-//W3C//DTD SVG 1.1//EN" "http://www.w3.org/Graphics/SVG/1.1/DTD/svg11.dtd"><svg t="1575531855476" class="icon" viewBox="0 0 1024 1024" version="1.1" xmlns="http://www.w3.org/2000/svg" p-id="2640" xmlns:xlink="http://www.w3.org/1999/xlink" width="200" height="200"><defs><style type="text/css"></style></defs><path d="M632.7 405.9c-0.3 9.6 0.4 20.3-14.5 25.2-8.9 2.9-19.7-9.2-20.3-17.7 4.4-5.9 10.5-10.4 17.4-12.9 13.9-5.2 17.2-6.2 17.4 5.4z m-256.9 25.2c-15-4.9-14.2-15.6-14.5-25.2 0.2-11.6 3.5-10.6 17.4-5.3 6.9 2.5 13 7 17.4 12.9-0.6 8.4-11.5 20.5-20.3 17.6z m338.8 280.2c9.2-4.3 17.5-10.3 24.6-17.5 34.9-37.3 41.7-80.2 45.9-129.9 1.1-12.9 0.9-26 1.5-39.3 0.1-2 0.4-11.3 1.3-11.2 2.7 3 4.9 6.5 6.4 10.3 4.3 11.6 7 23.7 8.1 36 4 24.2 4.7 48.8 2.1 73.1-1.2 8.5-4 16.6-8.3 24.1-21.8 36.5-45.9 70.4-69 106.4-1.9 3-3.3-2.7-4.6-3.7l-1.8-1.9c-5.2-2.8-7.3-3.2-9.8-1.4-0.8 1.5-1.5 3.1-2.3 4.6-5.4 11.9-15.1 31-21.9 43.4-1.1 1.9-3.5 2.6-5.4 1.5-1.2-0.7-2-2-2-3.4 0-13.7 0.1-27.4-0.1-41.1-0.1-8.6 0.1-19-11.8-19-11.6 0-11.9 10.1-12.1 18.9-0.1 8 0 16 0 25.2 0 2.2-1.7 4-4 4.1-0.8 0-1.5-0.2-2.2-0.6-9.7-7.3-20.5-13.2-31.9-17.4a59.62 59.62 0 0 0-55.8 6.1l2.5-2.3c14-12.7 33.2-17.8 51.6-13.8 5 1.1 10.2 1.5 15.4 1.2 2.2-0.1 3.9-2 3.7-4.2 0-0.4-0.1-0.8-0.2-1.2-7.2-19-29.5-88.7 16.4-112.4 1.2-0.6 2.1-1.7 2.2-3.1 1.6-12.8 25-68.2-38.5-104.3-9.9 8.8-22.2 29.5-37.9 42.7 27.6 5.9 42.2-10.7 55.6-22.2-5.5 32.2-30.6 34.5-50.6 46.3 17.2-7.4 34.4 2.6 54.8-8.2-14.8 28.3-44.1 14.4-62.1 29.3 17.3 11.2 33.2 5.1 49.1 3.3 4.5-0.6 9-0.4 13.4 0.5-3.7 5.4-8.1 10.4-12.9 14.8-6.1 4.6-13.1 8.1-20.5 10.1-7.5 2.4-15.6 2.6-23.2 0.6-22.6-7.1-44.8-15.5-66.9-24.2-4.3-2.1-7.5-5.9-8.7-10.4-1.4-7.2 0.3-14.9-0.4-22.3-1.8-9.4 4.4-18.5 13.8-20.3 20.8-5.8 39-18.3 51.8-35.7 4.3-6.2 7.4-13.2 9.1-20.5v-0.4c0-6.8-1.1-13.5-3.5-19.9-1.3-5.1-1.2-10.4 0.4-15.4l0.4-1.6v-0.2h0.1l4.5-19.3c1.5-6 5.1-11.2 10.1-14.8l1.4-0.8c0.5-0.4 1.1-0.8 1.7-1.1 8.5-4.4 17.3-8 26.4-10.8 32.2-12.7 56.8-39.3 67.1-72.3 3.9-11 4.8-22.8 2.8-34.2-3.1 6.2-7.8 18.8-10.8 25.1-3.6 10.1-13.7 16.4-24.3 15.2-29.4 0.2-57.7 5.2-73.8 35.8-6.8 16.4-19.3 29.9-35.1 38-0.3-8.9 1.1-17.8 4-26.2-13.7-5.6-8.3-13.6-1-21.5 9.9-10.7 20-21.4 30.5-32.6-8.9-2.2-17-6.7-23.6-13.1h57.5c0-0.6 0.1-1.2 0.1-1.7-17.6-3.2-34.5-9.3-50.1-17.9 26.7-16.5 82.2-8.3 91.6-11.3 0.1-2.2-7.7-3.9-15.6-6.5-18.4-4.8-25.3-6.2-43.7-11.2-18.2-5-35.8-12.1-52.4-21.2h75.5c-25.7-14.6-54-24-83.3-27.6-16.6-1.1-28.5-1-38.7-0.9l-0.1-4.8v4.8c-10.2-0.2-22.2-0.2-38.7 0.9-29.3 3.7-57.6 13-83.3 27.6h75.5c-16.6 9.2-34.2 16.3-52.4 21.2-18.4 5-25.3 6.4-43.7 11.2-8 2.6-15.8 4.3-15.6 6.5 9.4 3.1 64.9-5.2 91.6 11.3-15.6 8.7-32.5 14.8-50.1 17.9 0 0.6 0.1 1.2 0.1 1.7H438c-6.6 6.4-14.7 10.9-23.6 13.1 10.5 11.2 20.6 21.8 30.5 32.6 7.3 7.9 12.7 15.8-1 21.5 2.9 8.4 4.3 17.3 4 26.2-15.8-8.1-28.2-21.6-35.1-38-16.1-30.7-44.4-35.6-73.8-35.8-10.7 1.2-20.7-5.2-24.3-15.2-2.9-6.3-7.7-18.8-10.8-25.1-2.1 11.5-1.1 23.3 2.8 34.2 10.2 33 34.9 59.6 67.1 72.3 9.1 2.8 18 6.4 26.4 10.8 0.6 0.3 1.2 0.7 1.7 1.1 0.4 0.3 0.9 0.5 1.4 0.8 5 3.6 8.6 8.8 10.1 14.8l4.5 19.3h0.1v0.2l0.4 1.6c1.6 5 1.7 10.3 0.4 15.4-2.3 6.4-3.5 13.1-3.5 19.9v0.4c1.7 7.3 4.8 14.3 9.1 20.5 12.8 17.4 31 30 51.8 35.7 9.4 1.8 15.6 10.8 13.8 20.3-0.7 7.4 1 15.1-0.4 22.3-1.3 4.6-4.5 8.4-8.7 10.4-22.1 8.7-44.3 17.1-66.9 24.2-7.6 2-15.7 1.8-23.2-0.6a63.3 63.3 0 0 1-20.5-10.1c-4.8-4.4-9.1-9.4-12.9-14.8 4.4-0.9 9-1.1 13.4-0.5 15.8 1.7 31.8 7.8 49.1-3.3-18-15-47.3-1-62.1-29.3 20.5 10.7 37.6 0.8 54.8 8.2-20-11.7-45.1-14-50.6-46.3 13.4 11.5 28 28.2 55.6 22.2-15.6-13.2-27.9-33.9-37.9-42.7-63.4 36.1-40.1 91.5-38.5 104.3 0.2 1.3 1 2.5 2.2 3.1 46 23.7 23.6 93.4 16.4 112.4-0.4 1.2-0.3 2.5 0.4 3.6 0.7 1 1.8 1.7 3.1 1.8 5.2 0.3 10.3-0.1 15.4-1.2 18.4-4 37.7 1.1 51.6 13.8l2.5 2.3a59.62 59.62 0 0 0-55.8-6.1c-11.4 4.2-22.2 10.1-31.9 17.4-1.9 1.2-4.3 0.6-5.5-1.3-0.4-0.7-0.6-1.4-0.6-2.2v-25.2c-0.1-8.8-0.5-18.8-12.1-18.9-11.9 0-11.7 10.4-11.8 19-0.2 13.7-0.1 27.4-0.1 41.1 0 2.2-1.8 4-4 4-1.4 0-2.7-0.8-3.4-2-6.8-12.3-16.5-31.4-21.9-43.4-0.7-1.5-1.5-3.1-2.3-4.6-2.5-1.7-4.6-1.4-9.8 1.4l-1.8 1.9c-1.3 1-2.7 6.7-4.6 3.7-23-36-47.2-69.8-69-106.4-4.3-7.4-7.1-15.6-8.3-24.1-2.6-24.4-1.9-49 2.1-73.1 1.1-12.3 3.8-24.4 8.1-36 1.5-3.8 3.7-7.3 6.4-10.3 0.9 0 1.3 9.2 1.3 11.2 0.7 13.3 0.4 26.3 1.5 39.3 4.2 49.7 11 92.6 45.9 129.9 7.1 7.2 15.4 13.2 24.6 17.5 2 0.8 4.4-0.2 5.2-2.2 0.4-1 0.4-2.2-0.1-3.2-10.6-21.7-22.1-43-30.7-65.5-8.7-22.9-14.6-46.9-21.3-70.6-0.6-2.1 0.6-4.3 2.7-4.9 0.8-0.2 1.6-0.2 2.4 0 5 1.7 11.6 4.4 16.9 6.5 2.1 0.8 4.3-0.3 5.1-2.3 0.3-0.8 0.3-1.7 0.1-2.5-6.7-22.9-28.2-89.8-28.2-89.8 1.3 1.5 13.9 20 14.8 21.6 10.1 16.3 19.1 33.4 26.6 51.1 3.6 9.3 6.6 16.1 8.1 19.6 0.7 1.5 1 3.4-0.3 4.5-17.9 15.2-3.4 44.2 4.2 53.2 10.5 12.6 18.1 27.4 22.1 43.3 1.1 3.3 2.5 7.9 4 12.8 0.8 2.1 3 3.1 5.1 2.3 1.6-0.6 2.6-2.1 2.6-3.8-1.3-20.5-5-48.2-11.7-54.6-10.4-9.8-8.2-43.6 3.5-49.6 10.9-5.6 13.3-11.5 7.8-21.1-1.1-1.9-0.5-4.4 1.4-5.6L370 522c1.9-1.1 2.6-3.5 1.5-5.4-0.6-1.1-1.6-1.8-2.8-2-17.3-1.6-34.6 3.5-48.3 14.2-10.4 6.2-23.9 2.7-30.1-7.7-0.9-1.4-1.5-3-2-4.6-1.1-2.5-1.9-5.1-2.6-7.8-0.6-2.2 1.4-4 3.5-4.6 24.6-6.1 28.2-7.4 29.5-14.8 0.3-2.2-1.2-4.2-3.3-4.6h-0.6c-8.6 1.2-17.3 0.2-25.3-3.1-4.7-4.8-7.8-11.1-8.8-17.8-0.6-2.1 0.6-4.3 2.8-4.9 0.9-0.2 1.8-0.2 2.6 0.2 8.7 3.7 11 3.6 15.8-0.1 1.8-1.4 2.1-3.9 0.7-5.7l-0.1-0.1c-1.1-1.4-2.3-2.6-3.6-3.7-18-14-45.7-91.7-44.8-114.6-7.2 6.2-12.6 14.2-15.6 23.3-19-7.8-33.5-10.2-30.8-37l21.1 10.9s1.1-8.2-10.2-17.6c-24.2-20.3-27.9-47.2-28.7-76.5-1.2-14.2 9.3-26.7 23.5-27.9 5.5-0.5 10.9 0.8 15.6 3.7 47 22.1 111.8 44.4 165.4 37.5l1.7-0.4 0.2-0.1-0.1 0.1c33.3-6.9 67.2-10.5 101.2-10.7h0.3c34 0.3 67.9 3.9 101.2 10.7l-0.1-0.1 0.1 0.1 1.8 0.4c53.5 6.9 118.2-15.4 165.3-37.5 12.2-7.4 28-3.6 35.4 8.6 2.9 4.7 4.2 10.2 3.7 15.7-0.8 29.3-4.4 56.2-28.7 76.5-11.3 9.4-10.2 17.6-10.2 17.6l21.1-10.9c2.7 26.8-11.8 29.3-30.8 37-3-9-8.4-17.1-15.6-23.3 0.9 22.9-26.7 100.5-44.7 114.6-1.3 1.1-2.5 2.3-3.6 3.7-0.7 0.9-1 2-0.9 3.1 0.1 1.1 0.7 2.1 1.5 2.8 4.8 3.7 7.1 3.8 15.8 0.1 2-0.9 4.4 0.1 5.2 2.1 0.4 0.8 0.4 1.8 0.1 2.7-1 6.7-4.1 12.9-8.8 17.8-8 3.3-16.7 4.3-25.3 3.1-2.2 0-4 1.9-3.9 4.1v0.5c1.2 7.4 4.9 8.7 29.5 14.8 2.2 0.5 4.1 2.4 3.5 4.6-0.7 2.7-1.6 5.3-2.6 7.8-3.7 11.6-16 18-27.6 14.3-1.6-0.5-3.1-1.2-4.6-2-13.7-10.7-31-15.8-48.3-14.2-2.2 0.4-3.7 2.4-3.3 4.6 0.2 1.2 0.9 2.2 2 2.8l49.9 28.6c1.9 1.1 2.6 3.6 1.4 5.6-5.5 9.6-3.1 15.5 7.8 21.1 11.7 6 13.8 39.8 3.5 49.6-6.8 6.4-10.4 34.1-11.7 54.6 0 2.2 1.7 4 3.9 4 1.7 0 3.2-1 3.8-2.6 1.5-4.9 2.9-9.5 4-12.8 4.1-15.9 11.7-30.7 22.1-43.3 7.7-9 22.1-38 4.2-53.2-1.1-1.2-1.3-3.1-0.3-4.5 1.5-3.5 4.6-10.3 8.1-19.6 7.6-17.7 16.5-34.7 26.6-51.1 0.9-1.7 13.5-20.1 14.8-21.6 0 0-21.6 66.9-28.2 89.8-0.6 2.1 0.6 4.3 2.7 4.9 0.8 0.2 1.7 0.2 2.5-0.1 5.2-2 11.9-4.7 16.9-6.5 2.1-0.7 4.3 0.4 5 2.5 0.3 0.8 0.3 1.6 0 2.4-6.7 23.7-12.5 47.7-21.3 70.6-8.6 22.4-20.1 43.8-30.7 65.5-1 2-0.2 4.4 1.8 5.3 1 0.5 2.2 0.6 3.3 0.1l-0.4-0.3zM386.4 534.5l-2.2 1.1c0.8-0.4 1.5-0.7 2.2-1.1z m-90.1-292.4c4.2 1 8.1 2 12 2.8-4-1.2-8-2.2-12-2.8z m-5.3 5.7c-55.4-4.3-45.2 36.5-34.4 60.8l9 14.8c0.5 0.6 1 1.3 1.3 2 0 0.1 0.1 0.3 0.2 0.4 13.8 32.6 25.3 101.9 91.8 128.5-2.5-1.5-5.1-3.1-7.6-4.9-19.2-16.2-34.9-36.2-46.2-58.7-29.7-59.7-21.9-97.2-25.5-112.1 5.7 2 26.1 6.4 30.1 7.8 0.4-0.9-35.7-16.6-46.1-22 4.6-2.9 9.7-4.7 15-5.4 23.4-2.4 32.2 5 47.4 7.2 10.2 0.9 20.4 0.1 30.3-2.4l-65.3-16z m316.6 286.7c0.7 0.4 1.4 0.8 2.2 1.1l-2.2-1.1z m78.1-289.6c3.8-0.9 7.8-1.8 12-2.8-4 0.7-8.1 1.6-12 2.8z m41.3 81c0-0.1 0.1-0.3 0.2-0.4 0.3-0.7 0.7-1.4 1.3-2l8.9-14.8c10.8-24.3 21-65.2-34.4-60.8l-65.3 16c9.9 2.5 20.1 3.3 30.3 2.4 15.2-2.2 24-9.6 47.4-7.2 5.3 0.7 10.5 2.6 15 5.4-10.3 5.4-46.4 21.1-46.1 22 4-1.4 24.4-5.8 30.1-7.8-3.6 15 4.2 52.4-25.5 112.1-11.3 22.5-27 42.4-46.2 58.7-2.5 1.8-5.1 3.4-7.6 4.9 66.6-26.6 78-95.9 91.9-128.5zM496.8 538.2c-8 0-16.6 0-27.6-0.2-10 0.2-20-1.8-29.3-5.7-5.2-3.6-7.8-9.9-6.6-16.2 0.6-8.4 11.5-14.3 11.5-14.3-0.4 19.6 16.6 24.8 52 25.1h0.3c35.5-0.3 52.4-5.6 52-25.1 0 0 10.9 5.9 11.4 14.3 1.2 6.2-1.4 12.5-6.6 16.2-9.3 3.9-19.2 5.8-29.3 5.7-11 0.2-19.6 0.3-27.6 0.2l-0.1-0.9-0.1 0.9z m0.2 209.7c1 25.8-43.3 28.1-80.8 5.6-2.1-8 2-21.7-2.3-24.7-6.5-4.5-16.7 1.4-23.3 5.6-6.5 4.1-10.8 12.1-17.1 17.1 2.8-39.9 42.6-76.1 103.7-79.5 6.7-0.4 13.5-0.8 19.8-0.8 6.3 0 13.1 0.4 19.8 0.8 61.2 3.4 101 39.6 103.7 79.5-6.4-5-10.6-12.9-17.1-17.1-6.5-4.2-16.8-10-23.3-5.6-4.3 3.1-0.2 16.8-2.3 24.7-37.5 22.5-81.9 20.2-80.8-5.6z" p-id="2641"></path></svg>