<?xml version="1.0" standalone="no"?><!DOCTYPE svg PUBLIC "-//W3C//DTD SVG 1.1//EN" "http://www.w3.org/Graphics/SVG/1.1/DTD/svg11.dtd"><svg t="1575530990034" class="icon" viewBox="0 0 1024 1024" version="1.1" xmlns="http://www.w3.org/2000/svg" p-id="1714" xmlns:xlink="http://www.w3.org/1999/xlink" width="200" height="200"><defs><style type="text/css"></style></defs><path d="M284.6 571.1c16.2 3.4 29.7 7.3 43.5 9 10.3 1.3 21.1 1 31.3-0.7 17.6-2.8 29.9-19.3 32.6-40.4 4.5-34.8-8.2-64.1-29-90.5-25.7-32.6-57.8-58.5-91-82.9-1.6-1.2-5.5-1.3-7.1-0.2-35.3 26-69.3 53.4-95.7 88.8-14 18.8-23 39.9-25.5 63.4-1.6 14.8 0.9 29 7.8 42.3 7.9 15.5 21.8 21.7 37.9 21.1 15.4-0.6 30.7-3.9 46-6.3 4.7-0.7 9.2-2.4 14.8-3.9 5.6 30.2 5.8 59.1-12.5 85.3-26.5 38-65.9 47.1-110.2 48 0-5.3-0.7-10.1 0.3-14.5 0.4-1.8 4.6-3.8 7.2-3.9 18.2-0.5 36-3.3 52.6-11 30.3-14.1 46.3-38 47.6-71.6 0.1-2.7-0.3-5.4-0.5-8.1-12.6 1.5-24.4 3.6-36.4 4.1-8.7 0.4-17.7-0.3-26.1-2.2-24.8-5.6-41.2-26-45.4-54.8-5.8-39.7 7.9-73.6 31.8-104.1 29.6-37.7 66.8-67.2 105.5-94.9 1.8-1.3 5.7-1.8 7.2-0.7 45.1 32.6 89.1 66.5 119.5 114.3 11.9 18.7 18.6 39.4 20.2 61.5 1.3 18.4-2.1 35.9-11.1 52.2-10.7 19.3-28 27.9-49 28.4-13.9 0.3-27.9-2.1-41.8-3.3-2.2-0.2-4.3-0.8-7.3-1.3-1.9 28.4 7 51.5 28.7 69.1 18.5 15 40.6 20.1 63.7 21.9 4.7 0.4 9.4 0.5 14.3 0.7v17c-65.6 3.8-117.5-31.3-124.3-86.3-1.6-14.6 0.2-29.7 0.4-45.5z" p-id="1715"></path><path d="M335.9 629.1c17.2 25.7 44.4 28 72.5 29.7v16.8c-45.2 10.4-101.1-29.6-97-68.5 14.5 0.4 29.1 2.2 43.4 0.8 35.7-3.4 59.4-28.2 64.5-64.7 5.7-40.7-7.9-75.7-31.7-107.4-25.7-34.3-58.2-61.6-92.2-87.1-7.4-5.6-14.9-11.1-22.8-16.1-2-1.2-6.1-1.5-7.8-0.3-45.9 32-90 66.1-122 112.9-20.2 29.5-30.3 62-25 98.2 5.9 40.6 33.5 65 74.5 65 11 0 22-1.2 33-1.8 6.2 37.7-46.8 76.1-97.2 69.4v-17.1c28.1-1.8 55.7-3.8 73.9-31.1-2.5-0.4-3.9-0.9-5.2-0.9-75.8 1.3-98.7-54.9-98.6-102.4 0.1-39.2 15.2-73.4 39.4-103.6 35.6-44.4 79.8-78.9 126.6-110.5 1.9-1.3 6.1-1.5 7.9-0.3 52.2 35.3 102.2 73.2 138.1 126.2 24.3 35.8 35.1 75.4 25 118.8-10.7 45.6-42 70.6-88.9 71.6-3.2 0.1-6.4 0-9.6 0-0.3 0.8-0.6 1.6-0.8 2.4zM908.6 628.7v-9.9h0.8v17.7c-0.6-0.8-1-1.3-1.3-1.8-3.4 4.7-3.6 6.3-0.9 9.2 0.4 0.4 1.3 0.3 2.3 0.4v4.3c-3.9-1.5-7.7 1.1-7.7 5.1 0 2.5-0.2 4.9-0.3 7.4-0.1 2.9-1 3.8-3.8 3.1-2.8-0.7-4.4-0.1-4.6 3-0.1 0.8-0.8 1.6-1.3 2.4-2.3 3.6-4 7.4-3.5 11.8 0.4 4.1-1.9 8-6 8.5-5.4 0.6-7.2 4.5-9.3 8.5-0.6 1.2-2.1 1.9-2.7 3.1-2.7 4.6-6.6 5.3-11.5 4.2-1.2-0.3-2.9 0.6-4.1 1.3-2.3 1.5-7.7 1.4-9.7-0.4-0.5-0.4-1.2-1-1.8-1-5.1 0-10.1-0.1-15.2 0.1-2.5 0.1-4.6 0.2-6-2.4-1.5-2.8-4.3-3.2-7.2-2.8-2.6 0.3-4.2 1.9-4.8 4.1-0.8 2.8-1.1 5.7-1.6 8.6h-6.1c1.3-0.5 1.8-0.8 2-0.8-2.6-1.5-5.2-4.3-8-4.5-5-0.3-7.7-3.3-11-6.2-2.3-2.1-5.8-2.8-8.6-4.4-1.1-0.6-2.5-1.8-2.5-2.7 0-4.2-3.1-5.3-6-6.9-1-0.5-2-1.3-2.7-2.3-2.1-3.1-4.6-5.2-8.5-5.2-0.9 0-1.8-0.2-2.8-0.2-2.7 0.1-4-1.1-3.8-3.9 0.1-2.4 0.1-4.9 0.1-7.4 0-2.6 1.4-3.5 3.9-3.5 9.7 0.1 19.5 0 29.2 0 1.4 0 2.9 0 4.3-0.3 0.8-0.2 1.4-0.9 2.1-1.4-0.7-0.6-1.3-1.6-2.1-1.8-1.1-0.4-2.4-0.3-3.6-0.3-9.8 0-19.7 0-29.5-0.1-3.9 0-4.5-0.7-4.5-4.4 0-3.4 1-4.5 4.6-4.6 5.7-0.1 11.5 0.3 17.2-0.4 5.7-0.7 10.8-3.2 13.8-8.6 4.5-8.2-2.2-19.7-11.5-19.9-6.3-0.2-12.7-0.5-19-0.9-3.7-0.2-6.6-5.9-4.6-8.9 0.5-0.7 1.7-1.1 2.6-1.2 2.4-0.2 4.9-0.2 7.4-0.1 4.8 0.2 8.7-2 12.3-4.7 2.9-2.1 3.4-5.3 3.4-8.8-0.2-6.3-0.1-6.3 6.3-6.3 1.8 0 3.7 0.2 5.5-0.2 1-0.2 1.9-1.5 2.8-2.3-0.9-0.8-1.7-2.3-2.7-2.4-2.6-0.4-5.3-0.2-8-0.2-3.7-0.1-3.9-0.4-4-4-0.2-6.8 0.7-6.5-6.3-6.3h-0.3c-7.9 0-7.9 0-8.5 7.7-0.1 1.8-1 2.6-2.7 2.6h-31.4c-2 0-2.5-1.2-2.5-3-0.1-7.4-0.2-7.5-7.7-7.3-0.7 0-1.4 0.1-2.1 0.1-2.6 0-3.5-1.5-2.6-4 0.8-2.1 1.5-4.4 1.5-6.6 0.2-5.6 0.1-11.3 0-16.9 0-3.9 3.1-7.9 7.1-8.4 4.2-0.5 8.3-0.9 12.5-1 12.4-0.1 24.8-0.1 37.2-0.1 3.6 0 4.7 1.3 4.6 4.8-0.1 8.1-0.1 16.2-0.1 24.3 0 4.9 1.2 5.8 6 6 7.9 0.4 9.3-0.9 9.1-9.3-0.1-7.1-0.1-14.1-0.1-21.2 0-3.3 1.1-4.5 4.3-4.5 13.4 0 26.8 0 40.3 0.1 3.2 0 6.6-0.1 9.4 1.1 2.6 1.2 5.5 3.8 6.4 6.4 1.3 3.7 1.5 8.1 1 12-0.5 3.7-2.5 7.2-3.6 10.9-0.3 1-0.4 3.1-0.1 3.2 1.3 0.5 3 0.7 4.3 0.4 2.3-0.5 4.5-1.6 6.8-2.4 2.7-0.9 6.5-5.7 6.7-8.4 0.2-1.8 0.2-3.8 0.8-5.5 1.8-4.9-0.2-9.5-1.1-14.2-0.1-0.5-0.4-1.1-0.8-1.3-4.6-2.9-8.6-6.7-14.9-6.7-18.3 0.2-36.7-0.3-55-0.7-1.2 0-3.2-1.2-3.5-2.2-0.7-2.5-0.8-5.2-0.6-7.8 0-0.7 1.9-1.7 3.1-1.8 3.2-0.3 6.3-0.2 9.5-0.2 13.8 0 27.7 0.1 41.5 0 1.4 0 3-0.6 4.2-1.4 0.8-0.6 1.6-2.2 1.3-2.9-0.3-0.8-1.8-1.5-2.9-1.5-3.1-0.2-6.1 0-9.2 0H716.6c-0.9 0-1.9 0-2.7 0.4-1.5 0.7-2 2.3-0.5 3.1 2.1 1.2 4.5 2.3 6.8 2.3 16.7 0.2 33.4 0 50.1 0 3.9 0 5.1 1.3 5 5.2-0.1 5.5-1.6 6.9-7 6.8-12.1 0-24.2-0.3-36.3 0.1-4.8 0.1-9.6 1.7-14.4 2.3-1.5 0.2-3.4-0.2-4.7-0.9-2.2-1.2-11.1-2.1-13-0.7-0.7 0.6-1.2 1.9-1.3 2.8-0.1 10.1-0.1 20.3-0.1 30.4 0 2.9 3 5.5 6.7 5.3 3.2-0.2 4 1.3 4 3.9 0 1.9-0.1 3.9 0 5.8 0.1 2.1-1 2.9-3 2.9-2.4-0.1-4.7-0.1-7.1-0.1-1.8 0-2.9 0.5-2.9 2.6s1.1 2.7 2.9 2.6c2.4 0 4.7 0 7.1-0.1 2.2-0.1 3.1 0.9 3.1 3.1-0.1 3.6-0.1 7.2-0.1 10.8 0.1 4.2 2 5.9 6.1 5.9 2.7 0 5.3 0 8-1.1 2.6-1 6.1-0.4 9 0.2 2.7 0.5 3.8 6.4 1.6 8.4-1.6 1.4-3.8 2.2-5.8 2.7-3.5 0.9-7.2 1.1-10.8 2-2 0.5-3.3 0.1-4.6-1.3-3.4-3.5-8.6-3.9-12.4-0.8-0.8 0.7-1.5 2-1.5 3.1-0.1 7.1-0.1 14.1 0 21.2 0 3.5 2.1 5.5 5.6 5.5 3.4 0 7 0.9 9.2-3.1 0.3-0.6 2.6-0.7 3.5-0.2 4.3 2.4 8.7 3.6 13.7 3.3 3.1-0.2 4.2 1.4 4.1 4.8-0.1 3.4-0.9 4.2-4.2 4.2h-32.9c-1.7 0-4.4-0.7-4.4 1.9 0.1 2.5 2.7 1.9 4.5 1.9 10.9 0 21.7 0 32.6-0.1 2.6 0 4.1 0.8 4.1 3.6 0 2.9 0.2 5.7 0.3 8.6 0.1 2.5 0.5 4.6 3.4 5.5 2.3 0.7 2.1 3 1.5 4.7-0.3 0.9-2 1.7-3.2 1.9-2.9 0.6-5.6-0.1-7.9-2.3-3.5-3.3-8-2.9-11.9-1.9-6.7 1.8-13.3 1.9-20.1 1.8-3.6 0-7.2 0.1-10.7 0.3-0.6 0-1.4 0.1-1.7 0.4-2.3 2.7-5.5 2.5-8.5 2.2-3.5-0.3-6 1.6-8.7 3.4-4.3 2.8-8.5 2.2-12.4-1-3.2-2.7-6.8-4.7-10.3-7-3.4-2.2-4.4-3.9-3.6-7.9 0.6-3.5-0.6-5.9-3.5-7.8-0.9-0.6-1.4-1.8-2-2.7-1.2-1.9-2.5-3.8-3.4-5.9-0.4-0.9-0.5-2.2-0.1-3.1 1.5-3.3 0.8-5.4-2.6-6.7-1.3-0.5-2.8-0.5-4.2-0.6-3.5-0.2-4.7-1.9-3.4-5.3 2.4-6.3 2.4-6.3-4.2-6.5-0.7 0-1.5-0.1-2.1-0.4-3.8-2.1-6.9-10-5.6-14.3 0.3-0.8 0.8-1.7 1.5-2.2 1.9-1.4 4.1-2.6 5.9-4.1 0.9-0.7 1.5-2.3 1.4-3.3-0.1-0.6-1.9-1-3-1.5-0.2-0.1-0.4 0-0.6 0-1.7-0.4-4-0.3-4.9-1.4-1.5-1.8 0.4-3.4 1.4-5 1.3-2 1.8-4.5 2.8-6.7 1.3-3 2.6-3.5 5.7-2.3 2 0.8 3.1 0.1 3.2-2.1 0.1-4.3 0.4-8.5 0.5-12.8 0-1 0-2.1-0.4-3-1.5-3.1-3.3-6-4.6-9.1-0.6-1.5-0.4-3.4-0.6-5.2 2 0.1 4.3-0.3 6.1 0.4 1.5 0.6 2.8 2 4.3 0.5 1.8-1.7 0.2-3-0.8-4.5-1.5-2.3-2.9-4.7-4.1-7.2-2.4-4.8-0.2-8.8 2.4-12.8 1.3-2 2.9-4 3.6-6.3 0.5-1.6 0-3.6-0.1-5.4-0.1-0.8-1-1.7-0.8-2.3 1.3-3.7 0.4-7.2 0-10.8-0.8-7.4-1.6-14.7-5.5-21.2-1.9-3.2-0.7-5.4 3.1-5.6 3.2-0.1 7.4-5 7.1-8.2-0.2-1.9-1.1-2.9-3.2-2.8-0.8 0-2-0.9-2.5-1.8-2.8-4.3-2.3-9.4-2.8-14.2-0.3-3 3.1-7.5 5.8-9 3.6-2 7-4.3 7.8-9 0.4-2.1 1.6-4.2 2.9-6 2.5-3.7 2.5-7.7-0.1-11.3-0.8-1.1-0.9-3.2-0.4-4.5 0.3-0.8 2.3-1.3 3.5-1.4 1.6-0.1 3.8 0.6 4-1.6 0.2-2.2-0.5-4.6-1.1-6.9-0.3-1.2-1.5-2.3-1.6-3.5-0.2-3.1 0-5.9 1.9-8.9 1.5-2.4 0.2-6.2 0.9-9.3 0.7-3.5 2.2-6.8 3.4-10.1 0.7-2 1.7-3.9 2.5-5.8 0.9-2.2 1.4-4.5 2.6-6.5 0.6-1 2.2-1.8 3.5-2.1 3.1-0.8 6.3-1.4 9.5-1.9 2.9-0.4 5.9-0.4 8.9-0.6 4.4-0.2 5.6-1.5 5.4-5.9-0.2-4 1.2-5.6 4.7-7.6 2.6-1.4 5.1-2.6 8-2.1 0.8 0.1 1.9 0.1 2.3 0.5 2.8 2.8 6.2 2.2 9.5 2.2h77.5c0.7 0 1.4 0 2.2-0.1 1.8-0.1 3.6-0.8 3.2-2.8-0.3-1.2-2-2.7-3.2-2.9-3.3-0.4-6.7-0.2-10.1-0.2h-17.2c-3.9 0-4.8-0.6-5.1-4.5-0.3-3.9-0.3-7.8-0.1-11.7 0.1-2.7-0.8-4.1-3.7-4-1.4 0.1-2.9 0.2-4.3-0.1-0.9-0.2-2.4-1.1-2.4-1.7-0.1-1.1 0.5-2.8 1.3-3.2 2-1 4.6-1.1 6.5-2.2 2.6-1.6 5.1-3.6 7.2-5.8 1.2-1.3 1.4-3.6 2.5-5.2 0.6-1 2-2.3 2.9-2.2 3.6 0.5 7.3 0.1 10.7 2.7 4.2 3.1 7.1 1.7 10.5-4.1 0.8-1.4 1.7-2.9 2-4.5 1.1-6.7 10.2-8.7 15-5.4 2.5 1.7 4.8 0.5 5.3-2.6 1.2-7 1.2-6.7 8.1-6.7 4.9 0 7.4 3.6 10 6.6 2 2.4 3.4 4.4 6.9 3.6 2.3-0.5 4.6 2.8 5.3 6.7 0.5 3.2 1 6.5 2.1 9.5 1.2 3.4 4 4.8 7.6 4.2 3.2-0.5 4.7 0.8 6.1 3.6 1.4 2.7 3.9 4.9 5.8 7.4 0.7 0.9 1.4 2.4 1 3.2-0.4 0.8-1.9 1.4-3 1.6-1.3 0.3-2.7 0.2-4 0.1-3.8-0.3-6.7 0.7-9.5 3.7-1.8 1.9-5.2 2.9-8 3.1-5.6 0.5-11.3 0-16.9 0.2-1.6 0.1-3.2 0.9-4.8 1.5-0.8 0.3-1.5 0.7-2.2 0.9-7.1 1.5-12.6 7.2-12.8 14.4-0.4 15.5-0.3 30.9-0.3 46.4-0.1 16.3 0.2 32.6-0.1 48.9-0.1 7.5-0.4 15.1-2.2 22.3-1.6 6.3-3.9 12.9-9.1 17.6-2.4 2.2-4.6 4.5-6.9 6.8-1.6 1.6-1.3 3.1 0.9 3.1 5.2 0.1 10.6 1.2 15.3-1.5 5.2-3 9.6-7.1 11-13.5 1-4.7 2.6-9.2 3.7-13.8 0.6-2.8 1-5.7 1-8.5 0.1-18.6 0.1-37.1 0.1-55.7 0-4.1 0.4-4.6 4.6-4.6 6-0.1 12.1 0 18.1-0.1 2.3 0 3.4 0.9 3.4 3.3 0 8.2 0.1 16.4 0.1 24.6 0 22.1-0.1 44.3 0 66.4 0 1.4 1 3 2 4.1 2.7 2.8 6.3 2.4 9.5 1.7 2.5-0.6 3.5-2.8 3.5-5.5-0.1-29.7 0-59.5 0-89.2 0-5 0.4-5.4 5.4-5.4 2.9 0 5.7 0.1 8.6 0 2.1 0 4.1-0.5 4-3.1-0.1-2.5-2.1-2.7-4.1-2.7-16.2 0-32.4 0-48.6 0.1-4.3 0-6.5-2.2-6.5-6.5 0-8 0.3-16-0.1-24-0.3-6.8 1.5-12.9 5.5-18.3 0.6-0.9 1.9-1.7 3-1.8 5.5-0.5 11-0.7 16.5-1l16.5-1.2c1.8-0.1 3.7 0 5.5-0.1 2.3-0.1 3.8 1 4.8 3 1.1 2.3 2.5 4.4 3.7 6.7 1.1 2 0.9 3.9-0.3 6.1-1.3 2.4-2.1 5-2.7 7.6-0.2 0.8 1.2 2.3 2.2 2.8 3.9 2.1 6.3 5 6.9 9.6 0.4 3.3 3.9 3.8 6.4 5 0.7 0.3 1.6 0.3 2.4 0.3 2.9-0.1 4.1 1.6 4.1 4.2s-0.5 5.1-0.5 7.6c0.1 2.2 0.3 4.5 1 6.5 2.5 6.5 2 12.9 0 19.3-1.5 5-1 9.5 0.5 14.6 3 9.8 7.2 19.5 5 30.2-1.2 5.8 0.6 10.9 3.1 15.9 1 2 2.3 2.9 4.7 1.8 2.9-1.4 3.8-0.6 3.8 2.7 0 3.7 0.1 7.4-0.1 11.1-0.1 1.5-1.1 3-1.3 4.6-0.5 3.6-1.2 7.2-1 10.8 0.4 5.4-1.1 9.1-5.7 11.9-1.1 0.7-1.9 2.4-2.1 3.7-0.3 2.2-0.1 4.5-0.1 6.8 0 0.7 0.3 1.6 0 2.1-2.9 5.5 0.9 10 2 15 0.7 3.1 0.8 6.4 0.9 9.7 0.1 2 0.2 3.3 2.7 3.5 2.2 0.2 2.4 1.8 1.2 3.8-0.8 1.5-1.1 3.3-1.5 5-0.2 0.8 0.2 1.6 0.1 2.4-1.3 10.5 2.1 20.7 2.2 31.2 0 0.8 0.2 1.7 0.7 2.3 3.2 3.6 2.7 8 2.9 12.3v4.3c0.4 1 0.8 1.1 1.2 1.1z m-169-168.9c-0.1 0-0.1 0 0 0-0.1 7.4 0.1 14.8-0.1 22.1-0.3 7.8-2.7 9.7-9.4 9.3-4.9-0.3-9.7-1.2-14.6-1.8-0.8-0.1-2.1-0.1-2.4 0.3-0.4 0.6-0.1 1.7 0.2 2.5 0.3 0.8 1 1.6 1.6 2.1 1.5 1.2 3 2.6 4.7 3.4 2.1 1.1 4.4 1.8 6.7 2.5 1.6 0.5 3.6 0.4 4.9 1.3 3.6 2.2 6.6 2.3 10.1-0.2 0.6-0.4 1.5-0.9 2.2-0.9 5.5 0.1 7.5-4.4 8.9-8 1.7-4.6 2.1-9.8 2.2-14.8 0.3-13.2 0.1-26.4 0.1-39.7 0-4.7 0.8-5.5 5.6-5.5h25.5c1.4 0 2.9-0.1 4.2-0.6 2.1-0.7 2.7-2.9 0.9-4.3-1.4-1.1-3.4-2-5.2-2-8.7-0.2-17.4 0-26.1-0.1-3.8 0-5-1.2-5-5 0-5 0-10 0.1-15.1 0-4.2 0.8-5 5-5 9.4 0 18.9 0.1 28.3-0.1 2.1 0 4.2-1.1 6.2-2.1 1.8-0.9 1.4-2.5 0-3.4-0.9-0.6-2.3-1-3.4-1-7.2 0-14.3 0-21.5 0.2-1.7 0-3.2 0.1-3.5-2-0.3-2 0.3-3.6 2.4-4 6.6-1.1 8.4-6.5 10.2-11.7 1.3-3.6 2.7-7.1 3.9-10.7 0.6-2 1.1-4.1 1.2-6.2 0-0.8-1.3-2.2-2.1-2.3-2.4-0.3-4.9-0.3-7.3 0-1 0.1-2.4 1-2.8 2-2.3 4.9-4.3 10-6.4 15-1.5 3.7-3.1 7.3-6.8 9.6-2.2 1.4-3.2 3.4-1 5.9 0.6 0.7 0.7 2.4 0.3 3.3-0.3 0.6-1.8 0.9-2.8 0.9-5.3 0.1-10.6 0.1-16 0-1 0-2.7-0.3-2.9-0.8-0.3-1 0-2.4 0.5-3.3 1.9-3.1 1.5-4.6-1.4-6.6-3.7-2.6-6.1-6.2-7.7-10.5-1.8-4.8-3.5-9.6-5.4-14.2-0.3-0.7-1.6-1.3-2.5-1.4-2.1-0.2-4.3-0.2-6.4-0.1-3.3 0.2-4.5 1.7-3.6 4.8 0.6 2.4 1.7 4.8 2.5 7.2 1.5 4.1 3.1 8.2 4.7 12.3 1.5 3.8 4 6.3 8.3 6.8 2.1 0.3 2.8 1.9 2.5 3.9-0.3 2.1-1.8 2.1-3.4 2-7.9-0.1-15.8-0.1-23.7 0-1.1 0-3 0.8-3.2 1.5-0.2 1.1 0.4 2.9 1.3 3.6 1 0.9 2.8 1.3 4.2 1.3 10.7 0.1 21.3 0 32 0 4.4 0 5.3 0.8 5.3 5.1 0 4.7 0 9.4 0.1 14.1 0.1 5-0.8 5.8-5.9 5.8h-28c-2.8 0-4.7 1.7-4.6 3.9 0.2 3 2.2 3.1 4.6 3.1 9.7-0.1 19.5-0.1 29.2 0 4 0 4.8 1 4.7 5-0.3 7.8-0.2 15.2-0.2 22.6z m75.5 214.3c-0.8 2.5 0.4 3.8 2.1 5 4.4 3 8.6 6.5 14.3 6.8 0.5 0 1 0.4 1.4 0.5 2.1 0.5 4.3 1.2 6.5 1.4 4 0.4 7.6-0.5 11.4-2.2 3-1.3 5.1-3 6.5-5.5 1.4-2.5 2.7-5.4 2.9-8.2 0.5-10.8 0.8-21.7 0.8-32.5 0-15.6-0.3-31.1-0.6-46.7 0-1.3-0.5-3.2-1.4-3.8-3.1-2.1-6.3-5-9.7-5.4-9.5-0.9-19.2-0.7-28.8-0.8-0.9 0-1.7 0.8-2.6 0.9-2.1 0.3-4.7 1.3-6.2 0.4-2.9-1.7-5.8-1.6-8.9-1.6-5.8 0-6.1 0.3-6.1 6.1 0 22.8 0.1 45.5-0.2 68.3-0.1 9-0.4 18.4-8 25.2-0.1 0.1-0.1 0.2-0.2 0.3-0.2 1.1-0.5 2.3-0.7 3.4 1.1 0.2 2.2 0.6 3.2 0.5 1.4-0.1 2.8-0.8 4.2-1 5.6-0.8 13.1-7.4 13.9-13 1-6.6 1.7-13.2 2.1-19.8 0.2-2.8 1.2-3.9 3.9-3.9h16.6c4 0 8-0.1 12 0 2 0 3.8 0.5 3.8 3-0.1 5.4 0 10.9-0.3 16.3-0.3 5.8-3.8 9.1-9.5 8.9-5-0.2-9.9-1-14.9-1.6-2.3-0.3-4.8-0.7-7.5-1zM696.4 486.3c1.7-0.3 2.9-0.6 4.1-0.6 7.4-0.1 12.7-3.2 15-10.6 0.6-2 1.3-4 2-6 2.8-8.2 5.7-16.5 8.4-24.7 0.9-2.8 0.1-4-2.9-4.3-2.4-0.2-4.9 0-7.4-0.1-2.1-0.1-3.6 0.7-4.3 2.7-2.2 6.7-4.5 13.3-6.7 20-2.4 7-4.8 14-9.9 19.7-0.6 0.6-0.8 2-0.5 2.7 0.4 0.7 1.6 0.9 2.2 1.2z m76.2-45.8c-1 0-2.2-0.1-3.3 0-2.7 0.2-4.6 1.2-3.9 4.4 0.8 3.2 2.2 6.4 2.5 9.6 0.5 6.4 4.3 11.6 6.1 17.4 0.2 0.7 0.9 1.5 1.6 1.8 4.9 2.1 9.5 5.4 15.3 4.2 2.3-0.4 2.9-1.5 1.4-3.3-6.5-7.9-9-17.4-11.3-27-1.2-4.7-3.1-8.5-8.4-7.1z m46.1 111.1c-4.9 0-9.8-0.1-14.7 0-1.8 0-3.8 0.1-3.8 2.5 0 2.3 1.9 2.7 3.7 2.7h29.4c1.8 0 3.8-0.4 3.8-2.6 0-2.4-2-2.5-3.8-2.5-4.8-0.1-9.7-0.1-14.6-0.1z m-76.7 5.1h11.7c1.5 0 3.2 0.1 4.5-0.4 0.9-0.3 1.8-1.7 1.9-2.6 0-0.6-1.3-1.5-2.2-1.9-0.8-0.3-1.8-0.2-2.7-0.2h-27.3c-1.8 0-3.7 0-3.6 2.6 0.1 2.4 1.9 2.6 3.7 2.6 4.6 0 9.3-0.1 14-0.1z m76.4 13.9c4.5 0 9 0.2 13.5-0.1 1.6-0.1 4.3-1.3 4.3-2.1 0.1-2.6-2.5-2-4.2-2.2h-27.3c-0.7 0-1.5-0.1-2.1 0.2-0.7 0.4-1.7 1.2-1.7 1.8 0 0.6 0.9 1.6 1.6 1.9 0.9 0.4 2 0.3 3 0.4 4.3 0.1 8.6 0.1 12.9 0.1z m-76.6-4.3c-4.7 0.1-9.4-0.1-14.1 0.1-1 0-2 1.2-3 1.8 1 0.8 2 1.6 3 2.3 0.1 0.1 0.4 0 0.6 0 9.1 0 18.2 0.1 27.3-0.1 1.3 0 2.5-1.5 3.7-2.3-1.2-0.7-2.5-1.8-3.7-1.9-4.6-0.1-9.2 0.1-13.8 0.1z" p-id="1716"></path><path d="M739.6 337.1c-0.1 9-0.1 9-9.1 9-7.8 0-15.5 0.1-23.3 0-1 0-2.9-1.1-2.9-1.7-0.1-1.3 0.5-3 1.4-3.9 2.6-2.7 5.3-5.2 8.2-7.5 1.1-0.9 2.6-1.5 3.9-1.6 3.5-0.3 6.9-0.2 10.4-1.5 2.8-1 6.6 0.3 9.8 1 0.7 0.1 1.2 1.7 1.5 2.7 0.3 1 0.1 2.2 0.1 3.5zM742.9 592.6c4.9 0 9.8 0.1 14.7 0 2.6 0 3.9 1 3.4 3.7-0.5 2.6 0.6 5.8-2.3 7.5-1.3 0.8-2.8 1.5-4.2 1.5-7.7 0.1-15.4 0.2-23 0-6.1-0.2-9.3-5.8-6.7-11.3 0.4-0.8 2-1.3 3-1.3 5.1-0.2 10.1-0.1 15.1-0.1zM750.2 636.3c0.2-8.7-1.9-9 9.1-8.7 3 0.1 6.1 0.6 9.1 1.1 1.8 0.3 4.3 5 4.2 7.9 0 6.2-2.9 9.2-9.2 9.4-3.1 0.1-6.1 0-9.2 0-2.9 0-4.1-1.4-4.1-4.1 0.1-1.9 0.1-3.7 0.1-5.6zM734.8 636.6c0 10 0.4 9.5-9.3 9.4-1.4 0-2.8-0.1-4.3-0.3-2.9-0.3-5.8-0.6-6.9-4-1.2-4.2-1.1-8.3 2-11.8 0.5-0.6 1.3-1 2.1-1.1 4.2-0.5 8.3-0.8 12.5-1.1 2.6-0.2 4 1 3.9 3.8-0.1 1.6 0 3.4 0 5.1zM829.3 643.5c-4.5 0-9-0.1-13.5 0.1-2.7 0.1-4.1-1-4.2-3.6-0.2-6.6-0.3-13.3-0.1-19.9 0-1 2.1-2.7 3.2-2.8 9.7-0.2 19.4-0.2 29.1-0.1 2.1 0 3.6 1 3.6 3.3 0 6.3-0.2 12.7-0.2 19 0 3-1.5 4.2-4.4 4.1-4.5-0.2-9-0.1-13.5-0.1zM829.2 612.8c-4.5 0-9-0.1-13.5 0-2.5 0.1-4-0.9-4.1-3.4-0.2-5.1-0.3-10.2-0.2-15.3 0.1-2.6 4.8-6.3 8.2-6.4 6.3-0.2 12.7-0.2 19-0.1 2.6 0 8.1 5.5 8.3 8.2 0.2 4.5 0.1 9 0.2 13.5 0 2.6-1.3 3.6-3.8 3.6-4.7-0.2-9.4-0.1-14.1-0.1zM526.9 292.7h3.3v417.4h-3.3zM890.8 322.7v1.7h-8v20.2H881v-20.2h-8v-1.7h17.8zM897.5 322.7l8.6 19.5h0.1l8.5-19.5h2.5v21.8h-1.9v-18.7h-0.1l-8.2 18.7h-1.8l-8.2-18.7h-0.1v18.7H895v-21.8h2.5z" p-id="1717"></path></svg>