<?xml version="1.0" standalone="no"?><!DOCTYPE svg PUBLIC "-//W3C//DTD SVG 1.1//EN" "http://www.w3.org/Graphics/SVG/1.1/DTD/svg11.dtd"><svg t="1574761673247" class="icon" viewBox="0 0 1024 1024" version="1.1" xmlns="http://www.w3.org/2000/svg" p-id="7325" xmlns:xlink="http://www.w3.org/1999/xlink" width="200" height="200"><defs><style type="text/css"></style></defs><path d="M240.1 834.9c-10.1 1.2-19.7 2.3-29.1 3.5-16.5-32.4-56.6-33.1-79.7-1.6-10 13.6-15.3 29.1-15.9 46-0.8 21.6 9.6 33.1 31.3 32 12-0.6 24.7-2.8 35.3-7.9 6.1-2.9 8.6-13.2 14.1-22.6h-41.7c2.4-7.8 4.3-14.7 7-21.4 0.7-1.8 3.9-3.8 6-3.8 21-0.3 42-0.2 64.1-0.2-0.7 3.3-1 5.9-1.7 8.3-5.2 16.5-10.4 33.1-16.1 49.5-1.2 3.3-4.1 7-7.2 8.5-24.3 11.8-49.8 17.8-77 14.4-29.4-3.8-45.1-20.9-45.9-50.5-1.3-46.4 33.4-90.4 78.8-98.8 16.9-3.2 34.1-2.8 50.3 4.6 16.8 7.4 24.8 21.1 27.4 40zM422.5 937.5c6.9-21.4 13.4-41.6 19.9-61.8 1.4-4.3 2.9-8.7 4-13.1 2.1-8.8-3.3-14.5-12.3-12.5-12 2.6-20.3 10.3-24.6 21.3-6.3 16.1-11.6 32.7-17 49.2-5.6 17-5.4 17-23.1 17h-13.1c3.6-11.2 6.7-21.3 10-31.3 7.3-22.6 14.8-45.1 21.8-67.8 1.6-5.3 3.7-7.5 9.4-7.1 6.9 0.5 13.9 0.1 21.4 0.1-0.6 3.6-1.1 6.5-1.7 9.8 33.9-17.8 51.3-16.5 61.8 4.5 11.7-9.7 24.6-16.7 40.3-16.6 21 0.1 30.7 11.9 24.9 31.9-6.9 24-14.8 47.7-22.6 71.4-0.8 2.3-4.4 4.8-7 5-7.9 0.6-15.8 0.2-25.2 0.2 2.2-7.3 4.1-13.8 6.2-20.2 5.7-17.7 11.6-35.3 16.9-53.1 1-3.5 0.9-9.6-1.3-11.4-2.9-2.3-8.6-2.9-12.5-1.9-11.9 2.9-19.2 11.9-23.3 22.7-7 18.5-13.2 37.3-19.2 56.1-1.9 5.9-4.3 8.5-10.7 7.9-7.3-0.7-14.6-0.3-23-0.3zM845.2 847.2c8.7-17.7 9.9-18.2 34.4-14.9-1.5 5-2.7 9.9-4.3 14.7-9.7 29.8-19.4 59.5-29 89.4-10.8 33.4-24.8 47.9-73.7 44.1-4.8-0.4-9.7-1.4-14.3-2.9-15.7-5.1-21.7-17.3-16.8-34.1 8.9 1.2 18 2.2 26.9 3.6 1.5 0.2 3.4 1.5 4.1 2.8 6.9 13.1 27.6 14.2 36.3 1.1 4.2-6.3 6.2-14.1 9.1-21-11 3-20.6 7.1-30.6 7.9-20.6 1.8-33.2-8.9-35.8-29.3-2.7-21.1 7-58 35.7-73.1 22.3-11.7 41.8-8.1 58 11.7z m-63.3 45.1c-0.3 21.2 13.6 29.8 29.5 21 14.6-8.1 20.1-22.2 22.9-37.6 1.8-10-2.4-19.3-10.1-23.6-7.3-4.1-16.7-2.6-24.3 4.5-11.3 10.3-16.5 23.8-18 35.7zM243.4 608.6c3.5 49.2 6.9 97.5 10.3 146.5h-30.4c-0.8-10.2-1.6-20.6-2.5-31.9-19.6 0-38.7-0.1-57.8 0.2-1.9 0-4.1 2.1-5.5 3.7-2.5 3-5.3 6.2-6.7 9.8-8.4 21.7-25.7 21.1-45 17.9 1.5-2.5 2.7-4.8 4.2-7 30.9-44.2 62-88.3 92.8-132.6 3.3-4.8 6.9-6.9 12.8-6.6 9 0.4 18.1 0 27.8 0z m-26.6 35l-2.1-0.6c-13.1 17.8-26.3 35.7-40.1 54.5h45.1c-1-18.5-2-36.2-2.9-53.9zM547.9 755.4h-25.4c-0.9-3.3-1.7-6.5-2.3-8.9-7.7 3.4-14.9 7.5-22.7 9.8-17.5 5.2-32.9-1.4-38.4-15.5-6-15.3 1.6-36.4 17.5-42.3 12.9-4.7 27.2-5.7 40.9-8.3 4.2-0.8 8.4-1.5 12.6-1.7 7.1-0.4 9.1-5.5 8.3-10.6-0.6-3.6-4.2-8.5-7.5-9.5-8.8-2.7-17.3-1.1-24.1 6.4-2 2.2-5.9 3.9-8.9 3.9-7.3 0-14.5-1.2-25.3-2.2 7.3-7.8 12.2-15.4 19-20 19-12.7 40.1-13.3 61.3-6.4 12.6 4.1 18.4 15.3 15.4 28.4-2.1 9.5-5.6 18.6-8.1 28-4 15.9-7.9 31.6-12.3 48.9z m-18.2-49.7c-11.8 2.5-22.2 4.1-32.2 7.1-8.3 2.4-12.5 9.7-10.1 15.8 3.1 7.8 9.8 8.4 16.7 7.1 15.2-3 22-13.7 25.6-30zM332.2 937.1h-27.3c-0.6-2.8-1.1-5.4-1.6-8.2-0.8 0-1.8-0.1-2.5 0.2-8 3.5-15.7 8.2-24 10.4-13.9 3.6-26.7-1.7-32.8-11.9-6.4-10.6-4.6-27.2 4-37.7 7.9-9.7 18.9-13 30.5-14.6 10.8-1.6 21.7-2.8 32.7-3.6 7.3-0.5 10.3-4.6 10.8-11 0.5-7.1-4.7-9.6-10.4-10.5-8.6-1.3-16.1 0.8-22.2 7.8-1.7 2-5.4 3.4-8.1 3.4-7.4-0.1-14.9-1.1-23.3-1.9 5.6-13.4 14.9-21.2 26.8-25.9 14-5.5 28.7-5.9 43.2-3 20.2 4 27.7 16.2 22.2 36-3.9 14-9.2 27.7-12.9 41.8-2.5 8.8-3.3 18.2-5.1 28.7zM312.1 888c-12.2 2.8-23.2 4.8-33.7 8.1-6.2 1.9-10.4 7.3-8.3 14.2 2.1 7.3 8.3 9.1 15.4 8 14.6-2.2 22.4-10.5 26.6-30.3zM682.7 937.5c7.8-24.5 15.3-47.3 22.1-70.3 1.3-4.3 1.1-11.7-1.5-13.9-3.4-2.8-10.4-3.2-15-1.9-13.4 3.9-22.3 13.5-27 26.6-6.2 17.5-11.9 35.2-17.5 52.9-1.5 4.7-3.4 7.1-8.8 6.8-7.6-0.5-15.2-0.1-24.4-0.1 11.6-36.1 22.9-71 34.1-105.9h28.5c-0.5 3.5-0.9 6.6-1.5 11 4.2-2.4 7-4.9 10.3-5.8 10.7-2.9 21.5-7 32.4-7.4 16.5-0.6 26.1 11.1 23.4 27.4-1.9 11.6-6 22.9-9.4 34.2-4.1 13.4-8.6 26.6-12.7 40-1.3 4.3-3.1 6.7-8.2 6.4-7.8-0.3-15.7 0-24.8 0zM391.4 674.6c-7.9 1.4-15.7 2.9-23.5 3.9-1.8 0.2-4.5-0.9-5.8-2.4-7.9-8.8-19.2-12.3-30.4-8-3.5 1.3-6 5.3-9 8 2.7 2.9 4.9 7 8.3 8.3 9 3.7 18.6 5.8 27.7 9.2 24.1 9.2 28.3 30.5 9.9 48.7-18.9 18.7-62.7 21.9-83.2 5.1-5.7-4.7-8.6-12.8-12.7-19.3-0.3-0.4 0.1-1.2 0.2-2.7 8.1-1.3 16.3-3 24.7-3.7 2.1-0.2 5.2 2.3 6.6 4.4 7.8 11.6 29 14.7 39.7 5.6 6-5.1 5.2-10.7-2.7-13.8-9.6-3.9-19.4-7.2-29.2-10.6-27.1-9.3-22.3-37.4-5.9-48.9 21.5-14.9 45.2-16 68.8-6.9 6.8 2.7 11.2 11.8 16.4 18.2 0.8 1 0.1 3 0.1 4.9zM458.5 648.9c-9.5 29.4-18.4 57.1-27.4 84.8-7.4 22.7-7.5 22.6-31.4 22-1.8 0-3.5-0.3-6.3-0.6 5.9-18.5 11.5-36.4 17.2-54.2 4.8-15.1 9.8-30.1 14.5-45.2 1.4-4.6 3.3-7.3 8.8-6.9 7.6 0.5 15.2 0.1 24.6 0.1zM615.1 831.4c-9.9 30.6-19.2 59.5-28.6 88.4-5.8 17.8-5.8 17.7-24.5 17.7h-11.2c0.7-3.3 1-5.8 1.8-8.2 9.5-29.6 19.3-59 28.3-88.7 2.3-7.6 6-10 13.5-9.3 6.4 0.6 12.8 0.1 20.7 0.1zM432.2 634.9c2.6-8.2 4.5-15.2 7.2-21.9 0.8-1.9 3.7-4 5.7-4.1 8.1-0.5 16.3-0.2 26.4-0.2-2.9 8.7-5.2 16.4-8.1 23.8-0.5 1.3-3.3 2.3-5.1 2.4-8.2 0.2-16.4 0-26.1 0zM588.8 817.2c2.8-8.7 4.8-15.9 7.5-22.8 0.6-1.6 3.4-3.2 5.3-3.3 8.4-0.4 16.9-0.2 26.4-0.2-2.6 8.2-4.9 15.7-7.5 23-0.5 1.4-2.4 3.1-3.7 3.2-8.8 0.2-17.8 0.1-28 0.1z" p-id="7326"></path><path d="M64.9 563.4c3-17.2 5.9-33.9 8.8-50.5 12.5-70.7 24.9-141.4 37.4-212.1 9.7-55 19.4-110 28.9-165.1 0.9-5.4 4.1-5.3 8.1-5.3 28.4 0.1 56.7 0 85.1 0h258.9c3.1-17 6.6-33.5 8.8-50.2 1-7.2 4-8.2 10.3-8.2 126.4 0.1 252.8 0.1 379.1 0.1H935.7c-3.8 21.5-7.3 41.9-10.9 62.2-12.3 70.7-24.8 141.4-37.3 212.1-8.9 50.3-17.9 100.5-26.5 150.8-1.1 6.4-3.3 8.1-9.6 8.1-42-0.3-84.1-0.1-126.1-0.1-69.4 0-138.8 0.1-208.2-0.1-6.1 0-9.4 0.7-10.3 8.1-2.2 16.7-5.7 33.3-8.8 50.2H64.9zM675 348h90.6c-28.5 32.6-61.4 52-103.5 52-58.1 0-99-47.7-89.1-105 9.6-55.7 43.6-91.3 96.7-108.2 46.2-14.7 95.6 3 115 45.4 0.7 1.6 3.2 3.3 4.9 3.4 16.9 0.3 33.8 0.2 53.3 0.2-5-13-8.5-25.1-14.2-36.1-25.3-48.7-80.6-75-138.5-66.7-57.9 8.3-103.1 37.5-136.5 84.8-27.4 38.8-39.6 82.1-30.4 129.4C537 416.5 599 458.3 673.9 449c55.7-6.9 99.4-35.3 133.2-79.4 7.1-9.3 14.6-18.7 16.4-31.2 1.8-13.4 4.5-26.7 6.9-40.7H683.9c-2.9 16.3-5.7 32.4-8.9 50.3zM99.9 503.6c0.4 0.7 0.8 1.3 1.2 2 16.4 0 32.8-0.2 49.1 0.1 5.2 0.1 8.3-1.8 11.3-5.8 22.3-30.1 44.8-60 67.1-90.2 2.8-3.8 5.7-5.5 10.6-5.5 46.6 0.2 93.2 0.2 139.8 0 5.5 0 7.9 1.8 9.8 6.8 10.8 28.1 21.9 56 33 84 0.9 2.3 2.2 4.5 4.2 8.4 0.9-3.4 1.3-4.6 1.5-5.7 5.4-30.1 10.8-60.2 16-90.4 0.4-2.3-0.3-5-1.2-7.2-29.5-74.5-59.1-149-88.8-223.5-0.8-2-1.8-4-3.3-7-83.8 111.9-167.1 223-250.3 334z" p-id="7327"></path><path d="M365.8 353.5h-94.9c20.8-27.8 40.9-54.7 62.1-83.1 11.3 28.5 21.9 55.5 32.8 83.1z" p-id="7328"></path></svg>