<?xml version="1.0" standalone="no"?><!DOCTYPE svg PUBLIC "-//W3C//DTD SVG 1.1//EN" "http://www.w3.org/Graphics/SVG/1.1/DTD/svg11.dtd"><svg t="1574761677411" class="icon" viewBox="0 0 1024 1024" version="1.1" xmlns="http://www.w3.org/2000/svg" p-id="7450" xmlns:xlink="http://www.w3.org/1999/xlink" width="200" height="200"><defs><style type="text/css"></style></defs><path d="M538.6 359.6c-3.4-0.7-7.1-0.7-10.1-2.2-6.8-3.4-13.1-5.6-20.4-1-3.5 2.2-9.3-3.8-9-8.9 0.4-6 8.1-13.5 14.4-14.3 1.4-0.2 2.7-1.5 4.1-2.2-1.2-1.4-2.4-4.1-3.5-4-3 0.1-6.3 0.9-8.9 2.4-4.2 2.5-7.8 5.9-11.6 8.9-4.5-5.4-8.4-10-12.2-14.7-0.6-0.7-1.4-2.2-1.1-2.6 5.1-6.8-3.2-9.7-4.8-14.4-0.5-1.6-6.4-1.5-9.9-2s-7-0.7-10.5-0.9c-1.8-0.1-4-0.3-5.4 0.6-7.4 4.4-12.4 10.7-16.9 18.3-4.2 7.1-11.5 12.4-18 17.9-1.5 1.2-5.5 0.6-7.7-0.4-4.7-2.2-7.2-0.7-10 3.1-2.3 3.1-5.2 6.5-8.6 7.8-8 3-14.2-3-14-13.9 1.7 1.2 2.8 2.6 4.1 2.9 2.3 0.6 5.6 1.6 7.1 0.5 2-1.5 3.7-4.7 3.7-7.2 0-1.2-4-3.2-6.4-3.6-8.3-1.2-16.7-1.9-25.1-2.7-5.9-0.5-10-3.1-11.1-9.2-1.3-6.5 2.3-10.1 8.6-13.6-0.6 3.4-2.1 6.4-1.2 7.8 1.5 2.4 4.5 4 7.2 5.4 0.4 0.2 3.3-2.9 3.7-4.7 2.7-13.4 11.2-22 22.6-22.2 1.3 0 2.7 0.5 5.7 1.2-2.9 1.5-4.2 2.3-5.6 3-3.3 1.7-6.9 2.9-10 5-4.5 3.1-8.4 7.1-5.5 13.2 2.7 5.8 11.9 9.4 17.3 7.2 5.9-2.4 12.1-4.5 17.5-7.8 4.8-2.8 0.9-5.5-1.6-7.3-2.8-2-6.1-3.4-9.1-5 2.9-2.2 5.9-4.3 8.6-6.6 1.1-0.9 2-2.2 2.6-3.5 7.8-15.8 27.2-24.2 43.9-17.9 11.3 4.3 22 10.1 34.7 14.5-1.2-2.1-1.8-5.1-3.5-6-7.1-3.6-14.6-6.6-22-9.8-1.4-0.6-3.1-0.7-4.1-1.7-11-10-22.4-4.2-33.6-0.8-8.4 2.6-16.6 6.9-25.9 1.8-0.8 2.1-1.5 3.6-2 5.2-2 6.1-8.5 8-12.6 3.2-3.6-4.2-6.8-9.3-8.6-14.5-2.3-6.4-5.1-9.4-12.5-10.3-7.2-0.9-14.3-4.8-20.6-8.8-5.1-3.2-14.2-3.9-19.1 0-2.5 2-5.8 3.1-8.9 4.1-5.3 1.7-10.7 3.1-16.1 4.3-1.8 0.4-4.3 1-5.6 0.1-5.5-3.5-9.2-2.7-15.6 0.5-8.3 4.3-19.1 3.7-28.8 5.2-0.4-1.1-0.8-2.1-1.3-3.2 2.5-1.6 4.8-3.7 7.6-4.6 12.6-3.8 12.6-3.6 19.2-13.9-0.4-0.2-1.1-0.7-1.2-0.6-8.1 7.1-17.7 11-27.8 14.8-9.2 3.4-17 10.3-25.5 15.6-1.4 0.9-2.8 2.1-4.4 2.5-15 3.5-26.9 13-39.8 20.6-3.2 1.9-2.8 4.8-3 8.5-0.3 5.2-5.3 10.2-8.5 15.2-0.4 0.6-2.4 0.4-2.7 1-4.8 10.1-13.6 5.3-21.1 6.3-4.6 0.7-9.3 4.1-13 7.3-4.2 3.7-7.5 8.5-11.1 13-4.1 5.2-7.7 10.8-12.1 15.7-2.9 3.3-6.8 5.7-10.2 8.6-2.6 2.3-5.8 4.2-2.3 8.6 0.8 1-0.7 5.6-2 6.1-11.5 4.1-15.8 14.6-20.5 23.8-22.9 44.8-35 92.4-32.4 142.9 1.1 21.6 5.2 43.1 8.2 64.6 0.3 2.1 2 3.9 3.1 5.9 1.6 3.1 3.7 6 4.8 9.2 2.4 7.2 4.9 14.6 6.4 22 3.7 18.5 17 31.4 25.7 47 8.1 14.6 19.8 25.1 30.9 36.8 6.1 6.3 11.6 12.4 19.7 16.6 7.6 3.9 13.7 10.5 20.9 16.3-0.9 1.6-1.8 3.1-3.2 5.7 9.2 4.7 18 9.3 26.9 13.7 15.8 7.8 31.5 16 47.7 23 8.7 3.8 18.4 5.4 27.6 7.8 3.1 0.8 6.3 1.4 9.5 1.8 6 0.8 12 1.5 18 2.2 2.7 0.3 5.7-0.3 8.2 0.6 20.8 7 42.2 4.2 63.1 2 27.3-2.9 53.9-10.5 79.1-21.7 15.9-7 31.1-15.6 47-22.8 8.4-3.8 17.2-7.2 27.9-3.7-4.1 3.7-8.1 7.5-12.3 11-7.5 6.1-14.6 13-22.8 17.8-9.4 5.5-19.6 10-30 13.3-18.9 6.1-38.3 10.9-57.4 16.3-1.1 0.3-2.1 1.1-3.8 2.1 2 1.8 3.4 3.1 5.4 5-1.7 0.5-3 1.2-4.2 1.2-14.7 0-29.5-0.5-44.2-0.2-4.2 0.1-8.3 2.4-12.5 3.1-2.7 0.4-5.5-0.7-8.3-0.8-4.5-0.2-9-0.3-13.4 0.1-3.6 0.3-7.5 2.8-10.6 2-6.9-1.7-13.3-5.7-20.9-2.8-1.1 0.4-2.9-1.5-4.5-2.1-6.9-2.6-13.9-5.2-20.9-7.4-1-0.3-3.5 1-3.5 1.6 0 1.5 0.6 3.8 1.6 4.4 7.4 3.9 15 7.4 22.6 10.9 1.6 0.7 3.6 0.7 6.7 1.3-16.1 4.9-35.5-5-38.4-18.8-3.2 0.3-6.6 0.6-9.9 0.8-14.1 1-26.6-4.2-39-9.6-3.6-1.6-7.6-2.3-11.3-3.8-3-1.2-6.2-2.3-8.5-4.4-19.5-17.9-39.1-35.7-58-54.1-5.9-5.8-10-13.5-14.9-20.3-28.7-39.4-47.1-83.7-61.2-130-6.2-20.5-10.4-41.3-10.1-63.2 0.3-20.3 4.8-39.8 6.9-59.7 3-28.9 16.1-54.3 24.5-81.3 1.6-5.2 2.8-10.6 4.7-15.8 3.7-9.9 8.4-18.7 18.6-24.3 7.7-4.2 15-10 15.3-20.6 0-1.9 2-3.9 3.4-5.5 8.4-8.9 17-17.6 25.5-26.3 0.2-0.2 0.4-0.3 0.5-0.6 1.2-4 2.4-8 3.6-12.1-3.7 1.2-8.7 1.2-10.9 3.7-9 10.3-17.4 21-25.4 32.1-4.5 6.2-7.6 13.5-11.6 20.1-1.5 2.5-3.9 4.4-5.9 6.6-0.6-0.4-1.2-0.8-1.9-1.2 0.3-1.5 0.3-3.2 1-4.5 10.3-20 21.4-39.5 36-56.8 2.1-2.6 1.9-7 3.1-10.5 0.9-2.6 1.5-5.7 3.4-7.4 10.5-9.2 21.2-18.1 32-27.1 7.9-6.6 16.2-12.6 23.6-19.6 11.1-10.5 25.2-13.9 39.1-17.7 2.6-0.7 5.7 1.2 8.6 1.2 3.6-0.1 7.2-0.9 10.8-1.4-1.4-3.1-2.7-6.3-4.1-9.3-0.4-0.8-1.1-1.4-1.7-2.1 0.2-0.8 0.5-1.6 0.7-2.4 7.4 1.5 14.8 2.9 23.3 4.6 1.3-4.9 3-11.1 5.1-18.8h-27.2c-0.2-1.1-0.3-2.1-0.5-3.2 5.2-1.1 10.3-2.6 15.5-3.1 10.6-1.1 20.7-0.7 25.1 12 0.4 1.3 4.9 2.6 6.1 1.8 4.2-2.6 7-0.8 10 1.8 3.6 3 13 2.9 15.3-0.8 1.3-2.2 0.2-5.8 0.2-10.4 3.3 1.7 7.5 2.6 9.9 5.2 4.2 4.6 9.2 3.7 13 1.7 2.1-1.1 1.9-6.4 3-10.9 5.1-0.8 10.1 2.4 14.3 7.4 1.3 1.5 2.2 3.7 3.8 4.4 3.3 1.4 9.4 3.5 10 2.6 2.7-4.3 3.8-9.5 5.6-14.3-0.8-0.4-1.6-0.9-2.4-1.3-2 1.1-3.9 2.1-5.9 3.2-0.5-0.2-1-0.5-1.6-0.7 1.9-3.9 3.5-8.2 6.1-11.7 0.7-0.9 6.1-0.1 6.3 0.7 1 3.9 1.6 8.1 1.2 12.2-0.3 3.9-2.1 7.7-2.8 11.6-0.3 1.3 0.1 3.3 1 3.9 0.8 0.7 3 0.5 4-0.1 3.8-2.6 8-5 10.9-8.5 1.8-2.1 1.7-6 1.9-9.1 0.1-1.8-0.9-3.6-1.4-5.4l1.9-1.9c4.8 3.9 10 7.3 14.2 11.7 2.6 2.7 4.1 6.7 8.7 5.1 4.9-1.7 5.7-5.8 5-10.4-0.1-0.4 0.3-0.9 0.6-1.8 6.2 0.9 8.5 5.6 11 10.6 1.7 3.3 4.5 6 6.8 9 0.9-0.6 1.9-1.3 2.8-1.9-1.3-2.3-2.4-4.7-4.1-6.8-3.2-4-4.5-7.4-0.2-11.8 1.1-1.2 0.6-5.6-0.7-7.3-3.6-4.5-8-8.2-12-12.3-1.6-1.6-2.8-3.6-4.2-5.4 0.6-0.7 1.2-1.4 1.8-2 4.9 3.4 9.8 6.8 14.6 10.2 1 0.7 1.7 2 2.8 2.5 2.3 1 4.8 1.8 7.3 2.4 0.3 0.1 1.8-2.4 1.5-2.8-1.5-2-3.3-3.9-5.3-5.6-0.8-0.7-2.3-0.8-3.7-1.2 0-1.4-0.3-2.7 0.1-3.8 0.8-2.9 1.9-5.8 2.8-8.7 2.6 1.3 5.8 2 7.6 4.1 6.1 6.9 8.7 0.3 13.3-4.4 6.3 9.1 12.3 17.5 18.2 26 0.5-0.2 0.9-0.4 1.4-0.6v-7.1c7.1 7.1 10.3 14.1 11.1 22.9 0.7 8.1 3.1 16.1 4.7 24.2 1.2-0.1 2.5-0.2 3.7-0.3 0.4-3.8 0.9-7.6 1.4-12.2 6.3 2.3 9.9 6.9 12.1 12.9 1.4 3.9 1.8 9.8 7.3 8.7 4-0.8 7.5-4.7 11.1-7.5 1.1-0.8 1.5-2.4 4.4-3.8 0.6 4.3 2 8.7 1.7 13-0.3 5.8 2.6 14.4 6.6 14.5 6 0.1 8.3-4.5 9.9-9.5 0.2-0.6 0.8-1.1 1.6-2.3 4.6 5.8 6.2 12 5.3 18.9-0.2 1.7-1.2 3.5-1.1 5.1 0.2 2 1.3 3.9 2 5.9 1.6-0.9 3.4-1.6 4.8-2.7 1.3-1 2.1-2.6 3.2-4.1 6 8.6 4.9 15.1-4 20.3 2.9 4.5 5.8 8.9 8.7 13.3 0.7-0.1 1.4-0.2 2-0.3 1.9-8.3 5-16.5 5.4-24.9 0.6-12.9-0.7-25.9-1.3-38.8-0.1-1.6-0.8-3.9-2-4.5-6.3-3.5-4.5-7.4-1.6-12.3 2.1-3.5 2.9-7.9 5.8-12 2.5 10.6 5 21.1 7.6 32 3.6-1.2 6.2-2.1 9.8-3.4-0.5 2.4-0.3 4-1 4.5-7.3 5.3-5.3 11.2-1.7 17.6 2.5 4.3 4.1 9.1 6.3 13.6 5.2 10.2 8.2 20.4 5.2 32.3-1.2 4.8 3.4 10.9 2.4 15.9-2.3 11.5 6.9 13.7 13.8 18.5-0.8-3.6-2.4-7.3-2.2-10.9 0.5-11.4 1.7-22.8 4.4-34.5l5.1 6.6c0.8-0.2 1.6-0.3 2.4-0.5 0.4-5.3 1.1-10.5 1.2-15.8 0.1-5.2-0.5-10.5-0.9-15.7-0.3-3.9 0.8-6.1 4.7-8.1 3.9-2 7-5.9 10.1-9.3 2-2.2 3.3-5.1 4.9-7.6 0.7 0.4 1.5 0.7 2.2 1.1-1.4 3.8-3.4 7.4-4.1 11.3-1 6-2.3 12.3-1.3 18.1 1.8 11.3 2.3 21.7-3.1 32.7-3.8 7.7-3.5 17.4-5.4 26.1-1.1 4.9-2.4 9.8-4.4 14.3-3 6.7-4 12.7-1.1 20 5.7 14.7 14.2 28.4 15.2 44.9 0.5 7.9 6.7 12.3 13.5 15.7 4.4 2.2 9.5 4.4 12.2 8.1 4.5 6 9.1 6.1 14.9 3.4 3-1.4 6-3.1 10.1-5.1-2.3 8.1-7.4 10.8-13.8 12.2-10.3 2.2-12.5 6.6-8.2 16.3 1.1 2.5 3.1 4.6 4 7.2 1 2.8 1.3 5.8 1.8 8.7-3 0.4-6.1 1.7-8.8 1.1-11.5-2.6-22.8-5.8-34.5-8.9 2.7-8.2 2.2-13.8-4-19.1-4.4-3.8-6.4-10.1-10.2-14.7-2.9-3.4-7.1-4.8-11.3-1.5-4.6 3.6-3.9 8.4-1.2 12.1 3.8 5.1 2.9 9.9 1.9 15.4-0.6 3.4-0.4 8.6 1.8 10.6 4.1 4 8.7 9.9 16.2 4.8 2.9 6.6-1.9 10.2-5 13.8-1.1 1.3-5.3 0.7-7.7-0.1-7-2.5-13.8-5.8-20.8-8.3-1.8-0.7-4.8-0.5-6.2 0.7-3.9 3.1-7.3 6.8-10.7 10.5-6.5 7.2-5.8 9.7 3.8 14-2.6 1-5.4 3.1-7.6 2.6-2.2-0.6-5.5-4-5.3-5.9 0.5-4.5 2.2-9.1 4.5-12.9 2.4-3.9 6.1-7 9.9-11.1-8.5-5.4-14.8-11.8-15.4-23.6 4.9 3.6 8.9 6.5 12.9 9.4 0.6-0.6 1.2-1.2 1.7-1.8-2.5-6.4-6.2-12-12-16.5-5.6-4.3-9.8-9.6-11.2-18.9 5.4 3.9 9.3 6.8 13.2 9.6 0.7-0.8 1.5-1.5 2.2-2.3-4-4.3-7.9-8.6-12-12.8-4.2-4.2-8.7-8.1-12.7-12.5-1.4-1.6-1.6-4.2-3.1-8.1 4.1 2.2 6.3 3.5 8.5 4.7 0.7-0.3 1.3-0.7 2-1-6.8-9-17.9-16.7-11.3-29.9l12 6.6 1.8-2.1c-7.4-6.6-14.5-13.5-22.3-19.5-2.1-1.6-6.3-1.3-9.3-0.8-1.9 0.4-3.5 2.8-5.2 4.3 1.9 1 3.8 2.1 5.7 3.1 5.7 2.5 11.5 5.3 17.3 8.2zM209.2 257.5c-4.9-3.5-7.5-5.4-10.1-7.3-11.8-8.3-22.1-7.3-32.9 2.4-7.7 7-16.1 13.3-24.1 19.9-1 0.9-1.8 2-2.7 3.1 0.2 0.7 0.5 1.5 0.7 2.2 5-1.1 10-2.3 15-3.4 2.3 11.5 7 13.4 16.5 7.2 1.4-0.9 2.6-2.3 4-3.3 4.9-3.2 9.9-6.3 14.9-9.4 5.8-3.5 11.6-7 18.7-11.4zM556.3 351c6.5-14.2-4.2-26.7-6.7-40.3-0.1-0.6-0.9-1.2-1.5-1.6-6.3-4.9-12.1-10.6-19-14.4-8.7-4.7-17.6-8.4-19.1-19.9-0.1-0.9-2.6-1.5-4-2.2-0.6 1.2-1.8 2.6-1.6 3.7 1.2 8.8 1.3 18.1 10.4 23.5 4.7 2.8 9.2 5.9 13.6 9.2 1.3 1 3.1 3.4 2.8 4.3-4.7 10.1 3.3 14.1 8.8 19.6 5.5 5.5 10.6 11.8 16.3 18.1z m-60.2-111.8c1.1 9.4 6.7 11.1 12.7 12.3 6.7 1.3 12.1 3.2 13.4 11.6 0.7 4.3 3.5 9.3 7 12 7.4 5.6 16 9.7 16.2 21.5 5.9-4.1 6-8.5 3.3-12.9-4.8-7.8-9.5-15.8-15.2-23-9.2-11.5-22.8-15.9-37.4-21.5zM596.7 357c-1.2 0.9-1.8 1.1-1.9 1.5-2.4 8.1-0.8 11.2 7 14.2 5.7 2.2 11.4 4.4 17.1 6.5 0.3-0.8 0.7-1.5 1-2.3-4.6-9.8-15.3-13-23.2-19.9zM468.1 244.1c-0.3-1.1-0.2-2.4-0.7-2.8-6.5-4.5-12.9-9-19.8-12.8-0.7-0.4-5.4 3.6-5.8 6-0.5 2.6 1.8 5.8 3.3 9.7 8-11.3 14.9 3.7 23-0.1z m108.3 172.1c0.5-6 1.3-9.3 0.8-12.4-0.4-2.3-2-4.7-3.8-6.3-0.8-0.7-4.9 0.5-4.9 0.8 0.1 3.9 0 7.9 1.3 11.5 0.8 2.3 3.8 3.8 6.6 6.4zM418.6 185c3.5 3.2 5.9 5.6 8.7 7.5 0.3 0.2 2.6-2.5 4-3.9-2.5-2.3-4.9-4.8-7.7-6.9-0.3-0.2-2.2 1.5-5 3.3z m235.3 234.4c-2.2 3-4 5.2-5.4 7.7-0.1 0.2 2.1 1.8 3.2 2.8 1.8-2.2 3.7-4.2 5.1-6.6 0.3-0.4-1.4-2-2.9-3.9z m-230-108.7c-1-0.4-1.9-0.7-2.9-1.1-2.7 3.3-6.6 6.1-1.5 12.2 1.4-3.7 2.9-7.4 4.4-11.1zM377 211.3l-1.8-3.3c-2.9 1.5-5.9 3.1-8.8 4.6 0.9 1.1 2.1 3.1 2.5 3 2.8-1.2 5.4-2.8 8.1-4.3z" p-id="7451"></path><path d="M187.4 368c6.7-3 12.5-5 17.7-7.9 6.5-3.7 12.4-4.3 18.9 0.2 3.9 2.7 8.6 4.1 12.5 6.7 3.5 2.3 5.1 4.9 0.7 8.8-3.8 3.4-6.5 8.1-9.5 12.4-0.7 1.1-1.3 3-0.8 4.1 2.6 6 5.6 11.8 8.8 18.6 1.8-1.8 4.3-3.2 5.3-5.4 11.5-25.3 23.2-50.6 34-76.2 2.6-6.1 1.8-13.6 2.7-20.5 0.2-1.9 0.3-5.1 1.1-5.3 1.9-0.5 4.5-0.2 6.2 0.9 2.4 1.6 4.7 3.8 6.2 6.3 3.3 5.8 6.3 11.8 9 18 0.8 1.8 0.9 4.6 0.1 6.3-6 12.5-12 25-18.6 37.2-5.6 10.4-11.8 20.5-16.7 32.2 1.8-0.7 3.6-1.4 5.3-2.2 12.2-6.3 24.3-12.7 36.4-19 15.5-8.1 31.4-1.8 36.4 15.3 1.5 5.1 7.6 8.8 11.3 13.3 1.9 2.3 3.2 5.1 4.8 7.7-3.3 1.3-7.2 4.3-9.9 3.5-7.3-2.1-11.7 1.6-16.9 5.2-5.9 4-12.8 6.6-18.7 10.6-2.7 1.8-3.8 5.7-5.9 8.4-1.6 2-3.4 4.1-5.6 5.5-5.9 4.1-6.2 7-2.2 12.7 7.6 11.1 20.4 11.6 31.4 15.7 5.6 2.1 11.6 2.7 17.2 4.7 7.7 2.7 14.7 6.1 17.3 15.4 2.2 7.8 6.8 15 9.9 22.6 1.1 2.7 1.2 5.8 1.5 8.7 0.5 5.2-2.8 7.1-7 5.6-7-2.4-14.1-5-20.4-8.8-12.1-7.3-23.6-15.8-35.7-23.3-11-6.8-17.5-16.6-21.8-28.3-0.6-1.7-1.6-3.3-3.2-6.6-4.9 7.6-9.3 13.8-13 20.4-6 10.5-10.9 21.7-17.8 31.6-5.2 7.4-12.1 14.1-19.5 19.3-9.1 6.5-19.8 2.9-29.6 0.5-4.3-1-8.3-3.5-12-5.9-1.8-1.1-4-4.1-3.5-5.6 0.6-2.1 3.1-4.5 5.3-5.2 5.9-1.9 12.2-2.5 18-4.4 14.3-4.7 21.6-17.6 29.7-28.6 9.1-12.4 15.5-26.7 23.3-40 4.5-7.6 5.3-15.9 2.2-23.4-1.6-3.9-7.8-8-12-8.1-3.4 0-8.9 5.3-9.9 9.2-2.2 8.3-1.8 17.3-3.2 25.9-1.9 11.4-3.4 23.2-7.6 33.8-2 4.9-9.9 7.7-15.5 10.7-9.8 5.3-19.9 10.1-30 14.8-8.3 3.9-16.6 7.8-25.2 10.8-3.5 1.2-8.1 1.5-11.5 0.2-13.1-5.1-24.6-12.1-28.2-27.4-2.4-10.1-8.2-20.1-7.8-29.9 0.5-13.9 4.6-27.9 8.4-41.5 1.8-6.5 2.3-12.3 0.9-18.8-0.8-3.6-0.1-9.5 2.2-11.3 2.5-1.9 8.1-1.1 11.8 0.1 4.7 1.6 8.9 4.9 14.1 7.9 0.5-5.9 0.9-10.7 1.3-15.4-9.8-0.6-13.4-3.8-15.8-13.1-0.4-1.5-0.6-2.9-0.9-4.4-2.4-14.1-2.5-14.1 9.9-20.9 13.5-7.5 26.5-16.4 40.8-21.8 13.6-5.1 28.5-6.8 42.9-9.2 5.1-0.9 16.7 13.4 15 18.3-0.7 2-4.4 3.6-7 4.1-10.6 1.8-21.2 2.9-31.8 4.5-6.9 0.9-23.1 12.8-25.8 19.7z m-9.9 126.7c-2.1-2.7-3.8-4.5-5.1-6.5-4.1-6.5-9.4-12.6-11.7-19.6-2.4-7.5-1.9-16-2.9-24-0.2-1.8-1.6-3.4-2.4-5.1-1.7 0.8-3.6 1.3-4.9 2.5-1.4 1.3-2.7 3.2-3.1 5-1.9 8.9-4 17.9-5.2 26.9-2.7 20.9 9.9 30.8 28.8 23.2 1.8-0.6 3.4-1.2 6.5-2.4z m18.6-46.6c11-0.1 21.8-11.1 20.8-21.1-0.6-6.1-4.4-9.5-9.5-6.4-7 4.2-13.8 9.6-18.7 16.1-5.1 6.8-1.5 11.4 7.4 11.4z m24.1 23.9c-0.4-0.6-0.7-1.2-1.1-1.7-11.5-2.5-23-5-36.2-7.9 2.2 7.5 4.2 13.1 5.5 18.7 1.4 6.3 4 8.5 9.7 5.3 7.6-4.2 14.7-9.5 22.1-14.4z m93.7-58.3c-0.6-0.7-1.1-1.4-1.7-2.1-9.5-0.7-17.1 3.9-23.7 10-1.3 1.2-1.6 5.7-0.6 6.6 1.9 1.7 6.5 3.4 7.7 2.4 6.5-5.2 12.3-11.2 18.3-16.9z m-134.3 8.5c-5.6-3.8-11-8.1-16.7 0.1-0.7 1-3.2 0.8-4.7 1.4-1.7 0.7-3.3 1.7-4.9 2.5 1.1 1.8 1.7 4.1 3.3 5.2 6.8 4.9 15.3 1.5 23-9.2z m57.1 23.4c1.1 0.2 2.2 0.4 3.3 0.5 1.2-4.4 4.7-9.9 3.2-12.8-2-3.7-8-5.4-12.2-7.9-0.5 0.7-1.1 1.4-1.6 2.1 2.4 6 4.9 12.1 7.3 18.1z m-39-52.1c-0.9-1-1.8-2.1-2.7-3.1-2.4 2.1-4.9 4.1-7.3 6.2 1.1 1.1 3 3.3 3.1 3.2 2.4-2 4.7-4.2 6.9-6.3z" p-id="7452"></path><path d="M283.6 608.5c0.9 2.7 1.6 4.7 2.5 7.4 7.1-3.1 13.9-5.8 20.4-9.3 1.7-0.9 2.9-4 3.2-6.2 2.3-16.3 4.4-32.6 6.4-49 0.5-4.4-0.3-9 0.5-13.4 0.6-3.4 2.7-6.6 4.1-9.9 2.5 1.6 5.4 2.8 7.3 4.9 5.5 6.3 10.5 13 15.9 19.4 2.9 3.4 2.6 6.4-0.9 8.9-8.4 6-5.1 15.4-6.4 23.3-0.1 0.5 4.5 2.9 6.1 2.3 4.7-1.7 8-1.1 11 3.1 2.5 3.4 4.7 2.9 7.7-0.4 7-7.7 14.9-14.7 22.1-22.2 1.7-1.8 2.6-4.7 3.3-7.2 3.2-10.9 6.3-21.8 9.4-32.7 0.8 0.1 1.6 0.3 2.3 0.4-2.3 11.1-4.6 22.3-7.2 35.1 9.7-5 17.4-8.7 24.9-12.9 1.4-0.8 2.5-3.1 2.8-4.9 1-6.1 1.8-12.3 2.5-18.5 1.4-12.8 0.1-14.3-12.1-15.4 3.3-5.6 8.5-7.7 13.1-4.2 7.5 5.7 14.7 12 21.5 18.4 3.7 3.5 4.6 7.6-0.6 11.3-1.7 1.2-2.3 4-3.9 7.1 11.7-2.6 21.5-5.3 30.6 1.5 0.7-0.8 1.1-1.2 1.2-1.6 1.4-3.7 2.7-7.4 4.1-11.1 3.9 2.2 8.7 3.5 11.7 6.6 10.3 10.6 13.7 27.6 8.4 37.9-2.9 5.5-7 6-10.8 1.3-3.7-4.6-7.2-9.4-10.9-14.1-0.7-0.9-2-1.6-3.1-1.7-5.9-0.7-11.9-1.7-17.8-1.7-2.3 0-4.7 2.6-7 4 1.7 1.8 3.1 4 5 5.5 8 5.8 16.4 11.1 24.3 17.2 4.3 3.3 5.3 7.7 2.9 13.3-3.7 9.1-6.5 18.7-9.4 28.1-1.7 5.5 0.6 7.3 6.2 6.4 5.9-0.9 12-2.2 17.8-1.7 6.2 0.5 12.4 2.7 18.4 4.8 1.3 0.5 2.4 3.7 2.3 5.6-0.1 1.4-2.2 3.4-3.7 3.9-2.5 0.7-5.4 0.4-8.1 0.5-11.4 0.4-22.9 0.7-36.3 1.2 4.3 7.4 7.6 12.3 10 17.6 1.1 2.4 1.5 7.1 0.2 8.1-10.2 7.5-8 18.3-6.5 27.5 3 17.8 0.9 35.4-0.3 53-0.2 3-4.8 7.9-7.7 8.2-21.3 2.1-40.8-1.1-59.3-14.5-13.3-9.6-20.1-22.6-26.8-36-2.4-4.9-0.4-12-0.4-16.7-4.9 1.3-10.9 3.5-17.2 4.5-5.5 0.9-12.1-5.1-13.5-11.5-1.2-5.6 3.4-6.8 7-9 4.3-2.6 8.3-5.9 13.9-10-1.1 3.4-1.6 4.9-2.7 8.1 7.5-3.7 13.8-6.7 20.6-10-4.3-9.6-8.6-18.6-12.3-27.7-0.8-2-0.5-5 0.3-7 5.9-14.1 12.5-28 12.7-43.7 0-1.4-0.6-2.8-1.2-5.2-8.9 5.4-17.3 9.8-20.1 20.3-0.6 2.1-2.1 4.6-3.9 5.6-6.7 3.7-14.2 6.2-20.6 10.5-4.3 2.8-9.6 7.4-10.3 11.9-1.9 12.9-1.8 26-2.4 39.1 0.9 0.3 1.9 0.5 2.8 0.8 5.1-8.8 10.1-17.6 15.2-26.4 0.7 0.2 1.3 0.3 2 0.5-2.5 9.3-4.3 18.8-7.5 27.8-7.3 20.4-15.1 40.5-8.8 62.8 0.7 2.4-0.6 5.4-1 8.2-2.7-0.9-5.9-1.1-8.1-2.8-4.5-3.5-10.6-7.1-12.1-11.9-2.3-7.1-1.4-15.2-1.4-22.9 0-3.6 1.6-7.2 1.6-10.8 0.1-11.7-0.6-23.3-0.4-35 0.3-24.8-0.4-22-20.6-15.8-10.6 3.2-13.8 1.4-16.1-11.3-2.7-13.2 0.4-19.7 13.2-27.6z m119 66.7c0.2 0.9 0.4 1.7 0.5 2.6 1.9 0.3 3.8 0.4 5.6 0.8 15.7 3.7 25.9 5.6 27.2 25.7 0.2 2.9-1.6 7.4-3.9 8.7-2.2 1.3-7.1 0.7-9.4-1.1-7.1-5.3-13.3-11.7-20.2-17.4-1.9-1.6-5.7-3.7-6.9-3-3.6 2.3-8.9 5.8-8.9 9-0.3 12.3 4 26.5 19.1 31.9 4.9 1.7 10.3 2.2 14.9 4.3 12.5 5.6 27.7-1.5 27.4-16.5-0.2-10.2 1.4-20.4 1.5-30.6 0.1-8.4-0.4-16.9-1.3-25.3-0.6-6.3-4.1-8.7-10.4-5.7-11.5 5.5-23.4 11-35.2 16.6z m-6.6-35.9l-2.4 0.9c-0.5 6.2-1.2 12.5-1.1 18.7 0 1 3.8 3.4 4.6 2.9 3.3-1.9 9.2-6 8.8-7-2.5-5.5-6.4-10.3-9.9-15.5z m56.2-46.1c0.3-2.5 0.7-3.9 0.7-5.4 0-3.1 1.1-7.9-4-6.7-5.1 1.2-12.4 0-13.8 7.6-0.2 1.2 2.8 3.9 4.6 4.3 3.9 0.7 7.9 0.2 12.5 0.2z m-5.5 24.7c-0.9-0.8-1.7-1.7-2.6-2.5-3.4 1.8-7.2 3.1-10 5.5-1.2 1-0.4 4.3-0.6 6.6 2 0 4.8 0.9 5.8-0.1 2.8-2.7 5-6.2 7.4-9.5z m-39.6 4.2c-1.1 1.2-2.2 2.5-3.3 3.7 2.4 2.3 4.8 4.6 7.2 6.8 1.3-1.8 2.6-3.6 3.8-5.5-2.6-1.6-5.1-3.3-7.7-5z m-0.7-41c1.4 0.8 2.9 1.7 4.3 2.5 1.6-3.3 3.2-6.6 4.6-10 0.1-0.2-3.1-1.9-3.1-1.8-2.1 3-4 6.1-5.8 9.3zM641.7 716.7c-10.1-5.5-20.2-11.1-32.2-17.6 0.8 3.9 0.9 5.4 1.4 6.9 5.5 15 11 30 16.8 44.9 2.2 5.8 4.4 11.8 12 13 1.2 0.2 1.9 3.6 3.4 6.5h-48.4c-1.8-4.7-0.4-6.4 4.4-6.9 8-0.8 10.1-3.7 7.7-11.5-4.9-16.5-10.4-32.8-15.5-49.3-1.3-4.3-3.5-6-8.2-5-19.1 3.9-35 11.6-41.1 32.2-2 6.9-5 13.6-6.9 20.5-2.6 9.4-0.6 11.9 9.1 13.5 2.1 0.4 3.9 2.8 5.8 4.2-0.4 0.8-0.9 1.6-1.3 2.3-15.1 0-30.2 0.1-45.3-0.2-0.9 0-1.7-2.6-3.5-5.6 17.2-0.2 20.4-13.4 25-24.8 14-35 28-70 41.3-105.2 2.8-7.4 7.8-5.2 12.6-5.7 4.7-0.6 7.1 1.2 8.5 5.9 5.4 17.1 11.1 34.2 17.2 51.1 1.1 3.1 4 6.3 7 7.7 11.7 5.6 21.3 13.8 30.2 23.1z m-55.3-29c-3.7-11.7-7.8-24.2-12.4-38.6-7.4 19-14.1 36-20.5 52.5 10.6-4.5 21.2-9 32.9-13.9zM795.8 648.4c12.7 0.9 26.4-0.2 38.8 3.2 13.6 3.8 16.2 24.5 6 36.1-1.7 2-4.3 3.2-7.9 5.7 13.8 4.6 19.2 12.7 18.9 24.5-0.4 14.8-9.7 25.2-24.5 26.1-10.9 0.6-21.9 0-32.9-0.2-0.8 0-1.5-0.9-3.3-2 10.4-3.5 10.5-11.7 10.6-19.5 0.5-19.7 0.9-39.4 0.5-59.1 0-4.3-3.5-8.6-6.2-14.8z m15.7 49.4c0 12.1-0.1 23 0.1 34 0 1.4 1.1 3.4 2.2 4.1 7 4.3 19.7 1.2 24.2-5.7 9.3-14.6 0.7-31.5-16.5-32.3-2.9-0.2-5.9-0.1-10-0.1z m0.3-5.5c6.2-0.6 12.2-0.1 17.2-2.1 6.6-2.6 9.2-16.6 5.8-25.1-3.1-7.5-10.6-11.2-19.1-8.7-1.6 0.5-3.6 3.2-3.7 4.9-0.4 9.7-0.2 19.4-0.2 31zM919.8 669.5c-5.7-19.4-21.4-10.9-34.6-13.8 0 10.7-0.1 20.3 0.1 29.9 0 1 0.9 2.3 1.7 2.9 8.4 5.6 22.2 3.1 29.1-4.8-0.4 7.4-0.7 14.9-1.3 22.3-0.1 0.8-2 1.9-3.3 2.1-0.7 0.1-2.3-1.5-2.3-2.2 0.6-8.3-5.3-7.7-10.5-7.9-4.2-0.2-8.4 0-13.5 0 0 12-0.1 23.4 0.2 34.8 0 1.2 3 3.2 4.6 3.3 6 0.3 12 0 17.9-0.2 5.8-0.3 9.7-3.4 12-8.7 0.8-2 1.8-3.9 2.7-5.8 0.9 0.2 1.9 0.4 2.8 0.7-1.4 7.1-2.8 14.1-4.2 21h-57.1c10.9-3.8 10.4-13 10.6-21.1 0.6-19.5 1-39 0.5-58.4-0.1-4.5-4-8.9-6.2-13.5h50.8v19.4zM983.8 742.7h-29.3c13.2-3.7 9.4-14.2 9.5-22.8 0.2-20.9 0.1-41.9 0.1-64.5-6.7 0.8-12.7 0.1-16.9 2.5-3.8 2.2-5.7 7.9-9.7 12.1 0.5-6.9 1-13.7 1.5-20.7h62v20.1c-3.2-4.1-5.4-9.6-9.5-11.8-4.1-2.3-10-1.5-15.5-2.1-0.4 2.7-0.8 4.3-0.8 6 0 20-0.3 39.9 0.1 59.9 0.2 7.7-2.7 17.2 10.5 19.7-0.7 0.6-1.3 1.1-2 1.6zM740.9 737.6c13.3 0 27.1 4 34.4-13.6 2.7 13.4-2.4 20-13.1 19.9-11.7-0.1-23.5 0-35.2 0-2.3 0-4.6 0-7.2-0.8 8.1-3.9 8.7-11.2 8.8-18 0.2-20 0-39.9-0.4-59.9-0.1-5.8 0.8-12.8-9.7-12.8 0.6-0.6 1.2-1.2 1.8-1.9h22.6c-0.7 6.1-1.8 11.6-1.8 17.1-0.3 23-0.2 45.9-0.2 70zM666.2 737.8c13.4-1 27.9 4.8 34.8-12.5 4.3 8.1-1.5 18.8-9.2 18.7l-42.6-0.3c-0.2 0-0.4-0.3-1.1-0.8 8.2-7.2 7.2-17.1 7.2-26.6 0-16.7-0.1-33.4-0.5-50.2-0.1-5.7 0.7-12.1-6.3-15.7h25.9c-9.8 3.1-8 11.3-8.1 18.2-0.2 22.7-0.1 45.3-0.1 69.2zM692.1 761.8c86.8 35.2 173.3 36.8 258.6 0.5-58.7 44.4-196.5 42.8-258.6-0.5-0.1-0.1 0.2-0.7 0 0zM746.1 402.7c-8.5-8.3-16-15.8-28.9-16.1-13.4-0.4-19.9 6.3-24.6 18.3-2.9-10.6 4.5-20.5 13.5-20.3 6 0.1 12 0.3 17.9 0.5 9.4 0.3 20 8.4 22.1 17.6zM169.8 834.6c-3.8-2.2-7.1-4.1-10.4-5.9 3.6-1.4 7.2-3.8 10.8-3.7 3.2 0.1 6.4 2.9 9.6 4.5-3.1 1.5-6.1 3-10 5.1zM284.3 192.1c-8.3-7.9-7.8-14.2 0-18.1v18.1zM304.3 175.9c-1.3-2.6-3.3-5-3.6-7.7-0.1-1.1 3.5-2.6 5.4-3.9 0.7 3.4 1.4 6.7 2.1 10.1-1.4 0.5-2.7 1-3.9 1.5zM389.8 184.1c-2.5-4.3-4.9-8.6-7.4-12.9 0.7-0.4 1.4-0.8 2.2-1.2 3.2 3.9 9.2 6.3 7.9 12.8-0.9 0.4-1.8 0.9-2.7 1.3z" p-id="7453"></path></svg>