<?xml version="1.0" standalone="no"?><!DOCTYPE svg PUBLIC "-//W3C//DTD SVG 1.1//EN" "http://www.w3.org/Graphics/SVG/1.1/DTD/svg11.dtd"><svg t="1574847101463" class="icon" viewBox="0 0 1024 1024" version="1.1" xmlns="http://www.w3.org/2000/svg" p-id="2857" xmlns:xlink="http://www.w3.org/1999/xlink" width="200" height="200"><defs><style type="text/css"></style></defs><path d="M449.3 599c-0.7-0.1-1.3-0.3-2-0.3-37.4-1.8-71.7-12.8-102.4-34.5-24.9-17.6-44.5-40-58.5-67.1-7.1-13.8-11.8-28.6-14.5-43.9-0.6-3.4-1.1-6.8-1.6-10.1-0.1-0.5-0.1-1.1 0.1-1.7 0.3 0.3 0.5 0.7 0.8 1 16.9 24.6 37.5 45.5 61.3 63.4 25.2 19 52.8 33.6 82.3 44.8 20.9 7.9 42.3 14 64.3 18.1 12.6 2.3 25.2 4 38 5 11.6 0.9 23.3 1.1 34.9 0.9 3-0.1 6-0.3 9.2-0.1-0.3 0.2-0.5 0.4-0.8 0.6-20.3 9.3-41.3 16.3-63.2 20.2-10.2 1.8-20.4 3.1-30.8 3.5-0.6 0-1.2 0.2-1.8 0.3-5.3-0.1-10.3-0.1-15.3-0.1zM759 409.5c-0.1 0.4-0.3 0.9-0.3 1.3-0.9 18.2-5.4 35.6-12.9 52.2-9.1 20.1-22.3 37.1-38.7 51.7-15.7 13.9-33.3 24.8-52.4 33.3-17.8 7.9-36.3 13.4-55.3 17.1-4.4 0.8-8.9 1.5-13.3 2.3-0.2 0-0.4 0-0.7-0.1 23.1-13.1 44.4-28.6 63.3-47.3 19-18.7 35-39.6 48.2-62.7 13.1-23.1 22.9-47.5 29.3-73.2 6.4-25.8 9.1-52 7.6-79 0.4 0.6 0.7 0.8 0.9 1.2 10.7 20 18.3 41.1 22.1 63.6 1 6.1 1.9 12.2 2.1 18.4 0 0.5 0.2 1 0.3 1.5-0.2 6.5-0.2 13.1-0.2 19.7z" p-id="2858"></path><path d="M540.2 570.4c-8.9 0-19.7-0.5-30.5-1.6-23.2-2.3-45.9-6.9-68.2-13.6-30.1-9.1-58.7-21.6-85.3-38.3-24.7-15.5-46.9-34.1-65.8-56.4-7.3-8.6-14-17.7-20.1-27.3-0.8-1.2-1.1-2.4-1.2-3.8-0.5-8.3-0.4-16.7 0.2-25 0.8-12.4 2.7-24.7 5.5-36.9 8.7-37.2 24.9-70.8 47.6-101.4 23.1-31.2 51.5-56.7 84.7-76.9 23.5-14.3 48.3-25.7 74.7-33.7 2.4-0.7 4.7-0.7 7.1-0.4 28.1 3.2 55.5 9.5 82.3 18.7 28.7 9.9 55.6 23.1 80.5 40.5 25.4 17.8 47.6 39 65.7 64.2 3.6 5 6.9 10.3 10.4 15.5 0.8 1.1 1.1 2.3 1.2 3.7 0.7 8.3 1.1 16.6 0.9 25-0.1 8.6-0.7 17.1-1.6 25.6-1.7 14.7-4.5 29.1-8.5 43.3C708 433.1 688 470 659.5 502.4c-19.1 21.7-41.1 39.9-65.8 54.8-6.3 3.8-12.8 7.3-19.2 10.9-1 0.5-2.1 0.9-3.2 1-9.9 0.9-19.5 1.3-31.1 1.3z m-222-119.8h1.7l20.9 0.3c8.6 0.1 17.1 0 25.7-0.2 15.2-0.4 30.5-0.2 45.7-0.4 11.2-0.1 22.4-0.4 33.6-0.7 6.4-0.2 12.4-1.9 17.6-5.8 13.8-10.4 20.9-24.4 21.9-41.6 0.1-2.4 0.1-4.9 0.3-7.4 0.4-4.5-0.7-8.7-3-12.6-3.8-6.6-8.9-11.9-15.6-15.8-0.4-0.3-0.9-0.5-1.3-0.8-1.5-1.1-1.4-1.9 0.1-2.8 0.5-0.3 1.2-0.5 1.7-0.7 1.1-0.4 2.3-0.7 3.3-1.2 1.5-0.8 3-1.7 4.5-2.5 4.1-2.4 8.2-5 11.8-8.2 11-9.7 15.8-21.8 14-36.4-1.7-13.9-12.4-26.4-25.9-30.4-2.7-0.8-5.5-1.7-8.2-2.4-3-0.8-6-1.7-9-2-5.4-0.6-10.9-1-16.4-1-23.5-0.2-46.9-0.2-70.4-0.2-3.1 0-6.2 0-9.2 0.1-2.5 0-3.6 0.8-4.5 3.2-0.3 0.7-0.5 1.4-0.7 2.1-2.5 10.8-5.1 21.6-7.5 32.5-1.2 5.6-2.1 11.2-3.3 16.8-1.8 8.3-3.9 16.5-5.8 24.8-3.5 15-7 30.1-10.6 45.1-3.4 14-7 27.9-9.9 41.9-0.6 2-1 4.1-1.5 6.3z m266.7-64.9c1.5 0.1 2.6 0.3 3.7 0.3h50.2c2.3 0 4.5 0.2 6.8 0.8-1.8 9.5-5.9 17.5-13 23.8-3.3 2.9-6.9 5.4-10.6 7.9-3.2 2.2-6.8 3.5-10.6 4.1-5.2 0.8-10.5 1.4-15.8 2.1-3.4 0.5-6.7 0.6-10.1 0.2-3.1-0.3-6.1-0.8-9.2-1.2-2.4-0.3-4.7-1-6.8-2.1-3.5-1.8-6.9-3.9-10-6.3-10.4-8.2-15.3-19.2-15.8-32.2-0.1-3.5 0-7 0-10.4-0.1-6.2 0.3-12.4 1.6-18.6 2-9.2 6.1-17.4 11.6-25 6.4-8.8 14.6-15.4 24.6-19.5 3.6-1.5 7.3-2.6 11-3.8 7.1-2.2 14.5-2.6 21.8-1.9 2 0.2 4.1 0.4 5.8 1.2 4.1 2.1 8.2 4.3 12 7 7.3 5.1 12.5 11.8 14.4 20.7 0.3 1.3 1.2 1.9 2.3 2.2 0.6 0.2 1.2 0.2 1.9 0.2 10.8 0.1 21.7 0.1 32.5 0.1 0.7 0 1.5 0 2.2-0.2 1.2-0.3 1.8-1.1 1.9-2.3 0-0.8 0-1.7-0.2-2.6-0.3-1.7-0.6-3.4-0.9-5-1.2-5.9-3-11.6-6.2-16.8-3.4-5.5-7.5-10.4-12.4-14.6-14.9-12.9-32.5-18.8-52-19.5-6.6-0.2-13.1 0.2-19.6 1-5.9 0.8-11.9 1.6-17.6 3.6-5.9 2.1-11.6 4.4-17.4 6.6-4.2 1.7-8.2 3.8-11.9 6.3-15.7 10.8-26.8 25.4-34.8 42.5-2.8 6-4.4 12.5-6.1 18.9-2.4 9-3.7 18.1-3.4 27.4l0.3 10.8c0 1.1 0.2 2.2 0.4 3.2 0.2 1.1 0.4 2.2 0.6 3.4l0.3 2.7c0.1 0.8 0.3 1.7 0.6 2.5 2.4 4.9 4.5 9.9 7.2 14.6 5.9 10.2 14.2 18.1 24.5 23.9 9.7 5.5 20 9.1 31 10.9 6 1 12.1 1.4 18.3 1 4.4-0.3 8.8-0.8 13.1-0.9 11-0.4 21.6-2.6 32.1-5.8 12.6-3.9 23-10.9 31.6-20.8 4.5-5.3 8.2-11.1 11.2-17.3 3.6-7.5 7.1-15.1 9.1-23.2 1.4-5.5 2.4-11.1 3.6-16.7 0.5-2.3 0.8-4.6 1.4-6.9 0.5-2-1.2-4.1-3.2-3.8-1.4 0.2-2.7 0.1-4.1 0.1H594.9c-3 0-3.8 0.7-4.5 3.6-0.1 0.4-0.2 0.9-0.3 1.3-1 4.3-2 8.5-3 12.8-0.7 3-1.4 6.2-2.2 9.7z" p-id="2859"></path><path d="M264.2 421.8c-0.4-0.6-0.5-0.9-0.7-1.2-2.2-4-4.4-8-6.5-12.1-5.8-10.9-9.7-22.5-13-34.4-4.1-14.9-6.3-30.2-6.3-45.7-0.2-29.5 6.3-57.4 20.8-83.2 10.7-19 25.2-34.7 42.5-47.7 17.1-12.9 36-22.5 56.1-29.5 15-5.2 30.3-9 45.9-11.4 18.2-2.9 36.4-4 54.8-3.6 4.7 0.1 9.4 0.4 14.1 0.9-0.4 0.2-0.8 0.4-1.2 0.5-29.1 9.9-56.2 23.6-81.4 41-48.1 33.2-83.6 76.7-106.1 130.7-7.5 17.9-12.8 36.5-15.9 55.7-2.1 12.8-3.2 25.6-3.1 38.5 0.1 0.4 0.1 0.7 0 1.5zM497.2 151.3c3.7-0.8 7.3-1.6 11-2.4 9.8-1.9 19.7-3.4 29.7-4.1 9.8-0.8 19.6-1 29.4-0.5 10.6 0.5 21 1.7 31.4 3.8 13.3 2.6 26.2 6.6 38.4 12.6 2.4 1.2 4.9 2.3 7.3 3.4 30.1 14.5 52 37 66.5 66.9 7.3 15.1 12.2 31.1 15.2 47.6 0.4 2 0.7 4 0.8 6.1-0.3-0.3-0.6-0.7-0.8-1-20.5-30.6-46.5-55.7-77.1-76.3-25-16.8-52-29.6-80.6-39.1-19.1-6.3-38.5-11.3-58.4-14.7-4-0.7-8-1.2-12-1.8-0.3 0-0.5-0.1-0.8-0.2 0.1-0.1 0-0.2 0-0.3zM733 294.4c-1.1-7.1-2.2-14.2-3.4-21.8 0.7 1.8 1.4 3.1 1.6 4.7 0.7 5.5 1.4 11.1 2.1 16.6v0.5h-0.3z" p-id="2860"></path><path d="M389.6 424.9h16.1c6.9 0 13.8-0.3 20.6-1.7 3.3-0.7 6.6-1.4 9.6-2.9 4-2 7.1-4.9 10-8.2 2.8-3.3 4.5-7 4.9-11.3 0.7-8-1.9-14.5-8.9-18.8-2.9-1.8-6-2.9-9.4-3.7-5-1.1-10.1-1.3-15.2-1.4-12.6-0.1-25.1-0.1-37.7-0.1-2.3 0-4.6 0-6.9 0.1-2.2 0.1-3 0.7-3.6 2.7-0.3 0.9-0.6 1.9-0.8 2.8-2.8 11.8-5.5 23.5-8.2 35.3-0.3 1.4-0.6 2.9-0.7 4.4-0.1 1.8 0.4 2.3 2.2 2.6 0.9 0.1 1.8 0.2 2.7 0.2h25.3z m-12.5-76.6c1-0.1 1.7-0.2 2.5-0.2 1.5-0.1 3.1-0.3 4.6-0.3 14.5-0.2 29-0.4 43.5-0.7 3.8-0.1 7.6-0.1 11.3-0.7 9.9-1.7 17.6-6.8 22.1-16 1.3-2.7 1.9-5.5 1.3-8.5-1-5.5-3.9-9.6-8.8-12.1-5.3-2.8-11.1-3.8-17-3.8-14.2-0.1-28.3-0.1-42.5-0.2-0.9 0-1.8 0.1-2.7 0.1-2.6 0.2-4.2 1.6-5 4-0.2 0.7-0.4 1.4-0.5 2.2-0.4 2-0.7 4-1.2 6-2.4 9.5-4.8 18.9-7.1 28.4-0.2 0.6-0.3 1.1-0.5 1.8z" p-id="2861"></path><path d="M389.6 424.9h-25.2c-0.9 0-1.8 0-2.7-0.2-1.8-0.3-2.3-0.8-2.2-2.6 0.1-1.5 0.4-2.9 0.7-4.4 2.7-11.8 5.5-23.6 8.2-35.3 0.2-0.9 0.5-1.9 0.8-2.8 0.7-2 1.5-2.7 3.6-2.7 2.3-0.1 4.6-0.1 6.9-0.1 12.6 0 25.1 0 37.7 0.1 5.1 0 10.2 0.3 15.2 1.4 3.3 0.7 6.5 1.9 9.4 3.7 7.1 4.3 9.6 10.8 8.9 18.8-0.4 4.3-2.1 8-4.9 11.3-2.9 3.3-6 6.3-10 8.2-3 1.5-6.3 2.2-9.6 2.9-6.8 1.4-13.7 1.7-20.6 1.7h-16.2zM377.1 348.3c0.2-0.7 0.3-1.2 0.4-1.8 2.4-9.5 4.8-18.9 7.1-28.4 0.5-2 0.8-4 1.2-6 0.1-0.7 0.3-1.5 0.5-2.2 0.8-2.4 2.4-3.8 5-4 0.9-0.1 1.8-0.2 2.7-0.1 14.2 0 28.3 0.1 42.5 0.2 5.9 0 11.7 1 17 3.8 4.9 2.6 7.8 6.7 8.8 12.1 0.5 3 0 5.8-1.3 8.5-4.6 9.2-12.2 14.3-22.1 16-3.7 0.6-7.5 0.7-11.3 0.7-14.5 0.3-29 0.4-43.5 0.7-1.5 0-3.1 0.2-4.6 0.3-0.6 0.1-1.4 0.2-2.4 0.2z" p-id="2862"></path><path d="M246 698.7c-1.5-0.1-2.4-0.2-3.3-0.2-12.8 0-25.5 0-38.3 0.1-3 0-4.9-1-6.3-3.7-3.4-6.5-7-12.9-10.5-19.3-1.7-3.1-0.9-4.3 2.8-4.3 22.2 0 44.3 0 66.5 0.1 3.4 0 5.6-0.9 7.3-4 4.5-8.2 9.3-16.3 13.9-24.4 1.1-2 2.7-2.6 5-2.6 10.2 0.1 20.5 0.1 30.7 0.1 4.5 0 5.5 2 3.2 6.2-3.9 6.9-7.9 13.7-11.9 20.6-0.6 1-1.1 2.1-1.9 3.7 1.7 0.2 2.8 0.4 3.9 0.4 16.9 0 33.7 0.1 50.6-0.1 3.3 0 5.4 1.1 7 4 3.3 6.1 6.7 12.2 10.1 18.3 1.9 3.5 0.9 5.1-3.1 5.1-26.7 0-53.5 0-80.2-0.1-2.9 0-4.7 0.9-6 3.6-1.1 2.4-2.8 4.5-4 6.8-0.5 0.9-0.8 2.1-0.5 2.9 0.1 0.4 1.7 0.6 2.6 0.6 7.7 0 15.4 0 23.1-0.2 2.8 0 4.7 0.9 6.2 3.4 11.7 18.7 23.4 37.2 35.2 55.8 8.7 13.7 17.5 27.4 26.1 41.1 0.7 1.1 1.3 3 0.8 3.9-0.4 0.9-2.4 1.3-3.7 1.3-10.5 0.1-21 0-31.4 0.1-3.2 0-5.3-1.1-7-3.9-14.7-23.4-29.5-46.7-44.3-70.1-3.9-6.2-7.8-12.4-11.6-18.7-1.9-3.1-2.9-3.1-4.7 0.1l-47.1 84.3c-0.9 1.6-1.8 3.1-2.7 4.7-1.3 2.4-3.3 3.6-6.1 3.6-10.6-0.1-21.2 0-31.8 0-3.2 0-4.2-1.8-2.6-4.8 5.7-10 11.4-20 17.1-30.1 11.7-20.8 23.4-41.7 35.1-62.5 3.7-6.5 7.4-12.9 11.1-19.4 0.2-0.6 0.3-1.2 0.7-2.4zM462.7 910.9c1-1.4 1.9-2.3 2.5-3.4 6.4-12.5 12.8-25 19.1-37.6 4.6-9.2 11.8-13.7 22.2-12.5 6.4 0.8 11.3 4.4 14.3 9.9 7 13 13.5 26.3 20.3 39.4 1.1 2.1 2.4 4.2 3.6 6.3 0.4-0.1 0.8-0.2 1.1-0.3 0.1-1 0.4-1.9 0.4-2.9-0.1-15.6-0.2-31.3-0.2-46.9 0-4 1.2-5.1 5.2-5.1 2.2 0 4.3-0.1 6.5 0 3.8 0.3 7.3 1.4 9.8 4.6 7.2 8.9 14.5 17.6 21.7 26.6 1.9 2.4 3.2 2.4 5.1 0.1 6.9-8.5 13.8-17 20.8-25.4 4.4-5.3 13.8-8.1 20-5.4 1.3 0.5 2.3 3.2 2.3 4.9 0.2 12.9 0.1 25.7 0.1 38.6 0 4 0 7.9 0.1 11.9 0.1 3.1-1.2 4.6-4.4 4.7-9.5 0.3-9.7 0.3-9.6-9.3l0.3-31c0-0.6-0.2-1.1-0.5-2.4-1.2 1-2.2 1.6-2.8 2.4-7 8.4-13.9 16.9-21 25.3-4 4.8-11.7 4.6-15.7-0.3-6.9-8.3-13.8-16.7-20.6-25.1-0.7-0.8-1-2-1.4-2.9-0.5 0.3-1.1 0.7-1.6 1-0.1 1-0.3 1.9-0.3 2.9 0 11.4 0.1 22.9 0.1 34.3 0 4.2-1 5.2-5.1 5.2h-19.1c-2.5 0-4.4-0.9-5.5-3.3-1.3-2.8-2.6-5.7-4.4-8.2-1-1.4-3.1-2.9-4.7-3-11.8-0.3-23.6-0.1-35.4-0.2-2.4 0-4 0.9-5.1 3.2-1.2 2.7-3 5.2-4.2 7.9-1.3 2.7-3.3 3.5-6.1 3.5-19.5-0.1-39 0-58.5-0.1-6.6 0-13.2-1-18-5.9-2.9-3-5.8-6.8-6.8-10.7-2.8-10.2-2.9-20.7 1.4-30.7 2.7-6.3 7.8-9.8 14.1-11.4 4.3-1.1 8.8-1.6 13.2-1.7 13.4-0.2 26.7-0.1 40.1-0.1 4.9 0 5.6 0.8 5.6 5.7 0 8.4 0 8.4-8.2 8.4h-37.6c-2.3 0-4.6 0.1-6.8 0.5-4.8 1-8.2 3.7-8.5 8.9-0.3 4.3-0.6 8.6-0.1 12.9 0.7 6.9 4.2 10.2 11.2 10.3 11.1 0.3 22.2 0.1 33.2 0.1 2.7 0 3.5-1.3 3.4-3.9-0.2-3.7-0.1-7.5-0.1-11.2 0-4.2 1-5.2 5.1-5.2 9.3-0.2 9.4-0.2 9.3 9.2 0 5.3-0.1 10.6-0.1 15.9-0.5 0.2-0.3 0.5 0.3 1.5z m53.7-19.9c0.2-0.4 0.5-0.8 0.7-1.2-3.2-5.9-6.1-12.1-9.8-17.7-2.6-3.9-7.1-2.7-9.7 2-2.4 4.4-4.7 8.9-7.1 13.3-1.5 2.8-1 3.6 2.3 3.6 4.8 0.1 9.6 0 14.4 0h9.2zM697.2 640.6c2.1-0.1 3.4-0.2 4.7-0.2 6.6 0 13.3 0.6 19.8-0.2 6.9-0.8 11.1 1.9 14 7.5 2.2 4.4 5.5 6.3 10.5 5.6 2.5-0.4 5-0.1 7.6-0.1 3.1 0 4.1 1.6 3.4 4.4-1 4.3-2 8.7-3 13-0.7 3.2-2.6 4.6-5.9 4.5-6.1-0.2-12.3 0.1-18.4-0.2-3.2-0.2-4.7 1.1-5.3 4-1 5.3-2.1 10.6-3.2 15.9-0.6 2.9 1 3.5 3.5 3.5 9.6-0.1 19.3-0.1 28.9-0.1 5.6 0 6.2 1 5 6.4-1.5 7-2.7 14.2-4 21.3-2.4 13.4-4.8 26.7-7.2 40.1-1.3 7-2.6 13.9-3.8 20.9-0.6 3.7-2.7 4.9-6.3 4.8-5.4-0.2-10.8 0-16.2 0-3.6 0-4.8-1.4-4.2-4.9 3.7-20.5 7.4-40.9 11.1-61.4 0.1-0.8 0.4-1.6 0.7-2.4 0.9-2.3-0.1-3.2-2.3-3.2h-0.4c-2.8 0.1-6.2-0.8-8.1 0.5-1.7 1.1-1.9 4.7-2.4 7.3-3.2 16.3-6.2 32.6-9.3 48.9-0.7 3.8-1.5 7.5-2.2 11.3-0.5 2.6-2.1 3.8-4.5 3.8-6.1 0.1-12.3 0.1-18.4 0-3.2-0.1-4.2-1.6-3.7-4.8 3.9-20.2 7.7-40.4 11.6-60.5l9-47.4c0.5-2.6-0.1-4.1-3-3.8-3 0.2-4.9-1.2-6.4-3.8-2.5-4.4-5.3-8.6-7.7-13-0.6-1.1-1.2-2.8-0.9-3.8 0.2-0.7 2.2-1.2 3.4-1.2 5.5-0.1 11.1 0.1 16.6 0 1 0 2-0.5 2.9-0.7-0.4-0.9-0.6-2-1.2-2.8-0.9-1.4-2.3-2.5-3.1-4-0.5-1.5-0.9-3.2-1.6-5.2z" p-id="2863"></path><path d="M726 818.3h-87c-4.4 0-5.5-1.2-4.7-5.4l11.4-57.3c1.9-9.8 3.1-19.8 5.8-29.3 1.9-7-0.1-12.2-3.5-17.8-3.8-6.1-7.3-12.4-10.8-18.7-1.7-3-0.7-4.9 2.8-4.9 6.9-0.1 13.7-0.2 20.6 0.1 1.8 0.1 4.3 1.5 5.2 3 5.7 9.5 11.1 19.1 16.3 28.9 0.8 1.6 0.7 4 0.3 5.9-4 21-8 42-12.1 63-0.5 2.8-1.3 5.6-1.9 8.4-0.7 3.1 0.6 4.3 3.6 4.1 1.9-0.1 3.9 0 5.8 0H819c4 0 4.8 1 3.7 4.7-1 3.3-1.9 6.7-2.9 10-1.2 4.2-2.7 5.3-6.9 5.3H726z" p-id="2864"></path><path d="M777.8 791.7h-21.7c-4 0-4.9-1.2-4-5.1 0.9-4 1.9-7.9 2.8-11.9 0.7-2.9 2.4-4.3 5.4-4.2 5.5 0.1 11.1 0 16.6 0.1 2.9 0.1 4.2-0.9 4.1-3.9-0.2-3.2-0.1-6.5 0-9.7 0.1-2.3-0.8-3.3-3.2-3.3-4.8 0.1-9.6 0-14.4 0.1-2.9 0-4.3-1.3-3.6-4.3 0.9-4 2.1-7.9 3-11.9 0.8-3.5 2.8-4.8 6.2-4.5 2.6 0.2 5.3 0 7.9 0.2 2.6 0.2 4.1-0.7 4.8-3.3 1-3.8 2-7.7 2.9-11.5 0.5-2.1-0.7-2.6-2.4-2.6H771c-4.2-0.1-4.9-1.2-3.7-5 1.2-3.8 2.2-7.6 3.2-11.4 0.6-2.5 2.1-3.5 4.7-3.5 13.8 0.1 27.7 0 41.5 0 3.4 0 4.4 1.5 3.1 4.6-4.2 9.4-8.6 18.8-12.8 28.2-0.5 1.1-0.7 2.4-1 3.6 1.2 0.3 2.4 0.8 3.6 0.8 3.2 0.1 6.5-0.1 9.7-0.1 2.8-0.1 4.1 1.3 3.3 4.1-1.2 4.3-2.5 8.5-3.8 12.8-0.8 2.7-2.6 4-5.6 4-8.9-0.1-9 0-8.9 8.8v23.8c0 4.5-1 5.4-5.6 5.3-6.9-0.3-13.9-0.2-20.9-0.2zM261.6 887.6c1.1 0.9 1.7 1.6 2.5 2.1 8.1 4.2 9 20.2-1.4 25.3-4.1 2-8.9 3.2-13.4 3.3-16.8 0.4-33.7 0.2-50.6 0.2-3.3 0-4.9-1.4-4.9-4.7v-51.2c0-3.3 1.6-4.8 4.9-4.8 15.3 0.1 30.6-0.2 45.9 0.2 5.3 0.2 10.8 1.4 15.8 3.2 10.5 3.8 11.2 20.1 2.8 24.9-0.5 0.1-0.8 0.7-1.6 1.5z m-31.1 17.8h10.1c3.2 0 6.5 0.1 9.7-0.1 3-0.2 5.5-1.5 6-4.7 0.5-3.5-1.9-5.3-4.9-6.1-2.2-0.6-4.5-0.8-6.8-0.9-9.6-0.1-19.2 0.1-28.8 0-9.2-0.1-7.6-0.2-7.8 8-0.1 2.8 1 3.9 3.8 3.8 6.2-0.1 12.4 0 18.7 0z m-0.4-24.2h9.4c3.5 0 7 0.1 10.4-0.2 2.8-0.2 4.8-2 5-4.8 0.1-2.5-1.5-4.3-4.1-4.7-1.8-0.3-3.6-0.6-5.3-0.6h-31.4c-6.1 0-6 0-6.2 6.2-0.1 3.2 1.1 4.3 4.2 4.2 6-0.2 12-0.1 18-0.1zM741.1 888v24.9c0 4.9-0.6 5.5-5.4 5.4-3.4 0-6.7 0.1-10.1-0.2-8.5-0.7-14.2-6.2-19.2-12.3-7.7-9.4-15.1-19-22.7-28.5-1.2-1.5-2.7-2.8-4.2-3.8-2.4-1.6-3.5-0.9-3.6 1.9-0.1 3 0.1 6 0.1 9v28.5c0 4.6-0.7 5.3-5.1 5.3-9.3 0-9.2 0-9.2-9.3v-45.5c0-4.9 1-6.2 5.9-5.7 5.6 0.5 11.3 0.9 16.6 2.5 6.9 2.1 11.2 8.1 15.5 13.6 6.5 8.4 12.8 16.9 19.1 25.3 0.3 0.4 0.5 0.8 0.9 1.1 1.9 1.2 3.8 2.2 5.7 3.3 0.5-2 1.3-3.9 1.3-5.9 0.1-11.5 0-23.1 0-34.6 0-4.5 1-5.5 5.6-5.4 7.9 0.1 9-1.8 8.8 8.9-0.2 7.3-0.1 14.4 0 21.5-0.1 0-0.1 0 0 0zM791.9 918.4h-22.4c-14.8 0.1-24.2-8.2-25.3-22.9-0.5-6.1-0.2-12.3 0.6-18.3 1.2-9.3 7-15.2 15.9-17.6 4.4-1.2 9-1.6 13.6-1.7 13.5-0.2 27-0.1 40.4-0.1 4.1 0 5.1 1 5.2 5.1 0.2 9 0.2 9-9 9h-38.3c-10.9 0.1-14.7 4-14.7 14.9 0 2-0.1 4.1 0.1 6.1 0.5 7.5 4.6 11.6 12 11.7 11 0.2 21.9 0 32.9 0.1 2.9 0 3.8-1.3 3.6-4-0.2-3.8-0.1-7.7-0.2-11.5-0.1-3.3 1.5-4.7 4.8-4.8 9 0 9-0.1 9 8.8V913c0 4.6-0.9 5.4-5.5 5.4h-22.7zM337.5 917.7c-9.2 0-18.5 0.5-27.7-0.1-10.4-0.8-17.2-7.3-19.1-17.3-1.7-9-2.1-18.4 1-27.4 2.5-7.4 8.1-11.6 15.3-13.4 4.4-1.1 9-1.5 13.6-1.6 13.1-0.2 26.2-0.1 39.3-0.1 4.9 0 5.6 0.7 5.6 5.7 0 8.4 0 8.4-8.5 8.4h-37.2c-1.8 0-3.6-0.1-5.4 0.3-6 1.1-9.8 3-10 9.8-0.2 5.2 0 10.5 0.5 15.7 0.4 3.7 5.2 6.9 10.3 7 11.3 0.2 22.6 0.1 33.9 0.1 2.4 0 3.1-1.2 3.1-3.4-0.1-4.1-0.1-8.2-0.1-12.3-0.1-3.1 1.3-4.6 4.5-4.7 9.2-0.3 9.2-0.3 9.2 8.9v19.8c0 4.6-0.8 5.3-5.2 5.3h-23.1v-0.7zM803.6 675c-4.3 0-8.7 0.1-13 0-2.5-0.1-3.9 1-4.1 3.5-0.1 0.7-0.2 1.4-0.4 2.1-1.2 5.8-2.1 6.5-7.9 6.4-5.5 0-11.1 0.1-16.6 0-3.9 0-4.5-1.2-3.5-5 2.9-11.4 5.7-22.8 8.5-34.3 0.2-0.7 0.2-1.4 0.4-2.1 1.3-5 1.6-5.3 6.8-5.3h17.3c3.4 0 4.5 1.3 3.8 4.6-0.3 1.6-1 3.2-1.4 4.8-0.6 2.5 0.3 3.6 2.9 3.5 8.1-0.1 16.1-0.1 24.2-0.1 1.4 0 2.9 0 4.3 0.5 2.3 0.8 3.6 1.4 1.4 4.4-2.1 2.8-2.6 6.9-3.5 10.5-1.6 6.1-2 6.6-8.3 6.5-3.7 0-7.3 0.1-10.9 0zM647.8 640.4c1.6 0 3.2 0.3 4.7 0 6.7-1.3 10.4 1.5 13.3 7.5 3.6 7.6 8.2 14.6 12.2 22 0.7 1.2 1.2 3 0.8 4.2-0.3 0.7-2.5 1-3.8 1-6.2 0.1-12.5-0.1-18.7 0.1-3.4 0.1-5.6-1.2-7.3-4.1-4.7-8.5-9.6-16.9-14.4-25.3-2.1-3.7-1.2-5.4 3.2-5.4h10z" p-id="2865"></path><path d="M272.7 888v-25.2c0-4.3 0.8-5 5.1-5 9.3 0 9.3 0 9.3 9.3v45.8c0 4.5-1 5.5-5.5 5.5-9.1 0-9.1 0-8.9-9.1 0.1-7.1 0-14.2 0-21.3zM642.5 887.9V863c0-4.3 1-5.2 5.4-5.2 8.6 0 8.6 0 8.6 8.5v46.5c0 4.7-0.7 5.5-5.4 5.6-8.7 0.1-8.6 0.1-8.6-8.4 0.1-7.4 0-14.8 0-22.1z" p-id="2866"></path></svg>