<?xml version="1.0" encoding="utf-8"?>
<!-- Generator: Adobe Illustrator 23.1.1, SVG Export Plug-In . SVG Version: 6.00 Build 0)  -->
<svg version="1.1" id="圖層_1" xmlns="http://www.w3.org/2000/svg" xmlns:xlink="http://www.w3.org/1999/xlink" x="0px" y="0px"
	 viewBox="0 0 1024 1024" style="enable-background:new 0 0 1024 1024;" xml:space="preserve">
<path d="M683.7,462.2c-7.7-14.4-16.4-27.7-22.2-42.1c-6.9-17.2-12.4-35.2-16.3-53.3c-4.4-20.3-6.4-41.1-9.5-61.7
	c-1.2-8-9.7-15.9-18.1-17c-6.8-0.9-16.1,4.4-19.5,11.6c-6,12.7-11.6,25.6-17.5,38.4c-9.3,19.9-18.1,40-28.3,59.4
	c-11,20.9-22.5,41.6-35.4,61.3c-8.7,13.3-19.8,25.1-30.3,37c-4.6,5.2-8.7,4.1-11.9-1.9c-7.3-13.6-11.3-28-14-43.3
	c-9.1-52.6-9.2-105.5-7.4-158.4c0.8-23.7,3.5-47.4,5.9-71.1c1.5-14.5-2.1-24.5-12.4-29.2c-10.7-5-21.8,0.3-28.2,12.2
	c-19.1,35.6-37.1,71.9-58.1,106.4c-28,46.2-58.4,90.9-87.8,136.2c-1.1,1.8-2.6,3.4-5.3,6.9c-2.3-6.9-4.5-12.3-5.8-18
	c-8-36.4-8.5-72.9,0.1-109.2c9.3-39.3,27.2-74.5,54-105c26.2-29.8,57.6-52.3,94.7-66.7c27.2-10.6,54.9-16.8,84.4-16.7
	c26.2,0.1,52,1.5,77,9.5c46,14.8,85.3,40,116.6,77.3c20.9,24.9,36.6,52.7,46.2,83.6c11.7,37.9,14.6,76.5,7.2,115.8
	c-11.9,64.1-43.9,115.8-96.3,154.1c-56.2,41.1-119.4,55.7-188.2,43.2c-63.8-11.6-114.9-44.3-153.7-96c-10.4-13.8-9.8-8.9-1.2-23.2
	c30.3-50.4,60.5-100.9,90.5-151.5c5.3-8.9,9.8-18.3,14.7-27.3c0.7-1.3,2-2.2,4.7-5c0.6,5,1.3,8.1,1.3,11.3
	c0.4,24.4-0.4,48.8,1.1,73.1c1.7,28,4.8,56,13.2,82.9c5.1,16.4,12.3,32.1,26.9,42.7c17.1,12.4,42.9,11.1,59.8-5.7
	c15-15,29-31.7,40.1-49.7c17.9-29,33-59.7,49.2-89.8c2.9-5.3,4.9-11.1,7.3-16.6c0.8-0.2,1.7-0.3,2.5-0.5c3.9,8.2,7.7,16.4,11.6,24.5
	c12.3,25.4,26.4,49.6,47.2,69.2C677.8,465.1,677.9,465.1,683.7,462.2z"/>
<g>
	<path d="M149.3,799.5c6.5-20.5,13.1-41.1,19.6-61.6c1.9-5.9,3.6-11.8,5.9-17.4c0.8-1.8,3.3-3.8,5.2-4c5.3-0.6,10.7-0.6,15.9,0
		c1.6,0.2,4.2,2.9,4.2,4.5c0.3,33.8,0.3,67.5,0.2,101.3c0,6.6-5.5,4.3-9.1,4.8c-4,0.5-5.8-1.1-5.7-5.4c0.4-29.7,0.5-59.5,0.7-89.2
		c0-1.2-0.3-2.3-1.8-3.9c-0.6,1.5-1.3,3-1.8,4.5c-9.4,29.7-18.8,59.4-28.4,88.9c-0.7,2.1-3.9,4.9-5.8,4.8c-2.1-0.1-5.3-2.8-6-5
		c-9.6-29.6-18.8-59.4-28.2-89.1c-0.4-1.3-1.4-2.4-2.8-4.8c-0.4,2.2-0.7,3.1-0.7,4c0.1,29.7,0.2,59.5,0.5,89.2c0,4.5-1.6,6.1-6,5.9
		c-4.3-0.2-9,0.7-9-5.9c0-32.9,0-65.8,0-98.8c0-4.6,2.1-6.6,6.7-6.2c1.3,0.1,2.6,0.1,3.8,0.1c19-0.2,13.4-1.5,19.2,15
		c6.7,18.9,12.4,38.2,18.5,57.3c1.2,3.7,2.3,7.5,3.4,11.3C148.4,799.7,148.9,799.6,149.3,799.5z"/>
	<path d="M657.9,748.7c11.4-7.9,22.9-10.3,35-7.6c3.8,0.8,7.7,2.6,10.7,5c2.9,2.4,4.6,2.5,7.6,0.5c10.8-7.1,22.7-7.9,34.9-5.3
		c8.3,1.7,15.3,9,15.7,18c0.8,21,1.1,42,1,63c0,7-6.6,4.1-10.5,4.7c-4.2,0.7-4.8-2.1-4.8-5.5c0.1-17,0.2-34,0-51
		c-0.1-7.3-0.1-14.8-8.5-18.3c-10.1-4.1-19.2-0.8-27.7,4.5c-1.1,0.7-1.2,3.4-1.1,5.1c0.3,20.2,0.7,40.3,1.1,60.5
		c0.1,5.9-4.4,4.3-7.8,4.7c-4,0.4-5.9-0.9-5.9-5.2c0.2-15.1,0.1-30.2,0.1-45.2c0-3.2-0.1-6.4-0.3-9.5c-0.9-15.6-10.8-17.8-23.7-15.9
		c-1.7,0.2-3.2,1.1-4.8,1.6c-6.3,2-9.4,5.1-9.1,12.8c0.8,18.4,0.1,37,0.4,55.4c0.1,5-2,6.3-6.5,6c-4.4-0.3-9.4,1.1-9.4-6.1
		c0.1-24.6-0.1-49.3,0.2-73.9c0-1.9,2.3-5.2,4-5.5C652.8,740.8,658,740.3,657.9,748.7z"/>
	<path d="M526.5,747.8c2.9-2.6,4.7-5.7,7.1-6.3c6.9-1.7,8.6,0.2,8.6,7.3c0,21.5,0.2,42.9-0.1,64.4c-0.1,7.8-0.9,15.7-2,23.4
		c-1.6,11.1-9.6,19-21,19.6c-10.8,0.6-21.6-0.1-32.5-0.1c-3.4,0-5.2-1.4-4.9-5c0.3-3.5,1.4-6,5.8-5.9c8.7,0.2,17.4,0.6,26-0.2
		c8.5-0.8,11.2-4.3,12.2-12.8c0.4-3.5,0.8-7.1,1.3-12c-4.5,1.7-7.9,2.9-11.2,4.3c-9.1,3.6-18.6,3.2-27.6,0.9
		c-10.6-2.7-16.4-10.9-17-21.4c-0.8-13.3-0.8-26.8,0-40.1c0.8-13.4,9.6-21.3,22.8-23.2C506.2,738.9,517.2,741.4,526.5,747.8z
		 M526.9,784C526.8,784,526.8,784,526.9,784c-0.1-5.3-0.1-10.6-0.1-15.9c0-11.7-0.2-12-11.8-15.8c-1.4-0.5-2.8-1-4.2-1.4
		c-12.2-2.9-22.6,2.5-24.1,14.7c-1.5,11.9-1.5,24.2-0.2,36.1c1.3,11.6,9.3,16.4,21.8,14.6c5.4-0.8,10.6-2.9,15.6-5.2
		c1.6-0.8,2.8-4,2.9-6.2C527.1,798,526.9,791,526.9,784z"/>
	<path d="M954.4,749c0.4-10.2,6.5-7.6,12.1-7.5c0.2,2.1,0.5,3.9,0.5,5.7c0,27,0.1,53.9,0,80.9c-0.1,17.9-8.2,27.1-26.3,28.5
		c-9.5,0.7-19.1-0.3-28.6-0.6c-3.3-0.1-5.4-1.5-4.6-5.2c0.7-3.2,1.5-5.9,6.1-5.7c8.2,0.4,16.6,0.7,24.8,0
		c8.9-0.8,11.2-3.4,13.1-12.1c0.9-4,1.2-8.1,1.9-13.4c-5.1,2.1-8.6,3.9-12.4,5c-10.9,3.3-21.9,3.4-32.3-1.5
		c-8.1-3.8-11.7-11.7-11.8-19.9c-0.4-15,0-30,1.6-44.9c1.1-10.2,9.6-15.9,19.9-17.6C931,738.7,942.6,741.5,954.4,749z M952.7,784.1
		C952.7,784.1,952.7,784.1,952.7,784.1c-0.1-5.5-0.1-11-0.1-16.6c0-10.6-0.6-11.5-10.6-14.8c-1.6-0.5-3.2-1.1-4.9-1.5
		c-13.3-3.7-24.1,2.6-25.1,16.1c-0.9,12-0.2,24.1,0.4,36.2c0.3,6.3,4.3,10.2,10.6,12c9.8,2.9,18.5-0.2,26.9-4.6
		c1.5-0.8,2.6-3.8,2.7-5.8C952.9,798.2,952.7,791.1,952.7,784.1z"/>
	<path d="M613,747c3.6-2.4,5.9-4.8,8.5-5.5c5.2-1.3,7.6,1.1,7.5,6.9c-0.3,23.6-0.1,47.1-0.2,70.7c0,3.2,1.6,7.4-3.7,7.9
		c-4.7,0.5-9.9,1.1-9.6-6.6c-5.5,2.3-10.4,4.6-15.4,6.5c-9.7,3.7-19.4,2.5-28.6-1.4c-7.8-3.3-12.7-10-13-18.3
		c-0.7-15.2-0.8-30.5,0-45.7c0.6-11.1,9.8-18.9,20.9-20.7C592.2,738.8,603.8,741.3,613,747z M613.6,784.9
		C613.6,784.9,613.5,784.9,613.6,784.9c-0.1-4.7-0.1-9.3-0.1-14c0-15.5-0.9-16.6-16.2-20c-14.1-3.1-24,3.9-24.6,18.1
		c-0.5,10.8-0.4,21.7,0.1,32.5c0.5,10.2,6.1,15.2,16.1,16.3c7.8,0.9,14.8-1.2,21.2-5.3c1.7-1.1,3.1-3.9,3.2-6
		C613.8,799.3,613.6,792.1,613.6,784.9z"/>
	<path d="M458.6,786.8c-0.5,5-0.5,12.8-2.1,20.1c-3,13-12.7,19-25.2,20.9c-10.8,1.7-21.5,1.1-31.8-3.5c-7.6-3.4-12-9.4-13.9-17.1
		c-3.6-14.6-3.3-29.4-0.5-44.2c2.2-11.3,9.2-18.8,20.2-21.3c11-2.5,22.3-2.7,33.4,0.7c12.1,3.7,17.4,12.8,18.9,24.5
		C458.3,772.8,458.2,778.5,458.6,786.8z M444,784.3c-0.3,0-0.6-0.1-0.9-0.1c0-4.7,0.3-9.4-0.1-14c-1-13.9-7.3-19.9-21.3-19.8
		c-4,0-8,0.9-11.9,1.8c-5.6,1.3-9.2,5.4-9.4,10.8c-0.5,14.1-0.7,28.3,0,42.4c0.4,7.5,6.5,11.7,15.5,12.1c9.3,0.4,19.1,1.7,24.6-8.8
		c0.4-0.7,0.6-1.6,0.7-2.4C442.2,799,443.1,791.7,444,784.3z"/>
	<path d="M824,747.1c7.2-2.3,13.5-5.2,20.1-6.1c6.6-0.9,13.6-0.6,20.2,0.4c10,1.4,17.3,9.8,17.7,21.2c0.7,19.9,0.6,39.9,0.5,59.9
		c0,6.6-5.7,4-9.2,4.6c-3.8,0.6-6-0.7-5.9-5.1c0.1-16.4,0-32.7-0.1-49.1c0-0.8,0-1.7,0-2.5c-0.7-15.2-6.4-20.8-21.7-19.6
		c-5.9,0.5-11.8,3.1-17.4,5.6c-1.6,0.7-2.6,4.2-2.6,6.4c-0.2,19.3-0.2,38.7,0.1,58c0.1,5.1-1.5,6.9-6.6,6.5
		c-4.4-0.4-8.9,0.9-8.8-6.5c0.4-23.6,0.1-47.2,0.3-70.7c0-2.9,1.3-7.6,3.1-8.2C817.8,740.4,823.2,740.2,824,747.1z"/>
	<path d="M262,784.4c1,7.7,1.4,15.6,3.2,23.1c0.7,3,3.8,6.5,6.7,7.8c8.2,3.8,16.9,3.6,25.3,0.1c5-2.1,6.7-6.8,6.9-12
		c0.2-8.7,7-4.8,10.9-5.3c4.6-0.5,3.8,3.3,3.6,6.3c-1.3,13.7-10.2,22.5-26.2,23.6c-8.5,0.6-17.5-0.2-25.7-2.4
		c-10.2-2.7-16.8-10.7-17.6-21.2c-1-12.8-1-25.8-0.3-38.7c0.7-12.6,8.5-21.5,20.9-24.1c11.5-2.4,23.2-2.8,34.5,1.7
		c8.6,3.4,15.4,13.6,14.3,22.7c-0.2,1.6-3,4.1-4.6,4.1c-3.5,0-8.5,2.3-9.8-3.9c-2.7-13.1-8.1-16.8-22.5-15.8
		c-12.1,0.9-17.7,6.7-18.3,19.2c-0.2,4.9,0,9.8,0,14.6C262.7,784.4,262.3,784.4,262,784.4z"/>
	<path d="M344.8,747.5c10.4-2.6,19.4-5.2,28.5-7.1c2.8-0.6,7.1-0.8,6.8,4.2c-0.2,4.3-1.1,7.8-7.2,7.1c-8.4-0.9-16,2.2-22.7,7
		c-1.7,1.2-3,4.1-3.1,6.2c-0.2,18.5-0.3,36.9,0.1,55.4c0.2,6.3-2.8,6.9-7.8,6.8c-4.7-0.1-8.2-0.3-8.1-6.7
		c0.3-23.8,0.1-47.6,0.1-71.3c0-3.5-1-7.7,4.7-7.8c4.7-0.1,9.4-0.4,8.9,6.6C345.1,748.1,345.7,748.4,344.8,747.5z"/>
	<path d="M218.5,784.2c0-12.3,0.2-24.6-0.1-37c-0.1-4.9,1.9-6.4,6.5-5.9c4.2,0.4,9.2-1.7,9.1,6c-0.3,24.6-0.2,49.3,0,73.9
		c0.1,6.5-4.2,5.7-8.2,5.8c-4.1,0.1-7.6,0.1-7.4-5.9C218.8,808.8,218.5,796.5,218.5,784.2z"/>
	<path d="M794.6,784.2c0,12.1-0.3,24.2,0.1,36.2c0.2,6.6-3.6,6.3-8.1,6.6c-5,0.3-7.4-1.2-7.4-6.7c0.2-24.4,0.2-48.8,0-73.1
		c-0.1-6.9,4.2-5.8,8.5-6c4.6-0.2,7.2,0.6,7.1,6.1C794.4,759.6,794.6,771.9,794.6,784.2z"/>
	<path d="M226.1,731.8c-5.9,1.4-8.5-0.9-7.6-7c0.5-3.7-2.1-9,5.5-8.7c9.9,0.4,9.8,0.3,10.3,9C234.7,731.7,231.5,732.8,226.1,731.8z"
		/>
	<path d="M794.8,725.2c0.9,4.9-1,7.2-6.9,6.9c-5.3-0.2-9.8,0.2-9-7.4c0.5-4.7-0.1-8.9,6.9-8.5C794.8,716.6,794.8,716.3,794.8,725.2z
		"/>
</g>
</svg>
