<?xml version="1.0" standalone="no"?><!DOCTYPE svg PUBLIC "-//W3C//DTD SVG 1.1//EN" "http://www.w3.org/Graphics/SVG/1.1/DTD/svg11.dtd"><svg t="1575511198768" class="icon" viewBox="0 0 1024 1024" version="1.1" xmlns="http://www.w3.org/2000/svg" p-id="2226" xmlns:xlink="http://www.w3.org/1999/xlink" width="200" height="200"><defs><style type="text/css"></style></defs><path d="M848.3 466.3h-42.5c-4.7 0-8-2.1-10-6.3-6.2-13-14.1-24.8-24.7-34.6-17.2-15.9-37.2-26.2-60.5-29.3-19.9-2.7-39.3-0.9-57.9 6.7-13.9 5.7-26.1 14-36.6 24.7-12.7 12.8-22.4 27.5-27.8 44.9-3.6 11.8-4.9 23.9-5 36.1 0 11.8-0.2 23.5-3.3 35.1-3.8 14.3-9.1 28-16.5 40.8-7.6 13.4-17.1 25.3-28.2 36-10.4 10-22.1 18.1-34.7 25.1-16.8 9.4-34.9 14.6-53.7 17.4-17.8 2.7-35.6 2-53.3-1.9-24.5-5.3-46.5-16-66.2-31.3-15.3-11.9-27.9-26.3-37.7-43.2-10.6-18.4-17.1-38.3-20.4-59.2-3.4-21.9-2-43.5 4.3-64.8 4.5-15.1 11.2-29.1 19.6-42.4 16.4-26 38.4-45.5 66.4-58.2 24.2-10.9 49.6-16 76.1-14.2 32.5 2.2 62 13.1 87.7 33.2 7.7 6 14.5 13.2 21.4 20.2 3.9 3.9 4.1 7.3 1.5 12-7.3 13.3-14.6 26.4-22 39.7-3.2-4.7-6.2-9.5-9.5-14-9.5-13.2-21.8-23.3-36.1-31-15.6-8.3-32.3-12.9-50-13.3-16.2-0.3-31.8 3.2-46.8 9.3-15.5 6.3-28.6 16.1-39.4 28.7-9.2 10.6-16.1 22.7-21 35.9-6.2 16.6-7.9 33.7-5.6 51.3 2.7 20.3 10.1 38.7 22.5 54.9 8 10.5 18.2 18.8 29.5 25.8 13.9 8.6 28.9 14 45.1 16.1 8.8 1.2 17.6 0.8 26.4-0.4 13.1-1.7 25.7-5.5 37.5-11.5 19.7-9.9 34.6-24.8 45.7-43.7 6.2-10.6 10.2-22.1 12.7-34 0.6-3.1 0.7-6.2 0.9-9.4 0.5-11 0.2-22.1 1.4-33 1.5-14.2 5.2-28 11-41.1 5.1-11.8 11.5-22.8 19.4-32.9 16.7-21.3 37-38.3 61.7-49.5 15.1-6.8 30.9-10.9 47.4-12.5 23.3-2.4 46.1 0 68.3 7.4 15.2 5.1 29.1 12.7 42.1 22.2 23.4 17.2 41.2 38.9 52.5 65.7 3.2 7.2 5.4 14.6 8.3 22.5z" p-id="2227"></path><path d="M776.6 579.7H731.5c-0.1-1.1-0.1-2-0.1-3 0-11.5 0.1-23-0.1-34.5-0.1-6.8 4-11.8 11.5-11.7 34.9 0.2 69.9 0.1 104.8 0.1h3.4c-0.9 4-1.9 7.5-2.6 11.1-4.2 20.9-13.2 39.8-25.4 57.1-12.1 17.2-27.7 30.8-45.5 42-19.6 12.3-40.9 19.7-63.9 22.3-19.3 2.2-38.4 1.2-57.3-3.6-23.4-5.9-44.4-16.5-62.9-32-6-5-11.5-10.7-17-16.3-4.3-4.4-4.6-7.6-1.8-13l20.1-39c0.3-0.5 0.6-1 0.9-1.4 25.3 42 61.6 63.2 111.1 58.8 28.1-2.5 51.3-15.2 70.4-35.6-0.2-0.6-0.4-1-0.5-1.3zM248.8 512.2c-7.1-1.8-12.9-5.4-18.1-9.9-9.3-8.1-18.3-16.6-28-24.2-9.9-7.8-21.2-12.9-34.4-12.4-12.4 0.4-23 5.4-32.5 12.8-5.6 4.4-11 9.2-16.3 13.9-1.4 1.2-2.5 2.6-4.3 4.6 3.6-11.2 7.5-21.3 14.4-29.8 12.1-14.9 28-23.4 47.2-24.9 4.2-0.3 8.6 1.6 12.8 2.5 0.9 0.2 1.8 0.6 3.6 1.3 0-8 0.5-15.4-0.1-22.8-0.8-9.1-2.4-18-3.8-27-2.4-15.2-12.2-24.1-25.9-29.6-10.3-4.2-20.8-4.1-31.6-2.2-10 1.7-20.1 3.3-30.4 4.5 6.7-4.6 13.2-9.4 20.1-13.7 10.1-6.2 20.9-11.3 32.6-13.8 15.6-3.4 30.3-1.6 43.8 7.7 7.9 5.4 11.7 13.4 13.7 22.2 1.6 7.1 2.6 14.5 3 21.8 1 16.3 1.7 32.6 6.7 48.3 3 9.6 7.4 18.4 14.3 25.7 4 4.3 8.8 8 13.1 12.1 0.7 0.6 1.5 1.8 1.3 2.5-1.5 9.8-2 19.7-1.1 29.6 0 0.1-0.1 0.4-0.1 0.8zM301.7 631.9c-5.3 3.5-11.3 4.6-17.4 5-7.6 0.6-15.3 0.6-22.9 1.2-11.5 1-22.8 2.4-33.3 7.7-13.9 7-22 18.5-24.9 33.3-1.7 8.4-1.9 17.1-2.5 25.7-0.2 3.1 0.4 6.3 0.3 9.6-5.3-8.5-9.3-17.4-11.1-27.2-3.3-17.1 0.8-32.9 9.5-47.6 4.1-7 10.6-11.5 18.7-14.5-1-1.3-1.8-2.6-2.8-3.5-7.5-6.4-14.8-13-22.7-19-5.9-4.4-12.4-8.1-18.8-11.9-10.2-6-20.6-5.2-31.4-1.1-11.2 4.2-19.3 11.9-26.1 21.4-5.9 8.3-12 16.4-18.7 24.5 0.3-3.4 0.2-6.9 0.8-10.2 2.4-13.4 5.7-26.6 12.3-38.7 6.3-11.6 14.5-21.3 26.5-27.4 14.7-7.6 28.9-6.5 42.3 2.6 8.3 5.6 16.1 12 23.9 18.4 11.6 9.6 23.4 19.1 37.7 24.5 10 3.8 20.5 5 31.2 4 2.6-0.3 5.3-0.5 7.9-0.7 0.7 0 1.6 0.2 2 0.6 6.4 7.7 12.8 15.4 19.5 23.3zM216.1 283.6c8.4-3.7 16.6-7.7 25.7-9.7 10.9-2.3 21.4-1.5 31.9 1.5 9.3 2.7 18.3 6.3 24.8 13.9 3.3 3.9 5.8 8.5 8.9 13.1 0.3-0.2 1.3-0.5 1.9-1.1 7.1-7.2 14.5-14.1 21-21.8 5-5.9 9.2-12.7 13.3-19.3 6-9.4 5.6-19.4 2.4-29.7-3.4-11.1-10.4-19.4-19.3-26.3-8-6.2-16.2-12-24.3-18-0.8-0.6-1.8-1.1-2.6-2.1 2.9 0.4 5.8 0.6 8.7 1.1 2.9 0.5 5.8 1 8.6 1.7 13.6 3.1 26.6 7.6 38.3 15.3 13.6 8.9 22.7 20.8 25.3 37.1 0.9 5.7-0.1 11.1-2.3 16.4-3.9 9.7-10.4 17.7-17.5 25.1-10.7 11-21.3 21.9-29.6 34.9-7.1 11-10.9 22.9-11.2 36 0 1.9-0.4 4 0.1 5.8 1 4.6-2.1 6.4-5 8.8-6.9 5.9-13.6 12.1-20.4 18.3-2.7-3.8-3.3-8.6-3.6-13.3-0.5-7.8-0.5-15.7-0.8-23.6-0.4-10.5-1.1-21-4.8-31-5.7-15.5-16.8-25.2-32.5-29.7-11.2-3.2-22.7-4.2-34.4-3.1-0.8 0.1-1.6 0.1-2.4 0.1 0.2-0.1 0.1-0.2-0.2-0.4zM425.3 682c-2.2 3-4.2 6.2-6.8 8.9-4.9 5.2-10.2 10.1-15.1 15.3-7 7.5-13.6 15.4-18 24.8-7.1 15.4-6 30.4 2.5 45 4.4 7.5 10.2 13.8 16.1 20.1 2.4 2.5 5 4.7 7.5 7-0.2 0.3-0.5 0.7-0.7 1l-9-3.6c-10.3-4.2-20.3-9.3-27.7-17.8-10.4-11.8-17.9-25.1-17.3-41.5 0.1-3.1 1.4-6.2 2.2-9.3 0.4-1.5 0.9-2.9 1.5-4.5-10.1-1.5-19.8-1-29.5 0.1-8 0.9-15.9 2.4-23.7 4-20.9 4.3-31.6 24.7-31.2 40.2 0.2 11.5 2.4 23 3.8 34.5 0.4 3.5 1.1 6.9 1 10.7-2.3-3.2-4.5-6.4-6.8-9.5-8.1-11-14.3-22.9-18.2-36-4.1-13.7-4.1-27.3 1.8-40.5 5-11.2 13.5-18.7 25.5-22 8.6-2.4 17.3-3.3 26.2-3.5 16-0.4 32-1.1 47.4-5.9 11.5-3.5 21.6-9.3 29.6-18.3 2.1-2.4 4.1-3 7.3-2.5 10.4 1.3 20.7 2.2 31.6 3.3zM419.5 328.1c2.7-3.6 4.8-6.7 7.3-9.5 4.7-5.2 9.7-10 14.4-15.2 7.4-8.2 14.3-16.8 19.1-27 6.6-14 5.4-27.7-1.7-41-5.8-10.7-13.8-19.7-23.2-27.5-1.1-0.9-2.3-1.6-3.5-2.4 0.1-0.2 0.2-0.5 0.3-0.7 4.5 1.5 9.2 2.6 13.5 4.5 8.5 3.7 16.8 8 23 15 9.5 10.8 17.4 22.7 19.1 37.6 0.7 5.9-0.9 11.2-3.3 16.4l-0.8 1.6c1.5 0.2 2.7 0.6 3.9 0.6 16.1-0.2 32.2-1.3 47.9-4.8 7.7-1.7 15-4.6 20.9-10.1 1.8-1.7 3.3-3.9 4.5-6.1 6.6-11.8 9-24.4 6.5-37.8-2-10.9-4.1-21.7-6.1-32.6 0-0.2 0.1-0.3 0.2-0.6 14 16 25.1 33.5 29.1 54.8 2.8 15-0.3 29-8.7 41.5-3.6 5.4-9.6 8.3-15.6 10.5-8.6 3.2-17.6 4.8-26.7 5.3-15.1 0.8-30.2 1.8-44.9 5.8-14.2 3.9-27.2 10-37.2 21.2-1.9 2.1-3.8 2.5-6.7 2.3-9.4-0.9-18.8-1.4-28.2-2.1-0.6 0.3-1.4 0.3-3.1 0.3z" p-id="2228"></path><path d="M111.3 555.2c1.6-4.6 3-9.2 4.7-13.7 4-10.8 9.4-20.7 17.5-29 11.2-11.5 24.8-15 40.3-13.5 12.7 1.2 22.7 7.5 31.8 15.7 13 11.8 27.2 22 42.5 30.5 4.7 2.6 6.2 5.8 7.7 10.2 3 8.8 6.6 17.4 10 26.1 0.3 0.9 0.7 1.8 1.2 3-9.1 0.4-17.6-0.9-25.9-4.1-11.4-4.5-20.4-12.4-29.8-19.8-11.8-9.3-23.8-18.2-37-25.5-17.1-9.4-36.9-6.8-50.7 7.1-4.1 4.1-7.7 8.8-11.5 13.2-0.3-0.2-0.6-0.2-0.8-0.2zM256.5 451.7c-10.3-7.8-15.6-18.4-17.6-30.6-2.4-14.3-4-28.8-5.9-43.1-1.5-11.5-2.5-23.2-7.8-33.7-6.4-12.6-17.1-20.3-31.2-21.9-7.9-0.9-16-0.2-24.4-0.2 5-2.3 9.7-4.7 14.5-6.7 11-4.6 22.5-7.7 34.5-7.5 11 0.2 20.7 3.9 28.7 11.8 5.3 5.3 10.7 10.6 13 17.9 1.9 6 3.1 12.3 3.9 18.6 2.2 16.7 3.9 33.5 5.9 50.3 0.2 1.4 0.4 2.8 1 4 1.8 3.7 0.9 6.8-0.9 10.4-4.6 9.3-8.6 18.9-12.8 28.4-0.4 0.6-0.6 1.4-0.9 2.3zM361.8 669.9c-6.5 6.4-13.9 10.3-22.1 12.6-13 3.6-26.4 5.2-39.8 6.5-13.5 1.3-27.1 2.5-39.8 7.8-15.3 6.4-24.4 17.8-26.6 34.6-1 7.5 0.1 14.8 1.2 22.3-5.5-8.4-9.5-17.5-12.4-27.1-2.2-7.2-3.4-14.5-3-22.1 0.5-9.8 4.2-18.3 10.7-25.5 6.3-7 13.3-13.3 22.4-16.1 4.5-1.4 9.3-2.5 14.1-2.8 18.7-1.4 37.4-3.2 55.7-7.3 3.6-0.8 6.2-0.2 9.3 1.5 9.1 5 18.4 9.6 27.7 14.4 0.7 0.3 1.4 0.7 2.6 1.2zM380.8 199.6c5.6 2.2 11.2 4.4 16.8 6.7 9.1 3.8 17.6 8.8 24.8 15.5 8.9 8.2 14.4 18 14.4 30.5 0 7.4 0 14.9-3.1 21.7-2 4.4-4.7 8.6-7.8 12.3-10.5 12.7-21.4 25.1-32.1 37.6-1.7 2-3.6 4-4.9 6.2-1.1 1.9-2.6 2.3-4.4 3-11.5 3.9-23 8-34.4 12-1.2 0.4-2.3 0.9-3.6 1.3-1.1-7.5 1.8-13.7 5.1-19.8 8-14.5 18.7-27.1 29.6-39.5 8-9 15.9-18.2 21.3-29.1 5-10.1 5.3-20.8 1.2-31.4-3.8-9.8-10.2-17.6-19.1-23.2-1.4-0.9-2.8-1.9-4.2-2.9 0.1-0.4 0.3-0.6 0.4-0.9zM608.1 259.1c6.3 12 12.4 24.1 14.1 37.8 1.2 9.6 1.1 19.1-3.7 27.6-8.6 15.3-20.6 26.1-39 27.9-12.3 1.2-24.6 2.3-36.9 3.5-5.8 0.6-11.5 1.7-17.2 2.3-1.4 0.2-3.2-0.1-4.3-0.9-11.5-7.9-23.7-14.2-37.7-19 3-2 5.4-3.8 8.1-5.2 9.3-4.8 19.3-7 29.7-8 15.2-1.5 30.5-2.9 45.7-4.8 9.8-1.2 19.2-3.9 27.1-10.4 9.2-7.4 13.8-17.1 15.2-28.6 0.8-7.5 0.5-14.8-1.1-22.2zM828.9 723.8c-1.5 8.2-2.9 16.4-4.4 24.7h-7.1c2.3-13.7 4.5-27.2 6.8-41.1 2.3 0.1 4.6 0.1 6.9 0.4 0.5 0.1 1.1 1.2 1.4 1.9 2.7 8.1 5.2 16.2 7.9 24.3 0.2 0.7 0.6 1.4 1.2 2.8 1.6-4.7 2.9-8.6 4.2-12.6 1.7-5.1 3.2-10.2 5-15.3 0.2-0.7 1.1-1.6 1.7-1.6 1.8-0.1 3.7 0 5.6 0.3 2.8 0.5 1.5 3.1 1.8 4.7 2.1 11.9 3.8 23.8 5.7 36h-7c-1.3-8.4-2.7-16.7-4-25.1-0.3-0.1-0.5-0.1-0.8-0.2-0.4 0.9-0.7 1.8-1.1 2.7-2.4 6.8-4.8 13.7-7 20.6-0.7 2.4-2.1 2.3-4 2.3s-3.2 0-4-2.4c-2.1-6.7-4.5-13.4-6.7-20-0.3-0.9-0.8-1.8-1.2-2.6-0.3 0.1-0.6 0.1-0.9 0.2zM765.5 714.1l-4.8 5.1c-8.2-7.6-17.4-6-22.7-1.8-4.5 3.6-5.8 10.8-3 17.1 2.6 5.9 9.5 9.2 16.5 7.9 4.5-0.8 7.8-3.8 8-7.5h-11.2c-0.2-2.4-0.3-4.5-0.5-6.7h20.8c0.3 7-1.9 12.7-7.1 16.7-8.3 6.6-19.2 6.6-27.4-0.1-6.6-5.3-10.4-15.3-7-24.4 3.2-8.7 12-14.5 21-14.2 7 0.4 12.7 2.9 17.4 7.9zM574.7 707.6c5.8-0.8 7-0.1 10 4.7 4.4 7 9.1 13.9 13.6 20.8 0.3 0.4 0.7 0.8 1.5 1.8v-27.5c2.5 0.1 4.9 0.3 7.4 0.4v40.8c-2 0-3.9 0.2-5.8-0.1-0.8-0.1-1.7-0.9-2.1-1.6-5-7.5-9.9-15-14.9-22.5-0.5-0.7-1.1-1.4-1.6-2.1-0.3 0.1-0.5 0.2-0.8 0.3v25.8h-7.4c0.1-13.5 0.1-27 0.1-40.8zM442.5 727.7c-0.4-8.5 8.5-21.6 20.9-21.4 12.2 0.2 22 10.1 21.9 21.9-0.2 12.1-9.8 21.7-21.8 21.5-11.4 0-21.2-10.3-21-22z m21.3 14.9c7 0.4 13.9-6.5 13.9-14.6 0-8.6-5.2-13.9-14-14.1-7.8-0.3-13.9 6.4-13.8 14.3 0.1 8.2 6.1 14.4 13.9 14.4zM678.4 748.7c-2.2 0-4.2 0.2-6.1-0.1-0.8-0.1-1.7-1.1-2-1.9-2.9-6.6-2.8-6.7-10.2-6.7-3.1 0-7-1-9.2 0.4-2.2 1.4-2.9 5.3-4.3 8.2H639c2.2-5.7 4.3-11.1 6.5-16.6 2.9-7.3 5.8-14.5 8.5-21.9 0.8-2.2 1.9-2.6 4.3-2.7 3.9-0.1 5 2 6.1 5.1 4.3 11.5 8.9 22.8 13.4 34.2 0.2 0.5 0.3 1.1 0.6 2z m-19.1-29.9c-0.4 0-0.7 0.1-1.1 0.1-1.6 4.5-3.3 9.1-5 13.8H665c-2-4.9-3.9-9.4-5.7-13.9zM520 748.7c-2.6 0-4.5 0.2-6.3-0.1-0.8-0.1-1.8-1-2.2-1.8-2.5-4.6-4.8-9.2-7.2-13.8-0.4-0.8-1.2-1.5-2.4-2v17.4h-7.5V707c6 0.7 12.3 0.9 18.3 2.2 3.7 0.8 5.1 4.6 5.6 8.3 0.6 4.1-0.4 7.8-3.9 10.5-1.1 0.9-2.5 1.5-3.9 2.4 3 5.9 6.1 11.7 9.5 18.3z m-18.3-24.6c3.2-0.2 6.7 0.9 8.5-2.1 0.8-1.3 0.6-4.3-0.4-5.6-2-2.8-5.3-1-8.2-1.4 0.1 3.1 0.1 5.8 0.1 9.1zM813 748.3c-0.5 0.2-0.6 0.2-0.7 0.2-6.4 0.5-6.5 0.5-8.7-5.5-0.9-2.3-2-3.4-4.7-3.2-3.9 0.3-7.9 0.1-11.8 0-1.7 0-2.9 0.2-3.2 2.1-0.1 0.6-0.4 1.1-0.7 1.6-2.3 5.7-2.3 5.7-9.2 4.6 0.4-1.1 0.8-2.2 1.2-3.2 4.4-11.6 8.9-23.2 13.2-34.8 0.9-2.3 1.8-3.4 4.5-2.7 1.3 0.3 2.7 0.1 4.2 0.1 5.4 13.7 10.6 27.2 15.9 40.8z m-13.7-15.5c-1.4-3.6-2.5-6.8-3.8-10-0.5-1.3-1.3-2.5-2-3.7-0.7 1.3-1.6 2.5-2.1 3.8-1.2 3.2-2.3 6.5-3.5 9.9h11.4zM880.9 741.5h14v7h-21.7v-40.8h21.7v7.1h-14v8.2h14v6.7h-14.1c0.1 4 0.1 7.7 0.1 11.8zM544.3 707.7h21.6v7h-14.2v8.3h14.1v6.6h-14.1v11.8h14.1v7h-21.6c0.1-13.5 0.1-27 0.1-40.7zM628.7 748.5h-7.2V715h-7.7v-7.3h22.3v7h-7.4v33.8zM685.8 707.4c2.3 0.1 4.6 0.3 7.3 0.4v34.1h11.5v6.6h-18.8v-41.1zM527.2 707.4c2.3 0.1 4.4 0.3 6.8 0.4v40.6h-6.8v-41z" p-id="2229"></path></svg>