<?xml version="1.0" standalone="no"?><!DOCTYPE svg PUBLIC "-//W3C//DTD SVG 1.1//EN" "http://www.w3.org/Graphics/SVG/1.1/DTD/svg11.dtd"><svg t="1575515102648" class="icon" viewBox="0 0 1024 1024" version="1.1" xmlns="http://www.w3.org/2000/svg" p-id="4462" xmlns:xlink="http://www.w3.org/1999/xlink" width="200" height="200"><defs><style type="text/css"></style></defs><path d="M624.9 414.4c-7.5-30.4-2.3-47.3 19.1-68.8l-34.1-44.8c-38.7 7.1-76.1 8.8-109.4-16.4-33.3 25.2-70 23.6-109.4 16.4L357 345.6c28.2 28.3 26.8 50.6 13.1 86.7-23.5 61.7 4.7 94.1 68.5 117.8 25.4 9.5 43.2 17.8 61.9 37.4 18.7-19.6 36.5-27.9 61.9-37.4 60.1-22.4 93-53.3 68.5-117.7-2.3-5.9-4.5-11.9-6-18z m3.5 62.5c-8.7 64.9-89.3 54.8-127.9 95.2-38.6-40.5-119.2-30.3-127.9-95.2-3.1-23.3 8.7-39.1 13.8-60 6.7-27.2 5.8-51-15.4-72.2l24.5-32.3c33.3 6 77.1 6.3 104.9-14.8 27.8 21.1 71.6 20.8 104.9 14.8l24.5 32.3c-21.2 21.2-22.1 45-15.4 72.2 5.3 20.9 17.1 36.7 14 60zM611 212.4c2.6-1.4 5-3.2 7.1-5.2 18-17.4 40.3-29.1 63.5-32.8 6.5-1.1 11 4.3 2.7 8.7-25.3 13.5-45.7 38.4-54 68.2-0.8 1.9-3.2 4.2-7.2 1.8-4-2.7-8-5.3-12.2-7.8v-32.9h0.1z m0 79.9v-13.7c2.3 1.2 4.6 2.4 6.8 3.7 11.9 6.7 7.5 16.8-4.5 11.1-0.8-0.4-1.6-0.7-2.3-1.1z m0-20.8c3.7 0 7.3-2.2 8.7-5.8 1.8-4.7-0.6-10-5.3-11.8a9.6 9.6 0 0 0-3.3-0.6v18.2z m-33.9-112.8a16 16 0 0 1 3.9-0.5c8.4 0 15.3 6.7 15.3 15 0 8.2-6.9 15-15.3 15-1.2 0-2.5-0.2-3.6-0.4-0.1 0.3-0.2 0.7-0.2 1v-30.1h-0.1z m0 42.4c1.6 6.4 5.8 11.5 12 13.9 6.7 2.6 14.9 1.1 21.8-2.7v32.9c-10.7-6.4-22-11.8-33.8-16.3v-27.8z m33.9 52.2v18.2c-1.1 0-2.2-0.2-3.3-0.6-4.8-1.8-7.2-7.1-5.3-11.8 1.3-3.5 4.8-5.8 8.6-5.8z m0 25.3c-10.6-5.4-22-10-33.8-13.6v14.9c11.9 3.3 23.2 7.5 33.8 12.4v-13.7z m-33.9-20.9c4.8 0 9.1-3.2 10.4-7.9 1.4-5.6-2.1-11.3-7.8-12.7-0.9-0.2-1.7-0.3-2.6-0.3v20.9z m-37-119c1.8 3.2 3 6.8 3.3 10.9 0.4 5.1-0.9 9.9-3.3 13.8v-24.7z m0 64.2v15.8c12.8 2.4 25.1 5.8 37 10.3v-27.9c-1-3.8-1-8 0-12.4v-30c-6.5 1.7-11.4 7.5-11.4 14.5 0 5.4 2.9 10.1 7.3 12.7-6 10.1-19.1 17-32.1 17h-0.8z m37 33.9v20.9c-0.9 0-1.7-0.1-2.6-0.3-5.7-1.4-9.2-7.1-7.8-12.7 1.3-4.7 5.6-7.9 10.4-7.9z m0 28.2c-11.9-3.7-24.3-6.4-37-8.3v15.7c12.7 1.7 25.1 4.2 37 7.5V265z m-37-15.3V226c0.5 0 1 0 1.5 0.1 6.6 0.8 11.3 6.7 10.5 13.2-0.8 6-6 10.4-12 10.4zM500.5 92c8 24.4 30.9 31.3 39.6 46.7v24.7c-6.3 10.1-20.3 14.1-33.8 2.3-0.2 1.3-0.2 2.6-0.2 3.9 0 18.1 15.2 32.9 34 33.3v15.8c-12.9-2.4-26.1-3.6-39.6-3.6V92z m39.6 134v23.6c-0.5 0-1 0-1.5-0.1-6.6-0.8-11.3-6.7-10.5-13.2 0.8-5.9 6-10.3 12-10.3z m0 30.7v15.7c-13-1.7-26.3-2.6-39.6-2.6v-15.9c13.3-0.1 26.6 0.9 39.6 2.8z m-39.6-8.8v-26.7c7.5 0 13.6 6 13.6 13.3s-6.1 13.4-13.6 13.4z m0-32.8c-13.5 0-26.8 1.2-39.6 3.6v-15.8c18.8-0.4 34-15.2 34-33.3 0-1.3-0.1-2.6-0.2-3.9-13.5 11.8-27.5 7.8-33.8-2.3v-24.7c8.7-15.3 31.7-22.3 39.6-46.7v123.1z m0 6.1v26.7c-7.5 0-13.6-6-13.6-13.3s6.1-13.4 13.6-13.4z m0 32.6v15.9c-13.3 0-26.6 0.9-39.6 2.6v-15.7c13-1.8 26.3-2.8 39.6-2.8z m-39.7-4.1V226c6 0 11.2 4.4 12 10.4 0.8 6.5-3.9 12.4-10.5 13.2-0.5 0-1 0.1-1.5 0.1z m0-31c-12.8 2.4-25.1 5.8-37 10.3v-27.9c0.9-3.8 1-8 0-12.3v-30.1c6.5 1.7 11.4 7.5 11.4 14.5 0 5.4-2.9 10.1-7.3 12.7 6 10.1 19.1 17 32.1 17h0.8v15.8z m0-55.3v-24.7c-1.8 3.2-3 6.8-3.3 10.9-0.4 5.1 0.9 9.9 3.3 13.8z m0 62.6c-0.5 0-1 0-1.5 0.1-6.6 0.8-11.3 6.7-10.5 13.2 0.7 6 6 10.4 12 10.4V226z m0 30.7v15.7c-12.7 1.7-25.1 4.2-37 7.6v-15c11.9-3.7 24.4-6.4 37-8.3z m-37 1c0.9 0 1.7-0.1 2.6-0.3 5.7-1.4 9.2-7.1 7.8-12.7-1.2-4.7-5.6-7.9-10.3-7.9v20.9z m0-28.7c-11.8 4.5-23.1 9.9-33.8 16.3v-32.9c6.9 3.8 15.1 5.2 21.8 2.7 6.2-2.4 10.4-7.6 12-14V229z m0-40.2c-0.1-0.4-0.2-0.7-0.3-1.1-1.2 0.3-2.4 0.4-3.6 0.4-8.4 0-15.3-6.7-15.3-15 0-8.2 6.9-15 15.3-15 1.3 0 2.6 0.2 3.9 0.5v30.2z m0 48c-0.9 0-1.7 0.1-2.6 0.3-5.7 1.4-9.2 7.1-7.8 12.7 1.2 4.7 5.6 7.9 10.3 7.9v-20.9h0.1z m0 28.2v14.9c-11.8 3.3-23.2 7.4-33.8 12.4v-13.7c10.6-5.4 22-10 33.8-13.6z m-33.8 6.5c1.1 0 2.2-0.2 3.3-0.6 4.8-1.8 7.2-7.1 5.3-11.8-1.4-3.6-4.9-5.8-8.7-5.8v18.2z m0-26.2c-4.2 2.5-8.2 5.1-12.2 7.8-4 2.4-6.4 0.1-7.2-1.8-8.3-29.8-28.7-54.7-54-68.2-8.3-4.5-3.8-9.8 2.7-8.7 23.3 3.7 45.6 15.4 63.5 32.8 2.1 2 4.5 3.7 7.1 5.2v32.9h0.1z m0 8c-1.1 0-2.2 0.2-3.3 0.6-4.8 1.8-7.2 7.1-5.3 11.8 1.4 3.6 4.9 5.8 8.7 5.9v-18.3h-0.1z m0 25.3v13.7c-0.8 0.4-1.5 0.7-2.3 1.1-12 5.7-16.4-4.4-4.5-11.1 2.2-1.3 4.5-2.5 6.8-3.7z" p-id="4463"></path><path d="M501.6 476.5c2 1.9 2.9 4.1 2.9 6.7 0 2.7-1 4.9-2.9 6.6v-13.3z m0-125.3V373c7.6 1.2 11.5 7.8 11.5 19.8 0 6.9-1.4 12-4.2 15.1-1.8 2-4.2 3.4-7.3 4.1v22.8c2.5 0.7 4.6 1.9 6.2 3.7 2.4 2.7 4.5 7.3 6 13.9 2.5 10.2 4.6 17.8 6.5 22.6 1.8 4.8 4.1 8.8 6.7 12 5.8 7.1 15.5 10.7 28.9 10.7 10.1 0 18-1.3 23.8-4 2.6-1.2 4.8-2.9 6.4-5.1 1.7-2.2 2.5-4.4 2.5-6.5 0-1.7-0.5-3.1-1.3-4.5-0.9-1.3-2-2.2-3.3-2.6-4.3-1.2-7-2.5-8.2-3.9-1.2-1.3-2.1-4.3-2.7-8.9-1.4-11-3.9-19.1-7.2-24.4-3.4-5.3-8.7-9.3-16-11.9-3.4-1.2-5.1-2.9-5.1-4.9 0-1.5 1.1-2.8 3.3-3.9 5.3-2.6 9.5-6.5 12.5-11.7 3-5.2 4.6-11 4.6-17.4 0-11.4-4.4-20.3-13.1-26.7-9.7-7.1-21.9-10.7-36.7-10.7-2.6 0-7.2 0.2-13.8 0.7v-0.1z m-4.3 83c-2.6 0-4.3 0.8-5 2.4-0.7 1.6-1.1 5.3-1.1 11.1 0 8.8 0.6 15.6 1.7 20.5 0.4 1.4 0.9 2.5 1.6 3.2 0.7 0.8 2 1.7 4 2.8 1.3 0.7 2.4 1.5 3.3 2.3v13.3c-1.4 1.3-3.3 2.3-5.7 3.1-5.8 1.9-15.5 2.9-29.3 2.9-25.6 0-38.3-4.8-38.3-14.5 0-1.6 0.4-3 1.1-4 0.8-1 2.5-2.4 5.2-4.2 3-2 5.1-4.4 6.2-7.1 1.1-2.7 1.8-7.4 2.2-14.2 0.4-4.9 0.5-22.5 0.5-52.7 0-9.6-0.5-16.1-1.4-19.6-1-3.4-3-5.9-6.2-7.5-3-1.4-5.1-2.8-6.1-4-1-1.2-1.6-2.8-1.6-4.7 0-2.6 1-4.8 3-6.7 1.9-1.9 4.7-3.3 8.2-4.2 2.9-0.8 7-1.1 12.2-1.1 2.3 0 8 0.3 17.1 1 1.7 0.1 4.5 0.2 8.2 0.2 6.2 0 14.4-0.4 24.7-1.2V373c-0.9-0.1-1.8-0.2-2.8-0.2-2.7 0-4.6 0.6-5.7 1.9-1.1 1.2-1.7 3.4-1.9 6.6l-1.1 24.2v0.9c0 2.5 0.4 4.1 1.1 5 0.7 0.8 2.2 1.2 4.4 1.2s4.2-0.2 6-0.6v22.8c-1.5-0.3-3-0.6-4.5-0.6zM763 485.7v-22.1c0.4 0.8 0.7 1.5 1 2.3 2 5.3 2 11 0 17.1-0.3 0.9-0.6 1.8-1 2.7z m0-39.5v-8.1c1.9 0.1 3.5-0.4 4.9-1.7 1.5-1.3 2.4-3.5 2.8-6.4 0.4-2.9 0-5.5-0.9-7.9-1-2.4-2.5-4.3-4.6-5.6-0.6-0.4-1.4-0.7-2.2-1v-8.2c5.1 0.6 8.4 0.8 10 0.8 1.9-0.1 3.7-0.5 5.5-1.2l-1 7.8c-1.6 0.6-3.5 0.9-5.6 0.8 2 3.1 3.4 6 4 8.6 0.6 2.7 0.8 5.5 0.4 8.4-0.6 4.9-2.2 8.4-4.9 10.8-2.3 2.1-5.2 3.1-8.4 2.9z m0-78.4v-8c2.4-0.2 4.8 0.4 7.1 1.6 2.3 1.3 4.2 3.2 5.7 5.9 1.5 2.6 2.3 5.7 2.6 9.2 0.5 5.8-0.3 10.3-2.4 13.5-2.1 3.2-5.5 5.5-10.1 6.7l-1.8-7.3c2.9-0.7 5.1-2 6.6-4.1 1.4-2 2-4.8 1.7-8.2-0.3-3.4-1.2-6-2.8-7.5-1.6-1.5-3.3-2.2-5.2-2.1-0.5 0.1-1 0.2-1.4 0.3z m0-20.4v-7.7l9.1-1.8 1.4 7.4-10.5 2.1z m0-23.7v-8l3.7-1.3 2.5 7.1-6.2 2.2z m0-8v8l-14.9 5.1v-8l14.9-5.1z m0 24v7.7l-14.9 2.9v-7.7l14.9-2.9z m0 20.1v8c-1.1 0.4-1.9 1.2-2.5 2.3-0.6 1.1-1.2 3.7-1.9 7.9-0.9 5.6-1.8 9.6-2.6 11.8-0.8 2.2-2.1 4-3.8 5.2-1.2 0.9-2.6 1.6-4.1 1.9v-8.8c0.5-0.6 0.8-1.4 1.1-2.3 0.2-0.8 0.7-3.1 1.3-6.8 1-5.4 1.8-9.3 2.5-11.4 0.7-2.2 1.9-4 3.5-5.3 1.6-1.4 3.7-2.1 6.3-2.4l0.2-0.1z m0 47.5v8.2c-1.4-0.5-3.1-0.8-5.1-1.1l-2.8-0.3c0.8 2.9 1.2 7.1 1.3 12.6 0.1 3.1 0.3 5.4 0.7 6.7 0.4 1.3 1.1 2.4 2.1 3.3 1 0.8 2.1 1.3 3.4 1.5h0.3v8.1c-0.4 0-0.7 0-1.1-0.1-2.2-0.3-4.1-1-5.8-2.2-1.7-1.2-3-2.7-3.8-4.4-0.9-1.7-1.5-3.6-1.8-5.7-0.2-1.5-0.3-3.8-0.3-6.8 0-6.1-0.3-10.7-0.9-13.7l-1.2-0.2v-7.7c0.5 0.1 1.1 0.1 1.7 0.2l10 1.2c1.2 0.2 2.3 0.3 3.3 0.4z m0 56.3v22.1c-2 4.9-4.6 8.7-7.9 11.4-2.1 1.7-4.5 3-7.1 3.9v-8.4c1.1-0.6 2.2-1.3 3.1-2.1 2.8-2.5 4.8-5.5 6-9 1.4-4.3 1.3-8.4-0.2-12.2-1.5-3.8-4.5-7-8.9-9.6v-0.5l4.3-6.8c5 3.1 8.6 6.9 10.7 11.2z m-14.9-165.1v-8l9.3-3.2 2.5 7.2-11.8 4z m0-8v8l-13.9 4.8c-0.7 0.3-1.4 0.5-2.1 0.8V296l16-5.5z m0 30.3v8l-15.9 5.5v-11.2c2.7 1.2 6.5 1 11.6-0.8l4.3-1.5z m0 21.8v7.7l-15.9 3.1v-7.7l15.9-3.1z m0 45.5v8.8c-0.5 0.1-1.1 0.2-1.7 0.3-2 0.2-3.8-0.1-5.6-0.9-1.8-0.8-3.3-1.9-4.5-3.3-1-1.1-1.8-2.6-2.6-4.6-0.8-2-1.3-4.1-1.5-6.4v-5.2c0.1-1.4 0.4-2.8 0.7-4.1 0.8-2.7 1.9-4.8 3.6-6.2 1.6-1.4 3.8-2.5 6.7-3.2l1.7 7.3c-2.3 0.5-4 1.7-5.1 3.4-1.1 1.7-1.6 4-1.3 7 0.3 3.4 1.1 5.9 2.4 7.2 1.3 1.4 2.7 2 4.2 1.9 1-0.1 1.8-0.5 2.6-1.2 0-0.3 0.2-0.5 0.4-0.8z m0 17.4v7.7l-0.8-0.1c-3.1-0.4-5.3 0.1-6.7 1.3-1.9 1.7-3.1 4.5-3.6 8.2-0.4 3.5-0.1 6.2 0.9 8 1 1.8 3.1 3.3 6.1 4.5l-1.9 7.2c-3-1.1-5.5-2.5-7.2-4.2-1.2-1.2-2.1-2.6-2.8-4.3v-19c0.4-1.2 0.8-2.2 1.3-3.1 1.2-2.2 2.5-3.9 4-4.8 1.5-0.9 3.3-1.5 5.4-1.7 1.1-0.1 2.8 0 5.3 0.3z m0 53.7v0.5l-0.2-0.1 0.2-0.4z m0 33.4v8.4c-2.2 0.8-4.5 1.2-7 1.5-3 0.3-5.9 0.2-8.9-0.2v-8.4c3 0.6 5.8 0.8 8.5 0.7 2.7-0.2 5.2-0.8 7.4-2z m-15.9-206.2v-9.1c3.3-2.4 5.5-5 6.5-7.9 1.2-3.6 0.9-7-1-10.3-1.3-2.3-3.2-4-5.5-5v-7.5c1.1 0.4 2.1 0.9 3.1 1.5 3.2 1.9 5.8 4.6 7.7 8 3.1 5.4 3.9 10.8 2.4 16.1-1.5 5.3-5.6 9.9-12.1 13.6-0.4 0.2-0.8 0.4-1.1 0.6z m0-39.9v7.5c-0.9-0.4-1.9-0.7-2.9-0.9-3.7-0.7-8.1 0.4-13.2 3.3-4.8 2.8-7.8 5.9-9 9.5-1.2 3.6-0.9 7 1 10.2 1.9 3.3 4.7 5.3 8.4 6 3.7 0.7 8-0.3 12.9-3.2 1-0.6 1.9-1.2 2.8-1.8v9.1c-6.7 3.6-12.8 4.5-18.2 2.6-4.8-1.7-8.5-4.9-11.3-9.7-3.1-5.3-3.8-10.6-2.3-16s5.4-9.8 11.5-13.4c5-2.9 9.3-4.4 13-4.5 2.5 0.1 4.9 0.5 7.3 1.3z m0 49.5v8.1c-1.8 0.7-3.2 1.5-4.2 2.3-1.2 1-2.1 2.4-2.4 4.1-0.4 1.7-0.2 3.5 0.4 5.4 1 3 2.9 5.3 5.6 6.9l0.6 0.3v11.2l-5.1 1.8-2.2-6.4 6-2.1c-5.7-1.5-9.6-5.2-11.6-11-0.9-2.5-1.2-5-1-7.5 0.2-2.5 0.8-4.4 2-6 1.1-1.6 2.6-2.9 4.5-4.1 1.2-0.7 3.5-1.6 6.8-2.8l0.6-0.2z m0 49.7v7.7l-2.3 0.4-1.4-7.4 3.7-0.7z m0 31v5c-0.2-1.7-0.2-3.4 0-5z m0 38.1v19c-0.4-0.9-0.7-1.8-0.9-2.9-0.7-3-0.8-6.4-0.3-10.2 0.2-2.2 0.6-4.2 1.2-5.9z m0 79.1v8.4c-2.6-0.3-5.2-0.9-7.8-1.8-6.1-2-11-4.9-14.8-8.7-3.8-3.8-6.2-8.2-7.1-13.3-1-5.1-0.6-10.2 1.1-15.3 1.9-5.9 5-10.3 9.3-13.3 4.3-3 9.4-4.4 15.3-4.2l-0.7 8.2c-4.7 0-8.4 0.9-11.2 2.9-2.8 1.9-4.8 4.9-6.1 8.8-1.5 4.5-1.6 8.6-0.4 12.3 1.2 3.7 3.4 6.8 6.6 9.2 3.2 2.4 6.8 4.2 10.6 5.5 1.7 0.5 3.5 0.9 5.2 1.3z m-64.7 120.5v-7.1c1.2-0.4 2.3-1.2 3.6-2.1 2.3-1.8 3.9-3.9 4.8-6.4 1-2.4 1.2-4.8 0.6-7.2-0.4-1.8-1.7-4.1-3.8-6.6l-1.7-2.2c-0.8 1.4-1.9 3.1-3.5 5v-20.5c0.2 0.2 0.5 0.3 0.7 0.5 1 0.8 2.6 2.6 4.7 5.2l6.3 7.8c4.4 5.5 7.3 8.8 8.8 10 1.4 1.2 3 2.2 4.8 3l-6.1 5c-1.6-0.7-3.1-1.8-4.6-3.3-0.7 3.6-1.7 6.6-3.1 9-1.4 2.4-3.3 4.5-5.6 6.4-2.1 1.6-4 2.7-5.9 3.5z m0-63.3l34.4 32.1 5.1-5.5-39.6-36.9v10.3h0.1z m54.2-195.7l-8.5 1.7-1.4-7.4 8.5-1.7 1.4 7.4z m-54.2 185.4v10.3l-10.5-9.8 5.1-5.5 5.4 5z m0 26.5v20.5c-1.2 1.5-2.7 3.2-4.3 5-2.1 2.3-3.5 4.1-4.2 5.3-0.7 1.2-0.9 2.5-0.8 3.8 0.1 1.3 0.6 2.4 1.4 3.5 1.3 1.6 2.9 2.4 5 2.5 0.9 0 1.9-0.1 2.9-0.5v7.1c-1.7 0.6-3.4 0.9-5.1 0.8-3.5-0.2-6.5-1.8-8.8-4.6-1.4-1.7-2.3-3.6-2.6-5.6-0.4-2-0.3-4 0.3-5.8 0.6-1.9 1.4-3.6 2.7-5.3 0.9-1.2 2.4-2.9 4.5-5.1 4.3-4.4 7.2-7.9 8.8-10.5-0.6-0.8-1-1.3-1.2-1.6-1.9-2.4-3.9-3.6-5.8-3.7-2.6-0.1-5.3 1-8.3 3.4-2.8 2.2-4.4 4.4-4.9 6.4s-0.1 4.5 1.2 7.5l-3.9 2.4v-17.5c1.3-1.5 2.8-2.9 4.5-4.3 3-2.4 5.6-4 8-4.8 2.4-0.8 4.5-1 6.2-0.7 1.5 0.1 2.9 0.8 4.4 1.8zM644.3 630v-10.9l4.7 8.2-4.7 2.7z m0-54.9v17.5l-2.5 1.5c-1.5-2.9-2.2-5.6-2.2-8 0-2.5 0.8-5.1 2.4-7.7 0.6-1.1 1.4-2.2 2.3-3.3z m0 44l-9-15.5c-1.7-3-3.1-5.1-4-6.2-1.5-1.6-3.1-2.9-4.8-3.6-1.8-0.8-3.8-1.1-6.3-0.8-2.4 0.3-4.8 1.1-7.1 2.4-5.3 3.1-8.2 7.6-8.6 13.5l-3.2-5.5-3.8 2.2v4.9l20.2 34.9 6.5-3.8-12.2-21.1c-2.9-5-3.8-8.9-2.8-11.8 1-2.9 2.9-5.2 5.7-6.8 1.7-1 3.5-1.5 5.3-1.4 1.7 0 3.3 0.6 4.5 1.6 1.3 1 2.7 2.9 4.2 5.5l13.6 23.5 1.8-1.1v-10.9z m-46.8 28.8v-19.4c1.8 5.4 2.5 9.9 1.9 13.5-0.2 2.1-0.9 4.1-1.9 5.9z m0-42.3v4.9l-2.1-3.7 2.1-1.2z m0 22.9v19.4c-0.7 1.3-1.6 2.6-2.7 3.8-2.5 2.8-5.6 4.8-9.3 6.1-2.6 0.9-5.2 1.4-7.6 1.4v-6.6c1.8 0.2 3.7 0 5.6-0.6 3.5-1.2 6-3.6 7.5-7.1 1.4-3.5 1.2-8-0.7-13.5-1.8-5.2-4.3-8.8-7.6-10.6-1.5-0.9-3.1-1.4-4.7-1.6v-6.6c3 0 5.9 0.7 8.6 2.1 5 2.5 8.6 7.1 10.9 13.8zM578 612.4v6.6c-1.8-0.2-3.6 0-5.5 0.6-3.6 1.2-6.1 3.6-7.5 7.1-1.4 3.5-1.2 7.9 0.6 13.3 1.9 5.4 4.4 9 7.7 10.9 1.5 0.9 3.1 1.4 4.7 1.6v6.6c-3 0-5.9-0.7-8.6-2.1-4.9-2.5-8.6-7.3-11.1-14.5-2.7-7.8-2.5-14.3 0.5-19.6 2.5-4.4 6.4-7.5 11.6-9.2 2.6-0.8 5.1-1.3 7.6-1.3z m-44.9 56.2v-1.4l0.3 1.3-0.3 0.1z m0-60.4v-1.7l7.1-1.4 1.7 8.5-7.4 1.4-1.4-6.8z m11.4 58.7l-8.5-43.7 7.4-1.4 8.5 43.7-7.4 1.4z m-11.4-60.4v1.7l-0.3-1.7h0.3z m0 60.7v1.4c-1.9 0.6-3.7 0.9-5.3 1.1-2.7 0.2-4.9 0-6.5-0.7-1.6-0.7-2.7-1.8-3.5-3.1-0.7-1.3-1.3-4.3-1.7-8.8l-2.2-25.5-5.5 0.5-0.5-5.8 5.5-0.5-1-11 7.1-5.2 1.4 15.5 7.6-0.7 0.5 5.8-7.6 0.7 2.3 25.9c0.2 2.2 0.4 3.5 0.7 4.1 0.3 0.6 0.8 1 1.4 1.4 0.6 0.3 1.5 0.4 2.6 0.3 0.8-0.1 1.9-0.3 3.3-0.6l1.4 5.2z m-51.3 2.4V664c1.5-0.2 3-0.6 4.4-1.2 2.4-1.1 4.2-2.7 5.4-4.8 1-1.6 1.6-4.1 1.9-7.4l0.2-2.8c-2.7 0.8-6.7 1.4-11.9 1.7v-6.3c5.5-0.2 9.7-0.7 12.4-1.4 0.1-1 0.2-1.7 0.2-2 0.3-3.1-0.3-5.3-1.6-6.7-1.8-1.9-4.6-3-8.3-3.3-1-0.1-1.9-0.1-2.7-0.1v-6.2c1.4 0 2.8 0 4.4 0.1 3.8 0.3 6.8 1.1 9.1 2.2s3.9 2.4 4.9 3.8c1 1.5 1.6 3.2 1.9 5.3 0.1 1.3 0.1 3.6-0.2 7l-0.9 10c-0.6 7-0.8 11.4-0.7 13.3 0.2 1.9 0.6 3.7 1.4 5.5l-7.9-0.7c-0.6-1.6-1-3.5-1-5.6-3 2.1-5.8 3.6-8.5 4.3-0.8 0.6-1.7 0.7-2.5 0.9z m0-45.8v6.2c-2.2 0.1-4 0.5-5.3 1.3-1.8 1.1-3.2 3.2-4.3 6.3l-7.3-1.7c0.9-3.1 2.3-5.5 4-7.3 1.7-1.8 4.1-3.1 7-3.9 1.8-0.6 3.7-0.9 5.9-0.9z m0 19.5v6.3h-0.6c-3.1 0.2-5.4 0.5-6.7 0.9-1.3 0.4-2.4 1.2-3.2 2.2-0.8 1-1.2 2.2-1.4 3.5-0.2 2 0.4 3.7 1.8 5.2s3.6 2.3 6.5 2.6c1.2 0.1 2.4 0.1 3.5 0v5.6c-1.9 0.3-3.8 0.3-5.9 0.2-4.9-0.4-8.5-1.9-10.9-4.5-2.4-2.6-3.4-5.8-3.1-9.5 0.2-2.2 0.9-4.1 2-5.8 1.1-1.7 2.6-3 4.3-4 1.7-0.9 3.6-1.6 5.6-2 1.5-0.3 3.8-0.4 6.8-0.5l1.3-0.2z m-65 13.8v-16.9l7.8-27.2 6.5 1.9-1.7 6.1c4.5-3.8 9.7-4.9 15.7-3.2 2.6 0.7 4.8 1.9 6.7 3.4 1.9 1.6 3.2 3.2 3.8 5.1 0.7 1.8 0.9 3.8 0.7 6-0.1 1.4-0.7 3.8-1.6 7.2l-7.6 26.3-7.3-2.1 7.5-26.1c0.8-2.9 1.2-5.2 1.1-6.9-0.1-1.6-0.8-3.1-2-4.4-1.2-1.3-2.7-2.2-4.7-2.8-3.1-0.9-6-0.7-8.9 0.7-2.8 1.3-5 4.7-6.6 10.2l-6.7 23.4-2.7-0.7z m0-38.7l4.5-4.4c-1.3-2-2.8-3.5-4.5-4.6v9z m0-9v9.1l-0.8 0.8c-1.2-1.8-2.6-3-4.3-3.8-1.5-0.7-3.1-0.9-4.7-0.5-1.6 0.3-3 1.2-4.3 2.6-1.9 2.1-3.5 4.6-4.9 7.5l-9.9 21.1-4.7-2.2v-5.5l16.7-35.8 6.2 2.9-2.9 6.1c2.9-2.1 5.2-3.3 7-3.6 1.7-0.3 3.4-0.1 5 0.7 0.6 0 1.1 0.3 1.6 0.6z m0 30.8l-4.5 15.6 4.5 1.3v-16.9z m-33.6-26.8c1.9-4.3 2.5-8.5 1.8-12.4-0.3-2-1-3.8-1.8-5.5v17.9z m0-18v17.9c-0.7 1.6-1.6 3.3-2.7 5-0.2 0.4-0.6 0.9-1.1 1.7l-21.8-14.2v-7.4l18.5 12c1.8-3.3 2.5-6.2 2.2-8.6-0.4-3.8-2.3-6.7-5.5-8.8-2.9-1.9-6-2.5-9.2-1.8-2.2 0.5-4.2 1.5-6 3.1v-8.6c0.8-0.3 1.7-0.6 2.6-0.9 5.5-1.4 10.8-0.4 16 3 3.1 2.1 5.5 4.6 7 7.6z m0 42.9v5.5l-2.1-1 2.1-4.5z m-25.6-8.1v-6.8c1.3 0.4 2.7 0.6 4.1 0.5 2.4-0.1 5-1.2 7.7-3.3l6 5.1c-3.5 3.2-7.4 4.9-11.5 5.2-2.1 0.2-4.2-0.1-6.3-0.7z m0-69.2v-3.1l2.3 0.4-2.3 2.7z m0-3.1v3.1l-7.1 8.1v-11.5l0.8-0.9 6.3 1.2z m0 27.8v8.6c-0.8 0.7-1.6 1.6-2.3 2.6l2.3 1.5v7.4l-6.1-3.9c-0.4 0.7-0.7 1.3-1 1.9v-13.3c2.2-2.1 4.6-3.7 7.1-4.8z m0 37.7v6.8c-2.1-0.6-4.3-1.7-6.4-3.1-0.2-0.1-0.4-0.3-0.6-0.4v-8.8c1 1.6 2.3 2.9 4.1 4.1 0.9 0.6 1.9 1.1 2.9 1.4z m-7.1-44.9v-7.8l4.9 4.3-3.9 4.4-1-0.9z m0-20.8v11.5l-0.8 0.9 0.8 0.7v7.8l-4.7-4.1-17.1 19.7c-1.4 1.6-2.2 2.8-2.4 3.4-0.2 0.6-0.2 1.3 0 2s0.7 1.4 1.6 2.1c0.6 0.6 1.5 1.2 2.7 2l-3.6 5.7c-0.9-0.5-1.7-1-2.5-1.5v-20.3l15.6-17.9-4.2-3.6 3.9-4.4 4.2 3.6 6.5-7.6z m0 32.8c-1.7 1.6-3.2 3.6-4.7 5.8-4 6.1-5.4 11.8-4.4 17.3 1 5.2 4 9.6 9.1 13.1v-8.8c-0.8-1.3-1.3-2.7-1.6-4.3-0.6-3 0-6.2 1.6-9.8v-13.3z m-25.9-22.9c1.7-1.5 2.9-2.7 3.6-3.6 1.3-1.7 2.3-3.5 2.7-5.4 0.5-1.9 0.4-4-0.3-6.3s-1.9-4.5-3.6-6.6c-0.8-0.9-1.6-1.7-2.4-2.4v24.3z m-27.8-310l24.5 13-12.8 24.1c-2.6 4.8-5 8.3-7.3 10.3-1.3 1.1-2.8 2-4.4 2.5v-9c2-1.3 3.8-3.5 5.5-6.7l9.1-17.2-14.7-7.8v-9.2h0.1z m27.8 285.7v24.3c-0.5 0.5-1.1 1-1.7 1.5l-21 17.6-4.9-5.8 20.8-17.4c2.3-2 3.9-3.7 4.7-5.1 0.8-1.4 1-3 0.8-4.7-0.3-1.7-1-3.4-2.3-4.9-2.1-2.5-4.6-3.9-7.7-4.4-3.1-0.5-6.8 1.1-11.2 4.8l-5.3 4.4v-9.9l15.9-13.4 4.4 5.2-4.8 4.1c4.7-0.5 8.8 0.7 12.3 3.7z m0 44.2v20.3c-0.8-0.6-1.6-1.1-2.3-1.7-2.1-1.8-3.4-3.5-4-5.2-0.6-1.6-0.6-3.2-0.2-4.7 0.5-1.5 2.2-3.9 5.1-7.3l1.4-1.4z m-27.8-60.9V517l19.7-12.3 4.3 6.9-24 15zM267 241.8l29.8 15.8v9.2l-3.3-1.7-8.2 15.4c-1.7 3.3-2.8 6-3.1 8.2-0.3 2.2 0 4.2 1 6 1 1.8 2.3 3.1 4.1 4 2.6 1.4 5.2 1.6 7.8 0.6 0.6-0.2 1.1-0.5 1.6-0.8v9c-1.2 0.4-2.6 0.7-4 0.8-3.3 0.2-6.4-0.5-9.4-2.1-3.9-2-6.4-5-7.7-8.9-1.3-3.9-0.9-8.6 1.1-14.2-1.9 1.4-3.6 2.4-5 2.9-3 1.1-6.5 1.8-10.4 2.1l-1.5 0.1v-8.6l1.7-0.1c4.4-0.4 7.8-0.8 10.2-1.2 2.5-0.4 4.3-1 5.6-1.7 1.3-0.7 2.3-1.5 3.2-2.5 0.6-0.7 1.4-2 2.4-3.9l4.4-8.3-24.1-12.9 3.8-7.2zM296.8 517v9.6l-28.2 17.6-4.3-6.9 32.5-20.3z m0 26.7L278.6 559l4.9 5.8 13.3-11.2v-9.9z m-37-92.2v-7.7l29.1-6.7 1.7 7.4-30.8 7z m0-18.6v-8.3c0.6-0.4 1.1-0.8 1.5-1.3 1.6-2 2.2-5 2-8.8-0.2-3.5-1-6.1-2.4-7.7-0.3-0.4-0.7-0.7-1.1-1v-8.3c0.9 0.4 1.8 0.9 2.6 1.4 2.1 1.4 3.7 3.5 5 6.3 1.2 2.8 2 6.1 2.3 10 0.3 3.8 0 6.9-0.7 9.3-0.7 2.4-1.7 4.3-3 5.5-1.3 1.2-2.9 2.1-5 2.7-0.3 0.1-0.7 0.2-1.2 0.2z m0-44.6v-7.8l7.8 3.7-0.7 7.5-7.1-3.4z m0-26.5v-7.7l10.7-3-0.7 8.1-10 2.6z m0-16.3c2.7-0.2 5.1-1 7.4-2.2 4.9-2.6 8.2-6.9 9.9-12.8 1.5-5.3 1.2-10.3-0.9-14.8-2.6-5.5-7.8-9.4-15.7-11.7l-0.7-0.2v8.1c4.7 1.6 8 3.8 9.8 6.7 2 3.2 2.5 6.6 1.5 10.2-1 3.6-3.2 6.2-6.7 7.8-1.4 0.7-2.9 1.1-4.6 1.2v7.7z m0-57.3l-18.3 1.5 4.8-9 13.5-1v8.5z m0 15.6v8.1c-0.5-0.2-0.9-0.3-1.4-0.4-5.5-1.6-9.9-1.5-13.4 0.1-3.4 1.6-5.7 4.2-6.7 7.9-0.2 0.6-0.3 1.2-0.4 1.9v-13.3c1.3-1.2 2.7-2.3 4.4-3.2 4.8-2.6 10.6-3 17.5-1.1z m0 34v7.7c-3.1 0.3-6.5-0.1-10.2-1.2-5.1-1.5-9-3.3-11.7-5.6v-14.1c0.2 1.7 0.9 3.4 1.9 5 2.1 3.2 5.9 5.6 11.5 7.2 3.2 0.8 6 1.2 8.5 1z m0 16.3v7.7l-16.5 4.4c-1.8 0.5-3.6 0.9-5.4 1.3v-7.2l21.9-6.2z m0 26.4v7.8l-21.9-10.4v-7.4c1.6 0.6 3.1 1.3 4.7 2l17.2 8z m0 17v8.3c-1.4-1.1-3.3-1.8-5.8-2.3l0.5-7.4c2 0.3 3.8 0.7 5.3 1.4z m0 27.1c-1.2 0.7-2.8 1.1-4.8 1.3-0.3 0-0.9 0-2 0.1-1.2-2.8-2.4-7.2-3.5-13.3-0.6-3-1.1-5.2-1.6-6.6-0.7-2-1.7-3.7-2.9-5.3-1.2-1.5-2.7-2.7-4.6-3.6-0.8-0.4-1.7-0.7-2.5-0.8v8.2c0.3 0.1 0.6 0.2 0.9 0.4 1.1 0.6 2 1.6 2.7 2.8 0.6 1.2 1.3 3.4 2 6.5 1.2 5.4 2.4 9.4 3.7 12.1l-2.8 0.2c-2.6 0.2-4.8 0.1-6.4-0.3v8.5c1.7-0.2 3.8-0.3 6.1-0.5l10-0.7c2.5-0.2 4.4-0.4 5.8-0.6v-8.4h-0.1z m0 19.1v7.7l-21.9 5v-7.7l21.9-5z m-21.9-135.8v13.3c-0.2 1.1-0.2 2.2 0 3.3v14.1l-0.6-0.6c-2.7-2.6-4.5-5.7-5.3-9.3-0.8-3.7-0.7-7.4 0.4-11.1 1.1-3.9 3-7.2 5.5-9.7z m0 52.4v7.2c-1.7 0.4-3.4 0.7-5.2 1 1.7 0.6 3.5 1.3 5.2 1.9v7.4l-14.6-7c-4.7-2.2-8-3.9-9.7-5.1-2.4-1.6-4-3.2-5.1-5.1-1-1.8-1.4-3.9-1.2-6.3 0.1-1.4 0.6-3 1.4-4.8l7.1-0.2c-0.6 1.6-0.9 3-1 4.3-0.1 1.7 0 3 0.5 4.1 0.5 1.1 1.2 1.9 2.1 2.7 0.7 0.6 2.5 1.5 5.4 2.8 0.4 0.2 1 0.5 1.8 0.8l13.3-3.7z m0 36.1v8.2c-0.9-0.3-1.8-0.5-2.8-0.4-2 0.1-3.6 1-4.9 2.6-1.2 1.6-1.7 3.9-1.5 6.8 0.2 2.9 1 5.4 2.4 7.6 1.4 2.2 3.3 3.7 5.6 4.6 0.4 0.1 0.7 0.3 1.2 0.4v8.5c-3.6 0.3-6 0.6-7.2 0.9-1.8 0.4-3.6 1.2-5.2 2.3l-0.5-7.9c1.5-0.9 3.3-1.5 5.4-1.9-2.6-2.6-4.4-5.2-5.6-7.7-1.2-2.5-1.8-5.3-2-8.2-0.3-4.9 0.6-8.7 2.8-11.5 2.2-2.8 5.2-4.3 8.9-4.6 1.1 0 2.3 0.1 3.4 0.3z m0 52.4v7.7l-7.2 1.7-1.7-7.4 8.9-2z" p-id="4464"></path><path d="M410.5 772c1.4-0.8 2.8-1.7 3.9-2.8 9.8-9.5 22.1-15.9 34.8-18 3.6-0.6 6 2.3 1.5 4.8-13.9 7.4-25 21-29.6 37.4-0.4 1-1.7 2.3-3.9 1-2.2-1.5-4.4-2.9-6.7-4.3V772z m0 43.7v-7.5c1.3 0.6 2.5 1.3 3.7 2 6.5 3.7 4.1 9.2-2.5 6.1l-1.2-0.6z m0-11.3c2 0 4-1.2 4.8-3.2 1-2.6-0.3-5.5-2.9-6.5-0.6-0.2-1.2-0.3-1.8-0.3v10z m-18.6-61.9c0.7-0.2 1.4-0.3 2.1-0.3 4.6 0 8.4 3.7 8.4 8.2 0 4.5-3.8 8.2-8.4 8.2-0.7 0-1.3-0.1-2-0.2 0 0.2-0.1 0.4-0.1 0.6v-16.5z m0 23.3c0.9 3.5 3.2 6.3 6.6 7.6 3.6 1.4 8.2 0.6 11.9-1.5v18c-5.9-3.5-12.1-6.5-18.5-8.9v-15.2z m18.6 28.6v10c-0.6 0-1.2-0.1-1.8-0.3-2.6-1-3.9-3.9-2.9-6.5 0.7-2 2.6-3.2 4.7-3.2z m0 13.8c-5.8-3-12-5.5-18.5-7.5v8.2c6.5 1.8 12.7 4.1 18.5 6.8v-7.5z m-18.6-11.4c2.6 0 5-1.7 5.7-4.3 0.8-3.1-1.1-6.2-4.3-7-0.5-0.1-0.9-0.2-1.4-0.2v11.5z m-20.2-65.2c1 1.8 1.6 3.7 1.8 6 0.2 2.8-0.5 5.4-1.8 7.5v-13.5z m0 35.2v8.7c7 1.3 13.8 3.2 20.3 5.7v-15.3c-0.5-2.1-0.5-4.4 0-6.8v-16.4c-3.6 0.9-6.2 4.1-6.2 7.9 0 2.9 1.6 5.5 4 7-3.3 5.5-10.4 9.3-17.6 9.3-0.3-0.1-0.4-0.1-0.5-0.1z m20.2 18.5v11.5c-0.5 0-0.9-0.1-1.4-0.2-3.1-0.8-5-3.9-4.3-6.9 0.7-2.6 3.1-4.4 5.7-4.4z m0 15.5c-6.5-2-13.3-3.5-20.3-4.5v8.6c6.9 0.9 13.7 2.3 20.3 4.1v-8.2z m-20.2-8.4v-12.9h0.8c3.6 0.4 6.2 3.7 5.7 7.2-0.4 3.3-3.3 5.7-6.5 5.7zM349.9 706c4.4 13.4 17 17.2 21.7 25.6v13.5c-3.4 5.5-11.1 7.7-18.5 1.3-0.1 0.7-0.1 1.4-0.1 2.1 0 9.9 8.3 18 18.6 18.2v8.7c-7-1.3-14.3-2-21.7-2V706z m21.8 73.4v12.9h-0.8c-3.6-0.4-6.2-3.7-5.7-7.2 0.3-3.3 3.2-5.7 6.5-5.7z m0 16.8v8.6c-7.1-1-14.4-1.4-21.7-1.4v-8.7c7.2-0.1 14.5 0.5 21.7 1.5z m-21.8-4.8v-14.6c4.1 0 7.4 3.3 7.4 7.3 0.1 4-3.3 7.3-7.4 7.3z m0-18c-7.4 0-14.7 0.7-21.7 2v-8.7c10.3-0.2 18.6-8.3 18.6-18.2 0-0.7 0-1.4-0.1-2.1-7.4 6.5-15.1 4.2-18.5-1.3v-13.5c4.8-8.4 17.3-12.2 21.7-25.6v67.4z m0 3.4v14.6c-4.1 0-7.4-3.3-7.4-7.3s3.3-7.3 7.4-7.3z m0 17.8v8.7c-7.3 0-14.6 0.5-21.7 1.4v-8.6c7.2-0.9 14.5-1.5 21.7-1.5z m-21.7-2.2v-12.9c3.3 0 6.1 2.4 6.5 5.7 0.4 3.5-2.1 6.8-5.7 7.2-0.2-0.1-0.5 0-0.8 0z m0-17c-7 1.3-13.8 3.2-20.3 5.7v-15.3c0.5-2.1 0.5-4.4 0-6.7v-16.5c3.6 0.9 6.2 4.1 6.2 7.9 0 2.9-1.6 5.5-4 7 3.3 5.5 10.4 9.3 17.6 9.3h0.4v8.6h0.1z m0-30.3v-13.5c-1 1.8-1.6 3.7-1.8 6-0.2 2.8 0.5 5.4 1.8 7.5z m0 34.3h-0.8c-3.6 0.4-6.2 3.7-5.7 7.2 0.4 3.3 3.3 5.7 6.5 5.7v-12.9z m0 16.8v8.6c-6.9 0.9-13.7 2.3-20.3 4.1v-8.2c6.6-2 13.4-3.5 20.3-4.5z m-20.2 0.6c0.5 0 0.9-0.1 1.4-0.2 3.1-0.8 5-3.9 4.3-6.9-0.7-2.6-3.1-4.3-5.7-4.3v11.4z m0-15.7c-6.5 2.4-12.7 5.4-18.5 8.9v-18c3.8 2.1 8.3 2.9 11.9 1.5 3.4-1.3 5.7-4.1 6.6-7.7v15.3z m0-22.1c0-0.2-0.1-0.4-0.1-0.6-0.6 0.2-1.3 0.2-2 0.2-4.6 0-8.4-3.7-8.4-8.2 0-4.5 3.8-8.2 8.4-8.2 0.7 0 1.4 0.1 2.1 0.3V759z m0 26.3c-0.5 0-0.9 0.1-1.4 0.2-3.1 0.8-5 3.9-4.3 7 0.7 2.6 3.1 4.3 5.7 4.3v-11.5z m0 15.5v8.2c-6.5 1.8-12.7 4.1-18.5 6.8v-7.5c5.7-3 12-5.5 18.5-7.5z m-18.6 3.6c0.6 0 1.2-0.1 1.8-0.3 2.6-1 3.9-3.9 2.9-6.5-0.8-2-2.7-3.2-4.8-3.2v10z m0-14.4c-2.3 1.3-4.5 2.8-6.7 4.3-2.2 1.3-3.5 0.1-3.9-1-4.5-16.3-15.7-29.9-29.6-37.4-4.6-2.4-2.1-5.4 1.5-4.8 12.7 2 25 8.5 34.8 18 1.1 1.1 2.4 2 3.9 2.8V790z m0 4.4c-0.6 0-1.2 0.1-1.8 0.3-2.6 1-3.9 3.9-2.9 6.5 0.8 2 2.7 3.2 4.8 3.2v-10h-0.1z m0 13.8v7.5c-0.4 0.2-0.8 0.4-1.3 0.6-6.6 3.1-9-2.4-2.5-6.1 1.3-0.7 2.6-1.3 3.8-2zM239.7 859.5c5.6-3.9 10-8.5 13.1-13.7 3.1-5.2 4.7-10.7 4.7-16.4 0-1.7-0.5-3.3-1.4-4.8-0.9-1.5-2.2-2.9-3.9-4-1.7-1.2-3.6-2.1-5.8-2.7-2.2-0.7-4.5-1-6.9-1h-43c-16.7 0-31.1 4.2-43 12.6-11.9 8.3-17.8 18.3-17.8 30.1v30.1c0 3.5 1.8 6.4 5.3 8.9s7.7 3.7 12.5 3.7c2.5 0 4.9-0.3 7.1-1 2.2-0.7 4.1-1.5 5.7-2.7 1.6-1.1 2.9-2.4 3.8-4 0.9-1.5 1.4-3.2 1.4-5v-30.1c0-4.8 2.4-9 7.3-12.3 4.9-3.5 10.9-5.2 17.8-5.2h17.6c-4.8 3.3-10.7 5-17.6 5-2.5 0-4.9 0.3-7 1-2.1 0.7-4 1.6-5.6 2.7-1.6 1.2-2.9 2.5-3.8 4-0.9 1.5-1.4 3.2-1.4 4.8 0 3.5 1.8 6.4 5.3 8.9s7.7 3.7 12.5 3.7c6.9 0 12.9 1.7 17.8 5.2s7.4 7.6 7.4 12.3c0 3.5 1.8 6.4 5.3 8.9s7.7 3.7 12.5 3.7c2.4 0 4.7-0.3 6.9-1s4.1-1.6 5.8-2.7c1.6-1.2 2.9-2.5 3.9-4 0.9-1.5 1.4-3.1 1.4-4.9 0-5.8-1.6-11.2-4.7-16.4-3.3-5.3-7.6-9.8-13.2-13.7z m174.1 0c0-11.8-6-21.8-18-30.1-11.9-8.4-26.2-12.6-43-12.6-16.7 0-31.1 4.2-43 12.6-11.9 8.3-17.8 18.3-17.8 30.1s5.9 21.9 17.8 30.2 26.2 12.5 43 12.5 31.2-4.1 43-12.5c12-8.4 18-18.5 18-30.2z m-35.8 0c0 5-2.5 9.1-7.4 12.5-5.1 3.4-11 5.1-17.8 5.1-6.8 0-12.8-1.7-17.8-5.1-4.8-3.5-7.3-7.7-7.3-12.5s2.4-9 7.3-12.3c4.9-3.5 10.9-5.2 17.8-5.2s12.9 1.7 17.8 5.2c5 3.4 7.4 7.5 7.4 12.3z m145.5 10.6c12.3-2.6 22.6-7.7 30.8-15.3 8.1-7.5 12.2-16 12.2-25.4 0-1.7-0.5-3.3-1.4-4.8-0.9-1.5-2.2-2.9-3.9-4-1.7-1.2-3.6-2.1-5.8-2.7-2.2-0.7-4.5-1-6.9-1-2.5 0-4.9 0.3-7 1-2.1 0.7-4 1.6-5.6 2.7-1.6 1.2-2.9 2.5-3.8 4-0.9 1.5-1.4 3.2-1.4 4.8 0 5-2.5 9.1-7.4 12.5-5.1 3.4-11 5.1-17.8 5.1-6.8 0-12.8-1.7-17.8-5.1-4.8-3.5-7.3-7.7-7.3-12.5 0-1.7-0.5-3.3-1.4-4.8-0.9-1.5-2.2-2.9-3.9-4-1.7-1.2-3.6-2.1-5.8-2.7-2.2-0.7-4.5-1-6.9-1-2.5 0-4.9 0.3-7 1-2.1 0.7-4 1.6-5.6 2.7-1.6 1.2-2.9 2.5-3.8 4-0.9 1.5-1.4 3.2-1.4 4.8 0 9.5 4 18 12 25.5 8.1 7.5 18.5 12.6 31 15.2v19.5c0 3.5 1.8 6.4 5.3 8.9s7.7 3.7 12.5 3.7c2.4 0 4.7-0.3 6.9-1s4.1-1.6 5.8-2.7c1.6-1.2 2.9-2.5 3.9-4 0.9-1.5 1.4-3.1 1.4-4.9v-19.5h0.1z m195.8-10.6c0-11.8-6-21.8-18-30.1-11.9-8.4-26.2-12.6-43-12.6-16.7 0-31.1 4.2-43 12.6-11.9 8.3-17.8 18.3-17.8 30.1v30.1c0 3.5 1.8 6.4 5.3 8.9s7.7 3.7 12.5 3.7c2.5 0 4.9-0.3 7.1-1 2.2-0.7 4.1-1.5 5.7-2.7 1.6-1.1 2.9-2.4 3.8-4 0.9-1.5 1.4-3.2 1.4-5v-30.1c0-4.8 2.4-9 7.3-12.3 4.9-3.5 10.9-5.2 17.8-5.2s12.9 1.7 17.8 5.2 7.4 7.6 7.4 12.3v30.1c0 3.5 1.8 6.4 5.3 8.9s7.7 3.7 12.5 3.7c2.4 0 4.7-0.3 6.9-1s4.1-1.6 5.8-2.7c1.6-1.2 2.9-2.5 3.9-4 0.9-1.5 1.4-3.1 1.4-4.9v-30h-0.1z m-43.1 0c0 1.8-0.5 3.4-1.4 4.9-0.9 1.5-2.2 2.8-3.9 4-1.6 1.2-3.6 2.1-5.8 2.7-2.2 0.7-4.5 1-6.9 1-4.8 0-9-1.2-12.5-3.7s-5.3-5.4-5.3-8.9c0-1.7 0.5-3.3 1.4-4.8 0.9-1.5 2.2-2.9 3.8-4 1.6-1.2 3.5-2.1 5.6-2.7 2.1-0.7 4.5-1 7-1 2.4 0 4.7 0.3 6.9 1s4.1 1.6 5.8 2.7c1.6 1.2 2.9 2.5 3.9 4 0.9 1.4 1.4 3.1 1.4 4.8z m201.2 30c0-1.7-0.5-3.3-1.4-4.8-0.9-1.5-2.2-2.9-3.9-4-1.7-1.2-3.6-2.1-5.8-2.7-2.2-0.7-4.5-1-6.9-1h-68.1v-47.6c0-1.7-0.5-3.3-1.4-4.8-0.9-1.5-2.2-2.9-3.9-4-1.7-1.2-3.6-2.1-5.8-2.7-2.2-0.7-4.5-1-6.9-1-2.5 0-4.9 0.3-7 1-2.1 0.7-4 1.6-5.6 2.7-1.6 1.2-2.9 2.5-3.8 4-0.9 1.5-1.4 3.2-1.4 4.8v60.2c0 3.5 1.8 6.4 5.3 8.9s7.7 3.7 12.5 3.7h86.1c2.4 0 4.7-0.3 6.9-1s4.1-1.6 5.8-2.7c1.6-1.2 2.9-2.5 3.9-4 1-1.6 1.4-3.2 1.4-5zM280 955.5h-7.3v-33h7.3v13h13.1v-13h7.5v33h-7.3V941H280v14.5z m52.6-33.1h7.5v20.7c-0.4 8.2-5.4 12.4-15 12.7-9.9-0.2-14.9-4.5-15.2-12.7v-20.7h7.5v18c-0.5 7.4 2.1 10.9 7.7 10.5 5.4 0.4 7.9-3.2 7.5-10.5v-18z m21.4 33.1h-7.1l12.6-33h8.8l12.2 33H373l-2.6-7h-13.7l-2.7 7z m4.5-12.5h9.9l-4.7-14.1h-0.2l-5 14.1z m59.4 12.5h-10.7L393.8 928l-0.2 0.2v27.3h-6.9v-33h11.1l13.1 26.1 0.2-0.2v-25.9h6.9v33h-0.1z m31.9-12.2h-6.7v-5.5h14v16.6c-2.5 0.7-5.1 1.1-7.7 1.1-2 0.2-4.6 0.4-7.9 0.4-10.6-0.5-16-6.1-16.3-16.8 0.3-10.7 5.7-16.5 16.3-17.3 10.7 0 16.1 3.6 16.1 10.7h-7.9c0-3.7-2.3-5.5-6.9-5.5-6.5 0.2-9.7 4.3-9.7 12.1 0 7.9 3.2 11.8 9.7 12 1.9 0 4.1-0.2 6.6-0.5 0.1 0 0.2-0.1 0.4-0.2v-7.1z m40.5-20.9h7.3v22.1c-0.2 7.3-4.1 11-11.6 11.3-7.4 0.1-11.2-3.5-11.6-10.9h7.5c0 4 1.4 6.1 4.1 6.1 2.5 0 3.9-2 4.1-6.1 0-0.1 0.1-0.3 0.2-0.5v-22z m23.4 0v33h-7.5v-33h7.5z m13.2 33.1h-7.1l12.6-33h8.8l12.2 33h-7.5l-2.6-7h-13.7l-2.7 7z m4.4-12.5h9.9l-4.7-14.1h-0.2l-5 14.1z m62 0.3h-6.7v-5.5h14v16.6c-2.5 0.7-5.1 1.1-7.7 1.1-2 0.2-4.6 0.4-7.9 0.4-10.6-0.5-16-6.1-16.3-16.8 0.3-10.7 5.7-16.5 16.3-17.3 10.7 0 16.1 3.6 16.1 10.7h-7.9c0-3.7-2.3-5.5-6.9-5.5-6.5 0.2-9.7 4.3-9.7 12.1 0 7.9 3.2 11.8 9.7 12 1.9 0 4.1-0.2 6.6-0.5 0.1 0 0.2-0.1 0.4-0.2v-7.1z m39.8-20.9h7.5v20.7c-0.4 8.2-5.4 12.4-15 12.7-9.9-0.2-14.9-4.5-15.2-12.7v-20.7h7.5v18c-0.5 7.4 2.1 10.9 7.7 10.5 5.4 0.4 7.9-3.2 7.5-10.5v-18z m32.4 33.4c-10.9-0.2-16.4-5.8-16.7-16.8 0.2-11.2 5.8-17 16.7-17.3 10.6 0.4 16.1 6.1 16.5 17.3-0.4 11-5.9 16.6-16.5 16.8z m0-28.9c-6 0-8.9 4-8.8 12.1-0.1 8.1 2.8 12.1 8.8 12 5.7 0 8.6-4 8.6-12 0-8.1-2.8-12.1-8.6-12.1z m48.2-4.5h7.3v22.1c-0.2 7.3-4.1 11-11.6 11.3-7.4 0.1-11.2-3.5-11.6-10.9h7.5c0 4 1.4 6.1 4.1 6.1 2.5 0 3.9-2 4.1-6.1 0-0.1 0.1-0.3 0.2-0.5v-22z m23.4 0v33h-7.5v-33h7.5zM755.8 933.3H878v10.3H755.8zM128.4 933.3h122.2v10.3H128.4z" p-id="4465"></path></svg>