<?xml version="1.0" standalone="no"?><!DOCTYPE svg PUBLIC "-//W3C//DTD SVG 1.1//EN" "http://www.w3.org/Graphics/SVG/1.1/DTD/svg11.dtd"><svg t="1575514232836" class="icon" viewBox="0 0 1024 1024" version="1.1" xmlns="http://www.w3.org/2000/svg" p-id="3636" xmlns:xlink="http://www.w3.org/1999/xlink" width="200" height="200"><defs><style type="text/css"></style></defs><path d="M441.6 853.8v63h-13.8v-81.9H451c6.9 19 14 38.2 21.2 57.9 6.6-18.4 13.1-36.3 19.4-54.4 1.1-3.1 2.4-4.2 5.7-4.1 6.2 0.3 12.5 0.1 19.1 0.1v82.3H502v-63.2c-0.3-0.1-0.6-0.1-1-0.2-3.1 8.2-6.3 16.4-9.4 24.6-4.4 11.8-8.8 23.5-13 35.4-1.4 3.8-4 4.1-7.3 4-3.1-0.1-5-0.2-6.3-4.1-6.8-19.6-14.1-39.1-21.3-58.5-0.2-0.6-0.4-1.1-0.7-1.7-0.5 0.3-1 0.6-1.4 0.8zM681.2 835v81.5c-0.7 0.4-1.1 0.7-1.4 0.7-17.5 0.3-17.2 0.1-26-15.1-9-15.6-18.7-30.9-28.8-47.5v62.3h-14.8v-82.5c5.5 0 11.2-0.5 16.6 0.3 2.1 0.3 4.2 3.2 5.6 5.5 10.5 16.6 20.7 33.3 31.1 49.9 0.6 1 1.4 1.8 2.9 3.8v-50.5c0-8.8 0-8.8 8.6-8.4 2 0.1 4 0 6.2 0zM270.3 902.6v-16.1c0-1.2-0.1-2.4-0.2-4.1h-16.2c-0.4-0.9-0.8-1.5-0.8-2 0.2-10.9 0.3-10.9 11.5-10.9H285v43.9c-19.3 6.2-39 10.2-58-2.3-10.4-6.8-15.4-16.7-17.2-29.3-3.2-21.4 8.7-38.3 23.2-45.1 12.9-6 41-5.8 52.5 6.6-3.4 3.5-6.8 7.1-10.1 10.6-16.4-12.6-31.6-9.3-41-0.3-9.7 9.2-10.8 28.7-3 40.3 7.2 11.2 22.4 14.9 38.9 8.7zM778.1 882h-17.3v-12.1h30.7v42.8c-17.3 6.6-34.7 8.9-52.6 0.9-15.5-7-24.6-28.3-21.8-44.7 2.6-15.3 10.3-26.4 24-32.1 17.5-7.2 34.8-5.4 51.7 6-4.2 3.5-7.9 6.7-11.9 10-7.8-5-16.4-8.9-27.2-6.1-16.3 4.2-22.6 21-20.7 32.6 3.1 19.2 13.6 26.3 30.5 25.8 14.5-0.5 14.4-0.9 14.4-15.4 0.2-2.2 0.2-4.5 0.2-7.7zM373.9 898.7h-35.4c-1.4 3.5-3.3 6.9-4.1 10.4-1.6 7.4-6.3 9.3-13.1 8.3-1.8-0.3-3.7 0-6.9 0 2.4-5.8 4.5-11 6.7-16.2 9-21 18.2-41.9 27.1-62.9 1.3-3 2.7-4.2 5.9-3.9 2.7 0.3 5.4 0.1 8.8 0.1 11.7 27.1 23.5 54.4 35.5 82.3h-17.2c-2.2-5.6-4.6-11.7-7.3-18.1z m-17.6-46.2c-4.6 11.9-8.6 22.3-12.7 32.9h25c-4.1-10.8-8-21.2-12.3-32.9zM555.7 917.1c0-26.7-0.1-52.8 0.2-78.9 0-1.3 2.2-2.6 3.5-3.8 0.3-0.3 1.2 0 1.8-0.1 9.6-0.2 9.6-0.2 9.6 9.2 0 21.8 0 43.5-0.1 65.3 0 8.4 0 8.3-8.6 8.3h-6.4z" p-id="3637"></path><path d="M348.2 256.1c1.1-21.4 13.9-31.2 24-42.6 3-3.4 6.1-7.1 8-11.2 1.5-3.3 1.3-7.4 1.8-11.1-4.1-0.4-9.8-2.8-12.1-1-14.9 12.3-30.4 24.3-43.3 38.7-31 34.6-17.1 69.7 10.1 102.2 21 25.1 45.7 47.1 67.8 71.4 16.2 17.8 30.1 37.5 31 63.1 19.6-11.8 39.5-23.6 59-35.9 2.7-1.7 3.9-6.2 5.1-9.7 22.9-67.1 44.1-134.8 56.9-204.6 5.3-28.7 13.2-57.8 6.4-87.7-0.7-3 2.6-9.6 5.1-10.2 5.2-1.1 12.3-1.2 16.4 1.5 11.4 7.6 21.6 16.8 32.5 25.6-4.7 37.7-5.8 75.9 1.3 114.2 7.3 39.2 14.4 78.4 20.7 117.7 2.7 16.7 16.7 10.5 25.6 14.5 4.6 2.1 10.2 2.1 15 4.5-10.7 1-21.4 2-34.2 3.2 7.5 23.9 14.4 46 21 67.3 28.3-13.9 55.7-27.3 83.1-40.8l1.8 3.3c-19.3 13-38.6 26.2-58 39-21.3 14-21.7 14-13.5 37.7 18.1 52.3 36.5 104.5 54.9 156.7 6.7 18.9 14 37.6 20.5 56.6 6.3 18.3-1.8 39.3-19.3 51.4-12.6 8.7-30.1 9.3-46-5.4-38.6-35.6-77.5-71.1-114.9-107.9-17-16.7-28.2-38.5-30-62.7-2.1-28.1 11.1-51.4 30.3-70.6 12.3-12.4 26.5-23.2 41-32.9 5.8-3.8 5.7-6.7 4.3-11.5-7.1-23.5-14.3-47.1-21.9-71.8-16.1 6.4-32.7 13.8-49.9 19.6-15.1 5.1-21.9 15.4-27.8 29.8-8.4 20.2-19.9 39.3-32.2 57.5-7 10.4-18.7 16.7-33 11.5 9.3-19.2 18.5-38.1 27.7-56.9l-2.6-2.6c-11.8 8.8-24.5 16.6-35.2 26.5-21.6 20.2-42.5 41.5-63.6 62.6-24.4 24.4-52.5 43.6-85.3 53.7-13.3 4.1-29.3 3.3-43.3 0.6-17.1-3.3-22.7-26.1-12-41.3 16.3-23.2 40.9-35.6 64.6-48.9 9.7-5.5 20.4-9.5 31.1-13 4.1-1.4 9.3 0.4 13.9 0.7 0.5 1.8 1.1 3.7 1.6 5.5-17.4 13.6-34.8 27.3-53.8 42.2 26.5 5.8 57.4-11 64.3-32.9 0.9-2.8-2.5-6.8-2.4-10.2 0.2-5.7-0.5-13.1 2.7-16.8 15.3-17.7 16.3-25.9 0.1-43.3-14.5-15.6-30.5-29.8-45.4-45.1-20.2-20.8-42-40.4-59.2-63.4-24.4-32.5-23.2-68.4-1.6-102.3 30.9-48.6 74-84.1 125.6-108.9 15.2-7.3 32-12.3 48.6-15.2 14.1-2.5 22.4 7.6 23.8 22.2 2.6 26.5-7.5 47.2-27.7 63.2-20 15.9-40.3 31.4-60.9 46.5-4.4 3.3-10.6 4.5-18.5 7.7z m350.7 476.6c0.7-0.4 1.3-0.8 2-1.2-24-76-48-151.9-73-231-15.9 16.7-31.4 30.4-43.8 46.5-16.7 21.8-20.6 48.2-1 73.1 9.7 12.3 20 24.3 31.3 35 27.7 26.3 56.2 51.8 84.5 77.6zM596.3 391.3c-7.2-34.6-14.3-68.9-21.6-104.3-12.6 41.1-24.8 80.9-37.3 121.6 19.6-5.8 38.3-11.3 58.9-17.3z" p-id="3638"></path><path d="M766.1 395.4c-10.8 13.5-40 13.2-48.9-0.6-4.1-6.5-0.4-12.9 8-13.8 11.6-1.3 29 4.8 40.9 14.4z" p-id="3639"></path></svg>