<?xml version="1.0" standalone="no"?><!DOCTYPE svg PUBLIC "-//W3C//DTD SVG 1.1//EN" "http://www.w3.org/Graphics/SVG/1.1/DTD/svg11.dtd"><svg t="1574759451327" class="icon" viewBox="0 0 1024 1024" version="1.1" xmlns="http://www.w3.org/2000/svg" p-id="4613" xmlns:xlink="http://www.w3.org/1999/xlink" width="200" height="200"><defs><style type="text/css"></style></defs><path d="M270 408.1c-34.1 79.2-24.5 196.1 62.7 276 31.9 29.2 68.9 48.7 111 58.6 41.9 9.8 83.6 8.8 125-2.9 41.5-11.7 77.4-33.3 108.6-64.2 5.6 14.7 11.1 28.5 16 42.5 0.5 1.5-1.4 4.6-3.1 6-33.8 28.8-72.2 49-115.2 60.2-162.7 42.2-326.9-58.3-361.4-222.8-19.6-93.4 2.8-177.6 63.6-251.4 1.2-1.5 2.6-2.8 4.4-4.7 20 52.5 39.7 104.4 60 157.7 18.5-43.6 36.4-85.8 54.9-129.5 17.7 45.6 34.9 89.8 52.7 135.6 4.4-11.6 8.1-21.5 11.9-31.4 11.6-31 23.3-62.1 34.7-93.2 1.6-4.4 3.6-6.1 8.5-5.9 13.5 0.4 26.9 0.1 41.6 0.1-31.5 79.7-62.7 158.5-94.4 238.6-19.2-43.2-37.8-85.1-57-128.4-17.1 43.2-33.7 85.2-50.8 128.4-24.8-57.1-49.2-112.9-73.7-169.3z" p-id="4614"></path><path d="M724 689.1c-18.9-50-37.8-99.6-57.1-150.7-18.5 43.6-36.5 86-55 129.5-17.7-45.5-34.9-89.9-52.6-135.4-1.6 3.8-2.8 6.7-3.9 9.6-14.4 38.5-28.8 76.9-43.1 115.5-1.4 3.7-3 5.2-7.2 5.1-13.9-0.3-27.8-0.1-42.6-0.1 31.5-79.6 62.7-158.5 94.4-238.5 19.1 43.1 37.8 85.1 57 128.4 17.1-43.2 33.6-85 50.8-128.4 23.4 53.7 46.3 106.3 69.4 159.1 27.5-65.9 24.6-184.5-66.8-267.6-92.2-83.8-239.2-88.7-338.5 4.2-1.8-4.8-3.6-9.3-5.3-13.8-3.3-8.7-6.6-17.5-10.1-26.1-1.3-3.1-1.2-5.1 1.8-7.5 41.4-33.1 88-54.6 140.5-62.2 85.1-12.3 162 7.8 229 61.8 61.5 49.6 97.6 114.4 106.9 193 9.7 81.8-12.1 155-62.9 219.6-1 1.2-2 2.4-3.1 3.6-0.2 0.6-0.6 0.6-1.6 0.9z" p-id="4615"></path></svg>