<?xml version="1.0" standalone="no"?><!DOCTYPE svg PUBLIC "-//W3C//DTD SVG 1.1//EN" "http://www.w3.org/Graphics/SVG/1.1/DTD/svg11.dtd"><svg t="1574760055757" class="icon" viewBox="0 0 1024 1024" version="1.1" xmlns="http://www.w3.org/2000/svg" p-id="5602" xmlns:xlink="http://www.w3.org/1999/xlink" width="200" height="200"><defs><style type="text/css"></style></defs><path d="M796.6 507.6c-0.4 163.5-134.3 296.3-297.3 295-163.8-1.3-295.4-134.5-294.7-298.1 0.7-161.8 134.3-294.2 296.7-293.9 163.4 0.3 295.7 133.3 295.3 297zM500.1 284.1c-31 61.4-77.8 103.7-128.9 142.5-16.6 12.7-31.9 29.2-42.6 47.1-30.6 51-2.9 112.1 55 126.6 32.5 8.2 62.5 1.7 94.3-15.4-7.3 34.2-20 61.3-44.2 82.7-6.1 5.4-9.8 13.4-16.9 23.3h169.1c-27.8-34.5-60.3-60.9-61.4-99.7 23.7 4.3 46.5 11.5 69.4 11.9 36 0.7 64.2-16.7 81.1-48.8 16.9-32.1 11.1-63.6-9.8-91.5-11.4-15.1-25.6-28.8-40.8-40.2-49.7-37-93.9-78.7-124.3-138.5z" p-id="5603"></path></svg>