<?xml version="1.0" encoding="utf-8"?>
<!-- Generator: Adobe Illustrator 23.1.1, SVG Export Plug-In . SVG Version: 6.00 Build 0)  -->
<svg version="1.1" id="圖層_1" xmlns="http://www.w3.org/2000/svg" xmlns:xlink="http://www.w3.org/1999/xlink" x="0px" y="0px"
	 viewBox="0 0 1024 1024" style="enable-background:new 0 0 1024 1024;" xml:space="preserve">
<path d="M267.6,516.3c14-33.5,33.4-62.2,60.2-85.8c22.1-19.5,46.9-34.9,75.5-42.9c38.3-10.8,76.3,12.8,84.3,51.7
	c6.3,30.9-15,63.9-47.3,72.3c-12.3,3.2-25.3,4-37.4,7.8c-43.5,13.6-76.2,39.4-88,85.3c-9.3,36.4,2.1,67.6,27.9,94.3
	c33.4,34.5,74.9,44.5,121.1,40.6c21.1-1.8,42-5.3,60.3-16c12.1-7.1,22.6-17.1,32.7-26.9c3.9-3.8,6-10.7,6.8-16.4
	c2.4-17.8-7.1-28.9-25.1-29.2c-9.7-0.2-19.3,2-29,2.3c-10.9,0.4-22,1.3-32.6-0.6c-27.1-4.6-37.4-21.4-31-48.2
	c7.6-31.6,28.1-53.4,54.5-70.3c29.5-18.9,62.4-28,97-31.5c34.8-3.5,69.3-3.2,103,7.5c30.2,9.6,55.8,25.8,72.1,53.9
	c25.6,43.9,16.2,85.9-11.8,123.7C720.6,741.9,665,775.1,600.6,793c-166.8,46.4-340.1-52.9-382.7-220.9
	c-24.2-95.5-11.9-186.2,48.5-266.8c50.6-67.5,118.5-107.5,202-118.8c111.1-15.1,205.6,19.3,283.5,99.6
	c16.6,17.1,31.6,35.5,36.9,59.7c7.9,35.6,0.2,67-28,90.8c-27.8,23.5-60,26.6-93.3,12.5c-33.3-14.1-60.4-37.2-86.4-61.8
	c-18.1-17.1-35.5-35.6-56-49.5c-40.2-27.2-85.6-37.3-133.9-30.2c-8.2,1.2-16,8.4-23.1,13.9c-55.9,42.7-88.6,99-98.5,168.6
	C268.4,498.8,268.2,507.6,267.6,516.3z"/>
</svg>
