<?xml version="1.0" standalone="no"?><!DOCTYPE svg PUBLIC "-//W3C//DTD SVG 1.1//EN" "http://www.w3.org/Graphics/SVG/1.1/DTD/svg11.dtd"><svg t="1574995244629" class="icon" viewBox="0 0 1024 1024" version="1.1" xmlns="http://www.w3.org/2000/svg" p-id="1661" xmlns:xlink="http://www.w3.org/1999/xlink" width="200" height="200"><defs><style type="text/css"></style></defs><path d="M504.1 287.8c0.9-5 2-10 2.8-15 1.4-9.2 1.7-18.7 3.9-27.6 3.8-15.3 17.3-24.6 33.1-23.1 30.7 3 61.2 6.7 91.9 10.1 47.5 5.2 95 10.5 142.5 15.7 33.4 3.7 66.9 7.3 100.3 11 18.6 2.1 30.3 17.2 28.2 36.3-6.8 61.4-13.7 122.8-20.5 184.2-6.2 56-12.3 111.9-18.4 167.9-5 45-9.9 90.1-14.9 135.1-2.2 19.7-19.8 32.8-41 30.5-56.3-6.2-112.6-12.4-168.9-18.5-53.2-5.8-106.3-11.6-159.5-17.2-10.9-1.1-19.3-5.6-25-15.1-3.2-5.3-7.6-7.7-14.2-6.4-57.5 10.7-115 21.2-172.6 31.8-16.1 2.9-32.1 5.9-48.2 8.8-20.5 3.8-36.4-6.9-40.3-27.5-5.5-28.6-10.7-57.3-16-86-10.2-54.9-20.4-109.8-30.5-164.7-14.3-77.2-28.7-154.3-42.9-231.5C90 265.5 102 249 123 245.2c108-19.7 216-39.3 324-59 21.8-4 36.4 5.4 40.8 26.7 2.8 13.3 4.9 26.8 7.4 40.1 2 10.9 4.1 21.9 6.2 32.8 0.1 0.7 0.7 1.4 1 2.1 0.6-0.1 1.2-0.1 1.7-0.1zM522 588.4c-6.5-0.3-12.4-0.1-18.1-1.1-16.6-2.8-28.9-12.8-39.8-24.9-26.9-29.8-53.8-59.6-80.7-89.3-13.9-15.3-28-30.3-42-45.5 1.7-3.3 3.3-6.4 5-9.5 12.2-22.9 23.9-46 36.8-68.6 11.3-19.8 27.2-35.3 48.7-44.1 4.9-2 10-3.4 15.6-5.2-1.5-7.4-3-14.7-4.6-22.6-12.3 2.6-24 5.1-35.7 7.5-27.7 5.8-55.4 11.6-83 17.5-1.4 0.3-3.6 2.1-3.5 2.8 1.2 7 2.9 13.9 4.4 20.8 1.5-0.2 2.3-0.3 3.2-0.4 6.8-0.3 13.6-1.3 20.3-0.6 6 0.6 7.9 4.3 6.1 9.9-2.8 8.7-5.6 17.4-9 25.9-16.4 40.6-37.3 79.1-58.6 117.3-1.7 3-3.4 6-5.5 9.6-0.6-2.5-1-4.1-1.3-5.7-5-23.4-10-46.8-14.8-70.3-3-14.5-6.3-29-8.1-43.6-1.9-16.3 4.9-25.7 20.4-31.2 3.5-1.2 7.2-2.3 11-3.5-1.6-7.7-3.1-15-4.8-22.7-46.1 9.7-91.7 19.3-137.6 29 1.7 8 3.3 15.3 5 22.8 3.4-0.5 6.5-1 9.6-1.4 15.8-2.1 24.4 2.7 30 17.5 2.5 6.6 4.5 13.6 6 20.5 13 60.8 26 121.7 38.8 182.6 2.6 12.4 5.1 24.8 6.7 37.3 2.1 16.5-3.6 24.9-19.2 30.5-3.9 1.4-7.9 2.4-12.2 3.6 1.4 6.7 2.8 13.1 4.3 19.9 47-9.9 93.4-19.7 140.2-29.6-1.5-7-2.9-13.4-4.3-19.5-3.6 0-6.4-0.1-9.2 0-21 0.9-31.7-6-36.9-26.3-4.8-18.3-7.5-37.2-12.4-55.5-3.2-11.9-3.3-22.5 4.2-32.9 2.8-3.9 4.4-8.6 6.5-12.9 1.4-2.9 2.9-5.7 4.7-9 4.1 4.6 7.7 8.5 11.2 12.5 35.7 40.9 71.4 81.8 107 122.8 3.2 3.7 6.1 4.8 11 3.7 18.2-4.2 36.4-7.8 54.6-11.6 11.3-2.4 22.7-4.8 34.4-7.3-1.8-6.7-3.1-13-4.4-19.2z m203.5 73.4c-7.4-2.3-14.3-4.1-21-6.6-10.6-3.9-15.6-12-16-23-0.1-3.5-0.2-7 0.3-10.5 4.2-29.8 8.7-59.6 12.6-89.5 1.1-8.3 4.7-14.6 9.6-20.8 14.6-18.1 29.1-36.4 43.6-54.7 12.5-15.8 24.4-32.1 37.5-47.3 12.1-14.1 27.2-24.6 46.1-27.8 6.1-1.1 12.4-0.9 18.9-1.3 1.1-7.4 2.1-14.7 3.2-22.3-39.1-5.7-77.6-11.3-116.5-16.9-1.1 7.9-2.1 15.3-3.2 22.9 2.1 0.4 3.7 0.6 5.3 1.2 6.7 2.3 13.8 4.1 20 7.3 7.3 3.8 9.3 9.7 6 17.4-3.3 7.6-6.9 15.3-11.9 21.7-19.7 25.4-39.9 50.4-60 75.5-2.1 2.6-4.6 5-6.9 7.5-13.5-35-27-69.3-40-103.8-2.8-7.4-4.3-15.4-5.4-23.2-0.9-7.1 2.5-11 9.5-12.3 4.2-0.8 8.6-0.8 12.9-0.8 3.6 0 7.2 0.6 11.2 0.9 1.1-7.8 2.2-15.1 3.3-22.9-48.2-7-95.8-14-143.8-21-1 8.1-2 15.6-3 23.2 13.5 2.2 22.7 10 29.5 20.5 4.4 6.8 8.4 14 11.3 21.6 19 49.3 37.6 98.8 56.2 148.2 0.7 1.9 1 4.3 0.7 6.3-3.6 25.4-7.1 50.8-11 76.1-3.8 24.8-18.5 35.6-43.5 32.8-1.9-0.2-3.8-0.4-5.9-0.6-0.8 5.6-1.5 10.7-2.3 15.8-0.6 3.4 0.5 4.6 4 5 43 6.1 85.9 12.5 128.9 18.7 5.5 0.8 11 1.5 16.8 2.3 1.2-7.1 2.1-13.3 3-19.6z" p-id="1662"></path></svg>