<?xml version="1.0" standalone="no"?><!DOCTYPE svg PUBLIC "-//W3C//DTD SVG 1.1//EN" "http://www.w3.org/Graphics/SVG/1.1/DTD/svg11.dtd"><svg t="1575014349534" class="icon" viewBox="0 0 1024 1024" version="1.1" xmlns="http://www.w3.org/2000/svg" p-id="10355" xmlns:xlink="http://www.w3.org/1999/xlink" width="200" height="200"><defs><style type="text/css"></style></defs><path d="M867.4 693.4H51.2c-12-3.4-20-10.9-23.2-23.2v-11.6c0.4-0.8 1-1.6 1.2-2.5C59.5 548.5 89.7 441 120 333.4c2.4-8.4 6.2-16.2 13.3-21.2 6.5-4.6 14.1-7.5 21.2-11.2h816.2c12.1 3.4 20 11 23.2 23.2v11.6c-0.4 0.7-0.9 1.3-1.1 2C962.6 445.5 932.3 553.3 902 661c-2.4 8.4-6.2 16.2-13.3 21.2-6.5 4.6-14.1 7.6-21.3 11.2zM845 321.9c-35.2 0-70.4 0-105.6 0.1-6.3 0-12.9 0.3-19 1.9-35.9 8.9-58.5 32.3-68.7 67-19.8 66.8-38.7 134-57.9 201-3.6 12.5-5.5 25.3-4.1 38.4 2.9 26.9 18.3 41.1 45.2 41.1 23.2 0.1 46.4 0 69.6 0 47 0 94 0.1 141-0.1 16.9-0.1 24.5-5.9 28.9-19.8 0.8-2.6 2-5 2.8-7.6 16.3-55 32.6-110 48.7-165 3-10.3-1.4-15.3-12.3-15.3H767.3c-10.7 0-16.3 3.9-20.1 14.1-4.1 11-8.2 22.1-12.2 33.2-3.3 9.1 0.2 14.2 10.1 14.2 12.2 0.1 24.4 0 36.6 0 12.8 0 25.5-0.1 38.3 0 9.8 0.1 11.4 2.3 9 11.4-5.3 20.2-10.6 40.3-15.9 60.5-3.4 13.1-7.5 16.3-21.2 16.3h-90.5c-6.4 0-12.8 0.1-19.2-0.1-6.1-0.2-9-3.1-8.8-9.1 0.1-4.6 0.8-9.3 2-13.7 17.3-60.9 34.8-121.8 52.3-182.7 4.8-16.8 10.2-20.7 27.8-20.7 59.8 0.1 119.6 0.1 179.3 0.1 11.5 0 17.9-4.8 21.2-15.9 3.5-11.7 6.9-23.3 10.3-35 3.2-10.8 0.6-14.4-10.6-14.4-36.8 0.1-73.8 0.1-110.7 0.1z m-177.7-1.8l2.1 1.5c-0.7-0.1-1.4-0.3-2.2-0.3-72.2 0.2-144.3 0.3-216.5 0.8-9.3 0.1-18.9 1.6-27.9 4.2-33.8 9.9-53.9 33.9-63.6 66.5-17 56.6-32.8 113.6-49 170.4-4.5 15.9-9.8 31.6-9.4 48.6 0.8 36.2 23.2 58.9 59.4 58.9 71.4 0.1 142.8 0 214.2 0 1.8 0 3.6-0.2 6.4-0.4-14.5-16.9-16.7-37-19.9-57H418.3c-8.7 0-17.4 0.1-26.1 0-8.8-0.1-12.9-4.5-12-13.1 0.3-2.9 0.7-5.8 1.6-8.5 18.9-62.9 37.8-125.7 57-188.5 3.6-11.8 10.4-16.2 23-16.2 52.6 0 105.3 0 157.9 0.1 4.6 0 7-0.6 8.2-6 3.1-13.5 9.4-25.7 18.5-36.3 6.8-8.2 13.8-16.5 20.9-24.7zM274.9 612.7h-17.8c-30.4 0.2-60.7 0.4-91.1 0.5-8.4 0-12.3-3.6-12.2-11.9 0-5 1-10 2.3-14.8 18.6-67 37.3-134 56-200.9 5-17.9 10.1-35.7 15.1-53.5 1.8-6.6-0.2-10.2-6.1-10.3-22.1-0.1-44.1-0.1-66.2 0.1-5.3 0-8.5 3-9.9 8.2-1.6 6.2-3.4 12.3-5.1 18.4-22 77.7-44.3 155.3-65.8 233.1-4 14.6-6.7 29.9-7.2 45-0.8 23.3 10.5 37.6 30.4 42.1 5.2 1.2 10.7 1.6 16.1 1.7 58.8 0.2 117.6 0.2 176.4 0.3 2 0 4-0.2 7.2-0.3-14.6-17.1-20.3-36.2-22.1-57.7z m229.8-149.2h-49.9c-10.3 0-15.8 3.9-18.9 13.5-3.6 11.4-7.1 22.8-10.6 34.2-2.7 9 0.8 13.7 10.3 13.8h99.7c9 0 15.6-4.6 18.4-13 4-11.8 8-23.7 11.8-35.6 2.6-8.1-0.8-12.8-9.3-12.8-17.1-0.1-34.3-0.1-51.5-0.1z m-252.2-47.8h29.3c-2.3-6-4.6-11.8-7.2-18.5 3.4 0.4 5.5 0.6 7.5 0.9 20.5 2.4 39.5-11.8 42.9-31.3 3.7-21-16.6-40.9-30.9-44.3-1.7-0.4-3.9-0.1-5.5 0.7-10.3 5.2-20.9 10-30.6 16.3-10.9 7-19.1 16.9-24.3 28.9-6.3 14.5-0.4 26.1 15.1 29 5.5 1 11.3 0.2 19.1 0.2-5.8 6.7-10.6 12.4-15.4 18.1z" p-id="10356"></path></svg>