<?xml version="1.0" standalone="no"?><!DOCTYPE svg PUBLIC "-//W3C//DTD SVG 1.1//EN" "http://www.w3.org/Graphics/SVG/1.1/DTD/svg11.dtd"><svg t="1574997165542" class="icon" viewBox="0 0 1024 1024" version="1.1" xmlns="http://www.w3.org/2000/svg" p-id="841" xmlns:xlink="http://www.w3.org/1999/xlink" width="200" height="200"><defs><style type="text/css"></style></defs><path d="M704.7 370.6c0 4.2 0.3 8.2-0.1 12.1-0.2 1.7-1.4 3.5-2.6 4.8-66.4 63.5-132.8 127-199.3 190.4-0.9 0.9-1.9 1.6-3.1 2.6-1.2-1-2.3-1.8-3.3-2.8-63.3-60.4-126.5-120.8-189.7-181.2-27.2-26-54.4-51.9-81.6-77.8-2.4-2.3-4.5-14.4-2.5-16.9 0.9-1.1 2.6-1.7 4.1-2.2 43.5-16.6 87.8-30.3 133.4-39.9 31.5-6.6 63.3-11 95.4-13.9 17.6-1.6 29.6-10.2 36.2-26.7 2.2-5.4 4.9-10.6 7.9-17.1 3 6.2 5.4 11.4 7.9 16.7 4.4 9.1 9 18.5 19.2 22.1 7.3 2.5 15.1 4.2 22.7 4.7 55.5 3.8 109.8 14 162.6 31.6 20.1 6.7 39.7 14.7 59.6 21.9 3.8 1.4 4.9 3.3 5.2 7.5 0.5 7.2-1.9 12.1-7.2 16.9-14.6 13.3-28.8 27.1-42.9 40.9-2.8 2.8-5 3.1-8.6 1.6-56.4-24.3-115.5-37.6-176.7-41.4-2.2-0.1-4.5-0.1-6.7-0.1-11.9 0-20.8 5-26 16.1-2.8 6-5.8 11.8-9.1 18.5-3.2-6.6-6.1-12.3-8.7-18.2-4.9-10.7-13.3-15.4-24.9-14.8-21.2 1.1-42 5.1-62.6 10.2-8.6 2.1-17.2 4.7-26.9 7.4 41.4 39.5 82 78.3 123.1 117.6 12.7-12.1 25.2-24 37.7-35.9-0.1-0.4-0.1-0.8-0.2-1.2h-6.7c-4.5 0-8.9 0.1-13.4 0-7.1-0.3-13 1.4-15.1 10-2.6-2.4-4.5-4.3-6.4-6.1-13.1-12.5-26.2-25.2-39.5-37.5-3.7-3.4-5.9-6.8-5.1-11.9 0.3-2.3 0.1-4.8 0.1-7.6 84.5-0.4 168.8-0.4 253.8-0.4z" p-id="842"></path><path d="M499.5 766c-22-21-43.5-41.6-65-62.1-100.6-96-201.1-192-301.8-288-2.1-2-3.2-4-3-7 0.3-3.3 0.1-6.6 0.1-10.5h174.8c0.1 0.9 0.1 1.6 0.2 2.2 1 7.8 0.2 14.2-9.3 16.1-2.6 0.5-4.9 2.9-7 4.8-5.3 4.8-7.2 10.3-4.4 17.6 3.6 9.4 9.3 16.7 16.5 23.6 43.1 40.9 86 82 128.9 123 22.2 21.2 44.5 42.4 66.7 63.6 1 1 2.1 1.9 3.5 3.1 5.3-5 10.5-9.9 15.6-14.8 55.7-53.2 111.4-106.5 167.1-159.7 8.2-7.8 16.7-15.3 24.5-23.5 4.2-4.4 7.5-9.8 10.9-15 3.1-4.7 2.6-9.7-1.5-13.5-4.7-4.2-9.8-8-15.2-11.3-2.4-1.5-3.4-2.7-3.3-5.4 0.2-3.6 0-7.2 0-10.9H869c0.8 7.9 1 14.4-5.7 20.8-115.5 109.8-230.8 220-346.1 330.1-5.8 5.5-11.6 10.9-17.7 16.8z" p-id="843"></path></svg>