<?xml version="1.0" standalone="no"?><!DOCTYPE svg PUBLIC "-//W3C//DTD SVG 1.1//EN" "http://www.w3.org/Graphics/SVG/1.1/DTD/svg11.dtd"><svg t="1575535611986" class="icon" viewBox="0 0 1024 1024" version="1.1" xmlns="http://www.w3.org/2000/svg" p-id="6184" xmlns:xlink="http://www.w3.org/1999/xlink" width="200" height="200"><defs><style type="text/css"></style></defs><path d="M344.7 662c-5-10 1.3-22 10.3-26.5 3.1-1.5 6.2-2.9 9.3-4.3 10.5-4.6 14.2-13.6 14.5-24.1 0.2-11.7 4-22.3 8.3-32.9 0.9-2.2 1.2-4.7 1.2-7.1 0-1.1-1-3-1.9-3.2-1.5-0.4-4.1-0.5-4.9 0.5-3.9 4.2-7.7 8.7-11.1 13.4-6.8 9.3-21.7 10.7-28.6 3.4 4.6-1.5 10.6-2 14.4-5.1 4.1-3.4 6.2-9.2 9.1-14l-1.7-1.7c-1.6 0.6-3.4 0.9-4.7 1.9-2.9 2-6.1 3.8-8.2 6.5-3.3 4.2-5.3 2.2-7.8-0.5 8.5-9.6 16.9-19.1 25.2-28.6l-1.8-2.1c-3.1 1.9-6.6 3.3-9 5.9-5.5 5.8-10.3 12.6-19 13.8-3.7 0.5-7.7 1.3-11.1 0.3-6.3-1.8-12.6-4.1-18.3-7.3-11.8-6.7-20.7-5.9-33.9-0.5 1.8-2.6 3.4-5.5 5.6-7.6 6.2-5.8 14.2-6.6 21.7-4.6 13.9 3.7 23.7 1.1 32.5-10.6 6.4-8.5 13-16.6 23.5-20.4 0.9-0.3 1.9-1.1 2.8-1.1 3.7 0.1 5.1-2.6 4.2-5.1-0.8-2.1-3.6-4.7-5.7-4.8-3.5-0.2-7.2 1-10.6 2.3-17.9 6.8-24.2-0.1-30.9-12.9 5.3 1.3 11.3 4.3 17 3.8 5.5-0.5 12.1-2.5 15.5-8.1-0.2-0.6-0.4-1.2-0.6-1.7-6 0.4-12 1.1-18.1 1.1-1.9 0-3.9-1.9-5.8-3 1.5-1.1 2.8-2.9 4.4-3.3 11.1-2.1 22.2-4 33.3-5.9 0.1-0.8 0.1-1.5 0.2-2.3-3.1-0.7-6.3-2.1-9.4-2-5 0.2-10 1.4-14.9 2.1-9.9 1.6-16.9-3-21.9-10.9-3.6-5.7-6.8-11.7-10.2-17.5-6.3-10.7-14.8-17.8-28.5-15.8-0.1-0.5-0.1-1-0.2-1.5 2.1-1.1 4.1-2.4 6.3-3.2 9.5-3 18.9 0.3 26.1 8.9 2 2.4 4.1 4.6 6 7.1 5.5 7.2 13.3 6.1 20.3 4.4 9-2.1 17.7-3.3 26.9-2 5.6 0.8 11.4 0.1 17.3 0.1-0.5-6.4-2.5-10.8-8.9-12.2-2.8-0.6-5.5-2.3-8.2-3.4-10.6-4.2-15.9-15.6-12.1-28.8 3.8 15.8 15.4 18.3 28.6 18.6-2.3-2.1-4.6-4.2-7-6.2-3.1-2.5-6.5-4.8-9.5-7.4-0.9-0.8-1.5-3.1-0.9-3.9 0.6-0.9 2.8-1.5 3.9-1.1 3.7 1.4 7.3 3.1 10.8 5 6.1 3.3 12.1 6.9 18.2 10.2 0.9 0.5 2.1 0.4 3.2 0.5 0.1-1.3 0.7-3.1 0.1-3.7-3.3-3-6.7-6-10.4-8.5-4-2.8-8.9-4.4-12.5-7.6-7.4-6.6-9.9-15.3-8.2-25.2 0.7-4.3 1.2-8.7 1.6-13.1 1.1-12-1.3-22.7-11.4-30.4-0.7-0.5-1.6-0.8-2.4-1.2 0.3-0.6 0.6-1.3 0.9-1.9 1.9 0.4 4 0.5 5.7 1.3 11.3 4.7 15.5 13.8 15.7 25.5 0.1 7.7 1.4 15.2 7.6 20.5 2.7 2.3 6.1 4.3 9.5 5.4 8.1 2.6 14.6 7.2 20.5 13.2 3.9 3.9 8.6 6.9 12.8 10.2 5.7-4.1 4-9.8 0-15.8-3.7-5.5-8.1-10.5-8.4-17.8-0.3-7.4 3.9-12.3 8.9-17.7-4.6 14.3 3.2 22.7 12.5 30.4l1.8-0.6c-2.3-7.2-4.6-14.5-6.8-21.6 3.5-3 5.3-1.6 6.8 1.4 4.2 8.5 8.4 17 12.9 25.3 0.8 1.6 2.8 2.5 4.3 3.8 0.6-1.8 1.9-3.8 1.6-5.4-0.6-3-1.9-6-3.5-8.6-5.8-9.5-10.1-19.6-4.9-30.3 3.4-7.1 8.7-13.5 14.1-19.2 9.5-9.9 11.6-21 7.9-33.7 3.1 0 6.6 3.8 8 8.6 2.5 8.9 0.3 17-4.5 24.4-7.5 11.5-7.5 22.5 0.8 33.6 6.9 9.3 10.7 19.6 10.4 31.4-0.1 2.6 1.8 6.9 3.6 7.4 4.2 1.2 6.9-2.3 7.5-6.2 0.7-4.6 0.9-9.4 0.7-14.2-0.3-6.1 1.4-11.7 5.5-15.9 2.6-2.6 6.5-4 10.1-5.6 1.8-0.8 4.1-0.6 6.7-0.9-0.7 1.2-1 2.7-1.7 2.9-7.8 2-9.7 8.5-10.1 14.8-0.4 6.2 1.3 12.6 3.3 18.9 2.6-8.2 5.3-16.4 7.9-24.7 0.7-0.2 1.3-0.4 2-0.6 0.8 1.7 2.5 3.4 2.3 4.9-0.9 8.9-2.3 17.7-3.6 26.5-0.4 2.7-0.6 5.5-1.1 9.3 5.2-2.4 7-5.7 7.5-10 0.6-4.7 0.9-9.4 2.2-14 3.6-13.2 13.8-18.9 26.2-21.9 6.5-1.6 13.1-3.2 19.3-5.9 5.5-2.4 9.7-6.7 9.6-13.6 0-1.1 1.3-2.2 2-3.4 4.4 5.1 3.8 14.9-2.1 20.2-4.7 4.1-10.2 7.5-16 10-9.7 4.1-14.7 12-14.6 21.1 0.1 12.6-4 23.5-8.1 34.8-1.2 3.3-1.3 7.1-1.9 10.6 8 1.9 10.3 0.8 12.9-5.7 6.3-15.4 27.1-19.9 38.9-7.5-19.2-5.2-25.3 7.5-30.3 21.7 5.2-3.8 10.3-7.6 15.5-11.4 0.6-0.4 1-1.2 1.6-1.3 1.8-0.3 3.6-0.3 5.4-0.4-0.4 1.6-0.2 3.7-1.2 4.8-6 6.8-12.3 13.4-18.5 20.1-2.1 2.3-4.3 4.5-7 7.3 5.5 1.7 9.2-1.3 12.6-3.8 3.9-2.9 6.9-6.9 10.6-10.1 3.4-3 6.9-6.1 10.9-8 2.2-1 5.8-0.3 8.3 0.7 9.2 3.6 18.2 7.7 27.3 11.5 8.1 3.4 15.4 0.9 22.3-3.7l2.4-1.8c0.5 0.3 1 0.7 1.5 1-2.4 3.8-4.9 7.6-8 12.3h32.8c0.3 0.5 0.5 0.9 0.8 1.4-8.1 4.1-6.1 11.2-6.1 17.7-0.1 19.5 0 39.1 0 58.6 0 0.7 0.2 1.4 0.3 2.5 1.6 0.1 3.1 0.3 4.6 0.3h40.6c10.2 0 10.2 0 17.7-6.2v30.3c-0.5 0.1-1.1 0.3-1.2 0.2-3.2-6.2-9-5.5-14.6-5.4-24.1 0-48.2 0.1-72.3 0-1.7 0-3.4-0.2-5.1-0.3 0-1-0.2-1.9 0-2 6.4-2.7 5.1-8.4 5.1-13.5v-72.8c0-6.5-4.5-9.4-10.8-8.4-3.9 0.6-8.2-0.5-12.3-1-4-0.5-7.9-1.5-11.9-1.9-7.9-0.8-13.7 3.3-17.6 9.3-5.5 8.3-12.2 15-20.6 20.1-4.1 2.5-7.6 6-11.4 9 4 5 9.6 6.2 15.4 3.9 3.2-1.3 6.5-2.7 9.8-3.1 9.1-1 17.2 5.2 19.5 14-4.9-0.8-10.1-2.6-15.1-2.2-4.8 0.4-9.9 2.3-13.2 7.8 6.1 0.4 11.3 0.6 16.4 1.2 1.3 0.2 2.4 1.7 3.5 2.7-1.1 1.1-1.9 2.9-3.2 3.2-6.6 1.5-13.4 2.6-20.1 3.8-2.4 0.4-4.8 0.7-7.2 1.3-1.3 0.3-2.3 1.4-3.5 2.1 1.2 0.8 2.4 2.2 3.6 2.2 5.9 0.3 12 1.1 17.7 0.1 12.8-2.4 19.2 4.1 24.2 12.5 4 6.7 7.3 14.1 12.5 19.8 4.4 4.8 11.2 7.4 16.9 10.9 1.8 1.1 3.6 2.2 5.7 3.5-5.5 4.7-15.9 5-20.6 0.5-4.8-4.5-9.6-9.2-13.7-14.4-5.6-6.8-12.7-9.4-20.6-6.8-12.4 4.2-25.1 4.2-37.9 4.3-2.9 0-7.7 1.2-8.4 3-1.4 4 3 5.1 6 6.4 4.6 2 9.3 3.8 13.8 6 9.8 4.8 13.9 14.5 11.1 25.2-6.9-13.5-11.3-14.3-28.9-17.3 1.3 1.9 1.9 3.4 3 4.3 3.9 3.2 8.2 6 11.9 9.4 1.3 1.2 1.4 3.6 2 5.5-2 0.1-4.3 0.9-5.8 0.1-9.9-5.1-19.6-10.5-29.6-16-1 5.8 2 9.1 8.2 12.2 5.5 2.8 11.3 5.8 15.5 10.1 8.5 8.6 8 19.7 6.2 30.7-1.8 11.2-2.4 22.1 5 31.6 2.1 2.7 4.9 4.8 7.5 7.2-8.5 3.4-19.9-7.3-20.4-14.6-0.3-4.2-0.6-8.4-1-12.5-1-11.4-6.4-19.9-17.1-24.6-3.9-1.7-8.3-2.4-11.9-4.5-6.7-3.9-13-8.4-19.4-12.7-2.3-1.5-4.5-3.2-6.8-4.7-0.6 0.5-1.3 1-1.9 1.4 0.8 2.6 1.3 5.5 2.6 7.9 1.7 3.2 4 6.2 6.2 9.1 6.7 9 8 19.3-0.2 28.8-1.1 1.3-2 2.7-2.5 3.5-0.3-5.6 0.4-11.9-1.3-17.6-1.7-6-7-10-12-13.7-0.5 0.2-1 0.5-1.4 0.7 1.5 4.9 3 9.8 4.5 14.8 0.4 1.3 1.3 2.7 1.2 4-0.2 1.5-1.3 3-2 4.4-1.3-0.7-3.2-1.1-3.8-2.3-4.1-8.1-8-16.4-12-24.5-1-2-2.4-3.8-4.4-6.7-2 7 0 12 2.4 16.3 6.2 11.1 7.6 22.5 1.9 33.7-3.2 6.3-8.5 11.7-13.5 16.8-7 7-10.3 18.5-7 27.8 0.7 1.9 0.4 4.1 0.6 6.4-8.3-5.2-10.9-17.8-8.1-25.5 1.5-4.1 3.7-7.9 5.9-11.7 5.8-9.8 6.6-19.8-0.2-29.1-7.5-10.2-9.2-22.1-12.5-33.6-0.9-3.1-2.6-6-4.4-10-4.4 5-8.7 8.2-7.4 15.6 2.7 15.5-3 23.9-17.8 28.5-0.6 0.2-1.3 0-4-0.2 12.9-9.4 13-20.9 8.3-34.4-1.2 1.8-2.5 3-2.9 4.4-1.3 4.5-2.3 9.1-3.5 13.7-0.6 2-0.9 5.3-4.1 3.9-1.3-0.5-2.3-3.5-2.1-5.2 0.8-9.7 2-19.5 3-29.2 0.1-1-0.1-2-0.2-3.9-4.6 2.3-5.9 5.9-5.9 9.9 0.1 8.5-2.3 16.1-7.2 23.2-4.3 6.2-10.5 9.4-17.2 11.5-5.8 1.8-12 2.2-17.9 3.7-8.7 2.3-13.4 8.7-16 16.9 0 1.3-0.6 2.1-1.2 3.2z m124.6-62.7c9.3-1.6 18.9-2.2 27.7-5.1 18.3-6 33.5-16.8 45.5-32.1 21.5-27.5 27.7-58.5 20.5-92-4.3-20.2-14.4-37.6-29.3-52.3-11.5-11.4-24.9-19.3-40.3-24-9.7-3-19.5-3.9-29.6-2.5-6.5 0.9-12.9 2.5-19.3 3.8-11.3 2.4-21.4 6.8-30.4 13.2-27.9 20-41.2 48.1-42.7 81.9-0.7 15.9 2.5 31 8.3 46 14.5 37 50 63.2 89.6 63.1zM926.2 579.7c-19.2-0.6-36.5-5.3-51.7-17.1-15.3-11.9-22.6-27.7-23.5-46.7-1.1-22.1 6.1-40.6 23.8-54.6 12.4-9.7 26.8-14.4 42.1-15.7 20.1-1.7 39.5 1.3 56.7 13.1 17.4 11.9 26.4 28.4 27.3 49.5 0.6 13.6-1.2 26.5-8.6 38.3-9 14.2-21.8 23.7-37.8 28.3-9.2 2.6-18.9 3.3-28.3 4.9z m-0.4-109.1c-24.5-1.2-43.2 17.6-43.1 41.5 0.1 24.7 18 41.7 43.6 41.9 26.2 0.2 43.2-20.6 43.1-41.9 0-23.1-19.1-43-43.6-41.5zM77.7 441.1c19 0 35.8 0 52.7 0.1 1.2 0 2.3 1 3.5 1.5-0.6 1.1-1 2.5-1.9 3.3-6.3 5.3-7 7-3 14.8 9.9 19.3 20.1 38.4 30.2 57.6 8.7 16.4 17.2 32.8 26.3 48.9 2 3.5 6.1 5.9 9.2 8.8 0.9 0.8 1.6 1.8 2.5 2.7-1.1 0.6-2.3 1.7-3.4 1.7-17.1 0.1-34.1 0.1-51.2 0-1.1 0-2.2-1.1-3.2-1.7 0.8-0.9 1.3-2.2 2.3-2.7 6.3-3.3 7.5-5.8 4.7-12.2-2.4-5.2-5.1-10.4-8.1-15.3-0.9-1.4-3.2-2.7-4.9-2.8-18.8-0.2-37.7-0.2-56.5 0-1.6 0-3.9 1.2-4.5 2.6-2.8 5.4-5.2 11-7.4 16.7-2.2 5.6-1.1 7.5 4.7 10.8 1 0.5 1.5 1.9 2.2 2.8-0.9 0.6-1.8 1.7-2.7 1.7-16.2 0.1-32.3 0.1-49.5 0.1 0.8-1.9 1-4 1.7-4.2 9.2-2.3 11-10.8 14.4-17.5 13-25.7 25.6-51.6 38.3-77.5 3.8-7.8 7.6-15.7 11-23.7 1.9-4.5 0.9-8.5-3.6-11.4-1.4-0.8-2-2.6-3.8-5.1z m26.7 41.4c-7.3 15-14 28.8-20.9 43h42.7c-7.2-14.4-14.2-28.1-21.8-43z" p-id="6185"></path><path d="M228.7 564.9c-12.6 1.3-24.5 0.4-36.3 0.6 0-1.7-0.1-2.3 0-2.3 5.9-2.8 6.1-7.9 6-13.6-0.2-21.4 0-42.9-0.1-64.3 0-6.4 2.2-13.6-7.8-17.6 3-0.9 4.2-1.6 5.4-1.6 25.1 0.3 50.3 0.2 75.3 1.3 14 0.6 23.6 8.3 25.7 20 3.3 17.9-1.5 33.4-25 36-14.9 1.6-30.1 1.2-45.2 1.7-1.2 0-2.4 0.3-4.1 0.6 0 10.6-0.3 21.1 0.2 31.6 0.4 2.2 3.4 4.3 5.9 7.6z m-5.5-80.1v20.8c14.1 0 27.8 0.3 41.4-0.1 6.2-0.2 8.8-4 8.7-10.3-0.1-6-3-9.8-10.4-10.2-13.1-0.7-26.3-0.2-39.7-0.2zM791.6 451.8c-8.6 2.9-6.8 9.7-6.8 15.6-0.1 20.7 0 41.5 0 62.1 0.7 0.3 1.2 0.8 1.6 0.8 17.8 0 35.5 0.3 53.3-0.2 2.6-0.1 5.2-3.2 7.8-4.9 1.9 2.6 2.2 25.4-0.4 30.3-3-7.6-9.3-6.3-15.1-6.3-24.1 0-48.2 0.1-72.3 0.1-1.6 0-3.2-0.4-4.8-0.7-0.4-0.7-0.9-1.4-1.3-2.1 1.1-0.4 2.7-0.5 3.3-1.3 1.4-1.8 3.2-3.9 3.2-5.9 0.2-26.6 0.2-53.1 0-79.7 0-2.1-2.4-4.1-3.7-6.2-0.5-0.8-1.2-1.7-1.2-2.5 0-0.4 1.3-1.3 2-1.3 10.7 0 21.4 0.1 32.1 0.2 0.4 0.1 0.8 0.7 2.3 2zM682 644c-3.8 0.4-6.7 0.7-9.6 0.9-3.2 0.2-4.6-0.2-5.7-4.4-1.1-4.1-5.2-8.2-9-10.8-4.5-3-7.2-1-7.1 4.4 0 3 0.4 6.1 0.7 9.9h-10.6v-37.4c10.1 0 20.7-0.4 31.3 0.2 4.3 0.2 7.4 3.8 8 8.5 0.7 4.9-0.4 9.3-5.4 11.4-3.8 1.6-3.9 3.6-1.7 6.4 2.8 3.4 5.6 6.7 9.1 10.9z m-31.6-29.8c0.2 2.8 0.3 4.8 0.4 7.1 5.8 0 11 0.2 16.2-0.2 1.1-0.1 3.2-2.4 3-3.2-0.4-1.4-2.1-3.5-3.3-3.6-5.2-0.4-10.5-0.1-16.3-0.1zM630.6 609.3c-1.4 3.2-2.7 6-3.8 8.6-3.6-1.5-6.9-3.5-10.6-4.2-7.4-1.6-18 2.3-16.9 13.2 0.5 4.8 2.7 8.5 7.7 9.2 4.4 0.6 9 0.9 13.3 0.3 3.6-0.5 3.6-1.1 3.2-6.3-3.6 0.2-7.2 0.4-11 0.6v-7.5c6.9 0.3 13.6 0.6 19.9 0.9v15.3c-8 6.8-25.8 9.3-36.1 1.3-5.2-4.1-7.9-10.3-7-17.1 1.2-8.7 6.4-13.8 14.8-17 9.4-3.5 17.3 0.8 26.5 2.7zM706.9 645.6c-8.7-0.6-16.1-3-20.6-12-4.8-9.5 0.4-22 9.7-25.9 8.9-3.8 17.5-3.8 25.4 2 7.2 5.4 9.8 14.2 7.1 21.9-3 8.5-11.6 14.1-21.6 14z m-12.2-20.2c-0.1 7.7 4.3 11.9 12.5 12.2 6.6 0.2 12.1-5 12.4-11.7 0.3-6.9-5.2-12.3-12.6-12.3-7.8-0.2-12.2 4.1-12.3 11.8zM783.8 606.6c8.9 0 18.1-0.1 27.4 0 6.6 0.1 11 4.2 11.4 10.4 0.4 5.9-3.2 10.3-9.9 11.2-4.3 0.6-8.8 0.7-13.1 0.4-4.5-0.3-6.1 1.5-5.7 5.8 0.3 2.9 0.3 5.9 0.5 9.6-3.4 0.3-7.3 0.6-10.7 0.8v-19.3c0.1-6 0.1-12.2 0.1-18.9z m10.4 14.5c5.2 0 10.2 0.2 15.1-0.1 0.9-0.1 2.3-2 2.3-3.1 0-1.2-1.3-3.4-2.1-3.5-5.1-0.3-10.2-0.2-15.4-0.2 0.1 2.8 0.1 4.6 0.1 6.9zM736 606.6h9.5c0 8.6-0.2 16.9 0.2 25.1 0.1 1.7 2.4 3.9 4.2 4.8 7.8 3.7 15.5-1.2 15.5-9.6 0-3.3 0.2-6.7 0-10-0.2-3.2-0.7-6.5-1.1-10.2h10.8c-0.3 8.2-0.6 16.1-0.9 24.1-0.4 9.3-3.5 13-12.7 14.2-4.8 0.6-9.9 0.5-14.7-0.1-6.6-0.9-10.6-6-10.7-12.8-0.2-8.3-0.1-16.5-0.1-25.5zM467.8 394.8c28.6 0.4 51.1 11.4 68.8 32.8 22.8 27.5 30.2 59 21.8 93.4-5.5 22.7-18 41.5-37 55.8-21.5 16.3-45.7 21-71.5 15.7-21.8-4.5-39.6-16.5-53.2-34.6-10-13.3-16.4-27.8-19.1-44.2-5.3-32.3 1.2-61.6 22.4-87 12.9-15.4 29.3-25.2 48.7-29.8 6.5-1.5 13.3-1.5 19.1-2.1zM479 588.4c18.4 0.6 40.1-12 56.8-33.6 6.1-7.9 10.4-17.3 14.6-26.5 5.8-12.8 8.8-26.2 6.1-40.4-1.1-5.5-2.1-11-3.2-16.4-4.6-22.1-15.3-40.3-33.7-53.7-21.7-15.8-45.9-20.6-71.9-14.8-11.3 2.5-21 8.4-30.4 15.5-15.9 12-26.5 27-32.1 45.8-4.2 14.4-4.9 29.1-3 44.1 2.6 20.9 10.7 39.2 25.5 54.1 16.8 17.2 37.6 25.5 71.3 25.9z" p-id="6186"></path></svg>