<?xml version="1.0" standalone="no"?><!DOCTYPE svg PUBLIC "-//W3C//DTD SVG 1.1//EN" "http://www.w3.org/Graphics/SVG/1.1/DTD/svg11.dtd"><svg t="1574756483262" class="icon" viewBox="0 0 1024 1024" version="1.1" xmlns="http://www.w3.org/2000/svg" p-id="2425" xmlns:xlink="http://www.w3.org/1999/xlink" width="200" height="200"><defs><style type="text/css"></style></defs><path d="M20 414.5c14.7-1.6 28.5 2.6 42.2 7.2 11.1 3.7 21.7 8.4 31.4 15.1 3.4 2.3 6.4 5.3 9.5 8 0.5 0.4 0.8 1 1.3 1.7-3.5-0.5-6.7-1-9.9-1.3-4.5-0.4-9-0.1-13.2 1.9-2.7 1.3-3.3 2.5-2.8 5.4 1.1 5.9 4.2 10.7 8.2 15.1 7.9 8.7 18 13.4 29.3 16 6.9 1.6 13.8 1.9 20.8 2h6.5c0-0.1 0-0.4-0.1-0.6-6.1-12-11.8-24.2-19.3-35.4-9.3-14-22-24-36.8-31.5-4.3-2.2-8.7-4.3-13-6.6 7.9-0.1 15.7 0.2 23.4 1.8 7.6 1.6 15.1 3.7 22.6 5.6 5.1-27.5 19-51.4 34.9-74.3 3.3-4.8 7-9.3 10.8-14.4 1.5 2.3 2.9 4.2 4 6.2 4.4 8.1 7.1 16.9 9.2 25.8 3.3 14 5.3 28.1 4.4 42.5-0.3 4.2-1.4 8.4-2.2 12.6-0.1 0.7-0.5 1.3-0.8 2.2-1.3-3.1-2.3-6-3.6-8.8-1.9-4.1-4.3-7.9-8-10.6-2.8-2.1-4.3-2.1-6.9 0.3-5.3 4.8-8 11.1-9.6 17.9-2.7 11.3-1.3 22.4 3 33.1 2.9 7.3 6.7 14.3 10.2 21.6 0.5-0.5 0.7-0.6 0.9-0.8 7.3-11.1 14.9-22 20.8-33.9 6.4-12.8 9.4-26.3 9.3-40.5-0.1-7.1-0.7-14.1-1.1-21.2V375c8 14.1 13.9 28.4 16.1 44.2 33-11.1 66.4-9.4 99.9-5 0.1 0.3 0.3 0.5 0.4 0.8-1.5 2.7-2.9 5.5-4.6 8.1-5.5 8.2-12.4 15.3-19.7 21.8-9.8 8.8-20.3 16.7-32.2 22.5-4.2 2-8.4 3.7-13.6 4.3 0.7-0.8 1.2-1.3 1.6-1.8 4-4.7 7.8-9.5 9.2-15.6 1.3-6.1 0.8-7.4-5.7-8.7-8.1-1.7-15.9 0-23.4 3.3-11.1 4.9-19.3 13.1-26.1 22.8-3.1 4.5-5.9 9.3-9 14.2 2.2 0.1 4 0.3 5.9 0.4 11.6 0.2 23.3 0.9 34.9 0.6 14.4-0.4 27.7-5 40.1-12.3 5.7-3.4 11.2-7.2 16.7-10.8 0.5-0.3 1-0.7 1.7-1-7.8 13.7-17.4 25.9-30 35.7 1.6 1.4 3.1 2.6 4.5 3.9 9.7 8.8 17.5 19 24.6 29.9 9.7 15 17.8 30.8 24.2 47.5 0.3 0.8 0.6 1.7 1 3.2-3.9 0-7.4 0.3-10.9 0-12.1-1.1-23.6-4.4-34.9-8.6-9.8-3.7-19.3-8-28.1-13.9-3.9-2.6-7.5-5.5-10.5-9.6 3.5 0.5 6.7 1 9.9 1.3 4.1 0.4 8.2 0.1 12.1-1.4 4-1.5 5-3.1 3.6-7.2-1.1-3.3-2.6-6.7-4.6-9.6-6.8-9.9-16.6-15.7-28-19.1-7-2.1-14.2-3-21.6-3.1h-10.3c0-0.1 0 0.1 0.1 0.3 6 12 11.8 24.2 19.3 35.4 9.3 14 22.1 24.1 36.9 31.7 4.3 2.2 8.7 4.3 13.1 6.6-7.8 0.1-15.7-0.2-23.3-1.8-7.6-1.6-15.1-3.7-22.3-5.5-1.8 6.3-3.4 13.3-5.8 20-7.3 20.4-18.3 38.7-30.9 56.2-2.9 4.1-6.1 7.9-9.4 12.2-1.1-1.5-2-2.6-2.8-3.9-3.7-5.8-6-12.2-8-18.8-4.6-15.1-7.1-30.5-7.2-46.3 0-5.9 0.4-11.7 2.2-17.3 0.3-0.9 0.6-1.7 1.1-3.1 0.4 1.1 0.6 1.7 0.8 2.4 1.7 4.9 3.7 9.8 7.1 13.8 1.4 1.6 3.2 3 4.9 4.4 1.3 1.1 2.9 1 4.1-0.1 1.9-1.8 3.9-3.5 5.3-5.6 5.9-8.8 7.7-18.6 6.8-29-0.9-9.8-3.9-19-8.7-27.7-2-3.6-3.9-7.3-5.8-10.9-0.3 0.1-0.4 0.1-0.5 0.2-7.5 11.4-15.3 22.6-21.4 34.9-6.8 13.9-9.4 28.6-8.9 43.9 0.2 6.1 0.6 12.2 1 18.1-1.4-1.3-7.6-13.4-10.1-20.9-2.4-7.4-4.4-15-6.5-22.6-3.4 1-7.2 2.4-11.1 3.4-14.9 3.9-30.2 4.9-45.5 4.8-13.6-0.1-27.2-1-40.7-3.2-0.8-0.1-1.5-0.3-2.3-0.4v-0.4c2.5-4.1 4.7-8.6 7.6-12.4 11-14 24.4-25.4 39.4-34.9 5.5-3.5 11.1-6.5 17.4-8.3 1.7-0.5 3.4-0.8 5.7-1.3-2 2.5-3.7 4.4-5.2 6.4-2.8 3.8-5.2 7.8-5.9 12.6-0.7 4.6 0 5.9 4.7 7.1 5.5 1.5 11.1 1.1 16.6-0.3 11.1-2.7 19.9-8.9 27.6-17.1 6.2-6.6 10.4-14.6 15.3-22.1 0.1-0.1 0-0.4 0-1.1-12.9-0.2-25.7-0.8-38.5-0.6-11.8 0.2-23 3.1-33.7 8.1-8.9 4.2-17.1 9.4-25 15.1l-1.8 1.2c7.9-13.8 17.4-26.2 30.1-36-0.6-0.5-1-0.8-1.3-1.2-4.5-4.4-9.3-8.6-13.4-13.3C47.3 470.2 37.8 454 29.6 437c-3.4-7.1-6.3-14.4-9.4-21.6-0.2-0.4-0.2-0.6-0.2-0.9z m145.7 68.6c-9 0-16.1 7.2-16 16.2 0 9 7.2 16.1 16.1 16.1 9 0 16.2-7.3 16.1-16.3 0-9-7.2-16-16.2-16zM992.2 433.2c0.2 0.5 0.2 0.6 0.2 0.7 0 13.5 0.2 27.1-0.2 40.6-0.3 9.1-5 13.9-14.1 15.4-2.8 0.4-5.6 0.7-8.4 0.7H804.2v-57.3h50.9v-8.5H800v-22.9h196.3c-1.7 11.2-9.5 19.2-21.5 21.6-3.9 0.8-8 1.1-12 1.3-6.4 0.2-12.8 0.1-19.2 0.1h-2.3v8.3h50.9zM884 450.7V473h28.4v-22.3H884z m-51.6 0.1V473h23.2v-22.2h-23.2zM941.7 473h22.4v-22.2h-22.4V473zM884 433.2h28.5v-9.1H884v9.1zM513.1 510.8c0.7-0.2 1.4-0.7 2.2-0.7h59.2c0.7 0 1.4 0.5 2 0.8-0.3 0.6-0.4 1.3-0.8 1.8-1.2 1.4-2.5 2.8-3.8 4.2-2.6 2.8-4 6.2-4.3 10-0.9 13.6-0.8 27.2 0.2 40.7 0.1 1.2-0.2 1.7-1.3 2.2-15.6 6.6-31.7 11.9-48.6 13.9-17.7 2.2-35 1.1-51.5-6.3-21.3-9.5-35.7-25.7-42.8-47.8-7.4-22.8-8-46-1.2-69 9.1-30.6 30.1-49 61.2-55.4 25.8-5.3 51.2-2.1 75.8 7.2 1.7 0.6 3.3 1.5 5 2.3 1.6 0.7 2.1 2.1 1.8 3.7-2.5 11.7-3.3 23.7-4.3 35.6-0.1 0.7-0.5 1.4-0.8 2.1h-0.6c-1.2-2.8-2.5-5.5-3.6-8.3-1.3-3.1-2.5-6.2-3.6-9.3-1.6-4.3-4.5-7.6-8.1-10.3-8.2-6.1-17.5-9.3-27.6-10.5-10.8-1.2-21.5-0.4-31.6 3.8-13.4 5.6-21.9 15.9-27.7 28.8-4.4 9.9-6.5 20.4-7.2 31.2-1 16.1 0.4 31.8 6 47 3 8.1 7.1 15.6 12.6 22.3 14.7 17.8 36.4 23.7 58.2 15.9 2.4-0.9 4.7-1.9 7-3 0.6-0.3 1.3-1.2 1.3-1.8 0.1-11.8 0.1-23.5 0.2-35.3 0-1.4-0.7-2.2-1.9-2.9-5.1-2.7-10.2-5.5-15.2-8.4-2.1-1.2-4.2-2.6-6.2-4v-0.5zM415.9 582.8c-1.1 0.4-1.8 0.9-2.5 0.9-16.3-0.1-32.7-0.4-49-0.5-4.8 0-9.5 0.3-14.3 0.4-0.7 0-1.5-0.4-2.7-0.9 3.7-2.8 6.8-5.1 9.8-7.6 9.2-7.6 7.9-6.1 8.5-15.8 0.5-8.7 0.7-17.4 0.7-26.1 0.1-27.1 0.1-54.3 0-81.4-0.1-9.2-0.7-18.4-1.1-27.7-0.1-2.1-0.9-3.9-2.6-5.2-3.2-2.5-6.4-5.1-9.6-7.6-1.7-1.3-3.3-2.8-4.9-4.1 0.4-1.6 1.5-1.3 2.5-1.3 13.6 0.2 27.2 0.5 40.8 0.6 7.2 0 14.5-0.4 21.7-0.5 0.8 0 1.5 0.4 2.3 0.5v0.6c-0.9 0.7-1.9 1.3-2.8 2-3.2 2.3-6.5 4.5-9.7 6.9-3.2 2.4-4.8 5.7-4.9 9.8-0.3 10.4-1 20.8-1 31.2-0.1 30 0.1 60 0.3 90 0 6.5 0.7 13 1 19.5 0.1 3.3 1.6 5.7 4.3 7.4 3.6 2.4 7.3 4.8 10.9 7.3 0.5 0.3 1.1 0.8 2.3 1.6zM781.1 402.7c-3.9 16.1-7.7 31.8-11.7 47.9h21.3c-8 19.3-15.8 38.1-23.7 57h27l-0.3 0.9c-6.4 13.5-12.7 27-19.3 40.4-4.8 9.7-10.5 18.8-18.3 26.6-6.5 6.5-14.3 9.7-23.7 10.1 6.6-22.2 13.3-44.3 20-66.7H733c7.5-18 14.8-35.6 22.3-53.6h-29.4c0.1-0.4 0.1-0.6 0.2-0.8 7.2-12.6 14.3-25.3 21.7-37.9 3.6-6.1 8-11.7 13.1-16.7 4.2-4.2 9.5-5.8 15-6.7 1.7-0.2 3.3-0.3 5.2-0.5zM996.5 523.8c-2 5.5-4.3 10.5-7.8 15-4.8 6-11 8.9-18.7 9h-53.7v35.8h-35.8v-35.8h-80.6v-24h196.6zM643.6 492.9v-10.4h32.7v10.3h50.4c-1.8 9.7-12.4 20.3-21.5 21.3-2.2 0.3-4.4 0.1-6.6 0.1h-22.1v68.5h-32.8v-68.5h-51.2v-21.4c16.8 0.1 33.8 0.1 51.1 0.1zM805.4 497.6H991c-0.2 0.6-0.2 1.1-0.4 1.5-4 9.7-10.6 16.6-21.3 18.6-0.8 0.2-1.7 0.2-2.5 0.2H805.5c-0.1-6.8-0.1-13.5-0.1-20.3zM727 405.4c-3.7 5.7-7.4 11.1-12.4 15.5-6.2 5.5-13.6 7.4-21.6 7.4-33 0-65.9 0-98.9-0.1-0.4 0-0.9-0.1-1.5-0.1v-22.8c44.7 0.1 89.4 0.1 134.4 0.1zM599.4 483.6c-1.3-16.3-2.7-32.4-4-48.6h31.5c1.3 16.2 2.7 32.3 4 48.6h-31.5zM720 483.6h-31.4c1.3-16.3 2.7-32.4 4-48.7H724c-1.3 16.2-2.7 32.4-4 48.7z" p-id="2426"></path><path d="M592.7 582.8c1-5.8 1.9-11.3 2.8-16.9 2.3-13.4 4.6-26.9 6.9-40.3 0.2-1.1 0.4-1.8 1.7-1.7 10.2 0.1 20.4 0 30.7 0 0.2 0 0.5 0.1 1.3 0.2-0.4 3.2-0.7 6.3-1.4 9.4-2.3 10.1-7.6 18.6-14.2 26.3-7.6 8.9-16.7 16.2-26.6 22.4-0.3 0.2-0.7 0.3-1.2 0.6zM683.5 524h32.9c3.3 19.5 6.7 39 10 58.8-0.9-0.3-1.5-0.5-2-0.7-9.9-4.2-17.5-11.2-23.7-19.8-8.2-11.4-13.3-24.3-17.3-37.7 0.1-0.2 0.1-0.4 0.1-0.6zM675.4 435v38.8h-32.2V435h32.2zM948 553.1h33.6c1.6 0 2.2 0.5 2.7 2 2.1 6.1 4.2 12.3 6.4 18.4 0.4 1 1 2 1.8 2.7 2.7 2.6 5.4 5.2 8.4 8-0.9 0.1-1.3 0.2-1.8 0.2h-38.7c-1 0-1.8 0-2.2-1.2-3.3-9.6-6.7-19.2-10.1-28.8 0-0.5 0-0.8-0.1-1.3zM848.6 553.2c-2.2 5.2-4.3 10.2-6.4 15.2l-6 14.4c-0.4 0.9-0.7 1.5-1.9 1.5-10.5-0.1-21 0-31.4 0-0.2 0-0.4-0.1-0.7-0.1 0.2-0.6 0.3-1.1 0.5-1.6 3.3-9.3 6.5-18.6 9.8-27.9 0.3-0.9 0.6-1.5 1.8-1.5 11.2 0.1 22.4 0 33.6 0 0-0.1 0.2 0 0.7 0zM688.4 628.1V643c-0.4-0.9-0.7-1.3-0.8-1.7-0.8-2.8-2.7-4-5.5-3.9h-10.2v20.3c5.8-0.3 11.5-0.5 17.1-0.9 0.9-0.1 2-1.2 2.6-2.1 1.1-1.6 1.9-3.4 3.1-5-0.1 1-0.2 2-0.3 3.1-0.2 2.3-0.4 4.7-0.3 7 0.1 1.8-0.6 2.1-2.3 2.1l-26.2-0.3H658c0.1-0.3 0.1-0.5 0.2-0.6 2.9-1.6 3-4.3 3-7.1 0-11.8-0.1-23.5 0-35.3 0-2.9-1.1-4.8-3.6-6-0.8-0.4-1.5-0.9-2.7-1.7h38c-0.3 3.3-0.7 6.6-1 10.4-0.3-0.5-0.4-0.7-0.5-0.9-1.4-4.3-4.6-5.5-8.8-5.4-3.4 0.1-6.9 0-10.6 0v18c3.9 0 7.8 0.1 11.8-0.1 0.7 0 1.4-0.8 2-1.4 0.8-0.8 1.5-1.9 2.6-3.4zM450.3 615.4V633c4 0 8.1 0.1 12.2-0.1 0.7 0 1.4-1.2 2-1.9 0.7-0.8 1.3-1.7 2.2-2.9v14.3c-0.2-0.1-0.4-0.1-0.4-0.2-0.9-4-3.6-5.2-7.4-5.1-2.9 0.1-5.8 0-8.8 0v20.2h3.2c4.2-0.1 8.5-0.3 12.7-0.4 2.1-0.1 3.4-1.1 4.3-2.9 0.8-1.5 1.6-3 2.7-4.5-0.3 4-0.5 7.9-0.8 12h-36c0.4-0.5 0.5-1 0.8-1.1 2-1.1 2.5-3 2.5-5.1 0-12.4-0.1-24.7 0-37.1 0-2.7-0.9-4.5-3.3-5.6-0.9-0.4-1.7-1.1-2.4-1.9h37.4c-0.3 3.4-0.6 6.6-1 10.2-0.8-1.3-1.5-2.4-2.1-3.6-0.8-1.3-1.9-2.1-3.5-2.1-4.6 0.3-9.2 0.2-14.3 0.2zM878.2 661.7h-13.7c3.4-1.6 4.3-4.8 5.4-7.8 5-13.7 9.9-27.5 14.7-41.3 0.4-1.2 0.7-2.1 2.3-1.9 1.5 0.2 2.9-0.3 3.7 1.8 5.2 14.1 10.6 28.1 15.9 42.1 1 2.6 1.8 5.4 4.6 7h-17.7c0-0.1 0-0.3 0.1-0.3 3.8-2.3 3.9-2.5 2.6-6.7-0.7-2.4-1.6-4.7-2.3-7-0.3-1-0.8-1.3-1.8-1.3-4.6 0-9.1 0.1-13.7 0-1.1 0-1.6 0.4-1.9 1.4-0.7 2.4-1.5 4.7-2.1 7.1-0.8 3.1-0.6 3.7 2.1 5.5 0.3 0.4 0.8 0.7 1.8 1.4z m6.6-38.4c-2.3 6.6-4.4 12.5-6.5 18.7h13.3c-2.3-6.2-4.5-12.2-6.8-18.7zM614.5 628.6v13.8c-3.4-7.3-9.9-4.8-15.4-5.3 0 6.6-0.1 12.9 0.1 19.2 0 0.8 0.8 1.7 1.5 2.3 1.3 1 2.8 1.9 4.6 3h-22.7c1.2-1 2.1-1.8 3-2.5 1.6-1.1 2.5-2.5 2.5-4.5 0-12.3-0.1-24.6 0-36.9 0-2.3-1-3.8-2.9-4.9-0.8-0.5-1.5-1.1-2.7-1.9h35.7c-0.3 3.6-0.7 7.2-1 10.7h-0.4c-0.1-0.5-0.3-1-0.3-1.6-0.4-2.6-1.4-4-4-4.3-4.4-0.5-8.8-0.6-13.5-1V633c3.8 0 7.7 0.2 11.5-0.1 0.9-0.1 1.8-1.4 2.6-2.3 0.5-0.6 0.7-1.4 1-2.1 0.2 0.1 0.3 0.1 0.4 0.1zM510 610.9h35.7c-0.4 3.7-0.7 7.2-1 10.8-0.3-0.2-0.4-0.2-0.4-0.2-0.7-5.7-2.8-5.6-6.7-6.1-2.1-0.3-4.2-0.3-6.2-0.3-1.5 0-3 0.1-4.8 0.2v17.9c3.7 0 7.7 0.3 11.6-0.2 1.4-0.2 2.5-2.4 3.7-3.6v12.9c-0.1 0-0.3 0-0.3-0.1-1.6-3.6-4.5-5-8.3-4.9h-6.6c0 6.6-0.1 13 0.1 19.3 0 0.8 1 1.7 1.8 2.3 1.2 1 2.7 1.7 4.5 2.9h-22.8c1.4-1.2 2.4-2.2 3.5-3 1.4-1 2-2.3 2-4v-37.1c0-2.1-0.8-3.6-2.6-4.7-1.1-0.5-1.9-1.2-3.2-2.1zM766.9 624.7c-0.4-1-0.6-1.5-0.8-1.9-1.8-4.7-5.1-7.5-10.1-8-5.4-0.5-9.7 1.4-12.6 6.1-2 3.1-2.8 6.5-3.1 10.1-0.5 4.7-0.1 9.2 1.3 13.7 3.2 10.1 10.4 14.1 20.7 11.7 1.6-0.4 3.2-0.9 4.9-1.4-1.6 3.1-6.8 6.2-10.9 6.7-12.4 1.5-21.4-5.4-24.1-18.4-1.3-6.3-1.2-12.6 1.1-18.6 3.3-8.5 9.7-13.1 18.8-13.8 5-0.4 9.8 0.5 14.5 2.4 1.2 0.5 1.5 1.1 1.3 2.4-0.3 2.7-0.6 5.6-1 9zM805.5 661.5c1.2-1 2.2-1.9 3.2-2.7 1.5-1.1 2.1-2.5 2.1-4.4V618c0-1.9-0.6-3.4-2.2-4.5-1-0.7-1.9-1.6-3.1-2.6h21.2c-0.5 0.4-0.9 0.8-1.3 1-2.6 1.4-4 3.4-3.9 6.6 0.1 12.1 0.1 24.2 0.1 36.2 0 2.6 1 4.3 3.3 5.4 0.6 0.3 1.1 0.7 1.9 1.3-7.2 0.1-14 0.1-21.3 0.1zM346.2 637.8c14.6-1.7 29.1-3.4 43.8-5.2v10.7c-14.7-1.7-29.3-3.5-43.9-5.2 0.1-0.1 0.1-0.2 0.1-0.3zM955.1 632.6c14.7 1.7 29.2 3.4 43.8 5.2v0.3c-14.6 1.7-29.1 3.4-43.8 5.2v-10.7z" p-id="2427"></path></svg>