<?xml version="1.0" standalone="no"?><!DOCTYPE svg PUBLIC "-//W3C//DTD SVG 1.1//EN" "http://www.w3.org/Graphics/SVG/1.1/DTD/svg11.dtd"><svg t="1574936517614" class="icon" viewBox="0 0 1024 1024" version="1.1" xmlns="http://www.w3.org/2000/svg" p-id="970" xmlns:xlink="http://www.w3.org/1999/xlink" width="200" height="200"><defs><style type="text/css"></style></defs><path d="M164.4 670.9C84.6 670.9 19.9 606 20 526.1c0.1-79.8 64.8-144.5 144.6-144.5s144.4 65 144.3 145c-0.1 79.6-64.9 144.3-144.5 144.3z m106.2-157.7c0.1-47.7-38.4-86.5-86-86.6-47.7-0.1-86.4 38.4-86.5 86.1-0.1 47.9 38.4 86.7 86.1 86.7 47.6 0 86.3-38.6 86.4-86.2z" p-id="971"></path><path d="M236.2 553.3c-7.4-1.3-14.4-2.5-21.5-3.7-5.8-1-11.6-1.9-17.3-3.1-1.7-0.3-2.6 0.1-3.7 1.4-8.2 9.5-16.4 18.9-24.6 28.4-0.6 0.7-1.2 1.4-2.3 2.5-0.5-5-1-9.4-1.4-13.8-0.9-8.8-1.7-17.6-2.7-26.4-0.1-0.9-1.2-1.9-2.1-2.4-11.4-5.4-22.9-10.7-34.4-16.1-0.8-0.4-1.6-0.8-2.7-1.4 0.9-0.5 1.5-0.9 2.1-1.2 9.8-5 19.5-9.9 29.3-14.9 0.5-0.3 1.1-0.7 1.6-0.8 4.4-0.3 4.8-3.3 5.2-6.8 1.5-12 3.1-24 4.7-36 0.1-0.7 0.3-1.3 0.5-2.4 0.9 0.9 1.5 1.6 2.2 2.4 8.2 9.4 16.5 18.8 24.7 28.3 1 1.2 1.9 1.5 3.5 1.2 12-2.4 24-4.6 36-6.9 0.7-0.1 1.5-0.2 2.6-0.4-0.6 1.1-0.9 1.9-1.3 2.7-5.6 9.8-11.2 19.7-16.8 29.5-0.9 1.5-0.8 2.7 0 4.2 5.6 10.9 11.2 21.8 16.7 32.7 0.6 0.8 1 1.7 1.7 3z" p-id="972"></path><path d="M627.3 411.3c7.9 0 14.9-0.3 21.8 0.2 1.7 0.1 4.1 2.7 4.8 4.6 8.5 24 16.8 48.1 25.2 72.1 0.6 1.7 1.2 3.3 2.3 6.2 1.2-2.7 2-4.4 2.6-6.1 8.4-23.6 17-47.2 25.2-70.9 1.6-4.6 3.7-6.6 8.9-6.5 16.4 0.3 16.3 0.1 21.1 15.9 6.7 21.8 13.5 43.6 20.3 65.4 0.3 1.1 0.9 2.2 1.7 4.3 6.5-17.3 12.6-33.5 18.6-49.8 4-10.8 8.2-21.6 12-32.5 1.3-3.6 3.1-4.9 6.9-4.6 5.8 0.4 11.6 0.1 18.4 0.1C801.2 454 785.6 497.5 770 541c-0.8 0.2-1.4 0.4-2 0.4-15.5 0.5-15.5 0.5-19.8-14.6-6.3-22.5-12.5-45.1-19-67.6-2.1-7.4-4.8-14.7-7.7-23.5-7.3 22.9-14.1 44.4-21 65.9-3.6 11.4-7.3 22.7-10.8 34.1-0.9 3.1-2.3 4.4-5.8 4.4-13.9 0-13.9 0.2-18.3-13L629 417.9c-0.3-1.9-0.8-3.8-1.7-6.6zM997.1 542.8c-8.8 0-17.2 0.2-25.5-0.2-1.8-0.1-4-2.3-5.2-4-19.6-27.2-39.1-54.4-58.6-81.6-1.4-1.9-2.8-3.8-5.1-6.9V541h-24.1V411.2c8.4 0 16.7-0.2 25 0.2 1.6 0.1 3.3 2.6 4.5 4.3 20.2 27.5 40.4 55 60.5 82.5 1.1 1.4 2.2 2.8 4 5.2v-93.5h24.6c-0.1 44.1-0.1 88-0.1 132.9zM559.3 420.2c-5.2 5.9-9.8 11.3-14.8 17-1.1-0.7-2.1-1.3-2.9-1.9-24.5-18.7-55.2-8.2-62.9 21.5-3.5 13.7-2.8 27.3 2.8 40.4 7.7 18.2 32.2 27.3 50.2 19.2 3.5-1.6 5.1-3.6 5-7.7-0.3-11.5-0.1-23.1-0.1-35.2h24.6c0.1 1.8 0.3 3.5 0.3 5.3 0 12-0.9 24 0.3 35.8 1.1 10.8-4.1 15.8-12.6 20.1-28.9 14.6-67.1 8.5-86.2-14.6-13.9-16.7-17.3-36.6-14.6-57.4 4.7-36.6 27.6-57.7 64.6-59.9 17.4-0.8 32.9 4.8 46.3 17.4zM326 523.1c5.9-6.7 11.1-12.7 16-18.3 7 3.8 13.3 7.9 20.2 10.9 8.4 3.7 17.4 4.3 26.4 2 6.5-1.7 11-5.5 12-12.5 0.8-5.8-1.9-10.8-9-14-10.1-4.7-20.6-8.7-30.8-13.1-3.6-1.6-7.3-3.2-10.7-5.3-24.9-15.9-23.6-48.8 2.3-63 22.4-12.2 53.7-7.8 72.9 10.6-4.6 5.5-9.3 11.1-14.2 17-8.8-6.5-18.1-11.4-29.2-10.9-4.8 0.2-10.1 1-14.3 3.2-8.4 4.3-8.8 14.6-1.2 20.2 3 2.2 6.5 3.8 10 5.3 9.2 3.8 18.5 7.3 27.7 11.2 15.6 6.6 25.6 17.4 25.7 35.3 0.1 15.9-9.5 30.1-26.4 36.3-28.3 10.2-53.7 3.8-77.4-14.9zM857.4 538.7H833V412.4h24.4v126.3zM532 655.9c-1.7-2.1-3-3.7-4.2-5.1 3.6-6.7 7-13.1 10.4-19.5-0.4-0.5-0.8-1-1.3-1.5-9.4 3.8-18.9 7.5-28.8 11.5-0.9-2.3-1.6-4.5-2.4-6.7 0.5-0.5 0.8-0.8 1.1-0.9 11.6-4.6 11.6-4.6 11.6-16.9v-17.9c-3.7-0.2-7.2-0.3-11-0.5v-6.3c3.7-0.2 7-0.3 10.9-0.5v-21.7h7.3v21.6c3.7 0.2 7 0.4 10.6 0.6v6.2c-3.4 0.2-6.7 0.4-10.3 0.6v27.3c3.4-1.2 6.6-2.4 10.1-3.7 0.3 1.7 0.6 3.2 0.9 4.6 0.5 0 1.1 0 1.6 0.1V581h23.7c0.2-3.9 0.4-7.3 0.6-10.8h6.2c0.2 3.5 0.4 6.6 0.6 10.6h21.5c-0.4 6.7-0.8 12.6-1.2 18.9-2.7-0.4-4.8-0.7-7.3-1 0.3-3.5 0.5-6.8 0.8-10.5h-13.6V604h16.9c0.2 13.9-7.6 23.5-15.1 34.5 7.2 3.9 14.1 7.7 21.6 11.8-1.3 1.8-2.9 3.9-5.1 6.8-7.5-4.5-14.8-8.8-21.9-13-7.1 4.2-14.4 8.5-22.2 13.1-1.8-2.7-3.2-4.7-4.4-6.6 7.4-4.1 14.3-7.9 20.8-11.5-4.6-9.9-8.7-18.9-13.8-29.9-0.6 17.7-1.7 33.8-14.6 46.7z m33.7-23.5c0.7 0 1.5 0 2.2-0.1 3.9-6.8 7.7-13.7 12.1-21.3h-24.9c3.8 7.7 7.2 14.6 10.6 21.4z m-19.2-28.2c4.7 0 8.8 0.2 12.9-0.1 1.1-0.1 3-1.5 3.1-2.5 0.3-4.4 0.1-8.9 0.1-13.2h-16.1v15.8zM881 355.1c-5.4 4.4-10.7 8.9-16.2 13.1-2.5 1.9-3.5 3.7-2.6 7 1.7 6.9 2.8 13.9 4.4 22.2-7.6-5.5-14.2-10.2-21-15.1-7.6 4.9-15.1 9.6-23.8 15.2 2.4-8.6 4.3-15.9 6.6-23 1.2-3.5 0.4-5.4-2.6-7.4-5.6-3.7-10.9-7.8-16.1-12.9h13.4c10.5 0 10.5 0 14.7-10 2-4.8 4.1-9.5 6.1-14.2 0.1-0.3 0.6-0.4 1.3-0.8 3.3 6.6 6.8 13 9.7 19.8 1.6 3.8 3.8 4.9 7.7 4.7 5.9-0.3 11.8-0.1 17.8-0.1 0.3 0.4 0.4 0.9 0.6 1.5zM948.9 603.5h22.2v-13.1h-21.8c-0.2-2.4-0.3-4.3-0.5-7h22.8v-14h7.3v13.8h23.8v6.8h-23.2v13.2h18.7c-1.5 14-9.1 23.9-17.9 34.6 8.1 3.9 15.7 7.6 23.9 11.6-1.5 1.8-3.2 3.9-5.6 6.9-8.1-4.5-16.1-9-24-13.5-8.6 4.6-17.5 9.4-26.6 14.2-1.9-2.7-3.3-4.5-4.8-6.5 8.8-4.3 17.3-8.5 25.1-12.3-4.5-9.4-8.4-18-12.7-26.4-0.8-1.6-3.5-2.3-6.2-4-0.2-0.1-0.3-1.8-0.5-4.3z m41.7 6.5h-29.4c4.6 8.1 8.6 15.1 12.6 22.2 0.8 0 1.6 0.1 2.4 0.1 4.6-7.1 9.2-14.2 14.4-22.3zM324.3 652v-6.3h39.2v-8.3h-28.1v-6.5h28.1v-8.1c-7.7 0-15-0.2-22.3 0.1-1.6 0.1-3.4 1.7-4.6 3-3 3.4-5.8 7-9.3 11.3-1.9-2.2-3.4-3.9-4.7-5.5 5.7-7.9 11.2-15.6 17-23.7 1.7 0.7 3.7 1.5 6.2 2.5-0.8 1.8-1.4 3.3-2.2 5.4h20c0.2-2.4 0.4-4.7 0.6-7.2h6.5c0.3 2.2 0.6 4.5 1 7.5H404c0.1 2.4 0.2 4 0.3 6.5h-32.7v7.8h29.9c0.2 2.4 0.3 4 0.5 6.5h-30.4v8.4h36.3v6.5c-27.7 0.1-55.3 0.1-83.6 0.1z" p-id="973"></path><path d="M333.1 573h65.6v37.5c-2.5-0.9-4.7-1.8-6.9-2.4-1.8-0.5-3.8-0.9-5.7-0.9-17.5-0.1-35 0-53 0V573z m6.9 27.6c15.9 0 31.2-0.2 46.5 0.1 5.8 0.1 6.2-2.5 4.7-7.3H340v7.2z m0.2-20.8v6.8h51.4v-6.8h-51.4zM721.4 575.9c-0.2 19.9-5 38-16 55.7 7 5.4 14 10.8 21.7 16.6-1.5 1.7-3.3 3.8-5.8 6.7-6.9-5.9-13.6-11.5-20.2-17.1-8.6 6.2-17.5 12.7-26.6 19.3-2.1-2.8-3.5-4.7-4.8-6.4 9-6.4 17.8-12.7 27.1-19.4-12.6-17.1-12.2-36.7-17.2-55.4h41.8z m-32.2 7.2c1.4 14.4 3.4 28.1 11.7 41 8-13.1 11.2-26.5 12.7-41h-24.4zM429.1 645.7c4 0 6-0.1 8 0 7.4 0.5 9.5-0.7 9.7-7.8 0.4-14.9 0.1-29.8 0.1-45.2 0.2 0.1-0.3-0.3-0.9-0.4-11.2-0.9-11.2-0.9-11.3 10.4-0.1 16.1-2.4 31.8-10.9 45.9-0.9 1.5-1.9 3-3 4.5-0.7 1-1.5 1.8-2.7 3.2-1.8-2-3.5-3.8-5.4-5.9 13.9-16.9 15.2-36.8 14.7-57.8-3.9-0.3-7.6-0.5-11.5-0.8v-6.5c3.9-0.2 7.6-0.5 11.9-0.8v-14.8c2.6-0.1 4.5-0.2 7.1-0.3v15.2h19.7c0.4 1.7 0.9 2.8 0.9 3.9-0.3 16.9-0.5 33.9-1.2 50.8-0.7 15.6-8.9 15-19.4 13.8-1.9-0.1-3.3-4-5.8-7.4zM497.3 581.3v71.9h-6.6c-0.3-2.7-0.5-5.3-0.8-8.2h-18.3c-0.3 2.6-0.6 5.3-0.9 8.3h-6.8v-72h33.4z m-25.8 56.5h18.3v-49.5h-18.3v49.5zM839.4 595.4v-12.1c-4.2 0.2-8 0.4-12.2 0.6-0.6-2-1.1-3.8-1.9-6.4 11.4-1.3 22.6-2.6 34.1-4 0.7 2.1 1.4 4.1 2.2 6.6-5 0.7-9.5 1.4-14.4 2.1V595h13.2v7h-13.3v7.1c7.8-1.6 9.5 6.5 15.6 9.1-2.1 2.3-3.7 3.9-6 6.4-3.1-3.5-5.9-6.7-9.7-11v42c-2.5 0.2-4.4 0.3-7.1 0.5V621c-0.3-0.1-0.7-0.1-1-0.2-3.4 5.9-6.8 11.8-10.6 18.4-3.7-4.6-4.4-7.7-1.2-12.5 4.8-7.4 8.3-15.6 13-24.7h-14.5v-6.8c4.5 0.2 8.9 0.2 13.8 0.2zM577.4 496.6v-23h52.2v23h-52.2z" p-id="974"></path><path d="M641.9 593c1.9-1.2 3.5-2.3 5.7-3.8 5.1 7.7 10.2 15.2 15.2 22.7 0.5 0 1.1 0.1 1.6 0.1 2.1-9.3 4.1-18.6 6.4-28.8h-29.5v-7h37c-0.9 6.9-1.7 13.5-2.8 20-0.6 3.7-1 7.8-2.7 11-5.5 10.1-3.2 18.8 3.9 26.9 4 4.6 2.7 7.7-3.1 9.8-1.5-2.4-3-4.9-4.5-7.4-1.4-2.4-2.9-4.7-4.3-7-6.4 8.2-12.6 16-19.1 24.3-2.6-2.2-4.3-3.8-5.6-4.9 6.1-8.1 11.9-15.9 17.8-23.6 2-2.6 1.7-4.8-0.1-7.5-5.4-8.1-10.5-16.4-15.9-24.8zM929.2 586.9v-16.6h7.1v16.3h10v6.5c-3.2 0.3-6.1 0.5-9.4 0.8v15.2c3.2-0.7 6-1.4 9.2-2.1 0.1 2.4 0.3 4.3 0.4 6-0.5 0.5-0.7 1-1 1.1-9 3.3-9 3.3-9 12.6v16.1c0 9.7-2.3 12-12 12.1h-5.2c-0.5-2.7-1-5.1-1.6-7.5 11.6-1 11.6-1 11.6-12.7v-14.9c-4.2 1.2-7.5 2.2-11.2 3.3-2.2-4.6-2.5-8.1 3.7-8.9 6.1-0.7 8.5-3.9 7.5-10.1-0.5-3.1-0.1-6.3-0.1-10.2-3.9-0.3-7.3-0.5-11.2-0.7V587c3.5-0.1 6.9-0.1 11.2-0.1zM890.2 569.8h7v53c4.9-0.3 9.1-0.5 13.9-0.7 0.3 2 0.6 3.9 0.9 6.2-4.8 0.6-9.3 1.2-14.4 1.8v25.7c-2.6 0.1-4.5 0.2-7.1 0.3v-25.4c-11.5 1-22.3 1.9-33.7 2.8-0.4-2.1-0.7-4.1-1.1-6.6 11.8-1.1 22.8-2.1 34.5-3.2v-53.9zM786.2 647.5c6.2-10.8 3.4-22.2 4.6-33.3h19.7v34.6c0.7 0.1 1.5 0.1 2.2 0.2 0.8-3.3 1.5-6.5 2.3-9.9 6.4 0 4.4 4.5 4.2 7.9-0.3 5.4-3 7.7-8.6 7.2-4.5-0.4-5.8-2.7-5.8-6.6 0.1-3.4 0-6.8 0-10.6-1.6 0.4-2.9 0.7-4.4 1.1-1.1-1.9-2.4-3.9-3.5-5.8-2.5 8.1-5.1 16.2-7.3 23.4-5.2-4.8-9.7-9-13.9-12.9-4.5 5.3-8.1 9.4-12.1 14.1-1.6-2-2.6-3.3-4.3-5.4 12-6.6 12.9-17.8 12-29.8 0.6-0.3 1.2-0.5 1.8-0.8 1.1 1.3 2.4 2.5 3.2 3.9 0.4 0.8 0.3 2 0.1 2.9-2.3 9.3 4 14 9.8 19.8z m9.7-23.5c3.5 3 6 5.1 8.6 7.3V619h-8.6v5zM817.8 577.3c1.8 5.1-0.5 5.9-4.5 5.8-18.6-0.1-37.2-0.1-55.7-0.1h-6.3c-1.6 5.5 1.9 4.8 4.6 4.8h45.6c1.4 0 2.9-0.2 4.2 0.1 0.9 0.2 1.6 1.3 2.4 1.9-0.8 0.9-1.4 2.3-2.4 2.6-1.7 0.4-3.6 0.2-5.4 0.2h-56c-0.2-3.3-0.4-6-0.6-9.3-3.3-0.1-6.6-0.3-10.3-0.5-0.1-1.9-0.2-3.5-0.3-5.6h38.7c-0.9-2.2-1.6-3.7-2.3-5.5 1.8-1 3.5-1.9 5.9-3.2 2.3 11 10.7 8.7 18.1 8.8h24.3zM807 597v13.6h-62.5V597H807z m-56 4.6l-0.6 1.2c1 0.7 1.9 2.1 2.9 2.1 15 0.1 30 0.1 44.9 0 0.9 0 1.7-1.6 3.3-3.3H751zM743 650.5c9.9-0.9 9.9-0.9 9.1-9.2h-8.6c-2 4.8-4.1 9.7-6.7 16-2-2.5-3.2-3.9-4.6-5.6 7.7-11.3 6-24.3 6.5-37.5H758c0 11.6 0.2 23-0.1 34.3-0.1 5.5-3.8 7.3-9 7.2-3.4-0.1-6.7 0.1-5.9-5.2z m9.6-25.5c-0.2-2.4-0.3-4.3-0.4-6h-7.8v6h8.2z m-8.6 11.1h8.5c-0.1-2.3-0.2-4.2-0.3-5.9H744v5.9z" p-id="975"></path><path d="M762.5 614.4h23.2c0 7.7 0.1 15.2-0.1 22.7 0 1-1.7 1.9-2.7 2.9-0.8-1.1-2.2-2.2-2.3-3.3-0.2-5.7-0.1-11.4-0.1-17.4h-12.8c0 5.5 0.2 11-0.1 16.4-0.1 1.5-1.6 2.9-2.5 4.3-0.9-1.4-2.4-2.9-2.5-4.3-0.2-6.9-0.1-13.8-0.1-21.3zM604.1 620.2v-6.3h25.7c0.1 2 0.2 3.9 0.3 6.3h-26zM866.3 583.5c1.4-1.6 2.7-3 4.3-4.7 5.4 4.5 10.6 8.7 16.2 13.2-1.8 2-3.3 3.7-4.9 5.5-5.4-4.8-10.4-9.3-15.6-14zM866 600c4.8 4 9.8 8.1 14.9 12.4-1.7 2-3.1 3.7-4.8 5.7-5.1-4.6-9.9-9-15.6-14.1 2-1.4 3.6-2.6 5.5-4z" p-id="976"></path></svg>