<?xml version="1.0" encoding="utf-8"?>
<!-- Generator: Adobe Illustrator 23.1.1, SVG Export Plug-In . SVG Version: 6.00 Build 0)  -->
<svg version="1.1" id="圖層_1" xmlns="http://www.w3.org/2000/svg" xmlns:xlink="http://www.w3.org/1999/xlink" x="0px" y="0px"
	 viewBox="0 0 1024 1024" style="enable-background:new 0 0 1024 1024;" xml:space="preserve">
<path d="M110.6,512.6c2.9-5.3,5.6-10,8.2-14.7c4.6-8.3,9.2-16.7,13.8-25c3.6-6.5,7-13,10.6-19.5c4.8-8.7,9.6-17.4,14.4-26.2
	c4.1-7.5,8.2-15,12.3-22.4c1.7-3,7.2-4.4,9.5-2.4c2.2,1.8,2.9,7.4,1.2,10.7c-3.5,6.7-7.2,13.3-10.9,19.9
	c-3.8,6.9-7.7,13.9-11.5,20.8c-3.5,6.3-6.9,12.7-10.3,19c-4.6,8.3-9.2,16.5-13.7,24.8c-4.6,8.4-9.3,16.8-13.9,25.3
	c-1.2,2.3-2.4,4.6-3.6,6.9c-3.2,5.8-8.8,6-12,0.3c-7.9-14.2-15.7-28.5-23.6-42.8c-7-12.8-14.1-25.6-21.1-38.4
	c-5.3-9.7-10.6-19.4-15.9-29.1c-0.7-1.2-1.5-2.4-2.2-3.5c-8.9,3.4-12.1,14.6-7,23.4c5.3,9.1,10,18.7,15,28
	c5.9,10.9,11.8,21.8,17.6,32.7c5.9,11.1,11.8,22.2,17.7,33.3c4.9,9.1,9.9,18.2,14.8,27.3c2.5,4.6,4.9,9.3,7.4,14
	c0.6,1.1,1.3,2,2.1,3.4c3.5-6.3,6.8-12.2,10-18.1c6.1-11.1,12.2-22.2,18.2-33.2c5.5-10,10.9-20,16.4-30c5.2-9.4,10.4-18.8,15.6-28.3
	c3.7-6.7,7.3-13.4,11-20.1c5.1-9.4,10.2-18.7,15.4-28.1c2.8-5.1,5.6-10.3,8.6-15.3c1.9-3.2,5-4.8,8.3-4.8c24.5-0.1,49-0.2,73.5,0
	c4,0,7.9,1.6,11.9,2.4c5.1,1,9.7,3.4,14.2,6.2c9.8,6.3,17,15.3,21.6,26.9c3.4,8.5,5.1,17.5,4.8,26.7c-0.4,13.3-4.2,25.4-11.5,36.1
	c-5.6,8.1-12.9,13.6-21,17.9c-2.2,1.2-4.7,1.9-7.3,2.9c0.5,1,0.8,1.8,1.3,2.5c5.8,7.7,11.6,15.5,17.4,23.2
	c6.8,9.1,13.5,18.2,20.3,27.3c3,4,6,8,8.6,12.4c2.5,4.3,1,9.2-3.3,11.1c-12.6,5.8-25.2,5.8-36.9-2.4c-4.1-2.9-7.3-7.5-10.7-11.5
	c-3.1-3.7-6-7.8-9-11.7c-7.6-10.3-15.2-20.6-22.9-30.9c-6.1-8.2-12.3-16.3-18.4-24.4c-5.4-7.2-10.9-14.4-16.2-21.8
	c-3.5-4.8-2.5-10.5,1.9-12.7c0.9-0.4,1.9-0.5,2.8-0.5c14.9,0,29.7-0.2,44.6,0c7.3,0.1,15-7.2,16.3-14c1.7-8.9-1.9-18.6-9.3-22.2
	c-2.1-1-4.5-1.6-6.8-1.6c-13.7-0.1-27.5-0.1-41.2-0.1c-1.6,0-3.3-0.2-4.8-0.6c-3.6-0.8-5.5-3.9-5.1-8.1c0.3-3.4,2.9-5.6,6.4-5.6
	c15.4,0,30.7-0.2,46.1,0.1c11.3,0.2,19.7,6.4,25.1,17.7c3.1,6.5,3.8,13.7,2.8,20.7c-1.8,12.6-8.5,23.3-21.7,27
	c-2.1,0.6-4.3,0.9-6.5,0.9c-9.7,0.1-19.4,0-29.2,0c-0.9,0-1.8,0-3.3,0c2,2.9,3.6,5.2,5.3,7.5c8.4,11.4,16.8,22.7,25.3,34.1
	c6,8.1,12.1,16.2,18.2,24.2c4,5.3,7.9,10.5,11.9,15.8c4.4,5.8,9.8,9.2,16.6,9.7c1.5,0.1,3-0.2,5-0.4c-1.9-2.8-3.5-5-5.1-7.2
	c-8.2-11.2-16.5-22.3-24.8-33.5c-5.8-7.8-11.7-15.6-17.5-23.5c-1.6-2.2-3.1-4.4-3-7.6c0.1-3.5,1.9-5.8,4.9-6.3c4-0.7,8.1-1.1,12-2.2
	c8.5-2.4,15.2-7.9,20.6-15.6c3.5-5,6.3-10.2,7.8-16.3c1.3-5.5,2-10.9,1.1-16.6c-1.2-7.6-3.3-14.8-7.2-21.1
	c-4.8-7.8-11.1-13.5-19.2-16.7c-7.3-2.9-14.9-3.3-22.6-3.3c-19.2,0-38.4,0.1-57.6-0.1c-4.6-0.1-6.6,3-8.6,6.7
	c-7.2,13.2-14.5,26.4-21.7,39.6c-5.3,9.8-10.6,19.6-15.9,29.3c-6.1,11.1-12.2,22.1-18.3,33.2c-5.3,9.7-10.6,19.4-15.9,29
	c-5.7,10.4-11.5,20.7-17.2,31.1c-2,3.6-3.8,7.3-6,10.7c-1.2,1.9-3,3.9-4.9,4.6c-3.8,1.4-6.1-0.3-8.4-4.6
	c-8.2-15.4-16.4-30.7-24.6-46c-6.6-12.3-13.1-24.7-19.7-37.1c-6.7-12.6-13.6-25-20.3-37.6c-5.5-10.3-10.9-20.6-16.2-31.1
	c-2.3-4.7-2.5-10-2.1-15.3c0.5-7.2,3.1-13.4,7.8-18.4c3.6-3.8,7.8-6.6,12.8-7.4c0.6-0.1,1.1-0.3,1.7-0.5c4-1.5,7.1-0.5,9.4,3.6
	c6.7,12.1,13.3,24.4,20,36.5c6.3,11.6,12.7,23.1,19,34.6c5.4,9.8,10.7,19.5,16,29.3C107.7,507.5,109,509.7,110.6,512.6z"/>
<g>
	<path d="M671.4,481.7c-2.4,6.2-4.8,12.3-7.1,18.6c-2.5,6.8-4.9,13.6-7.2,20.4c-1.2,3.5-2.4,7.1-3.6,10.6c-1,3-2.4,4.9-6.3,4.9
		c-9.6,0.1-7.9,0.3-11.2-8.5c-4.6-12.4-8.9-24.9-13.2-37.4c-0.7-2.1-1.4-4.2-2.7-6.4c-0.1,1.1-0.2,2.2-0.2,3.4c0,14.8,0,29.6,0,44.4
		c0,4.2-0.2,4.4-4.5,4.4c-7.7,0-7.7,0-7.7-7.5c0-21.1,0-42.2,0-63.3c0-4.5,0-4.6,4.8-4.6c2.5,0,5,0,7.5,0c5.1,0.1,6.4,1.3,8.1,6.3
		c2.4,6.9,5.2,13.7,7.7,20.7c2.9,8.2,5.6,16.5,8.4,24.7c0.3,1,1,1.9,1.9,3.6c4-10.9,7.7-21.1,11.4-31.2c2.5-6.8,4.8-13.6,7.2-20.4
		c1.2-3.3,3.5-4.4,7-4c3.5,0.4,7.1,0.3,10.7,0.3c2,0,2.9,0.7,2.9,2.8c0,23.2,0,46.4,0,69.5c0,2.3-0.8,3.2-3.2,3.2
		c-9.7,0.2-9.7,0.2-9.7-9.4c0-13.3,0-26.6,0-39.9c0-1.7,0-3.4,0-5C671.9,481.8,671.6,481.7,671.4,481.7z"/>
	<path d="M868.7,515.2c0-2.2,0-3.4,0-4.7c0-15.4,0.1-30.8-0.1-46.1c0-3,0.8-3.9,3.9-3.9c8.5,0.1,8.5,0,8.5,8.5
		c0,21.1-0.1,42.2,0.1,63.3c0,3.1-0.9,4.1-3.9,3.8c-2.2-0.2-4.4-0.3-6.5,0c-4.6,0.8-7.2-1.4-9.4-5.1c-8.2-13.5-16.6-27-24.9-40.5
		c-1.8-2.9-3.7-5.8-5.6-8.7c-0.3,0.1-0.6,0.2-0.8,0.3c0,17.8,0,35.6,0,53.9c-3.6,0-6.8,0.1-10-0.1c-0.6,0-1.4-1-1.7-1.7
		c-0.3-0.8-0.1-1.8-0.1-2.7c0-22.3,0.1-44.5-0.1-66.8c0-3.3,1-4.6,4.3-4.2c1.8,0.2,3.7,0.3,5.5,0c5-0.8,7.6,2.1,9.9,5.8
		c9.7,15.7,19.3,31.4,29,47.1C867,513.9,867.5,514.1,868.7,515.2z"/>
	<path d="M439.6,512.1c-0.3,5.7-0.5,11.4-0.8,17.1c-0.2,3.3-2.1,4.9-5.5,5.5c-4.6,0.8-9,2.6-13.6,3c-4.3,0.4-8.9,0.1-13.2-0.6
		c-4.4-0.8-8.9-1.9-13-3.7c-7.9-3.5-12.7-9.9-15-18.1c-1.7-6-4.3-11.9-3.4-18.2c2.3-16.4,6.6-30.1,26.1-36.1
		c8.1-2.5,16.5-2.5,24.8-0.7c3.4,0.7,6.7,1.9,10.1,2.8c2.2,0.6,2.2,2,1.7,3.7c-0.5,1.6-1,3.2-1.7,4.8c-1.7,3.8-4.1,4-9.7,2.2
		c-11.5-3.8-23.7-3-31.3,8.1c-2.2,3.2-3.7,7.2-4.2,11c-1,7-0.4,14.1,2.7,20.7c4.3,9.2,13.4,12.4,22.6,11.3c8.8-1,8.7-1.5,8.7-10.5
		c0-8,0-8-7.8-8c-0.2,0-0.5,0-0.7,0c-5.8,0-8-2.5-7-8.4c0.5-2.6,2.2-3.8,4.9-3.8c6.9,0.1,13.8,0.2,20.7,0c3.2-0.1,4.1,1.6,4.1,4.2
		c0.1,4.6,0,9.2,0,13.8C439.4,512.1,439.5,512.1,439.6,512.1z"/>
	<path d="M985.8,506.5c-4.4,0-8.3-0.1-12.1,0c-2.4,0.1-3.4-0.8-3.2-3.2c0.1-1.5-0.1-3,0.2-4.5c0.6-2.8,2.2-4.7,5.4-4.7
		c6.7,0,13.3,0.1,20,0c2.8,0,3.9,1.1,3.9,3.9c-0.1,10,0,20-0.1,29.9c0,3.8-2.2,6-5.8,6.8c-4.2,0.9-8.3,2.7-12.5,3
		c-5,0.4-10.2,0.1-15.1-0.8c-5-1-10-2.6-14.4-4.9c-7.5-3.9-12.1-10.4-13.1-18.8c-0.9-7.3-1.6-14.8-1.3-22.2
		c0.7-13.7,7.5-24.3,22.1-29.4c10.3-3.6,20.7-3.1,31.1-1c8.3,1.6,9.4,4.2,5.7,11.8c-0.5,1.1-2.7,2.1-4,2c-3.5-0.4-6.9-1.4-10.3-2.1
		c-10-2.1-18.8,0.1-25.2,8.2c-2.6,3.3-4.1,7.9-4.8,12.1c-1.3,8-0.7,15.9,3.8,23.1c4.8,7.6,12.4,9.7,20.5,9
		c11.6-1.1,9.3-1.5,9.5-11.1C985.9,511.5,985.8,509.3,985.8,506.5z"/>
	<path d="M522.2,476.6c-4.2,12-8.1,23.3-12,34.6c-2.1,6-4.2,12-6.1,18.1c-1.9,6.2-3.7,7.5-10.1,6.8c-0.8-0.1-1.6,0-2.4,0
		c-4.9,0-5.1-0.4-3.3-5.1c5.2-13.7,10.3-27.5,15.4-41.2c2.9-8,5.7-16,8.6-24c1.8-4.8,3.5-5.8,8.9-5.8c0.9,0,1.8,0.1,2.8,0
		c4.5-0.1,6.7,2.7,8.2,6.5c5.3,14.2,10.6,28.4,16,42.6c2.7,7.3,5.5,14.6,8.2,21.9c0.5,1.3,0.3,2.9,0.5,4.9c-4.2,0-8.2,0.6-12-0.3
		c-1.8-0.4-3.6-3.2-4.3-5.3c-4.4-12.4-8.4-25-12.6-37.5C526.2,487.6,524.3,482.4,522.2,476.6z"/>
	<path d="M744.9,535.4c0-1.1,0-2.3,0-3.6c0-22.2,0-44.5,0-66.7c0-4.6,0-4.6,4.4-4.6c8.7,0,8.7,0,8.7,8.7c0,20.7,0,41.5,0,62.2
		c0,4.6,0,4.6-4.5,4.6c-2.4,0-4.8,0-7.2-0.1C745.9,536,745.6,535.7,744.9,535.4z"/>
</g>
</svg>
