<?xml version="1.0" standalone="no"?><!DOCTYPE svg PUBLIC "-//W3C//DTD SVG 1.1//EN" "http://www.w3.org/Graphics/SVG/1.1/DTD/svg11.dtd"><svg t="1574739789702" class="icon" viewBox="0 0 1024 1024" version="1.1" xmlns="http://www.w3.org/2000/svg" p-id="2724" xmlns:xlink="http://www.w3.org/1999/xlink" width="200" height="200"><defs><style type="text/css"></style></defs><path d="M180.4 517.8c0.8-1.3 2.2-2.6 2.3-4 3.8-33.4 11.2-65.8 24.7-96.7 4.3-9.7 6.5-20.3 10.3-30.3 2.7-7 7.4-12.2 14.3-16.2 7.7-4.4 15.2-10 15.2-20.7 0-1.2 1.2-2.5 2.2-3.5 8-8.4 16.5-16.5 24-25.3 2.8-3.3 6-11.3 4.8-12.3-4.8-4.1-8.4 1.4-11.8 4.3-14.5 12.4-22.3 29.4-31.7 45.4-2 3.4-4.8 6.3-7.2 9.5l-2.1-1.2c0.3-1.4 0.3-3 0.9-4.2 9.8-19 20.4-37.6 34.3-54.1 2-2.4 1.8-6.7 2.9-10 0.8-2.5 1.5-5.5 3.2-7 10-8.8 20.2-17.3 30.4-25.8 7.5-6.2 15.4-12 22.5-18.7 10.6-10 24-13.2 37.2-16.9 2.4-0.7 5.5 1.1 8.2 1.1 3.4-0.1 6.8-0.8 10.3-1.3-1.3-3-2.5-6-3.9-8.9-0.4-0.8-1.1-1.3-1.7-2 0.2-0.8 0.5-1.5 0.7-2.3 7.1 1.4 14.1 2.7 22.2 4.3 1.2-4.6 2.9-10.6 4.8-17.9h-25.8c-0.2-1-0.3-2-0.5-3.1 4.9-1 9.8-2.5 14.7-3 10.1-1 19.7-0.7 23.9 11.4 0.4 1.2 4.6 2.5 5.8 1.7 4-2.5 6.6-0.8 9.5 1.7 3.4 2.9 12.4 2.8 14.5-0.8 1.3-2.1 0.2-5.5 0.2-9.9 3.1 1.6 7.2 2.5 9.4 5 4 4.4 8.7 3.5 12.3 1.7 2-1 1.8-6.1 3-10.4 4.8-0.8 9.6 2.2 13.6 7 1.2 1.4 2.1 3.5 3.6 4.2 3.1 1.3 9 3.4 9.5 2.5 2.6-4 3.7-9 5.3-13.6-0.8-0.4-1.5-0.8-2.3-1.3-1.9 1-3.7 2-5.6 3-0.5-0.2-1-0.5-1.5-0.7 1.8-3.8 3.2-7.8 5.6-11.2 2.3-3.1 5.5-2.1 6.5 1.3 1 3.5 1.1 7.4 0.7 11-0.4 3.7-2 7.3-2.7 11.1-0.2 1.3 0.6 3.2 1.6 4.1 0.6 0.5 2.7-0.2 3.7-0.9 3.3-2.2 7-4.1 9.3-7.1 1.8-2.3 2-6 2.3-9.2 0.2-1.6-0.8-3.4-1.3-5.1l1.8-1.8c4.6 3.7 9.5 7 13.6 11.1 2.5 2.6 3.9 6.4 8.3 4.9 4.7-1.6 5.4-5.5 4.7-9.9-0.1-0.4 0.3-0.9 0.6-1.7 5.9 0.9 8.1 5.4 10.5 10.1 1.6 3.2 4.3 5.8 6.5 8.6l2.7-1.8c-1.3-2.2-2.3-4.5-3.8-6.4-3-3.8-4.3-7-0.3-11.3 1.1-1.1 0.6-5.3-0.7-6.9-3.4-4.3-7.6-7.8-11.4-11.7-1.5-1.6-2.7-3.4-4.1-5.2 0.6-0.6 1.1-1.3 1.7-1.9 4.6 3.2 9.3 6.4 13.9 9.7 1 0.7 1.6 1.9 2.6 2.4 2.2 1 4.6 1.7 6.9 2.3 0.3 0.1 1.7-2.3 1.4-2.6-1.4-1.9-3.2-3.8-5-5.3-0.8-0.7-2.2-0.7-3.5-1.2 0-1.4-0.2-2.6 0-3.6 0.8-2.8 1.8-5.5 2.7-8.3 2.5 1.2 5.5 1.9 7.3 3.8 5.7 6.1 8.4 1 12.2-4.9 6.5 9.3 12.2 17.4 17.8 25.5 0.4-0.2 0.9-0.4 1.3-0.6v-6.7c6.8 6.8 9.8 13.4 10.5 21.8 0.7 7.8 2.9 15.4 4.5 23.1l3.6-0.3c0.4-3.6 0.8-7.3 1.3-11.6 5.9 2.3 9.4 6.6 11.5 12.3 1.4 3.7 1.7 9.3 6.9 8.3 3.8-0.8 7.2-4.5 10.5-7.1 1-0.8 1.5-2.3 4.2-3.6 0.6 4.1 1.9 8.3 1.6 12.3-0.3 5.6 2.5 13.7 6.3 13.8 5.7 0.2 7.9-4.3 9.4-9 0.2-0.6 0.7-1.1 1.5-2.2 4.5 5.5 5.9 11.4 5.1 17.9-0.2 1.6-1.2 3.3-1 4.9 0.2 1.9 1.2 3.7 1.9 5.6 1.6-0.8 3.3-1.5 4.6-2.6 1.2-1 2-2.5 3-3.9 5.8 8.1 4.7 14.4-3.8 19.3 2.8 4.2 5.5 8.4 8.3 12.6 0.6-0.1 1.3-0.2 1.9-0.3 1.8-7.9 4.8-15.7 5.2-23.6 0.6-12.3-0.6-24.6-1.2-37-0.1-1.5-0.8-3.7-1.9-4.3-6-3.4-4.3-7.1-1.6-11.7 2-3.4 2.7-7.5 5.6-11.4 2.4 10 4.8 20.1 7.2 30.5 3.4-1.2 5.9-2 9.3-3.2-0.5 2.3-0.3 3.8-0.9 4.3-6.9 5.1-5.1 10.7-1.6 16.8 2.3 4.1 3.9 8.7 6 12.9 5 9.7 7.9 19.4 5 30.8-1.2 4.5 3.2 10.4 2.3 15.1-2.2 11 6.5 13.1 13.1 17.6-0.8-3.5-2.3-7-2.1-10.4 0.5-10.9 1.6-21.7 4.1-32.9 1.6 2.1 3.3 4.2 4.9 6.3 0.8-0.2 1.5-0.3 2.3-0.5 0.4-5 1.1-10 1.2-15 0.1-4.7-0.3-9.5-0.8-14.2-0.4-4.3 0.7-6.7 5.1-8.7 3.6-1.6 6.2-5.5 8.9-8.6 1.9-2.2 3.1-4.8 4.6-7.2 0.7 0.3 1.4 0.7 2.1 1-1.3 3.6-3.2 7.1-3.9 10.8-1 5.7-2.2 11.7-1.3 17.2 1.7 10.8 2.2 20.6-3 31.1-3.6 7.3-3.3 16.5-5.1 24.8-1 4.6-2.3 9.3-4.2 13.7-2.8 6.3-3.8 12-1.1 19.1 5.4 14 13.5 27.1 14.5 42.7 0.5 7.5 6.3 11.7 12.8 14.9 4.2 2.1 9 4.2 11.7 7.7 4.3 5.7 8.6 5.9 14.1 3.2 2.9-1.4 5.7-2.9 9.6-4.9-2.2 7.7-7 10.3-13.1 11.6-9.8 2.1-11.9 6.2-7.8 15.5 1.1 2.4 3 4.4 3.8 6.8 1 2.6 1.2 5.5 1.8 8.3-2.8 0.4-5.8 1.6-8.4 1.1-10.9-2.5-21.7-5.5-32.9-8.4 2.6-7.7 2.1-13.1-3.9-18.2-4.2-3.6-6.1-9.6-9.7-14-2.7-3.2-6.7-4.6-10.8-1.4-4.4 3.4-3.7 8-1.1 11.5 3.7 4.9 2.8 9.4 1.8 14.7-0.6 3.2-0.3 8.2 1.7 10.1 3.9 3.8 8.2 9.5 15.4 4.6 2.7 6.3-1.8 9.8-4.8 13.1-1.1 1.2-5 0.7-7.3-0.1-6.7-2.4-13.1-5.5-19.8-7.9-1.7-0.6-4.6-0.4-5.9 0.6-3.7 3-7 6.5-10.2 10-6.2 6.8-5.5 9.3 3.6 13.4-2.4 0.9-5.2 3-7.2 2.4-2.1-0.6-5.2-3.8-5-5.6 0.5-4.2 2.1-8.6 4.3-12.3 2.2-3.7 5.8-6.6 9.3-10.4-7.8-5.4-14-11.3-14.5-22.6 4.7 3.4 8.5 6.2 12.3 9-0.6-15.3-18.8-19.1-20.1-35.1 4.8 3.5 8.5 6.2 12.2 8.9l2.1-2.1c-3.8-4.1-7.5-8.2-11.4-12.2-4-4-8.3-7.7-12.1-11.9-1.3-1.5-1.6-4-2.9-7.7 3.9 2.1 6 3.3 8.1 4.5 0.6-0.3 1.3-0.7 1.9-1-6.5-8.6-17-15.9-10.7-28.5l11.4 6.3c0.6-0.7 1.2-1.3 1.7-2-7-6.3-13.8-12.8-21.2-18.6-2-1.6-6-1.3-8.9-0.7-1.8 0.3-3.3 2.7-4.9 4.1 1.8 1 3.6 2 5.5 2.9 5.5 2.7 11.1 5.5 16.7 8.2-3.2-0.6-6.8-0.6-9.6-2-6.5-3.2-12.5-5.4-19.4-0.9-3.3 2.1-8.8-3.6-8.5-8.5 0.3-5.7 7.8-12.9 13.7-13.6 1.4-0.2 2.6-1.4 3.9-2.1-1.1-1.4-2.3-3.9-3.4-3.8-2.9 0.1-6 0.9-8.5 2.3-3.5 2-6.4 4.9-9.6 7.3-0.5 0.4-1.3 0.4-1.9 0.6-3.8-4.5-7.5-8.9-11.2-13.4-0.6-0.7-1.3-2.1-1-2.5 4.8-6.5-3-9.2-4.6-13.7-0.5-1.5-6.1-1.4-9.5-1.9-3.3-0.4-6.6-0.7-10-0.8-1.7-0.1-3.8-0.3-5.1 0.5-7.1 4.2-11.8 10.2-16.1 17.4-4 6.7-11 11.8-17.2 17-1.4 1.2-5.2 0.6-7.3-0.4-4.4-2.1-7.1-0.9-9.5 3-1.2 2-2.8 4.7-4.6 5.2-4 1-9.1 2.3-12.3 0.7-2.9-1.5-4-6.6-5.9-10.2 5.2 0.8 8.8 2.3 12 1.6 1.7-0.3 3.4-4.4 3.5-6.7 0-1.2-3.8-3.1-6.1-3.4-7.9-1.2-15.9-1.8-23.9-2.6-5.6-0.5-9.5-2.9-10.6-8.7-1.2-6.2 2.2-9.7 8.2-13-0.6 3.3-2.1 6.1-1.2 7.5 1.5 2.3 4.3 3.9 6.9 5.1 0.4 0.2 3.2-2.7 3.5-4.5 2.6-12.8 10.7-21 21.5-21.1 1.3 0 2.5 0.5 5.5 1.1-2.7 1.5-4 2.2-5.3 2.9-3.2 1.6-6.6 2.8-9.5 4.8-4.3 2.9-8 6.8-5.3 12.5 2.5 5.5 11.3 8.9 16.4 6.9 5.6-2.3 11.5-4.3 16.7-7.4 4.6-2.7 0.9-5.3-1.5-7-2.7-1.9-5.8-3.2-8.7-4.8 2.7-2.1 5.6-4.1 8.2-6.3 1-0.9 1.9-2.1 2.5-3.3 7.4-15 25.9-23 41.7-17.1 10.7 4.1 20.9 9.6 33 13.8-1.1-2-1.7-4.9-3.4-5.7-6.8-3.5-13.9-6.3-20.9-9.3-1.3-0.6-3-0.7-3.9-1.6-10.5-9.5-21.3-4-32-0.7-8 2.5-15.8 6.4-24.7 1.8-0.8 1.9-1.4 3.4-1.9 4.9-1.9 5.8-8 7.7-12 3.1-3.4-4-6.5-8.8-8.2-13.8-2.1-6.1-4.8-8.9-11.9-9.8-6.8-0.9-13.6-4.6-19.6-8.4-4.9-3.1-13.5-3.8-18.2-0.1-2.4 1.9-5.5 3-8.5 3.9-5 1.6-10.2 2.9-15.3 4.1-1.7 0.4-4.1 0.9-5.3 0.2-5.3-3.3-8.8-2.6-14.8 0.5-7.9 4-18.2 3.5-27.4 4.9l-1.2-3c2.4-1.5 4.6-3.6 7.2-4.3 7.8-2.2 15.9-3.7 18.1-13.4-0.1-0.1-0.8-0.5-0.9-0.4-7.8 7.1-17.5 10.4-27.1 14.3-8.7 3.5-16.1 10-24.1 15.1-1.2 0.8-2.4 1.6-3.7 1.9-14.7 3.6-26.6 12.4-38.9 20.5-1.4 0.9-2.5 3.6-2.2 5.3 1.1 6.5-2 13.3-8.3 16.6-0.6 0.3-1.8 0.2-2 0.6-4.6 9.6-12.9 5.1-20.1 6.1-4.4 0.6-8.9 3.8-12.4 6.9-4 3.5-7.2 8.1-10.5 12.4-3.9 4.9-7.4 10.2-11.5 14.9-2.8 3.1-6.5 5.4-9.7 8.2-2.5 2.1-5.6 4-2.2 8.2 0.8 0.9-0.6 5.4-1.9 5.8-11.1 4-15.2 14.3-19.8 23.3-21.5 42.2-32.9 87.1-30.6 134.6 1 20.8 5 41.5 7.8 62.2 0.3 2 1.9 3.7 2.9 5.6 1.6 3.1 3.7 6.1 4.8 9.4 2.2 6.4 4.4 12.9 5.7 19.6 3.6 18.1 14.9 31.7 25.6 45.7 1.1 1.5 1.8 3.3 2.7 5 4.4 8.2 10.6 14.6 17 21.4 12.2 13.1 26.9 22.8 40.4 34.2 2.2 1.8 4.5 3.4 7.2 5.4-0.8 1.5-1.6 3-3.1 5.6 9.6 4.8 18.8 9.5 28.2 14 13.8 6.8 27.4 14.1 41.5 20.1 8.8 3.7 18.3 5.6 27.6 8.1 2.7 0.8 5.8 0.6 8.4 1.6 6.1 2.3 11.9 4.3 18.6 2.3 2.1-0.6 4.9-0.3 7 0.4 19.8 6.6 40.2 4.1 60.1 1.9 26-2.8 51.3-10 75.3-20.6 15.1-6.7 29.6-14.8 44.7-21.7 8-3.6 16.4-6.8 26.6-3.5-3.7 3.4-7.3 6.9-11.2 10-7.3 6-14.2 12.6-22.3 17.4-8.9 5.2-18.7 9.5-28.5 12.7-18 5.8-36.4 10.4-54.7 15.5-1.1 0.3-2 1.1-3.6 2 1.9 1.7 3.3 3 5.2 4.7-1.6 0.5-2.9 1.1-4.1 1.1-14.5 0-29-0.4-43.5-0.2-3.3 0-6.6 2-9.9 2.6-2.5 0.4-5.6 0.8-7.8-0.3-4.9-2.4-9.2-2.6-14.2 0.1-2.7 1.5-6.6 2.5-9.4 1.8-6.6-1.7-12.7-5.4-19.9-2.7-1 0.4-2.8-1.5-4.3-2-6.6-2.4-13.2-4.9-19.9-7.1-0.9-0.3-3.3 1-3.3 1.5 0 1.4 0.6 3.6 1.6 4.2 7.1 3.7 14.3 7 21.5 10.4l6.6 3h-17.1c-1.3-1.2-2.5-2.6-4.1-3.5-6.8-4.1-16-5.7-15.7-14.9-8.9-0.7-17.2-0.2-25-2.2-10.9-2.7-21.4-7.1-31.9-11.1-3.8-1.5-7.5-3.8-10.7-6.5-6.3-5.4-12.1-11.4-18.2-16.9-19.1-17-39.7-32.5-52.1-55.8-7.3-13.7-15.8-26.9-23.4-40.5-15.7-28.2-26.4-58.3-34.5-89.4-2.7-10.5-4.8-21.2-7.2-31.8 0.8-14.8 0.8-29 0.8-43.3z m127.4-235.5c2.5 11.4 8 13.2 17 6.6 0.8-0.6 1.3-1.4 2.1-1.9 5.1-3.3 10.2-6.5 15.3-9.8 5.3-3.4 10.7-6.8 17-10.8-4.9-3.6-7.9-5.8-11-7.9-9.5-6.3-19.9-5.2-28.5 2.5-7.8 6.9-16 13.3-24 20-1 0.9-1.4 2.5-2.1 3.8 1.5 0.3 3.1 1.1 4.4 0.8 3.3-0.9 6.5-2.2 9.8-3.3z m382 73.2c2.7-8.2 2.6-16.9-2.8-25.2-1-1.6-0.8-4-1.5-5.9-1.2-3.2-1.9-7.1-4.2-9.2-5.3-5-11.1-9.9-17.4-13.4-8.3-4.5-16.8-7.9-18.3-18.9-0.1-0.9-2.4-1.5-3.7-2.2-0.6 1.2-1.8 2.4-1.6 3.5 1.2 8.3 1.1 17.2 9.8 22.4 4.5 2.6 8.7 5.7 12.9 8.8 1.3 0.9 3.1 3.3 2.7 4.1-4.5 9.6 3.1 13.4 8.3 18.6 5.5 5.4 10.4 11.4 15.8 17.4zM679.3 303c5.4-3.6 6.4-6.6 3.2-11.9-4.2-7.1-8.6-14.2-13.7-20.7-8.9-11.6-22.3-15.6-36.1-21.6 0.6 9.1 5.8 10.8 11.5 12 6.2 1.2 12.7 2.6 12.7 10.7 0 6.5 3.6 9.9 8.4 12.9 7 4.4 14.1 8.6 14 18.6z m48.1 57.6c-3.5 11.8 9.9 22.7 23.2 20.1-4.8-10.1-15.1-13.1-23.2-20.1zM606.6 253.5c-4.8-8.7-14-10-20.7-14.7-0.4-0.3-5 3.4-5.2 5.5-0.3 2.8 1.9 5.8 3.3 9.7 7.9-10.8 14.1 3.4 22.6-0.5z m102.3 162.2c0.4-3.8 1.3-7.2 0.8-10.4-0.3-2.1-2.3-4.4-4.2-5.8-0.8-0.6-3.9 0.4-4.6 1.5-2.8 4.9 2.4 14 8 14.7zM567 207.4c2.1-3.6 4.1-6.1 3.7-6.6-2.1-2.5-4.8-4.4-7.3-6.5-0.9 1.1-2.7 2.7-2.4 3.3 1.3 2.8 3.2 5.4 6 9.8zM783.6 420c-2.7 3.2-4.5 5.3-5.9 7.5-0.2 0.3 1.7 2 2.6 3 1.8-1.7 3.8-3.2 5.2-5.2 0.4-0.7-0.9-2.5-1.9-5.3zM563.9 317.3c-1.3-0.5-2.6-1-3.8-1.5-1.3 3.5-2.7 7.1-4 10.6 1.1 0.4 2.1 0.8 3.2 1.3 1.5-3.5 3-6.9 4.6-10.4z m-44.7-94.8c-0.5-1-1-1.9-1.4-2.9-2.9 1.3-5.8 2.5-8.7 3.8 0.7 1.1 1.8 3.2 2 3.1 2.8-1.1 5.4-2.6 8.1-4z" p-id="2725"></path><path d="M311.3 408.2c0.5-5.7 0.8-10.1 1.2-14.4-10.6-1.9-13.7-5.1-15.7-16-0.6-3.5-1.8-7.1-1.4-10.6 0.4-2.9 1.9-6.7 4.2-8.1 7.8-4.9 16.4-8.5 24.1-13.5 18.6-12 39.4-16 60.7-18.5 5.7-0.7 17.4 12.5 15.5 17.7-0.7 1.9-4.3 3.3-6.8 3.7-10.1 1.7-20.3 2.5-30.3 4.4-10.2 1.9-16.2 10.5-24.5 15.4 0.5 0.9 0.9 1.9 1.4 2.8 5.1-2.2 10.4-4.1 15.4-6.6 7.9-4.1 27.7 0.7 32.3 8.4 0.8 1.3-0.2 4.2-1.3 5.7-2.1 3.1-4.8 5.8-7.1 8.8-3.1 3.9-3.8 7.2 0 11.7 2.6 3.1 2.8 8.3 4.6 14.1 2.5-2.5 5-3.9 6-6 11.2-24.5 22.6-49 32.8-73.9 2.8-6.9 2-15.2 2.9-23.3 5.6-1.2 8.8 2.5 11.7 6.7 0.8 1.2 0.9 2.8 1.7 3.9 14.8 17.9-0.1 32.3-6.4 47.1-5.3 12.3-13.2 23.4-19.9 35.1-0.4 0.8-0.6 1.7-1.5 4.8 5.7-3.2 9.8-5.7 14-7.8 11.7-5.6 23.3-11.7 35.5-16.4 9.4-3.6 21.1 2.9 24 12.2 2.4 7.9 7.1 13.1 13.2 17.9 2.1 1.7 3 4.8 4.4 7.3-3.2 1.1-6.9 3.8-9.6 3.1-6.3-1.7-10.3 1.1-15 4.2-6.3 4.1-13.2 7.2-19.5 11.4-2.2 1.4-3.1 4.7-4.8 7-1.5 2-2.9 4.1-4.9 5.5-6.1 4.2-6.5 6.8-2.4 12.6 7.4 10.4 19.5 11 29.9 14.8 5.1 1.9 10.6 2.4 15.7 4.2 7.3 2.6 14.2 5.3 16.8 14.4 2.1 7.5 6.4 14.2 9.5 21.5 1.1 2.5 1.3 5.5 1.6 8.3 0.5 5.2-2.4 7.3-6.9 5.8-6.5-2.2-13-4.5-18.8-8-12-7.2-23.4-15.4-35.1-22.9-10.1-6.4-16.1-15.7-20-26.7-0.6-1.6-1.6-3.1-3.6-6.8-5.1 9.5-8.8 17.6-13.5 25-7.5 11.9-12.2 25.9-24.2 34.6-5.7 4.2-9.1 11.6-17.9 11.9-12 0.4-23.1-2-32.9-8.9-4.2-3-2.9-7.7 2.6-9.4 5.7-1.6 11.6-2.3 17.2-4 13.7-4.4 20.7-16.6 28.4-27 8.9-12.2 15.1-26.2 22.9-39.2 4.3-7.2 4-14.9 1.6-21.7-1.2-3.6-7.6-7.5-11.6-7.5-3.2 0-8.3 5.2-9.3 8.9-2.1 8.2-1.6 17-3 25.3-1.8 10.6-3.2 21.7-7.4 31.4-2.1 4.8-9.9 7.4-15.5 10.4-9.8 5.2-19.7 10.2-29.8 14.8-8.3 3.8-16.9 7.2-25.5 10.4-1.8 0.7-4.3 0.1-6.2-0.6-13-5-24.4-11.7-28-26.7-2.3-9.6-7.7-19.1-7.4-28.5 0.5-13.3 4.5-26.5 8-39.5 1.6-5.9 2.3-11.2 0.9-17.2-0.8-3.5-0.4-9.9 1.5-10.8 3.4-1.7 8.5-1 12.5 0.2 4.4 1.1 8 4.1 13 7.1z m17.3 85c-0.7-2.2-0.7-2.8-1-3.1-12.3-12.9-17.7-28.3-17.1-46.1 0-1.5-1.5-3.5-2.8-4.3-0.7-0.4-2.9 1-3.9 2.1-1.4 1.5-2.8 3.4-3.2 5.4-1.9 9.2-3.5 18.5-5.3 27.8-1.8 9.8 5.8 15.5 10.1 22.6 0.4 0.7 2.3 0.9 3.3 0.7 6.5-1.6 13-3.3 19.9-5.1z m18.2-45.3c10.1 0 20.4-9.9 20-19.2-0.3-6.6-4.2-10-9.6-6.8-6.5 3.8-12.7 9-17.2 15-4.9 6.6-1.6 11 6.8 11z m24.6 21.8c-13.4-3-24.2-5.4-36.9-8.2 2 6.9 3.8 12.3 5 17.9 1.3 6 3.8 8.1 9.2 5.1 7.4-4.1 14.1-9.2 22.7-14.8z m87.5-54.6c-0.5-0.6-0.9-1.3-1.4-1.9-8.8-0.8-15.9 3.3-22 8.9-1.4 1.3-2.1 5.2-1.2 6.9 1.5 2.9 4.6 5.3 8.1 2.1 5.6-5.3 11-10.7 16.5-16z m-127.8 8.4c-8-5.2-8-5.2-15.6-0.1-1.3 0.8-3.1 0.7-4.6 1.3-1.6 0.6-3.1 1.6-4.7 2.4 1 1.7 1.6 3.9 3.1 5 6.5 4.6 14.5 1.3 21.8-8.6z m50.1 2.4c-0.9 0.7-1.7 1.5-2.6 2.2 2.3 5.9 4.7 11.7 7.3 18.3 5.1-3.1 7.9-7.8 6.1-11.5-1.9-3.8-7.1-6.1-10.8-9z m-32.6-29.5c-1-1.2-2-2.3-3-3.5-2.2 2.1-4.4 4.1-6.5 6.3-0.1 0.1 2.2 2.8 2.4 2.7 2.5-1.7 4.8-3.7 7.1-5.5z" p-id="2726"></path><path d="M539.6 523.9c-2.2 10.6-4.5 21.1-7.1 33.4 9.4-4.8 16.7-8.4 23.8-12.4 1.3-0.8 2.3-3 2.6-4.7 1-5.6 1.6-11.3 2.3-16.9 1.6-12.5 0.4-14.1-12.7-15.5 4.4-4.4 8.7-7.4 13.7-3.7 7.2 5.3 14 11.4 20.5 17.6 3.5 3.3 4.2 7.2-0.7 10.8-1.6 1.1-2.1 3.8-3.6 6.7 11.1-2.3 20.5-5.6 28.9 1.8 0.8-1.2 1.2-1.5 1.3-1.9 1.3-3.5 2.6-7 3.9-10.6 3.6 1.9 7.8 3.2 10.6 5.9 10.1 10 13.6 26.6 8.4 36.6-2.7 5.2-6.7 5.6-10.3 1.1-3.5-4.4-6.9-9-10.4-13.4-0.5-0.7-1.5-1.4-2.3-1.5-6.1-0.7-12.2-1.6-18.4-1.7-2 0-3.9 2.5-5.9 3.9 1.4 1.6 2.5 3.6 4.2 4.9 7.9 5.6 16.1 10.8 23.8 16.6 4.1 3.1 4.9 7.3 2.7 12.7-3.5 8.5-6 17.3-8.8 26.1-2 6.2 0.8 7.6 6.5 6.6 5.4-0.9 10.9-2 16.3-1.5 5.9 0.6 11.8 2.6 17.5 4.6 1.2 0.4 2.6 3.9 2.1 5.3-0.7 1.8-3.1 3.9-4.9 4-5.4 0.4-10.9-0.4-16.3-0.2-7.6 0.4-15.2 1.3-24.2 2.1 3.7 6.5 6.9 11.1 9.1 16.1 1 2.2 1.3 6.8 0.1 7.7-9.7 7.1-6.5 17.2-6.3 26.3 0.1 7 2.9 14 2.8 21-0.2 10.5-1.6 21.1-3.3 31.5-0.4 2.2-4 5.4-6.4 5.7-20.3 1.9-39-0.9-56.6-13.4-12.7-9-19.5-21.2-25.7-34-2.4-5-0.9-11.8-1.1-16.4-4.2 1.1-10 3.2-15.9 4.2-5.2 0.8-11.6-5-12.8-11.1-1.1-5.3 3.2-6.6 6.8-8.5 2-1.1 3.7-2.9 5.6-4.3 1.9-1.4 3.9-2.7 6.8-4.7-0.5 2.5-0.9 4-1.5 7 6.8-3.3 12.7-6.2 19.2-9.4-4.1-9.2-8.2-17.7-11.8-26.4-0.8-1.9-0.4-4.6 0.4-6.7 5.3-14.2 13.3-27.7 11.9-43.8 0-0.4-0.4-0.8-0.6-1.3-6.8 0.5-17.7 9.4-19 16.6-0.8 4.4-2.9 6.3-6.8 7.9-6.3 2.7-12.7 5.5-18.3 9.4-3.7 2.5-8 6.7-8.6 10.6-1.6 12.3-1.6 24.8-2.2 37.2 0.9 0.2 1.8 0.5 2.7 0.7 4.8-8.4 9.6-16.8 14.5-25.1 0.6 0.2 1.3 0.3 1.9 0.5-2.4 8.9-4.1 17.9-7.2 26.5-6.9 19.4-14.3 38.5-8.3 59.7 0.6 2.3-0.7 5.1-1.1 7.7-2.6-0.9-5.6-1.1-7.7-2.7-4.3-3.4-10.1-6.7-11.5-11.3-2.1-6.7-1.2-14.5-1.2-21.8 0-3.2 1.5-6.4 1.6-9.6 0.1-11.8-0.3-23.6-0.4-35.4-0.1-22-0.8-19.1-18.4-14-11.2 3.3-12.4 3.2-15.8-7.7-4.1-13.1-0.9-21 11.8-28.5 0.9 2.1 1.7 4.2 2.8 6.8 6.4-2.8 12.8-5.2 18.7-8.4 1.8-1 3.2-4 3.6-6.3 2.2-15.5 4.2-31.1 6.1-46.6 0.5-4.4-0.3-9.1 0.4-13.5 0.5-3 2.6-5.8 4-8.7 2.2 1.4 4.8 2.4 6.5 4.2 5.4 6.2 10.3 12.7 15.6 19 2.7 3.3 2.3 6.1-1 8.5-8.1 5.8-4.8 14.6-6 22.2-0.1 0.5 3.9 2.8 5.2 2.3 5-2.1 8.5-1 11.8 3.2 0.7 0.9 4.8 0.6 6-0.6 7.5-6.9 14.7-14.1 21.6-21.5 1.6-1.7 2.4-4.5 3.1-6.9 3.1-10.3 6-20.7 8.9-31.1 1 0.1 1.7 0.3 2.5 0.5z m4 140.2c0.1 0.8 0.3 1.6 0.4 2.4 1.8 0.3 3.6 0.4 5.3 0.8 14.6 3.4 24.7 5.2 25.9 24.4 0.2 2.8-1.5 7-3.7 8.3-2.1 1.3-6.8 0.7-8.9-1-6.7-5.1-12.7-11.2-19.2-16.6-1.8-1.5-5.4-3.6-6.6-2.9-3.4 2.2-8.5 5.5-8.5 8.6-0.3 11.6 3.6 25.2 18.2 30.3 4.6 1.7 9.8 2 14.2 4.1 11.9 5.4 26.6-1.5 26.1-15.7-0.2-5.9 1.1-11.8 1.1-17.7 0-11.6 0.4-23.3-0.7-34.8-0.8-8.2-2.9-9-10.5-5.8-11.2 4.8-22.1 10.3-33.1 15.6z m-6.3-34.2c-0.8 0.3-1.5 0.6-2.3 0.8-0.4 5.9-1.1 11.9-1.1 17.8 0 1 3.6 3.2 4.4 2.8 3.2-1.9 8.7-5.7 8.3-6.6-2.3-5.3-6.1-9.9-9.3-14.8zM591 586c0.2-3.4 0.8-6.1 0.3-8.5-0.3-1.3-2.5-3.2-3.6-3-3.7 0.6-7.5 1.6-10.8 3.3-1.3 0.7-2.4 3.5-2.2 5.2 0.1 1.1 2.5 2.7 4.1 2.9 3.7 0.4 7.5 0.1 12.2 0.1z m-5.6 23.6c-0.7-0.8-1.5-1.5-2.2-2.3-3.1 1.4-6.6 2.3-9.1 4.5-1.4 1.2-0.9 4.5-1.3 6.8 2.1 0 4.9 0.8 6-0.3 2.7-2.4 4.5-5.7 6.6-8.7z m-38.3 4.3c-0.8 1.2-1.6 2.5-2.4 3.7 2.2 2 4.5 4 6.7 6 1.2-1.9 2.4-3.9 3.6-5.8-2.7-1.4-5.3-2.6-7.9-3.9z m0.3-39c1.5 0.6 3 1.1 4.4 1.7 1.2-3.3 2.4-6.6 3.7-9.9-1.2-0.3-3.3-1.2-3.4-1-1.8 3.1-3.2 6.2-4.7 9.2zM818.8 406.2c-1.2-11.6 5.7-19.3 15.5-18.6 4 0.3 8.1 0.5 12.1 0.3 11.7-0.5 18.8 6.1 24.6 15.5-18-14.7-35.6-25.4-52.2 2.8zM431 203.3c-7.8-7.9-7.3-12.5 0-16.4v16.4zM526.5 183.2c2.8 3.9 8.7 5.9 7.3 12.3-0.7 0.4-1.3 0.8-2 1.2-2.5-4.1-5-8.1-7.5-12.2 0.7-0.4 1.5-0.8 2.2-1.3zM449.9 188.8c-1.3-2.4-3.1-4.8-3.4-7.3-0.1-1 3.3-2.4 5.1-3.7 0.7 3.2 1.3 6.5 2 9.7-1.3 0.5-2.5 0.9-3.7 1.3zM320.9 815.5c-3-1.9-6-3.9-9-5.8 3.3-1.2 6.6-2.4 10-3.4 0.9-0.3 2.1-0.3 2.8 0.1 2.3 1.2 4.4 2.7 6.6 4.1-2.2 1.2-4.4 2.5-6.7 3.6-0.8 0.4-1.9 0.1-2.8 0.1-0.3 0.4-0.6 0.8-0.9 1.3z" p-id="2727"></path></svg>