<?xml version="1.0" standalone="no"?><!DOCTYPE svg PUBLIC "-//W3C//DTD SVG 1.1//EN" "http://www.w3.org/Graphics/SVG/1.1/DTD/svg11.dtd"><svg t="1574847094657" class="icon" viewBox="0 0 1024 1024" version="1.1" xmlns="http://www.w3.org/2000/svg" p-id="2599" xmlns:xlink="http://www.w3.org/1999/xlink" width="200" height="200"><defs><style type="text/css"></style></defs><path d="M437.2 783c-0.8-0.1-1.7-0.3-2.5-0.4-46.6-2.2-89.4-16-127.6-43-31.1-21.9-55.5-49.8-72.9-83.6-8.9-17.2-14.7-35.6-18.1-54.7-0.8-4.2-1.4-8.4-2-12.6-0.1-0.7-0.1-1.3 0.2-2.1 0.3 0.4 0.7 0.9 1 1.3 21 30.6 46.8 56.7 76.4 78.9 31.4 23.6 65.8 41.9 102.5 55.9 26 9.9 52.8 17.5 80.2 22.6 15.7 2.9 31.5 5 47.4 6.2 14.5 1.1 29 1.4 43.5 1.1 3.8-0.1 7.5-0.3 11.4-0.2-0.3 0.2-0.7 0.5-1 0.7-25.2 11.6-51.4 20.3-78.8 25.2-12.7 2.3-25.5 3.8-38.3 4.3-0.8 0-1.5 0.2-2.3 0.3-6.6 0.1-12.8 0.1-19.1 0.1zM823.2 546.9c-0.1 0.5-0.3 1.1-0.3 1.6-1.2 22.7-6.7 44.4-16.1 65-11.4 25-27.8 46.3-48.2 64.5-19.5 17.4-41.5 30.9-65.3 41.5-22.1 9.8-45.2 16.7-68.9 21.2-5.5 1-11.1 1.9-16.6 2.8-0.3 0-0.5 0-0.9-0.1 28.8-16.4 55.3-35.7 78.9-58.9 23.6-23.3 43.6-49.3 60-78.1 16.3-28.7 28.5-59.1 36.5-91.2 8-32.2 11.3-64.8 9.5-98.4 0.5 0.7 0.9 1.1 1.1 1.4 13.3 25 22.9 51.3 27.6 79.2 1.3 7.6 2.4 15.2 2.6 22.9 0 0.6 0.2 1.2 0.3 1.9-0.2 8.2-0.2 16.4-0.2 24.7z" p-id="2600"></path><path d="M550.4 747.3c-11.1 0-24.6-0.7-38-2-28.9-2.9-57.2-8.6-85-17-37.5-11.3-73.1-26.9-106.3-47.7-30.8-19.4-58.4-42.5-82-70.3-9.1-10.7-17.5-22.1-25.1-34-1-1.5-1.4-3-1.5-4.8-0.6-10.4-0.5-20.8 0.2-31.1 1-15.5 3.4-30.8 6.9-45.9 10.9-46.3 31.1-88.3 59.3-126.4 28.8-38.9 64.2-70.7 105.6-95.8 29.3-17.8 60.2-32.1 93.1-42 3-0.9 5.8-0.9 8.8-0.5 35 4 69.2 11.9 102.5 23.4 35.7 12.3 69.3 28.8 100.3 50.5 31.7 22.2 59.3 48.6 81.9 80 4.5 6.3 8.6 12.9 12.9 19.3 1 1.4 1.4 2.9 1.5 4.6 0.9 10.4 1.3 20.7 1.2 31.1-0.2 10.7-0.8 21.3-2 31.9-2.1 18.3-5.6 36.2-10.6 53.9-14.7 51.7-39.7 97.7-75.1 138.1-23.8 27-51.2 49.7-82 68.3-7.9 4.7-15.9 9.1-23.9 13.6-1.2 0.7-2.7 1.1-4 1.2-12.2 1.1-24.2 1.6-38.7 1.6zM273.9 598.1h2.1l26 0.3c10.7 0.1 21.3 0.1 32-0.2 19-0.5 38-0.3 57-0.5 13.9-0.2 27.9-0.4 41.8-0.9 8-0.2 15.5-2.4 21.9-7.3 17.2-12.9 26-30.4 27.3-51.8 0.2-3.1 0.1-6.1 0.4-9.2 0.5-5.7-0.9-10.9-3.7-15.7-4.8-8.2-11.1-14.9-19.4-19.6-0.6-0.3-1.1-0.6-1.6-1-1.8-1.3-1.8-2.4 0.1-3.5 0.7-0.4 1.4-0.6 2.2-0.8 1.4-0.5 2.8-0.9 4.1-1.5 1.9-1 3.7-2.1 5.6-3.2 5.1-3 10.2-6.3 14.7-10.2 13.7-12.1 19.7-27.2 17.4-45.4-2.2-17.3-15.5-32.9-32.2-37.9-3.4-1-6.8-2.1-10.2-3-3.7-1-7.4-2.1-11.2-2.5-6.8-0.7-13.6-1.3-20.4-1.3-29.2-0.2-58.5-0.2-87.7-0.3-3.8 0-7.7 0.1-11.5 0.1-3.2 0-4.5 1-5.6 3.9-0.3 0.9-0.6 1.7-0.8 2.6-3.2 13.5-6.4 27-9.4 40.5-1.6 6.9-2.6 14-4.1 20.9-2.3 10.3-4.8 20.6-7.2 30.9-4.4 18.7-8.7 37.5-13.3 56.2-4.2 17.4-8.8 34.7-12.4 52.3-0.8 2.7-1.3 5.3-1.9 8.1z m332.2-80.9c1.8 0.1 3.2 0.3 4.6 0.3h62.6c2.8 0 5.6 0.3 8.5 1-2.2 11.8-7.3 21.8-16.2 29.7-4.1 3.6-8.6 6.7-13.2 9.8-4 2.7-8.5 4.4-13.2 5.1-6.5 0.9-13.1 1.7-19.6 2.7-4.2 0.6-8.4 0.7-12.6 0.2-3.8-0.4-7.6-1-11.4-1.5-3-0.3-5.8-1.3-8.5-2.7-4.4-2.2-8.6-4.8-12.4-7.8-13-10.2-19.1-23.9-19.6-40.2-0.1-4.3 0-8.7-0.1-13-0.1-7.8 0.4-15.5 2-23.1 2.4-11.5 7.6-21.7 14.5-31.1 8-11 18.1-19.2 30.7-24.3 4.5-1.8 9.1-3.3 13.7-4.7 8.9-2.8 18-3.2 27.2-2.4 2.5 0.2 5.1 0.5 7.2 1.5 5.1 2.6 10.2 5.4 14.9 8.7 9.1 6.3 15.6 14.7 17.9 25.8 0.3 1.6 1.5 2.4 2.9 2.8 0.7 0.2 1.5 0.2 2.3 0.2 13.5 0.1 27 0.1 40.6 0.2 0.9 0 1.9 0 2.7-0.3 1.5-0.4 2.3-1.3 2.3-2.9 0-1.1 0-2.1-0.2-3.2-0.3-2.1-0.7-4.2-1.2-6.3-1.5-7.4-3.7-14.5-7.7-20.9-4.2-6.8-9.3-12.9-15.4-18.2-18.6-16-40.5-23.4-64.8-24.3-8.2-0.3-16.4 0.2-24.5 1.3-7.4 1-14.8 2-21.9 4.5-7.3 2.6-14.5 5.4-21.7 8.3-5.2 2.1-10.2 4.7-14.9 7.9-19.6 13.5-33.4 31.7-43.4 53-3.5 7.5-5.5 15.5-7.6 23.5-3 11.2-4.6 22.5-4.2 34.2 0.1 4.5 0.2 9 0.4 13.4 0 1.3 0.2 2.7 0.4 4 0.2 1.4 0.6 2.8 0.8 4.2 0.2 1.1 0.2 2.3 0.4 3.4 0.2 1 0.3 2.1 0.8 3.1 2.9 6.1 5.6 12.3 9 18.1 7.4 12.7 17.7 22.5 30.5 29.8 12 6.9 25 11.3 38.6 13.6 7.5 1.3 15.1 1.7 22.7 1.3 5.5-0.3 10.9-1 16.4-1.2 13.7-0.6 26.9-3.2 39.9-7.3 15.7-4.9 28.7-13.6 39.4-25.9 5.7-6.6 10.2-13.8 14-21.6 4.5-9.3 8.9-18.8 11.4-28.9 1.7-6.9 3-13.9 4.5-20.8 0.6-2.9 1.1-5.7 1.7-8.6 0.6-2.5-1.5-5.1-4-4.8-1.7 0.2-3.4 0.1-5.1 0.1-27 0-54.1 0-81.1-0.1-9.5 0-18.9-0.1-28.4 0-3.8 0-4.7 0.8-5.6 4.5-0.1 0.6-0.3 1.1-0.4 1.7-1.3 5.3-2.5 10.7-3.8 16-0.8 3.9-1.7 7.8-2.8 12.2z" p-id="2601"></path><path d="M206.6 562.2c-0.5-0.8-0.7-1.1-0.9-1.4l-8.1-15c-7.3-13.6-12.1-28-16.2-42.8-5.1-18.6-7.8-37.6-7.9-56.9-0.2-36.8 7.9-71.5 26-103.7 13.3-23.7 31.4-43.2 53-59.5 21.3-16.1 44.8-28 70-36.8 18.6-6.5 37.7-11.2 57.3-14.2 22.6-3.6 45.4-5 68.3-4.5 5.8 0.1 11.7 0.5 17.6 1.1-0.5 0.2-1 0.5-1.5 0.6-36.2 12.3-70 29.4-101.4 51.1-59.9 41.4-104.2 95.6-132.2 162.9-9.3 22.3-15.9 45.5-19.9 69.4-2.6 15.9-3.9 31.9-3.9 48-0.1 0.3-0.2 0.7-0.2 1.7zM497 225c4.6-1 9.1-2 13.7-3 12.2-2.4 24.5-4.2 37-5.1 12.2-0.9 24.4-1.2 36.7-0.6 13.2 0.7 26.2 2.2 39.1 4.7 16.6 3.2 32.6 8.3 47.9 15.6 3 1.5 6.1 2.8 9.1 4.3 37.5 18 64.8 46.1 82.9 83.4 9.2 18.9 15.2 38.7 18.9 59.4 0.4 2.5 0.9 5 0.9 7.6-0.3-0.4-0.7-0.8-1-1.3-25.6-38.2-58-69.5-96-95-31.2-21-64.9-36.8-100.5-48.7-23.8-7.9-48-14-72.7-18.3-5-0.8-10-1.5-15-2.3-0.3 0-0.6-0.1-1-0.2v-0.5zM790.8 403.4c-1.4-8.9-2.7-17.8-4.2-27.2 0.9 2.2 1.7 3.9 1.9 5.8 0.8 6.9 1.7 13.8 2.6 20.7 0 0.2 0 0.4-0.1 0.6-0.1 0.1-0.1 0.1-0.2 0.1z" p-id="2602"></path><path d="M362.8 566.1s0-0.1 0 0h20.1c8.6 0 17.2-0.4 25.7-2.1 4.1-0.8 8.2-1.7 12-3.6 4.9-2.5 8.9-6.1 12.4-10.3 3.5-4.1 5.7-8.7 6.1-14 0.9-9.9-2.3-18-11.1-23.4-3.6-2.2-7.5-3.7-11.7-4.6-6.2-1.4-12.5-1.7-18.9-1.7-15.7-0.1-31.3-0.1-47-0.1-2.8 0-5.7 0-8.5 0.1-2.7 0.1-3.7 0.8-4.5 3.4-0.4 1.1-0.7 2.3-1 3.5-3.4 14.7-6.9 29.3-10.3 44-0.4 1.8-0.7 3.6-0.9 5.5-0.2 2.2 0.4 2.9 2.7 3.3 1.1 0.2 2.3 0.2 3.4 0.2 10.6-0.2 21-0.2 31.5-0.2z m-15.5-95.5c1.2-0.1 2.2-0.2 3.1-0.3 1.9-0.1 3.8-0.4 5.7-0.4 18.1-0.3 36.1-0.5 54.2-0.8 4.7-0.1 9.4-0.1 14-0.9 12.4-2.1 21.9-8.4 27.5-19.9 1.7-3.4 2.3-6.8 1.7-10.5-1.2-6.8-4.8-11.9-11-15.1-6.7-3.5-13.8-4.7-21.2-4.8-17.6-0.1-35.3-0.2-52.9-0.2-1.1 0-2.3 0.1-3.4 0.2-3.2 0.3-5.2 2-6.2 5-0.3 0.9-0.5 1.8-0.7 2.7-0.5 2.5-0.9 5-1.5 7.5-2.9 11.8-5.9 23.6-8.9 35.3-0.1 0.7-0.2 1.4-0.4 2.2z" p-id="2603"></path><path d="M362.8 566.1h-31.4c-1.1 0-2.3 0-3.4-0.2-2.3-0.3-2.9-1-2.7-3.3 0.1-1.8 0.4-3.7 0.9-5.5 3.4-14.7 6.8-29.3 10.3-44 0.3-1.2 0.6-2.3 1-3.5 0.8-2.5 1.8-3.3 4.5-3.4 2.8-0.1 5.7-0.1 8.5-0.1 15.7 0 31.3 0 47 0.1 6.3 0 12.7 0.4 18.9 1.7 4.1 0.9 8 2.4 11.7 4.6 8.8 5.4 12 13.5 11.1 23.4-0.5 5.3-2.6 10-6.1 14-3.6 4.1-7.5 7.8-12.4 10.3-3.8 1.9-7.9 2.8-12 3.6-8.5 1.7-17.1 2.1-25.7 2.1-6.8 0.1-13.5 0.1-20.2 0.2 0-0.1 0 0 0 0zM347.3 470.6c0.2-0.9 0.3-1.6 0.5-2.2 3-11.8 6-23.6 8.9-35.3 0.6-2.5 1-5 1.5-7.5 0.2-0.9 0.4-1.8 0.7-2.7 1-3 3-4.7 6.2-5 1.1-0.1 2.3-0.2 3.4-0.2 17.6 0.1 35.3 0.1 52.9 0.2 7.4 0 14.6 1.3 21.2 4.8 6.2 3.2 9.7 8.3 11 15.1 0.7 3.7 0 7.2-1.7 10.5-5.7 11.5-15.2 17.8-27.5 19.9-4.6 0.8-9.3 0.8-14 0.9-18.1 0.3-36.1 0.5-54.2 0.8-1.9 0-3.8 0.2-5.7 0.4-1 0.1-2 0.2-3.2 0.3z" p-id="2604"></path></svg>