<?xml version="1.0" standalone="no"?><!DOCTYPE svg PUBLIC "-//W3C//DTD SVG 1.1//EN" "http://www.w3.org/Graphics/SVG/1.1/DTD/svg11.dtd"><svg t="1575007577019" class="icon" viewBox="0 0 1024 1024" version="1.1" xmlns="http://www.w3.org/2000/svg" p-id="2413" xmlns:xlink="http://www.w3.org/1999/xlink" width="200" height="200"><defs><style type="text/css"></style></defs><path d="M269.1 768.2c13.6-27.9 25.4-56.8 41.1-83.4 18.6-31.4 37.6-63.3 61.7-90.3 43.4-48.6 102.5-70 165-81.6 62.5-11.6 125.6-10.3 193.3-5.1-7.1 32.1-10.9 63.7-21 93.3-61.3 179.5-253.3 260.2-425 179.8-4.8-2.3-10-3.6-15.1-5.4v-7.3z" p-id="2414"></path><path d="M269.1 211.4S659.6 37.8 728.3 482.6c0-0.1-376.1 65-459.2-271.2zM699 724.9c18.3 0 32.9 14.5 32.9 32.6 0 17.9-14.7 32.6-32.7 32.6-18.1 0-32.8-14.7-32.7-32.8 0-17.9 14.5-32.4 32.5-32.4z m28.7 32.7c0-16.1-12.5-28.5-28.5-28.5-15.8 0-28.7 12.9-28.6 28.7 0.1 15.3 13.2 28.3 28.6 28.2 15.8-0.1 28.5-12.8 28.5-28.4z" p-id="2415"></path><path d="M692.9 775.2h-6.8v-36.9h3.7c5 0.1 10 0.2 15 0.4 1.3 0.1 2.7 0.4 4 0.9 4.3 1.4 6.5 4.2 6.6 8.3 0.2 4.8-1.8 8.1-6.1 9.8-0.6 0.3-1.3 0.4-2.3 0.8 2.7 5.5 5.3 10.9 8.2 16.8-2.6 0-4.8 0.1-6.9-0.1-0.6-0.1-1.3-1-1.6-1.6-1.9-3.8-3.9-7.5-5.5-11.5-0.9-2.2-2.2-2.9-4.4-2.7-1.2 0.1-2.3 0-3.9 0v15.8z m0.1-19.8c3.8-0.3 7.5-0.3 11.2-0.8 2.5-0.3 3.9-2.2 4.1-4.8 0.2-2.9-0.9-5-3.3-6-3.9-1.5-7.9-0.9-11.9-0.9-0.1 4.2-0.1 8.1-0.1 12.5z" p-id="2416"></path></svg>