<?xml version="1.0" standalone="no"?><!DOCTYPE svg PUBLIC "-//W3C//DTD SVG 1.1//EN" "http://www.w3.org/Graphics/SVG/1.1/DTD/svg11.dtd"><svg t="1575510887420" class="icon" viewBox="0 0 1345 1024" version="1.1" xmlns="http://www.w3.org/2000/svg" p-id="1652" xmlns:xlink="http://www.w3.org/1999/xlink" width="262.6953125" height="200"><defs><style type="text/css"></style></defs><path d="M474.9 516.4c17.6-20.1 38.5-31.4 65-29.5 17.5 1.2 32.3 8.9 44.7 21 24 23.6 28.1 59.6 10.1 87-19.3 29.4-56 40.9-88.8 27.5-19.9-8.2-34-22.3-40.7-42.9-6.6-20.3-4-39.9 6.6-58.5-17.3-3.7-34.4 6.9-36.8 23.4-1.7 11.5-1.5 23.3-1.8 35-0.2 6 0.4 12.1 0.8 18.1 0.3 5-0.9 6.3-5.6 4.7-6.1-2-11.7-1.1-16.9 2.4-24.6 16.8-52.1 24.7-81.5 26.9-26.6 1.9-52.9-0.4-78.1-9.7-39.7-14.6-66.6-41.8-78.8-82.4-14.6-48.7-11.1-96.3 12.4-141.5 21.4-41.3 56.8-64.5 101.7-73.8 37.7-7.9 73.7-2.6 108 14.8 0.5 0.3 1 0.5 1.5 0.7 10.1 4.6 15.1 2.6 19.8-7.5 0.7-1.6 2.4-3.5 3.9-3.8 4.7-0.9 6 0.2 6.3 5.1 0.5 8.8 0.6 17.6 0.9 26.4 0.6 19.8 1.1 39.6 1.6 59.4 0.1 2.5 0.3 5.4-3.1 5.8-3.3 0.4-5.5-0.9-6.6-4.6-6.6-20.8-15.5-40.5-28.7-58.2-33.1-44.2-94.3-35.8-121.3-7.9-23 23.7-37.4 52-44.4 84-8.7 40.1-6.9 79.7 9.3 117.9 9.3 21.8 22.8 40.5 43.1 53.5 27.6 17.6 64.3 15.2 87.2-6 17.7-16.5 22.5-37.3 17.7-60.4-2-9.5-8-16.5-17.5-19.3-7.1-2.1-14.5-2.8-21.8-4.1-1.9-0.3-3.8-0.5-5.7-0.9-3.2-0.6-2.5-3.1-2.6-5.2-0.1-2.3 1.3-3.2 3.4-3.1h2.1c42.7 0 85.4 0 128.1-0.1 3.6 0 6.5 0.4 6.5 5.8z m104.5 41.8c-0.3-15.8-3.4-31.5-12.1-45.8-8.3-13.6-20.2-20.1-36.3-18.9-15.4 1.1-25.3 9.9-32.3 22.6-9.9 18.2-12.3 37.7-9.3 58 2.1 14.3 8.1 26.8 18.5 37 14 13.8 37.1 13.8 51.2 0.1 14.7-14.3 20-32.3 20.3-53z" p-id="1653"></path><path d="M1002.2 593.3c-7.4 10.7-6.9 21.3 1.3 29.9 8.7 9 21 10.6 31.6 4 12.4-7.7 19-22.6 15-35.7 0.2 9.6-2.3 17.2-9.2 22.7-13.8 11.1-32 6.3-36.6-9.6-2.8-9.7 3.3-20.6 12.6-22.7 4.8-1.1 10 1.3 12.2 5.7 1.8 3.6 0.9 7.9-2.3 10.8-3.3 3-6.1 2.7-9.5-0.9 0.5-0.1 1-0.3 1.2-0.1 2.5 2 5.4 2.4 7.2-0.3 1.5-2 2.6-5 2.4-7.4-0.4-3.3-3.1-5.3-6.6-5.8-7.7-1.1-14.7 5.2-15.2 13.8-0.4 7.5 2.7 13.5 8.9 17.5 6.8 4.5 14 3.4 20.8-0.3 11.4-6.2 15.8-21.6 8.7-32.5-2.4-3.7-7.1-6.5-11.3-8.3-13.3-5.6-25.9-3-37.5 4.9-12.2 8.3-23.9 17.1-36.2 25.2-11.8 7.9-24.4 14.2-38.5 17-18.9 3.6-35.7-1.3-51-12.1-6.9-4.9-14-9.7-17.8-18.8-1.1 2-1.7 3.2-2.3 4.3-7.4 15.1-19.3 24.6-35.9 27.6-6.9 1.3-13.9 2.1-20.9 2.1-58.1 0.2-116.3 0.1-174.4 0.1-3.2 0-6.4-0.2-9.4-0.8-1.2-0.2-2.1-1.9-3.2-2.9 1.1-1 2.1-2.6 3.3-2.8 11.5-1.9 16.2-6.3 16.3-18 0.3-28.6 0.3-57.3 0-85.9-0.1-11.3-3.5-14.7-14.4-17.4-1.3-0.3-2.9-0.5-3.9-1.3-0.8-0.6-1.3-2.1-1.2-3.1 0.1-0.8 1.1-1.7 2-2.2 0.6-0.4 1.6-0.2 2.4-0.2h54.2c2 0 4.8-0.9 5.1 2.5 0.4 3.4-2 4-4.6 4.6-9.6 2.1-14.2 6.8-14.3 16.4-0.3 27.4-0.4 54.8 0.2 82.2 0.3 13.2 7.8 20.5 20.9 21.7 6.4 0.6 13 0.3 19.3-0.7 12.8-2 20.7-10.2 24.8-22.2 1.1-3.4 1.8-6.9 2.9-10.3 0.4-1 1.9-2.6 2.5-2.5 1.1 0.3 2.8 1.6 2.9 2.6 0.4 3.9 0.3 7.9 0.3 11.9v19.6c4.8-0.5 8.7-3.9 9.9-9.2 0.9-3.9 1.3-7.9 1.3-11.9 0-26.4-0.1-52.9-0.2-79.3 0-2.6-0.4-5.2-0.9-7.8-1.2-5.5-4.9-8.8-10.2-10.2-2.3-0.6-4.6-1-6.7-1.9-0.9-0.4-2-2.1-1.9-3 0.1-0.9 1.6-1.7 2.5-2.5 0.2-0.1 0.5 0 0.8 0 24.8 0.1 49.6-0.6 74.4 0.7 32.9 1.7 57.8 26.1 62.1 58.8 0.7 5.6 0.9 11.2 0.9 16.9 0 8.6 4.1 13.6 12.9 14.2 8.1 0.6 14.5-2.7 18.8-9.6 4.1-6.7 3.9-13.7-0.1-20.3-3.2-5.4-8.5-7.3-14.5-6.8-6.2 0.5-10.9 3.7-12.8 10-1.1 3.5-0.5 6.9 1.9 9.7 2.5 3 6.8 3.2 9.4 0.5 2.8-2.9 2.4-5.7-1-9.9 1.2 1 3.3 1.7 3.5 2.9 0.4 2.1 0.5 4.8-0.5 6.6-2.5 4.5-8 5.1-12 1.7-3.8-3.1-4.9-8.5-2.8-13.5 2.9-6.8 10-11.2 16.7-10.5 8.5 0.9 14.9 6.9 16.5 15.5 2.9 15-10.2 28.2-25.4 25.6-1.2-0.2-2.4-0.5-3.6-0.7 3.9 7.2 14.4 15 21.9 16.5 10.6 2.1 17.6-3.9 24.3-10.8 2.8 5.4 1.9 10.1-2.9 15.6 0.7 0.3 1.2 0.7 1.8 0.8 11.7 0.6 23.2-14.6 19.4-25.6-4.2-12.3-20.3-16.6-28.2-7.6-4.1 4.7-4.4 9.5-1 14.7 0.5 0.8 1 1.5 1.7 2.4-7.8-1.4-11.4-9-8.3-16.9 5.3-13.4 23.6-17 35-7 12.6 11.1 9.1 28.8-2.1 38.8-14.2 12.6-32.5 12-49.8 1.9-7.3-4.2-12.7-10.4-17.5-17.2-1.1-1.5-2.2-3.1-3.3-4.6l-1.5 0.3c0.3 2.3-0.2 5.3 1.1 6.8 10.8 11.8 23.2 21.3 39.3 25.1 14.2 3.3 27.5 0.4 40.4-5.6 14.6-6.7 27.1-16.7 39.6-26.5 10.4-8.2 20.8-16 34.2-19 22.5-5 41.7 5.3 47.7 26.3 3.9 13.5-0.6 26.5-12.5 35.7-11.2 8.7-24.5 10.2-35.4 3.8-9.4-5.5-15.1-16.9-12.6-26.9 0.9-3.6 3.5-6.8 5.3-10.2 0.8 0.3 1.2 0.6 1.6 0.9z m-242-42.2h0.7c0 16.4-0.3 32.8 0.1 49.1 0.2 9.8 5.7 15.7 15.3 17.1 16.7 2.4 31.2-1.5 41.6-15.9 13-18 15.2-38 10.3-59-6.8-29.1-25.8-44.2-55.6-44.9-2.2-0.1-4.4-0.2-6.6-0.2-4.9 0.1-5.8 0.9-5.8 5.8v48zM498.1 475.8H451.8c-2.5 0-5-0.1-7.3-0.8-1.3-0.4-2.2-2.2-3.3-3.3 1.2-0.9 2.3-2 3.6-2.5 1.2-0.5 2.7-0.4 4.1-0.6 9.9-1.7 16-7.9 17.3-17.8 0.5-3.9 0.8-8 0.9-11.9 0.1-32.8 0.1-65.5 0-98.3 0-4.1-0.4-8.3-0.9-12.3-1.2-9-6.3-14.3-15.1-16.4-2.5-0.6-5.2-1-7.6-1.9-1-0.4-2-2.2-2.1-3.3 0-0.7 1.8-1.6 2.8-2.3 0.3-0.2 0.8-0.1 1.2-0.1 29.8 0.1 59.5-0.3 89.3 0.3 55.8 1.1 83.9 43 86.7 84 1.2 17.1-1.1 33.5-8.5 49.1-9.5 20-25.3 32-47.1 35.7-9.9 1.6-20 2.2-30 2.6-12.6 0.1-25.2-0.2-37.7-0.2z m-0.8-94.6c0 16.2-0.1 32.5 0 48.7 0 5.4 0.3 10.7 0.7 16.1 1 12.7 7.8 20.7 20.4 22.4 28.1 3.7 45.1-5.3 56.9-25.2 18.6-31.6 17.9-64.1 0.8-96-9.8-18.2-25-30.4-46.1-33.4-8.6-1.2-17.3-1.2-26-1.4-6-0.2-6.7 0.7-6.7 6.6v62.2z" p-id="1654"></path><path d="M946.4 406.8c6.3-8.4 12.5-16.1 18.2-24.2 2.9-4.2 1.7-6.7-2.6-9.5-1.2-0.8-1.8-2.6-2.7-3.9 1.4-0.8 2.8-2.1 4.2-2.2 9.1-0.2 18.2-0.2 27.3 0 1.4 0 3.8 1.2 3.8 1.9 0 1.7-0.7 4.4-1.9 4.8-15.9 5.7-24.2 19.4-34 31.6-1.6 2-3.1 4.2-4.9 6.1-1.7 1.9-1.9 3.8-0.5 5.9 9 13.8 17.9 27.8 27 41.5 3.4 5.1 8 9.1 14.4 10.3 1 0.2 2.4 2 2.4 3 0 1.1-1.3 2.6-2.4 3.2-1.1 0.6-2.7 0.4-4 0.4h-29.4c2.7 1.1 4.3 1.8 5.9 2.4 18.6 7.4 28.6 21.1 30 41 1.4 21.1-6.8 38.8-19.9 54.6-0.2 0.3-0.6 0.4-1.6 0.1 0.7-1 1.3-2 2-3 11.9-15.3 18.9-32.3 17.9-52.2-1.1-21.8-17.9-39.4-39.7-41.3-4.9-0.4-9.8-0.8-14.8-1.6 1.8-0.1 3.6-0.2 5.1-0.3-0.6-1.5-1.9-3.1-1.6-4.4 0.2-1 2.2-2 3.6-2.4 6.1-1.7 7.7-4.4 4.5-9.9-4.4-7.6-9.2-15-13.8-22.5-1.3-2.1-2.9-2.4-4.5-0.3-5.7 7.2-11.7 14.3-17.1 21.7-3.9 5.3-2.4 9 3.9 10.9 2.3 0.7 4.2 1.7 3.3 4.1-0.5 1.4-2.8 3.1-4.3 3.1-17.9 0.7-35.8 1.1-53.7 1.5-6.1 0.1-6.6-0.5-8.2-6.1-0.2-0.9-0.7-1.7-1.2-3-1.5 0.8-2.8 1.5-4.1 2.2-12.6 6.9-26.1 8.7-40 5.9-16.9-3.4-25.3-13.9-25.4-31.1-0.1-16.7 0-33.3-0.1-50 0-3.2-0.2-6.3-0.5-9.5-0.5-5.5-3.3-9.2-8.7-10.9-2.2-0.7-4.5-1.3-6.6-2.4-0.9-0.5-1.8-2.2-1.6-3.2 0.2-0.9 1.7-2.3 2.6-2.3 11.3-0.2 22.6-0.2 33.9 0 1 0 2.5 1.6 2.8 2.7 0.5 2.2 0.4 4.6 0.5 7 0.2 23 0.2 46 0.8 69 0.5 18.7 15 27.2 32.2 19.5 7.8-3.5 12.4-9.6 13.6-17.9 0.8-6 1-12.1 1-18.1 0.1-13.1 0-26.2-0.2-39.2-0.1-9.6-2.4-12.6-11.3-15.7-2.4-0.9-6.6-0.7-5.8-4.9 0.8-4 4.5-2.2 6.9-2.2 8.9-0.2 17.9-0.1 26.9-0.1 5.3 0 5.9 0.4 6 5.9 0.2 8.1 0 16.2 0.1 24.4 0.2 19.1 0.3 38.3 0.8 57.4 0.1 3.4 1.6 7 3.3 10 2.7 4.4 6.7 5.2 11 2.2 3.6-2.5 7.1-5.4 9.9-8.7 8.5-10 16.6-20.2 24.9-30.4 1.3-1.6 1.9-3 0.5-5.1-8.3-12.3-16.5-24.7-24.7-37.1-3.5-5.3-7.8-9.5-13.7-12.2-1.4-0.6-2.1-2.7-3.1-4.1 1.5-0.8 3-2.2 4.5-2.2 14-0.2 28.1-0.2 42.2 0 1.6 0 3.1 1.4 4.7 2.1-1 1.7-1.6 4.1-3.1 5.1-5.6 3.7-6.4 5.5-3.2 11.4 3.3 6.2 7 12.2 10.5 18.2 0.3 0.8 0.8 1.4 1.8 3zM687 408.9H656.8c-5.1 0-6.1 1-6.2 6-0.1 13.4 2.7 26 10.9 36.9 8.8 11.7 25.4 16.9 39.3 12.5 8.9-2.8 14.3-8.9 17.3-17.5 0.7-2.1 1.2-4.4 4.4-3.6 3.1 0.8 2.8 3.2 2.4 5.3-2 10.5-7.6 18.4-17 23.6-23.5 13-60.4 3.5-74.6-19.1-19.6-31.2-5.5-74 28.6-85 18.4-6 36-4 50.6 10.4 7.1 7 10.1 15.9 10.7 25.7 0.2 3.8-1.9 4.7-5.1 4.7-10.4 0.1-20.8 0.1-31.1 0.1z m13.4-8.5c-0.5-7.2-1.7-14-6.2-19.8-4.7-6-10.6-9.5-18.5-8.4-11.3 1.6-23.3 16.2-22.7 28.2h47.4z" p-id="1655"></path><path d="M1053.2 408.9h-30.2c-5.1 0-6.1 1-6.1 6.1-0.1 13.4 2.7 26 10.9 36.9 8.8 11.7 25.4 16.9 39.3 12.4 8.8-2.8 14.3-8.9 17.3-17.5 0.7-2.1 1.3-4.4 4.5-3.5 3.1 0.8 2.7 3.2 2.3 5.3-2 10.5-7.6 18.4-17 23.6-23.6 13-60.4 3.5-74.6-19.2-19.5-31.2-5.4-74 28.6-85 18.3-5.9 35.7-4 50.3 10.2 7.3 7.1 10.3 16.1 10.9 26 0.2 3.8-2 4.7-5.2 4.7h-31z m-34.2-8.5h48.5c-1.7-5.8-2.6-11.5-5-16.4-4.7-10-14.9-14.3-24.3-11-9.7 3.6-18.8 16.1-19.2 27.4zM762.6 379.1v67.7c0 2.2 0 4.4 0.1 6.6 0.7 9.9 3.3 13 12.9 15.4 2.2 0.5 4.5 1.2 3.6 3.8-0.5 1.4-2.8 3.1-4.3 3.1-15.1 0.2-30.3 0.2-45.4 0.1-1.8 0-3.6-0.3-5.3-0.9-0.9-0.4-2.1-1.7-2-2.5 0.1-1.1 1.1-2.2 2-3.1 0.5-0.5 1.6-0.4 2.4-0.5 8.7-1.8 11.6-4.8 12.7-13.7 0.5-4.1 0.7-8.2 0.7-12.3 0.1-36.2 0.1-72.4 0-108.6 0-4.5-0.3-9.1-1-13.5-0.8-5.3-3.8-9-9.4-10.2-1.5-0.3-3.1-0.6-4.3-1.4-0.9-0.6-1.9-2.1-1.8-3.1 0.1-1 1.4-2.5 2.4-2.6 10.9-1.4 21.9-2.7 32.8-3.8 1.1-0.1 3 1.7 3.4 2.9 0.7 2 0.5 4.3 0.5 6.5v70.1zM1148.8 654.4H199.5c-1 0-2-0.5-3.8-0.9 4.2-2.4 950.9-2.1 953.1 0.9zM938.8 592.9c2.1-2.4 4.1-4.9 6.4-7.1 9.7-9.3 9-20.2-2.3-27.6 0.5-2.2 0.9-4.5 1.7-6.6 2.9-7.4 10.7-8.8 15.6-2.5 2.8 3.5 4.3 8.1 6.2 11.9 4.8-7.5 0.2-20.7-10.3-21.7-0.7-0.1-1.7-0.4-2.1-1-1.8-2.1-1.3-9.5 0.7-12.2 2.5-3.4 5.8-3.8 9.5-2.6 8.6 2.7 14.7 12.9 12.6 22.4-1.1 5.2-2.7 10.6-5.5 14.9-5.4 8.2-11.4 16.1-18 23.4-3.7 4.1-9 6.7-13.6 10-0.2-0.5-0.6-0.9-0.9-1.3zM1068.8 564.2c-6.1-4.3-7.6-11.1-4.4-17.7 2.1-4.6 4.1-5.7 8.1-4.6 5.3-7.7 15.2-8.7 25.8-2 16.3 10.3 16.3 37.4 0.2 48.1-10 6.6-23.6 5-33.7-4.5-5-4.7-9.4-10-14.5-14.7-14.7-13.4-43-16.6-60.1-0.8-0.7 0.6-1.4 1.1-2.4 1.3 2.9-4.9 6.9-8.5 12.1-10.8 16.5-7.2 38.7-6.1 55.8 11.1 5.4 5.4 11.1 10.9 17.5 14.9 14.6 9.1 30.7 1.4 33.5-15.5 1.3-7.9-3.7-18.7-11-22.9-7.1-4-14.4-4.3-21.4 0.4-6.1 4.2-7.3 10.2-5.5 17.7z" p-id="1656"></path><path d="M0 656.3a672.7 0.4 0 1 0 1345.4 0 672.7 0.4 0 1 0-1345.4 0Z" p-id="1657"></path><path d="M939.4 499.7c-3.2 2.6-6.3 5.2-9.5 7.7-8.1 6.4-8.7 17.1-1.3 24.3 0.6 0.6 1.4 1.5 1.4 2.2 0 3.5-4.7 9.5-8.2 10.5-3.7 1.1-7.3-0.6-10.2-5-3.8-5.7-4.4-12.1-1.7-18.1 5.6-12.6 16.9-18.3 28.9-22.7 0.2 0.4 0.4 0.8 0.6 1.1z" p-id="1658"></path><path d="M932.6 601.1c8.5-5.9 17.6-11.2 25.5-17.8 13.8-11.6 23.2-26 23.8-44.8 0.5-15.8-6.6-34-22.9-40.3-14.9-5.8-33.5-0.7-43.4 12-0.5 0.6-1.1 1.2-1.8 1.5 3.7-7.6 10.2-12.2 17.8-15.2 25.1-10 49.2 4.4 53.3 31.4 2.8 18.5-3.4 34.1-15 47.9-9.2 11-20.8 19.2-33.7 25.4-1.1 0.6-2.6 0.5-3.9 0.7 0.1-0.2 0.2-0.5 0.3-0.8zM649.5 665.2c-3.9 3.5-3.7 22.7 0.5 26.3h-10.8c2.9-2.5 4.5-10.6 2.3-11.4-2.9-1-6.8-1-9.8 0-2.4 0.8-1.2 8.4 1.8 11.3h-10c3.8-3.9 3.7-22.4-0.1-26.3h8.6c-0.6 3.7-1.2 7.5-1.9 11.9h12.2c-0.4-4 1.8-8.4-2.9-11.8h10.1zM841.6 664.6c6.4 0.5 12 0.3 17.4 1.4 6.5 1.2 10.1 6.5 9.9 12.8-0.2 6.6-3.8 10.8-10.6 12.3-1.1 0.2-2.2 0.5-3.3 0.5-4.2 0.1-8.5 0-13 0 4.1-4.3 4.1-22.9-0.4-27z m22.3 14.2c0.1-6.5-4.1-11.2-10.6-12-2.5-0.3-3.9 0.3-3.8 3.2 0.1 5.5 0.1 11 0 16.5-0.1 2.7 1.3 3.3 3.6 3.2 6.4 0 10.7-4.3 10.8-10.9zM364.3 691.9c4.7-4.1 4.9-23.1 0.2-27.4 6.5 0.4 12.1 0.3 17.4 1.3 6.5 1.2 10.2 6.5 10 12.8-0.1 6.6-3.7 11.2-10.5 12.3-5.3 0.9-10.8 0.7-17.1 1z m8.2-13.6c-0.1 2.6 0.1 5.2-0.1 7.8-0.2 3.1 1.4 3.8 4 3.6 6.6-0.4 10.7-4.9 10.4-11.8-0.2-6.3-5.2-11.1-11.4-11.2-2.1 0-3 0.8-3 2.9 0.2 3 0.1 5.9 0.1 8.7zM309.5 664.6c6 0.4 11.6 0.3 16.9 1.3 6.6 1.2 10.2 6.3 10.2 12.7-0.1 6.7-3.8 11.1-10.7 12.6-1.2 0.3-2.4 0.4-3.7 0.4-4.1 0.1-8.2 0-12.7 0 4.1-3.9 4.3-22.5 0-27z m7.6 13.6c-0.1 2.6 0.1 5.2-0.1 7.8-0.2 3 1.1 3.9 3.9 3.7 6.7-0.3 10.8-4.8 10.6-11.6-0.2-6.5-5.4-11.7-11.7-11.2-1 0.1-2.4 1.6-2.6 2.6-0.3 2.9-0.1 5.8-0.1 8.7zM1062.6 691.4c4.5-3.7 4.5-22.3 0.5-26.1 4-1.2 6.9 0.1 9.4 3.5 3.3 4.5 7.1 8.6 11.1 12.7 0-5.6 2.9-11.5-2.3-16.4h7c-0.6 2.6-1.7 5.1-1.8 7.7-0.3 6-0.1 12.1-1 18.8-5.3-6.2-10.7-12.4-16.1-18.7-2.7 5.2-1.7 15.4 1.7 18.5h-8.5zM963.3 691.6c-7.8 0-13-5.5-13-13.3 0.1-7.8 5.5-13.3 13.2-13.3 7.9 0 13.9 5.9 13.8 13.8-0.1 7.8-5.6 12.8-14 12.8z m8.9-13.7c-0.4-1.7-0.7-4.1-1.6-6.2-1.3-3.2-3.9-5-7.4-4.8-3.6 0.2-6.1 2.4-6.7 5.7-0.6 3.4-0.8 7.1-0.4 10.5 0.5 4 3.6 6.5 7.3 6.6 3.8 0.1 7.1-2.4 8.1-6.4 0.3-1.5 0.4-3.2 0.7-5.4zM253 691.6c-7.7 0-13-5.5-12.9-13.4 0.1-7.8 5.5-13.2 13.2-13.3 7.9 0 13.9 6 13.7 13.8 0 8-5.5 12.9-14 12.9z m9-13.8c-0.4-1.7-0.7-3.9-1.5-5.9-1.4-3.3-4-5.3-7.7-5.1-3.5 0.3-6 2.5-6.6 5.8-0.6 3.3-0.8 6.8-0.4 10.1 0.5 4.3 3.7 6.8 7.5 6.9 3.9 0.1 7.1-2.6 8-6.9 0.3-1.3 0.4-2.9 0.7-4.9zM226.6 666c0.1 1.9 0.2 4.4 0.4 7-0.3 0.1-0.5 0.2-0.8 0.3-0.9-1.1-1.7-2.2-2.6-3.3-3.2-4-8.7-4.3-12.3-0.7-3.9 3.9-4.6 12.6-1.1 16.8 0.9 1.1 2.2 2.1 3.5 2.7 3.1 1.6 8.2 1 9.3-0.8 1.2-2.1-0.2-8.5-2.5-10.6h7.9c-0.2 2.8-0.2 5.7-0.8 8.4-0.3 1.6-1.4 3.9-2.6 4.3-3.5 0.9-7.3 1.6-10.9 1.2-7.7-0.7-12.4-7.4-11.3-14.9 1.2-7.9 8.5-12.8 16.8-11.3 2.1 0.5 4.3 0.6 7 0.9zM516.8 681.7c-5.9 4.6-6.8 6.8-3.7 9.7h-8.1c3-3.6 6.1-7 8.9-10.6 0.7-0.8 1.3-2.6 0.9-3.2-2.8-4.3-5.9-8.4-8.8-12.3h9.4c-2.2 2-1.5 4 3.2 9 5.4-4.4 6.3-6.4 3.9-9.1h7.8c-2.7 3-5.7 6.1-8.5 9.4-0.7 0.8-1.2 2.8-0.7 3.6 2.9 4.5 6.2 8.9 9.3 13.3h-10c2.8-2.7 1.7-5.5-3.6-9.8zM549.6 676.4c3.9-0.3 7.9 1.9 10.7-3.8v9.1c-1.4-1.2-2.4-2.9-3.5-2.9-2.3-0.1-6.2 0-6.6 1.1-1 2.8-0.9 6.2-0.2 9.1 0.5 2 9.6 0.9 11.8-1.3 0.7-0.8 1.3-1.7 2.1-2.7 0.5 6.2-0.1 6.8-5.7 6.7-5.3-0.1-10.7 0-16.3 0 3.8-4.2 3.8-22.7 0.2-26.5 0.7-0.1 1.2-0.2 1.7-0.2h18.6c0.2 1.6 0.4 3.1 0.6 4.6-2.4-1-4.3-2.2-6.4-2.7-2.1-0.4-4.4-0.1-6.9-0.1-0.1 3.2-0.1 6.2-0.1 9.6zM401.6 691.6c4.4-3.8 4.5-22.4 0.9-26.5h20.2c0.2 1.5 0.3 3 0.5 5-4.6-3.7-5.8-3.9-13.3-2.9v9.8c3.8-0.8 7.2-1.4 10.8-2.1v5.5c-2.3-0.6-4.8-1.5-7.4-2-2.4-0.5-3.3 1-3.6 3.3-0.9 7.4 1.2 9.5 8.5 7.6 2.3-0.6 4.2-2.5 6.2-3.7 0.1 5.9-0.1 6-6.4 6h-16.4zM602.2 691.6h-9.6c3.8-4.4 3.7-22.5-0.1-26.6 4.2 0 8.1-0.2 12.1 0.1 1.7 0.1 3.5 0.7 5.1 1.5 3 1.6 4.1 4.3 3.5 7.6-0.7 4.3-4.1 5-7.6 5.7-1.9 0.4-4.9-1-5.4 2.2-0.6 3.2-1.6 6.7 2 9.5z m-2.2-12.5c3-1.3 5.8-1.7 7.2-3.4 1-1.2 1.1-4.6 0.1-5.9-1.4-1.8-4.2-2.5-7.3-4.1v13.4zM468.6 665h6.8c0.7 0 1.3 0.1 1.4 0.1-0.6 2.1-1.6 4.2-1.7 6.3-0.3 3.8-0.3 7.7 0 11.6 0.3 4.9 2.5 6.9 7 6.8 4.4-0.1 6.7-2.2 6.9-7 0.2-4.1 0.2-8.3-0.1-12.4-0.1-1.8-1.3-3.4-2-5.2h6.2c-0.6 2.1-1.6 4.3-1.8 6.5-0.3 3.6 0 7.2-0.2 10.7-0.4 6.5-4.2 9.4-11.6 9.3-5.9-0.1-8.9-3.2-9.1-9.4-0.1-3.9 0.1-7.7-0.1-11.6-0.1-1.8-1.1-3.6-1.7-5.7zM730.8 666c0.2 1.8 0.5 3.8 0.8 5.8 0 0.3-0.2 0.7-0.4 1.4-1.5-1.8-2.7-3.7-4.3-5-2-1.6-4.8-2.4-6.6 0-2 2.6-0.1 4.6 2.1 6.1l6.3 3.9c3.2 2 5.1 4.9 3.8 8.7-1.2 3.6-4.4 4.7-7.9 4.7-2.8 0-5.7-0.4-9.1-0.7-0.3-2.1-0.7-4.6-1-7.1l0.6-0.3c0.7 0.9 1.1 2 2 2.6 2.1 1.4 4.2 3 6.6 3.6 1.2 0.3 3.6-1.2 4.1-2.5 0.5-1.2-0.3-3.6-1.4-4.5-2-1.8-4.6-3-6.9-4.5-3.8-2.6-5-5.8-3.5-9.1 1.5-3.2 5-4.6 9.2-3.7 1.6 0.2 3.4 0.3 5.6 0.6zM939.2 666v7.7c0.3-0.4 0.7-0.7 1-1.1-2.4-1.7-4.7-3.6-7.2-5-2.9-1.7-5.9-1-8.4 1.1-4.3 3.5-5.3 12.5-2 17.1 3.4 4.9 8.3 5.1 16.5 0.7-3.5 6.8-15.8 7-20.9 0.4-3.4-4.4-3.8-10.7-0.9-15.5 2.9-4.9 9-7.3 15-6.2 2.1 0.4 4.4 0.5 6.9 0.8zM1123.6 666.1v6.7c-2.9-1.8-6-4.2-9.4-5.7-1.3-0.5-3.8 0.7-5.2 1.8-4.4 3.4-5.3 12.4-2 17.1 3.4 4.8 8.2 5 16.5 0.7-3.6 6.8-15.8 7-20.9 0.4-3.4-4.4-3.8-10.7-0.9-15.5 2.9-4.9 9-7.3 15-6.2 2 0.2 4.2 0.4 6.9 0.7zM817.3 666c-2.6 1.4-5.2 2.9-7.7 4.3V665h22.5c0.1 2.2 0.2 4.2 0.4 6.3-2.5-2.9-4.6-5.5-8.7-4.1-1.8 11.7-0.9 21.3 2.7 24.2H816.8c0.6-2.1 1.6-4.2 1.7-6.5 0.2-5.9 0.1-11.8 0.1-17.6-0.5-0.4-0.9-0.9-1.3-1.3zM299.9 684.2c-0.8 7.5-0.8 7.5-6.9 7.4h-16.1c5.1-3.9 3.2-8.7 3.1-13 0-4.4 1.9-9.4-2.6-13.4h9c-0.5 1.8-1.5 3.7-1.6 5.6-0.2 5.2 0 10.4-0.1 15.7 0 2.3 0.9 3.1 3.2 3.2 4.7 0.3 9.1-0.2 12-5.5zM434.2 691.6c4.1-4.2 4.3-22.3 0.4-26.5h9.6c-0.7 1.1-2.1 2.1-2.1 3.2-0.2 6.5-0.2 12.9-0.1 19.4 0 0.7 1.5 1.9 2.4 2 4.8 0.4 9.5 0.4 12.4-5.5-0.4 7.5-0.4 7.5-6.7 7.5-5.1-0.1-10.3-0.1-15.9-0.1zM681.6 665.1h9.2c-0.6 2-1.5 3.9-1.6 5.8-0.2 5.1 0 10.2-0.2 15.3-0.1 2.7 1 3.6 3.6 3.6 4.6 0.1 8.8-0.4 11.6-5.9-0.9 7.8-0.9 7.7-7 7.7H681.8c3.8-4.7 3.7-22.6-0.2-26.5zM803.1 684.9c-0.6 6.8-0.6 6.8-6.8 6.7H780.8c3.9-4.4 4-22.5 0.2-26.4h8.9c-0.5 2-1.4 4.1-1.5 6.3-0.2 4.9 0 9.9-0.1 14.8-0.1 2.4 0.8 3.5 3.3 3.5 4.5 0 8.9 0.2 11.5-4.9zM1042 665.1h10.6c-3.7 4-3.4 23.2 1 26.4h-11.5c4.5-3.3 4.7-22.9-0.1-26.4zM660.2 665.1h10.5c-3.9 3.7-3.7 23.1 0.7 26.4h-11.1c4.3-3.7 4.4-23.1-0.1-26.4zM1010.2 696.2c0.7-1.2 1.4-2.4 1.8-3.2-1.2-1.5-2.1-2.6-3-3.7 1.1-0.4 2.9-1.3 3.1-1 1 1.4 2.3 3.1 2.1 4.6-0.2 1.4-2.1 2.6-3.2 3.8-0.3-0.1-0.6-0.3-0.8-0.5zM753.1 689.6c-1.5 1-2.4 2.1-3 1.9-0.9-0.2-1.6-1.4-2.4-2.1 0.7-0.7 1.4-1.9 2.1-1.9 0.9 0 1.8 1 3.3 2.1zM887.9 689.6c-1.5 1-2.5 2-3.1 1.9-0.9-0.2-1.6-1.4-2.4-2.1 0.7-0.7 1.5-1.9 2.2-1.9 0.9 0 1.8 1.1 3.3 2.1zM993 686.4c1 1.4 2.1 2.3 2.2 3.2 0.1 0.6-1.5 2-1.9 1.8-0.9-0.3-2-1.2-2.3-2.1-0.3-0.5 0.9-1.5 2-2.9zM1144.2 689.6c-1.5 1-2.5 2-3.1 1.9-0.9-0.2-1.6-1.4-2.4-2.1 0.7-0.7 1.5-1.9 2.2-1.9 0.9 0 1.8 1.1 3.3 2.1z" p-id="1659"></path></svg>