<?xml version="1.0" standalone="no"?><!DOCTYPE svg PUBLIC "-//W3C//DTD SVG 1.1//EN" "http://www.w3.org/Graphics/SVG/1.1/DTD/svg11.dtd"><svg t="1575013731892" class="icon" viewBox="0 0 1024 1024" version="1.1" xmlns="http://www.w3.org/2000/svg" p-id="9447" xmlns:xlink="http://www.w3.org/1999/xlink" width="200" height="200"><defs><style type="text/css"></style></defs><path d="M502.7 804.3c-167.7-0.1-304-136.7-303.7-304.6 0.3-167.2 136.7-303.2 304-303.1 167.7 0.1 303.9 136.7 303.7 304.6-0.3 167.1-136.7 303.2-304 303.1zM259 499.4C257.8 634.2 365.7 743 501.8 744.3c134.8 1.2 243.6-106.7 244.9-242.8 1.2-134.8-106.6-243.7-242.7-244.9-134.9-1.2-243.7 106.7-245 242.8z" p-id="9448"></path><path d="M502.8 317.4c-24 34.2-54 59.7-87.8 81.3-17.7 11.3-34.9 23.4-51.1 36.7-35.1 28.7-46.1 66.1-36 110 8.6 37.6 35.2 61.9 74.6 68.3 39.9 6.5 65.8-5.7 87.7-41.4 1-1.6 2.8-2.6 4.2-3.9 1.1 0.3 2.2 0.6 3.3 1-1.5 14.6-1.2 29.8-5 43.8-3.8 14-11.6 26.9-17.6 40h58.8c-22.6-25.2-26.7-53.7-22.7-84.3 2.7 1.2 4.1 2.9 5.1 4.7 16.1 29.9 41.2 43.3 74.9 41.3 33.6-2 61.1-14.9 77.5-45.7 24.3-45.6 14.8-97.4-24.8-131.7-15.8-13.7-33.1-25.8-50.8-37-34.5-22.2-65.4-47.8-90.3-83.1z" p-id="9449"></path><path d="M502.8 317.4c24.8 35.4 55.8 61 90.3 82.9 17.7 11.2 35 23.4 50.8 37 39.6 34.2 49 86.1 24.8 131.7-16.4 30.8-43.9 43.7-77.5 45.7-33.7 2-58.9-11.4-74.9-41.3-1-1.9-2.4-3.5-5.1-4.7-4 30.6 0.1 59.2 22.7 84.3h-58.8c6-13.1 13.8-26 17.6-40 3.8-14 3.5-29.1 5-43.8-1.1-0.3-2.2-0.6-3.3-1-1.4 1.3-3.2 2.4-4.2 3.9-21.9 35.7-47.8 48-87.7 41.4-39.3-6.4-65.9-30.7-74.6-68.3-10.1-43.8 0.9-81.2 36-110 16.2-13.3 33.4-25.4 51.1-36.7 33.9-21.4 63.9-46.9 87.8-81.1z" p-id="9450"></path></svg>