<?xml version="1.0" standalone="no"?><!DOCTYPE svg PUBLIC "-//W3C//DTD SVG 1.1//EN" "http://www.w3.org/Graphics/SVG/1.1/DTD/svg11.dtd"><svg t="1575515106481" class="icon" viewBox="0 0 1024 1024" version="1.1" xmlns="http://www.w3.org/2000/svg" p-id="4587" xmlns:xlink="http://www.w3.org/1999/xlink" width="200" height="200"><defs><style type="text/css"></style></defs><path d="M645.6 541.5c-8.3-33.6-2.6-52.3 21.1-76L629 416c-42.8 7.8-84.1 9.7-120.9-18.2-36.8 27.9-77.4 26.1-120.9 18.2l-37.7 49.5c31.2 31.2 29.6 55.9 14.5 95.8-25.9 68.1 5.2 103.9 75.6 130.2 28.1 10.5 47.7 19.7 68.4 41.3 20.7-21.7 40.3-30.9 68.4-41.3 66.4-24.7 102.7-58.9 75.7-130.1-2.4-6.6-4.9-13.2-6.5-19.9z m3.8 69c-9.6 71.7-98.7 60.5-141.3 105.2-42.6-44.7-131.7-33.5-141.3-105.2-3.4-25.7 9.6-43.2 15.3-66.3 7.4-30.1 6.4-56.4-17-79.8l27.1-35.7c36.8 6.7 85.1 7 115.9-16.3 30.7 23.3 79.1 23 115.9 16.3l27.1 35.7c-23.4 23.4-24.4 49.7-17 79.8 5.7 23.1 18.8 40.6 15.3 66.3zM630.2 318.3c2.9-1.6 5.5-3.5 7.8-5.7 19.9-19.2 44.5-32.1 70.2-36.3 7.2-1.2 12.2 4.7 3 9.6-27.9 15-50.5 42.4-59.6 75.4-0.9 2.1-3.5 4.6-7.9 1.9-4.4-3-8.9-5.9-13.4-8.6v-36.3h-0.1z m0 88.3v-15.1c2.5 1.3 5.1 2.7 7.5 4 13.1 7.4 8.2 18.6-5 12.3-0.8-0.4-1.7-0.8-2.5-1.2z m0-22.9c4.1 0 8-2.5 9.6-6.5 2-5.2-0.6-11-5.9-13-1.2-0.5-2.5-0.7-3.7-0.7v20.2zM592.8 259c1.4-0.3 2.8-0.5 4.3-0.5 9.3 0 16.9 7.4 16.9 16.5s-7.6 16.5-16.9 16.5c-1.4 0-2.7-0.2-4-0.5-0.1 0.4-0.2 0.7-0.3 1.1V259z m0 46.9c1.8 7.1 6.4 12.7 13.3 15.4 7.4 2.8 16.5 1.2 24.1-2.9v36.4c-11.8-7-24.3-13.1-37.4-18v-30.9z m37.4 57.6v20.1c-1.2 0-2.5-0.2-3.7-0.7-5.3-2-7.9-7.8-5.9-13 1.6-3.9 5.5-6.4 9.6-6.4z m0 28c-11.7-6-24.3-11-37.4-15.1v16.5c13.1 3.7 25.6 8.2 37.4 13.7v-15.1z m-37.4-23.1c5.3 0 10.1-3.5 11.4-8.8 1.6-6.2-2.3-12.5-8.6-14-1-0.2-1.9-0.3-2.9-0.3v23.1z m-40.9-131.5c2 3.5 3.3 7.5 3.7 12.1 0.4 5.7-1 10.9-3.7 15.2v-27.3z m0 70.9v17.5c14.1 2.6 27.8 6.4 40.9 11.4v-30.8c-1.1-4.2-1.1-8.9 0-13.7V259c-7.2 1.9-12.6 8.3-12.6 16 0 5.9 3.2 11.1 8 14.1-6.6 11.2-21.1 18.8-35.4 18.8-0.3-0.1-0.6-0.1-0.9-0.1z m40.9 37.5v23.1c-0.9 0-1.9-0.1-2.9-0.3-6.3-1.5-10.2-7.8-8.6-14 1.4-5.3 6.2-8.8 11.5-8.8z m0 31.1c-13.2-4.1-26.9-7.1-40.9-9.2v17.3c14 1.9 27.7 4.7 40.9 8.3v-16.4z m-40.9-16.9v-26.1c0.5 0 1.1 0 1.6 0.1 7.3 0.9 12.5 7.4 11.6 14.6-0.8 6.5-6.6 11.4-13.2 11.4z m-43.8-174.2c8.8 26.9 34.2 34.6 43.8 51.6v27.3c-6.9 11.1-22.5 15.6-37.4 2.6-0.2 1.4-0.3 2.9-0.3 4.3 0 20 16.8 36.3 37.6 36.8v17.5c-14.2-2.6-28.8-4-43.8-4V185.3h0.1z m43.8 148.1v26.1c-0.5 0-1.1 0-1.6-0.1-7.3-0.9-12.5-7.4-11.6-14.5 0.8-6.7 6.6-11.5 13.2-11.5z m0 33.9v17.3c-14.4-1.9-29.1-2.9-43.8-2.9v-17.6c14.7 0 29.4 1 43.8 3.2z m-43.8-9.7v-29.5c8.3 0 15 6.6 15 14.7s-6.7 14.8-15 14.8z m0-36.3c-15 0-29.6 1.4-43.8 4v-17.5c20.8-0.5 37.6-16.8 37.6-36.8 0-1.5-0.1-2.9-0.3-4.3-14.9 13-30.4 8.6-37.3-2.6v-27.3c9.6-16.9 35-24.6 43.8-51.6v136.1z m0 6.8v29.5c-8.3 0-15-6.6-15-14.7 0-8.2 6.8-14.8 15-14.8z m0 36v17.6c-14.7 0-29.4 1-43.8 2.9v-17.3c14.4-2.2 29.1-3.2 43.8-3.2z m-43.8-4.6v-26.1c6.6 0 12.4 4.9 13.2 11.5 0.9 7.1-4.3 13.7-11.6 14.5-0.5 0.1-1 0.1-1.6 0.1z m0-34.2c-14.1 2.6-27.8 6.4-40.9 11.4v-30.9c1-4.2 1.1-8.8 0-13.6V259c7.2 1.9 12.6 8.3 12.6 16 0 5.9-3.2 11.1-8 14.1 6.6 11.2 21.1 18.8 35.4 18.8h0.9v17.4z m0-61.1v-27.3c-2 3.5-3.3 7.5-3.7 12.1-0.3 5.6 1.1 10.9 3.7 15.2z m0 69.2c-0.5 0-1.1 0-1.6 0.1-7.3 0.9-12.5 7.4-11.6 14.6 0.8 6.6 6.6 11.5 13.2 11.5v-26.2z m0 33.9v17.3c-14 1.9-27.7 4.7-40.9 8.3v-16.5c13.2-4 26.9-7.1 40.9-9.1z m-40.9 1.1c0.9 0 1.9-0.1 2.9-0.3 6.3-1.5 10.2-7.8 8.6-14-1.3-5.2-6.2-8.8-11.4-8.8v23.1z m0-31.7c-13.1 4.9-25.6 11-37.4 18v-36.4c7.6 4.2 16.7 5.8 24.1 2.9 6.9-2.7 11.5-8.4 13.3-15.5v31z m0-44.5l-0.3-1.2c-1.3 0.3-2.6 0.5-4 0.5-9.3 0-16.9-7.4-16.9-16.5s7.6-16.5 16.9-16.5c1.5 0 2.9 0.2 4.3 0.5v33.2z m0 53.1c-0.9 0-1.9 0.1-2.9 0.3-6.3 1.5-10.2 7.8-8.6 14 1.3 5.2 6.2 8.8 11.4 8.8v-23.1h0.1z m0 31.1v16.5c-13.1 3.7-25.6 8.2-37.4 13.7v-15.1c11.8-6 24.3-11 37.4-15.1z m-37.3 7.3c1.2 0 2.5-0.2 3.7-0.7 5.3-2 7.9-7.8 5.9-13-1.6-4-5.5-6.5-9.6-6.5v20.2z m0-29c-4.6 2.7-9.1 5.6-13.5 8.6-4.4 2.7-7 0.2-7.9-1.9-9.2-32.9-31.7-60.4-59.6-75.4-9.2-4.9-4.2-10.8 3-9.6 25.7 4.1 50.3 17.1 70.2 36.3 2.3 2.2 4.9 4.1 7.8 5.7v36.3z m0 8.8c-1.2 0-2.5 0.2-3.7 0.7-5.3 2-7.9 7.8-5.9 13 1.6 4 5.5 6.5 9.6 6.5v-20.2z m0 28v15.1c-0.9 0.4-1.7 0.8-2.5 1.2-13.2 6.3-18.1-4.8-5-12.3 2.4-1.3 4.9-2.7 7.5-4z" p-id="4588"></path><path d="M509.3 610.1c2.2 2.1 3.2 4.5 3.2 7.4 0 2.9-1.1 5.4-3.2 7.3v-14.7z m0-138.4v24.1c8.4 1.3 12.7 8.6 12.7 21.8 0 7.7-1.6 13.2-4.6 16.7-1.9 2.2-4.6 3.7-8 4.5V564c2.8 0.8 5.1 2.1 6.9 4.1 2.7 3 4.9 8.1 6.7 15.4 2.7 11.3 5.1 19.6 7.2 25 2 5.3 4.5 9.8 7.4 13.2 6.4 7.9 17.1 11.8 31.9 11.8 11.2 0 19.9-1.5 26.3-4.5 2.9-1.4 5.3-3.2 7.1-5.7 1.8-2.4 2.7-4.8 2.7-7.2 0-1.8-0.5-3.5-1.5-5s-2.2-2.5-3.7-2.9c-4.7-1.4-7.7-2.8-9-4.3-1.3-1.5-2.3-4.8-3-9.8-1.6-12.1-4.3-21.1-8-27-3.8-5.9-9.6-10.3-17.7-13.2-3.7-1.4-5.6-3.2-5.6-5.4 0-1.7 1.2-3.1 3.7-4.3 5.9-2.9 10.5-7.2 13.8-13 3.4-5.8 5-12.2 5-19.2 0-12.6-4.8-22.4-14.4-29.5-10.7-7.9-24.2-11.8-40.5-11.8-2.9 0-8 0.3-15.2 0.8l-0.2 0.2z m-4.7 91.6c-2.9 0-4.7 0.9-5.5 2.7-0.8 1.8-1.2 5.8-1.2 12.2 0 9.7 0.6 17.3 1.8 22.7 0.4 1.5 1 2.7 1.7 3.6 0.8 0.9 2.2 1.9 4.4 3.1 1.4 0.8 2.6 1.7 3.6 2.6v14.7c-1.5 1.4-3.6 2.5-6.3 3.4-6.4 2.1-17.2 3.2-32.4 3.2-28.3 0-42.4-5.4-42.4-16.1 0-1.8 0.4-3.3 1.3-4.4 0.9-1.1 2.8-2.7 5.7-4.7 3.4-2.2 5.6-4.8 6.8-7.9 1.2-3 2-8.2 2.5-15.6 0.4-5.4 0.6-24.8 0.6-58.3 0-10.6-0.5-17.8-1.6-21.7-1.1-3.8-3.4-6.6-6.9-8.3-3.4-1.6-5.6-3.1-6.8-4.4-1.1-1.3-1.7-3.1-1.7-5.2 0-2.8 1.1-5.3 3.3-7.4 2.2-2.1 5.2-3.7 9.1-4.7 3.2-0.9 7.8-1.3 13.5-1.3 2.5 0 8.8 0.4 18.9 1.1 1.9 0.2 4.9 0.2 9 0.2 6.8 0 15.9-0.5 27.3-1.4v24.1c-1-0.2-2-0.2-3-0.2-3 0-5.1 0.7-6.3 2.1-1.2 1.4-1.9 3.8-2.1 7.3l-1.3 26.7v1c0 2.8 0.4 4.6 1.2 5.5 0.8 0.9 2.4 1.4 4.8 1.4s4.6-0.2 6.6-0.7v25.2c-1.3-0.1-2.9-0.4-4.6-0.5zM798.2 620.3v-24.5c0.4 0.8 0.8 1.7 1.1 2.6 2.2 5.9 2.2 12.1 0 18.9-0.3 1-0.7 2-1.1 3z m0-43.7v-8.9c2.1 0.2 3.9-0.5 5.5-1.9 1.7-1.5 2.7-3.8 3.1-7.1 0.4-3.2 0.1-6.1-1-8.8-1.1-2.6-2.8-4.7-5.1-6.2-0.7-0.4-1.5-0.8-2.5-1.1v-9c5.6 0.6 9.3 0.9 11 0.8 2.1-0.1 4.1-0.6 6.1-1.4l-1.1 8.7c-1.8 0.6-3.9 1-6.2 0.9 2.2 3.4 3.7 6.6 4.4 9.5 0.7 3 0.9 6.1 0.5 9.3-0.7 5.4-2.5 9.3-5.4 11.9-2.6 2.4-5.7 3.5-9.3 3.3z m0-86.6v-8.8c2.7-0.2 5.3 0.4 7.9 1.8 2.6 1.4 4.7 3.6 6.3 6.5 1.6 2.9 2.6 6.3 2.9 10.2 0.6 6.4-0.3 11.4-2.7 14.9-2.4 3.6-6.1 6-11.2 7.4l-2-8.1c3.3-0.7 5.7-2.3 7.2-4.5 1.6-2.3 2.2-5.3 1.9-9.1-0.3-3.8-1.4-6.6-3.1-8.3-1.7-1.7-3.6-2.5-5.7-2.3-0.6 0-1.1 0.2-1.5 0.3z m0-22.5V459l10.1-2 1.6 8.2-11.7 2.3z m0-26.2v-8.8l4.1-1.4 2.7 7.9-6.8 2.3z m0-8.9v8.8l-16.5 5.7v-8.8l16.5-5.7z m0 26.6v8.5l-16.5 3.2v-8.5l16.5-3.2z m0 22.2v8.8c-1.2 0.4-2.1 1.3-2.8 2.5-0.6 1.2-1.3 4.1-2.1 8.7-1 6.2-2 10.6-2.9 13-0.9 2.4-2.3 4.4-4.2 5.8-1.4 1-2.9 1.7-4.6 2.1v-9.7c0.5-0.7 0.9-1.5 1.2-2.6 0.2-0.9 0.7-3.4 1.5-7.5 1.1-6 2-10.2 2.8-12.6 0.8-2.4 2.1-4.4 3.9-5.9 1.8-1.5 4.1-2.4 6.9-2.6h0.3z m0 52.5v9c-1.5-0.5-3.4-0.9-5.7-1.2l-3-0.4c0.9 3.2 1.4 7.8 1.5 13.9 0.1 3.5 0.3 6 0.8 7.4 0.4 1.5 1.2 2.7 2.3 3.6 1.1 0.9 2.3 1.5 3.8 1.6h0.4v8.9c-0.4 0-0.8-0.1-1.2-0.1-2.4-0.3-4.5-1.1-6.4-2.4-1.8-1.3-3.3-2.9-4.2-4.9-1-1.9-1.6-4-2-6.3-0.2-1.7-0.3-4.2-0.3-7.5 0-6.8-0.3-11.8-1-15.1l-1.3-0.2v-8.5c0.6 0.1 1.2 0.1 1.8 0.2l11 1.4c1.2 0.3 2.4 0.4 3.5 0.6z m0 62.1v24.5c-2.2 5.5-5.1 9.7-8.7 12.6-2.3 1.9-4.9 3.3-7.8 4.3v-9.3c1.2-0.6 2.4-1.4 3.4-2.3 3.1-2.7 5.3-6.1 6.6-10 1.6-4.8 1.5-9.3-0.2-13.5-1.7-4.2-5-7.7-9.9-10.6v-0.5l4.7-7.5c5.6 3.4 9.5 7.6 11.9 12.3z m-16.5-182.3v-8.8l10.3-3.5 2.7 7.9-13 4.4z m0-8.9v8.8l-15.3 5.3c-0.8 0.3-1.6 0.6-2.3 0.9v-8.9l17.6-6.1z m0 33.5v8.8l-17.6 6.1v-12.4c3 1.4 7.2 1.1 12.8-0.9l4.8-1.6z m0 24.1v8.5l-17.6 3.4v-8.5l17.6-3.4z m0 50.3v9.7c-0.6 0.1-1.2 0.2-1.9 0.3-2.2 0.2-4.3-0.1-6.2-1-2-0.8-3.6-2.1-5-3.7-1.1-1.2-2-2.9-2.9-5.1-0.9-2.2-1.4-4.6-1.6-7.1v-5.8c0.1-1.6 0.4-3.1 0.8-4.5 0.8-3 2.2-5.3 3.9-6.8 1.8-1.6 4.2-2.7 7.3-3.5l1.8 8c-2.5 0.6-4.4 1.8-5.6 3.7-1.3 1.9-1.8 4.5-1.5 7.7 0.3 3.8 1.2 6.5 2.6 8 1.4 1.5 3 2.2 4.6 2.1 1.1-0.1 2-0.5 2.8-1.3 0.4-0.2 0.7-0.4 0.9-0.7z m0 19.2v8.5l-0.8-0.1c-3.4-0.4-5.9 0.1-7.4 1.5-2.1 1.9-3.5 4.9-4 9.1-0.5 3.9-0.2 6.8 1 8.9 1.1 2 3.4 3.7 6.7 5l-2.1 7.9c-3.4-1.2-6-2.7-7.9-4.7-1.3-1.3-2.3-2.9-3.1-4.8v-21c0.4-1.3 0.9-2.4 1.4-3.4 1.3-2.5 2.8-4.3 4.4-5.3 1.6-1 3.6-1.7 6-1.9 1.1-0.1 3.1 0 5.8 0.3z m0 59.2v0.5l-0.2-0.1 0.2-0.4z m0 37v9.3c-2.4 0.8-5 1.4-7.7 1.6-3.3 0.3-6.6 0.2-9.9-0.2v-9.3c3.3 0.7 6.5 0.9 9.4 0.8 3.1-0.2 5.8-0.9 8.2-2.2zM764.1 400v-10c3.7-2.6 6.1-5.5 7.1-8.7 1.4-4 1-7.7-1.1-11.4-1.5-2.6-3.5-4.4-6-5.6V356c1.2 0.4 2.3 1 3.4 1.7 3.6 2.1 6.4 5.1 8.6 8.8 3.4 6 4.3 11.9 2.6 17.8-1.7 5.9-6.1 10.9-13.4 15.1l-1.2 0.6z m0-44v8.3c-1-0.4-2.1-0.8-3.2-1-4.1-0.8-8.9 0.4-14.5 3.7-5.3 3-8.6 6.5-9.9 10.5-1.3 4-1 7.7 1.1 11.3 2.1 3.6 5.2 5.8 9.2 6.6 4.1 0.8 8.9-0.3 14.3-3.5 1.1-0.6 2.1-1.3 3.1-2V400c-7.4 4-14.1 4.9-20.1 2.8-5.3-1.8-9.4-5.4-12.5-10.7-3.4-5.9-4.2-11.8-2.5-17.7 1.7-5.9 5.9-10.9 12.7-14.8 5.5-3.2 10.3-4.8 14.4-5 2.7 0 5.3 0.5 7.9 1.4z m0 54.7v8.9c-2 0.8-3.6 1.7-4.6 2.5-1.4 1.2-2.3 2.7-2.7 4.6-0.4 1.9-0.3 3.9 0.5 6 1.2 3.4 3.2 5.9 6.2 7.6l0.6 0.3V453l-5.6 1.9-2.4-7.1 6.6-2.3c-6.3-1.7-10.6-5.7-12.8-12.2-1-2.8-1.3-5.6-1.2-8.3 0.2-2.7 0.9-4.9 2.2-6.6 1.2-1.7 2.9-3.2 5-4.5 1.4-0.8 3.9-1.8 7.5-3.1l0.7-0.1z m0 54.9v8.5l-2.6 0.5-1.6-8.2 4.2-0.8z m0 34.3v5.5c-0.2-2-0.1-3.8 0-5.5z m0 42.1v21c-0.4-1-0.7-2-1-3.2-0.8-3.3-0.9-7.1-0.4-11.3 0.4-2.5 0.8-4.7 1.4-6.5z m0 87.3v9.3c-2.9-0.4-5.7-1-8.6-2-6.7-2.2-12.2-5.4-16.4-9.6-4.2-4.2-6.8-9.1-7.9-14.7-1.1-5.6-0.7-11.2 1.2-16.9 2.1-6.5 5.5-11.4 10.2-14.7 4.7-3.3 10.3-4.9 16.9-4.7l-0.7 9.1c-5.2 0-9.3 1-12.4 3.2-3.1 2.1-5.3 5.4-6.7 9.7-1.6 5-1.8 9.5-0.5 13.6s3.7 7.5 7.3 10.1c3.6 2.7 7.5 4.7 11.7 6.1 2.1 0.6 4 1.1 5.9 1.5z m-71.5 133.1v-7.8c1.3-0.5 2.6-1.3 3.9-2.4 2.5-2 4.3-4.4 5.3-7 1.1-2.7 1.3-5.3 0.7-8-0.5-2-1.9-4.5-4.2-7.3l-1.9-2.4c-0.9 1.6-2.1 3.4-3.8 5.5v-22.6c0.3 0.2 0.5 0.4 0.8 0.6 1.1 0.9 2.8 2.8 5.2 5.7l7 8.6c4.9 6 8.1 9.7 9.7 11.1 1.6 1.4 3.4 2.5 5.4 3.3l-6.8 5.5c-1.8-0.8-3.5-2-5.1-3.7-0.8 4-1.9 7.3-3.4 9.9-1.5 2.6-3.6 5-6.1 7-2.4 1.9-4.6 3.2-6.7 4z m0-69.9l38.1 35.5 5.7-6.1-43.7-40.8v11.4h-0.1z m60-216.1l-9.4 1.8-1.6-8.2 9.4-1.8 1.6 8.2z m-60 204.7v11.4L681 681.7l5.7-6.1 5.9 5.5z m0 29.3V733c-1.3 1.7-2.9 3.5-4.8 5.5-2.4 2.5-3.9 4.5-4.6 5.9-0.7 1.4-1 2.8-0.8 4.2 0.1 1.4 0.7 2.7 1.6 3.8 1.4 1.7 3.2 2.6 5.5 2.7 1 0 2.1-0.1 3.2-0.6v7.8c-1.9 0.7-3.8 1-5.7 0.9-3.9-0.2-7.2-1.9-9.8-5.1-1.5-1.9-2.5-3.9-2.9-6.2-0.4-2.2-0.3-4.4 0.3-6.4 0.6-2.1 1.6-4 2.9-5.9 1-1.4 2.6-3.2 5-5.6 4.7-4.9 8-8.7 9.8-11.6-0.7-0.9-1.1-1.5-1.3-1.7-2.1-2.6-4.3-4-6.4-4.1-2.8-0.1-5.9 1.1-9.2 3.8-3 2.5-4.9 4.8-5.5 7.1-0.6 2.2-0.1 5 1.4 8.3l-4.3 2.6v-19.3c1.4-1.6 3.1-3.2 5-4.8 3.3-2.6 6.2-4.4 8.9-5.3 2.7-0.9 5-1.1 6.9-0.8 1.6 0.4 3.2 1.1 4.8 2.2z m-25.5 69.3v-12l5.2 9-5.2 3z m0-60.6v19.3l-2.7 1.7c-1.6-3.2-2.4-6.1-2.5-8.9 0-2.7 0.8-5.6 2.6-8.5 0.7-1.3 1.6-2.5 2.6-3.6z m0 48.6l-9.9-17.2c-1.9-3.3-3.4-5.6-4.5-6.8-1.6-1.8-3.4-3.2-5.3-4-1.9-0.9-4.2-1.2-6.9-0.9-2.7 0.3-5.3 1.2-7.9 2.7-5.9 3.4-9.1 8.4-9.5 14.9l-3.5-6.1-4.1 2.4v5.4l22.3 38.6 7.2-4.2-13.4-23.3c-3.2-5.5-4.2-9.8-3.1-13.1 1.1-3.2 3.2-5.8 6.3-7.5 1.9-1.1 3.9-1.6 5.8-1.6s3.6 0.6 5 1.8c1.4 1.1 3 3.2 4.6 6.1l15 25.9 2-1.2v-11.9h-0.1z m-51.7 31.8V778c2 5.9 2.7 10.9 2.1 14.9-0.3 2.4-1.1 4.6-2.1 6.6z m0-46.7v5.4l-2.3-4.1 2.3-1.3z m0 25.2v21.5c-0.8 1.5-1.8 2.9-2.9 4.2-2.8 3.1-6.2 5.3-10.3 6.7-2.9 1-5.7 1.5-8.4 1.5v-7.3c2 0.3 4.1 0 6.2-0.7 3.9-1.3 6.7-4 8.2-7.8 1.6-3.9 1.3-8.9-0.8-15-2-5.8-4.8-9.7-8.4-11.7-1.7-1-3.4-1.6-5.2-1.8v-7.3c3.3 0 6.5 0.8 9.5 2.3 5.5 2.8 9.5 7.9 12.1 15.3v0.1z m-21.7-17.7v7.3c-2-0.3-4 0-6.1 0.7-3.9 1.4-6.7 4-8.3 7.8-1.6 3.8-1.4 8.7 0.7 14.7 2.1 6 4.9 10 8.5 12 1.7 1 3.4 1.6 5.2 1.8v7.3c-3.3 0-6.5-0.8-9.6-2.3-5.5-2.8-9.5-8.1-12.2-16-3-8.6-2.8-15.8 0.6-21.6 2.8-4.8 7.1-8.2 12.9-10.2 2.9-1 5.7-1.5 8.3-1.5z m-49.5 62v-1.5l0.4 1.4-0.4 0.1z m0-66.7v-1.9l7.9-1.5 1.8 9.4-8.2 1.6-1.5-7.6z m12.6 64.9l-9.4-48.3 8.2-1.6 9.4 48.3-8.2 1.6z m-12.6-66.8v1.9l-0.4-1.8 0.4-0.1z m0 67.1v1.5c-2.2 0.6-4.1 1-5.9 1.2-3 0.3-5.4 0-7.2-0.8-1.7-0.8-3-2-3.8-3.5-0.8-1.5-1.4-4.7-1.9-9.7l-2.5-28.2-6.1 0.5-0.6-6.5 6.1-0.5-1.1-12.2 7.8-5.7 1.5 17.1 8.4-0.7 0.6 6.5-8.4 0.7 2.5 28.7c0.2 2.4 0.5 3.9 0.8 4.5 0.4 0.7 0.9 1.1 1.6 1.5 0.7 0.3 1.7 0.5 2.9 0.4 0.9-0.1 2.1-0.3 3.6-0.7l1.7 5.9z m-56.8 2.6v-6.2c1.7-0.2 3.3-0.6 4.8-1.3 2.6-1.2 4.6-3 6-5.3 1.1-1.8 1.7-4.5 2.1-8.2l0.3-3.1c-3 0.9-7.4 1.6-13.2 1.9v-6.9c6.1-0.2 10.7-0.7 13.7-1.5 0.1-1.1 0.2-1.9 0.2-2.2 0.3-3.4-0.3-5.9-1.7-7.4-2-2.1-5-3.3-9.2-3.7-1.1-0.1-2.1-0.1-3-0.1v-6.8c1.5-0.1 3.1 0 4.8 0.1 4.2 0.4 7.5 1.2 10.1 2.4 2.5 1.2 4.3 2.6 5.5 4.2 1.1 1.6 1.8 3.6 2.1 5.9 0.1 1.4 0.1 4-0.3 7.7l-1 11.1c-0.7 7.7-0.9 12.6-0.7 14.7 0.2 2.1 0.7 4.1 1.6 6.1l-8.7-0.8c-0.7-1.8-1.1-3.9-1.1-6.2-3.3 2.3-6.4 3.9-9.4 4.8-0.9 0.5-1.9 0.7-2.9 0.8z m0-50.6v6.8c-2.4 0.1-4.4 0.5-5.8 1.4-2 1.2-3.6 3.5-4.8 6.9l-8-1.8c1-3.4 2.5-6.1 4.4-8.1 1.9-2 4.5-3.4 7.8-4.3 2-0.5 4.1-0.8 6.4-0.9z m0 21.6v6.9h-0.7c-3.5 0.2-5.9 0.5-7.4 1s-2.7 1.3-3.5 2.4c-0.9 1.1-1.4 2.4-1.5 3.8-0.2 2.2 0.5 4.1 2 5.8 1.5 1.6 3.9 2.6 7.2 2.9 1.4 0.1 2.7 0.1 3.9 0v6.2c-2.1 0.3-4.2 0.4-6.5 0.2-5.4-0.5-9.4-2.1-12.1-5-2.7-2.9-3.8-6.4-3.5-10.5 0.2-2.4 0.9-4.6 2.2-6.4 1.3-1.9 2.8-3.4 4.7-4.4 1.9-1 4-1.8 6.2-2.2 1.7-0.3 4.2-0.5 7.5-0.6l1.5-0.1z m-71.7 15.3V791l8.6-30 7.2 2.1-1.9 6.7c5-4.2 10.7-5.4 17.3-3.5 2.9 0.8 5.3 2.1 7.4 3.8 2.1 1.7 3.5 3.6 4.2 5.6 0.7 2 1 4.2 0.8 6.6-0.1 1.6-0.7 4.2-1.8 7.9l-8.3 29.1-8-2.3 8.3-28.8c0.9-3.3 1.3-5.8 1.2-7.6-0.2-1.8-0.9-3.4-2.2-4.8-1.3-1.4-3-2.4-5.2-3.1-3.4-1-6.7-0.7-9.8 0.7-3.1 1.5-5.5 5.2-7.3 11.3l-7.4 25.8-3.1-0.8z m0-42.8l5-4.9c-1.5-2.2-3.1-3.9-5-5.1v10z m0-10v10l-0.9 0.9c-1.3-2-2.9-3.4-4.8-4.2-1.7-0.8-3.4-1-5.2-0.6-1.8 0.4-3.4 1.3-4.7 2.8-2.1 2.3-3.9 5-5.4 8.2l-10.9 23.4-5.2-2.4v-6.1l18.5-39.6 6.8 3.2-3.2 6.8c3.2-2.3 5.8-3.7 7.7-4 1.9-0.3 3.8-0.1 5.6 0.7 0.6 0.2 1.2 0.6 1.7 0.9z m0 34.1l-5 17.3 5 1.4V791z m-37.1-29.7c2.1-4.8 2.8-9.4 2-13.8-0.4-2.2-1.1-4.2-2-6.1v19.9z m0-19.8v19.8c-0.8 1.8-1.8 3.7-3 5.5-0.3 0.4-0.7 1-1.3 1.8L350.2 753v-8.2l20.5 13.3c1.9-3.7 2.7-6.9 2.4-9.5-0.5-4.1-2.5-7.4-6-9.7-3.2-2.1-6.6-2.8-10.2-2-2.5 0.5-4.7 1.6-6.7 3.4v-9.5c0.9-0.4 1.9-0.7 2.9-0.9 6.1-1.5 12-0.4 17.7 3.3 3.5 2.2 6.1 5 7.8 8.3z m0 47.4v6.1l-2.3-1.1 2.3-5z m-28.4-9v-7.5c1.5 0.5 3 0.7 4.5 0.6 2.7-0.2 5.5-1.4 8.5-3.6l6.7 5.6c-3.9 3.5-8.1 5.4-12.7 5.7-2.3 0.2-4.6-0.1-7-0.8z m0-76.5V700l2.6 0.5-2.6 2.9z m0-3.4v3.4l-7.8 9v-12.7l0.8-1 7 1.3z m0 30.8v9.5c-0.9 0.8-1.8 1.8-2.6 2.8l2.6 1.7v8.2l-6.7-4.4c-0.4 0.7-0.8 1.4-1.1 2.1V736c2.5-2.3 5.1-4.1 7.8-5.2z m0 41.7v7.5c-2.3-0.7-4.7-1.8-7.1-3.4-0.2-0.2-0.5-0.3-0.7-0.5v-9.7c1.1 1.7 2.6 3.2 4.5 4.5 1.1 0.6 2.2 1.2 3.3 1.6z m-7.8-49.7v-8.6l5.4 4.7-4.3 4.9-1.1-1z m0-23v12.7l-0.9 1 0.9 0.8v8.6l-5.2-4.5-18.9 21.7c-1.6 1.8-2.5 3-2.7 3.7-0.2 0.7-0.2 1.4 0 2.2 0.2 0.7 0.8 1.5 1.8 2.3 0.7 0.6 1.7 1.3 3 2.2l-3.9 6.4c-1-0.6-1.9-1.1-2.8-1.7v-22.4l17.2-19.8-4.6-4 4.3-4.9 4.6 4 7.2-8.3z m0 36.3c-1.8 1.8-3.6 3.9-5.2 6.5-4.4 6.7-6 13.1-4.9 19.1 1.1 5.8 4.4 10.6 10 14.4v-9.7c-0.9-1.4-1.5-3-1.8-4.7-0.6-3.3 0-6.9 1.8-10.8v-14.8h0.1z m-28.6-25.4c1.9-1.7 3.3-3 4-3.9 1.5-1.9 2.5-3.9 3-6s0.4-4.4-0.4-7c-0.8-2.6-2.1-5-4-7.3-0.8-1-1.7-1.9-2.7-2.7v26.9z m-30.7-342.4l27.1 14.4-14.2 26.6c-2.8 5.3-5.5 9.1-8.1 11.3-1.4 1.2-3 2.2-4.8 2.8v-9.9c2.2-1.4 4.2-3.9 6.1-7.4l10.1-19-16.2-8.6v-10.2z m30.7 315.6v26.9c-0.6 0.5-1.2 1.1-1.9 1.6l-23.2 19.5-5.4-6.4 22.9-19.3c2.6-2.2 4.3-4.1 5.2-5.6 0.9-1.6 1.2-3.3 0.9-5.2-0.3-1.9-1.1-3.7-2.6-5.4-2.3-2.7-5.1-4.3-8.5-4.9-3.4-0.5-7.5 1.2-12.3 5.3l-5.8 4.9v-10.9l17.6-14.8 4.8 5.7-5.4 4.5c5.3-0.6 9.8 0.8 13.7 4.1z m0 48.8v22.4c-0.9-0.6-1.8-1.3-2.5-1.9-2.3-2-3.7-3.9-4.4-5.7-0.6-1.8-0.7-3.5-0.2-5.2 0.5-1.6 2.4-4.3 5.7-8.1l1.4-1.5z m-30.7-67.2v-10.6l21.7-13.6 4.8 7.6-26.5 16.6z m-32.9-314.7l32.9 17.5v10.2l-3.6-1.9-9.1 17.1c-1.9 3.6-3.1 6.7-3.4 9.1-0.3 2.5 0 4.6 1.1 6.6 1.1 1.9 2.6 3.4 4.5 4.5 2.8 1.5 5.7 1.7 8.6 0.6 0.6-0.2 1.2-0.5 1.8-0.9v9.9c-1.4 0.5-2.8 0.8-4.4 0.9-3.6 0.2-7.1-0.6-10.4-2.3-4.3-2.3-7.1-5.5-8.6-9.9-1.5-4.3-1-9.5 1.2-15.7-2.1 1.6-4 2.6-5.5 3.2-3.4 1.2-7.2 2-11.5 2.4l-1.7 0.1v-9.5l1.8-0.1c4.8-0.4 8.6-0.9 11.3-1.4 2.7-0.5 4.8-1.1 6.1-1.9 1.4-0.8 2.6-1.7 3.5-2.8 0.7-0.8 1.5-2.2 2.6-4.3l4.9-9.2-26.6-14.2 4.5-8z m32.9 304.1v10.6L252 685l-4.8-7.6 35.9-22.5z m0 29.4L263 701.2l5.4 6.4 14.7-12.4v-10.9z m-40.9-101.8v-8.6l32.2-7.4 1.9 8.1-34.1 7.9z m0-20.5v-9.2c0.7-0.4 1.3-0.9 1.7-1.5 1.7-2.2 2.5-5.5 2.2-9.7-0.3-3.9-1.2-6.8-2.7-8.5-0.3-0.4-0.7-0.8-1.2-1.1v-9.2c1 0.4 2 0.9 2.9 1.5 2.3 1.5 4.1 3.9 5.5 7 1.4 3.1 2.2 6.8 2.5 11 0.3 4.2 0 7.6-0.8 10.3-0.8 2.7-1.9 4.7-3.3 6.1-1.4 1.3-3.2 2.3-5.5 3-0.3 0.1-0.8 0.2-1.3 0.3z m0-49.3v-8.6l8.7 4.1-0.7 8.3-8-3.8z m0-29.3v-8.5l11.9-3.3-0.8 8.9-11.1 2.9z m0-18.1c2.9-0.3 5.7-1.1 8.2-2.4 5.5-2.9 9.1-7.6 11-14.1 1.7-5.9 1.3-11.3-1-16.4-2.8-6.1-8.6-10.4-17.4-12.9l-0.8-0.2v8.9c5.2 1.7 8.8 4.2 10.9 7.4 2.2 3.5 2.8 7.3 1.6 11.3-1.1 4-3.6 6.8-7.4 8.6-1.5 0.7-3.3 1.2-5.1 1.3v8.5z m0-63.2l-20.2 1.6 5.3-10 14.9-1.2v9.6z m0 17.2v8.9c-0.5-0.2-1-0.3-1.6-0.5-6.1-1.7-11-1.7-14.8 0.1-3.8 1.8-6.2 4.7-7.4 8.7-0.2 0.7-0.3 1.4-0.4 2.1v-14.7c1.4-1.4 3-2.5 4.8-3.5 5.3-2.8 11.8-3.2 19.4-1.1z m0 37.5v8.5c-3.5 0.3-7.2-0.1-11.3-1.3-5.6-1.6-9.9-3.7-12.9-6.2v-15.6c0.3 1.9 1 3.7 2.1 5.5 2.3 3.5 6.5 6.1 12.7 7.9 3.6 1.1 6.7 1.5 9.4 1.2z m0 18.1v8.5l-18.2 4.8c-1.9 0.5-3.9 1-6 1.4v-8l24.2-6.7z m0 29.2v8.6L218 501.2V493c1.7 0.7 3.5 1.5 5.2 2.2l19 8.9z m0 18.7v9.2c-1.5-1.2-3.6-2-6.4-2.5l0.6-8.2c2.2 0.3 4.1 0.8 5.8 1.5z m0 30c-1.3 0.8-3.1 1.2-5.3 1.4-0.3 0-1 0-2.2 0.1-1.3-3.1-2.6-8-3.9-14.7-0.6-3.3-1.2-5.7-1.8-7.3-0.8-2.2-1.8-4.1-3.2-5.8-1.3-1.7-3-3-5.1-4-0.9-0.4-1.8-0.7-2.8-0.9v9c0.3 0.1 0.7 0.3 1 0.5 1.2 0.7 2.2 1.7 2.9 3.1 0.7 1.4 1.4 3.8 2.2 7.1 1.3 6 2.7 10.4 4.1 13.4l-3.1 0.2c-2.9 0.2-5.3 0.1-7.1-0.4v9.4c1.9-0.2 4.2-0.3 6.7-0.5l11.1-0.8c2.8-0.2 4.9-0.4 6.4-0.7v-9.1h0.1z m0 21.1v8.6l-24.2 5.6v-8.6l24.2-5.6z m-24.1-150v14.7c-0.2 1.3-0.2 2.5 0 3.7v15.6c-0.2-0.2-0.5-0.4-0.7-0.6-3-2.8-4.9-6.3-5.9-10.3-0.9-4.1-0.8-8.1 0.4-12.3 1.3-4.5 3.3-8.1 6.2-10.8z m0 57.8v8c-1.9 0.4-3.8 0.8-5.7 1.1l5.7 2.1v8.2l-16.1-7.7c-5.2-2.5-8.8-4.3-10.7-5.6-2.6-1.7-4.5-3.6-5.6-5.6-1.1-2-1.6-4.4-1.3-7 0.1-1.6 0.6-3.4 1.5-5.3l7.9-0.2c-0.7 1.8-1 3.3-1.2 4.7-0.2 1.8 0 3.4 0.5 4.5 0.5 1.2 1.3 2.1 2.3 2.9 0.8 0.6 2.8 1.6 6 3.1 0.5 0.2 1.1 0.5 2 0.9l14.7-4.1z m0 39.9v9c-1-0.4-2-0.5-3.1-0.4-2.2 0.2-4 1.1-5.4 2.9-1.4 1.8-1.9 4.3-1.7 7.5 0.2 3.2 1.1 6 2.7 8.4 1.6 2.4 3.6 4.1 6.2 5.1 0.4 0.2 0.8 0.3 1.3 0.4v9.4c-3.9 0.4-6.6 0.7-7.9 1-2 0.5-3.9 1.3-5.8 2.5l-0.6-8.7c1.7-1 3.6-1.7 5.9-2.1-2.8-2.9-4.9-5.7-6.2-8.5-1.3-2.8-2-5.8-2.3-9.1-0.4-5.4 0.6-9.6 3.1-12.7 2.4-3.1 5.7-4.8 9.8-5 1.4 0 2.7 0.1 4 0.3z m0 57.9v8.6l-8 1.8-1.9-8.1 9.9-2.3z" p-id="4589"></path></svg>