<?xml version="1.0" standalone="no"?><!DOCTYPE svg PUBLIC "-//W3C//DTD SVG 1.1//EN" "http://www.w3.org/Graphics/SVG/1.1/DTD/svg11.dtd"><svg t="1575514229533" class="icon" viewBox="0 0 1024 1024" version="1.1" xmlns="http://www.w3.org/2000/svg" p-id="3512" xmlns:xlink="http://www.w3.org/1999/xlink" width="200" height="200"><defs><style type="text/css"></style></defs><path d="M356.4 320.6c1-20.1 13.1-29.3 22.5-40.1 2.8-3.2 5.7-6.6 7.5-10.5 1.4-3.1 1.2-6.9 1.7-10.4-3.9-0.4-9.2-2.6-11.4-0.9-14 11.6-28.6 22.9-40.6 36.3-29.1 32.5-16.1 65.5 9.5 96 19.7 23.6 42.9 44.2 63.7 67 15.3 16.8 28.2 35.2 29.1 59.2 18.4-11.1 37.1-22.1 55.5-33.7 2.5-1.6 3.7-5.8 4.8-9.1 21.5-63 41.4-126.6 53.4-192.2 5-27 12.4-54.3 6-82.4-0.6-2.8 2.5-9.1 4.7-9.6 4.9-1.1 11.5-1.1 15.4 1.5 10.7 7.1 20.3 15.8 30.5 24-4.4 35.4-5.5 71.3 1.2 107.2 6.8 36.8 13.5 73.6 19.5 110.6 2.5 15.6 15.7 9.9 24.1 13.6 4.3 1.9 9.5 2 14.1 4.2-10.1 0.9-20.1 1.9-32.2 3 7 22.4 13.5 43.2 19.7 63.2 26.6-13 52.3-25.7 78.1-38.3 0.6 1 1.2 2.1 1.7 3.1-18.2 12.2-36.2 24.6-54.5 36.6-20 13.2-20.4 13.2-12.7 35.5 17 49.1 34.3 98.2 51.6 147.2 6.3 17.8 13.1 35.3 19.3 53.1 5.9 17.2-1.7 36.9-18.1 48.3-11.8 8.2-28.2 8.7-43.2-5.1-36.3-33.5-72.8-66.8-108-101.4-16-15.7-26.5-36.1-28.2-58.9-2-26.4 10.5-48.3 28.5-66.4 11.6-11.6 24.9-21.8 38.5-30.9 5.4-3.6 5.4-6.3 4-10.8-6.7-22.1-13.5-44.2-20.5-67.5-15.1 6-30.7 13-46.9 18.4-14.2 4.8-20.5 14.5-26.2 28-7.9 19-18.7 36.9-30.2 54-6.6 9.8-17.5 15.7-31 10.8 8.8-18 17.4-35.7 26-53.5-0.8-0.8-1.6-1.6-2.4-2.5-11.1 8.2-23 15.6-33 24.9-20.5 19.1-40.1 39.2-60 59-22.9 22.9-49.3 40.9-80.1 50.4-12.5 3.8-27.5 3.1-40.7 0.6-16-3.1-21.3-24.5-11.3-38.8 15.3-21.8 38.4-33.4 60.7-46 9.1-5.2 19.2-8.9 29.2-12.2 3.9-1.3 8.7 0.3 13.1 0.6 0.5 1.7 1 3.5 1.5 5.2-16.3 12.8-32.7 25.6-50.5 39.6 24.9 5.4 53.9-10.4 60.4-30.9 0.8-2.7-2.4-6.4-2.3-9.6 0.2-5.4-0.4-12.3 2.6-15.8 14.3-16.6 15.3-24.3 0.1-40.7-13.6-14.7-28.7-28-42.6-42.3-18.9-19.5-39.4-38-55.7-59.5-22.9-30.5-21.8-64.2-1.5-96.1 29-45.7 69.6-79 118-102.3 14.3-6.9 30.1-11.5 45.7-14.3 13.3-2.4 21 7.1 22.4 20.9 2.5 24.9-7.1 44.3-26 59.4a2009 2009 0 0 1-57.2 43.7c-4.1 3.5-9.9 4.6-17.3 7.6z m329.4 447.8c0.6-0.4 1.2-0.7 1.8-1.1-22.6-71.4-45.1-142.7-68.6-217-15 15.7-29.5 28.5-41.1 43.7-15.7 20.5-19.4 45.3-0.9 68.7 9.1 11.5 18.8 22.8 29.4 32.9 26.1 24.6 52.9 48.5 79.4 72.8z m-96.4-320.8c-6.7-32.5-13.4-64.7-20.3-98-11.9 38.6-23.3 76-35.1 114.2 18.6-5.3 36.1-10.5 55.4-16.2z" p-id="3513"></path><path d="M749 451.5c-10.1 12.7-37.6 12.4-45.9-0.6-3.9-6.1-0.4-12.1 7.5-13 10.9-1.2 27.3 4.6 38.4 13.6z" p-id="3514"></path></svg>