<?xml version="1.0" standalone="no"?><!DOCTYPE svg PUBLIC "-//W3C//DTD SVG 1.1//EN" "http://www.w3.org/Graphics/SVG/1.1/DTD/svg11.dtd"><svg t="1574753902525" class="icon" viewBox="0 0 1024 1024" version="1.1" xmlns="http://www.w3.org/2000/svg" p-id="740" xmlns:xlink="http://www.w3.org/1999/xlink" width="200" height="200"><defs><style type="text/css"></style></defs><path d="M919.8 398.3C883.4 324 804 327.4 804 327.4c-45.6 0-72.7 23.1-88.2 36.3-5.9-15.3-18-24.5-39.8-24.2V400l-53.2 49.8c0-63.9-55.3-121.8-128.7-121.8-40.3 0-70.9 21.6-89.2 37.8v-51.1c0-21.8-3.2-57.6-47.2-57.6v155.4c9 5.5 23.7 5.1 32.4 5.1 49.3 0 46.6-42.9 104.2-42.9 44.7 0 80.3 39.2 80.3 84.2 0 44.1-38.5 80.7-80.3 80.7-40.2 0-55.8-21.1-83.7-49.8-42.3-43.3-85-86.3-128.1-128.8-20.5-20.1-54.1-32.6-85.4-32.6-36.3 0-62.8 16.8-80.3 30.9v-46.4c0-21.5-8.9-55-39.3-55h-7.9v195.8C69.3 509.6 109.7 586 198.4 586c73.3 0 101.8-53.2 135.7-84.2-84.3-23.5-69.1 37.8-137.4 37.8-49.4 0-80.5-41.5-80.7-82.4-0.2-32.8 24.8-80.7 79-80.7 46.1 0 59.8 22 82.4 44.7l109.9 109.9c35.1 35.1 57.9 55 108.2 55 44.5 0 70.8-19.9 94.4-41.2 27.4-24.6 59.5-55.1 85.9-79v120.4c33.1 0 47.2-25.5 47.2-52.4V422.3c11.6-11.5 24.8-23.8 36.1-32.7 10.4-8.1 23.6-13.8 41.2-13.8 30 0 43.7 8 55 17.2 15.6 12.7 30.9 34.6 30.9 56.7v78.5c0 29.1 8.4 57.6 47.2 57.6v-127c0.2-21.3-6-44.8-13.6-60.5zM699 321.7h1.7s25.9-21.1 25.9-38c0-14.7-10.2-27.7-25.9-27.7H699c-14.4 0-25.9 9.6-25.9 27.7 0 17.2 25.9 38 25.9 38zM182.1 735.4c-1.3 0.3-2.4 0.6-3.2 0.8-9.9 2.5-19.3 4.3-28.3 5.2l-5.7 0.6-3.1-9.3c15.9-1.1 28.1-2.7 36.6-4.9l3.7 7.6z m19-61.3v3.8h11.2v-6.1h-23v-6.1h5.7l-6.4-4.1c5.2-3.1 9-6.9 11.3-11.4h-46.5v4.6h34.8v6.4h-16.6v4.7h14v6.1h-14v4.7l8-0.5 8.5-0.7v6.8c-7.1 0.9-14.2 1.4-21.3 1.4-6 0-13.7 0.2-23.1 0.7l-1-7.4 10.2 0.1 9.9-0.2V672h-15.5v-6.1h15.5v-4.7h-14.4v-3H143v-15.6h45.2l-1.5-2.2-2.3-2.9 11-1.3 2.4 3.3 2 3h43.8v15.6h-5.5v2.4H221v5.1h22.7v6.1H221v6.1h10.6V674h8.2v9.7H193V674h8.1zM153.3 727v-39.8h81.3V727h-81.3z m71-32.9h-60.8v4.5h60.8v-4.5z m-60.8 15.1h60.8v-4.8h-60.8v4.8z m0 10.9h60.8v-5.2h-60.8v5.2z m48.8-54.4v-5.1h-10.6l-2.2 2.4-2.9 2.6h15.7z m-5.2 61.8c2.6 0.3 4.7 0.5 6.3 0.7 12.1 1.3 22.5 2.8 31.2 4.6l-3.1 9.2c-6.1-1.5-12.2-2.7-18.3-3.8l-19.2-3.3 3.1-7.4z m1.4-77.3l-2.9 4.7h27.7v-4.7h-24.8zM442 704.7v24.1h10.3v9.4H346.4v-9.4h10.8v-24.1H442z m-18.1-2.9h-2.2c-0.2 0-0.5 0-0.9-0.1l-3.4-10.1c4.4 0.5 7.1 0.7 8.2 0.7 2.8 0 4.7-0.8 5.8-2.5 1.1-1.6 2.5-8.5 4.1-20.6h-17.6l5.4-20.2h-40.7c-1.6 20.9-11.1 38.4-28.5 52.6l-7.5-7.6c15.5-11.3 24.1-26.3 25.9-45h-19.8v-9h82.8l-5.4 20.2h16.3c-0.7 7.7-1.6 15.5-2.8 23.5-1.2 8-3.2 13.1-5.9 15.4-2.3 1.7-6.9 2.7-13.8 2.7z m-56.2 12.5v14.6h14.6v-14.6h-14.6z m18.6-31.2l-5.9-3.7 5.5-5.5 6.3 3.7 5.4 3.3c0.7-0.6 1.3-1.1 1.7-1.5 3.2-2.8 5.7-6.4 7.4-10.7h-24.3v-8.5h34.4v7c-2.3 7.6-6.2 13.9-11.6 19l4.6 3.3c2.5 1.6 4.3 3 5.4 4.1l-6.3 7.8c-0.3-0.3-0.5-0.6-0.7-0.8-1.2-1.3-2.8-2.7-4.7-4.3l-5.3-4.3c-4.2 2.7-12.1 5.7-23.7 9.1l-4.9-8.2c9.2-1.5 16.2-3.7 20.9-6.8-0.9-0.8-2.3-1.8-4.2-3z m20.6 45.8v-14.6h-14.7v14.6h14.7z m24.6 0v-14.6h-14.7v14.6h14.7zM611.6 742h-10.7v-27.4c-5.6 5.7-11.6 10.3-17.9 13.7-6.4 3.4-14.6 6.7-24.8 9.8l-5.4-9.5c15.6-3.1 27.8-7.9 36.6-14.1h-34.7v-9.3H601v-5.7h-34.8v-29.8l-3.2 4.4c-1 1.3-2.1 2.5-3.2 3.7l-0.7 0.7-6.3-10.4c9.5-9.1 16.9-19.7 22.3-31.9l10.8 2c-1.2 3.3-2.6 6.2-4.1 8.6-0.1 0.2-0.2 0.4-0.5 0.8H604l-1.8-4c-1.2-2.5-2.1-4.3-2.8-5.3l10.5-2 3.1 5.7 2.4 5.5h37v8.5H615v5.7h32.9v7.8H615v6.4h32.9v7.8H615v6.7h39.1v8.9h-42.5v5.7H657v9.3h-34.2c9 6.1 20.9 10.5 35.6 13.3l-4.9 10.3c-18.9-5.1-32.9-13-42-23.6V742z m-6.6-80.2v-5.7h-28.5v5.7H605z m0 14.3v-6.4h-28.5v6.4H605z m0 14.5v-6.7h-28.5v6.7H605zM761.9 637.6h99.7v103h-9.9V736h-80v4.6h-9.8v-103z m76.7 51.5l3.6 4 4.7 5.5-7.4 4.7-3.1-4h-2v5.3h13.9v7.1h-13.9v4.3c0 2.8-0.6 4.9-1.9 6.3-1.3 1.3-4 2-8.2 2h-12.5l-2.3-7.5 11.7 0.5c2.6 0 3.9-1.1 3.9-3.3v-2.2H776v-7.1h49.1V700l-21.4 0.8-25.4 0.5-1.7-8.2 14.8 0.2 14.7-0.2v-4H779v-27.4h27.1v-3.8h-30.4v-7.5h30.4V646h-34.5v81.4h80V646H815v4.4h33v7.5h-33v3.8h28.7v27.4h-5.1z m-43 35.7l-3.7-4.9c-1-1.4-2.1-2.7-3.4-3.9l-0.7-0.7 7.6-3.5 3.7 3.5c1 1 2.1 2.3 3.5 4 0.2 0.2 0.4 0.6 0.8 1l-7.8 4.5z m-7.6-56.6v4.7h18.2v-4.7H788z m0 9.6v4.8h18.2v-4.8H788z m27-9.6v4.7h19.8v-4.7H815z m0 9.6v4.8h19.8v-4.8H815z m0 11.3v4l9.5-0.1 7.1-0.2-2.9-3.7H815z" p-id="741"></path></svg>