<?xml version="1.0" standalone="no"?><!DOCTYPE svg PUBLIC "-//W3C//DTD SVG 1.1//EN" "http://www.w3.org/Graphics/SVG/1.1/DTD/svg11.dtd"><svg t="1574762761339" class="icon" viewBox="0 0 1024 1024" version="1.1" xmlns="http://www.w3.org/2000/svg" p-id="9331" xmlns:xlink="http://www.w3.org/1999/xlink" width="200" height="200"><defs><style type="text/css"></style></defs><path d="M483.1 59h9.9c1.2 2 1.8 4.2 3.2 5 20.6 12.6 41.4 25.1 62.1 37.6 21.1 12.8 42.1 25.8 63.1 38.7 21.2 13 42.5 26 63.7 39 13.9 8.5 28 16.7 41.7 25.6 2.3 1.5 3.7 5.5 4 8.5 0.6 5.5 0.2 11.1 0.2 16.6 0 82.1-0.1 164.2 0.2 246.3 0 7.1-2.5 11.2-8.2 14.5-26.3 14.9-52.5 29.7-78.7 44.8-26.1 15.1-52.1 30.4-78.2 45.5-20.7 12-41.4 24.1-62.3 35.7-2.2 1.2-6.4 1.2-8.6-0.1-38.9-22.7-77.5-45.9-116.3-68.7-35.7-21-71.6-41.8-107.3-62.7-3.3-1.9-7.2-3.3-9.7-6-2.5-2.7-5-6.6-5.2-10.1-0.7-10.8-0.2-21.7-0.2-32.5 0-75.4 0-150.7-0.1-226.1 0-6.6 1.7-10.7 7.9-14.4 42.9-25.8 85.5-52.2 128.2-78.4 29-17.8 58-35.6 86.9-53.6 1.3-0.9 2.1-3.1 3.7-5.2zM278.9 338.4c0 38.8-0.1 77.5 0.2 116.3 0 4 2.3 8.9 5.1 11.8 3.4 3.5 8.5 5.2 12.8 7.8 18.6 10.9 37.2 21.7 55.8 32.7l57 33.6c19 11.2 37.9 22.5 56.9 33.6 2.5 1.5 5.7 1.7 8.6 2.6 0.8-2.8 2.2-5.7 2.2-8.5 0.1-76.1-0.1-152.1 0.2-228.2 0-7.8-3.1-12.2-9.3-15.4-1.7-0.9-3.5-1.6-5.2-2.5-22.6-13.1-45.1-26.3-67.7-39.3-5.7-3.3-9.5-1.2-9.6 5.2-0.1 20-0.3 40 0.2 59.9 0.1 3.8 2.4 8.8 5.4 10.9 7.1 5.2 15.6 8.5 22.7 13.7 3.6 2.6 7.5 7.7 7.6 11.7 0.7 25.7 0.5 51.5 0.4 77.3 0 5.4-2.9 7.3-7.3 4.8-21.4-12.3-42.5-25.1-64.1-37-7.8-4.3-9.4-10-9.3-18.2 0.3-48.9 0.5-97.7-0.1-146.6-0.1-9.3 3.6-14 10.8-18.3 18.1-10.8 36.1-21.7 54.1-32.8 24.3-14.9 48.5-29.9 72.8-44.9 5.3-3.3 10.4-3.1 15.4 0.8 1.7 1.3 3.4 2.6 5.3 3.7 20.4 12.6 40.9 25 61.2 37.7 4.8 3 4.7 7.4 0 10.2-3.9 2.3-7.9 4.4-11.8 6.8-19.5 11.8-38.9 23.6-58.4 35.4-4 2.4-4.2 4.9-0.3 7.6 11.9 8.1 23.7 16.3 35.9 24 2.3 1.4 6.7 1.6 9.1 0.4 9.8-5 19.3-10.6 28.8-16.1 19.1-11 38.1-22.1 57.2-33.2 19.5-11.3 39-22.5 58.4-34 6.2-3.7 5.9-5.7-0.3-9.5-10.7-6.4-21.4-12.8-32-19.3-18.2-11.1-36.4-22.3-54.5-33.5-18.2-11.1-36.3-22.3-54.5-33.4-14.9-9.1-29.9-18.1-44.8-27.3-4.2-2.6-7.9-2.5-12 0.2-6 4-12.1 7.7-18.3 11.5-27.8 17-55.7 33.8-83.5 50.8-31 19.1-61.8 38.6-93 57.3-6.2 3.7-8.2 7.8-8.2 14.4 0.1 38.3 0.1 76.8 0.1 115.3z m362 51.1v-77.3c0-2.9 0.5-5.8 0.1-8.6-0.6-4.1-3.1-5.5-6.6-2.5-20 16.9-39.6 34.2-59.9 50.7-8.1 6.6-13.5 13.5-11.4 24.3 0.5 2.6 1.5 5.2 2.3 7.8 2.3-1.1 4.8-1.7 6.7-3.2 9.6-8 18.9-16.3 28.6-24.2 2-1.7 4.9-2.2 7.4-3.3 0.7 2.4 1.5 4.8 2.1 7.3 0.2 0.9 0 1.9 0 2.9 0 41.9-0.2 83.8 0.2 125.6 0.1 7.6-3.1 11.7-8.8 14.9-8.6 4.8-16.9 10-25.8 14.2-10 4.8-13.2 12.2-11.8 22.7 0.8 5.9 3.2 7.8 8.6 5.3 4.3-2 8.3-4.7 12.4-7.1 27.1-15.7 54.3-31.5 81.5-47 11.1-6.3 23.2-11.5 19.9-28.2-1.1-5.5-3.3-7.4-8.1-4.7-9.4 5.3-18.6 10.9-27.9 16.3-2.3 1.3-4.9 2.2-7.4 3.2-0.7-2.9-1.9-5.8-1.9-8.7-0.3-27-0.2-53.7-0.2-80.4zM566.2 940.7c0.8 1.2 1.4 2 2.3 3.3h-25.7c-0.5-1.7-0.6-3.9-1.4-4.2-32.4-13.7-45.1-57.7-35.1-88.4 7.7-23.7 21-43.7 34.7-64 2.8-4.2 2.1-10.9 2.7-16.4 0.6-5.8 1-11.6-5.7-14.9-1.2-0.6-1.5-3.1-2.2-4.7 1.7-0.6 3.4-1.7 5.2-1.7 4.1 0 8.2 0.2 12.2 1 11.3 2.2 16.9-4.6 21.1-13.1 7.6-15.2 15.4-30.2 21.9-45.9 2.7-6.6 3.2-14.5 3-21.8-0.2-8-9.9-12.2-20.2-10.8-19 2.7-34.6 12.2-49.3 23.8-21.5 17-38.8 37.9-56.1 58.9-2.4 3-4.7 6.1-7.4 8.8-4.1 4.1-3.4 7.7 0.9 10.8 24 18 18.8 54.5-7 68.7-14.9 8.2-30 12.2-46.9 6.6-2.6-0.9-7.9 2-9.9 4.6-5.3 7-9.7 14.8-14.2 22.4-9.4 15.8-18.8 31.7-28 47.5-3 5.2-5.9 10.4-8.5 15.8-2.8 5.9-7.3 8.6-13.7 8.6-14.2 0-28.4 0.1-42.5-0.1-2.2 0-5.9-0.6-6.3-1.8-0.7-2.1 0.1-5.2 1.4-7.2 13.5-21.5 27.2-42.7 40.7-64.2 11.2-17.8 22-35.9 33-53.8 2.9-4.7 6-9.3 8.6-14.1 1.3-2.4 2.6-5.3 2.6-8 0-8.7 4.2-15.7 10.1-20.9 15.6-13.7 24.1-31.9 32.8-50 5.4-11.1 9.4-22.9 13.8-34.5 2.8-7.1 2.5-13.8-3.8-19-4.7-3.9-13.6-3.7-20.2 1.8-11 9.2-22 18.7-31.8 29.2-27.6 29.8-51.6 62.5-74 96.4-7.4 11.1-14.5 22.4-21.7 33.7-2.1 3.4-0.9 7.3 2.7 7 8.9-0.8 17.8-2.3 26.3-5.1 3.4-1.1 5-6.7 8.1-9.5 2.1-1.9 5.4-2.5 8.2-3.7-0.1 3 0.2 6.1-0.3 9-0.2 1.5-2.5 2.6-2.7 4.1-1.8 11-9.8 11.5-18.3 11.5-6.5 0-13.2 1-19.4-0.2-8.2-1.6-12.8 2.1-16.6 8.2-17.7 28.2-39.8 52.3-66.9 71.7-14.8 10.6-30.5 19.9-48.7 24.4 0.9 1.2 1.6 2.1 2.6 3.3h-48.4c0.8-1.2 1.5-2.1 2.3-3.1-25.3-8.5-36.4-28.8-43.4-53.4-1.3 1.7-2 2.7-3.3 4.4v-59.4c1.1 2 1.8 3.3 2.5 4.6 1.9-16.6 14.7-29.3 14.4-46.9-0.3-17.6 12.8-27.8 27-36.3 7.5-4.5 14.8-9.6 20.9-15.8 24-24.2 50.1-45.6 79.1-63.2 18.4-11.1 38-19.7 58.9-24.4 22.4-5 43.4-1.8 58.1 18.3 10.4 14.2 10.7 30.4 6.2 46.9-1.6 5.9-3.6 11.7-5.4 17.5 0.8 0.6 1.5 1.3 2.3 1.9 2.9-2.6 6.1-5 8.7-7.8 19.2-20.8 38-42.1 57.7-62.4 5.8-6 14.2-9.7 21.8-13.7 2.6-1.4 6.8-1.5 9.7-0.4 20.6 7.5 35.3 20.2 36.5 44 0.8 15.2 1.3 30.3-5.9 44.5-1.1 2.1-0.7 4.9-1.1 7.3 0.7 0.4 1.4 0.8 2.1 1.3 2.8-2.9 6-5.6 8.3-8.9 21.1-29.7 45.4-56.1 76.4-75.5 12.8-8 26.5-14.4 42.3-14.7 9.2-0.1 16.2 4.1 22.7 9.5 16.8 13.7 24.1 31.8 24 53.2-0.1 16.3-3.1 32-8.8 47.3-1.1 3-1.8 6.8-0.8 9.7 2.8 8.3-0.3 14.1-6.7 18.7-4.2 3-5.3 6.2-0.4 8.7 8 4 14.2 9.5 12.6 18.7-1.9 11-10.3 17.5-20.7 19.8-7.8 1.8-16.2 0.8-24.1 2.2-4.1 0.7-9.3 2.8-11.3 6-12.5 20.4-24.1 41.3-29.7 64.9-2 8.7-1.2 17.2 6.4 22.1 8.1 5.2 17.6 3.5 26.3-0.2 21.9-9.4 38.9-25.4 54.7-42.6 9.4-10.3 18.2-21.1 26.9-31.9 1.8-2.2 3.1-5.7 2.9-8.4-2.1-25.4 7.7-46.7 21.7-66.9 24.5-35.3 55.7-63.5 91.8-86.2 35.8-22.5 74.3-38.5 116.7-42.2 17.7-1.5 33.6 4.6 44.6 19.8 5.6 7.7 4.9 29.6-0.2 39-12.7 23.6-34.2 36.3-57.1 47.3-5.7 2.7-8 6.2-8 12.2 0.1 16.1 0.1 32.3 0.1 48.4 0 10.4 1.5 12.5 11.7 12.7 6 0.1 12.1-1.5 18.1-2.4 1.6-0.3 3.4-1.5 4.8-1.2 8.4 2.4 11.5-3.3 14.9-9.1 1.2-2.1 3.1-4.1 5.1-5.4 1-0.6 3.6 0 4.5 0.9 0.8 0.9 0.8 3.1 0.3 4.5-1.3 3.6-3.1 7-4.6 10.5-2.5 5.6-6.6 9.4-12.9 8.4-11.4-1.7-18.4 4.4-25 12.3-25.6 30.4-55.1 56.3-89.8 75.8-23.2 13.1-48 19.5-74.8 14-18.1-3.7-31.7-14.6-42.3-29-8.6-11.7-14.3-24.8-16.9-39.2-0.3-1.6-1.9-3.9-3.1-4-1.4-0.2-3.4 1.4-4.5 2.7-7.6 9-14.7 18.4-22.5 27.2-14.8 16.3-31.9 29.9-51.2 40.4-4.4 1.7-9 2.5-13.5 3.9zM185.8 788.8c0.6 0.7 1.3 1.3 1.9 2-12.5 4.6-9.3 14.4-9.5 23 0 2.6-0.1 5.3 0.2 7.9 0.7 6-2 10-7.5 11.5-14.8 4.3-29.6 8.9-45.2 4.1-4.1-1.2-6.5 0.1-7.9 3.9-2.8 7.4-6.4 14.6-8.1 22.2-2.7 12.1-6 24.5-5.8 36.8 0.4 25.3 16.4 36.7 41.5 32.4 13.6-2.3 25.4-8.4 36.8-15.5 29.2-18.3 51-44.2 72-70.9 1.3-1.6 2-5 1.2-6.4-1.1-1.8-4-2.7-6.3-3.4-2.5-0.7-5.2-0.7-8.8-1.2 1.3-2.2 1.7-3.6 2.6-4.1 7.1-3.5 5.4-8.5 4.3-15.1-1.5-8.7-0.2-17.9 0.2-26.9 0.5-8.8 1.7-17.6 2-26.4 0.1-1.8-2.6-3.6-3.9-5.5-1.4-2-2.7-4-4.1-6 2.4-0.6 5-1.9 7.3-1.6 12.4 1.9 23.2 0.6 32.9-9.3 6.4-6.5 14.7-12.7 25.8-9.1 1.6 0.5 6.5-3.6 7-6.1 1.9-10.6 3.9-21.4 3.6-32.1-0.7-25.5-21.7-36.7-43.1-33.2-17.3 2.8-31.3 11.7-44.8 21.8-22.1 16.6-39 38.3-56.2 59.6-1.4 1.7-1.8 5-1.3 7.3 1.3 6.2 3.7 12.2 4.7 18.5 0.4 2.7-1.4 5.8-2.3 8.7-2.8-2-5.9-3.7-8.5-6-1.8-1.6-3.1-3.8-4.6-5.8-2.3 1.8-5.4 3.1-6.8 5.5-3.3 5.7-5.4 12.2-8.7 17.9-6.7 11.5-14 22.6-21.1 34-2.4 3.9-1.7 7.8 3 8.1 8.5 0.4 17.1-0.1 25.5-1.1 2-0.2 5.2-3.9 5.1-5.8-0.5-10.8 3.9-23-7.3-31.3-0.2-0.1 0-0.9 0.1-2.6 11.5 0.2 22.8 0.2 34.1 0.2z m565.9 46.8c0.8-5.9 3-11 1.6-14.6-3-7.4-7.2-15-17.9-11.4-1.4 0.5-3.3-0.5-4.9-0.8-5-0.9-8.1 1.6-11.9 4.6-8.9 6.9-9.5 18.3-16.2 26.7-9.4 11.9-14.8 27-14.7 42.8 0.1 7 1 14.7 4.1 20.8 6.3 12.6 18.2 18.5 31.4 22 28.1 7.4 53-1.8 77-15.1 22.4-12.4 41.6-29.1 60.4-46.3 6.6-6 13.2-11.9 19.3-18.3 1.8-1.8 2.2-5 3.3-7.6-2.3-0.6-4.7-1.7-7-1.8-10.8-0.2-21.6-0.1-32.4-0.2-1.7 0-3.5-0.7-5.6-1.2 10.5-11.5 10.5-11.5 10.5-28.3 0-9.6 0-19.2 0.3-28.9 0.2-7.6-3.1-9.9-10.3-6.9-3.3 1.4-6.6 3-10 3.9-20.5 5.1-41 9.9-61.5 14.8-6.2 1.5-7.7 5.4-4.1 10.5 1.8 2.5 3 5.3 4.7 7.9 5.2 8 7 18.6 17.4 22.8 1.1 0.4 1.5 2.6 2.3 4-1.4 0.7-2.9 1.9-4.3 1.9-10.1-0.1-20.1-0.4-30.2-0.7-1-0.1-1.8-0.8-1.3-0.6z m159.5-159.3c0.3-9.9-3.8-15.5-11.9-15.5-9.3 0-18.9 0.5-27.7 3.1-23.7 7-43.3 21.3-61.8 37.3-22.1 19.1-40.6 41.5-58.4 64.5-1.6 2.1-2.1 7.4-0.7 8.9 2.5 2.6 7.2 5.2 10.3 4.5 15-3.3 30.1-6.7 44.5-11.9 14.1-5.1 27.7-12.1 41-19.1 19.3-10.2 35.9-24 49.4-41.2 7.6-9.7 13.8-20.2 15.3-30.6zM460.8 794.4c-1.1-6.6-1.9-13.3-3.4-19.8-0.4-1.7-2.5-3.7-4.2-4.3-1.1-0.4-3.6 1.1-4.5 2.5-11.4 16.3-22.7 32.7-34 49-2.2 3.2-2.1 6.1 1.9 7.3 10.8 3.3 21.5 3.2 30.9-4 10.1-7.6 13-18.5 13.3-30.7z m144 16c-0.6-0.7-2-3.8-4-4.4-1.8-0.6-5.2 0.9-6.6 2.5-4.3 4.7-8 10-11.9 15.1-2.5 3.3-1.9 6.1 2.3 6.8 7.3 1.2 20.4-10.5 20.2-20z m131.8-19c-2.5 3.2-5.4 5.3-5.1 6.7 0.5 2.2 3.1 3.9 4.8 5.8 1.8-1.9 4.5-3.5 5.1-5.7 0.4-1.3-2.4-3.5-4.8-6.8z" p-id="9332"></path></svg>