<?xml version="1.0" standalone="no"?><!DOCTYPE svg PUBLIC "-//W3C//DTD SVG 1.1//EN" "http://www.w3.org/Graphics/SVG/1.1/DTD/svg11.dtd"><svg t="1574756475710" class="icon" viewBox="0 0 1024 1024" version="1.1" xmlns="http://www.w3.org/2000/svg" p-id="2200" xmlns:xlink="http://www.w3.org/1999/xlink" width="200" height="200"><defs><style type="text/css"></style></defs><path d="M273.1 212c22.9-2.5 44.3 4 65.5 11.2 17.2 5.8 33.8 13.1 48.8 23.4 5.3 3.6 9.9 8.3 14.8 12.5 0.7 0.6 1.2 1.5 2 2.6-5.4-0.7-10.4-1.6-15.4-2.1-7-0.7-14-0.1-20.5 3-4.3 2-5.2 3.8-4.3 8.5 1.7 9.2 6.6 16.7 12.7 23.4 12.3 13.5 28 20.9 45.6 24.9 10.6 2.4 21.4 2.9 32.3 3.1 3.3 0.1 6.6 0 10 0 0-0.1 0-0.6-0.2-0.9-9.5-18.6-18.4-37.5-30-55-14.5-21.7-34.2-37.2-57.2-49-6.7-3.4-13.5-6.7-20.2-10.2 12.2-0.2 24.4 0.3 36.3 2.9 11.8 2.5 23.5 5.8 35 8.7 7.9-42.8 29.6-79.9 54.3-115.5 5.2-7.5 10.9-14.5 16.9-22.4 2.4 3.6 4.5 6.5 6.3 9.7 6.9 12.6 11 26.2 14.3 40.1 5.2 21.7 8.3 43.7 6.8 66.1-0.4 6.6-2.2 13.1-3.4 19.6-0.2 1-0.8 2-1.3 3.4-2-4.9-3.6-9.4-5.6-13.7-2.9-6.4-6.7-12.3-12.5-16.5-4.4-3.3-6.6-3.2-10.7 0.5-8.3 7.5-12.5 17.3-15 27.8-4.2 17.6-1.9 34.9 4.7 51.4 4.6 11.4 10.5 22.2 15.9 33.6 0.8-0.7 1.1-1 1.3-1.3 11.3-17.2 23.1-34.2 32.3-52.7 9.9-19.8 14.7-40.8 14.4-62.9-0.1-11-1.1-22-1.7-33v-2.6c12.4 21.9 21.6 44.2 25 68.7 51.2-17.2 103.2-14.6 155.3-7.7l0.6 1.2c-2.4 4.2-4.5 8.6-7.1 12.6-8.5 12.8-19.2 23.7-30.6 33.9-15.3 13.7-31.6 25.9-50.1 35-6.5 3.2-13.1 5.8-21.2 6.6 1.1-1.3 1.8-2.1 2.5-2.8 6.2-7.2 12.2-14.7 14.3-24.3 2.1-9.4 1.2-11.5-8.9-13.5-12.6-2.6-24.8 0-36.4 5.1-17.2 7.6-30.1 20.3-40.6 35.5-4.9 7-9.2 14.4-14 22.1 3.4 0.2 6.2 0.5 9.1 0.6 18.1 0.4 36.2 1.4 54.3 0.9 22.4-0.6 43.1-7.8 62.3-19.1 8.9-5.2 17.3-11.1 26-16.7 0.8-0.5 1.6-1.1 2.6-1.5-12.2 21.3-27 40.3-46.7 55.5 2.5 2.2 4.8 4.1 7 6.1 15.1 13.6 27.3 29.6 38.2 46.5 15 23.3 27.7 47.9 37.6 73.8 0.5 1.3 0.9 2.6 1.6 4.9-6 0-11.5 0.4-16.9-0.1-18.8-1.6-36.7-6.9-54.3-13.4-15.3-5.7-30.1-12.5-43.6-21.6-6-4.1-11.7-8.6-16.4-14.9 5.4 0.7 10.4 1.5 15.3 2.1 6.4 0.7 12.8 0.2 18.8-2.1 6.2-2.3 7.8-4.9 5.6-11.1-1.7-5.2-4-10.4-7.1-14.9-10.6-15.4-25.8-24.5-43.5-29.6-10.9-3.2-22.1-4.7-33.5-4.8h-16c0-0.1 0 0.2 0.1 0.5 9.4 18.7 18.4 37.6 30 55 14.5 21.8 34.3 37.4 57.3 49.3 6.7 3.4 13.5 6.7 20.3 10.2-12.2 0.2-24.3-0.3-36.3-2.9-11.8-2.5-23.5-5.8-34.7-8.6-2.8 9.9-5.3 20.7-9 31.1-11.3 31.7-28.5 60.2-48 87.4-4.5 6.3-9.4 12.3-14.5 19-1.7-2.4-3.2-4.1-4.4-6-5.7-9.1-9.4-19-12.4-29.2-7.1-23.4-11-47.4-11.2-71.9 0-9.1 0.6-18.2 3.4-26.9 0.4-1.3 1-2.6 1.8-4.8 0.6 1.7 1 2.7 1.3 3.7 2.6 7.7 5.7 15.2 11 21.4 2.2 2.6 5 4.6 7.7 6.8 2.1 1.7 4.5 1.6 6.4-0.2 2.9-2.7 6.1-5.4 8.3-8.7 9.2-13.6 12-29 10.6-45.1-1.3-15.3-6.1-29.6-13.5-43-3.1-5.6-6.1-11.4-9.1-17-0.4 0.1-0.7 0.1-0.7 0.3-11.7 17.7-23.8 35.1-33.2 54.3-10.6 21.5-14.6 44.4-13.9 68.2 0.3 9.5 1 19 1.5 28.1-2.2-2-11.9-20.8-15.7-32.4-3.8-11.6-6.8-23.4-10.1-35.1-5.3 1.6-11.2 3.7-17.3 5.2-23.2 6-46.9 7.6-70.7 7.5-21.2-0.1-42.3-1.5-63.2-5l-3.6-0.6v-0.6c3.9-6.4 7.2-13.4 11.8-19.3 17.1-21.8 37.9-39.4 61.3-54.2 8.5-5.4 17.3-10.1 27-12.9 2.6-0.8 5.3-1.2 8.8-2-3.1 3.8-5.7 6.8-8 9.9-4.4 5.9-8 12.1-9.2 19.5-1.2 7.2 0.1 9.2 7.3 11 8.6 2.3 17.3 1.7 25.8-0.4 17.2-4.1 30.9-13.9 42.9-26.6 9.6-10.3 16.2-22.7 23.8-34.3 0.1-0.2 0-0.6 0-1.6-20-0.4-39.9-1.3-59.8-1-18.3 0.2-35.8 4.8-52.4 12.6-13.8 6.5-26.6 14.6-38.9 23.5-0.9 0.7-1.8 1.3-2.8 1.9 12.2-21.5 27-40.7 46.8-55.9-0.9-0.8-1.5-1.3-2.1-1.8-7-6.9-14.4-13.4-20.8-20.7-19.3-22.2-34-47.4-46.8-73.8-5.3-11-9.8-22.3-14.7-33.5 0.4-1.2 0.4-1.6 0.4-2z m226.4 106.6c-13.9 0.1-25 11.2-24.9 25.1 0 13.9 11.2 25 25.1 25 14 0 25.2-11.3 25.1-25.3-0.1-13.9-11.3-24.8-25.3-24.8zM877.6 669.7c0.2 0.6 0.3 0.7 0.3 0.9 0 16.1 0.2 32.1-0.2 48.2-0.3 10.8-5.9 16.5-16.7 18.2-3.3 0.5-6.6 0.9-9.9 0.9H654.8v-68h60.3v-10.1h-65.4v-27.2h232.9c-2 13.3-11.2 22.8-25.5 25.6-4.7 0.9-9.5 1.3-14.2 1.5-7.6 0.3-15.1 0.1-22.7 0.2h-2.7v9.9c20-0.1 40.1-0.1 60.1-0.1z m-128.3 20.8V717H783v-26.5h-33.7z m-61.2 0v26.4h27.5v-26.4h-27.5z m129.7 26.4h26.6v-26.3h-26.6v26.3z m-68.5-47.1h33.8v-10.7h-33.8v10.7zM309.2 761.8c0.9-0.3 1.7-0.8 2.6-0.8 23.4 0 46.8-0.1 70.3 0 0.8 0 1.6 0.6 2.4 0.9-0.3 0.7-0.5 1.5-1 2.1-1.4 1.7-3 3.4-4.5 5-3.1 3.3-4.8 7.3-5.1 11.9-1 16.1-1 32.2 0.2 48.3 0.1 1.4-0.2 2-1.5 2.6-18.6 7.9-37.6 14.1-57.7 16.5-21 2.6-41.6 1.3-61.1-7.5-25.3-11.3-42.3-30.5-50.8-56.7-8.8-27-9.5-54.6-1.4-81.8 10.8-36.3 35.7-58.1 72.6-65.7 30.6-6.3 60.7-2.5 89.9 8.6 2 0.8 3.9 1.8 5.9 2.7 1.9 0.9 2.5 2.5 2.1 4.4-3 13.9-3.9 28.1-5.1 42.2-0.1 0.9-0.6 1.7-0.9 2.5h-0.8c-1.4-3.3-2.9-6.6-4.3-9.9-1.5-3.6-2.9-7.3-4.3-11-1.9-5.1-5.3-9-9.6-12.2-9.7-7.2-20.8-11.1-32.7-12.5-12.9-1.5-25.5-0.5-37.5 4.6-15.9 6.6-26 18.8-32.8 34.2-5.2 11.8-7.8 24.2-8.5 37-1.1 19 0.5 37.8 7.2 55.8 3.6 9.6 8.4 18.5 15 26.4 17.5 21.1 43.1 28.1 69.1 18.8 2.8-1 5.6-2.2 8.3-3.6 0.7-0.4 1.6-1.4 1.6-2.2 0.2-14 0.2-27.9 0.3-41.9 0-1.7-0.8-2.6-2.2-3.4-6-3.3-12.1-6.6-18.1-9.9-2.5-1.4-4.9-3.1-7.4-4.7-0.1-0.1-0.1-0.4-0.2-0.7zM193.9 847.2c-1.3 0.5-2.1 1-3 1-19.4-0.2-38.8-0.4-58.2-0.5-5.6 0-11.3 0.4-16.9 0.5-0.9 0-1.7-0.5-3.3-1 4.3-3.4 8.1-6.1 11.6-9 10.9-9 9.4-7.3 10-18.8 0.6-10.3 0.8-20.7 0.8-31 0.1-32.2 0.1-64.4 0-96.5-0.1-10.9-0.9-21.9-1.3-32.8-0.1-2.5-1.1-4.6-3.1-6.2-3.9-3-7.6-6-11.4-9-2-1.6-3.9-3.3-5.8-4.9 0.4-1.9 1.7-1.6 3-1.6 16.1 0.2 32.3 0.6 48.4 0.7 8.6 0 17.1-0.5 25.7-0.6 0.9 0 1.8 0.4 2.7 0.6v0.7l-3.3 2.4c-3.8 2.7-7.8 5.3-11.5 8.2-3.7 2.9-5.7 6.7-5.8 11.6-0.3 12.3-1.1 24.7-1.2 37-0.1 35.6 0.1 71.2 0.3 106.7 0.1 7.7 0.9 15.4 1.2 23.1 0.2 3.9 2 6.7 5.1 8.8 4.3 2.9 8.6 5.7 12.9 8.6 1 0.4 1.8 1 3.1 2zM627.2 633.6c-4.7 19.1-9.2 37.7-13.8 56.8h25.3c-9.5 22.9-18.8 45.3-28.1 67.6h32c-0.1 0.4-0.2 0.8-0.4 1.1-7.6 16-15.1 32.1-22.9 48-5.7 11.5-12.4 22.3-21.7 31.5-7.7 7.7-16.9 11.6-28.1 12 7.9-26.3 15.8-52.6 23.7-79.2h-23c8.9-21.3 17.6-42.3 26.4-63.5h-34.8c0.1-0.5 0.1-0.7 0.2-0.9 8.5-15 17-30.1 25.7-45 4.2-7.3 9.5-13.8 15.5-19.8 5-5 11.2-6.8 17.9-8 1.9-0.4 3.8-0.4 6.1-0.6zM882.8 777.2c-2.4 6.5-5.1 12.5-9.2 17.8-5.6 7.1-13.1 10.6-22.1 10.6h-63.6v42.5h-42.4v-42.4h-95.6v-28.5h232.9zM464 740.6v-12.3h38.8v12.3h59.8c-2.1 11.5-14.7 24-25.5 25.3-2.6 0.3-5.2 0.2-7.9 0.2h-26.3v81.3H464v-81.3h-60.8v-25.4c20.2-0.1 40.4-0.1 60.8-0.1zM656.1 746.1h220.2c-0.2 0.7-0.3 1.3-0.5 1.8-4.8 11.6-12.5 19.7-25.3 22.1-1 0.2-2 0.2-3 0.2H656.1v-24.1zM563 636.8c-4.4 6.8-8.7 13.2-14.7 18.4-7.3 6.5-16.1 8.8-25.7 8.8-39.1 0-78.2 0-117.3-0.1-0.5 0-1.1-0.1-1.8-0.1v-27.1c53.1 0.1 106.1 0.1 159.5 0.1zM411.6 729.5c-1.6-19.3-3.2-38.4-4.8-57.7h37.4c1.6 19.2 3.2 38.4 4.8 57.7h-37.4zM554.7 729.5h-37.2c1.6-19.3 3.2-38.5 4.7-57.8h37.2c-1.5 19.3-3.1 38.4-4.7 57.8z" p-id="2201"></path><path d="M403.7 847.2c1.1-6.8 2.2-13.4 3.4-20 2.7-15.9 5.5-31.9 8.2-47.8 0.2-1.3 0.4-2.1 2.1-2.1 12.1 0.1 24.2 0 36.4 0 0.3 0 0.6 0.1 1.5 0.2-0.5 3.7-0.8 7.5-1.6 11.1-2.7 11.9-9 22-16.9 31.2-9.1 10.6-19.8 19.2-31.5 26.6l-1.6 0.8zM511.5 777.4h39.1c4 23.2 7.9 46.2 11.9 69.8-1-0.4-1.7-0.6-2.4-0.9-11.7-5-20.7-13.2-28.1-23.5-9.8-13.6-15.8-28.9-20.5-44.8-0.1 0 0-0.3 0-0.6zM501.9 671.8v46h-38.2v-46h38.2zM825.2 812h2.4c12.5 0 25 0.1 37.5-0.1 1.9 0 2.7 0.6 3.2 2.3 2.5 7.3 5 14.6 7.6 21.8 0.4 1.2 1.2 2.3 2.1 3.2 3.2 3.1 6.4 6.1 10 9.5-1 0.1-1.6 0.2-2.2 0.2h-45.9c-1.2 0-2.1 0-2.7-1.5-3.9-11.4-8-22.8-12-34.2 0.2-0.3 0.1-0.6 0-1.2zM707.3 812.1c-2.6 6.2-5.1 12.1-7.6 18.1-2.4 5.7-4.8 11.3-7.2 17-0.4 1.1-0.9 1.8-2.3 1.8-12.4-0.1-24.9 0-37.3 0-0.2 0-0.5-0.1-0.9-0.2 0.2-0.7 0.3-1.3 0.6-2 3.9-11 7.8-22.1 11.6-33.1 0.4-1.1 0.7-1.8 2.2-1.8 13.3 0.1 26.6 0 39.8 0 0.3 0.1 0.5 0.1 1.1 0.2zM517.2 900.9v17.7c-0.5-1-0.9-1.5-1-2-0.9-3.4-3.2-4.7-6.6-4.7h-12.1V936c6.9-0.3 13.6-0.5 20.3-1.1 1.1-0.1 2.4-1.4 3.1-2.4 1.3-1.9 2.2-4 3.7-6-0.1 1.2-0.3 2.4-0.4 3.6-0.2 2.8-0.5 5.5-0.4 8.3 0.1 2.2-0.7 2.5-2.7 2.5-10.3-0.2-20.7-0.2-31.1-0.3h-9c0.1-0.3 0.1-0.6 0.2-0.7 3.4-1.9 3.6-5.1 3.5-8.4-0.1-14-0.1-27.9 0-41.9 0-3.5-1.3-5.7-4.3-7.1-0.9-0.4-1.8-1.1-3.2-2h45.1c-0.4 4-0.8 7.9-1.2 12.4-0.4-0.6-0.5-0.8-0.6-1-1.7-5.1-5.5-6.6-10.4-6.4-4.1 0.2-8.1 0-12.6 0v21.4c4.6 0 9.3 0.1 13.9-0.1 0.8 0 1.7-0.9 2.3-1.6 1.4-1.2 2.2-2.5 3.5-4.3zM234.8 885.9v20.9c4.7 0 9.6 0.1 14.5-0.1 0.8 0 1.7-1.4 2.4-2.3 0.8-1 1.6-2 2.6-3.4v17c-0.2-0.1-0.4-0.1-0.4-0.2-1.1-4.7-4.3-6.2-8.8-6-3.5 0.1-6.9 0-10.4 0v23.9h3.8c5-0.2 10-0.4 15-0.5 2.5-0.1 4-1.3 5.1-3.4 0.9-1.8 1.9-3.6 3.1-5.3-0.3 4.7-0.6 9.4-1 14.3H218c0.4-0.6 0.6-1.1 1-1.3 2.4-1.4 2.9-3.6 2.9-6.1 0-14.7-0.1-29.3 0-44 0-3.2-1.1-5.3-3.9-6.6-1.1-0.5-2-1.3-2.8-2.3h44.4c-0.4 4-0.8 7.9-1.2 12.1-1-1.6-1.7-2.9-2.5-4.2-0.9-1.5-2.2-2.5-4.1-2.5h-17zM742.4 940.8h-16.2c4-1.9 5.1-5.7 6.4-9.2 5.9-16.3 11.7-32.6 17.5-49 0.5-1.4 0.9-2.5 2.8-2.3 1.8 0.2 3.4-0.4 4.3 2.2 6.2 16.7 12.6 33.3 18.8 49.9 1.2 3.1 2.1 6.4 5.4 8.3h-21c0-0.1 0-0.3 0.1-0.4 4.5-2.7 4.6-2.9 3.1-7.9-0.9-2.8-1.9-5.5-2.8-8.3-0.4-1.2-1-1.5-2.2-1.5-5.4 0.1-10.8 0.1-16.2 0-1.3 0-1.9 0.5-2.3 1.7-0.8 2.8-1.8 5.6-2.5 8.4-1 3.7-0.7 4.4 2.5 6.6 0.6 0.3 1.2 0.7 2.3 1.5z m7.8-45.5c-2.7 7.8-5.2 14.9-7.7 22.2h15.8c-2.7-7.4-5.3-14.5-8.1-22.2zM429.6 901.5v16.3c-4-8.7-11.7-5.7-18.2-6.2 0 7.8-0.1 15.3 0.1 22.7 0 0.9 1 2.1 1.8 2.7 1.5 1.2 3.3 2.2 5.5 3.6h-26.9c1.4-1.2 2.4-2.2 3.6-3 1.9-1.3 2.9-3 2.9-5.4 0-14.6-0.1-29.1 0-43.7 0-2.7-1.2-4.5-3.4-5.8-1-0.6-1.8-1.3-3.2-2.3h42.3c-0.4 4.3-0.8 8.5-1.2 12.7-0.1 0-0.3 0-0.4 0.1-0.1-0.6-0.3-1.2-0.4-1.8-0.5-3.1-1.7-4.8-4.8-5.1-5.2-0.6-10.4-0.8-16-1.1v21.7c4.5 0 9.1 0.2 13.7-0.1 1.1-0.1 2.2-1.7 3.1-2.8 0.6-0.7 0.8-1.6 1.2-2.4 0-0.1 0.2-0.1 0.3-0.1zM305.6 880.5H348c-0.4 4.3-0.8 8.5-1.2 12.8-0.3-0.2-0.5-0.2-0.5-0.3-0.8-6.8-3.3-6.6-8-7.3-2.4-0.4-4.9-0.3-7.4-0.4-1.8 0-3.5 0.1-5.6 0.3v21.2c4.4 0 9.2 0.4 13.7-0.2 1.7-0.2 3-2.9 4.4-4.3v15.3c-0.1 0-0.3 0-0.4-0.1-1.9-4.3-5.3-5.9-9.8-5.9h-7.8c0 7.9-0.1 15.4 0.1 22.9 0 1 1.2 2.1 2.1 2.8 1.5 1.2 3.2 2.1 5.3 3.4h-27c1.7-1.4 2.8-2.6 4.1-3.5 1.6-1.2 2.4-2.7 2.4-4.7v-44c0-2.4-0.9-4.3-3.1-5.5-1.2-0.6-2.2-1.4-3.7-2.5zM610.4 896.9c-0.5-1.2-0.7-1.7-0.9-2.3-2.1-5.5-6-8.9-12-9.4-6.4-0.6-11.5 1.7-15 7.2-2.3 3.7-3.3 7.8-3.7 12-0.5 5.5-0.1 10.9 1.5 16.2 3.8 11.9 12.4 16.7 24.6 13.8 1.9-0.5 3.8-1.1 5.8-1.7-1.9 3.6-8 7.4-12.9 8-14.7 1.7-25.4-6.5-28.5-21.8-1.5-7.5-1.5-14.9 1.4-22.1 4-10.1 11.5-15.6 22.3-16.4 6-0.5 11.7 0.6 17.2 2.9 1.4 0.6 1.8 1.3 1.6 2.8-0.6 3.4-0.9 6.7-1.4 10.8zM656.2 940.6c1.5-1.2 2.6-2.3 3.8-3.2 1.8-1.3 2.4-3 2.4-5.2V889c0-2.3-0.8-4-2.6-5.3-1.2-0.9-2.3-1.9-3.7-3.1h25.2c-0.6 0.5-1 0.9-1.5 1.2-3.1 1.7-4.7 4.1-4.7 7.8 0.1 14.3 0.1 28.7 0.1 43 0 3 1.1 5.2 3.9 6.5 0.7 0.3 1.3 0.8 2.3 1.6-8.5-0.1-16.6-0.1-25.2-0.1zM111.2 912.4c17.3-2 34.6-4.1 52-6.1V919c-17.5-2.1-34.8-4.1-52.1-6.1 0.1-0.2 0.1-0.4 0.1-0.5zM833.7 906.3c17.4 2.1 34.7 4.1 52 6.1v0.4c-17.3 2-34.5 4.1-52 6.1v-12.6z" p-id="2202"></path></svg>