<?xml version="1.0" standalone="no"?><!DOCTYPE svg PUBLIC "-//W3C//DTD SVG 1.1//EN" "http://www.w3.org/Graphics/SVG/1.1/DTD/svg11.dtd"><svg t="1574936521162" class="icon" viewBox="0 0 1024 1024" version="1.1" xmlns="http://www.w3.org/2000/svg" p-id="1098" xmlns:xlink="http://www.w3.org/1999/xlink" width="200" height="200"><defs><style type="text/css"></style></defs><path d="M504 567c-123.3 0-223.2-100.2-223.2-223.8C281 219.9 381 119.9 504.2 120c123.3 0.1 223.1 100.4 223 224C727 467 627 567 504 567z m164.1-243.7c0.1-73.7-59.4-133.7-132.9-133.8-73.7-0.1-133.5 59.4-133.7 133-0.2 74 59.4 133.9 133.1 134 73.6 0 133.4-59.6 133.5-133.2z" p-id="1099"></path><path d="M614.8 385.3c-11.5-2-22.3-3.8-33.2-5.7-8.9-1.5-17.9-2.9-26.8-4.7-2.7-0.5-4.1 0.2-5.7 2.1-12.6 14.7-25.3 29.2-38 43.8-0.9 1.1-1.9 2.1-3.5 3.8-0.8-7.7-1.5-14.5-2.2-21.4-1.3-13.6-2.6-27.2-4.1-40.8-0.2-1.3-1.9-3-3.2-3.6-17.7-8.4-35.4-16.6-53.2-24.8-1.3-0.6-2.5-1.3-4.2-2.1 1.4-0.8 2.3-1.4 3.3-1.9 15.1-7.7 30.2-15.4 45.3-23 0.8-0.4 1.6-1.1 2.5-1.2 6.8-0.4 7.4-5.1 8.1-10.5 2.2-18.5 4.8-37 7.3-55.5 0.1-1 0.4-2 0.8-3.7 1.3 1.4 2.4 2.5 3.4 3.7 12.7 14.5 25.5 29.1 38.2 43.7 1.6 1.8 3 2.3 5.4 1.9 18.5-3.6 37.1-7.2 55.7-10.7 1.1-0.2 2.3-0.4 4.1-0.6-0.9 1.7-1.4 3-2.1 4.2-8.6 15.2-17.2 30.4-26 45.5-1.4 2.4-1.3 4.1-0.1 6.4 8.7 16.8 17.3 33.7 25.9 50.5 0.8 1.2 1.4 2.6 2.3 4.6z" p-id="1100"></path><path d="M468.1 668c7.9 0 14.9-0.3 21.8 0.2 1.7 0.1 4.1 2.7 4.8 4.6 8.5 24 16.8 48 25.1 72 0.6 1.7 1.2 3.3 2.3 6.2 1.2-2.7 2-4.4 2.6-6.1 8.4-23.6 17-47.2 25.2-70.8 1.6-4.6 3.7-6.6 8.9-6.5 16.4 0.3 16.3 0.1 21.1 15.9 6.7 21.8 13.5 43.6 20.3 65.3 0.3 1.1 0.9 2.2 1.7 4.3 6.5-17.2 12.5-33.5 18.6-49.8 4-10.8 8.2-21.6 12-32.5 1.3-3.6 3.1-4.9 6.9-4.6 5.8 0.4 11.6 0.1 18.4 0.1-15.9 44.3-31.5 87.8-47.1 131.2-0.8 0.2-1.4 0.4-2 0.4-15.5 0.5-15.5 0.5-19.8-14.6-6.3-22.5-12.5-45.1-19-67.6-2.1-7.4-4.8-14.6-7.6-23.5-7.3 22.9-14.1 44.4-21 65.9-3.6 11.4-7.3 22.7-10.7 34.1-0.9 3.1-2.3 4.4-5.8 4.4-13.9 0-13.9 0.2-18.3-12.9-12.2-36.4-24.4-72.8-36.6-109.1-0.5-1.9-1-3.7-1.8-6.6zM837.5 799.4c-8.8 0-17.1 0.2-25.5-0.2-1.8-0.1-4-2.3-5.2-4-19.6-27.1-39.1-54.3-58.6-81.5-1.4-1.9-2.8-3.8-5.1-6.9v90.8H719V667.9c8.4 0 16.7-0.2 24.9 0.2 1.6 0.1 3.3 2.6 4.5 4.3 20.2 27.4 40.3 54.9 60.5 82.4 1.1 1.4 2.2 2.8 3.9 5.2v-93.4h24.6c0.1 44.1 0.1 88 0.1 132.8zM400.1 677c-5.2 5.9-9.8 11.3-14.8 17-1.1-0.7-2-1.3-2.9-1.9-24.4-18.7-55.2-8.2-62.8 21.5-3.5 13.7-2.8 27.3 2.8 40.4 7.7 18.1 32.2 27.2 50.2 19.1 3.5-1.6 5.1-3.6 4.9-7.6-0.3-11.5-0.1-23.1-0.1-35.1H402c0.1 1.8 0.3 3.5 0.3 5.2 0 11.9-0.9 24 0.3 35.8 1.1 10.7-4.1 15.8-12.6 20.1-28.9 14.6-67 8.5-86.1-14.6-13.9-16.7-17.2-36.6-14.6-57.4 4.7-36.5 27.5-57.7 64.5-59.8 17.4-1 32.9 4.6 46.3 17.3zM167 779.7c5.9-6.7 11.1-12.7 16-18.3 6.9 3.8 13.3 7.9 20.1 10.9 8.4 3.7 17.4 4.3 26.4 2 6.5-1.7 11-5.5 12-12.5 0.8-5.8-1.9-10.7-9-14-10.1-4.7-20.5-8.7-30.8-13.1-3.6-1.6-7.3-3.2-10.7-5.3-24.8-15.9-23.6-48.8 2.3-62.9 22.4-12.2 53.7-7.8 72.8 10.6-4.6 5.5-9.3 11.1-14.2 16.9-8.8-6.4-18.1-11.4-29.1-10.9-4.8 0.2-10.1 1-14.3 3.2-8.4 4.3-8.8 14.6-1.2 20.2 3 2.2 6.5 3.8 10 5.3 9.2 3.8 18.5 7.3 27.7 11.2 15.6 6.6 25.6 17.4 25.7 35.2 0.1 15.9-9.5 30-26.4 36.3-28.2 10.3-53.5 3.9-77.3-14.8zM698 795.4h-24.4V669.2H698v126.2zM372.8 912.4c-1.7-2.1-3-3.7-4.2-5.1 3.6-6.7 7-13.1 10.4-19.5-0.4-0.5-0.8-1-1.3-1.5-9.4 3.8-18.8 7.5-28.8 11.5-0.9-2.3-1.6-4.5-2.4-6.7 0.5-0.5 0.8-0.8 1.1-0.9 11.6-4.6 11.6-4.6 11.6-16.9v-17.9c-3.7-0.2-7.2-0.3-11-0.5v-6.3c3.6-0.2 7-0.3 10.9-0.5v-21.7h7.2V848c3.7 0.2 6.9 0.4 10.6 0.6v6.2c-3.4 0.2-6.7 0.4-10.3 0.6v27.3c3.4-1.2 6.6-2.4 10.1-3.7 0.3 1.7 0.6 3.2 0.9 4.6 0.5 0 1.1 0 1.6 0.1v-46.1h23.7c0.2-3.9 0.4-7.2 0.6-10.7h6.2c0.2 3.5 0.4 6.6 0.6 10.6h21.4c-0.4 6.7-0.8 12.6-1.2 18.9-2.7-0.4-4.8-0.7-7.3-1 0.3-3.5 0.5-6.8 0.8-10.5h-13.6v15.8h16.8c0.2 13.9-7.6 23.5-15.1 34.4 7.2 3.9 14.1 7.7 21.6 11.8-1.3 1.8-2.9 3.9-5.1 6.8-7.5-4.5-14.8-8.8-21.9-13-7.1 4.2-14.4 8.5-22.2 13.1-1.8-2.7-3.2-4.7-4.4-6.6 7.4-4.1 14.3-7.9 20.8-11.5-4.6-9.9-8.7-18.9-13.7-29.8-0.4 17.6-1.5 33.6-14.4 46.5z m33.7-23.5c0.7 0 1.5 0 2.2-0.1 3.9-6.8 7.7-13.6 12.1-21.3H396c3.7 7.7 7.1 14.6 10.5 21.4z m-19.2-28.2c4.7 0 8.8 0.2 12.9-0.1 1.1-0.1 3-1.5 3.1-2.5 0.3-4.4 0.1-8.9 0.1-13.2h-16.1v15.8zM721.5 611.9c-5.4 4.4-10.7 8.9-16.2 13.1-2.5 1.9-3.5 3.7-2.6 7 1.7 6.9 2.8 13.9 4.4 22.2-7.6-5.5-14.2-10.2-21-15.1-7.6 4.8-15.1 9.6-23.7 15.2 2.4-8.6 4.3-15.8 6.6-22.9 1.2-3.5 0.4-5.4-2.6-7.4-5.6-3.7-10.9-7.8-16.1-12.9h13.4c10.5 0 10.5 0 14.7-10 2-4.8 4.1-9.5 6.1-14.2 0.1-0.3 0.6-0.4 1.3-0.8 3.3 6.6 6.8 13 9.7 19.7 1.6 3.8 3.8 4.9 7.7 4.7 5.9-0.3 11.8-0.1 17.7-0.1 0.3 0.4 0.4 0.9 0.6 1.5zM789.3 860.1h22.1v-13h-21.8c-0.2-2.4-0.3-4.3-0.5-6.9h22.8v-14h7.3V840h23.7v6.8h-23.2V860h18.7c-1.5 13.9-9.1 23.9-17.9 34.6 8.1 3.9 15.7 7.6 23.8 11.6-1.5 1.8-3.2 3.9-5.6 6.9-8-4.5-16.1-9-24-13.5-8.6 4.6-17.5 9.3-26.6 14.2-1.9-2.6-3.3-4.5-4.7-6.5 8.8-4.3 17.3-8.5 25-12.3-4.5-9.4-8.3-18-12.7-26.3-0.8-1.6-3.5-2.3-6.2-4 0.2-0.4 0-2.1-0.2-4.6z m41.7 6.4h-29.4c4.6 8 8.6 15.1 12.6 22.2 0.8 0 1.6 0.1 2.4 0.1 4.6-7.1 9.2-14.2 14.4-22.3zM165.4 908.6v-6.2h39.2v-8.3h-28.1v-6.5h28.1v-8.1c-7.7 0-15-0.2-22.3 0.1-1.6 0.1-3.4 1.7-4.6 3-3 3.4-5.8 7-9.3 11.3-1.9-2.2-3.4-3.9-4.7-5.5 5.7-7.9 11.2-15.6 17-23.7 1.7 0.7 3.7 1.5 6.2 2.5-0.8 1.8-1.4 3.3-2.2 5.4h20c0.2-2.4 0.4-4.7 0.6-7.2h6.5c0.3 2.2 0.6 4.5 1 7.5h32.3c0.1 2.4 0.2 4 0.3 6.5h-32.7v7.8h29.9c0.2 2.4 0.3 4 0.5 6.5h-30.4v8.4H249v6.5h-83.6z" p-id="1101"></path><path d="M174.1 829.6h65.5v37.5c-2.5-0.9-4.7-1.8-6.9-2.4-1.8-0.5-3.8-0.9-5.7-0.9-17.5-0.1-35 0-53 0 0.1-11.5 0.1-22.7 0.1-34.2z m7 27.6c15.9 0 31.2-0.2 46.4 0.1 5.8 0.1 6.2-2.5 4.7-7.2H181c0.1 2.3 0.1 4.2 0.1 7.1z m0.2-20.8v6.8h51.3v-6.8h-51.3zM562.1 832.4c-0.2 19.9-5 38-15.9 55.6 7 5.4 14 10.7 21.6 16.6-1.5 1.7-3.3 3.8-5.8 6.6-6.9-5.9-13.6-11.5-20.2-17.1-8.5 6.2-17.4 12.7-26.6 19.3-2.1-2.8-3.5-4.7-4.8-6.4 9-6.4 17.8-12.7 27.1-19.3-12.6-17-12.2-36.7-17.2-55.4 14.3 0.1 27.8 0.1 41.8 0.1z m-32.2 7.3c1.4 14.4 3.4 28 11.7 41 8-13.1 11.2-26.5 12.7-41h-24.4zM270.1 902.3c4 0 6-0.1 8 0 7.4 0.5 9.5-0.7 9.7-7.8 0.4-14.9 0.1-29.8 0.1-45.1 0.2 0.1-0.3-0.3-0.9-0.4-11.2-0.9-11.2-0.9-11.3 10.4-0.1 16.1-2.4 31.7-10.9 45.9-0.9 1.5-1.9 3-3 4.5-0.7 1-1.5 1.8-2.7 3.2-1.8-2-3.5-3.8-5.4-5.9 13.9-16.9 15.2-36.8 14.7-57.7-3.9-0.3-7.6-0.5-11.5-0.8v-6.4c3.9-0.2 7.6-0.5 11.9-0.8v-14.8c2.6-0.1 4.5-0.2 7.1-0.3v15.1h19.7c0.4 1.7 0.9 2.8 0.9 3.9-0.3 16.9-0.5 33.9-1.2 50.8-0.6 15.6-8.8 15-19.4 13.7-1.9-0.3-3.4-4.2-5.8-7.5zM338.2 837.9v71.9h-6.5c-0.3-2.7-0.5-5.3-0.8-8.2h-18.3c-0.3 2.6-0.6 5.3-0.9 8.3h-6.8V838c10.9-0.1 21.8-0.1 33.3-0.1z m-25.8 56.4h18.3v-49.5h-18.3v49.5zM680 851.9v-12c-4.1 0.2-8 0.4-12.2 0.6-0.6-2-1.1-3.8-1.9-6.4 11.4-1.3 22.6-2.6 34.1-4 0.7 2.1 1.4 4.1 2.2 6.6-5 0.7-9.5 1.4-14.4 2.1v12.8H701v7h-13.3v7.1c7.8-1.6 9.5 6.5 15.6 9.1-2.1 2.3-3.7 3.9-6 6.4-3.1-3.5-5.9-6.7-9.7-11v42c-2.5 0.2-4.4 0.3-7.1 0.5v-35.1c-0.3-0.1-0.7-0.1-1-0.2-3.4 5.9-6.8 11.8-10.5 18.4-3.7-4.6-4.4-7.7-1.2-12.5 4.8-7.4 8.3-15.6 13-24.7h-14.5v-6.7H680zM418.2 753.3v-23h52.2v23h-52.2z" p-id="1102"></path><path d="M482.6 849.5c1.9-1.2 3.5-2.3 5.7-3.8 5.1 7.6 10.2 15.2 15.2 22.7 0.5 0 1.1 0.1 1.6 0.1 2.1-9.3 4.1-18.6 6.4-28.7H482v-7h37c-0.9 6.9-1.7 13.5-2.8 20-0.6 3.7-1 7.8-2.7 11-5.5 10.1-3.2 18.8 3.9 26.9 4 4.6 2.7 7.7-3.1 9.8-1.5-2.4-3-4.9-4.5-7.4-1.4-2.4-2.9-4.7-4.3-7-6.4 8.2-12.6 16-19.1 24.2-2.6-2.2-4.3-3.8-5.6-4.9 6.1-8.1 11.9-15.9 17.8-23.6 2-2.6 1.7-4.8-0.1-7.5-5.4-8-10.5-16.3-15.9-24.8zM769.6 843.5v-16.6h7.1v16.3h10v6.5c-3.2 0.3-6.1 0.5-9.4 0.8v15.1c3.2-0.7 6-1.4 9.2-2.1 0.1 2.4 0.3 4.3 0.4 6-0.5 0.5-0.7 1-1 1.1-9 3.3-9 3.3-9 12.6v16.1c0 9.6-2.3 12-12 12.1h-5.2c-0.5-2.7-1-5.1-1.6-7.5 11.5-1 11.5-1 11.5-12.7v-14.9c-4.2 1.2-7.5 2.2-11.2 3.3-2.2-4.6-2.5-8.1 3.7-8.9 6.1-0.7 8.5-3.9 7.5-10.1-0.5-3.1-0.1-6.3-0.1-10.2-3.9-0.2-7.3-0.5-11.2-0.7v-6.2h11.3zM730.7 826.4h7v52.9c4.9-0.3 9.1-0.5 13.9-0.7 0.3 2 0.6 3.9 0.9 6.2-4.8 0.6-9.2 1.2-14.4 1.8v25.7c-2.6 0.1-4.5 0.2-7.1 0.3v-25.4c-11.5 1-22.3 1.9-33.6 2.8-0.4-2.1-0.7-4.1-1.1-6.6 11.7-1.1 22.8-2.1 34.4-3.2v-53.8zM626.8 904c6.2-10.8 3.4-22.2 4.6-33.3h19.7v34.5c0.7 0.1 1.5 0.1 2.2 0.2 0.8-3.3 1.5-6.5 2.3-9.8 6.4 0 4.4 4.5 4.2 7.9-0.3 5.4-3 7.7-8.6 7.2-4.5-0.4-5.8-2.7-5.7-6.6 0.1-3.4 0-6.7 0-10.6-1.6 0.4-2.9 0.7-4.4 1.1-1.1-1.9-2.3-3.9-3.5-5.8-2.5 8.1-5.1 16.2-7.3 23.4-5.2-4.8-9.7-8.9-13.9-12.8-4.5 5.3-8.1 9.4-12.1 14.1-1.6-2-2.6-3.3-4.3-5.4 12-6.6 12.9-17.8 12-29.7 0.6-0.3 1.2-0.5 1.8-0.8 1.1 1.3 2.4 2.5 3.2 3.9 0.4 0.7 0.3 2 0.1 2.9-2.4 9.1 3.9 13.9 9.7 19.6z m9.7-23.5c3.5 3 6 5.1 8.5 7.3v-12.3h-8.5v5zM658.4 833.9c1.8 5.1-0.5 5.9-4.5 5.8-18.6-0.1-37.1-0.1-55.7-0.1h-6.3c-1.6 5.5 1.9 4.8 4.6 4.8H642c1.4 0 2.9-0.2 4.2 0.1 0.9 0.2 1.6 1.3 2.4 1.9-0.8 0.9-1.4 2.3-2.4 2.6-1.7 0.4-3.6 0.2-5.4 0.2h-55.9c-0.2-3.2-0.4-6-0.6-9.3-3.3-0.1-6.6-0.3-10.3-0.5-0.1-1.9-0.2-3.5-0.3-5.6h38.7c-0.9-2.2-1.6-3.7-2.3-5.5 1.8-1 3.5-1.9 5.9-3.2 2.3 11 10.7 8.7 18.1 8.8h24.3zM647.5 853.6v13.6h-62.4v-13.6h62.4z m-55.9 4.5l-0.6 1.2c1 0.7 1.9 2.1 2.9 2.1 15 0.1 29.9 0.1 44.9 0 0.9 0 1.7-1.6 3.3-3.3h-50.5zM583.6 907.1c9.9-0.9 9.9-0.9 9.1-9.2h-8.5c-2 4.8-4.1 9.7-6.7 16-2-2.5-3.2-3.9-4.6-5.6 7.7-11.3 6-24.3 6.5-37.4h19.3c0 11.6 0.2 22.9-0.1 34.3-0.1 5.5-3.8 7.3-9 7.2-3.5-0.3-6.8-0.1-6-5.3z m9.6-25.6c-0.2-2.4-0.3-4.3-0.4-6H585v6h8.2z m-8.5 11.1h8.5c-0.1-2.3-0.2-4.2-0.3-5.9h-8.2v5.9z" p-id="1103"></path><path d="M603.1 871h23.1c0 7.7 0.1 15.2-0.1 22.7 0 1-1.7 1.9-2.7 2.9-0.8-1.1-2.2-2.2-2.3-3.3-0.2-5.7-0.1-11.4-0.1-17.4h-12.8c0 5.5 0.2 11-0.1 16.4-0.1 1.5-1.6 2.9-2.5 4.3-0.9-1.4-2.4-2.9-2.5-4.3-0.1-7 0-13.9 0-21.3zM444.8 876.7v-6.3h25.7c0.1 2 0.2 3.9 0.3 6.3h-26zM706.8 840.1c1.4-1.6 2.7-3 4.3-4.7 5.4 4.4 10.6 8.7 16.2 13.2-1.8 2-3.3 3.7-4.9 5.5-5.4-4.9-10.4-9.3-15.6-14zM706.5 856.6c4.8 4 9.8 8.1 14.9 12.3-1.7 2-3.1 3.7-4.8 5.7-5-4.6-9.9-9-15.6-14.1 2-1.4 3.6-2.5 5.5-3.9z" p-id="1104"></path></svg>