<?xml version="1.0" encoding="utf-8"?>
<!-- Generator: Adobe Illustrator 23.1.1, SVG Export Plug-In . SVG Version: 6.00 Build 0)  -->
<svg version="1.1" id="圖層_1" xmlns="http://www.w3.org/2000/svg" xmlns:xlink="http://www.w3.org/1999/xlink" x="0px" y="0px"
	 viewBox="0 0 1024 1024" style="enable-background:new 0 0 1024 1024;" xml:space="preserve">
<g>
	<path d="M343.8,410.5c6.1-9.6,11.6-18.3,17-27c9.6-15.3,19.2-30.6,28.7-45.9c7.4-11.9,14.6-23.8,22-35.7c10-16,20-32,30-48
		c8.6-13.7,17-27.5,25.7-41.2c3.5-5.5,15-8,19.8-4.5c4.5,3.3,6.1,13.6,2.4,19.6c-7.4,12.3-15.1,24.4-22.6,36.5
		c-7.9,12.7-15.9,25.4-23.8,38.2c-7.2,11.6-14.3,23.2-21.5,34.8c-9.5,15.2-19,30.3-28.5,45.4c-9.7,15.4-19.3,30.9-28.9,46.3
		c-2.6,4.2-4.9,8.4-7.5,12.6c-6.6,10.6-18.3,11-25,0.5c-16.5-26.1-32.7-52.3-49-78.5c-14.6-23.5-29.3-46.9-43.9-70.4
		c-11-17.8-22-35.6-33-53.3c-1.4-2.3-3.1-4.4-4.6-6.4c-18.4,6.2-25.1,26.8-14.5,42.9c11,16.8,20.8,34.3,31.2,51.4
		c12.2,20,24.5,39.9,36.7,60c12.3,20.3,24.5,40.7,36.9,61c10.2,16.7,20.5,33.3,30.7,50c5.2,8.5,10.2,17.1,15.3,25.6
		c1.2,2,2.6,3.7,4.4,6.3c7.3-11.6,14.1-22.4,20.9-33.3c12.7-20.3,25.3-40.6,37.9-61c11.4-18.3,22.7-36.7,34.1-55
		c10.8-17.3,21.7-34.5,32.5-51.8c7.7-12.3,15.3-24.6,22.9-37c10.7-17.2,21.3-34.4,32-51.5c5.9-9.4,11.7-18.9,17.9-28.2
		c4-5.9,10.4-8.8,17.2-8.9c51-0.3,101.9-0.3,152.9,0.1c8.2,0.1,16.4,3,24.6,4.4c10.6,1.8,20.2,6.2,29.4,11.4
		c20.3,11.5,35.3,28.1,45,49.4c7.1,15.6,10.6,32.1,9.9,49c-0.9,24.4-8.7,46.7-24,66.2c-11.7,14.9-26.8,24.9-43.6,32.8
		c-4.6,2.2-9.7,3.5-15.1,5.4c1,1.8,1.6,3.3,2.6,4.6c12,14.2,24.1,28.4,36.1,42.6c14.1,16.7,28.2,33.3,42.1,50.1
		c6.1,7.4,12.5,14.7,17.8,22.7c5.2,8,2,16.8-6.8,20.3c-26.3,10.6-52.4,10.6-76.8-4.5c-8.5-5.3-15.2-13.7-22.3-21.1
		c-6.5-6.9-12.5-14.2-18.6-21.5c-15.9-18.9-31.7-37.9-47.6-56.7c-12.7-15-25.5-29.9-38.2-44.8c-11.3-13.3-22.7-26.5-33.7-39.9
		c-7.2-8.8-5.2-19.3,4-23.3c1.8-0.8,3.9-0.9,5.9-0.9c30.9-0.1,61.8-0.3,92.8,0.1c15.2,0.2,31.2-13.2,33.9-25.6
		c3.6-16.4-4-34.2-19.4-40.6c-4.4-1.8-9.4-2.9-14.2-3c-28.5-0.3-57.1-0.1-85.6-0.2c-3.4,0-6.8-0.4-10.1-1
		c-7.5-1.5-11.4-7.2-10.5-14.8c0.7-6.2,6-10.3,13.4-10.3c31.9,0,63.9-0.4,95.8,0.1c23.5,0.4,41,11.7,52.2,32.5
		c6.4,11.9,8,25.1,5.8,37.9c-3.8,23.1-17.7,42.7-45,49.5c-4.4,1.1-9,1.6-13.5,1.7c-20.2,0.2-40.4,0.1-60.7,0c-1.8,0-3.7,0-6.9,0
		c4.2,5.2,7.5,9.6,11,13.7c17.5,20.9,35,41.7,52.6,62.5c12.6,14.9,25.2,29.6,37.9,44.4c8.2,9.7,16.5,19.3,24.8,28.9
		c9.1,10.6,20.5,16.8,34.4,17.8c3.1,0.2,6.2-0.4,10.4-0.8c-4.1-5.1-7.2-9.2-10.5-13.2c-17.1-20.5-34.3-41-51.5-61.4
		c-12.1-14.4-24.3-28.6-36.4-43.1c-3.3-4-6.5-8.1-6.3-13.9c0.2-6.3,3.9-10.6,10.3-11.5c8.3-1.3,16.8-2.1,25-4.1
		c17.6-4.4,31.6-14.5,42.9-28.7c7.2-9.1,13.2-18.7,16.3-30c2.8-10,4.1-20.1,2.2-30.5c-2.5-13.9-6.8-27.1-14.9-38.8
		c-10-14.4-23.2-24.8-39.9-30.6c-15.2-5.3-31.1-6-47-6c-39.9,0-79.9,0.2-119.8-0.2c-9.6-0.1-13.7,5.5-17.9,12.2
		c-15,24.2-30.1,48.3-45.1,72.6c-11.1,17.9-22,35.9-33.1,53.8c-12.6,20.3-25.4,40.6-38.1,60.9c-11.1,17.7-22.1,35.5-33.1,53.2
		c-11.9,19-23.8,38-35.7,57.1c-4.1,6.6-7.9,13.4-12.5,19.6c-2.6,3.5-6.2,7.2-10.1,8.5c-7.8,2.6-12.8-0.6-17.5-8.4
		c-17-28.2-34.1-56.2-51.1-84.4c-13.7-22.7-27.3-45.4-41-68c-14-23.1-28.3-46-42.3-69c-11.4-18.9-22.8-37.8-33.6-57
		c-4.8-8.6-5.2-18.3-4.4-28c1.1-13.3,6.5-24.6,16.2-33.7c7.5-7,16.1-12,26.5-13.5c1.2-0.2,2.3-0.5,3.5-0.9
		c8.4-2.8,14.9-0.8,19.6,6.7c14,22.3,27.8,44.7,41.6,67.1c13.2,21.2,26.4,42.3,39.6,63.5c11.1,17.9,22.2,35.8,33.3,53.7
		C337.8,401.2,340.5,405.3,343.8,410.5z"/>
	<path d="M489.1,723.7c-3.5,9.1-7.1,18.2-10.5,27.4c-3.7,10-7.2,20.1-10.7,30.1c-1.8,5.2-3.6,10.5-5.4,15.7
		c-1.5,4.5-3.6,7.2-9.3,7.3c-14.2,0.2-11.7,0.4-16.5-12.6c-6.8-18.3-13.1-36.8-19.6-55.3c-1.1-3.1-2-6.3-4-9.5
		c-0.1,1.7-0.3,3.3-0.3,5c0,21.9,0,43.8,0,65.7c0,6.3-0.3,6.5-6.7,6.5c-11.4,0-11.4,0-11.4-11.1c0-31.2,0-62.4,0-93.7
		c0-6.7,0-6.7,7-6.8c3.7,0,7.4-0.1,11.1,0c7.5,0.1,9.5,1.9,12.1,9.4c3.6,10.3,7.7,20.3,11.4,30.6c4.3,12.1,8.2,24.4,12.4,36.6
		c0.5,1.5,1.5,2.8,2.9,5.3c5.9-16.2,11.4-31.2,16.8-46.2c3.6-10.1,7.1-20.2,10.7-30.2c1.7-4.8,5.1-6.5,10.3-5.9
		c5.2,0.6,10.5,0.4,15.8,0.4c3,0,4.3,1.1,4.3,4.2c-0.1,34.3-0.1,68.5,0,102.8c0,3.4-1.2,4.7-4.8,4.8c-14.3,0.3-14.3,0.4-14.3-13.8
		c0-19.7,0-39.4,0-59c0-2.5,0-5,0-7.5C489.9,723.8,489.5,723.8,489.1,723.7z"/>
	<path d="M780.9,773.2c0-3.3,0-5.1,0-6.9c0-22.7,0.1-45.5-0.1-68.2c0-4.5,1.3-5.8,5.7-5.7c12.6,0.2,12.6,0,12.6,12.6
		c0,31.2-0.1,62.4,0.1,93.7c0,4.5-1.3,6.1-5.8,5.7c-3.2-0.3-6.5-0.5-9.7,0c-6.8,1.1-10.6-2.1-13.9-7.5c-12.2-20-24.5-39.9-36.8-59.9
		c-2.7-4.3-5.5-8.6-8.3-12.9c-0.4,0.1-0.8,0.3-1.2,0.4c0,26.3,0,52.7,0,79.7c-5.3,0-10.1,0.1-14.7-0.1c-0.9-0.1-2.1-1.5-2.5-2.5
		c-0.5-1.2-0.2-2.7-0.2-4c0-32.9,0.1-65.8-0.1-98.8c0-4.9,1.4-6.8,6.3-6.3c2.7,0.3,5.5,0.4,8.1,0c7.4-1.2,11.3,3.1,14.6,8.5
		c14.3,23.2,28.6,46.5,42.9,69.7C778.4,771.3,779.2,771.7,780.9,773.2z"/>
	<path d="M146.3,768.7c-0.4,8.5-0.7,16.9-1.2,25.4c-0.3,4.9-3.1,7.3-8.1,8.1c-6.7,1.2-13.3,3.8-20.1,4.5c-6.4,0.6-13.1,0.1-19.5-0.9
		c-6.5-1.1-13.2-2.8-19.2-5.5c-11.6-5.2-18.7-14.6-22.1-26.8c-2.4-8.8-6.4-17.5-5.1-27c3.3-24.2,9.7-44.5,38.6-53.4
		c12-3.7,24.4-3.6,36.7-1.1c5.1,1,9.9,2.9,15,4.1c3.3,0.8,3.2,3,2.5,5.5c-0.7,2.4-1.5,4.8-2.5,7.1c-2.4,5.6-6.1,6-14.3,3.2
		c-16.9-5.6-35.1-4.4-46.2,12c-3.2,4.7-5.4,10.7-6.2,16.3c-1.5,10.4-0.5,20.9,4,30.7c6.3,13.6,19.8,18.3,33.4,16.8
		c13-1.4,12.9-2.2,12.9-15.5c0-11.8,0-11.8-11.6-11.8c-0.3,0-0.7,0-1,0c-8.7,0-11.9-3.7-10.3-12.5c0.7-3.8,3.2-5.6,7.3-5.6
		c10.2,0.1,20.4,0.2,30.6-0.1c4.7-0.1,6,2.3,6,6.2c0.1,6.8,0,13.6,0,20.4C146.1,768.7,146.2,768.7,146.3,768.7z"/>
	<path d="M954.1,760.4c-6.5,0-12.2-0.2-17.9,0.1c-3.6,0.1-5-1.3-4.8-4.7c0.1-2.2-0.2-4.5,0.2-6.6c0.9-4.2,3.2-7,8-7
		c9.9,0,19.7,0.1,29.6,0c4.1,0,5.8,1.6,5.7,5.8c-0.2,14.8,0,29.5-0.1,44.3c0,5.6-3.3,8.9-8.6,10c-6.2,1.3-12.2,4-18.5,4.5
		c-7.4,0.6-15.1,0.2-22.4-1.2c-7.3-1.4-14.7-3.9-21.4-7.3c-11.1-5.7-17.9-15.4-19.4-27.8c-1.3-10.9-2.4-21.9-1.9-32.8
		c1.1-20.2,11.1-35.9,32.7-43.4c15.3-5.3,30.7-4.6,46.1-1.6c12.2,2.4,14,6.2,8.4,17.4c-0.8,1.6-4,3.2-5.9,3
		c-5.2-0.5-10.2-2-15.3-3.1c-14.7-3.1-27.9,0.1-37.3,12.1c-3.8,4.9-6.1,11.7-7.1,17.9c-1.9,11.8-1.1,23.6,5.6,34.2
		c7.1,11.2,18.3,14.4,30.3,13.3c17.1-1.6,13.7-2.2,14-16.4C954.2,767.8,954.1,764.6,954.1,760.4z"/>
	<path d="M268.5,716.2c-6.2,17.7-12,34.4-17.8,51.1c-3.1,8.9-6.3,17.7-9,26.7c-2.8,9.1-5.5,11.2-14.9,10.1c-1.2-0.1-2.4-0.1-3.6-0.1
		c-7.3,0-7.5-0.6-4.9-7.5c7.7-20.3,15.3-40.6,22.8-61c4.4-11.8,8.4-23.7,12.8-35.4c2.7-7.2,5.2-8.5,13.2-8.5c1.4,0,2.7,0.1,4.1,0.1
		c6.7-0.1,10,4,12.1,9.6c7.9,21,15.7,42,23.6,62.9c4.1,10.8,8.2,21.6,12.1,32.4c0.7,2,0.5,4.3,0.8,7.2c-6.2,0-12.2,0.8-17.8-0.4
		c-2.6-0.6-5.3-4.8-6.4-7.9c-6.4-18.4-12.4-36.9-18.6-55.4C274.4,732.5,271.6,724.8,268.5,716.2z"/>
	<path d="M597.8,803.2c0-1.6,0-3.5,0-5.3c0-32.9,0-65.8,0-98.6c0-6.8,0-6.8,6.5-6.8c12.9,0,12.9,0,12.9,12.8c0,30.7,0,61.3,0,92
		c0,6.8,0,6.8-6.7,6.8c-3.6,0-7.1-0.1-10.7-0.2C599.3,804,598.8,803.6,597.8,803.2z"/>
</g>
</svg>
