<?xml version="1.0" standalone="no"?><!DOCTYPE svg PUBLIC "-//W3C//DTD SVG 1.1//EN" "http://www.w3.org/Graphics/SVG/1.1/DTD/svg11.dtd"><svg t="1575011445990" class="icon" viewBox="0 0 1024 1024" version="1.1" xmlns="http://www.w3.org/2000/svg" p-id="5288" xmlns:xlink="http://www.w3.org/1999/xlink" width="200" height="200"><defs><style type="text/css"></style></defs><path d="M271.3 467.9c13.3-31.8 31.7-59.1 57.1-81.4 21-18.5 44.5-33.1 71.6-40.8 36.3-10.3 72.5 12.1 80 49.1 6 29.4-14.3 60.7-44.9 68.6-11.7 3-24 3.8-35.5 7.4-41.3 12.9-72.4 37.4-83.6 81-8.9 34.6 2 64.2 26.5 89.5 31.7 32.7 71.1 42.2 114.9 38.5 20-1.7 39.9-5 57.3-15.2 11.4-6.7 21.5-16.2 31.1-25.5 3.7-3.6 5.7-10.1 6.5-15.6 2.3-16.9-6.8-27.5-23.8-27.8-9.2-0.1-18.4 1.9-27.6 2.2-10.3 0.3-20.9 1.2-31-0.5-25.7-4.4-35.5-20.4-29.4-45.8 7.2-30 26.7-50.7 51.7-66.7 28-18 59.2-26.6 92.1-29.9 33-3.4 65.8-3.1 97.8 7.1 28.7 9.1 53 24.5 68.5 51.1 24.3 41.7 15.4 81.6-11.2 117.4-38.1 51.5-91 83-152.1 100-158.3 44-322.7-50.3-363.2-209.7-23-90.6-11.3-176.8 46.1-253.3 48-64 112.5-102 191.8-112.8 105.5-14.3 195.2 18.3 269.1 94.6 15.7 16.2 30 33.7 35.1 56.7 7.5 33.8 0.2 63.6-26.6 86.2-26.4 22.3-56.9 25.2-88.5 11.9-31.6-13.4-57.4-35.3-82-58.7-17.2-16.3-33.7-33.8-53.1-47-38.1-25.8-81.3-35.5-127.1-28.7-7.8 1.2-15.2 8-22 13.2-53 40.5-84.1 94-93.5 160.1-1.3 8.2-1.5 16.5-2.1 24.8zM469.6 901.2c-3.7-3.8-6.9-6.9-9-9.2 7.5-2.3 13.9-4.6 20.5-6 4.2-0.9 8.7-0.5 13.1-0.7-0.6 4.1-0.8 8.2-1.8 12.2-2.1 8.6-4.6 17.2-7.3 27.2-7.4 1.1-11.6-4.7-13.3-10.7-10.4 1.6-20 4.4-29.5 4.2-12.9-0.4-19.9-7.5-22.3-20.1-3.8-20 9.4-50.8 32.8-56.4 13.9-3.3 27.6-2.6 40.1 5 11.2 6.8 15.3 20 9.1 31.2-2.5-2.6-4.8-4.9-6.9-7.3-9.5-11.3-20-13.4-33.1-6.5-9.5 5-17.4 12.1-20.3 22.5-1.5 5.3-1.6 13 1.3 16.7 2.4 3.1 10.3 2.8 15.7 2.5 3.6-0.3 7.2-3 10.9-4.6zM761.3 908.6c-4.7 2.2-9.2 4.8-14 6.5-10.8 3.7-21 0.5-24.2-7.1-3.9-9.2 0.7-23.8 10.5-27.4 10.1-3.7 21.1-5.5 31.8-7 6.6-0.9 13.5 0.5 21 0.8-0.6 3.3-0.7 4.9-1.2 6.5-4.7 14.8-9.4 29.6-14.3 44.4-1.6 4.9-3.6 9.8-5.8 14.4-12.1 25.2-32.3 34.2-59.2 26.7-6-1.7-12.2-2.7-19.1-4.2 7.7-15.8 23.5-22.2 39.6-31.6-1 4.5-2.3 7.2-1.9 9.7 0.7 4 1.5 9.2 4.2 11.2 3.1 2.2 8.9 3 12.5 1.6 4.5-1.7 9.6-5.6 11.4-9.8 4.7-10.9 7.8-22.5 11.5-33.9-0.9-0.3-1.8-0.5-2.8-0.8z m6.6-26.8c-9-0.5-17.2-1-22.6 5.8-2.3 2.8-3.5 8.3-2.2 11.5 0.9 2.3 6.6 3.9 10.1 3.8 13-0.4 11.7-11.6 14.7-21.1zM301.3 843.4c-17.3 4.3-28.5 13.8-28.5 33.2h21.8c0.3 0.7 0.7 1.3 1 2-6.9 4-14.1 7.7-20.7 12.2-2.9 2-6 5.2-6.9 8.5-5.2 18.2-15.9 28.1-33 30.4 2.3-18.7 4.4-37.8 7-56.7 2.8-20.3 10.4-28.6 30.6-31.7 9.2-1.4 18.8-0.2 28.3-0.2 0 0.7 0.2 1.5 0.4 2.3zM412.8 894.1c-9.1 12.4-19.4 17.3-27.5 13.3-10.4-5.2-1.1-13.1-2.3-22.4-9.6 8-18 14.9-28 23.2 0.4-7 0.8-12.3 1.2-19.5-6.8 5.5-12.1 10.3-17.9 14.3-7.2 5-10.6 4.2-15.6-2.9-4.4 2.5-8.7 5.5-13.3 7.3-11.8 4.7-16 1.5-15.5-11.3 0.6-14 4.8-18 18.7-17.2-0.9 4.5-2.1 8.9-2.5 13.4-0.2 2.2 1.1 4.5 1.7 6.8 2.6-0.7 6-0.7 7.7-2.4 2.3-2.3 3.5-5.8 4.9-8.9 4.3-9.1 7.2-11.2 18.7-12.3-1.6 7.1-3.2 14-5 22.1 12.6-5.5 18.2-19.6 32.9-19.1 0.5 2.9 0.9 5.3 1.4 8.1 1.2-0.6 2.1-1.2 3.1-1.7 7.5-3.4 14.8-8 22.7-9.7 8.4-1.8 9.9 1.1 6.6 9-1.9 4.6-3.8 9.3-5.7 13.9l1.8 1.5c3.3-1.4 6.7-3 11.9-5.5zM556.8 891.5c5.7-3 12.4-6.6 20.6-10.8V891c4.5-2.9 8.3-5.9 12.6-8.1 2.3-1.2 5.3-1.1 7.9-1.6 0.3 2.7 0.7 5.5 0.7 8.2 0 1.3-0.6 2.7-1.3 5.6 6.5-5.3 11.5-10.1 17.2-13.8 2.7-1.7 6.8-1.3 10.3-1.8 0.2 3.4 1.1 7.1 0.3 10.3-1 4.3-3.4 8.3-5.8 13.9 4.7-0.8 7.9-1.4 11.1-1.9 0.3 0.5 0.6 1.1 1 1.6-5.4 3.4-10.5 7.6-16.4 9.9-7.9 3.2-12.2-1.3-10-9.7 0.6-2.5 1.9-4.8 3-7.2 1-2.2 2.2-4.3 3.2-6.5-0.6-0.5-1.3-1-1.9-1.6-8.1 8.6-16.2 17.1-24.3 25.7-0.6-0.2-1.2-0.3-1.9-0.5 0.8-7.2 1.6-14.3 2.4-21.5-0.4-0.5-0.9-0.9-1.3-1.4-4.1 5.4-8.2 10.7-12.1 16.2-3.4 4.7-4.7 12.8-12.1 11-1.9-0.4-1.7-9.8-2.4-15.1-0.3-3.4-0.5-6.6-0.8-11.2zM548.5 911.5c-8.4 8.2-16.9 8.5-22-1.2-2.8 2.1-5.2 5.2-8.2 5.8-4.7 0.9-10.9 1.9-14.4-0.4-3.4-2.3-6-8.6-5.9-13 0.3-12.1 9.2-19.9 21.4-20.4 6.3-0.3 12.7 0 19-0.3 6-0.3 8 2.7 7.1 7.9-0.8 4.5-2.3 8.9-3.4 13.3-1.1 4.8-1.7 9.4 6.4 8.3z m-18.3-21.9c-10.1-1.6-15.8 0.7-17.9 7.1-1 3 1.3 7.1 2.1 10.7 3.1-0.7 7.6-0.4 8.9-2.3 3-4.2 4.4-9.5 6.9-15.5z" p-id="5289"></path><path d="M701.8 885.5c-7.7 2.3-14.1 10.3-13.9 17.2 0.1 1.6 2 3.2 3.6 5.5-0.6 0.7-1.7 3-3.6 3.9-2.6 1.3-6.4 3-8.5 2.1-2-0.9-2.7-5-3.5-7.8-1.5-5.3 4.9-11.4-1.7-16.2 2-2.4 3.6-5.3 6-7.1 3.2-2.5 7.1-4.1 11.6-6.6-1.1 4.6-1.9 7.8-3.1 12.9 9.7-7.9 17.4-16 29.8-13.9 1.7 10.5-9.5 19.5-2.7 32.3-3.8 1.9-8.6 4.3-13.4 6.8-0.8-4.9-2.1-9.7-2.2-14.6-0.2-4.6 1-9.4 1.6-14.5zM665.3 883.1c-4.1 5.4-10.8 11.9-8 23.4 3.8-2.5 7.1-4.7 10.5-7 0.6 0.6 1.1 1.2 1.7 1.8-5 4.7-9.5 10.1-15 14-5.7 4-11 1.1-11.5-6-0.4-4.8 0.5-9.7 0.9-15-1.7 0.2-3.5 0.4-5.6 0.6 4.3-4.7 8.3-9.1 12.6-13.7-2.9-0.9-4.5-1.5-6.1-2 1.1-2.8 1.5-6.8 3.6-8.1 3.1-1.9 7.5-2.7 11.1-2.3 1.4 0.2 2.3 4.9 3.4 7.6 0.5 1.6 1.1 3.2 2.4 6.7z" p-id="5290"></path></svg>