<?xml version="1.0" standalone="no"?><!DOCTYPE svg PUBLIC "-//W3C//DTD SVG 1.1//EN" "http://www.w3.org/Graphics/SVG/1.1/DTD/svg11.dtd"><svg t="1575006589022" class="icon" viewBox="0 0 1024 1024" version="1.1" xmlns="http://www.w3.org/2000/svg" p-id="1085" xmlns:xlink="http://www.w3.org/1999/xlink" width="200" height="200"><defs><style type="text/css"></style></defs><path d="M801.1 921v-19.7c13.7-2.3 16-12 15.5-23.9-0.5-10.5-0.1-21-0.1-32.5-13 0-25.3-0.5-37.6 0.2-7.4 0.4-12.5-1.6-16.2-8.1-2.3-4-5.5-7.4-9.2-12.3h62.9c10-15.4 19-29.3 28-43.2-14.6 0-30.6-0.5-46.5 0.2-8.9 0.4-15.1-1.9-19.3-9.9-1.8-3.4-4.6-6.2-8-10.7h9.2c26.4 0 52.7 0.1 79.1-0.1 7.9 0 15.8 0.1 19.2 8.9 3.5 9.2-2.5 14.7-8.8 20-5.9 4.9-11.8 9.8-16.8 15.5-4.6 5.2-7.9 11.5-12.8 18.9H893v20.6h-56.6c0 14.4 0.1 27.8 0 41.2-0.1 10.6-4.3 19.6-12.5 26.2-4.4 3.5-9.8 5.8-14.8 8.6-2.7 0.1-5.3 0.1-8 0.1z" p-id="1086"></path><path d="M133.2 874.1c10 9.4 19.7 18.6 29.9 28.2 4.8-3.2 10-6.8 16.9-11.5-12.2-11.6-23.5-22.2-35.4-33.6-4.6 6.9-8.1 12-11.4 16.9z" p-id="1087"></path><path d="M186.8 921c-0.3-5.7-1-11.5-0.7-17.2 0.1-1.5 2.5-3.6 4.2-4.3 7.6-2.9 11.1-8.3 11-16.3-0.1-8.7 0-17.3 0-27.3h-8.6c-22.3 0-44.7-0.2-67 0.2-6.4 0.1-10.9-1.5-14.4-7-2.8-4.3-6.6-7.9-10-11.9v-1.6h99.6c0.3-3.6 0.5-6.5 0.8-10H221c0.3 2.9 0.6 5.9 1 9.9h33.8v20.3h-34.2v25c0 22.1-9.7 34.3-31.1 39.2-0.7 0.2-1.4 0.7-2.1 1h-1.6zM622.3 868.9c0.3 6 0.6 10.9 1 15.8 0.1 1.3 0.8 2.5 1.4 3.7 4 7.4 11 8.6 18.4 8 10-0.8 22.7 4.2 28.4-8 3.2-6.9 7.1-7.8 13.1-7.4 2.8 0.2 5.7 0 8.4 0 1.6 17.6-12.9 34.1-30.7 35.2-8.9 0.6-17.9 0.5-26.9 0.1-16.5-0.7-30.4-13.8-32.4-30.4-0.6-5.4-0.8-10.9-1.1-17.1-10.5 0-20.5 0.3-30.5-0.2-3.1-0.2-6.7-2.1-9.1-4.4-9.5-9-12.8-20-12-33.3 1.1-18.1 0.3-36.3 0.3-55.4h51.8V755h19.9v20.4h33.1c16.2 0.1 24.3 8.1 24.4 24.3 0.1 15.3 0.1 30.6 0 45.9-0.2 15.4-8.1 23.1-23.6 23.2-10.8 0.2-21.6 0.1-33.9 0.1z m0.6-36.1v15.9h23.9c13.1 0 14.5-1.8 12.2-15.9h-36.1z m37.1-21.2c-0.8-6.2 2.9-14.2-5.3-15.3-10.4-1.4-21.2-0.3-31.8-0.3v15.6H660z m-58.2 0.2v-15.3H571v15.3h30.8z m-30.7 20.9v15.4h30.7v-15.4h-30.7zM455.9 807c-0.3 6-0.6 12-0.9 18.8h-44V845h39.9v20.4h-40.1v23.4h18.1c0.3-4.9 0.6-10 0.9-15.6h19.4V889h21.9v20.6h-8.5c-35.3 0-70.7-0.2-106 0.2-7.7 0.1-13-1.7-16.9-8.5-2.2-3.8-5.3-7.1-8.8-11.8H390v-24.1c-9.3 0-18.2-0.3-27.1 0.1-5.6 0.3-9.4-1.2-12.4-6.1-2.8-4.6-6.4-8.7-10.5-14.2h49.9v-19.3c-6.9 0-13.7-0.5-20.4 0.1-6.1 0.5-9.9-1.6-12.9-6.7-3-4.9-6.5-9.5-9.7-14.3l-0.3 0.3c33.4 0.1 66.9 0.1 100.3 0.2 3 0 6.1 0.9 9.1 1.4l-0.1 0.1z" p-id="1088"></path><path d="M217.9 788.1c10.6 10.5 21.1 21 32.5 32.3-7.7 5.2-12.8 8.7-17.6 12-10.1-9.5-19.8-18.7-29.8-28.1 3-4.6 6.2-9.5 10.3-15.8-9.2 0-16.8-0.5-24.2 0.3-2.3 0.2-4.8 3.4-6.3 5.8-15.9 25.6-39.7 36.5-69.5 38v-20.1c13.3-0.8 26.1-3.5 37-11.6 4.1-3 7.6-6.8 11.4-10.3-0.3-0.7-0.5-1.3-0.8-2-9.3 0-18.7-0.5-28 0.2-6.8 0.5-11.5-1.5-15-7.5-2.3-4-5.5-7.5-9.3-12.7h49.5c13.1 0 13.1 0 15.1-13.3h19v12.9h57.7v20.1c-11.2-0.2-21.9-0.2-32-0.2zM346.9 805.2h-20.1v-36.9H389c0.3-4.8 0.5-8.9 0.7-13.3h19.4c0.3 4.2 0.6 8.1 0.9 13h46.5c15.6 0.1 19.8 4.2 19.8 19.6v19.3h-20.5l0.2 0.2v-5.5c0.1-13.3-0.1-13.5-13.7-13.5H346.6v17.3l0.3-0.2zM133.2 874.1c3.3-4.9 6.8-10 11.4-16.8 12 11.3 23.2 22 35.4 33.6-6.9 4.7-12.2 8.3-16.9 11.5-10.2-9.7-19.9-18.9-29.9-28.3z" p-id="1089"></path><path d="M397.2 210h8.3c128.3 0 256.6-0.1 384.9 0.1 26.3 0 51.2 5.1 71.9 23.3 35 30.7 40.8 81.2 13.4 118.8-6.5 9-14.1 17.2-21.8 26.4 16.8 20.3 20.7 44.5 17.2 70.1-4.5 32.4-23.6 55.3-50 72.7-24.1 15.8-50.8 23.3-79.6 23.3-119.4-0.1-238.9 0-358.3 0h-12.4c1.1-4.6 1.9-8.1 2.8-11.6 23-85.4 46.1-170.8 68.8-256.3 0.8-3.1-0.7-7.9-2.7-10.6-11.4-15.5-23.2-30.5-34.9-45.8-2.2-3-4.3-5.9-7.6-10.4z m56.1 273.1c13.4 0 25.4 0.4 37.4-0.1 9.4-0.4 18.8-1.8 28.1-3.2 69.9-10.5 122.3-70.6 122.5-140.2 0.1-35.8-17.1-58.6-52.6-64.2-23.3-3.7-47.3-2.5-70.9-3.9-6.1-0.4-8.3 1.9-9.8 7.6-11 41.8-22.3 83.4-33.5 125.2-7.1 25.9-14 51.8-21.2 78.8z m185.9 0.1h104.4c3.4 0 6.9 0.1 10.3-0.3 14.5-1.7 27.9-6.2 39.4-15.6 13.4-11 18.4-25.3 13.7-39.5-5.1-15.5-17.7-19.5-31.9-19.7-27.2-0.4-54.4-0.3-81.6-0.1-2.3 0-5.9 1.7-6.8 3.6-11.3 26.1-26.4 49.5-47.5 71.6z m63.7-137.5c1.5 0.4 2.6 0.9 3.7 0.9 24.6 0.1 49.3 0.7 73.8-0.3 9.1-0.4 18.7-3.5 26.8-7.7 15.9-8.2 23.4-27 19.5-43.9-3.3-13.9-15.8-22.1-35.3-23-1.1-0.1-2.3-0.1-3.4-0.1h-91.9c-2.1 0-4.2 0.4-7.6 0.7 13 23.6 14.8 48.3 14.4 73.4zM101.3 624.3c14.1-18.5 27.6-36.2 41.4-53.7 1.2-1.5 4.9-1.7 7.3-1.3 9 1.5 17.9 4.1 26.9 5.1 23.4 2.5 40.4-8.8 52.6-27.4 5.1-7.8 9.2-16.7 11.6-25.6 21.8-81 43.1-162.2 64.2-243.3 1-3.7-0.5-9.1-2.8-12.2-13.3-18.2-27.2-36-41.8-55H393c-4.2 16.4-8.3 32.1-12.4 47.8-23.8 90.8-47.3 181.8-71.6 272.5-23.8 89-120.3 134.7-202.1 96.4-1.5-0.9-2.9-1.8-5.6-3.3z" p-id="1090"></path></svg>