<?xml version="1.0" standalone="no"?><!DOCTYPE svg PUBLIC "-//W3C//DTD SVG 1.1//EN" "http://www.w3.org/Graphics/SVG/1.1/DTD/svg11.dtd"><svg t="1574847737966" class="icon" viewBox="0 0 1024 1024" version="1.1" xmlns="http://www.w3.org/2000/svg" p-id="3722" xmlns:xlink="http://www.w3.org/1999/xlink" width="200" height="200"><defs><style type="text/css"></style></defs><path d="M767.3 864.7c-2.2 6-4.4 12-6.7 18H757c-2.1-6-4.2-12.1-6.5-18.5-0.1 0.5-0.2 0.6-0.2 0.8 0.1 5.3 0.1 10.6 0.2 16v1.3c0 0.9 0.4 1.7 1.3 2 0.9 0.3 0.9 0.8 0.7 1.6h-7.2c-0.2-0.7-0.3-1.2 0.5-1.5 1.1-0.4 1.4-1.3 1.4-2.4v-6.6-12.2c0-1.2-0.2-2.3-1.5-2.7-0.6-0.2-0.6-0.8-0.4-1.4h9.8c1.7 5.1 3.5 10.3 5.4 15.9 2-5.6 4-10.8 5.9-16h9.2c0.2 0.7 0.3 1.3-0.5 1.5-1 0.3-1.3 1.2-1.4 2.1 0 0.5-0.1 0.9-0.1 1.4v16.8c0 0.6 0.1 1.2 0.1 1.9 0.1 0.8 0.4 1.4 1.2 1.7 0.8 0.2 0.9 0.8 0.7 1.6h-10c-0.3-0.7-0.3-1.3 0.7-1.5 0.9-0.2 1.2-1 1.3-1.8v-1.6c0-5.2 0.1-10.4 0.1-15.7 0-0.2 0-0.3-0.1-0.5s-0.2-0.2-0.3-0.2zM188.4 858.9c0.3 0.9 0.1 1.3-0.7 1.6-0.8 0.3-1.2 1-1.2 1.8v7.8c1.2 0.3 6.9 0.4 8.8 0.1v-2.3-5.2c0-1-0.3-2-1.4-2.4-0.7-0.2-0.8-0.7-0.6-1.5h10.1c0.3 0.6 0.3 1.2-0.4 1.4-1.3 0.5-1.5 1.5-1.5 2.6V881.6c0 1.1 0.3 2 1.5 2.5 0.6 0.2 0.5 0.3 0.4 1.5h-10.1c-0.2-0.7-0.2-1.3 0.6-1.5 1-0.3 1.3-1.1 1.3-2.1v-4.9-4c-1.1-0.4-5.9-0.5-8.7-0.2 0 0.2-0.1 0.5-0.1 0.7v8c0 1.1 0.3 2 1.5 2.5 0.6 0.2 0.6 0.3 0.5 1.5h-10.2c-0.2-0.7-0.3-1.3 0.6-1.5 0.9-0.3 1.2-1 1.3-1.9 0-0.5 0.1-0.9 0.1-1.4v-17.1-0.3c0.1-1.6-0.2-3-2.1-3.3v-1.3c3.5 0.1 6.9 0.1 10.3 0.1zM704.9 873.1h-8.6c0 0.4-0.1 0.7-0.1 1.1v7.2c0 1.3 0.2 2.5 1.7 3 0.3 0.1 0.4 0.8 0.6 1.4h-10.4c-0.3-0.8-0.2-1.3 0.6-1.6 0.8-0.3 1.2-1 1.2-1.8 0-0.6 0.1-1.1 0.1-1.7v-16.6-1.6c0-0.9-0.3-1.7-1.2-2-0.8-0.3-0.9-0.8-0.6-1.6h10.1c0.3 0.7 0.2 1.3-0.6 1.5-1 0.3-1.3 1.2-1.4 2.1v7.8c2.9 0.1 5.8 0 8.8 0V867c0-1.6 0-3.1-0.1-4.7 0-0.9-0.3-1.6-1.3-2-0.8-0.3-0.9-0.8-0.6-1.5h10.1v1.3c-1.9 0.3-2.1 1.8-2.1 3.3v17.7c0 1.3 0.1 2.6 1.7 3.2 0.3 0.1 0.3 0.8 0.6 1.4h-10.5v-1.2c0.2-0.1 0.5-0.3 0.8-0.4 0.8-0.3 1.1-0.9 1.1-1.7 0.1-3 0.1-6.1 0.1-9.3zM492.2 874.7v7.4c0 0.9 0.4 1.8 1.4 2.1 0.9 0.3 0.8 0.8 0.6 1.6h-10.1c-0.3-0.8-0.3-1.3 0.6-1.6 0.8-0.3 1.2-1 1.2-1.8 0-0.5 0.1-1 0.1-1.6v-16.9-1.4c0-0.9-0.3-1.7-1.2-2-0.8-0.3-0.9-0.8-0.7-1.5 0.1 0 0.3-0.1 0.4-0.1 4.4 0 8.9 0 13.3 0.1 1.4 0 2.8 0.5 4.1 1 2 0.8 3.2 2.5 3.5 4.6 0.6 3.7-0.7 6.4-4 8.2-0.4 0.2-0.8 0.4-1.3 0.7 0.1 0.1 0.2 0.3 0.3 0.4 1.8 0.9 2.9 2.5 3.7 4.3 0.6 1.2 1.1 2.4 1.7 3.5 0.6 1.1 1.3 2.1 2.5 2.7 0.6 0.2 0.5 0.3 0.4 1.5h-6.9c-0.7 0-0.9-0.4-1.2-0.9-0.8-1.5-1.6-3-2.3-4.4-0.6-1.2-1.1-2.5-1.7-3.7-1.1-2.2-1.7-2.5-4.4-2.2z m0.1-2.8c3 0.6 5.3-0.1 6.4-1.8 1.2-2 0.9-5.9-0.4-7.4-1.2-1.3-3.9-1.9-5.9-1.1-0.1 3.4-0.1 6.9-0.1 10.3zM213.1 866.1v15.7c0 1.2 0.2 2.2 1.5 2.6 0.6 0.2 0.6 0.3 0.4 1.5h-7.2c-0.2-0.6-0.4-1.2 0.5-1.5 1.2-0.4 1.5-1.4 1.5-2.5v-9.6-9.2c0-1.2-0.2-2.2-1.5-2.6-0.5-0.2-0.5-0.3-0.5-1.4 0.4 0 0.8-0.1 1.2-0.1 1.8 0 3.6 0.1 5.3 0 1.2-0.1 1.8 0.4 2.3 1.4 3.2 5.7 6.5 11.4 9.8 17.2 0-0.2 0.1-0.4 0.1-0.6 0-3.8-0.1-7.6-0.2-11.4v-1.9c0-1.6-0.2-3-2.1-3.3v-1.3h7.3c0.3 0.8 0.2 1.3-0.6 1.6-0.9 0.3-1.2 1-1.3 2 0 0.8-0.1 1.7-0.1 2.5V886h-5.1c-3.7-6.6-7.4-13.2-11.3-19.9zM823.1 860.3V859h7.3c0.3 0.7 0.2 1.3-0.6 1.5-0.9 0.3-1.2 1-1.3 2 0 0.8-0.1 1.7-0.1 2.5v20.8h-5.1c-3.7-6.4-7.5-13-11.4-19.8-0.1 0.4-0.1 0.6-0.1 0.7 0.1 4.9 0.1 9.8 0.2 14.7 0 1.3 0.1 2.5 1.7 3 0.4 0.1 0.4 0.3 0.3 1.4h-7.2c-0.2-0.6-0.4-1.2 0.5-1.5 1.2-0.4 1.5-1.4 1.4-2.5v-10-8.8c0-1.2-0.2-2.2-1.5-2.6-0.5-0.2-0.5-0.3-0.5-1.4 0.4 0 0.8-0.1 1.2-0.1 1.8 0 3.6 0.1 5.3 0 1.2-0.1 1.8 0.4 2.3 1.4 3.2 5.7 6.5 11.4 9.8 17.2 0-0.2 0.2-0.4 0.1-0.6 0-3.8-0.1-7.6-0.2-11.4v-1.9c0-1.6-0.2-3-2.1-3.3zM248.3 858.5c0.8 0.1 1.7 0.1 2.6 0.2 4.7 0.9 7.5 3.7 8.5 8.8 0.6 3.2 0.6 6.4-0.1 9.6-1.3 5.6-4.8 8.6-10.5 9-1.6 0.1-3.2 0-4.8-0.4-3.3-0.7-5.8-2.7-6.9-6-1.7-4.8-1.8-9.7 0.1-14.5 1.6-4.1 4.8-6.2 9.1-6.6 0.5 0 1.1 0 2-0.1z m5.3 14.3h-0.2c-0.1-1.3-0.1-2.6-0.2-3.9-0.2-1.9-0.5-3.7-1.5-5.4-0.9-1.6-2.2-2.5-4-2.5-1.9 0-3.3 0.9-4.1 2.6-0.5 1-0.8 2-1 3.1-0.6 3.1-0.5 6.2-0.2 9.4 0.2 2 0.5 3.9 1.7 5.6 1.9 2.8 5.7 2.9 7.6 0 0.5-0.7 0.9-1.6 1-2.4 0.4-2.2 0.6-4.4 0.9-6.5zM311.1 872c-0.2 1.6-0.3 3.2-0.5 4.7-1.1 5.8-4.9 9.2-10.8 9.4-1.5 0.1-3 0-4.5-0.3-3.7-0.8-6.1-3-7.3-6.6-1.4-4.3-1.4-8.7 0-13.1 1.5-4.6 5-7.3 9.9-7.5 1.4-0.1 2.8-0.1 4.2 0.2 4.6 0.8 7.5 3.7 8.5 8.4 0.3 1.6 0.4 3.2 0.5 4.8z m-6.3 1.2c-0.2-2.1-0.3-3.8-0.5-5.4-0.2-1.7-0.6-3.3-1.5-4.7-1.8-2.8-5.8-2.9-7.6-0.1-0.6 0.9-1 2-1.2 3-0.9 4.2-0.8 8.4 0.1 12.6 0.2 1.1 0.7 2.1 1.2 3 1.9 2.9 5.8 2.9 7.6-0.1 0.5-0.8 0.9-1.7 1.1-2.6 0.4-2 0.6-4.1 0.8-5.7zM526.3 859.8v-1.1h8.6c0 0.4 0.1 0.8 0.1 1.3-1.9 0.3-2.1 1.7-2.1 3.2v12.4c0 1.5-0.1 2.9-0.4 4.4-0.5 2.8-2.2 4.7-5 5.5-3.2 0.9-6.4 0.9-9.6-0.1-3.2-1-4.8-3.4-5.1-6.6-0.2-1.8-0.1-3.6-0.1-5.5v-8.8-1.3c0-1.5-0.2-2.9-2-3.2v-1.3h10.2c0.3 0.7 0.2 1.2-0.5 1.5-0.9 0.3-1.3 1-1.3 1.9 0 0.2-0.1 0.4-0.1 0.6 0 5.3 0.1 10.5 0.1 15.8v0.6c0.5 3.6 2.6 4.9 6.4 4 1.3-0.3 2.1-1.3 2.4-2.5 0.3-1.3 0.5-2.7 0.5-4 0.1-4.5 0-9 0-13.5 0-2-0.2-2.2-2.1-3.3zM717.1 860v-1.3h10.2c0.3 0.7 0.3 1.2-0.5 1.5-1 0.3-1.3 1.1-1.3 2.1v0.5c0 5.3 0.1 10.5 0.1 15.8v0.6c0.5 3.6 2.6 4.9 6.4 4.1 1.3-0.3 2.1-1.3 2.4-2.5 0.3-1.3 0.5-2.7 0.5-4 0.1-4.5 0-9 0-13.5 0-1.5-0.1-3-2-3.3v-1.3h8.6c0 0.4 0.1 0.8 0.1 1.3-2 0.3-2.1 1.8-2.1 3.4v12.4c0 1.5-0.1 2.9-0.4 4.3-0.5 2.7-2.2 4.5-4.8 5.3-3.3 1-6.6 1-9.9-0.1-3.1-1-4.7-3.4-5-6.5-0.2-1.7-0.1-3.4-0.1-5.2v-9.1-1.3c-0.2-1.5-0.3-2.9-2.2-3.2zM139.3 883.4h4.9c1.2 0 1.9-0.8 2.4-1.7 0.5-0.9 0.8-1.9 1.3-3h2.7c-0.1 2.4-0.2 4.7-0.3 7.1h-19.4c-0.3-0.8-0.2-1.3 0.6-1.6 0.9-0.3 1.2-1 1.3-1.8 0.1-0.6 0.1-1.1 0.1-1.7V864v-0.3c0-2.3-0.1-2.5-2.1-3.6V859h19.5v6.2h-2.7c-0.2-0.5-0.5-1.1-0.7-1.7-0.6-1.4-1.6-2.1-3.2-2.1h-4.6v9.2c3.5 0.6 4.1 0.4 5.3-2.6 0.3 0 0.6-0.1 1-0.1 0.3 0 0.6 0 1.2 0.1v8h-2.1c-1.6-3-1.6-3-5.3-2.6 0.1 3.1 0.1 6.4 0.1 10zM338.8 873.4c-0.3 0.7-0.4 1.3-0.8 1.4-1.1 0.6-1.4 1.5-1.4 2.6v7c0 0.3 0 0.6-0.1 1l-2.7 0.6c-0.5-0.4-0.9-0.8-1.5-1.3-1.9 0.9-3.9 1.5-6 1.3-1-0.1-2.1-0.2-3.1-0.4-3.4-0.8-5.6-2.9-6.7-6.2-1.4-4.1-1.5-8.3-0.3-12.5 1.4-5.1 5.3-8.1 10.6-8.4 2.7-0.2 5.4 0 8.1 0.7 0.3 0.1 0.7 0.2 1.1 0.4v5.5h-2.6c-0.1-0.3-0.3-0.7-0.5-1.1-1.2-2.9-4-4-6.9-2.6-1.2 0.6-2.1 1.6-2.7 2.8-0.9 1.7-1.3 3.6-1.5 5.6-0.2 3-0.2 6 0.6 8.9 0.3 1.2 0.9 2.4 1.6 3.5 0.7 1.1 1.9 1.6 3.2 1.6 1.6-0.1 2.8-0.8 2.9-2.5 0.2-1.6 0.1-3.2 0.1-4.8 0-0.7-0.5-1.3-1.2-1.5-0.9-0.3-0.8-0.8-0.6-1.6h10.4zM793 885.9c-0.1-0.7-0.2-1.2 0.6-1.5 1.2-0.5 1.4-0.9 1.3-2.2 0-0.6-0.1-1.1-0.3-1.7-0.2-1-0.5-1.9-0.8-2.9h-8.4c-0.4 1.3-0.9 2.7-1.2 4.1-0.3 1.4 0.1 2.1 1.4 2.7 0.7 0.3 0.6 0.7 0.5 1.4h-8.3c-0.2-0.7-0.3-1.2 0.6-1.5 1.2-0.5 1.7-1.6 2.1-2.8 1-2.5 1.9-5 2.8-7.5 1.7-4.6 3.4-9.2 5.2-13.8l0.6-1.5h5.3c0.2 0.6 0.4 1.1 0.5 1.7 2 6.7 4 13.5 6 20.2 0.2 0.6 0.3 1.3 0.7 1.9 0.4 0.6 0.8 1.3 1.4 1.6 0.7 0.4 0.9 0.8 0.6 1.6-3.4 0.2-6.9 0.2-10.6 0.2z m0.2-10.7c-1-3.5-2-6.9-2.9-10.3h-0.4c-1.2 3.4-2.4 6.8-3.6 10.3h6.9zM538.5 885.3v-6h2.6c0.3 0.7 0.5 1.4 0.8 2 1.2 2.5 4.7 3.4 7 1.8 1.7-1.2 2-4.3 0.3-6-0.9-1-2.1-1.6-3.3-2.4-1.3-0.9-2.7-1.5-4-2.5-1.6-1.2-2.7-2.8-3-4.8-0.6-3.3 0.8-6.2 3.8-7.7 0.9-0.4 1.8-0.7 2.8-0.9 3.4-0.6 6.8-0.3 10.3 0.5v5.7h-2.6c-0.2-0.5-0.4-1.1-0.7-1.7-1.1-2.4-4.3-3.3-6.5-1.8-1.6 1.1-1.9 3.5-0.6 5.2 0.5 0.6 1.1 1.1 1.7 1.6 0.9 0.6 1.9 1.1 2.8 1.6 1 0.6 2.1 1.2 3 1.9 2.9 2.2 3.7 5.1 2.8 8.5-0.8 3.2-3.1 4.8-6.2 5.5-2.9 0.6-5.8 0.2-8.7-0.1-0.6-0.1-1.4-0.3-2.3-0.4zM474 885.9h-10.7v-1.2c2.1-0.9 2.2-1 2.2-3.2v-18.9c0-0.4-0.1-0.7-0.1-1-3.4-0.6-4.1-0.1-5.8 4.4h-2.5v-6.7c1.1-0.3 20.4-0.4 23-0.1v6.7h-2.5c-1.9-4.5-2.4-4.9-5.8-4.3 0 0.4-0.1 0.8-0.1 1.2v19.7c0.1 1 0.5 1.8 1.5 2 1 0 1 0.5 0.8 1.4zM356.8 858.9h7.7c0.2 0.6 0.3 1-0.3 1.4-0.8 0.6-1.7 1.3-2.1 2.2-2.3 4.1-4.5 8.2-6.7 12.4-0.2 0.4-0.3 0.9-0.3 1.4v5.3c0 1.3 0.3 2.4 1.8 2.7 0.6 0.1 0.6 0.2 0.4 1.4h-10.5c-0.4-1.1-0.4-1.1 0.6-1.5 1-0.4 1.4-1 1.4-2 0-2.1 0.1-4.3 0-6.4 0-0.4-0.2-0.8-0.4-1.2-1.9-3.9-3.7-7.8-5.6-11.7-0.5-1.1-1-2.2-2.2-2.7-0.3-0.1-0.3-0.7-0.5-1.3h10.5c0.2 0.6 0.2 1-0.3 1.4-1 0.7-1.2 1.2-0.9 2.3 0 0.2 0.1 0.3 0.2 0.4 1.3 2.9 2.6 5.8 3.9 8.9 0.4-0.8 0.7-1.3 1-1.9 0.9-1.8 1.8-3.6 2.7-5.5 0.4-0.8 0.6-1.7 0.8-2.5 0.2-0.8 0-1.5-0.9-1.8-0.5-0.1-0.5-0.6-0.3-1.3zM890.7 884.6c0 0.3 0.1 0.5 0.1 0.7 0 0.1-0.1 0.3-0.1 0.5h-10.6c-0.3-0.7-0.3-1.3 0.7-1.5 1.1-0.2 1.5-1.1 1.5-2.1v-6.3c0-0.4-0.2-0.8-0.3-1.2-1.8-3.9-3.7-7.8-5.6-11.7-0.5-1.1-1-2.2-2.2-2.8-0.3-0.1-0.3-0.7-0.5-1.3h10.6c0.2 0.6 0.2 1.1-0.5 1.4-0.9 0.3-0.9 1-0.8 1.8 0 0.3 0.1 0.5 0.2 0.8 1.3 3 2.6 5.9 4 9.1 0.3-0.5 0.6-0.9 0.7-1.2 1-1.9 1.9-3.8 2.9-5.7 0.4-0.8 0.7-1.6 0.9-2.5 0.2-0.9 0.1-1.8-0.9-2.2-0.7-0.3-0.6-0.8-0.4-1.4h7.7c0.2 0.6 0.3 1.1-0.3 1.4-1.1 0.5-1.8 1.5-2.3 2.5-2.2 4-4.4 8.1-6.5 12.1-0.2 0.4-0.3 1-0.3 1.5v5c-0.2 2 0 2.3 2 3.1zM106.6 865.8H104v-6.6c1.1-0.4 21.1-0.5 23.2-0.1v6.7h-2.7c-0.1-0.4-0.3-0.8-0.4-1.2-1-2.9-1.9-3.6-5.3-3.2 0 0.4-0.1 0.8-0.1 1.2v19.1c0 1.5 0.4 2.8 2.3 2.8 0 0.5 0.1 0.9 0.1 1.4h-10.8c0-0.4-0.1-0.8-0.1-1.2l0.9-0.3c0.8-0.3 1.3-0.8 1.3-1.7 0-0.6 0.1-1.1 0.1-1.7v-18.2c0-0.4-0.1-0.8-0.1-1.2-3.2-0.8-4-0.2-5.8 4.2zM567.8 861.4c-3.6-0.4-4-0.1-5.8 4.4h-2.6v-6.6c1-0.4 20.7-0.5 23.2-0.1v6.7H580c-0.1-0.3-0.3-0.8-0.4-1.2-1-2.9-1.9-3.6-5.3-3.2 0 0.4-0.2 0.7-0.2 1.1v19.3c0 1.5 0.6 2.5 2.2 2.7 0 0.4 0.1 0.8 0.1 1.3h-10.9v-1.2c0.3-0.1 0.6-0.2 0.8-0.3 0.8-0.3 1.3-0.8 1.4-1.7 0-0.6 0.1-1.1 0.1-1.7v-18.2-1.3zM851.1 865.8h-2.6v-6.6c1.1-0.4 20.9-0.5 23.2-0.1v6.7H869c-0.1-0.4-0.3-0.8-0.4-1.2-1-2.9-1.9-3.6-5.3-3.2 0 0.4-0.1 0.8-0.1 1.1v19.1c0 1.5 0.4 2.8 2.3 2.8 0 0.5 0.1 0.9 0.1 1.4h-10.8c0-0.4-0.1-0.8-0.1-1.2l0.9-0.3c0.8-0.3 1.3-0.8 1.4-1.7 0-0.6 0.1-1.1 0.1-1.7v-18.2c0-0.4-0.1-0.8-0.1-1.2-3.2-0.7-4.1-0.1-5.9 4.3zM174.1 859.6v5.6h-2.6c-0.2-0.5-0.3-0.9-0.5-1.3-1.2-3.1-4.6-4-7.1-1.7-0.6 0.6-1.2 1.4-1.5 2.1a15 15 0 0 0-1.1 3.6c-0.6 3.5-0.6 7.1 0.2 10.6 0.3 1.1 0.8 2.3 1.4 3.3 1.1 1.8 3 2.4 5.5 1.7 1.1-0.3 1.8-1.1 2.2-2.1 0.3-0.7 0.5-1.4 0.8-2.2h2.6v6c-4 0.9-8 1.5-12.1 0.4-3-0.8-5.2-2.7-6.2-5.7-1.6-4.6-1.7-9.3 0-13.9s5.1-7 9.9-7.4c3.3-0.3 6.2 0.1 8.5 1zM272.5 883.3h4.4c1.3-0.1 2.2-0.9 2.7-2.1 0.5-1.1 0.8-2.2 1.2-3.5h2.5c0.2 2.6-0.2 5.2-0.3 7.8-1.2 0.3-15.2 0.5-18.7 0.2-0.2-0.6-0.4-1.2 0.6-1.5 1-0.3 1.3-1.1 1.3-2.1 0-0.7 0-1.5 0.1-2.2v-15.3-2c0-1-0.3-1.8-1.3-2.1-0.8-0.3-0.9-0.8-0.6-1.5h10.1c0.3 0.8 0.2 1.3-0.6 1.5-0.9 0.3-1.2 1.1-1.3 1.9 0 0.4-0.1 0.7-0.1 1.1v18.8c-0.1 0.2 0 0.5 0 1zM844.8 885.8h-10.1c-0.3-0.7-0.4-1.3 0.6-1.6 0.9-0.3 1.3-1 1.3-2 0-0.7 0.1-1.5 0.1-2.2v-15.6-1.9c0-1-0.3-1.7-1.3-2.1-0.8-0.3-0.9-0.8-0.6-1.5H845v1.3c-1.9 0.4-2.1 1.9-2.1 3.5v17.4c0 0.5 0 0.9 0.1 1.4 0.1 0.8 0.4 1.5 1.3 1.8 0.7 0.1 0.7 0.7 0.5 1.5zM408 851.9h4.6v40.9H408zM629.4 851.9h4.6v40.9h-4.6z" p-id="3723"></path><path d="M326 603.4c1.2 4.9 2.3 9.8 3.5 14.7 6.2 25.5 12.5 50.9 18.7 76.4 6.5 26.7 13.1 53.4 19.6 80.1 2.4 9.7 4.8 19.5 7.2 29.2 0.1 0.4 0.1 0.8 0.3 1.4-8.4 1.2-16.8 2.3-25.4 3.6l-34.8-145.2h-0.3c-11.2 48.4-22.5 96.7-33.8 145.2-9.2-1.2-18.3-2.3-27.6-3.5 0.1-0.6 0.2-1.1 0.3-1.5 10-38 20-76.1 30-114.1l18-68.4c0.3-1 0.7-1.6 1.5-2.2 7-4.8 14-9.7 21-14.5 0.5-0.3 0.9-0.8 1.4-1.2h0.4zM783.9 603.4c0.8 3.2 1.7 6.5 2.5 9.7 7 28.3 13.9 56.7 20.8 85 6.4 26.3 12.9 52.6 19.4 78.9 2.2 9 4.4 18.1 6.6 27.2 0.1 0.3 0.1 0.6 0.2 1-8.5 1.2-16.9 2.3-25.4 3.5-2.3-9.7-4.7-19.4-7-29-2.3-9.7-4.6-19.4-7-29.1-2.3-9.7-4.7-19.3-7-29s-4.6-19.4-7-29.1c-2.3-9.6-4.6-19.3-7-28.9h-0.3c-11.2 48.3-22.5 96.6-33.7 145.1-9.2-1.2-18.3-2.3-27.6-3.5 0.2-0.7 0.3-1.3 0.4-1.9 12.4-46.9 24.7-93.9 37.1-140.8 3.6-13.7 7.2-27.5 10.8-41.2 0.3-1 0.8-1.7 1.6-2.3 7-4.8 14-9.7 21-14.5 0.4-0.3 0.8-0.7 1.2-1.1h0.4zM53.1 609.6c0.6 0 1.1-0.1 1.7-0.1h33.7c8.1 0 16.1 0.5 24 2.3 4 0.9 8 2 11.7 3.8 9 4.3 14.9 11.3 18.6 20.4 2.2 5.4 3.3 11 4.1 16.8 1 8.5 1.1 17 0.6 25.5-0.5 7.6-1.4 15.2-4 22.4-1.5 4.3-3.5 8.3-6.4 11.7-4.5 5.4-10.3 8.7-17 10.7-4.7 1.4-9.6 2-14.4 2.5-8.1 0.8-16.3 0.6-24.4 0.6h-1.7l-0.2 0.2-0.1 0.1v78.4s0 0.1-0.1 0.2c-0.3 0-0.6 0.1-0.9 0.1H54c-0.2 0-0.4-0.1-0.6-0.1-0.3-65.1-0.3-130.3-0.3-195.5z m26.1 97.7c0.4 0 0.7 0.1 1 0.1h8.7c4.3-0.1 8.6-0.5 12.9-1.5 4.1-1 7.8-2.5 10.8-5.7 2.1-2.3 3.6-4.9 4.7-7.7 1.7-4.4 2.4-9 2.8-13.6 0.6-6.9 0.6-13.8 0-20.7-0.4-4.2-1.1-8.4-2.5-12.4-2.3-6.6-6.5-11.4-13.2-13.8-1.1-0.4-2.3-0.7-3.4-1-7-1.8-14.2-1.7-21.4-1.5-0.1 0-0.2 0.1-0.3 0.2-0.1 25.7-0.1 51.6-0.1 77.6zM589 603.4c0.9 1.5 1.7 3.1 2.6 4.6 2.3 3.9 4.5 7.8 6.8 11.8 0.3 0.4 0.5 0.9 0.8 1.5-2 0.6-3.9 1.1-5.7 1.7-7.1 2.1-14.2 4-21.2 6.2-5.4 1.7-10.5 4.2-15.1 7.7-5.5 4.3-9.1 9.7-10.4 16.6-0.2 1.3-0.3 2.5 0 3.8 1 4.4 2.6 8.5 5 12.4 14.3 23.8 28.7 47.6 43 71.4 7.5 12.4 7.6 29.3-4.2 42.3-7.4 8.1-16.4 13.8-26.6 17.8-5.2 2-10.6 3.3-16 4.8-5.3 1.5-10.6 2.9-15.9 4.3-0.3 0.1-0.7 0.1-1.2 0.3-3.5-6-7-12-10.6-18.2 0.5-0.2 0.9-0.3 1.3-0.4 8.3-2.1 16.7-4 25-6.2 6.3-1.6 12.1-4.4 17.1-8.7 3.5-3.1 6.3-6.7 7.6-11.2 1.6-5.6 0.9-11-1.4-16.3-0.5-1.2-1.2-2.4-1.9-3.5-13.9-23-27.9-46-41.9-69-3.9-6.4-6.4-13.2-7.3-20.7-0.3-2.7 0.2-5.4 0.9-8.1 1.8-7.5 5.7-13.7 11-19.2 6.5-6.7 14.3-11.4 22.9-15 6-2.5 12.3-4.1 18.5-5.9 4.9-1.4 9.8-2.7 14.7-4.1 0.5-0.1 0.9-0.4 1.4-0.6 0.3-0.1 0.6-0.1 0.8-0.1zM850.2 609.6c0.5 0 0.9-0.1 1.3-0.1 13.6 0 27.2-0.1 40.8 0.2 7.9 0.1 15.8 1.3 23.5 3.6 12.2 3.7 20.3 11.6 24.9 23.3 2.1 5.4 3.3 11 4 16.6 0.8 6.1 1.1 12.2 0.9 18.4-0.2 8.2-0.9 16.4-3.4 24.3-1.2 4-2.7 7.9-4.8 11.5-3.6 6.3-8.7 10.9-15.4 13.7-2.7 1.1-5.4 2.3-8.1 3.4l-1.4 0.7c12.1 26 24.2 51.9 36.4 78.1-7.6 2.1-15.1 4.1-22.7 6.2-15.2-34.1-30.4-68-45.6-102.2 0.7 0 1.3-0.1 1.8-0.1 3-0.1 6.1-0.1 9.1-0.2 3.7-0.2 7.3-0.9 10.7-2.1 3.6-1.2 6.4-3.4 8.6-6.5 2.9-3.9 4.5-8.4 5.4-13.2 1.4-7.8 1.7-15.6 1-23.4-0.4-5-1.1-9.9-2.6-14.7-1.2-3.7-2.9-7.2-5.6-10-3.3-3.5-7.5-5.2-12-6.2-3.7-0.8-7.4-1.2-11.2-1.3h-9.5v175.7h-26.1V609.6zM491 603.9c9.1 2.1 17.9 4.2 26.9 6.3C483.6 677.5 449.3 744.7 415 812c-8.3-2.8-16.4-5.6-24.8-8.4 0.3-0.7 0.6-1.3 0.9-1.8 11.8-23.2 23.6-46.3 35.4-69.5 0.5-1 1.3-2 1.4-3.1 0-1-0.7-2-1.1-3-16.5-38.1-33-76.1-49.5-114.2-0.2-0.5-0.4-1-0.7-1.7 8.7-2.1 17.4-4.2 26.2-6.3 13.7 31.5 27.5 62.9 41.3 94.6 15.6-31.7 31.2-63.1 46.9-94.7zM164.3 609.6h26.8v175.8h43.8c1.3 0 2 0.4 2.5 1.6 2.6 5.5 5.3 11 7.9 16.4 0.2 0.5 0.5 1 0.7 1.4 0 0.2 0 0.2-0.1 0.3l-0.1 0.1c-26.9 0-53.8 0-80.7 0.1-0.2 0-0.5-0.1-0.8-0.1V609.6zM644.4 629.4h-25.9c0.2-1.3 6.9-15 9.7-19.8h72.4c-3.5 6.7-7 13.2-10.6 19.8h-19v175.8c-2.3 0.2-4.5 0.1-6.7 0.1h-19.8c-0.1-58.7-0.1-117.2-0.1-175.9z" p-id="3724"></path><path d="M747.6 775.5h50.5c0 0.1 0.1 0.1 0.1 0.2v0.1L797 777c-7.9 7.7-15.9 15.3-23.9 23.1-8.6-8.2-17-16.2-25.5-24.3-0.1-0.1-0.1-0.2 0-0.3zM315 800.2c-8.6-8.2-17.1-16.3-25.8-24.6h51.3c-8.7 8.3-17.1 16.4-25.5 24.6z" p-id="3725"></path><path d="M328.6 568.9L447.3 480l45.3-249.3c0.6-3.1 4.9-3.5 6-0.5L576.9 443l38.7 23-93.8-354.7c-0.8-2.9-4.7-3.1-5.9-0.4l-192 454.4c-1.3 2.9 2.1 5.5 4.7 3.6z" p-id="3726"></path><path d="M443.7 241.2l-19.1 45.3c-0.4 1-1.4 1.7-2.5 1.9l-77.5 10.1c-2.9 0.4-3.7 4.2-1.2 5.7l271 161.1c0.7 0.4 1.2 1.1 1.4 1.9l25.4 95.4c0.8 2.9-2.6 5.1-4.9 3.2L203.2 229.2c-2.4-1.9-1-5.7 2.1-5.5L441 236.9c2.2 0.1 3.6 2.4 2.7 4.3zM745.1 254l-188.5-10.9 7.7 29.2 70.5-8.5c3-0.4 4.7 3.3 2.5 5.3l-44.6 42.2c-0.8 0.8-1.2 2-0.9 3l10.7 40.1c0.6 2.1 3 3 4.8 1.8l139.4-96.7c2.5-1.5 1.4-5.3-1.6-5.5z" p-id="3727"></path></svg>