<?xml version="1.0" standalone="no"?><!DOCTYPE svg PUBLIC "-//W3C//DTD SVG 1.1//EN" "http://www.w3.org/Graphics/SVG/1.1/DTD/svg11.dtd"><svg t="1574732068035" class="icon" viewBox="0 0 1024 1024" version="1.1" xmlns="http://www.w3.org/2000/svg" p-id="614" xmlns:xlink="http://www.w3.org/1999/xlink" width="200" height="200"><defs><style type="text/css"></style></defs><path d="M985.3 472c-41.3-84.3-131.4-80.5-131.5-80.5-51.8 0-82.6 26.2-100.1 41.2-6.7-17.4-20.5-27.8-45.1-27.5v68.6l-60.4 56.5c0-72.6-62.8-138.3-146.1-138.3-45.8 0-80.4 24.5-101.3 42.9v-58c0-24.7-3.6-65.4-53.5-65.4v176.3c10.2 6.2 26.9 5.8 36.8 5.8 56 0 52.9-48.7 118.2-48.7 50.7 0 91.1 44.5 91.1 95.5 0 50-43.7 91.6-91.1 91.6-45.6 0-63.3-23.9-95-56.5-48-49.2-96.5-97.9-145.4-146.2-23.2-22.8-61.4-37-96.9-37-41.2 0-71.2 19-91.1 35.1v-52.6c0-24.4-10.1-62.4-44.6-62.4h-8.9v222.2c-0.2 63.4 45.7 150.1 146.3 150.1 83.1 0 115.5-60.4 154-95.5-95.7-26.7-78.4 42.9-155.9 42.9-56.1 0-91.4-47.2-91.6-93.6-0.2-37.3 28.2-91.6 89.7-91.6 52.4 0 67.8 24.9 93.6 50.7l124.7 124.7c39.8 39.8 65.7 62.4 122.8 62.4 50.6 0 80.3-22.6 107.2-46.8 31.1-28 67.5-62.5 97.5-89.7v136.6c37.5 0 53.5-29 53.5-59.5V499.2c13.2-13 28.1-27 41-37.1 11.8-9.2 26.7-15.6 46.8-15.6 34 0 49.6 9.1 62.5 19.5 17.7 14.4 35.1 39.3 35.1 64.4v89.1c0 33 9.5 65.4 53.5 65.4V540.6c-0.1-24.1-7.1-50.8-15.8-68.6z m-250.6-87h1.9s29.4-23.9 29.4-43.2c0-16.6-11.6-31.4-29.4-31.4h-1.9c-16.4 0-29.4 10.9-29.4 31.4 0 19.7 29.4 43.2 29.4 43.2z" p-id="615"></path></svg>