<?xml version="1.0" standalone="no"?><!DOCTYPE svg PUBLIC "-//W3C//DTD SVG 1.1//EN" "http://www.w3.org/Graphics/SVG/1.1/DTD/svg11.dtd"><svg t="1574762765221" class="icon" viewBox="0 0 1024 1024" version="1.1" xmlns="http://www.w3.org/2000/svg" p-id="9454" xmlns:xlink="http://www.w3.org/1999/xlink" width="200" height="200"><defs><style type="text/css"></style></defs><path d="M489.2 155h12.4c1.5 2.5 2.3 5.2 4 6.3 25.8 15.8 51.7 31.3 77.5 47 26.3 16 52.6 32.2 78.9 48.3 26.5 16.3 53.1 32.5 79.6 48.7 17.4 10.6 35 20.9 52 31.9 2.8 1.8 4.6 6.9 5 10.7 0.8 6.8 0.3 13.8 0.3 20.7 0 102.6-0.1 205.1 0.2 307.7 0 8.9-3.1 14-10.3 18.1-32.8 18.6-65.6 37.2-98.3 56-32.7 18.8-65.1 37.9-97.7 56.9-25.9 15-51.7 30.1-77.8 44.6-2.8 1.6-8 1.4-10.8-0.2-48.6-28.4-96.8-57.3-145.3-85.8-44.6-26.3-89.4-52.2-134.1-78.3-4.1-2.4-9-4.2-12.2-7.5-3.2-3.4-6.2-8.2-6.5-12.6-0.8-13.5-0.3-27-0.3-40.6 0-94.1 0.1-188.3-0.1-282.4 0-8.2 2.1-13.3 9.9-18 53.6-32.2 106.8-65.2 160.1-97.9 36.2-22.2 72.4-44.5 108.5-66.9 2.1-1.3 3.1-4 5-6.7zM234.1 504c0 48.4-0.2 96.8 0.3 145.2 0 5 2.8 11.1 6.3 14.7 4.2 4.3 10.6 6.6 16 9.7 23.3 13.6 46.5 27.2 69.8 40.8 23.7 13.9 47.4 28 71.1 42 23.7 14 47.3 28.1 71.1 41.9 3.1 1.8 7.1 2.2 10.7 3.2 1-3.6 2.8-7.1 2.8-10.7 0.1-95-0.1-190 0.2-285.1 0-9.8-3.8-15.2-11.6-19.2-2.1-1.1-4.4-2-6.5-3.2-28.2-16.4-56.3-32.8-84.5-49.1-7.1-4.1-11.9-1.4-11.9 6.6-0.1 25-0.4 49.9 0.2 74.9 0.1 4.7 3 10.9 6.7 13.6 8.9 6.5 19.5 10.6 28.4 17.1 4.5 3.3 9.4 9.6 9.5 14.6 0.9 32.1 0.6 64.3 0.5 96.5 0 6.7-3.6 9.2-9.2 6-26.7-15.3-53.1-31.3-80.1-46.2-9.7-5.4-11.7-12.4-11.7-22.7 0.4-61 0.6-122.1-0.1-183.1-0.1-11.6 4.6-17.5 13.4-22.8 22.7-13.4 45.1-27.2 67.6-40.9 30.4-18.6 60.6-37.4 90.9-56.1 6.6-4.1 13-3.9 19.2 1 2.1 1.7 4.3 3.2 6.6 4.7 25.5 15.7 51 31.3 76.5 47 6 3.7 5.9 9.2 0 12.7-4.9 2.9-9.9 5.6-14.8 8.5-24.3 14.7-48.6 29.5-73 44.2-5 3-5.3 6.1-0.3 9.5 14.9 10.1 29.6 20.4 44.8 29.9 2.9 1.8 8.4 2 11.4 0.5 12.3-6.2 24.1-13.3 36-20.2l71.4-41.4c24.3-14.1 48.8-28.1 73-42.4 7.8-4.6 7.4-7.2-0.4-11.9-13.3-8.1-26.7-16.1-40-24.2-22.7-13.9-45.4-27.9-68.1-41.8-22.3-13.8-45-27.8-67.7-41.6-18.6-11.4-37.4-22.6-56-34.1-5.3-3.3-9.9-3.2-15 0.2-7.5 5-15.1 9.7-22.8 14.4-34.8 21.2-69.6 42.2-104.3 63.5-38.8 23.8-77.2 48.2-116.2 71.6-7.7 4.6-10.3 9.7-10.3 18 0.2 48 0.1 96.1 0.1 144.2z m452.3 63.9v-96.5c0-3.6 0.6-7.3 0.1-10.8-0.8-5.1-3.9-6.8-8.2-3.2-25 21.1-49.5 42.7-74.9 63.3-10.1 8.2-16.8 16.8-14.2 30.3 0.6 3.3 1.9 6.5 2.8 9.7 2.8-1.3 6.1-2.1 8.4-4.1 12-10 23.6-20.4 35.7-30.3 2.5-2.1 6.2-2.8 9.3-4.1 0.9 3 1.9 6 2.6 9.1 0.3 1.1-0.1 2.4-0.1 3.6 0 52.3-0.3 104.6 0.3 156.9 0.1 9.5-3.8 14.6-11 18.7-10.7 6-21.2 12.5-32.2 17.7-12.4 5.9-16.5 15.3-14.7 28.4 1 7.4 4 9.8 10.7 6.6 5.4-2.6 10.4-5.9 15.5-8.9 33.9-19.6 67.8-39.3 101.8-58.8 13.9-7.9 29-14.3 24.9-35.2-1.4-6.8-4.1-9.3-10.2-5.8-11.7 6.7-23.2 13.6-34.9 20.3-2.9 1.7-6.1 2.7-9.2 4-0.8-3.6-2.4-7.3-2.4-10.9-0.2-33.3-0.1-66.7-0.1-100z" p-id="9455"></path></svg>