<?xml version="1.0" standalone="no"?><!DOCTYPE svg PUBLIC "-//W3C//DTD SVG 1.1//EN" "http://www.w3.org/Graphics/SVG/1.1/DTD/svg11.dtd"><svg t="1574756479819" class="icon" viewBox="0 0 1024 1024" version="1.1" xmlns="http://www.w3.org/2000/svg" p-id="2313" xmlns:xlink="http://www.w3.org/1999/xlink" width="200" height="200"><defs><style type="text/css"></style></defs><path d="M224.7 340.3c27.8-3 53.9 4.9 79.6 13.6 20.9 7.1 41 15.9 59.3 28.5 6.4 4.4 12 10.1 18 15.2 0.9 0.8 1.4 1.9 2.4 3.1-6.6-0.9-12.6-1.9-18.7-2.5-8.6-0.8-17-0.1-24.9 3.6-5.2 2.4-6.3 4.7-5.2 10.3 2.1 11.1 8 20.2 15.5 28.4 14.9 16.5 34 25.4 55.4 30.3 12.9 2.9 26.1 3.5 39.2 3.7 4 0.1 8.1 0 12.2 0 0-0.2 0-0.7-0.2-1.1-11.5-22.7-22.4-45.6-36.5-66.9-17.6-26.4-41.6-45.3-69.5-59.6-8.1-4.2-16.4-8.1-24.6-12.4 14.8-0.2 29.6 0.4 44.1 3.5 14.4 3 28.5 7 42.6 10.6 9.6-52 35.9-97.1 66-140.4 6.3-9.1 13.3-17.7 20.5-27.2 2.9 4.4 5.5 8 7.6 11.8 8.4 15.3 13.4 31.9 17.4 48.7 6.3 26.4 10 53.1 8.3 80.3-0.5 8-2.7 15.9-4.2 23.8-0.2 1.3-0.9 2.4-1.6 4.1-2.4-5.9-4.3-11.4-6.8-16.7-3.6-7.8-8.1-14.9-15.2-20.1-5.4-4-8.1-3.9-13 0.6-10 9.1-15.2 21-18.2 33.8-5.1 21.4-2.4 42.4 5.7 62.5 5.5 13.8 12.7 27 19.3 40.9 1-0.9 1.4-1.2 1.6-1.6 13.8-20.9 28.1-41.5 39.3-64 12-24.1 17.8-49.6 17.5-76.4-0.2-13.4-1.3-26.7-2-40.1v-3.1c15.1 26.6 26.3 53.7 30.4 83.5 62.3-21 125.4-17.8 188.7-9.4 0.2 0.5 0.5 1 0.7 1.4-2.9 5.1-5.4 10.4-8.7 15.3-10.4 15.6-23.4 28.8-37.2 41.2-18.6 16.6-38.4 31.5-60.9 42.5-7.8 3.8-15.9 7-25.8 8 1.4-1.6 2.2-2.5 3-3.5 7.6-8.8 14.8-17.9 17.4-29.5 2.5-11.5 1.5-14-10.8-16.5-15.3-3.1-30.1 0-44.2 6.2-20.9 9.2-36.5 24.7-49.4 43.1-5.9 8.5-11.1 17.6-17 26.9 4.1 0.3 7.6 0.6 11.1 0.7 22 0.5 44 1.6 66 1.1 27.2-0.7 52.4-9.5 75.7-23.2 10.8-6.3 21.1-13.5 31.6-20.3 1-0.7 2-1.4 3.2-1.8-14.8 25.8-32.8 49-56.7 67.5 3 2.6 5.8 4.9 8.5 7.4 18.3 16.5 33.1 35.9 46.4 56.6 18.2 28.4 33.6 58.2 45.7 89.7 0.6 1.6 1.1 3.2 1.9 6-7.3 0-14 0.5-20.6-0.1-22.8-2-44.6-8.4-66-16.3-18.6-6.9-36.5-15.2-53-26.3-7.3-4.9-14.2-10.4-19.9-18.1 6.6 0.9 12.6 1.9 18.6 2.5 7.8 0.8 15.5 0.2 22.9-2.6 7.5-2.8 9.4-5.9 6.9-13.5-2.1-6.3-4.9-12.7-8.6-18.2-12.9-18.8-31.3-29.7-52.8-36-13.3-3.9-26.9-5.7-40.8-5.8h-19.5c0-0.1 0 0.3 0.1 0.6 11.4 22.7 22.3 45.7 36.4 66.9 17.6 26.5 41.7 45.5 69.7 59.9 8.2 4.2 16.5 8.1 24.7 12.4-14.8 0.2-29.6-0.4-44.1-3.5-14.4-3-28.5-7-42.1-10.4-3.4 12-6.4 25.2-11 37.8-13.7 38.5-34.6 73.1-58.3 106.2-5.5 7.7-11.5 15-17.7 23.1-2.1-2.9-3.9-5-5.3-7.3-6.9-11-11.4-23.1-15.1-35.5-8.6-28.5-13.4-57.6-13.6-87.4-0.1-11.1 0.7-22.1 4.2-32.8 0.5-1.6 1.2-3.2 2.2-5.8 0.8 2.1 1.2 3.3 1.6 4.4 3.2 9.3 6.9 18.5 13.4 26 2.7 3.1 6.1 5.6 9.3 8.2 2.5 2 5.5 1.9 7.8-0.2 3.6-3.3 7.4-6.6 10.1-10.6 11.2-16.6 14.6-35.2 12.9-54.8-1.6-18.6-7.4-36-16.4-52.3-3.8-6.9-7.4-13.8-11-20.7-0.5 0.2-0.8 0.2-0.9 0.3-14.2 21.5-28.9 42.7-40.3 66-12.9 26.2-17.8 53.9-16.9 82.9 0.4 11.5 1.2 23 1.8 34.2-2.7-2.4-14.4-25.3-19-39.4-4.6-14-8.2-28.4-12.3-42.7-6.5 2-13.7 4.4-21 6.3-28.2 7.3-57 9.2-86 9.1-25.7-0.1-51.4-1.8-76.8-6.1-1.4-0.2-2.9-0.5-4.3-0.8v-0.7c4.8-7.8 8.8-16.2 14.4-23.4 20.7-26.5 46.1-47.9 74.5-65.9 10.3-6.5 21-12.2 32.8-15.7 3.2-0.9 6.5-1.5 10.7-2.4-3.8 4.7-6.9 8.3-9.8 12.1-5.3 7.2-9.8 14.7-11.2 23.7-1.4 8.8 0.1 11.1 8.8 13.4 10.5 2.7 21 2 31.4-0.5 20.9-5 37.6-16.9 52.1-32.4 11.7-12.5 19.7-27.5 28.9-41.7 0.2-0.2 0-0.7 0-2-24.3-0.5-48.5-1.5-72.7-1.2-22.2 0.3-43.5 5.8-63.7 15.3-16.8 7.9-32.3 17.8-47.3 28.5-1.1 0.8-2.2 1.5-3.4 2.3 14.9-26.1 32.8-49.5 56.8-68-1.1-1-1.8-1.6-2.5-2.2-8.5-8.4-17.5-16.2-25.3-25.2-23.5-27-41.4-57.6-56.8-89.6-6.4-13.3-11.9-27.1-17.8-40.7 0.3-0.4 0.3-0.9 0.3-1.4z m275.2 129.5c-16.9 0.1-30.3 13.6-30.3 30.5s13.6 30.4 30.5 30.3c17.1 0 30.7-13.7 30.5-30.7-0.1-16.8-13.7-30.1-30.7-30.1z" p-id="2314"></path></svg>