<?xml version="1.0" encoding="utf-8"?>
<!-- Generator: Adobe Illustrator 23.1.1, SVG Export Plug-In . SVG Version: 6.00 Build 0)  -->
<svg version="1.1" id="圖層_1" xmlns="http://www.w3.org/2000/svg" xmlns:xlink="http://www.w3.org/1999/xlink" x="0px" y="0px"
	 viewBox="0 0 1024 1024" style="enable-background:new 0 0 1024 1024;" xml:space="preserve">
<path d="M330,465.2c6.6-10.5,12.6-19.9,18.5-29.4c10.4-16.7,20.9-33.4,31.3-50.1c8.1-13,16-26,24-39c10.9-17.5,21.9-34.9,32.8-52.3
	c9.3-15,18.6-30,28-44.9c3.8-6,16.4-8.7,21.6-4.9c4.9,3.6,6.6,14.8,2.6,21.4c-8,13.4-16.4,26.6-24.7,39.8
	c-8.7,13.9-17.3,27.7-26,41.6c-7.8,12.6-15.6,25.3-23.5,38c-10.3,16.5-20.8,33-31.1,49.5c-10.5,16.8-21,33.7-31.5,50.5
	c-2.8,4.5-5.4,9.2-8.2,13.7c-7.2,11.6-20,12-27.3,0.6c-18-28.4-35.7-57.1-53.5-85.6c-16-25.6-32-51.2-47.9-76.8
	c-12-19.4-24-38.8-36-58.1c-1.5-2.5-3.4-4.8-5-7c-20.1,6.7-27.4,29.2-15.8,46.8c12,18.3,22.7,37.4,34.1,56.1
	c13.3,21.8,26.7,43.6,40,65.4c13.5,22.2,26.8,44.4,40.2,66.6c11.1,18.2,22.4,36.3,33.5,54.6c5.6,9.3,11.1,18.6,16.7,27.9
	c1.3,2.1,2.9,4.1,4.8,6.8c8-12.7,15.4-24.4,22.8-36.3c13.8-22.2,27.6-44.3,41.3-66.5c12.4-20,24.7-40.1,37.2-60
	c11.8-18.9,23.7-37.7,35.5-56.5c8.4-13.4,16.7-26.9,25-40.3c11.6-18.7,23.2-37.5,34.9-56.2c6.4-10.3,12.7-20.6,19.5-30.7
	c4.3-6.5,11.4-9.6,18.7-9.7c55.6-0.3,111.2-0.4,166.8,0.1c9,0.1,17.9,3.3,26.9,4.8c11.6,1.9,22.1,6.8,32.1,12.5
	c22.2,12.6,38.5,30.7,49,53.9c7.7,17,11.5,35,10.8,53.5c-1,26.7-9.5,50.9-26.2,72.2c-12.8,16.3-29.2,27.2-47.6,35.8
	c-5.1,2.4-10.6,3.8-16.5,5.9c1.1,2,1.8,3.7,2.9,5c13.1,15.5,26.3,30.9,39.4,46.4c15.4,18.2,30.7,36.3,45.9,54.6
	c6.7,8.1,13.6,16,19.4,24.8c5.7,8.7,2.2,18.3-7.4,22.2c-28.6,11.5-57.1,11.6-83.7-4.9c-9.3-5.7-16.6-14.9-24.3-23
	c-7.1-7.5-13.7-15.5-20.3-23.5c-17.3-20.6-34.5-41.3-51.9-61.9c-13.8-16.4-27.8-32.6-41.6-48.9c-12.3-14.5-24.7-28.9-36.7-43.6
	c-7.9-9.6-5.7-21,4.4-25.4c1.9-0.8,4.3-1,6.4-1c33.7-0.1,67.4-0.3,101.2,0.1c16.6,0.2,34-14.4,37-27.9c4-17.9-4.3-37.3-21.1-44.3
	c-4.8-2-10.3-3.2-15.5-3.2c-31.1-0.3-62.3-0.1-93.4-0.2c-3.7,0-7.4-0.4-11-1.1c-8.2-1.6-12.4-7.8-11.5-16.2
	c0.8-6.8,6.6-11.2,14.6-11.2c34.8,0,69.7-0.5,104.5,0.2c25.6,0.5,44.8,12.7,56.9,35.4c7,13,8.7,27.4,6.4,41.3
	c-4.2,25.2-19.3,46.6-49.1,54c-4.8,1.2-9.8,1.8-14.7,1.8c-22,0.2-44.1,0.1-66.1,0.1c-2,0-4,0-7.6,0c4.6,5.7,8.1,10.4,11.9,15
	c19.1,22.8,38.2,45.5,57.3,68.2c13.7,16.2,27.5,32.3,41.3,48.5c9,10.5,18,21,27,31.5c9.9,11.5,22.3,18.3,37.6,19.5
	c3.4,0.3,6.8-0.5,11.4-0.8c-4.4-5.5-7.9-10-11.5-14.4c-18.7-22.4-37.4-44.7-56.2-67c-13.2-15.7-26.5-31.2-39.7-47
	c-3.6-4.3-7.1-8.9-6.9-15.2c0.3-6.9,4.2-11.5,11.2-12.6c9.1-1.4,18.3-2.3,27.2-4.5c19.2-4.8,34.5-15.8,46.8-31.3
	c7.9-9.9,14.3-20.4,17.7-32.7c3-10.9,4.4-21.9,2.4-33.3c-2.7-15.2-7.4-29.6-16.2-42.3c-10.9-15.7-25.3-27.1-43.5-33.4
	c-16.6-5.8-33.9-6.5-51.2-6.6c-43.5,0-87.1,0.3-130.6-0.2c-10.4-0.1-15,6-19.5,13.3c-16.4,26.4-32.8,52.7-49.2,79.1
	c-12.1,19.5-23.9,39.2-36.1,58.7c-13.8,22.2-27.7,44.2-41.6,66.4c-12.1,19.3-24.1,38.7-36.1,58.1c-13,20.8-26,41.5-38.9,62.2
	c-4.5,7.2-8.6,14.7-13.6,21.4c-2.8,3.8-6.8,7.9-11.1,9.3c-8.5,2.8-13.9-0.7-19-9.1c-18.5-30.7-37.2-61.3-55.7-92
	c-14.9-24.7-29.7-49.5-44.7-74.2c-15.3-25.1-30.9-50.1-46.1-75.3c-12.4-20.6-24.8-41.3-36.7-62.2c-5.3-9.3-5.7-20-4.8-30.6
	c1.2-14.5,7.1-26.9,17.7-36.8c8.1-7.7,17.6-13.1,28.9-14.8c1.3-0.2,2.5-0.5,3.8-0.9c9.1-3,16.2-0.9,21.3,7.3
	c15.3,24.3,30.3,48.8,45.4,73.1c14.4,23.1,28.8,46.2,43.2,69.3c12.1,19.5,24.2,39.1,36.3,58.6C323.4,455.1,326.4,459.5,330,465.2z"
	/>
<g>
	<path d="M475.1,704.7c-2.8,7.2-5.6,14.3-8.2,21.5c-2.9,7.8-5.6,15.7-8.4,23.6c-1.4,4.1-2.8,8.2-4.2,12.3c-1.2,3.5-2.8,5.6-7.3,5.7
		c-11.1,0.1-9.2,0.4-12.9-9.9c-5.3-14.4-10.3-28.9-15.3-43.3c-0.9-2.4-1.6-4.9-3.1-7.4c-0.1,1.3-0.3,2.6-0.3,3.9
		c0,17.2,0,34.3,0,51.5c0,4.9-0.2,5.1-5.2,5.1c-8.9,0-8.9,0-8.9-8.7c0-24.5,0-48.9,0-73.4c0-5.3,0-5.3,5.5-5.4c2.9,0,5.8-0.1,8.7,0
		c5.9,0.1,7.4,1.5,9.4,7.3c2.8,8,6.1,15.9,8.9,24c3.4,9.5,6.4,19.1,9.7,28.7c0.4,1.2,1.2,2.2,2.2,4.2c4.6-12.7,8.9-24.4,13.2-36.2
		c2.8-7.9,5.6-15.8,8.4-23.7c1.4-3.8,4-5.1,8.1-4.6c4.1,0.5,8.2,0.3,12.4,0.3c2.4,0,3.3,0.9,3.3,3.3c0,26.9,0,53.7,0,80.6
		c0,2.7-1,3.7-3.8,3.7C476,768,476,768.1,476,757c0-15.4,0-30.9,0-46.3c0-1.9,0-3.9,0-5.8C475.7,704.8,475.4,704.8,475.1,704.7z"/>
	<path d="M703.9,743.5c0-2.5,0-4,0-5.4c0-17.8,0.1-35.6-0.1-53.5c0-3.5,1-4.5,4.5-4.5c9.9,0.2,9.9,0,9.9,9.8
		c0,24.5-0.1,48.9,0.1,73.4c0,3.6-1,4.8-4.5,4.4c-2.5-0.3-5.1-0.4-7.6,0c-5.3,0.9-8.3-1.7-10.9-5.9c-9.5-15.7-19.2-31.3-28.8-46.9
		c-2.1-3.4-4.3-6.7-6.5-10.1c-0.3,0.1-0.6,0.2-1,0.3c0,20.6,0,41.3,0,62.5c-4.2,0-7.9,0.1-11.6-0.1c-0.7,0-1.7-1.2-2-2
		c-0.4-0.9-0.2-2.1-0.2-3.2c0-25.8,0.1-51.6-0.1-77.4c0-3.9,1.1-5.3,5-4.9c2.1,0.2,4.3,0.3,6.4,0c5.8-1,8.9,2.4,11.5,6.7
		c11.2,18.2,22.4,36.4,33.6,54.6C701.9,742,702.5,742.3,703.9,743.5z"/>
	<path d="M206.4,740c-0.3,6.6-0.5,13.3-1,19.9c-0.3,3.8-2.5,5.7-6.3,6.4c-5.3,0.9-10.4,3-15.7,3.5c-5,0.5-10.3,0.1-15.3-0.7
		c-5.1-0.9-10.3-2.2-15.1-4.3c-9.1-4-14.7-11.5-17.3-21c-1.9-6.9-5-13.7-4-21.1c2.6-19,7.6-34.9,30.3-41.9
		c9.4-2.9,19.2-2.8,28.8-0.9c4,0.8,7.8,2.3,11.7,3.2c2.6,0.7,2.5,2.4,2,4.3c-0.6,1.9-1.2,3.7-2,5.5c-1.9,4.4-4.7,4.7-11.2,2.5
		c-13.3-4.4-27.5-3.4-36.3,9.4c-2.5,3.7-4.2,8.4-4.9,12.8c-1.2,8.2-0.4,16.4,3.1,24c5,10.7,15.5,14.3,26.2,13.1
		c10.2-1.1,10.1-1.7,10.1-12.1c0-9.3,0-9.3-9.1-9.3c-0.3,0-0.5,0-0.8,0c-6.8,0-9.3-2.9-8.1-9.8c0.5-3,2.5-4.4,5.7-4.4
		c8,0.1,16,0.2,24,0c3.7-0.1,4.7,1.8,4.7,4.8c0.1,5.3,0,10.6,0,16C206.2,740,206.3,740,206.4,740z"/>
	<path d="M839.6,733.5c-5.1,0-9.6-0.1-14.1,0c-2.8,0.1-3.9-1-3.8-3.7c0.1-1.7-0.2-3.5,0.2-5.2c0.7-3.3,2.5-5.5,6.3-5.5
		c7.7,0,15.4,0.1,23.2,0c3.2,0,4.5,1.2,4.5,4.5c-0.1,11.6,0,23.1-0.1,34.7c0,4.4-2.6,7-6.8,7.9c-4.9,1-9.6,3.1-14.5,3.5
		c-5.8,0.4-11.8,0.2-17.6-1c-5.7-1.1-11.5-3-16.7-5.7c-8.7-4.5-14-12.1-15.2-21.8c-1-8.5-1.9-17.2-1.5-25.7
		c0.8-15.9,8.7-28.1,25.7-34c12-4.2,24-3.6,36.1-1.2c9.6,1.9,10.9,4.9,6.6,13.7c-0.6,1.3-3.1,2.5-4.6,2.3c-4-0.4-8-1.6-12-2.4
		c-11.6-2.4-21.8,0.1-29.2,9.5c-3,3.8-4.8,9.1-5.6,14c-1.5,9.2-0.8,18.5,4.4,26.8c5.5,8.8,14.3,11.3,23.7,10.4
		c13.4-1.3,10.7-1.7,11-12.9C839.7,739.3,839.6,736.8,839.6,733.5z"/>
	<path d="M302.2,698.9c-4.8,13.9-9.4,27-13.9,40.1c-2.4,7-4.9,13.9-7.1,20.9c-2.2,7.1-4.3,8.7-11.7,7.9c-0.9-0.1-1.9,0-2.8,0
		c-5.7,0-5.9-0.5-3.9-5.9c6-15.9,12-31.8,17.9-47.8c3.4-9.2,6.6-18.6,10-27.8c2.1-5.6,4.1-6.7,10.3-6.7c1.1,0,2.1,0.1,3.2,0.1
		c5.3-0.1,7.8,3.1,9.5,7.5c6.2,16.4,12.3,32.9,18.5,49.3c3.2,8.5,6.4,16.9,9.5,25.4c0.6,1.6,0.4,3.4,0.6,5.7
		c-4.8,0-9.6,0.7-13.9-0.3c-2.1-0.4-4.1-3.7-5-6.2c-5-14.4-9.7-29-14.6-43.4C306.8,711.6,304.6,705.6,302.2,698.9z"/>
	<path d="M560.3,767c0-1.3,0-2.7,0-4.1c0-25.8,0-51.5,0-77.3c0-5.3,0-5.3,5.1-5.3c10.1,0,10.1,0,10.1,10c0,24,0,48.1,0,72.1
		c0,5.3,0,5.4-5.3,5.3c-2.8,0-5.6-0.1-8.4-0.1C561.5,767.6,561.1,767.4,560.3,767z"/>
</g>
</svg>
