<?xml version="1.0" standalone="no"?><!DOCTYPE svg PUBLIC "-//W3C//DTD SVG 1.1//EN" "http://www.w3.org/Graphics/SVG/1.1/DTD/svg11.dtd"><svg t="1574850211239" class="icon" viewBox="0 0 1024 1024" version="1.1" xmlns="http://www.w3.org/2000/svg" p-id="962" xmlns:xlink="http://www.w3.org/1999/xlink" width="200" height="200"><defs><style type="text/css"></style></defs><path d="M646.1 221.5c0.4-1.3 0.7-2.6 0.9-3.9 0.3-1.4 0.5-2.8 0.6-4.2 0.1-1.4 0.2-2.9 0.2-4.3l4.5 0.1c0-1.6 0-3.1-0.1-4.7s-0.3-3.1-0.6-4.7c-0.3-1.5-0.6-3.1-1-4.6l-4.4 1.1c-0.4-1.4-0.8-2.8-1.2-4.1-0.5-1.4-1-2.7-1.6-4-0.6-1.3-1.2-2.6-1.9-3.8-0.7-1.2-1.5-2.5-2.3-3.6l3.7-2.5c-0.9-1.3-1.8-2.5-2.8-3.8-1-1.2-2-2.4-3.1-3.5s-2.2-2.2-3.4-3.2l-2.9 3.4c-1.1-0.9-2.2-1.8-3.4-2.7-1.2-0.8-2.4-1.6-3.6-2.3l2.3-3.9c-1.3-0.8-2.7-1.5-4.1-2.2-1.4-0.7-2.8-1.3-4.3-1.8l-1.6 4.2c-1.3-0.5-2.6-0.9-3.9-1.3h-0.2c-1.3-0.4-2.7-0.7-4.1-1-1.4-0.3-2.8-0.5-4.2-0.6-1.4-0.1-2.9-0.2-4.3-0.2s-2.9 0-4.3 0.1l-0.3-4.5c-1.6 0.1-3.1 0.3-4.7 0.6-1.5 0.3-3.1 0.6-4.6 1l1.1 4.4c-1.4 0.4-2.8 0.8-4.1 1.2-1.4 0.5-2.7 1-4 1.6-1.3 0.6-2.6 1.2-3.8 1.9-1.2 0.7-2.5 1.5-3.6 2.3-1.2 0.8-2.3 1.7-3.4 2.6l-2.9-3.5c-1.2 1-2.4 2-3.5 3.1s-2.2 2.2-3.2 3.4c-1 1.2-2 2.4-2.9 3.7l3.7 2.6c-0.8 1.2-1.6 2.4-2.3 3.6-0.7 1.2-1.4 2.5-2 3.8l-4.1-2c-0.7 1.4-1.3 2.8-1.8 4.3-0.5 1.4-1 2.9-1.5 4.4l4.3 1.2c-0.4 1.4-0.7 2.8-1 4.2-0.3 1.4-0.5 2.8-0.6 4.2-0.1 1.4-0.2 2.9-0.2 4.3l-4.5-0.1c0 1.6 0 3.1 0.1 4.7s0.3 3.1 0.6 4.7c0.3 1.5 0.6 3.1 1 4.6l4.4-1.1c0.4 1.4 0.8 2.8 1.2 4.1 0.5 1.3 1 2.7 1.6 4 0.6 1.3 1.2 2.6 1.9 3.8 0.7 1.2 1.5 2.5 2.3 3.6l-3.7 2.5c0.9 1.3 1.8 2.5 2.8 3.8 1 1.2 2 2.4 3.1 3.5s2.2 2.2 3.4 3.2l2.9-3.4c1.1 0.9 2.2 1.8 3.4 2.7 1.2 0.8 2.4 1.6 3.6 2.3l-2.3 3.9c1.3 0.8 2.7 1.5 4.1 2.2 1.4 0.7 2.8 1.3 4.3 1.8l1.6-4.2c1.3 0.5 2.6 0.9 4 1.3h0.2c1.4 0.4 2.7 0.7 4.1 1 1.4 0.3 2.8 0.5 4.2 0.6 1.4 0.1 2.9 0.2 4.3 0.2s2.9 0 4.3-0.1l0.3 4.5c1.6-0.1 3.1-0.3 4.6-0.6 1.5-0.3 3.1-0.6 4.6-1l-1.1-4.4c1.4-0.4 2.8-0.8 4.1-1.2 1.3-0.5 2.7-1 4-1.6 1.3-0.6 2.6-1.2 3.8-1.9 1.2-0.7 2.5-1.5 3.6-2.3 1.2-0.8 2.3-1.7 3.4-2.6l2.9 3.5c1.2-1 2.4-2 3.5-3.1s2.2-2.2 3.2-3.4c1-1.2 2-2.4 2.9-3.7l-3.7-2.6 2.4-3.6c0.7-1.2 1.4-2.5 2-3.8l4.1 2c0.7-1.4 1.3-2.8 1.8-4.3 0.5-1.4 1-2.9 1.5-4.4l-4.3-1.2v-0.3z m-34.5-8.5c0 3.7-3 6.8-6.8 6.8h-12.2c-3.7 0-6.8-3-6.8-6.8v-9.1c0-3.7 3-6.8 6.8-6.8h12.2c3.7 0 6.8 3 6.8 6.8v9.1zM135.6 780.2c-1.2-1.4-3-2.2-4.9-2.2H68.1c-1.7 0-3.4 0.7-4.6 1.9l-22 22c-1.2 1.2-1.9 2.9-1.9 4.6v72.2c0 1.7 0.7 3.4 1.9 4.6l22 22c1.2 1.2 2.9 1.9 4.6 1.9h81.7c3.6 0 6.5-2.9 6.5-6.5V842c0-3.6-2.9-6.5-6.5-6.5h-46.2c-3.6 0-6.5 2.9-6.5 6.5v12.7c0 3.6 2.9 6.5 6.5 6.5h8c3.6 0 6.5 2.9 6.5 6.5v7.3c0 3.6-2.9 6.5-6.5 6.5H89.1c-3.6 0-6.5-2.9-6.5-6.5v-64.7c0-3.6 2.9-6.5 6.5-6.5h17.6c3.6 0 6.5 2.9 6.5 6.5 0 5.1 2.9 6.5 6.5 6.5h30.1c3.6 0 6.5-1.5 6.5-6.5v-4c0-1.6-0.6-3.1-1.6-4.3l-19.1-21.8zM247.1 805.4c-1.1-1.1-2.5-1.6-4-1.6h-59.9c-1.5 0-2.9 0.6-4 1.6l-9.7 9.7c-1.1 1.1-1.6 2.5-1.6 4v4.9c0 3.1 1.4 5.6 5.6 5.6h50c3.1 0 5.6 2.5 5.6 5.6v6.2c0 3.1-2.5 5.6-5.6 5.6h-36.3c-1.5 0-2.9 0.6-4 1.6l-14 13.9c-1.1 1.1-1.7 2.5-1.7 4v21.2c0 1.5 0.6 3 1.7 4l14 13.8c1.1 1 2.5 1.6 3.9 1.6h28.3c1.5 0 2.9-0.6 4-1.6l4.1-4c2.1-2.1 5.6-0.6 5.6 2.4 0 2.7 1.5 3.3 3.3 3.3h33.1c3.1 0 5.6-2.5 5.6-5.6V832c0-1.5-0.6-2.9-1.6-4l-22.4-22.6z m-17.9 72c0 3.1-2.5 5.6-5.6 5.6h-9.5c-3.1 0-5.6-2.5-5.6-5.6v-6.9c0-3.1 2.5-5.6 5.6-5.6h9.5c3.1 0 5.6 2.5 5.6 5.6v6.9zM425.2 804.8c-0.7-0.7-1.6-1-2.5-1h-23.3c-1 0-1.9 0.4-2.6 1.1l-9 9.4c-1.4 1.4-3.7 1.5-5.1 0.1l-9.5-9.5c-0.7-0.7-1.6-1-2.5-1h-30.4c-0.9 0-1.8 0.4-2.5 1l-5 5c-2.2 2.2-6.1 0.7-6.1-2.5 0-2.8-1.6-3.5-3.5-3.5h-36.1c-2 0-3.5 1.6-3.5 3.5v96.3c0 2 1.6 3.5 3.5 3.5h36.1c2 0 3.5-1.6 3.5-3.5v-70.5c0-2 1.6-3.5 3.5-3.5h9c2 0 3.5 1.6 3.5 3.5v70.5c0 2 1.6 3.5 3.5 3.5h36.1c2 0 3.5-1.6 3.5-3.5v-70.5c0-2 1.6-3.5 3.5-3.5h9c2 0 3.5 1.6 3.5 3.5v70.5c0 2 1.6 3.5 3.5 3.5h36c2 0 3.5-1.6 3.5-3.5v-77.2c0-0.9-0.4-1.8-1-2.5l-18.6-19.2zM535.1 805.5c-1.1-1.1-2.5-1.7-4-1.7h-59.9c-1.5 0-2.9 0.6-4 1.7l-9.6 9.6c-1.1 1.1-1.7 2.5-1.7 4v5.7c0 2.7 2.2 4.8 4.8 4.8h50.7c3.1 0 5.7 2.5 5.7 5.7v6.1c0 3.1-2.5 5.7-5.7 5.7h-36.3c-1.5 0-2.9 0.6-4 1.6l-14 13.9c-1.1 1.1-1.7 2.5-1.7 4v21.2c0 1.5 0.6 3 1.7 4l14 13.8c1.1 1 2.5 1.6 4 1.6h28.3c1.5 0 2.9-0.6 4-1.6l4.1-4c2.1-2 5.7-0.6 5.7 2.3s1.9 3.4 3.3 3.4h33.1c3.1 0 5.7-2.5 5.7-5.7V832c0-1.5-0.6-2.9-1.7-4l-22.5-22.5z m-17.9 71.9c0 3.1-2.5 5.7-5.7 5.7h-9.4c-3.1 0-5.7-2.5-5.7-5.7v-6.8c0-3.1 2.5-5.7 5.7-5.7h9.4c3.1 0 5.7 2.5 5.7 5.7v6.8zM643.9 803.8h-23.3c-1.4 0-2.6-1.2-2.6-2.6V784c0-2.9-2.9-5-5.7-4.1l-34.5 11.7c-1.7 0.6-2.9 2.2-2.9 4.1v5.4c0 1.8-0.8 2.8-3.4 2.8-3.2 0-5.1 1-5.1 4.2v17.4c0 2.4 2 4.1 4.3 4.1 3.8 0 4.2 1.1 4.2 4.3v45.7c0 1.1 0.5 2.2 1.3 3l23.4 23.3c0.8 0.8 1.9 1.2 3 1.2h39.5c2.4 0 4.3-1.9 4.3-4.3v-17.2c0-2.4-1.9-4.3-4.3-4.3h-19.9c-2.4 0-4.3-1.9-4.3-4.3v-45.2c0-1.3 1-2.3 2.3-2.3h23.6c2.3 0 4.1-1.8 4.1-4.1v-17.6c0.1-2.2-1.7-4-4-4zM740.6 805.1c-0.7-0.8-1.8-1.3-2.9-1.3H715c-1 0-2 0.4-2.7 1.1l-5.4 5.4c-2.4 2.4-6.5 0.7-6.5-2.7 0-2.1-1-3.8-3.8-3.8h-35.4c-2.1 0-3.8 1.7-3.8 3.8v95.8c0 2.1 1.7 3.8 3.8 3.8h35.4c2.1 0 3.8-1.7 3.8-3.8v-70c0-2.1 1.7-3.8 3.8-3.8h9.3c2.1 0 3.8 1.7 3.8 3.8v17.5c0 2.1 1.7 3.8 3.8 3.8h35.5c2.1 0 3.8-1.7 3.8-3.8v-21.5c0-0.9-0.3-1.8-0.9-2.5l-18.9-21.8zM851.2 806.5c-1.7-1.7-4.1-2.7-6.5-2.7h-48.6c-2.4 0-4.8 1-6.5 2.7l-20.4 20.4c-1.7 1.7-2.7 4.1-2.7 6.5v44.2c0 2.4 1 4.8 2.7 6.5l20.4 20.4c1.7 1.7 4.1 2.7 6.5 2.7h48.6c2.4 0 4.8-1 6.5-2.7l20.4-20.4c1.7-1.7 2.7-4.1 2.7-6.5v-44.2c0-2.4-1-4.8-2.7-6.5l-20.4-20.4z m-20.8 67.3c0 5.1-4.1 9.2-9.2 9.2h-2c-5.1 0-9.2-4.1-9.2-9.2v-35c0-5.1 4.1-9.2 9.2-9.2h2c5.1 0 9.2 4.1 9.2 9.2v35zM985.3 825.9l-21-21c-0.7-0.7-1.7-1.1-2.7-1.1h-20.8c-1 0-2 0.4-2.7 1.1l-5.4 5.4c-2.4 2.4-6.6 0.7-6.6-2.7 0-3.5-1.8-3.9-3.9-3.9h-35.7c-2.1 0-3.9 1.7-3.9 3.9v95.7c0 2.1 1.7 3.9 3.9 3.9h35.7c2.1 0 3.9-1.7 3.9-3.9v-69.9c0-2.1 1.7-3.9 3.9-3.9h9.5c2.1 0 3.9 1.7 3.9 3.9v69.9c0 2.1 1.7 3.9 3.9 3.9h35.4c2.1 0 3.9-1.7 3.9-3.9v-74.7c-0.2-1-0.6-1.9-1.3-2.7z" p-id="963"></path><path d="M530.2 668.9c-7.3 0.5-12.2 6.3-17 8.8-4.9 2.5-15.2 5.2-22.5 4-7.4-1.2-12.9-8-21.4-4.8-8 3-12.8 12.8-17.9 18.1-3.9 4-13.3 9.7-18 10.7-4.7 1-9.8 0.9-14.4 6.3-4.6 5.4-4.7 14.5 1.3 20.1 6.1 5.6 17.3 5.4 22.4-2 5.3-7.8 2.5-10.3 5.3-15.1 2.9-4.8 7.2-8.9 12.7-6.3 10.3 4.9 1.5 31.7-2.1 36.2-3.5 4.4-7 5.3-8.9 12.5-2.1 8.1 3.3 17 12.3 17.6 9.1 0.6 17.5-3.4 18.4-13.4 0.6-6.4-3.6-11-5-17.1-1.5-6.2-1.2-26.5 7.7-30.4 10-4.3 19.8 9.7 22.2 14.5 1.7 3.3 2 6.3 5.7 10.8 5.2 6.2 16.2 6.9 21.9-0.8s3.1-17.5-1.2-21c-6.9-5.4-12.5-2.9-17.5-3.6-4.2-0.7-22.1-10.7-20.3-18.9 1.7-8.2 17.8-5.6 20.9-4.1 7.2 3.6 9.9 8.4 18 7.5 7.9-0.9 12.4-7.9 11.9-16.2-0.6-8.5-7-13.9-14.5-13.4zM391.1 175.1c5.2 1.5 14.3 6.6 18.7 12.6 4.4 6 3.8 14.9 12 18.5 7.8 3.3 17.8-0.7 24.9-1.2 5.5-0.3 16 1.9 20 4.4 4.1 2.5 7.6 6.1 14.5 5.2 6.9-0.9 13.1-7.6 12.6-15.9-0.5-8.4-8.7-16-17.2-14-9.1 2.1-8.7 6-14 7.6-5.3 1.6-11.1 1.6-13.3-4-4.1-10.8 20.4-24.8 26-25.6 5.5-0.9 8.4 0.5 14.8-3.2 7.2-4.1 9.1-15 3.1-21.7-6-6.7-14.7-9.5-22.1-2.7-4.8 4.4-4.9 10.7-8 16.2-3.2 5.7-17.1 20.7-26 17.4-10-3.7-7.5-20.9-6-26.2 1.1-3.7 2.9-6.1 3.2-12.1 0.5-8.2-6.9-16.4-16.1-14.6-9.2 1.8-14.1 10.9-13.3 16.6 1.2 8.8 7 10.8 10 14.8 2.6 3.4 8.4 23.3 1.7 28.2-6.7 4.9-16.5-8.1-17.7-11.4-2.7-7.7-1.1-13.8-7.8-18.1-6.7-4.2-15.3-2.5-19.4 3.9-5.2 8.3-4.4 15.1 1.3 20 5.6 4.8 13 3.8 18.1 5.3z m145.2 260.3c3.7-31.4-4.2-39.4-6.4-50.1 28.6-10.9 40.1-22.4 45.4-30.1 2.2-3.2 4-5.7 5.3-10.7 0.9-3.9 1.3-9.4 1.4-15.4 0.4-19 8.9-29.3 13.9-41.8 4.5-11 4.9-30.6-8.7-41.7-19.6-16.1-47.8-4-55.2 4-3.9 4.3-10.3 10.5-18.2 13.2-11.6 3.9-19.1 4.3-24.8 6.2-4.2 1.4-9.2 6.2-11.7 8.7-10.3 10.3-15 24.3-19 39.2-7-11.3-32.2-25.4-58.1-36.8 0 0 28.6-62.2 15.9-68.5-11.2-5.5-79.3 71.9 7.1 129.7-102.7 36.4-137.5 99-106.8 160.5 34.1 68.1 94.1 92.3 94.1 92.3-37.4 8.1-65 51.2-73.3 67.4-2.1 4.1 2.7 6 2.7 6 68.2 32 117.7 16 118.6 6.6 1.6-17.5-81.6-23.5-81.6-23.5s63.5-20.6 72.1-64c3.6-18.1-14.7-41.8-37.3-63.3 13.3-4.8 27.6-12.5 42.3-24 37-28.9 40-70.1 53.8-87.6 0.7-0.9 1.5-1.8 2.4-2.9-4.9 65.1 59.1 49.5 59.1 49.5s20.3-4.1 20.2-12.6v-0.4c-0.1-11.7-53.2-9.9-53.2-9.9z m142.8-14.2c-6.4 0.4-10.4 5.3-16.2 7.7-6 2.4-25.9 5.4-30.7-2.9-5.3-9.3 7.2-21.3 11.7-24.5 3.1-2.2 6-3 9.9-7.4 5.4-6.2 4.9-17.3-3.3-21.8s-17.6-0.4-20.4 4.5c-4.5 7.7-1.4 13-1.6 18.1-0.2 4.3-8 23.8-16.2 23.3-8.2-0.4-7.6-16.9-6.5-20.3 2.7-7.8 7.7-11.6 5.2-19.2s-10.2-11.8-17.3-9.3c-9.1 3.2-12.8 9.1-11.4 16.5 1.3 7.3 7.6 11.2 10.6 15.6 3.1 4.5 6.9 14.4 6.5 21.9-0.3 7.5-6.4 14.2-2.3 22.2 3.9 7.6 14.1 10.8 19.8 15 4.4 3.2 11.1 11.7 12.6 16.3 1.6 4.6 2.1 9.7 7.9 13.4 5.8 3.7 14.8 2.4 19.5-4.5 4.8-6.9 3.1-17.9-4.5-22.1-6.9-3.8-10.4-0.8-15.4-2.9-5-2.1-9.5-5.8-7.6-11.7 3.6-11.1 31-6.5 35.8-3.6 4.8 2.8 6.1 5.8 13.3 7 8 1.4 15.3-5.9 15.8-15.1 0.6-8.4-5.3-16.9-15.2-16.2z m-78.3-107.6c1.7 0.3 3.1 1.2 4.2 2.4-0.4-10.8-6-19.8-6-19.8s-9.5 9.2-12.1 22.6c-2.6 13.4 2.8 26.1 2.8 26.1s8.8-6.4 13.1-16.6c-1.5 0.7-3.2 1-4.9 0.7-4.2-0.8-7-4.9-6.2-9.1 0.8-4.3 4.8-7.1 9.1-6.3z m-115.5-52.7s12.8 3.4 25.6-1.4 20.8-16 20.8-16-10.1-4.2-20.9-2.5c1.4 0.9 2.5 2.2 3.1 3.8 1.5 4-0.5 8.5-4.6 10-4 1.5-8.5-0.5-10-4.6-0.6-1.6-0.6-3.3-0.2-4.8-9 5.9-13.8 15.5-13.8 15.5z" p-id="964"></path></svg>