<?xml version="1.0" standalone="no"?><!DOCTYPE svg PUBLIC "-//W3C//DTD SVG 1.1//EN" "http://www.w3.org/Graphics/SVG/1.1/DTD/svg11.dtd"><svg t="1575453222459" class="icon" viewBox="0 0 1024 1024" version="1.1" xmlns="http://www.w3.org/2000/svg" p-id="1081" xmlns:xlink="http://www.w3.org/1999/xlink" width="200" height="200"><defs><style type="text/css"></style></defs><path d="M745.2 411.9c-0.4 136.6-110.7 246.5-247.3 246.2-137.3-0.2-247.1-110.9-246.7-248.6 0.5-134.9 111.7-244.9 247.4-244.6 136.6 0.4 246.9 110.9 246.6 247z m-347.7-91.1c-0.1 1.4-0.3 2.5-0.3 3.6 0 90.2 0 180.5-0.1 270.7 0 3.7 1.5 5.3 4.5 6.8 42.9 21.3 88 28.2 135 19.4 115.7-21.5 191.2-129.8 171.9-245.9C689.8 262 581.2 183.4 467 200.5c-95.7 14.4-170.3 90.7-180.7 186.4-8 73.8 16.8 135.7 71.8 185.6 1.9 1.7 3.9 3.2 6.9 5.7V285.7c1.6-0.1 2.7-0.3 3.8-0.3 59.9 0 119.9-0.8 179.8 0.3 40.5 0.7 73.3 18.2 96.1 52.2 17.2 25.5 20.3 54.1 15.8 83.7-5.4 35.6-22.9 62.7-56.9 77.5-17.6 7.7-36.4 10-55.4 10.1-29.5 0.2-59 0.1-88.5 0-2 0-4-0.2-6-0.3V379.6c2-0.1 3.7-0.2 5.3-0.2h85.7c11.2 0 18.6 6.7 18.7 16.8 0.1 10.3-7.4 17.2-18.9 17.2h-57v61.4h61.4c45.8 0.1 78.3-31.8 78.1-77.4-0.2-31.5-12.2-56.5-42.4-69.3-10.4-4.4-22.3-7-33.5-7.2-50.5-0.8-101-0.4-151.5-0.4-0.4-0.1-1 0.1-2.1 0.3zM347.8 782.1v69.6h-15.6V745.6c5.1 0 10.2-0.1 15.3 0.1 0.6 0 1.3 1 1.6 1.8 7.4 16 14.7 32 22 48 2.4 5.3 4.8 10.6 7.4 16.1 0.5-1 0.8-1.7 1.2-2.4l29.1-61.5c0.7-1.6 1.5-2.2 3.3-2.1 4.5 0.1 9.1 0 13.7 0v106.1h-16.4v-69.6c-0.1 0-0.3-0.1-0.4-0.1-0.4 0.7-0.8 1.3-1.1 2-7.5 15.4-15 30.8-22.5 46.3-0.8 1.7-1.7 2.5-3.7 2.4-2.2-0.2-4.5-0.2-6.7 0-2.1 0.2-3.1-0.5-4-2.5-7.2-15.5-14.5-30.9-21.8-46.4-0.3-0.6-0.6-1.3-1-1.9-0.1 0-0.2 0.1-0.4 0.2zM199.8 808.1h-22.7v-13.5h38.8v8.7c0 7.2 0.2 14.3-1.5 21.4-3.4 14.3-15.9 25.4-30.8 27.6-15 2.2-27.4-2.3-37-14.2-4.8-6.1-7.2-13.2-7.3-20.8-0.3-13-0.3-26.1 0.4-39.2 1.2-21.4 19.5-32.5 34.9-33.3 12-0.6 22.9 2.3 31.4 11.3 5.4 5.8 8.4 12.8 9.8 20.5 0.1 0.3 0 0.6 0 1.1-5.1 0-10.1 0.1-15.1-0.1-0.5 0-1.3-1.1-1.5-1.8-2.2-7.2-6.1-12.8-13.5-15.3-11.9-4.1-28.1 0.8-29.9 19.3-1.2 12.8-1.6 25.6-0.1 38.5 0.5 4.4 1.8 8.4 4.6 12 5.7 7.3 13.2 9.4 22 7.3 8.9-2.1 14.6-7.7 16.4-16.7 0.8-4.1 0.7-8.4 1.1-12.8zM521.6 745.7V760h-51.7v30.9h43.5v14.5h-44.1v31.8h51.3v14.4H454v-106c22.4 0.1 44.9 0.1 67.6 0.1zM315.7 851.7h-17.2c-2.1-6.3-4.3-12.7-6.3-19.1-0.5-1.6-1.1-2.2-2.9-2.2-12.6 0.1-25.1 0.1-37.7 0-1.6 0-2.4 0.5-2.9 2-2 5.9-4.2 11.8-6.2 17.7-0.4 1.3-1 1.7-2.4 1.7-5-0.1-10 0-15.4 0 0.3-0.8 0.5-1.5 0.7-2.1 12.9-34.1 25.9-68.1 38.8-102.2 0.5-1.4 1.1-2 2.7-1.9 3.1 0.1 6.1 0.2 9.2 0 1.6-0.1 2.1 0.6 2.6 2l33.6 94.8c1.2 3 2.2 6.1 3.4 9.3z m-61.2-35.1h32.6c-5.1-15.6-10.2-31-15.5-47-5.8 16-11.4 31.4-17.1 47zM559.3 851.7h-15.2v-106c0.6 0 1.2-0.1 1.8-0.1h39c5 0 9.8 0.9 14.4 2.8 12.5 5.2 20 18 18.6 31.7-1.9 18.1-14.5 29.6-33.2 30-7.5 0.2-15.1 0-22.7 0.1h-2.7v41.5z m0.6-91.4v35h22.9c1.6 0 3.3-0.2 4.9-0.5 8.8-1.6 14.2-8.5 14-17.8-0.2-9.2-5.9-16-14.9-16.6-8.8-0.5-17.7-0.1-26.9-0.1zM821.1 851.7H715.8c11.4-22.9 22.8-45.7 34.3-68.8 1.1 2.1 2.1 3.9 3 5.7 1.5 2.8 2.9 5.7 4.5 8.5 0.7 1.2 0.6 2.1 0 3.3-5.8 11.5-11.5 23-17.2 34.4-0.4 0.7-0.7 1.4-1.1 2.4h58.2c-0.4-0.9-0.8-1.8-1.2-2.6-11.6-23.6-23.2-47.1-34.8-70.7-0.7-1.5-0.9-2.6 0-4.1 2.4-4.5 4.6-9.2 7.2-14.3 17.7 35.6 35 70.8 52.4 106.2zM885 745.6c-0.6 1.2-1 2.1-1.4 2.9-10 19.2-20.1 38.5-30.1 57.7-0.7 1.3-1 2.8-1 4.2-0.1 12.8 0 25.7 0 38.5v2.7h-16.2v-2.7c0-12.7 0.1-25.4-0.1-38.1 0-1.8-0.5-3.9-1.3-5.5-9.5-19.3-19-38.5-28.6-57.7-0.3-0.6-0.5-1.2-1-2.2h10.9c2.2 0 4.9-0.6 6.6 0.4 1.5 0.9 2 3.7 2.9 5.6l17.7 38.1c0.3 0.7 0.7 1.3 1.2 2.3 0.6-1.1 1-1.9 1.4-2.7 6.9-14 13.7-28 20.5-42 0.7-1.3 1.4-1.8 2.9-1.8 5 0.3 10.1 0.3 15.6 0.3zM638 745.7h16v91.6h50v14.4h-66v-106zM202.3 914.2h-6v-39.5c1.6 0 3.1-0.2 4.6 0.1 0.7 0.1 1.4 1 1.9 1.6 5.2 7.8 10.3 15.6 15.4 23.4 0.4 0.7 0.9 1.3 1.7 2.3v-27.2h6V914c-4.4 1-5.2 0.7-7.6-3-5.2-7.9-10.3-15.7-16-23.5v26.7zM428.9 897.6v16.5h-6v-38.9c6.4 0 12.7-0.4 19 0.1 5 0.5 8.1 4.8 8.6 10.1 0.5 4.8-1.9 8.8-6.5 10.9-0.3 0.2-0.7 0.3-1.3 0.6 2.9 5.7 5.9 11.3 9 17.4-2.3 0-4.3 0.1-6.2-0.1-0.6-0.1-1.2-0.9-1.6-1.6-2.3-4.4-4.5-8.9-6.7-13.4-0.6-1.3-1.4-1.7-2.8-1.7-1.8 0.2-3.6 0.1-5.5 0.1z m0-5.1c3.3 0 6.4 0.1 9.4 0 3.8-0.2 5.9-2.5 6-5.9 0.1-3.5-1.9-6-5.5-6.3-3.2-0.3-6.5-0.1-9.9-0.1v12.3zM856 891.7h16.2v5.2h-16.1v11.8h19v5.3H850v-39.2h25.1v5.2h-19c-0.1 4-0.1 7.7-0.1 11.7zM348.8 874.8h25v5.2h-19v11.6H371v5.4h-16.2v11.8h19v5.3h-25v-39.3zM528.7 914.3c-1.8 0-3.5 0.1-5.2 0-0.4 0-0.9-0.6-1.3-0.9-0.1-0.1-0.2-0.4-0.2-0.6-0.7-2-0.9-4.8-2.4-5.8-1.6-1.1-4.3-0.4-6.5-0.4-2.4 0-4.8 0.1-7.2 0-1.2 0-2 0.3-2.2 1.6-0.1 0.6-0.4 1.1-0.6 1.7-1.8 5.2-1.8 5.2-7.7 4.4 0.1-0.5 0.1-1 0.3-1.4 4.4-12.1 8.9-24.2 13.3-36.3 0.5-1.3 1.1-1.8 2.4-1.6 1.2 0.2 2.8-0.8 3.5 1.3 4.5 12.4 9.1 24.8 13.6 37.1 0.2 0 0.1 0.3 0.2 0.9z m-10.6-13.2c-1.9-5.7-3.8-11.2-5.9-17.3-2.2 6.1-4.1 11.6-6.1 17.3h12zM601.2 886.6c-1.5 0-3.2 0.1-4.8-0.1-0.6-0.1-1.2-0.9-1.5-1.6-1.8-3.9-4.8-5.6-9-5-3.2 0.5-5.8 2.5-6 5.7-0.4 5.8-0.4 11.6 0 17.4 0.2 3.4 3 5.6 6.3 6 3.5 0.5 6.9-0.8 8.1-3.9 1.1-2.9 2.9-3 5.3-2.8 0.6 0.1 1.2 0.1 1.8 0.1-0.2 6.2-5.8 11.5-12.4 12-7.5 0.6-15.3-4-15.5-13-0.1-5.2-0.2-10.5 0.2-15.6 0.6-6.8 6.7-11.6 13.9-11.6 7.2 0.1 12.9 4.9 13.8 11.6 0 0.3-0.1 0.4-0.2 0.8zM773.1 874.9c0.2-0.1 0.3-0.2 0.4-0.2 5.5-0.4 5.5-0.4 7.1 4.8 2.2 7 4.4 13.9 6.6 20.9 0.2 0.8 0.5 1.5 1 2.8 2.3-7.2 4.4-14 6.6-20.7 0.7-2.1 1.4-4.2 2-6.4 0.3-1.1 0.9-1.6 2-1.5 1.5 0.1 3 0 4.6 0-0.1 0.7-0.2 1.2-0.3 1.6l-12 36.3c-0.4 1.3-1.2 1.8-2.4 1.6-1.2-0.2-2.7 0.7-3.3-1.3-4-12.5-8.2-24.9-12.2-37.4-0.1 0-0.1-0.3-0.1-0.5zM290.4 914.2h-6.1v-34h-10.8v-5.3H301v5.1h-10.6v34.2zM645.7 874.8h27.5v5.2h-10.7v34.2h-6v-34h-10.8v-5.4zM145 914.2h-5.7v-39.3h5.7v39.3zM726.7 914.2H721v-39.3h5.7v39.3z" p-id="1082"></path></svg>