<?xml version="1.0" standalone="no"?><!DOCTYPE svg PUBLIC "-//W3C//DTD SVG 1.1//EN" "http://www.w3.org/Graphics/SVG/1.1/DTD/svg11.dtd"><svg t="1574763512859" class="icon" viewBox="0 0 1024 1024" version="1.1" xmlns="http://www.w3.org/2000/svg" p-id="10495" xmlns:xlink="http://www.w3.org/1999/xlink" width="200" height="200"><defs><style type="text/css"></style></defs><path d="M501 767h-0.5c-1.1-0.7-2.1-1.5-3.2-2.2-74.7-43.2-149.4-86.3-224.2-129.4-2.1-1.2-3.1-2.5-2.7-4.9v-0.3-261.1c0-8.5 0.2-17.1 0.5-25.6 0.3-9.5 9.7-16.4 18.9-14 6.9 1.7 11.6 7.6 11.7 14.7 0.1 8.1 0 16.2 0.1 24.3 0.1 7.5 5.5 13.5 13.1 14.8 7 1.2 14.2-3.1 16.5-10 0.7-2 0.9-4.2 0.9-6.3 0.1-23 0-45.9 0-68.9v-2.8c0.5-10.5 11-17.4 20.8-13.7 5.5 2.1 9.9 7.5 9.9 14.5-0.1 8 0 16.1 0 24.1 0 1.4 0.1 2.8 0.3 4.1 1.1 7.5 7.6 13 15.2 12.9 7.7 0 14.1-5.7 15.1-13.3 0.2-1.5 0.2-2.9 0.2-4.4V226c0-1.3 0-2.6 0.1-3.9 0.8-8.9 9.6-15.3 18.4-13.3 7.4 1.7 12.2 7.7 12.2 15.6v63.7c0.2 8.1 6.2 14.5 14.2 15.1 7.6 0.6 14.6-4.7 16.1-12.4 0.3-1.3 0.3-2.7 0.3-4.1v-45.3c0-7.6 5.9-13.9 13.3-14.8 7.9-0.9 14.9 3.8 16.8 11.4 0.4 1.5 0.5 3.1 0.5 4.6 0.1 7-0.1 14 0.1 21 0.1 7.7 6 14.1 13.2 14.9 8.1 0.9 15.1-3.9 16.9-11.6 0.4-1.7 0.4-3.4 0.4-5.1v-56.5-2.3c0.4-7.9 5.9-14 13.6-14.9 7.5-0.9 14.6 3.8 16.5 11.2 0.5 1.9 0.6 3.9 0.6 5.9v65c0 1.3 0 2.6 0.1 3.9 0.9 9.9 11.4 16.3 20.6 12.5 6-2.5 9.9-8.1 10-14.8 0-8.1-0.1-16.2 0-24.3 0.2-11.2 11.8-18.4 21.8-13.4 5.8 2.8 8.7 7.7 8.7 14.2v64.5c0.3 7.4 6.2 13.8 13.4 14.5 7.9 0.8 14.8-3.8 16.6-11.3 0.4-1.7 0.5-3.6 0.5-5.4 0.5-10.2 10.6-17.2 20.3-13.9 5.9 2 10 7.3 10.4 13.6 0.1 1.1 0.1 2.2 0.1 3.4 0 11.8-0.1 23.7 0 35.5 0.1 10.1 8.3 17.1 18 15.5 7.1-1.1 12.4-7.3 12.7-14.9 0.1-2.8-0.1-5.5 0.1-8.3 0.5-6.7 5.5-12.3 11.9-13.6 6.9-1.4 13.7 1.7 16.8 7.8 0.6 1.1 0.9 2.4 1.4 3.6v295.3c-0.3 0.1-0.7 0.1-0.9 0.3-3.4 2-6.9 4-10.3 5.9-71.9 41.5-143.9 83.1-215.8 124.6-0.6 0.3-1.4 1-2.2 1.6z m-36.4-233.9h72.3v54.4c2.6 0.6 70 0.5 72.1 0V416c-3.4-0.5-70.2-0.4-72.2 0.2V464.1c0 3.1 0.2 6.3-0.1 9.4-4.6 0.5-70.1 0.3-72.1-0.2v-28.7c0-9.5 0.1-19.1-0.1-28.6h-72.2v171.7c2.5 0.6 69.9 0.5 72.2-0.1 0.1-18.2 0.1-36.3 0.1-54.5z" p-id="10496"></path><path d="M485.5 164.3v22.3c0 7.2-4.7 13.1-11.7 14.8-9.4 2.3-18.7-4.8-18.8-14.4-0.1-15.1-0.1-30.2 0-45.3 0-8.2 6.9-14.8 15.2-14.8 8.3 0 15.2 6.5 15.3 14.7v22.7zM546.8 123.5V146c0 7.1-5.2 12.8-10.9 14.4-9 2.6-18.3-3.4-19.5-12.6-0.1-0.9-0.2-1.7-0.2-2.6v-43.5c0-4.2 1.3-8 4.3-11 4.7-4.7 10.3-5.9 16.4-3.6 6.1 2.3 9.6 7 9.8 13.6 0.2 7.6 0.1 15.2 0.1 22.8zM592.8 183.3c8.4 0 15.3 6.7 15.4 15 0.1 8.5-6.7 15.3-15.2 15.4-8.4 0-15.3-6.6-15.4-14.9-0.1-8.6 6.7-15.5 15.2-15.5zM470.5 69c8.1-0.2 15.1 7 15 15.2-0.1 8.2-7.2 15.3-15.8 15-8.3-0.3-14.8-7.1-14.8-15.6 0.1-7.5 6.8-15 15.6-14.6z" p-id="10497"></path><path d="M960.9 860h-6c0.1-5.9 0.3-11.7 0.4-17.6-0.1 0-0.2-0.1-0.3-0.1-1.9 5.9-3.9 11.8-5.8 17.7h-5.6c-1.9-5.8-3.9-11.6-5.9-17.5-0.1 0-0.3 0-0.4 0.1 0.2 5.7 0.3 11.4 0.5 17.4-1.1 0-2.1 0.1-3.1 0.1h-2.9c-0.4-1.4-0.4-21.8-0.1-23.8h9.9l4.5 14.7h0.3c1.4-4.9 2.8-9.7 4.3-14.7h10.1c0.1 7.9 0.1 15.8 0.1 23.7zM523.7 936.1h-26.5c-0.3-1.3-0.5-98.3-0.2-101.3 1.2-0.4 43.5-0.5 45.9-0.1l3 8.1c8.3 22.3 16.6 44.6 24.9 67 0.2 0.5 0.4 1.1 0.6 1.6 0.1 0.2 0.5 0.3 1.1 0.7 0.1-8.8-0.2-17.4-0.3-25.9l-0.3-25.6-0.3-25.9h26.9v101.5h-46.2c-0.2-0.5-0.5-1.1-0.7-1.7-8.2-22.2-16.3-44.5-24.5-66.7-1.1-2.9-2.1-5.8-3.2-8.7-0.3-0.7-0.6-1.2-1.6-0.8 0.6 25.8 1 51.7 1.4 77.8zM296.5 834.5h54.3c5.8 0 11.6 0.5 17.1 2.4 0.7 0.2 1.4 0.5 2.1 0.8 6.3 2.3 10 7 11.3 13.4 1.6 7.8 1.3 15.6-0.9 23.3-1 3.6-3.3 6.2-6.7 7.6-2 0.8-4.1 1.3-6.2 2-0.4 0.1-0.7 0.2-1.1 0.3 0 0.8 0.6 0.7 1 0.8 2 0.5 4.1 0.8 6 1.4 4.2 1.3 7.1 4.1 8.5 8.3 0.8 2.3 1.4 4.7 1.7 7.2 0.6 6.3 0.4 12.6-1.2 18.8-0.4 1.3-0.8 2.6-1.4 3.9-1.6 3.8-4.3 6.5-8.1 8.2-3.4 1.5-6.9 2.4-10.6 2.7-3.9 0.3-7.9 0.6-11.8 0.6-17.3 0.1-34.5 0-51.8 0h-2.1c-0.1-33.9-0.1-67.7-0.1-101.7z m27.3 79.2c0.5 0 0.9 0.1 1.2 0.1h18.7c2.6 0 5.3-0.3 7.8-0.9 2.2-0.5 3.7-1.8 4.3-4 1-3.5 1-7 0-10.5-0.5-1.8-1.7-3-3.6-3.4-2.5-0.4-5.1-0.9-7.6-0.9-6.5-0.1-13.1-0.1-19.6-0.1-0.4 0-0.9 0.1-1.3 0.1 0.1 6.7 0.1 13.1 0.1 19.6z m0-38.5h17.3c3.3 0.3 6.5-0.1 9.7-0.9 2.1-0.5 3.3-1.8 3.8-3.8 0.7-3.1 0.6-6.1-0.2-9.2-0.6-1.9-1.8-3.2-3.8-3.7-1.5-0.3-3.1-0.6-4.6-0.6-7-0.1-14 0-21 0-0.4 0-0.9 0.1-1.3 0.2 0.1 6 0.1 11.9 0.1 18zM699.8 834.6c0.4 0 0.8-0.1 1.1-0.1 18 0 36 0 54 0.1 5.6 0 11.1 0.8 16.4 2.6 0.4 0.1 0.9 0.3 1.3 0.4 6.4 2.3 10.5 6.6 12.5 13.2 1.5 4.8 2 9.7 2.1 14.7 0.2 6.4-0.2 12.8-1.9 19.1-1 3.7-3.1 6.3-6.4 8.1-3 1.7-6.3 2.7-9.6 3.6-0.8 0.2-0.8 0.2-1.4 1 0.6 0.1 1 0.2 1.5 0.3 1.3 0.2 2.6 0.4 3.9 0.7 7.2 1.7 11.3 6.4 12.6 13.6 0.3 1.7 0.5 3.5 0.5 5.3 0.1 5.8 0 11.6 0 17.4 0 0.4-0.1 0.9-0.1 1.5h-27.5c0-0.6-0.1-1.2-0.1-1.8v-11.5c0-2.2-0.2-4.5-0.9-6.6-1.4-4.3-3.9-6.3-8.4-6.7-1-0.1-1.9-0.1-2.9-0.1H726.9v26.5c-1.4 0.4-24.9 0.5-27.2 0.1 0.1-33.7 0.1-67.5 0.1-101.4z m27.3 51.5h21.5c1.3 0 2.5-0.1 3.8-0.2 3.7-0.4 5.3-1.8 6.2-5.4 1.1-4.5 1-9 0.5-13.5-0.1-1.4-0.5-2.8-0.9-4.2-0.5-1.8-1.7-3-3.4-3.5-1.5-0.4-3-0.9-4.5-0.9-7.4-0.2-14.9-0.2-22.3-0.3-0.2 0-0.4 0.1-0.8 0.1-0.1 9.2-0.1 18.4-0.1 27.9zM798.1 889.3c0-5.1-0.1-10.2 0-15.3 0.2-5.5 0.7-11 2-16.3 0.8-3 1.9-5.9 3.4-8.6 2.7-4.5 6.5-7.8 11.4-9.8 7.6-3 15.6-4.7 23.7-5.1 7.3-0.4 14.7-0.2 22 0.8 5.2 0.7 10.4 1.9 15.2 4 6.1 2.7 10.3 7.1 12.8 13.3 1.8 4.4 2.8 9 3.3 13.6 1.2 10.1 0.9 20.2 0.1 30.4-0.5 6.9-1.5 13.8-3.5 20.4-0.5 1.6-1.1 3.1-1.6 4.7-1.4 3.8-3.8 6.6-7.1 8.8-4.2 2.7-8.9 4.2-13.8 5.1-8.7 1.7-17.5 1.9-26.4 1.6-4.9-0.2-9.8-0.4-14.7-1.5-3.6-0.8-7.1-1.8-10.5-3.2-5.1-2-8.9-5.5-11.6-10.3-2.2-4.1-3.6-8.4-4.1-13-0.5-4.3-0.6-8.7-0.8-13 0.1-2.2 0.1-4.4 0.2-6.6z m66.7-3.2c0-4.5 0.1-8.3 0-12.2-0.1-3.4-0.6-6.8-1.9-10.1-1-2.6-2.8-4.3-5.4-5.2-0.9-0.3-1.9-0.6-2.8-0.8-5.1-1-10.2-0.7-15.2-0.1-2.2 0.2-4.4 0.8-6.5 1.4-2.6 0.7-4.3 2.4-4.9 5.1-0.5 2.3-1.1 4.7-1.3 7.1-1 8.2-0.9 16.5-0.7 24.7 0.1 3.9 0.6 7.7 1.9 11.5 0.7 1.9 1.8 3.3 3.6 4.2 1.1 0.5 2.3 1.1 3.5 1.3 2.1 0.4 4.3 0.7 6.5 0.8 4.5 0.2 8.9-0.1 13.3-1.1 4.6-1.1 7.5-3.8 8.5-8.4 0.5-2.4 1-4.8 1.1-7.3 0.3-3.9 0.2-7.7 0.3-10.9zM172.9 936.1h-27.3v-39.8h-35.4v39.8H83V834.6h27.1v38.2c4 0.3 7.9 0.1 11.7 0.1h23.8v-38.3h27.3v101.5zM213.7 834.6h41.4c10.3 33.8 20.6 67.6 30.9 101.6h-27.8c-1.7-5.7-3.5-11.5-5.3-17.3h-36.5c-1.6 5.7-3.3 11.6-4.9 17.4h-28l-0.2-0.2s-0.1-0.1-0.1-0.2c0-0.3 0.1-0.6 0.2-0.8 10.2-33.5 20.3-67 30.3-100.5z m21.3 20.8h-0.4c-4.1 14.4-8.2 28.9-12.3 43.4h25.3c-4.2-14.5-8.4-29-12.6-43.4zM417.6 834.6h41.3c10.3 33.7 20.6 67.5 30.9 101.3-1.4 0.4-25.2 0.5-27.7 0.1-1.7-5.7-3.5-11.5-5.3-17.3h-36.5c-1.6 5.8-3.2 11.6-4.9 17.4h-28.1c0-1.3 29.2-99.1 30.3-101.5z m21.1 20.8h-0.3c-4.1 14.5-8.2 28.9-12.3 43.4 2.4 0.3 23.8 0.2 25.2-0.1-4.2-14.5-8.4-28.9-12.6-43.3zM682.8 875.2v18.9h-43.2v19.5c1.9 0.3 3.8 0.1 5.7 0.1h41.4c0.4 1.4 0.5 20.3 0.1 22.3h-74.3V834.7c1.2-0.3 71.2-0.4 73.5-0.1v22.2h-46.2v18.3c14.2 0.1 28.5 0.1 43 0.1zM921.4 860h-6.3v-18.2h-6v-5.3c1.2-0.3 16.6-0.4 18.7-0.1v5.3h-6.3c-0.1 6.2 0 12.1-0.1 18.3z" p-id="10498"></path></svg>