<?xml version="1.0" standalone="no"?><!DOCTYPE svg PUBLIC "-//W3C//DTD SVG 1.1//EN" "http://www.w3.org/Graphics/SVG/1.1/DTD/svg11.dtd"><svg t="1574994170364" class="icon" viewBox="0 0 1024 1024" version="1.1" xmlns="http://www.w3.org/2000/svg" p-id="795" xmlns:xlink="http://www.w3.org/1999/xlink" width="200" height="200"><defs><style type="text/css"></style></defs><path d="M336.7 208.5c3.3-0.4 38-0.6 48-0.3 0.5 0 1 0.1 1.7 0.2 0.1 0.7 0.2 1.2 0.2 1.7v221.7c0 1.4-0.2 2.7 0.3 4.2 0.6-0.1 1.3-0.1 1.9-0.2 3-0.6 6-0.8 9.1-0.8 8.7 0.1 17.3 0 26 0h3.6c0.1-0.8 0.3-1.4 0.3-1.9 0.1-3.5 0.1-7 0.1-10.5V213c0-1.4-0.2-2.9 0.3-4.5 0.7-0.1 1.3-0.2 1.9-0.2 14.2-0.3 44.2-0.2 47.4 0.3 0.1 0.5 0.2 1.1 0.2 1.7v239.2c0 3.6-0.3 7.2-1.2 10.7-2.6 10.3-9.3 16.2-19.6 18.5-2.8 0.6-5.7 0.8-8.5 0.8h-83.1c-3.4 0-6.7-0.3-10-1.2-9.7-2.6-15.5-9-17.8-18.7-1.1-4.6-1-9.2-1-13.9 0-1.7 0.1-3.4 0.1-5.1V213.2c0.1-1.6 0.1-3.1 0.1-4.7zM623.4 252.2c-3.5-0.4-33.7-0.4-36.1 0-0.1 0.1-0.2 0.1-0.2 0.2-0.1 0.1-0.1 0.2-0.1 0.3 0 0.4-0.1 0.8-0.1 1.3v36.9l2.4 2.4c23.9 22.6 47.9 45.1 71.8 67.6 0.5 0.5 1.1 1 1.6 1.5 7 6.5 10.4 14.6 10.4 24 0.1 21.6 0 43.1 0 64.7 0 3.1-0.4 6.1-1.2 9.1-2.6 10-9.2 15.9-19.1 18.1-2.8 0.6-5.6 0.8-8.5 0.8h-78.7c-3.7 0-7.4-0.3-11-1.4-8.1-2.5-13.5-7.7-16.1-15.7-1.2-3.6-1.8-7.4-1.8-11.2 0-14.2 0.1-28.3 0.1-42.5v-21.9c0-1.1 0.1-2.3 0.1-3.5 1.2-0.6 2.4-0.4 3.5-0.4h43.2c0.9 0 1.9 0.1 2.8 0.2 0.5 1.2 0.3 2.4 0.3 3.6v45.4c0 1.1 0.1 2.3 0.1 3.2 0.3 0.3 0.3 0.4 0.4 0.4 0.1 0.1 0.2 0.1 0.3 0.1 11.2 0 22.4 0.1 33.6 0.1 0.5 0 1-0.1 1.5-0.1 0.8-1 0.5-2.1 0.5-3.1v-23.8c0-4.9 0.1-9.7 0.2-14.6 0-0.9-0.2-1.7-0.9-2.3-0.8-0.7-1.5-1.5-2.3-2.2-24.1-22.8-48.2-45.7-72.4-68.5-5.2-4.9-8.9-10.8-10.2-17.8-0.5-2.4-0.7-4.8-0.8-7.2-0.1-19.7 0-39.3 0-59 0-3.2 0.4-6.3 1.1-9.4 2.6-10.1 9-16.3 19.2-18.5 2.3-0.5 4.6-0.6 6.9-0.8 0.7-0.1 1.5 0 2.2 0h77.4c3.5 0 7 0.2 10.4 1.1 10.3 2.7 16.3 9.4 18.3 19.6 0.5 2.6 0.7 5.2 0.7 7.9 0.1 20.5 0 41 0 61.5 0 0.7-0.1 1.4-0.1 2l-0.4 0.4c-0.1 0.1-0.2 0.1-0.3 0.1-15.7 0-31.3 0.1-47 0.1-0.5 0-1-0.1-1.6-0.1-0.7-1.1-0.4-2.3-0.4-3.4v-26-15.9c0.4-1 0.3-2.1 0.3-3.3zM195 702.6c-0.4 3.9-0.2 7.3-0.2 10.8v82.9c-0.8 1-1.7 0.8-2.6 0.8h-43.4c-1.1 0-2.3 0.2-3.4-0.2-0.1-0.4-0.3-0.7-0.3-1 0-44.7-0.1-89.4 0-134.1 0-45.2 0.1-90.4 0.2-135.8 0.8-0.1 1.4-0.2 2-0.3h103.4c3.8 0 7.6 0.2 11.3 1.1 10.4 2.5 16.7 9 19 19.4 0.6 2.7 0.8 5.4 0.8 8.2v80.2c0 12.6-0.1 25.2-0.1 37.7 0 3.8-0.3 7.6-1.3 11.3-2.7 10.1-9.3 16-19.4 18.3-3.4 0.8-6.9 0.8-10.4 0.8h-51.7c-1.2-0.1-2.4-0.1-3.9-0.1z m36.4-44.8c0.3-28.9 0.2-57.6 0.2-86.4 0-0.4-0.2-0.8-0.2-1.2-0.4-0.1-0.7-0.3-1-0.3h-33.9c-0.3 0-0.6 0.2-0.9 0.3-0.5 1.2-0.3 2.5-0.3 3.7v73.5c0 1.6-0.2 3.2-0.2 4.7 0 1.9-0.4 3.8 0.2 5.6 2.5 0.5 33 0.5 36.1 0.1zM646.3 796.7c-2.7 0.3-45.3 0.4-49.2 0.1-0.2-0.5-0.5-1-0.6-1.6l-4.5-28.5c-0.9-5.7-1.8-11.5-2.7-17.2-0.1-0.6-0.4-1.2-0.5-1.7-2.6-0.3-30.3-0.5-37.5-0.3-0.5 0-1 0.1-1.7 0.2l-7.8 48.9c-0.9 0.1-1.6 0.3-2.3 0.3h-43.8c-0.7 0-1.4-0.1-2.3-0.2-0.5-2.6-0.5-5.1 0-7.6l3-15.6c2.9-14.8 5.7-29.7 8.6-44.5 3.1-15.8 6.1-31.5 9.2-47.3 2.9-14.7 5.7-29.4 8.6-44.2 2.8-14.4 5.4-28.9 8.4-43.2 3.8-18 7.1-36.1 10.7-54.1 0.9-4.3 1.7-8.7 2.6-13.1 0.1-0.6 0.4-1.2 0.6-1.7 3-0.4 47.1-0.3 49.5 0 0.1 0.1 0.2 0.1 0.2 0.2 0.1 0.1 0.1 0.2 0.2 0.3 0.3 1.2 0.5 2.5 0.8 3.7 3.1 16.3 6.3 32.6 9.4 48.9 0 0.2 0.1 0.4 0.1 0.6 0.1 0.7 0.1 1.5 0.2 2.2 0 0.3 0.1 0.6 0.2 0.9 13.6 70.9 27.3 141.9 40.9 212.8 0 0.2 0 0.4 0.1 0.6v0.3c-0.3 0.4-0.3 0.5-0.4 0.8z m-76.8-169.5c-0.5 0.9-0.7 1.2-0.8 1.5-4 24.7-8 49.3-12 74 0.5 0.2 0.8 0.4 1.1 0.4h22.5c0.4 0 0.8-0.1 1.4-0.3-4.1-25.1-8.1-50-12.2-75.6zM734.7 525.7c4.9 16.1 8.7 32.3 13.2 48.4 4.4 15.9 8.8 31.9 13.2 47.8 1-0.1 1-0.7 1.1-1.2l8.7-31.8c3.4-12.5 6.8-25.1 10.3-37.6 2.2-7.8 4.4-15.6 6.6-23.5 0.2-0.7 0.5-1.4 0.6-1.9 0.2-0.2 0.3-0.2 0.4-0.3 0.1 0 0.2-0.1 0.3-0.1 15.4 0 30.9-0.1 46.3-0.1 0.5 0 1.1 0 1.6 0.1 0.2 0 0.4 0.2 0.6 0.3 0.1 0.2 0.3 0.5 0.3 0.8 0.4 4.3 0 8.4-1.8 12.4-0.5 1.2-0.9 2.4-1.3 3.6-10.3 32.6-20.7 65.3-31 97.9-2.1 6.4-4.6 12.7-6.6 19.2-3.6 11.6-7 23.3-10.5 34.9-0.5 1.7-0.6 3.3-0.6 5v93.2c0 1.2 0.1 2.5-0.1 3.5-0.3 0.3-0.3 0.4-0.4 0.4-0.1 0.1-0.2 0.1-0.3 0.1-15.4 0-30.9 0.1-46.3 0.1-0.6 0-1.3 0-1.9-0.1-0.2 0-0.4-0.2-0.8-0.3-0.1-0.5-0.2-1.1-0.2-1.7v-2.9-92c0-2.9-0.4-5.7-1-8.5-2.1-8.7-4.7-17.3-7.9-25.8-7.1-19.1-13-38.7-19.1-58.1l-12.3-39c-3.5-11.2-6.9-22.4-10.4-33.6-0.5-1.6-0.8-3.3-0.4-5 0.3-1.4 0.1-2.9 0.7-4.3 2.5-0.1 44.4-0.3 49 0.1zM145.1 380.8c3.4-0.4 46.7-0.4 49.2 0 0.7 1 0.4 2.2 0.4 3.4v50.2c0.6 0.1 1.1 0.4 1.6 0.4h29.5c0.3 0 0.6-0.1 1.1-0.2 0.1-0.5 0.3-1.1 0.3-1.7 0.1-1.2 0-2.3 0-3.5V212.5c0-1.3-0.3-2.7 0.3-4 2.5-0.4 46-0.5 49.3-0.1 0.1 0.5 0.2 1.1 0.3 1.7v237.2c0 4.1-0.2 8.2-1.2 12.3-2.6 10.4-9.2 16.5-19.6 18.8-2.7 0.6-5.4 0.8-8.2 0.8h-74.9c-3 0-5.9-0.2-8.8-1-10.1-2.5-16.3-9-18.6-19.1-0.6-2.7-0.9-5.4-0.9-8.2v-67.6c0.1-0.6 0.2-1.5 0.2-2.5zM813.8 479.1h-49.3c-0.1-0.7-0.3-1.2-0.4-1.8-0.1-0.7 0-1.5 0-2.2V372.7 257.9c0-1.3 0.1-2.7-0.2-3.9-1.3-0.7-2.5-0.4-3.6-0.4h-35.2c-1.1 0-2.3-0.1-3.5-0.1-0.1-0.7-0.2-1.2-0.2-1.7-0.3-8.1-0.1-40.4 0.3-43.3 0.5-0.1 1.1-0.2 1.7-0.2H856.2c0.9 1.1 0.6 2.2 0.6 3.2v39c0 0.9-0.1 1.8-0.2 3-1.3 0.1-2.4 0.1-3.6 0.1h-35.2c-1.1 0-2.3 0.1-3.4 0.1-0.6 1.3-0.4 2.5-0.4 3.6v98.9c0 39.7 0 79.5-0.1 119.2 0 1.1 0 2.3-0.1 3.7zM387.7 751c1.5 0.1 2.7 0.1 3.8 0.1H447c1.2 0 2.5-0.2 3.8 0.3 0.1 0.5 0.2 0.9 0.2 1.3v43.9c-0.7 0.2-1.3 0.3-1.9 0.4-0.7 0.1-1.5 0-2.2 0h-105c-1.3 0-2.5 0.1-3.8-0.2-0.1-0.6-0.3-1.1-0.3-1.6-0.1-1.1 0-2.1 0-3.2 0-53.6-0.3-107.2 0.1-160.8 0.2-34.1 0-68.3 0.2-102.4v-2.7c1.2-0.9 2.4-0.6 3.6-0.6h44.1c0.6 0 1.2 0.1 2 0.3 0.3 3.8 0.1 7.5 0.2 11.1v78.9c0 3.7-0.2 7.4-0.2 11.1v112.5c-0.1 3.8-0.1 7.5-0.1 11.6z" p-id="796"></path><path d="M645.2 796.5c-0.2 0.1-0.5 0.3-0.8 0.3h-48c-0.3-0.8-0.6-1.4-0.7-2.1-1.8-11.1-3.5-22.1-5.2-33.2-0.7-4.2-1.3-8.4-2-12.5-0.1-0.4-0.3-0.8-0.4-1.3-3.3-0.5-6.5-0.2-9.8-0.2-3.3-0.1-6.6 0-9.8 0h-9.8c-3.3 0.1-6.5-0.2-10 0.2-1.5 8.2-2.6 16.3-4 24.4-1.3 8.1-2.6 16.3-3.9 24.5-0.9 0.1-1.6 0.3-2.3 0.3h-43.2c-0.8 0-1.6-0.2-2.6-0.3-0.4-3-0.4-5.9 0.2-8.7 3.2-16.7 6.5-33.4 9.7-50.1 2.9-14.7 5.7-29.5 8.6-44.2 2.9-14.7 5.7-29.5 8.6-44.2 2.9-14.7 5.7-29.5 8.6-44.2 0.8-4 1.6-8.1 2.4-12 1.1-0.9 2.3-1 3.4-1.2 12.9-2.3 25.8-4.5 38.7-6.8l29.4-5.1c0.5-0.1 1 0 1.4 0 0.2 0.2 0.3 0.2 0.3 0.3 0.1 0.1 0.2 0.2 0.2 0.3 13.8 71.7 27.6 143.4 41.3 215.1-0.1 0.2-0.2 0.4-0.3 0.7z m-64.3-93.7c-1.4-8.4-2.7-16.9-4.1-25.3-1.4-8.4-2.8-16.9-4.1-25.3-2.3-15.4-3.6-23.1-4.5-25.1-0.2 0.3-0.5 0.5-0.5 0.8-1 4.5-11.9 72.9-11.9 75.1 0.4 0.1 0.8 0.2 1.2 0.2h22.8c0.3 0 0.6-0.2 1.1-0.4zM144.2 380.7H193c0.7 1.4 0.5 2.6 0.5 3.7v46.3c0 1.2 0.1 2.5 0.1 3.5l0.5 0.5c0.1 0.1 0.2 0.1 0.3 0.1 9.7 0 19.5 0.1 29.2 0.1 0.6 0 1.3 0 1.9-0.1 0.2 0 0.4-0.2 0.7-0.3 0.1-0.5 0.2-1.2 0.3-1.8v-3.8-215.8c0-1.6-0.2-3.1 0.4-4.8 0.7-0.1 1.3-0.2 1.9-0.2 12.9-0.3 44-0.2 47.1 0.3 0.1 0.6 0.2 1.2 0.2 1.8V447.5c0 1.5 0 3-0.1 4.4-0.1 1-0.3 2.1-0.4 3.2-1.6 0.3-3 0.7-4.5 1-15.1 2.6-30.2 5.2-45.3 7.9-15.1 2.6-30.2 5.3-45.3 8-6.9 1.2-13.8 2.3-20.6 3.6-1.7 0.3-3.1 0-4.5-0.9-5-3.2-8.1-7.7-9.8-13.2-0.9-2.8-1.4-5.7-1.5-8.7 0-1.3-0.1-2.5-0.1-3.8v-64.1c0.1-1.3 0.2-2.5 0.2-4.2zM741.8 555.9c6.2 22.4 12.2 44.5 18.3 66.5 1.1 0 1.1-0.6 1.2-1.1 1.9-6.8 3.8-13.6 5.6-20.5 4.5-16.3 8.9-32.6 13.4-48.9 0.2-0.9 0.6-1.8 0.8-2.7 0.6-0.2 1-0.5 1.5-0.6 17.1-3 34.1-5.9 51.2-8.9 0.2 0 0.4 0.2 0.7 0.3-0.3 1-0.5 2-0.8 3-10.4 32.9-20.8 65.9-31.3 98.8-2.1 6.4-4.5 12.7-6.6 19.2-3.4 11-6.7 22.1-10 33.1-0.6 1.8-0.7 3.7-0.7 5.6v96.6c-1.2 1-2.4 0.7-3.6 0.7H739c-1 0-2.1 0-3.2-0.1-0.2-0.8-0.4-1.4-0.4-2-0.1-0.9 0-1.9 0-2.9v-91.7c0-3.1-0.4-6.1-1.1-9.1-2.1-8.6-4.7-17.1-7.8-25.4-7.1-19.1-13-38.7-19.1-58.1-4.2-13.2-8.3-26.4-12.5-39.6-0.3-1.1-0.7-2.2-1-3.3 0.7-1 1.7-1 2.6-1.2 7.3-1.3 14.6-2.6 21.9-3.8 6.9-1.2 13.7-2.4 20.6-3.6 0.8-0.2 1.6-0.2 2.8-0.3zM672.1 300.5c-5 0.4-46.4 0.2-49-0.1-0.4-1-0.3-2.2-0.3-3.3v-32.4-9.8c0-0.9-0.1-1.8-0.2-2.9-0.7-0.1-1.2-0.3-1.7-0.3-5.1-0.3-32.3-0.1-34.7 0.3-0.1 0.5-0.3 1.1-0.3 1.7v35.5c0 1.3 0.4 2.2 1.3 3.1 2.4 2.2 4.8 4.5 7.2 6.7l67.2 63.3c6.3 5.9 9.7 13.2 10.6 21.7v0.6c0 0.2-0.1 0.4-0.1 0.7-0.7 0.9-1.8 0.9-2.8 1.1-11.3 2-22.7 3.9-34 5.9-3 0.5-6 1.1-9 1.6-0.9 0.2-1.9 0.2-2.8 0.3-0.4-0.9-0.7-1.8-1.3-2.5-0.5-0.7-1.2-1.2-1.8-1.8-23.8-22.5-47.6-45.1-71.4-67.6-0.5-0.4-0.9-0.9-1.4-1.3-7.6-6.8-11.2-15.5-11.2-25.6v-14.9V238c0-3.9 0.3-7.8 1.4-11.6 2.9-9.8 9.5-15.4 19.4-17.5 2.6-0.5 5.2-0.7 7.9-0.7h78.7c3.3 0 6.5 0.3 9.7 1.2 10.3 2.7 16.2 9.4 18.2 19.7 0.5 2.5 0.7 5 0.7 7.6 0.1 20.3 0 40.6 0 60.9-0.1 0.9-0.2 1.8-0.3 2.9zM855.7 253c-3.9 0.4-7.3 0.1-10.8 0.2h-21c-3.5 0-6.9-0.1-10.6 0.1-0.1 0.8-0.3 1.3-0.3 1.9-0.1 1.1 0 2.1 0 3.2V360.5c-0.9 0.9-2 1-3 1.2-14.3 2.5-28.5 5-42.8 7.5-1 0.2-2.1 0.2-3.3 0.3-0.1-0.7-0.3-1.3-0.3-1.9v-3.2-106.9c0-1.3 0.2-2.7-0.5-4.2-1.2 0-2.3-0.1-3.4-0.1h-35.2c-1.1 0-2.3 0.1-3.2-0.2l-0.4-0.4c0-0.1-0.1-0.2-0.1-0.3 0-14-0.1-27.9-0.1-41.9 0-0.4 0-0.8 0.1-1.3 0-0.2 0.2-0.4 0.3-0.6l0.2-0.2c0.1 0 0.2-0.1 0.3-0.1 0.9 0 1.9-0.1 2.8-0.1 43.5 0 87 0 130.4 0.1 0.2 0 0.4 0.1 0.7 0.3 0.5 1 0.3 2.2 0.3 3.3v37.4c0 1.2 0 2.3-0.1 3.8zM386.9 751.4h62.8c0.1 0.9 0.3 1.5 0.3 2.1v41.2c0 0.5-0.1 1-0.2 1.7-0.6 0.1-1.2 0.3-1.8 0.4-0.7 0.1-1.5 0-2.2 0H341.1c-1.2 0-2.5 0.3-3.8-0.5-0.1-0.6-0.2-1.2-0.2-1.8-0.4-11.1-0.1-164.6 0.3-167.7 0.5-0.2 1-0.5 1.6-0.6 8.3-1.5 16.6-3 25-4.4 6.8-1.2 13.5-2.4 20.3-3.5 0.6-0.1 1.2-0.1 2-0.2 0.1 0.7 0.3 1.3 0.3 1.9v126.9c0 1.4-0.2 2.8 0.3 4.5zM193.7 702.8c0 1.5-0.1 2.7-0.1 4v86c0 1.2 0.2 2.5-0.3 3.9-1 0.1-1.9 0.2-2.8 0.2-23.3 0.3-43.7 0.1-46.1-0.4-0.1-0.5-0.2-1.1-0.2-1.7v-2.5-127.2-4.1c0.5-0.3 0.9-0.5 1.2-0.6 2.2-0.6 45.9-8 47.9-8.1 0.7 1.8 0 3.7 0.6 5.8 0.6 0.1 1.3 0.4 2 0.4h30.8c1.2 0 2.3 0 3.6-0.1 0.1-0.8 0.3-1.5 0.3-2.2v-7.6c0-0.9 0.1-1.9 0.1-2.8 0.5-0.2 0.9-0.5 1.3-0.5 15.1-2.7 30.2-5.3 45.3-8 0.9-0.2 1.9-0.2 3-0.4 0.1 0.7 0.3 1.3 0.3 1.9 0 11.8 0.1 23.7-0.1 35.5 0 3-0.5 6.1-1.2 9.1-2.6 10.4-9.5 16.4-19.9 18.5-3 0.6-6.1 0.7-9.2 0.7h-52.4c-1.2-0.1-2.5-0.3-4.1 0.2zM385.4 435.8c-0.9 0.3-1.5 0.6-2.1 0.7-15.6 2.6-31.2 5.6-47 8.2-0.1-0.8-0.3-1.4-0.3-2-0.1-0.8 0-1.7 0-2.5V212.7c0-1.4 0-2.7 0.1-4.1 1.2-0.7 2.4-0.5 3.6-0.5h45.5c0.1 0.7 0.3 1.3 0.4 1.9 0.1 0.7 0 1.5 0 2.2v219.5c-0.2 1.4-0.2 2.6-0.2 4.1zM427.5 428.6c-0.4-3.2-0.4-217.2-0.1-220 1-0.8 2.2-0.4 3.3-0.4h42.8c0.9 0 1.8 0.1 2.9 0.2 0.1 0.7 0.2 1.2 0.2 1.7 0.3 10.1 0.1 206.8-0.2 209.8-2.1 1.1-4.4 1.1-6.7 1.5-11.9 2.1-23.7 4.2-35.6 6.3-2.1 0.2-4.2 0.5-6.6 0.9zM536.7 382.9c0.4-0.1 0.9-0.2 1.5-0.2 7.1-0.3 44.8-0.1 47.4 0.3 0.6 2.9 0.2 5.8 0.3 8.7 0.1 2.9 0 5.9 0 8.9-1.4 0.7-2.8 0.9-4.1 1.1-10.4 1.8-20.8 3.6-31.2 5.5-3.9 0.7-7.7 1.4-11.6 2-0.7 0.1-1.5 0-2.4 0-0.1-0.7-0.3-1.4-0.4-2.1-0.3-8.7-0.1-21.6 0.5-24.2z" p-id="797"></path></svg>