<?xml version="1.0" standalone="no"?><!DOCTYPE svg PUBLIC "-//W3C//DTD SVG 1.1//EN" "http://www.w3.org/Graphics/SVG/1.1/DTD/svg11.dtd"><svg t="1575020253983" class="icon" viewBox="0 0 1024 1024" version="1.1" xmlns="http://www.w3.org/2000/svg" p-id="15051" xmlns:xlink="http://www.w3.org/1999/xlink" width="200" height="200"><defs><style type="text/css"></style></defs><path d="M106.7 751.4c3.7-15.2 7.6-30.4 11-45.6 35.4-155.1 70.7-310.3 106.1-465.8h164.5c-30.3 130.9-60.4 261.3-90.8 392.4h120.4c-7.6 39-15 77.4-22.5 115.9-2 0.2-3.6 0.4-5.2 0.4-92.7 1.5-185.4 3.1-278.2 4.6-1.8 0-3.6-0.5-5.4-0.7 0.1-0.4 0.1-0.8 0.1-1.2zM542 241.2h348.4c-4.6 19.4-9.1 38.3-13.6 57.1-4.1 17.3-8.4 34.5-12.3 51.8-1.1 4.9-3 6.4-8.1 6.4-80.3-0.2-160.5-0.1-240.8-0.1h-8.4c-18.6 91.5-37.1 182.6-55.7 274.2H726c2.5-18.1 5.2-36 7.4-54 0.2-1.8-1.8-4.3-3.4-5.8-22.5-20.6-45.1-41-67.7-61.5-1.5-1.4-3-2.8-5.2-4.9h172.8c-14.7 81.4-29.4 162.8-44.1 244.6H433.7c36.1-169.6 72.2-338.6 108.3-507.8z" p-id="15052"></path></svg>