<?xml version="1.0" standalone="no"?><!DOCTYPE svg PUBLIC "-//W3C//DTD SVG 1.1//EN" "http://www.w3.org/Graphics/SVG/1.1/DTD/svg11.dtd"><svg t="1575019376647" class="icon" viewBox="0 0 1024 1024" version="1.1" xmlns="http://www.w3.org/2000/svg" p-id="13569" xmlns:xlink="http://www.w3.org/1999/xlink" width="200" height="200"><defs><style type="text/css"></style></defs><path d="M19.6 530c0-48.6 0.1-97.2-0.1-145.9 0-11.8 8.1-23.3 18.2-26.2 7.5-2.1 15.4-4 23.1-4.1 53.2-0.4 106.4-0.3 159.7-0.1 5.2 0 8-2.4 10.6-6 7.8-10.7 18.6-17.8 29.6-24.6 18.6-11.3 38.9-18.7 59.5-25C356.3 287 393.4 282 431 279c44.2-3.5 88.4-3.7 132.5-2.1 24.2 0.9 48.3 4.2 72.3 7.4 17.4 2.3 34.6 5.8 51.7 9.8 10 2.3 19.6 6.5 29.3 10.1 9.2 3.4 18.3 6.7 27.3 10.6 5.9 2.5 11.6 5.6 16.9 9.2 7.4 5 14.6 10.5 21.5 16.1 2.8 2.3 5.4 5.2 7.1 8.3 2.4 4.5 6.1 5 10.5 5 53.7 0 107.5-0.3 161.2 0.2 8.1 0.1 16.5 2.7 24.1 5.8 10 4.1 14.1 13.3 14.1 23.7 0.1 80 0 160 0.1 239.9 0 17 0.2 34.1 1.1 51.1 0.8 14.1-7.2 22.5-17.4 29.5-2.8 1.9-7.5 1.6-11.3 1.6-49 0.1-98 0.5-147-0.2-12.8-0.2-21.7 4.1-29.4 13.4-5 6.1-10.6 11.7-15.6 17.8-2.5 3-5.2 4.1-9.1 4.1-75.6-0.2-151.2-0.3-226.8-0.3-97.6 0-195.2 0.1-292.8 0.4-6.8 0-10.3-3.2-14.4-7.7-8.1-8.8-16.8-17-25.6-25.2-1.6-1.5-4.7-2.1-7.1-2.1-51.5-0.1-102.9-0.1-154.4-0.1-18 0-30.4-12.6-30.4-30.6 0.2-48.2 0.2-96.5 0.2-144.7z m966.5-2.6V387.9c0-11.2-10.7-21.8-21.8-21.8-56.9 0-113.8-0.1-170.8-0.1-1.4 0-2.8-0.2-4.1-0.5-9.4-1.9-16.9-7.4-23.9-13.4-16.5-14.2-34.4-26-55.2-32.4-15.7-4.9-31.7-9.4-47.9-12.1-25.3-4.2-50.7-7.8-76.2-9.8-24.4-2-48.9-1.8-73.4-2.2-57.3-1-114.3 2.3-170.5 14.5C309 317.3 278.7 330 253 353c-7.5 6.7-16 12.9-26.8 13-56.7 0.2-113.5 0.2-170.2 0.2-12.3 0-22.5 10.3-22.5 22.7v275.9c0 1.8-0.2 3.6 0.2 5.3 0.5 1.9 1.3 4.1 2.6 5.5 3.4 3.6 6.9 7 10.8 10.1 1.9 1.5 4.6 2.9 7 2.9 54.1 0.2 108.2 0.1 162.3 0 1.7 0 3.9-0.7 5.1-1.9 9-8.2 17.9-16.5 26.5-25 2.7-2.7 5.4-3.8 9.2-3.8 96.2 0.1 192.4 0.1 288.7 0.1 72.4 0 144.9 0 217.3-0.1 3.9 0 6.9 0.9 9.7 3.8 6.6 6.9 13.7 13.2 20.4 19.9 5.1 5.1 10.6 7.2 18.1 7.2 50.4-0.4 100.8-0.2 151.2-0.2 12.3 0 23.6-11.3 23.6-23.7-0.1-45.9-0.1-91.7-0.1-137.5zM341.3 724.2v-43.1c4.4 13 8.8 25.7 12.9 38.6 1.3 4.1 3.1 6.1 7.6 4.3 5.1-14.2 10.3-28.6 15.6-43.4v43.6h5.6v-49.3c-3.4 1.1-7.6-2.6-9.6 2.6-4.9 12.6-9.5 25.3-14.3 38-3.9-11.2-7.9-22.4-11.8-33.7-2.7-7.9-3.3-8.3-12-6.1v48.6c2.2-0.1 4-0.1 6-0.1z m225.4-7.7c-3.5-14.3-6.9-28-10.2-41.4h-6.9c4.2 15.4 8.4 30.5 12.3 45.6 0.7 2.8 1.5 3.8 4.4 3.8 2.8 0 3.8-0.8 4.5-3.7 3-11.9 6.5-23.7 10.1-36.4 3.6 13.7 6.9 26.6 10.4 39.8 2.8-0.6 6.4 2.4 7.8-2.6 4.5-15.5 9-31 13.8-47.4-2.9 1.5-6.3-1.4-7.5 3.6-3.1 12.5-6.7 24.9-10.2 37.7-0.4-0.9-1-1.6-1.2-2.4-2.9-11.6-5.7-23.3-8.8-34.8-0.4-1.4-2.6-3.3-4-3.3s-3.6 1.8-4 3.3c-3.7 12.5-7 25-10.5 38.2z m107.4-0.7c-7.7-12.6-15.1-23.8-21.7-35.5-3-5.2-6.4-6.6-11.8-5v49h6.2v-41.4c7.8 12.8 15.2 24.2 21.8 36.1 2.7 4.9 5.8 6.5 11.1 5v-48.9h-5.6v40.7z m-195.4-26.7c-1.6-8-6.5-12.8-13.6-14-8.6-1.5-17.3-1-23.5 6.8-5.9 7.4-6.6 16.2-5.1 24.9 2 11.6 10.6 18.5 21.6 17.9 5.8-0.3 10.4-1.9 14.7-6.7 0.2 2.7 0.3 4.5 0.4 6.6 1.9-0.1 3.4-0.2 4.7-0.3v-25.9h-19.4v5.2h13.2c0.4 8.7-2.8 14.1-9.2 15.6-7.7 1.8-14.9-1.4-17.8-8.4-3.4-8.3-3.4-16.6 1.5-24.5 5.3-8.4 19.6-8.6 24.3 0 2.3 3.6 4.5 3.6 8.2 2.8zM396.3 675v49.2h32.1c0.4-1.8 0.8-3.6 1.4-5.8h-26.7V701h24.4c-0.1-2-0.2-3.4-0.4-5.3h-23.8v-15.2h25.3V675h-32.3z m89.3 48.9c4.8 1.6 7 0.3 8-4.1 0.7-3.4 2.4-6.7 3.6-9.8h19.9c1.1 3 2.1 5.8 3.2 8.9 0.4-0.9 0.7-1.5 0.9-1.9 2.2 2.6 4.5 5.2 6.8 7.9l1.2-0.9c-5.8-15.6-11.5-31.2-17.4-46.7-0.5-1.2-2.8-2.3-4.2-2.3-1.7 0-4.5 0.9-4.9 2.1-6 15.4-11.5 30.9-17.1 46.8z m141.1 0.4V675h-6.3v49.3h6.3z m-337.9-23.4c5.4 0 10.9 0.2 16.3-0.1 1.6-0.1 3.2-1.9 4.7-3-1.6-1-3.1-2.7-4.8-2.8-5.4-0.4-10.9-0.1-16.4-0.1-0.4-2-0.7-3.6-1.1-6.2-6.9 3-13.3 5.7-19.7 8.4-0.1 0.7-0.1 1.4-0.2 2.1 6.2 3 12.4 5.9 18.9 9.1 0.9-3 1.5-5 2.3-7.4z m445.2 7.4c6.7-3.3 12.8-6.2 18.8-9.2-0.1-0.7-0.1-1.4-0.2-2.1-6.4-2.7-12.9-5.4-19.7-8.2-0.4 2.8-0.7 4.3-1 6.1-5.4 0-10.5-0.3-15.5 0.1-2 0.2-3.8 1.8-5.8 2.8 1.9 1 3.8 2.7 5.9 2.9 5 0.4 10.1 0.1 15.1 0.1 0.8 2.5 1.4 4.5 2.4 7.5z" p-id="13570"></path><path d="M515 703.7c-2.7-7.7-5.3-14.9-8.2-23-2.7 8.3-5.1 15.5-7.6 23H515z" p-id="13571"></path><path d="M38.5 526.3c0-47.2-0.2-94.4 0.3-141.6 0-3.4 4.2-7.5 7.5-9.8 3.2-2.2 7.8-3.3 11.8-3.4 56.9-0.2 113.8-0.3 170.8 0 9.6 0.1 16.7-4.4 22.8-10.2 18.2-16.9 38.4-30.1 62.3-37.7 25.5-8.1 51.4-13.6 77.9-17.1 10.8-1.4 21.7-2.2 32.6-2.8 22-1.2 44-2.9 65.9-3 30.5-0.1 60.9 0.8 91.4 2 25.3 0.9 50.6 3.1 75.4 8.5 21.5 4.7 43.2 8.9 63.5 17.9 14.8 6.6 28.3 15.4 40.5 26.1 3.2 2.7 6.1 5.7 9.3 8.4 7.3 6.1 15.6 8 25.3 7.9 55.3-0.4 110.7-0.1 166-0.3 8.3 0 13.7 4.5 18.5 10.2 0.7 0.8 0.6 2.3 0.6 3.5 0 81.2-0.1 162.4-0.1 243.6 0 11.9 0.5 23.8 1.2 35.7 0.2 4.4-1.2 7.5-4.1 10.8-5 5.6-10.2 8.5-18.3 8.4-50.2-0.5-100.4-0.3-150.7-0.2-4.2 0-7.3-1.2-10.2-4.2-6.6-6.8-13.5-13.4-20.1-20.2-4.3-4.4-9.3-6.3-15.4-6.3-168.7 0.1-337.3 0.1-506 0-6.2 0-11.1 2-15.4 6.4-6.9 7.1-13.7 14.2-21 20.9-2.1 1.9-5.5 3.3-8.3 3.3-52.7 0.2-105.4 0.1-158.1 0.3-4.2 0-5.7-2.7-8.2-4.7-5.9-4.7-8-10.4-7.9-18.2 0.4-44.7 0.2-89.5 0.2-134.2 0.1 0 0 0 0 0z m8.5 1.3v132.6c0 8 6.7 14.5 15 14.5 48.8 0.1 97.6 0.1 146.4-0.1 2.5 0 5.6-1.3 7.4-3 8.2-7.5 16.2-15.1 23.9-23.1 2.8-2.8 5.6-3.5 9.3-3.5 116.3 0.1 232.6 0.2 348.9 0.2 58.2 0 116.3-0.1 174.5 0 2.4 0 5.4 1.2 7.2 2.8 7.4 6.8 14.5 13.8 21.5 21 3.9 3.9 8.1 5.8 13.9 5.8 46.7-0.3 93.4-0.1 140.1-0.1 1.6 0 3.2 0.1 4.8-0.1 5.1-0.6 13.3-7.1 13.1-10.5-0.2-4-0.6-8-0.6-12-0.1-85.4-0.2-170.9-0.2-256.3 0-10.5-6.9-17.2-17.5-16.9-2.1 0.1-4.2 0.1-6.3 0.1-52.7-0.1-105.4-0.5-158.1-0.1-13.3 0.1-22.6-7.2-32.4-14-11.3-7.9-21.6-17.6-33.6-24.2-22.3-12.4-46.9-18.5-72.1-22.3-48.6-7.4-97.6-6.8-146.5-7.4-29-0.4-58.1 1-87.1 2.3-33.6 1.5-67 5.2-99 16.6-15.6 5.6-30.5 12.3-43.5 22.9-10.8 8.8-21.1 18.5-34.2 24-2.2 0.9-4.6 2.1-6.8 2.1-57.4 0.1-114.9 0.2-172.3 0.2-8.5 0-15.8 7-15.8 15.4 0.1 44.3 0.1 88.7 0 133.1z" p-id="13572"></path><path d="M515 703.7h-15.8c2.5-7.6 4.9-14.8 7.6-23 2.9 8.1 5.4 15.3 8.2 23zM510.2 639.9H249.5c-6.7 0-12 1.9-16.7 7-6 6.7-12.4 13-19.1 19-2.2 2-5.8 3.5-8.8 3.5-46.9 0.2-93.8 0.2-140.6 0.2-7.4 0-12.1-4.8-12.1-12.3 0-59.4 0-118.7-0.1-178.1 0-27.5-0.3-55 0-82.4 0.1-9.7 4.1-12.7 12.6-12.5 37.5 0.7 75.1 0.8 112.6 1 18.7 0.1 37.4-0.2 56 0.2 8.7 0.2 15.2-4.1 21.7-8.9 12.3-9.3 24.1-19.4 37-27.6 20-12.7 42.4-20.1 65.8-23.5 17.5-2.6 35.2-4.2 52.8-5.5 21.9-1.6 43.9-2.5 65.8-3.4 10.5-0.4 21 0.1 31.6 0 3 0 5.9-0.7 8.9-0.6 25.6 0.8 51.3 1.7 76.9 2.7 11.6 0.5 23.2 1.1 34.7 2.2 27.3 2.6 54 7.3 79.6 18 16.9 7.1 31.4 17.6 45.4 29.2 7.3 6.1 15.7 10.9 23.8 16 1.3 0.9 3.3 1 5 1 52.9 0 105.7-0.1 158.6-0.2 4.8 0 9.5-0.1 14.2-0.7 8.7-1 11.9 4.4 12 11.6 0.3 35.9-0.2 71.9-0.3 107.8-0.1 34-0.1 68 0 102 0.1 17.2 0.7 34.4 1 51.6 0.1 7.6-4.7 12.4-12 12.4-46.9 0-93.8 0.1-140.6-0.2-3.1 0-6.8-1.7-9.2-3.8-6.8-6.1-13.3-12.6-19.5-19.3-4.3-4.7-9.3-6.3-15.4-6.3-86.8-0.1-173.8-0.1-260.9-0.1z m4.7-213.7c-1.6-6.6 0.2-10.8 6.6-12.6 1.1-0.3 2.1-1.2 3-2 2.4-2.3 2.6-4.4-1.1-5.3-4.2-1.1-8.4-2-12.7-2.6-8.5-1.3-17.1-2.4-25.3-3.5 1.1 8.9 2.1 17.3 3.1 25.7h-35.3c3.3 8.5 1 8.2 11.9 7.6 7.5-0.4 15-0.1 22-0.1 0 11.5 0.3 23-0.1 34.5-0.2 5.6 2.2 8.6 8.6 8.1 4.2-0.3 8.3-1.2 12.4-2.1 4.2-0.9 7.4-3 6.7-8h6.8v21.8c-11.4 0-22.3 0.1-33.2-0.1-3.2-0.1-6.5-0.9-9.6-1.8-7.4-2.2-14.8-4.7-21.3-6.8 0 16.1-0.1 31.7 0 47.3 0.1 14.2 0.6 28.5 0.4 42.7-0.1 12.5-0.9 24.9-1.5 37.3-0.2 4.8 2.5 7 6.6 6.9 4.8-0.1 9.8-0.8 14.4-2.3 1.9-0.6 4-4 4.2-6.2 0.5-7 0.7-14.1 0.1-21.1-0.7-7.7 0.8-13.7 8.3-17.2 1.4-0.6 2.5-2 3.5-3.2 4.2-5.2 8.4-10.4 11.8-14.7 2 6.8 4 14.3 6.5 21.7 0.5 1.6 2.4 2.7 3.6 4 0.9-1.3 2-2.6 2.7-4 1.4-2.8 2.5-5.6 4-9 0 13.7 0.1 26.4-0.1 39 0 3.9 1.9 5.9 5.2 5.7 5.5-0.3 11.1-1.1 16.5-2.4 1.6-0.4 3.5-3.4 3.6-5.2 0.2-5-0.4-10.1-0.8-15.2-0.4-4.3 0.4-7.5 4.3-10.3 3.9-2.8 7.3-6.6 10.3-10.5 3.8-5 6.9-10.5 10.4-16.1 0.6 11 2.5 21.3 9.6 31.2 1.9-4.3 3.4-7.6 4.9-11.1v10.3c0 3.9-1.8 5.6-5.9 5.2-8.5-0.9-17.1-1.4-25.8-2-0.5 1.4-1 2.9-1.5 4.4 3.9 1.7 7.8 3.1 11.5 5 6.3 3.3 12 7 14.4 14.3 2.9 8.8 5.1 9.7 13.8 6.3 2.4-1 4.7-2.2 7-3.5 7.5-4.4 11.6-10.5 11.5-19.7-0.3-21.8 0.2-43.7-0.2-65.5-0.2-9.2 0-17.4 9.6-22.3 2.8-1.4 3.1-4.2 0.1-6.3-6.2-4.5-12.4-9-18.7-13.4-3.6-2.6-7.4-2.5-10.2 1-6.3 7.6-14.7 8.2-23.6 7.6-5.8-0.4-11.6 0-17.4-0.1-1.3 0-2.7-0.3-3.8-0.4v-21.5h6.9c0.3 7.3 1.1 8.4 8.5 8.1 4.3-0.2 8.6-1.2 12.9-2 4.6-0.9 6.7-3.3 6.5-8.4-0.4-10.1-0.1-20.3-0.1-30.7 13 0 25.3 0 37.6-0.1 1.5 0 3.9-0.4 4.4-1.4 0.6-1.1 0.1-3.6-0.9-4.6-5.3-5.5-10.8-10.9-16.6-15.9-1-0.9-4.5-0.4-5.7 0.7-4 3.7-7.3 8.1-11.2 11.9-1.8 1.7-4.4 2.5-6.9 3.8-2-7.8 0.1-11.8 6.6-13.7 1.7-0.5 2.9-3.1 4.3-4.8-1.5-1-2.9-2.7-4.5-3-12.1-2-24.3-3.7-36-5.5 0.7 9 1.3 17.5 1.9 26.1h-39.5z m330.7 10.3c-1.5-6 1.7-8.8 6.5-11.1 6.3-2.9 6.6-5.6 1.4-10.4-3.2-3-6.7-5.6-10.2-8.2-8.5-6.3-11.1-6.3-19.3 0.3-4.2 3.4-8.6 5.2-14.3 5.2-26.2-0.3-52.5-0.1-78.7-0.3-3 0-6.1-1-9-2.2-8.3-3.4-16.5-7.1-24.8-10.8-1 11.5-2.2 21.9-2.8 32.4-0.3 4.3-1.6 5.9-6 5.6-10.6-0.7-21.3-1.1-32.4-1.7 1.3 3.1 2.5 6.1 3.5 8.5h32.8c-1.2 8-2 15.8-3.7 23.4-0.8 3.7 0.7 5.3 3.5 5.6 6 0.5 12.1 0.4 18.2 0.3 1.5 0 3.9-0.6 4.2-1.5 1.4-3.6 4.2-2.9 6.9-2.9H807c3.1 0 6.6-1.1 7.9 3.5 0.2 0.9 2.3 1.5 3.6 1.7 3.1 0.7 6.3 1.1 10.1 1.7-1.5 1.4-2.9 2.3-3.8 3.6-3.6 5.3-8.5 6.6-14.9 6.5-22.2-0.4-44.4-0.4-66.6 0-12.5 0.2-24.6-0.5-36.3-5.9-5.5-2.5-11.7-3.5-18-5.2 0.8 7.8 1.9 14.6 2 21.4 0.2 23.1 0.9 46.2-0.2 69.2-0.8 16.1 3.7 14.3 14.5 13.2 11.6-1.2 14.6-2.1 14.6-11.1h102.3c-0.3 0.4-0.6 0.8-1 1.2 2.3 2.3 4.6 6.6 6.9 6.6 6.7 0 13.4-1.5 20-2.8 3.1-0.6 4.2-3 4-6.4-1-17.3-1.5-34.7-2.7-52-0.5-7.9 1.2-13.9 8.8-17.9 4.4-2.3 4.5-5.6 0.6-8.8-6.4-5.3-13.3-10.1-20-15.1 5.5-8.3 2.2-19.3 5.8-28.7h39.5c4.6 0 7.1-2.7 4.8-5.3-5.4-5.9-11.3-11.4-17.2-16.7-0.9-0.8-4.1-0.3-5.2 0.7-3.4 3-6.4 6.5-9.3 10-3.1 3.6-6.3 6.4-11.6 4.4zM360 581.1c-51-19.9-84.7-55.4-97.2-110.3h80.5c4.1 0 8.1 0.1 12.2 0 3.8-0.1 4.9-3 2.7-5.2-7.7-7.9-15.7-15.4-24-22.6-1.2-1-5.6 0-7.2 1.4-5.4 5.2-10.2 11.1-15.4 16.6-1.3 1.4-3.2 3.3-4.9 3.3-17.6 0.2-35.2 0.1-52.9 0.1 1.2-11.2 2.9-21.9 3.4-32.7 0.3-7.1 0.2-13.4 8.7-15.6 0.6-0.2 1.1-0.8 1.6-1.3 3.1-3.1 2.8-5-1.4-6.3-5.3-1.6-10.7-2.9-16.2-3.9-7.8-1.4-15.7-2.5-23.6-3.7v64.2c-31.8-0.7-62.7-1.3-93.2-2-0.2-0.6-0.1-0.1 0.1 0.3 3.2 8.7 3.2 8.6 12 8.5 24.5-0.4 48.9-0.7 73.4-1.1h6.3c-0.5 3-1 5.4-1.3 7.7-3.3 24.6-11.6 47.3-25.5 67.8-16 23.6-37.2 41.8-61.2 56.9-3.6 2.2-4.2 4.1-1.1 7.2 25.9-10.6 50.2-23.7 70.7-43 23.7-22.4 37.6-50 43.5-81.9 0.9-4.9 2-9.8 3-14.7 1.6 0.8 2 1.6 2.2 2.3 2.5 12.6 4.5 25.4 7.6 37.8 9.7 38.8 31 70 62.9 93.9 8 6 10.6 5.5 15.4-3.2 3.3-5.9 8-10.2 14.2-12.7 3.4-1.3 5.9-2.9 4.7-7.8z m33.6-26.7c3.6 1.2 7 2.3 10.4 3.4 6.9 2.3 10.1 7.5 9.8 14.4-0.3 7.5-1.5 14.9-2.6 22.3-0.9 6 0.9 11 6.8 12.4 5.6 1.4 11.7 1.7 17.3 0.8 2.7-0.4 5.7-4.5 6.9-7.6 1.1-3 0.8-7.1-0.3-10.3-5.4-17.3-5.5-34.7-1.3-52.2 7.1-29.8 14.3-59.7 21.6-89.9-1.4-0.4-3.2-1-4.9-1.5-4.7 11.9-9.2 23.2-13.7 34.5-7.7 19.4-15.5 38.7-23.1 58.2-2.3 5.9-6.3 8.8-12.6 9.1-4.6 0.2-9.3 0.8-13.8 1.2-0.2 2.1-0.3 3.6-0.5 5.2z m78.6-207c-0.4 0.5-0.8 0.9-1.2 1.4-0.6-1.7-2-3.6-1.5-4.9 0.9-2.4 2.3-5.3 4.4-6.4 6-3.4 17.1-0.5 20.1 4.7 3.8 6.5 1 15.5-6.3 20.2-7.6 4.8-15.6 4.8-23.8 2.1-12.1-4-23.1-9.9-33.4-17.4-10.6-7.8-22.3-10.6-35.3-7.3-7 1.8-12.1 6.7-13.2 12.8-0.7 4.2-0.2 7.7 4.3 9.6 3.6 1.5 6.8 1.4 9.7-1.6 3.4-3.6 2.2-6.9-0.9-10 6.1-6 13.1-5.7 19.8-3.3 6.4 2.3 12.4 5.8 18.4 9.1 11.7 6.4 23 13.4 36.4 16.4 15.9 3.5 26.4-5.2 30.7-18.2 2.4-7.3 1.4-15-5.3-20.7-5.3-4.4-11.5-5.5-17.9-4.5-7.7 1.2-16.2 7.9-14.6 18.1 1.2 7.5 8.3 11.7 17.4 10.2 4.2-0.7 7.4-4.4 7.1-8.5-0.3-4.6-4.1-5.9-7.4-5.7-2.7 0.1-5.1 2.5-7.5 3.9z m152.4 3.1c-3.2 3.1-4.3 6.2-1.5 9.6 2.6 3.2 6 3.5 9.6 2.3 3.9-1.3 5.3-4.2 5-8.3-0.6-7.2-6.1-12.7-14-14.4-12.4-2.8-23.4-0.3-34 6.7-8 5.3-16.4 10.1-25 14.5-8.4 4.3-17.3 6.8-26.9 4.3-9.6-2.5-15.6-11.3-13.5-20.1 1.7-6.9 10.6-10.8 19.8-8.4 3.4 0.9 6.2 2.9 6 6.9-0.1 1.8-1.3 3.5-2.4 6.2-1.4-1.9-1.9-2.4-2.2-3-1.8-3.5-4.7-4.3-7.9-2.8-2 0.9-4.9 3.1-4.8 4.4 0.3 2.8 1.6 6.7 3.7 7.9 6.7 3.7 19.8 1.5 20.4-10.5 0.4-7.4-3.9-11.7-9.9-14.8-8.5-4.4-24.5-1.8-27.9 10.7-4.7 17.3 11.2 36 29.3 30.8 8.7-2.5 17.2-5.9 25.5-9.8 9.8-4.6 19.1-10.6 29-15 7.1-3.1 14.7-3.3 21.7 2.8z m39.2 256.1c-0.8 5.2 1.7 6.4 5.8 5.8 4.5-0.7 9-1.5 13.5-2.1 22.1-2.7 43.4-8.2 63.6-17.6 4.7-2.2 9.2-4.7 15-2.7 1.7 0.6 4.3-1.4 6.4-2.2-1.3-1.9-2.1-4.6-3.9-5.5-8-4.2-16.3-7.9-24.6-11.6-1-0.5-3.1 0.2-4.1 1-21 17.3-45.4 27.9-71.7 34.9z m120.4-27.4c20.8 6.8 40 15.6 57.5 27.9 4.8 3.4 10.1 5.3 16.1 4.3 5.9-1 11.9-7.3 12.9-13.5 0.8-4.8-1.8-8.2-8.8-11.5-1.6-0.7-3.2-1.2-4.9-1.7-22.9-6.9-46.6-8.4-70.3-10.2-0.8-0.1-1.7 0.2-2.6 0.3 0.1 1.6 0.1 2.9 0.1 4.4zM408.1 366.6c-3.3 0.8-5.3 0.9-6.9 1.7-11 5.7-20.3 2-28.9-5.2-3.9-3.2-7.5-6.8-11.7-9.6-8.8-5.8-19-5.3-28.6-4-8.7 1.1-17.2 4.3-21.6 13.1-1.9 3.9-2.9 8.2 0.6 11.8 3.5 3.6 7.8 5.4 12.9 3.5 6.3-2.3 7.5-5.4 6-15.4 0.8-0.5 1.7-1.4 2.6-1.4 11.7-0.9 23.1-0.5 33.4 6.4 2.6 1.8 5.1 3.8 7.9 5.2 15.5 8.4 20.9 7.3 34.3-6.1z m203.7 0.2c9.7 10.9 17.1 14.2 28.1 8.7 3.9-2 8-3.8 11.4-6.4 8.1-6.2 17.3-8.2 27.1-8.2 3.7 0 7.4 0.4 11.5 0.7-0.5 2.5-0.8 3.9-1 5.2-0.5 4.6 0.5 8.3 5 10.5 4.4 2.2 9.7 1.3 13.7-2.1 3.8-3.2 3.5-7.5 1.9-11.1-1.4-3.2-3.8-6.7-6.8-8.5-12.9-8-26.9-9.4-40.7-3.3-6.3 2.8-11.4 8.4-17.2 12.6-7.8 5.6-15.9 8.7-25.4 4-1.9-1.1-4.4-1.3-7.6-2.1z m-204.4 33.1c-0.5 3.3-1.9 6.4-0.9 7.4 7.5 8.4 12 18.3 16.3 28.5 2.2 5.3 5.7 6.4 11.1 4.7 6.6-2 12.7-9.2 12.8-15.8 0.1-7.4-4.2-12.3-10.6-14.9-8.9-3.5-18.1-6.3-28.7-9.9z m-14.5 62.7c1 1.3 2.2 2.4 3 3.8 4.7 8.7 9.4 17.4 14 26.2 2.8 5.3 5.7 6.7 11.1 5.1 6.9-2 12.7-8.5 13.1-14.8 0.5-7.4-2.9-13.2-10.8-16.2-8.9-3.4-18.1-6.1-27.2-9-1.3 1.9-2.2 3.4-3.2 4.9z" p-id="13573"></path><path d="M553.7 459h-38.9v-26h38.9v26zM521.6 494.3v56.6c-2.4-3.8-4.4-6.3-5.6-9.2-1.8-4.3-3.3-8.8-4.5-13.3-1.6-5.9-0.3-7.9 5.8-10.2 0.8-0.3 1.5-0.8 2.2-1.2-1.4-4.4-13.7-14.9-17.4-14.3-2.1 0.4-3.9 2.7-5.5 4.4-5.9 6.3-5.9 6.3-15.1 5.5v-18.4c13 0.1 26.4 0.1 40.1 0.1zM584.6 517.7c-4.3-7.6-11.6-11.1-18.6-14.8-0.6-0.3-2.2 0.5-3.1 1.2-1.6 1.4-3.2 2.8-4.4 4.5-3.1 4.1-6.9 5.6-12.1 4v-18.1h38.9v55.7c-1.5-2.9-3.2-5.4-4.2-8.1-1.6-4.4-2.6-9-4.3-13.4-2-5.2-0.2-7.9 4.8-9.2 0.9-0.4 1.8-1.1 3-1.8z" p-id="13574"></path><path d="M482.1 519.6h11.4c0.4 13.3-3.8 29.1-11.4 42.6v-42.6zM546.4 565.6v-46h10.4c-1.5 15.5-3 30.9-10.4 46zM719.3 535v-18h102.6v18H719.3zM822.6 542.4v17.9H719.8c-0.3-5.9-0.6-11.8-0.8-17.9h103.6zM821.9 492.4v17.2H719v-17.2h102.9zM719.9 443.5h35.3c-0.7 6-1.4 12-2.1 18.1h-35.9c0.9-6 1.7-11.9 2.7-18.1zM756.4 436.8h-35.6c1-6 2-11.9 3-17.6h35.1c-0.9 6-1.7 11.7-2.5 17.6zM780.7 461.5c0.9-6 1.7-11.9 2.5-17.9H817c-0.9 6-1.7 11.8-2.7 17.9h-33.6zM820.9 419.3c-0.7 5-1.1 9.7-2 14.3-0.2 1.3-1.8 3.2-2.8 3.2-10.5 0.2-21 0.1-32.1 0.1 0.8-6.1 1.6-11.8 2.4-17.7 11.4 0.1 22.8 0.1 34.5 0.1z" p-id="13575"></path></svg>