<?xml version="1.0" standalone="no"?><!DOCTYPE svg PUBLIC "-//W3C//DTD SVG 1.1//EN" "http://www.w3.org/Graphics/SVG/1.1/DTD/svg11.dtd"><svg t="1575022796273" class="icon" viewBox="0 0 1024 1024" version="1.1" xmlns="http://www.w3.org/2000/svg" p-id="15652" xmlns:xlink="http://www.w3.org/1999/xlink" width="200" height="200"><defs><style type="text/css"></style></defs><path d="M996.2 390.7c-5.2-39.2-30.5-62.1-63.1-69.5-12.5-12-29.3-19.2-50-19.2H764.5c-18.3 0-38.7 6.3-57.4 16.5H194.9c-48.5 0-99.9 27.4-118.5 87.8L24.8 585.2c-6.6 54.9 42.6 96.6 91.1 96.6h496.4c13.8 9 30.3 14.3 48 14.3h95.5c18.2 0 41.9-5.1 64.5-14.3h4.7c48.5 0 103.2-29.6 121.8-87.8l48.9-182v-21.2c0.1 0 0.3-0.1 0.5-0.1z m-690.4 29.5c-0.8 7.6-3.1 15.1-5 22.5-1.9 7.6-3.7 15.3-6.3 22.8-3.6 10.7-7.2 21.5-12.1 31.7-4.2 8.6-9.2 17.3-15.6 24.2-15.7 16.7-36.1 23.7-58.8 23.7h-37c-10.6 0-12.7 1.4-15.7 11.6-3.8 12.4-7.4 24.7-11.1 37.1-1.2 4.1-3.7 6.4-8.3 6.3-14.9-0.1-29.7 0-44.6-0.1-6 0-6.4-1-4.5-6.7 2.4-7.3 4.3-14.9 6.7-22.2 2.6-8.2 5.8-16.2 8.4-24.4 3.9-12.4 7.4-24.9 11.4-37.2 2.3-7.2 5.3-14.1 7.7-21.3 2.5-7.7 4.5-15.5 6.9-23.3 2-6.5 4.2-13 6.3-19.5 2.6-8.2 5.3-16.4 7.9-24.6 1.8-5.6 3.6-11.3 5.4-16.9 2.2-6.7 4.5-13.3 6.7-20 1.2-3.8 3.7-4.7 7.4-4.7 18.5 0.2 37 0.1 55.5 0.1v0.2c17.6 0 35.2-0.7 52.8 0.2 22.6 1.2 38.3 16.5 35.9 40.5z m29.4 22.6c6.4-18.5 12.9-37 19.7-55.3 0.6-1.6 3.9-3 5.9-3.1 10.5-0.3 21-0.1 31.5-0.1h32.1c5 0 5.8 1.2 4.2 5.8-2.7 7.8-5 15.7-7.7 23.5-2.5 7.3-5.4 14.4-8 21.7-0.8 2.2-1.3 4.5-1.8 6.8-1.2 6-3.5 7.8-9.7 7.8-20.3-0.1-40.6-0.1-60.9 0-7 0-7.6-0.4-5.3-7.1z m232.4 44.8c-0.2 12.9-5.5 24.4-9.3 36.4-2.2 6.8-4.3 13.7-6.3 20.6-1.6 5.7-3 11.5-4.7 17.1-3.4 11-6.6 22-10.6 32.8-0.8 2.2-4.5 4.5-6.9 4.6-14.8 0.6-29.7 0.6-44.6 0.8-3.3 0-5.3-0.8-4.3-4.7 2.3-8.5 4.4-17.1 6.7-25.6 4.2-15.3 8.6-30.5 13-45.8 1.7-5.9 3.5-11.7 5.1-17.6 1.6-5.7 0.3-7.2-5.8-7.2-7.4 0-14.9 0.1-22.3 0.1-4.9 0-9.8 0.1-14.7-0.2-7.4-0.4-9.9 1.6-11.8 8.9-3 11.1-6.5 22.1-9.6 33.1-2.3 8.3-4.3 16.8-6.6 25.1-2.8 9.9-5.7 19.8-9.1 29.5-0.6 1.8-4.1 3.5-6.3 3.5-12.9 0.3-25.8 0.2-38.6 0.1-1.1 0-2.2-0.1-3.3 0-8.8 0.6-9.2 0.5-7.2-8.2 1.6-7 4.2-13.8 6.3-20.7 2.6-8.6 5-17.3 7.6-25.8 2.3-7.4 4.9-14.7 7.3-22.1 2.3-7 4.7-14 6.5-21.2 4.9-19.3 16.4-33.5 32.7-44.5 14.5-9.7 30.3-13.6 47.5-13.2 7.1 0.1 14.2 0 21.2 0v0.1h29.9c12.3 0 22.5 4.7 30.4 14 7.6 8.6 8 19.3 7.8 30.1z m349.2-135.4c-2.1 8-4.2 16-6.5 24-3.1 11.2-6.5 22.4-9.4 33.6-2.1 8.3-6.4 11.8-14.9 11.8-42.8 0-85.6 0-128.4-0.1-4.6 0-6.1 2-7.2 6.2-2 7.8-5 15.3-7.5 23-2.2 7-4.2 14.1-6.3 21.1-1.8 6-3.6 12-5.6 18-3.6 11.1-7.4 22.2-11 33.4-2.8 8.7-5.2 17.5-8 26.2-2.2 6.8-4.7 13.6-7.3 20.2-2.3 5.9-0.9 8.1 5.3 8 20.1-0.1 40.3-0.2 60.4-0.1 9.1 0 10.2-1.3 12.4-10 1.9-7.6 4.8-15.1 7.7-22.4 2.1-5.2 0.6-8.1-5-8.1-8.7 0-17.4 0.2-26.1 0.1-5.2 0-5.5-1-3.8-5.9 2.4-7.1 4.4-14.4 6.8-21.6 2.7-8.2 5.6-16.4 8.2-24.6 2.2-6.7 4-13.5 6.5-20 0.7-1.7 3.5-3.6 5.3-3.6 31.2-0.2 62.4-0.1 93.6 0h5.4c3.9 0.1 4.2 1.5 2.8 5.2-2.9 7.9-4.9 16-7.3 24.1-1 3.2-2.3 6.4-3.2 9.7-3.8 13.7-7.4 27.5-11.3 41.1-2.6 9.2-5.5 18.3-8.5 27.3-3 8.7-5.8 17.4-9.7 25.7-6.6 14.1-16.9 25.3-29.1 34.9-10.8 8.5-22.8 14.6-35.7 17.8-12.2 3.1-25 4-37.6 4.6-17.4 0.7-34.9 1-52.2 0-14.9-0.8-30.1-1-43.9-8.3-9.8-5.2-15.8-13.2-19.6-23.8-4.4-12.3-4.6-24.6-1.7-36.8 3.6-15 8.3-29.8 13-44.5 3.9-12.3 8.7-24.4 12.6-36.7 4.2-13 7.6-26.2 11.7-39.2 3.8-12.1 8-24.2 12.3-36.2 3.1-8.7 5.6-18.1 10.5-25.8 6-9.4 13.4-18.5 21.8-25.8 8.6-7.5 18.6-13.7 28.9-18.6 13.8-6.5 28.9-9.7 44.4-9.8 21.4-0.1 42.8 0 64.2 0v-0.1c22.7 0 45.4 0.1 68-0.1 4.6 0.2 6.1 2 5 6.1zM997.2 406.3c0-5.2-0.3-10.2-0.9-15v18.5l0.9-3.5z" p-id="15653"></path><path d="M242.1 434h-21.2v0.1c-6.3 0-12.7 0.4-19-0.1-5.5-0.5-8.7 1.5-10.5 6.4-2.7 7.4-5.3 14.9-7.8 22.4-2.3 6.6-4.1 13.4-6.7 19.9-2.4 6.1-1.9 7.3 4.6 7.4 13.6 0 27.2 0 40.8 0.1 3.9 0 6.8-1.2 8.2-4.8 2.8-7.2 5.4-14.4 7.9-21.7 2.7-7.5 4.9-15.2 7.9-22.7 1.9-4.6 0.8-7-4.2-7zM996.3 390.7c-0.1 0-0.1 0 0 0v0zM995.7 412v6.5h0.6v-8.8l-0.6 2.3z" p-id="15654"></path></svg>