<?xml version="1.0" encoding="utf-8"?>
<!-- Generator: Adobe Illustrator 23.1.1, SVG Export Plug-In . SVG Version: 6.00 Build 0)  -->
<svg version="1.1" id="圖層_1" xmlns="http://www.w3.org/2000/svg" xmlns:xlink="http://www.w3.org/1999/xlink" x="0px" y="0px"
	 viewBox="0 0 1024 1024" style="enable-background:new 0 0 1024 1024;" xml:space="preserve">
<g>
	<path d="M800.4,717.8c0,0.4,0,0.9,0,1.3c-0.9,8-1.8,15.9-2.8,23.9c-1,7.5-2.1,14.9-3.2,22.4c-0.4,2.7-1,5.5-1.7,8.1
		c-3.5,12.1-11.3,20.4-23.2,24.7c-3.7,1.3-7.6,2.2-11.5,2.8c-8.3,1.5-16.6,2.2-24.9,2.6c-12.8,0.6-25.7,0.7-38.6,0.7
		c-7.4,0-14.8,0-22.2-0.1c-10.2-0.1-20.5-0.4-30.7-1.3c-6.3-0.6-12.6-1.4-18.8-3.2c-4.5-1.4-8.7-3.5-12.6-6.2
		c-5.2-3.7-8.4-8.7-9.7-14.9c-0.8-3.9-1.1-7.8-1.2-11.7c-0.2-8,0.4-15.9,1-23.8c0.7-8,1.4-16,2.3-23.9c1.1-10,2.4-20,4.9-29.8
		c1-3.8,2.1-7.6,3.7-11.2c0.9-2,1.8-3.9,2.9-5.7c3.8-6.5,9.3-11.1,16.2-13.9c4.4-1.8,9.1-2.9,13.8-3.8c7.3-1.3,14.6-2.1,22-2.6
		c17-1.2,34-1.2,51-1.2c8.9,0,17.8,0.1,26.8,0.5c8.8,0.4,17.7,1,26.4,2.4c4.5,0.7,9,1.7,13.3,3.3c1.7,0.6,3.5,1.4,5.1,2.2
		c7.3,3.8,11.6,9.8,13,17.9c0.3,1.6,0.4,3.3,0.5,4.9c0.1,4.4,0,8.7,0,13.1c-0.1,2.6-0.3,5.2-0.5,7.9c0,0.5-0.2,0.9-0.3,1.4
		c-0.8,0.4-1.6,0.2-2.3,0.2c-9.7,0-19.5,0-29.2,0c-3.8,0-7.6,0-11.4,0c-0.7,0-1.4-0.1-2.2-0.1c0-0.6-0.1-1.2-0.1-1.7
		c0-1.7,0.2-3.3,0.2-5c-0.1-3.9-1.5-5.9-5.2-7.1c-1.8-0.6-3.7-1.1-5.6-1.3c-3.5-0.4-7-0.8-10.5-0.9c-7.6-0.3-15.2-0.4-22.8-0.5
		c-9.4-0.1-18.8,0-28.2,0.1c-5.3,0.1-10.5,0.4-15.7,1.1c-2.3,0.3-4.5,0.8-6.6,1.6c-4.8,1.7-8.1,4.8-10,9.6
		c-1.3,3.4-2.1,6.9-2.6,10.4c-0.8,6.2-1.5,12.4-2.1,18.5c-0.4,4.3-0.8,8.7-1,13c-0.3,4.2-0.4,8.4,0.1,12.6c0.1,1,0.3,1.9,0.5,2.9
		c0.9,4.1,3.5,6.7,7.3,8.2c1.6,0.6,3.3,1,5,1.2c3.4,0.3,6.9,0.7,10.3,0.8c15.6,0.2,31.1,0.7,46.7,0.4c6.2-0.1,12.4-0.4,18.7-0.7
		c2.8-0.1,5.7-0.5,8.4-1.2c0.9-0.2,1.9-0.5,2.7-0.9c2.7-1.1,4.5-3.1,5.4-5.9c0.4-1.4,0.8-2.9,1-4.4c0.4-2.5,0.7-5.1,1-7.7
		c-0.5-0.1-0.9-0.2-1.3-0.3c-0.6,0-1.2,0-1.9,0c-17.9,0-35.8,0-53.7,0c-0.8,0-1.6,0-2.6-0.1c0-0.6-0.1-1.1-0.1-1.5
		c0.7-7.2,1.5-14.4,2.2-21.7c0.2-2.1,0.4-4.1,0.7-6.3c0.4-0.1,0.8-0.2,1.2-0.3c0.5,0,1.1,0,1.7,0c32.8,0,65.5,0,98.3,0
		C798.7,717.6,799.6,717.4,800.4,717.8z"/>
	<path d="M392.6,801.9c-0.3,0.1-0.5,0.2-0.7,0.2c-14.3,0-28.6,0-42.9,0c-0.3,0-0.5-0.1-0.9-0.2c0-0.4,0-0.8,0-1.2
		c0.4-4.6,1-9.2,1.3-13.8c0.2-3,0.3-5.9,0.3-8.9c0-1.5-0.2-3-0.5-4.5c-0.1-0.9-0.4-1.8-0.8-2.6c-1.4-3-3.5-5.2-6.9-5.6
		c-2.6-0.4-5.2-0.6-7.8-0.7c-3.6-0.1-7.2-0.1-10.8-0.1c-20.8,0-41.6,0-62.4,0c-0.8,0-1.7-0.1-2.6,0.3c-0.5,4.1-0.9,8.2-1.3,12.3
		c-0.4,4.2-0.8,8.4-1.3,12.6c-0.4,4.1-0.7,8.2-1.3,12.3c-0.8,0.4-1.6,0.3-2.3,0.3c-11.5,0-23.1,0-34.6,0c-2.2,0-4.4,0-6.6,0
		c-0.5,0-0.9-0.1-1.5-0.1c0-0.4-0.1-0.7-0.1-1.1c1.1-11.3,2.3-22.6,3.4-33.8c0.9-8.9,1.8-17.7,2.7-26.6c0.9-8.8,1.8-17.6,2.7-26.4
		c0.8-7.6,1.5-15.1,2.3-22.7c0.9-8.8,1.8-17.6,2.7-26.4c0.3-3.4,0.7-6.7,1-10.1c0.1-0.6,0-1.3,0.6-1.9c0.6,0,1.3,0,1.9,0
		c41.7,0,83.4,0,125.1,0c8.2,0,16.3,0.2,24.5,0.4c3.1,0.1,6.2,0.4,9.3,1.1c1,0.2,2,0.5,3,0.9c4,1.7,7.7,4.1,10.8,7.2
		c2.6,2.7,4.3,5.9,5.3,9.5c0.7,2.4,1.1,4.9,1.2,7.3c0.4,5.3,0.3,10.6-0.2,16c-0.5,5.4-1.1,10.9-1.8,16.3c-0.5,3.9-1.3,7.8-2.5,11.5
		c-0.2,0.8-0.5,1.6-0.8,2.4c-3.2,8.7-9.4,14.2-18.1,16.9c-1.8,0.6-3.6,0.9-5.4,1.3c-0.8,0.2-1.6,0.3-2.7,0.5
		c0.9,0.5,1.6,0.5,2.3,0.6c2.3,0.5,4.6,1,6.9,1.5c0.8,0.2,1.6,0.5,2.3,0.8c5.2,2,8.3,5.8,9.6,11.2c0.6,2.5,0.8,5,0.9,7.6
		c0.1,4.4-0.1,8.7-0.6,13c-0.7,7.1-1.5,14.2-2.3,21.2C392.8,800.8,392.7,801.4,392.6,801.9z M261.8,726.7c1.1,0.4,1.9,0.3,2.7,0.3
		c17.8,0,35.5,0,53.3,0c6.9,0,13.8-0.1,20.7-0.3c2.7-0.1,5.4-0.2,8.1-0.4c4.4-0.4,7.6-2.7,9.4-6.8c0.5-1.2,0.9-2.5,1.2-3.7
		c1-4.2,1.4-8.6,1.5-12.9c0-1.4-0.1-2.8-0.3-4.1c-0.6-3.6-2.2-6.4-7.4-7.6c-1.1-0.2-2.3-0.4-3.5-0.4c-8.6-0.1-17.3-0.3-25.9-0.4
		c-14.4-0.1-28.9,0-43.3,0c-3.5,0-7,0-10.6,0c-0.7,0-1.4-0.1-2.2,0.4C264.2,702.5,263,714.5,261.8,726.7z"/>
	<path d="M415.3,690.9c-0.1-2.3,3.4-36.1,3.9-37.8c0.2-0.1,0.4-0.2,0.6-0.2c59.5,0,119.1,0,178.6,0c0.3,0,0.5,0.1,0.7,0.1
		c0.1,0.1,0.2,0.2,0.2,0.2c0,0.1,0.1,0.1,0.1,0.2c0,0.3,0,0.7,0,1c-1.2,12-2.5,23.9-3.7,35.9c0,0.1-0.1,0.2-0.3,0.5
		c-2.3,0.3-4.7,0.1-7.1,0.1c-2.5,0-5,0-7.5,0c-2.4,0-4.8,0-7.3,0s-4.8,0-7.3,0c-2.5,0-5,0-7.5,0c-2.4,0-4.8,0-7.3,0
		c-2.4,0-4.8,0-7.3,0c-2.5,0-5,0-7.5,0c-2.4,0-4.8,0-7.1,0c-0.6,0.6-0.6,1.3-0.7,1.9c-0.7,6.9-1.4,13.9-2.1,20.8
		c-0.8,7.6-1.5,15.1-2.3,22.7c-0.9,9.3-1.9,18.6-2.8,27.9c-0.7,7.4-1.5,14.7-2.3,22.1c-0.5,4.7-0.9,9.4-1.4,14
		c0,0.5-0.1,0.9-0.2,1.5c-0.4,0.1-0.8,0.2-1.2,0.3c-0.3,0-0.7,0-1,0c-14.3,0-28.6,0-42.9,0c-0.7,0-1.4-0.1-2.1-0.1
		c-0.4-0.8-0.2-1.6-0.1-2.3c0.3-3.1,0.6-6.2,0.9-9.3c0.7-7.3,1.5-14.6,2.2-21.9c1-9.4,1.9-18.7,2.8-28.1c0.9-8.9,1.8-17.7,2.7-26.6
		c0.7-7,1.4-14,2.1-21c0.1-0.5,0.1-1.1,0.1-1.7c-0.3-0.1-0.6-0.2-0.9-0.2c-0.7,0-1.4,0-2.1,0c-20.2,0-40.4,0-60.6,0
		C417.1,691,416.3,691,415.3,690.9z"/>
	<path d="M485.4,950.7c-6.7-0.1-14.6-0.2-22.6-0.4c-5-0.1-9.9-0.5-14.8-1.6c-2-0.5-4-1.1-5.9-2c-3.6-1.5-6.2-4.1-8-7.5
		c-1-1.9-1.7-3.9-2.2-6c-0.6-2.4-0.9-4.9-0.9-7.4c-0.1-3.7,0.1-7.5,0.5-11.2c0.8-7.3,1.6-14.6,2.5-21.8c0.5-3.7,1.3-7.3,2.5-10.9
		c0.7-2.1,1.5-4.2,2.6-6.1c2.3-4.1,5.5-7.3,9.6-9.4c4-2.1,8.3-3.3,12.8-4.1c4.5-0.8,9.1-1.1,13.6-1.2c15.5-0.4,31-0.3,46.4,0
		c4.4,0.1,8.8,0.3,13.2,1.2c2.6,0.5,5.1,1.3,7.5,2.3c4.1,1.7,6.9,4.7,8.8,8.7c1.5,3.2,2.2,6.5,2.5,10c0.4,4.2,0.1,8.3-0.2,12.4
		c-0.6,6.1-1.2,12.1-1.9,18.1c-0.6,4.9-1.4,9.7-2.9,14.4c-1.4,4.4-3.4,8.4-6.6,11.9c-3.1,3.4-6.9,5.7-11.2,7.2
		c-4.2,1.5-8.6,2.3-13,2.5c-4.6,0.3-9.3,0.4-13.9,0.5C498,950.6,492.4,950.6,485.4,950.7z M490.2,929.3c6.1-0.2,12.1-0.3,18.2-0.6
		c1.9-0.1,3.7-0.4,5.5-0.8c4.3-0.9,7.3-3.5,8.8-7.6c0.7-1.8,1.2-3.7,1.6-5.6c1-4.5,1.3-9.2,1.7-13.8c0.2-2.4,0.3-4.8,0.3-7.2
		c0-1.6-0.3-3.3-0.6-4.9c-0.4-2.1-1.8-3.6-3.8-4.4c-1-0.4-2-0.7-3-0.9c-2.9-0.6-5.7-0.8-8.7-0.9c-6.4-0.1-12.9-0.3-19.3-0.2
		c-5.7,0-11.5,0-17.2,0.7c-1.7,0.2-3.4,0.6-5.1,1c-2.7,0.7-4.6,2.4-5.8,5c-0.8,1.6-1.3,3.4-1.7,5.1c-1,4-1.6,8.1-2,12.3
		c-0.3,3.4-0.5,6.9-0.5,10.3c0,1.6,0.2,3.2,0.5,4.7c0.5,2.7,2.1,4.6,4.7,5.6c0.8,0.3,1.7,0.6,2.6,0.8c2.3,0.6,4.6,0.8,7,0.9
		C479.1,929,484.7,929.1,490.2,929.3z"/>
	<path d="M789.6,888.6c-1.7,0.2-21.2,0.3-24.6,0.2c-0.3,0-0.7-0.1-1.1-0.2c0-0.5-0.1-0.9-0.1-1.3c0-0.7,0-1.4-0.1-2.1
		c-0.2-1.8-1.2-3.1-2.9-3.7c-1-0.4-2.1-0.7-3.2-0.8c-2.1-0.3-4.3-0.5-6.4-0.5c-10.6-0.2-21.2-0.1-31.7,0.5c-1.4,0.1-2.9,0.3-4.3,0.7
		c-4.6,1.5-5.8,5.5-4.9,9.4c0.3,1.2,1.1,2.2,2.1,3c1.2,0.8,2.4,1.3,3.9,1.3c3.5,0.1,7,0.3,10.6,0.4c9.1,0.1,18.1,0,27.2,0.1
		c5.7,0.1,11.5,0.4,17.2,0.7c3.5,0.2,7,1,10.2,2.5c3.7,1.8,6.2,4.6,7.4,8.5c0.4,1.3,0.7,2.7,0.9,4c0.8,7.2,0.1,14.2-2.1,21.1
		c-0.4,1.4-1,2.7-1.6,4c-2.2,4.6-5.6,7.8-10.3,9.7c-3,1.2-6.1,1.9-9.2,2.4c-4.7,0.7-9.5,1.1-14.2,1.3c-10.6,0.5-21.3,0.4-31.9,0.4
		c-5.8,0-11.6-0.3-17.4-0.5c-3.2-0.1-6.3-0.6-9.5-1.2c-2-0.4-4-1-5.9-1.9c-4.4-2.1-6.9-5.6-7.6-10.4c-0.4-2.4-0.5-4.8-0.3-7.2
		c0.2-2.1,0.5-4.3,0.7-6.4c0-0.3,0.1-0.5,0.2-0.8c0.3-0.1,0.5-0.2,0.6-0.2c8.4,0,16.7,0,25.2,0c0.1,0.4,0.2,0.8,0.2,1.2
		c0,0.8-0.1,1.7,0,2.5c0.2,3.2,1.7,4.9,4.9,5.4c1.2,0.2,2.3,0.3,3.5,0.4c5,0.4,9.9,0.5,14.9,0.4c6.9-0.1,13.8-0.3,20.7-0.5
		c1.9-0.1,3.9-0.4,5.7-0.8c1.2-0.3,2.4-0.7,3.5-1.3c1.8-0.9,2.8-2.4,3.2-4.4c0.3-1.5,0.2-3-0.1-4.5c-0.5-1.9-1.6-3.2-3.5-3.8
		c-1.6-0.6-3.3-0.8-5.1-0.9c-4.6-0.1-9.1-0.1-13.7-0.2c-8.4,0-16.7,0-25.1,0c-4.6,0-9.3-0.1-13.9-0.7c-1.8-0.2-3.7-0.5-5.5-0.9
		c-1.4-0.3-2.8-0.8-4.1-1.4c-4.8-2.2-7.5-5.9-8.4-11.1c-0.4-2.3-0.5-4.5-0.4-6.8c0.1-5.2,0.9-10.3,2.5-15.3c0.4-1.3,0.9-2.6,1.5-3.9
		c2-4.4,5.2-7.6,9.6-9.6c2.7-1.2,5.5-1.9,8.3-2.5c5.1-1,10.3-1.4,15.5-1.6c14.7-0.6,29.3-0.6,44,0c3.7,0.1,7.5,0.4,11.1,1.2
		c1.6,0.4,3.2,0.8,4.8,1.4c5.4,1.9,8.4,5.8,9.5,11.4c0.6,3.2,0.6,6.5,0.2,9.7C790,886.3,790,887.4,789.6,888.6z"/>
	<path d="M201.7,921.8c0.5-0.1,0.8-0.1,1.2-0.1c8.2,0,16.4,0,24.8,0c0.1,0.5,0.2,0.9,0.2,1.3c0,1.1,0,2.2,0.1,3.3
		c0.2,2.2,1.4,3.5,3.4,4.2c0.6,0.2,1.2,0.3,1.8,0.4c3.6,0.3,7.2,0.6,10.8,0.7c9.4,0.2,18.8,0.1,28.2-0.4c1.8-0.1,3.6-0.4,5.3-0.7
		c0.8-0.1,1.6-0.4,2.4-0.7c3.3-1.3,4.7-3.5,4.6-7.1c0-0.8-0.1-1.5-0.3-2.3c-0.5-2-1.6-3.3-3.6-4c-1.6-0.5-3.2-0.8-4.9-0.8
		c-4.6-0.1-9.1-0.2-13.7-0.2c-8.4,0-16.9,0-25.3,0c-4.6,0-9.3-0.1-13.9-0.7c-1.8-0.2-3.7-0.5-5.5-0.9c-1.3-0.3-2.5-0.7-3.7-1.2
		c-5-2.2-7.9-6-8.7-11.3c-0.3-2-0.4-4-0.4-6c0-5.5,0.8-10.9,2.5-16.1c0.4-1.2,0.8-2.3,1.3-3.5c2-4.7,5.5-8.1,10.2-10.1
		c2.5-1.1,5.1-1.8,7.7-2.3c5.2-1,10.4-1.4,15.7-1.6c14.6-0.6,29.2-0.6,43.7-0.1c3.8,0.1,7.6,0.4,11.3,1.3c1.7,0.4,3.3,0.9,5,1.5
		c5.1,1.9,8.1,5.6,9.1,10.9c0.7,3.4,0.6,6.9,0.2,10.3c-0.1,1-0.1,2.1-0.5,3c-1.7,0.4-13,0.5-24.1,0.3c-0.5,0-1.1-0.1-1.7-0.2
		c0-0.8,0-1.5,0-2.2c-0.1-3.1-1.2-4.5-4.2-5.3c-0.7-0.2-1.5-0.4-2.2-0.4c-1.9-0.2-3.9-0.4-5.8-0.4c-10.7-0.2-21.4-0.1-32.1,0.5
		c-1.5,0.1-3,0.3-4.5,0.8c-3.9,1.4-5.9,5.5-4.6,9.4c0.4,1.2,1.1,2.2,2.2,2.9c1.2,0.8,2.5,1.3,3.9,1.3c3.5,0.1,6.9,0.3,10.4,0.4
		c9.1,0.1,18.3,0,27.4,0.1c5.7,0.1,11.5,0.4,17.2,0.8c3.5,0.2,6.8,1,10,2.5c3.9,1.9,6.5,4.8,7.7,9c0.3,1.2,0.6,2.4,0.7,3.6
		c0.7,7,0.1,13.9-2,20.7c-0.5,1.5-1.1,3-1.8,4.4c-2.1,4.5-5.5,7.7-10.2,9.6c-3,1.2-6.2,2-9.4,2.5c-4.6,0.7-9.3,1.1-14,1.3
		c-11.3,0.6-22.7,0.4-34,0.3c-5.1,0-10.2-0.3-15.3-0.5c-3.2-0.1-6.3-0.6-9.5-1.2c-2-0.4-3.9-1-5.7-1.8c-4.7-2.1-7.3-5.8-8-10.8
		c-0.6-3.9-0.3-7.7,0.2-11.6C201.4,923.6,201.6,922.8,201.7,921.8z"/>
	<path d="M207.1,832.8c-0.3-1.7-0.1-7.8,0.4-10.3c0.3-0.1,0.7-0.2,1.1-0.2c0.6,0,1.2,0,1.9,0c196,0,391.9,0,587.9,0
		c0.9,0,1.9-0.2,2.9,0.2c0.3,1.2,0,2.3,0,3.5c0,1.1-0.1,2.2-0.2,3.3c-0.1,1.1,0.2,2.4-0.4,3.4c-2.1,0.3-581.7,0.5-592.5,0.2
		C207.8,832.9,207.4,832.8,207.1,832.8z"/>
	<path d="M605.7,883.6c-1,0-1.8-0.1-2.5-0.1c-11.3,0-22.7,0-34,0c-0.7,0-1.5,0.1-2.3-0.2c0-0.4,0-0.8,0-1.2c0.7-6.7,1.4-13.3,2.2-20
		c0.5-0.1,0.9-0.2,1.3-0.2c0.5,0,1,0,1.5,0c33.1,0,66.2,0,99.4,0c0.9,0,1.8-0.2,2.6,0.2c0.1,1.8-1.6,19-2.2,21.3
		c-0.8,0.4-1.6,0.2-2.4,0.2c-11.3,0-22.5,0-33.8,0c-0.8,0-1.6,0-2.6,0c-0.1,0.7-0.3,1.3-0.4,1.9c-0.9,8.2-1.8,16.4-2.6,24.5
		c-0.7,6.9-1.5,13.9-2.3,20.8c-0.6,5.6-1.2,11.3-1.8,16.9c-0.1,0.6-0.2,1.2-0.3,1.9c-0.7,0.1-1.2,0.1-1.7,0.1
		c-12.1,0.2-23,0.1-24.8-0.2c0-2.7,0.5-5.4,0.7-8.2c0.2-2.8,0.6-5.5,0.9-8.2c0.3-2.7,0.6-5.5,0.9-8.2c0.3-2.7,0.6-5.5,0.9-8.2
		c0.3-2.7,0.6-5.4,0.9-8c0.3-2.7,0.6-5.5,0.9-8.2c0.3-2.7,0.6-5.5,0.9-8.2C605.1,889.4,605.5,886.6,605.7,883.6z"/>
	<path d="M415.8,949.6c-0.2,0.1-0.5,0.2-0.8,0.2c-28.5,0-57,0-85.4,0c-0.2,0-0.4-0.1-0.7-0.2c0-0.4,0-0.8,0-1.2
		c3.1-28.7,6.2-57.4,9.3-86.1c0.8-0.5,1.6-0.3,2.3-0.3c5.5,0,11.1,0,16.6,0c2,0,4,0,6,0c0.5,0,1.1,0.1,1.7,0.1
		c-0.2,3.8-0.7,7.4-1.1,11c-0.4,3.6-0.8,7.3-1.2,10.9c-0.4,3.6-0.8,7.3-1.2,10.9c-0.4,3.6-0.8,7.3-1.2,10.9
		c-0.4,3.6-0.8,7.3-1.2,10.9c-0.4,3.6-0.8,7.3-1.2,11c0.5,0.1,0.9,0.2,1.3,0.3c0.6,0,1.2,0,1.9,0c18.2,0,36.4,0,54.5,0
		c0.8,0,1.6-0.1,2.5,0.2c0,0.4,0.1,0.7,0.1,1C418,932.2,416.1,948.2,415.8,949.6z"/>
</g>
<g>
	<path d="M394.8,601c-1.4-0.5-2.8-1-4.2-1.5c-7.1-2.7-11.1-8.7-10.9-16.4c0.6-0.1,1.3-0.3,1.9-0.4c1.2-0.1,2.3,0,3.5,0
		c78.8,0,157.7,0,236.5,0c2.1,0,4.2-0.1,6.3-0.4c9.1-1.6,15-7.8,16.1-16.9c0.5-4.3,0.9-8.6,1.2-12.9c1-12.1,2.1-24.2,3.1-36.2
		c1.4-16,2.8-32.1,4.2-48.1c1.3-14.9,2.7-29.7,3.9-44.6c1.3-14.9,2.5-29.7,3.8-44.6c1.5-17.3,3.1-34.6,4.6-51.9
		c1.3-14.9,2.5-29.7,3.8-44.6c1.5-17.2,3.1-34.4,4.6-51.6c1.3-14.7,2.5-29.5,3.8-44.2c0.7-8.2,1.5-16.5,2.2-24.9
		c0.6,0.1,1.3,0,1.7,0.2c7.8,4.7,12.5,11.4,13.4,20.5c0.3,2.9,0.1,5.8-0.1,8.7c-1.3,14.9-2.6,29.7-3.9,44.6
		c-1.3,14.9-2.5,29.7-3.8,44.6c-1.5,17.3-3.1,34.6-4.6,51.9c-1.3,14.9-2.5,29.7-3.8,44.6c-1.5,17.2-3.1,34.4-4.6,51.6
		c-1.3,14.9-2.5,29.7-3.8,44.6c-1.2,14.3-2.5,28.6-3.8,42.8c-0.9,9.8-1.7,19.5-2.5,29.3c-1.1,12.3-2.2,24.6-3.3,36.9
		c-0.3,3.7-1.5,7.1-3.4,10.2c-2.3,3.9-5.5,6.5-9.9,7.9c-0.8,0.2-1.5,0.6-2.3,0.9C561.4,601,478.1,601,394.8,601z"/>
	<path d="M602.6,488.3c0.1,1.1,0.2,1.5,0.2,1.9c-0.7,8.2-1.4,16.5-2.2,24.7c-0.3,2.8-1,5.5-2.1,8.1c-3.7,8.2-10.1,12.7-19.2,12.7
		c-44.8,0-89.6,0-134.4,0c-0.8,0-1.6,0-2.3,0c-0.5-1.2,0.4-1.3,1-1.7c5.4-3.2,10.5-6.9,15.2-11.2c4.8-4.3,9-9.1,12.7-14.4
		c0.5-0.8,1-1.6,1.5-2.4c-0.6-1.4-1.9-2.1-2.9-3c-12-10.9-21.2-23.9-27.1-39c-10.1-25.9-9.9-51.9,0.4-77.8c0.5-1.3,1.1-2.6,1.6-3.8
		c-0.4-1.2-1.5-1.5-2.4-2c-13.2-7.4-27.3-11.3-42.5-11.3c-25.4-0.1-46.8,9.1-64.6,27.2c-5.6,5.7-10.2,12.1-14,19.1
		c-0.5,0.9-1,1.8-1.5,2.6c-1-0.1-0.6-0.7-0.6-1.1c1.3-15.6,2.7-31.1,4.1-46.7c1.3-14.4,2.5-28.8,3.8-43.2c0.8-9.6,1.6-19.3,2.5-28.9
		c0.8-9.3,1.7-18.6,2.5-27.9c0.8-9.2,1.5-18.4,2.3-27.5c1-12.1,2.1-24.2,3.2-36.2c0.8-9.6,1.6-19.3,2.5-28.9
		c0.8-9.3,1.7-18.6,2.5-27.9c0.5-6.2,1.1-12.3,1.6-18.5c0.7-8.5,1.4-17,2.2-25.4c0.3-3.3,1-6.5,2.4-9.4c3.8-8.1,10.1-12.2,19-12.5
		c0.3,0,0.7,0,1,0c82.7,0,165.4,0,248.1,0c2,0,4,0.1,5.9,0.6c5.9,1.4,10,5,11.8,10.8c0.7,2.4,1.1,5,1.2,7.6
		c0.4,4.9-0.4,9.8-0.8,14.7c-1.1,12.5-2.2,25.1-3.3,37.6c-0.8,9.6-1.7,19.3-2.5,28.9c-0.6,6.5-1.1,13-1.7,19.5
		c-0.8,9.5-1.7,19-2.5,28.6c-0.6,6.5-1.1,13-1.7,19.5c-0.8,9.6-1.7,19.3-2.5,28.9c-0.6,6.4-1.1,12.8-1.6,19.2
		c-0.1,1.6-0.3,3.2-0.4,4.9c-0.6,6.5-1.1,13-1.7,19.5c-0.8,9.5-1.7,19-2.5,28.6c-0.6,6.5-1.1,13-1.7,19.5c-0.1,0.7-0.1,1.4-0.2,2
		c-1.1,0.5-1.3-0.3-1.7-0.8c-3.7-5-7.8-9.6-12.5-13.7c-13.8-12.2-29.8-19.5-48-21.8c-46.3-5.6-87.6,25.2-97.1,68.7
		c-10.3,47.1,18.7,93.8,65.6,104.9c30,7.1,56.8-0.1,80.1-20.4C600.3,490.5,601.2,489.6,602.6,488.3z M510.2,325.8
		c-0.2-0.6-0.2-0.9-0.3-1.1c-0.4-0.8-0.9-1.7-1.3-2.5c-21.7-37-52.7-63-93.1-77.7c-14.2-5.2-28.9-8.2-44-9.3
		c-5.6-0.4-11.2-0.4-16.8-0.5c-1.2,0-2.5-0.1-3.6,0.5c-0.5,3.5-0.5,18.7,0.1,21.6c3.1,0.3,6.4,0,9.6,0.1c3.3,0.2,6.5,0.3,9.8,0.5
		c3.2,0.3,6.5,0.7,9.7,1.2c3.2,0.5,6.4,1,9.6,1.7c3.3,0.7,6.6,1.6,9.8,2.5c3.1,0.9,6.2,1.9,9.3,3c3.1,1.1,6.1,2.3,9.1,3.6
		c3,1.3,5.9,2.7,8.8,4.2c2.9,1.5,5.8,3.1,8.5,4.8c2.8,1.7,5.5,3.5,8.2,5.3c2.7,1.9,5.3,3.8,7.9,5.8c2.6,2,5.1,4.1,7.5,6.3
		c2.5,2.3,4.9,4.6,7.3,7c2.3,2.3,4.5,4.8,6.6,7.2c2.1,2.5,4.2,5,6.1,7.7c2,2.6,3.8,5.3,5.6,8c1.8,2.7,3.2,5.6,5.3,8.2
		c3.4-1.6,6.6-3.2,10-4.5C503.3,328.2,506.7,327.1,510.2,325.8z M554.6,129.3c-1.8,1-2.9,1.5-4,2.2c-15.1,8.6-29.9,17.7-44.4,27.3
		c-22.8,15.2-44.7,31.7-65.1,50c-3.6,3.2-7,6.5-10.5,9.7c-0.5,0.4-1.1,0.9-0.8,1.9c0.3,0.1,0.8,0.2,1.2,0.2
		c5.1-0.7,10.2-1.2,15.2-2.1c16.4-3.1,31.4-9.5,45.3-18.6c19.2-12.5,35.2-28.3,48.4-47c4.3-6.1,8.4-12.3,12.6-18.5
		c0.7-1,1.2-2,1.8-3C554.4,131.1,554.4,130.6,554.6,129.3z M436.7,360c0.1-0.8,0.1-1.3,0.1-1.7c0-1.6-0.1-3.3-0.2-4.9
		c-1.1-16.3-4.2-32.1-9.8-47.5c-2-5.6-4.5-11-6.7-16.5c-0.6-1.4-1.5-2.3-2.8-2.9c-1.3-0.5-2.5-1.2-3.8-1.8c-11-5-22.5-8.4-34.4-10.3
		c-1-0.2-2-0.4-3.2,0.1c2.5,3.5,4.9,6.8,7.1,10.2c2.2,3.4,4.3,6.9,6.3,10.5c1.9,3.6,3.7,7.3,5.4,11c1.6,3.7,3.1,7.6,4.4,11.4
		c1.3,3.9,2.5,7.8,3.5,11.7c1,4,1.8,8,2.5,12c0.7,4,1.1,8,1.7,12c5.2,0.9,10.1,1.5,15,2.5C426.7,357,431.5,358.6,436.7,360z
		 M424.7,195.3c1.9-0.5,2.8-1.4,3.9-2.1c27.8-19.2,55.6-38.5,83.4-57.7c1-0.7,1.9-1.3,2.8-2c0.3-0.2,0.4-0.6,0.9-1.4
		c-2.1,0.4-3.7,0.6-5.3,0.9c-19.2,3.7-36.6,11.5-52,23.7c-13.2,10.4-23.8,22.9-32.8,37C425.3,193.8,425.2,194.3,424.7,195.3z"/>
	<path d="M650.1,128.8c6.1,2.6,11.1,8.1,13.4,14.5c1.4,3.7,1.8,7.5,1.6,11.4c-0.3,4.3-0.6,8.6-1,12.9c-1.6,19.1-3.3,38.1-4.9,57.1
		c-1.4,16-2.8,32.1-4.2,48.1c-1.4,16-2.8,32.1-4.2,48.1c-1.4,16.1-2.8,32.3-4.2,48.4c-1.4,16-2.8,32.1-4.2,48.1
		c-1.4,16.1-2.8,32.3-4.2,48.4c-1.4,15.9-2.8,31.8-4.2,47.7c-1,11.8-2.1,23.7-3.2,35.5c-0.3,3.8-1.5,7.3-3.4,10.6
		c-3.1,5.2-7.6,8.1-13.6,8.6c-1.5,0.1-3,0.2-4.5,0.2c-79.4,0-158.9,0-238.3,0c-3.7,0-7.2-0.4-10.6-1.9c-6.6-3-9.9-8.3-10.2-15.4
		c0-0.2,0.1-0.4,0.3-0.8c0.5-0.1,1-0.3,1.6-0.3c1.2-0.1,2.3,0,3.5,0c79,0,157.9,0,236.9,0c2.4,0,4.9,0,7.3-0.6
		c8.3-2.1,13.6-7.8,14.8-16.2c0.5-3.7,0.8-7.4,1.1-11.1c1.1-12.4,2.1-24.9,3.2-37.3c1.3-14.8,2.6-29.5,3.9-44.2
		c0.8-9.3,1.6-18.6,2.4-27.9c1.3-14.8,2.6-29.5,3.9-44.2c0.8-9.2,1.6-18.4,2.4-27.5c0.8-9.3,1.7-18.6,2.5-27.9
		c0.6-6.6,1.1-13.2,1.7-19.9c0.8-9.4,1.7-18.8,2.5-28.2c0.6-6.6,1.1-13.2,1.7-19.9c0.8-9.4,1.7-18.8,2.5-28.2
		c0.6-6.6,1.1-13.2,1.7-19.9c0.8-9.5,1.7-19,2.5-28.6c0.6-6.6,1.1-13.2,1.7-19.9c0.5-6,1-12.1,1.6-18.1
		C649.8,130,649.9,129.5,650.1,128.8z"/>
	<path d="M480.3,405.7c1.9-21.6,20.1-42,42.4-47.9c11.9-3.2,23.8-2.7,35.4,1.6c8.7,3.2,18,9.4,21.6,14.6c-2.2,0.1-4.2-0.6-6.2-0.9
		c-2.1-0.3-4.2-0.5-6.3-0.7c-2.2-0.2-4.4-0.3-6.6-0.3c-2.1,0-4.2,0-6.3,0.1c-2.1,0.1-4.2,0.2-6.3,0.4c-2.1,0.2-4.2,0.5-6.2,0.9
		c-2.2,0.4-4.4,0.7-6.5,1.2c-2,0.5-4.1,1-6.1,1.6c-2,0.6-4,1.2-6,1.9c-2,0.7-3.9,1.4-5.9,2.2c-2,0.8-4.1,1.7-6.1,2.7
		c-1.9,0.9-3.8,1.9-5.6,2.9c-1.8,1-3.6,2.1-5.4,3.2c-1.8,1.1-3.5,2.3-5.2,3.5c-1.8,1.3-3.5,2.7-5.2,4.1c-1.6,1.3-3.1,2.8-4.7,4.2
		C483.7,402.3,482.3,403.8,480.3,405.7z"/>
	<path d="M423.2,412c-10.8-2.3-21.4-2.5-32.1-0.9c-10.6,1.6-20.6,4.7-30.2,9.5c-9.7,4.8-18.3,11.1-25.8,19.4c-0.2-6.1,3.8-16,9-23.1
		c7.1-9.6,16.4-16.1,27.9-19.3c11.5-3.2,22.8-2.5,33.9,2C413.3,402.6,420.9,408.1,423.2,412z"/>
	<path d="M314.4,483c1.1,3,2.2,6,3.5,9c1.3,3,2.7,5.9,4.3,8.8c1.6,2.8,3.3,5.6,5.2,8.2c2,2.7,4.1,5.4,6.3,7.9
		c2.2,2.4,4.5,4.7,6.9,6.9c2.4,2.2,5.1,4.1,7.6,6.1c2.5,2,5.5,3.3,8.4,5.7c-1.1,0.1-1.7,0.2-2.2,0.2c-8.7,0-17.5,0.1-26.2,0
		c-9.4-0.1-16.4-6.6-16.9-16.1c-0.2-4.8,0-9.5,0.3-14.3c0.4-6.7,1.1-13.5,1.7-20.2c0.1-0.7,0.1-1.4,0.2-2.1
		C314,483.1,314.2,483.1,314.4,483z"/>
</g>
</svg>
