<?xml version="1.0" standalone="no"?><!DOCTYPE svg PUBLIC "-//W3C//DTD SVG 1.1//EN" "http://www.w3.org/Graphics/SVG/1.1/DTD/svg11.dtd"><svg t="1575531852123" class="icon" viewBox="0 0 1024 1024" version="1.1" xmlns="http://www.w3.org/2000/svg" p-id="2517" xmlns:xlink="http://www.w3.org/1999/xlink" width="200" height="200"><defs><style type="text/css"></style></defs><path d="M914.2 851.4l33.1 53.6h-37.7l-31.2-50.3h-0.4V905h-34V774.5h50.7c11.8-0.7 23.5 2.7 33 9.7 8.7 7.5 13.3 18.7 12.5 30.2 0.2 8.7-2.4 17.2-7.5 24.3-4 6.7-10.8 11.3-18.5 12.7z m-11.3-43.3c-1.3-2.1-3.2-3.9-5.4-5-2.3-1.2-4.9-2-7.5-2.3-2.9-0.4-5.8-0.6-8.8-0.6H878v32.6h3.3c2.9 0 5.9-0.2 8.8-0.6 2.6-0.4 5.1-1.2 7.5-2.3 2.2-1.1 4.1-2.9 5.4-5 2.5-5.3 2.5-11.5-0.1-16.8z m-154.3-33.6H823v28.9h-40.3v21H823v29.8h-40.3v21H823V905h-74.4V774.5z m-491.7 28.9h-40.3v21h40.3v29.8h-40.3v21h40.3V905h-74.4V774.5h74.4v28.9zM130.8 905l-31.2-50.3h-0.3V905h-34V774.5H116c11.8-0.7 23.5 2.7 33 9.7 8.7 7.5 13.3 18.7 12.5 30.2 0.2 8.7-2.4 17.2-7.5 24.3-5.1 6.9-12.6 11.4-21.1 12.7l35.6 53.6h-37.7z m-6.7-96.8c-1.3-2.1-3.2-3.9-5.4-5-2.3-1.2-4.9-2-7.4-2.3-2.9-0.4-5.8-0.6-8.8-0.6h-3.3v32.6h3.3c2.9 0 5.9-0.2 8.8-0.6 2.6-0.4 5.1-1.2 7.4-2.3 2.2-1.1 4.1-2.9 5.4-5 2.7-5.4 2.7-11.6 0-16.8z m222-28.8c7.4 3.3 14.1 8 19.7 13.9 5.7 6.1 10.2 13.2 13.2 20.9 6.3 16.4 6.3 34.5-0.1 50.9-3.1 7.7-7.6 14.8-13.3 20.8a61.87 61.87 0 0 1-19.7 13.9c-7.4 3.3-15.4 5-23.6 5h-44.5V774.5h44.5c8.3 0 16.4 1.6 23.8 4.9z m-36.8 23.8v73h7c4.6 0 9.1-0.7 13.5-2.2 8.6-2.9 15.5-9.6 18.6-18.2 1.9-5.2 2.8-10.7 2.7-16.2 0.6-9.8-2.8-19.5-9.4-26.8-6.6-6.6-15.7-10.1-25-9.7l-7.4 0.1z m216.2 0h-28.1V905h-34V803.2h-28.1v-28.7h90.1v28.7zM580.2 905h-34V774.1h34V905zM619 792.5c5.9-5.9 13-10.5 20.9-13.4 8.5-3.2 17.5-4.7 26.6-4.6 11.6-0.3 23 2.7 32.9 8.6 9.7 6.1 17.2 15.1 21.7 25.6l-29.9 12.6c-1.9-5.6-5.5-10.6-10.1-14.3-4.6-3.5-10.3-5.3-16.1-5.2-4.6-0.1-9.2 1-13.3 3.2-4 2.1-7.4 5.2-10 8.8-2.7 3.8-4.8 8-6.1 12.5-2.8 9.2-2.8 18.9 0 28.1 1.3 4.5 3.4 8.7 6.2 12.4 2.7 3.6 6.1 6.6 10.1 8.7 4.2 2.2 8.9 3.2 13.6 3.2 6.3 0.2 12.5-1.7 17.5-5.5 4.7-3.9 7.6-9.6 7.9-15.7h-25.7v-25h62.5c-0.1 9-0.9 18-2.6 26.9-1.7 7.7-5 15-9.7 21.4-5.4 7.8-12.9 14.1-21.5 18.1-8.9 4-18.6 6-28.4 5.9-8.9 0.1-17.7-1.5-26-4.6-7.7-2.9-14.7-7.4-20.6-13.2-5.8-5.8-10.4-12.8-13.3-20.5-3.2-8.4-4.8-17.2-4.7-26.2-0.1-9.2 1.5-18.3 4.7-26.9 2.9-7.8 7.5-14.9 13.4-20.9zM619.5 311.6c-0.3 8 0.4 17-12.1 21-7.4 2.4-16.5-7.7-17-14.7 3.7-4.9 8.8-8.7 14.6-10.8 11.6-4.3 14.3-5.2 14.5 4.5z m-214.6 21.1c-12.5-4.1-11.8-13-12.1-21 0.2-9.7 2.9-8.8 14.5-4.5 5.8 2.1 10.8 5.8 14.5 10.8-0.4 7-9.5 17.1-16.9 14.7z m283 234c7.6-3.6 14.6-8.6 20.5-14.6 29.2-31.1 34.8-67 38.3-108.5 0.9-10.8 0.7-21.7 1.3-32.8 0.1-1.7 0.3-9.4 1.1-9.4 2.3 2.5 4.1 5.4 5.4 8.6 3.6 9.7 5.8 19.8 6.8 30 3.3 20.2 3.9 40.7 1.7 61.1-1 7.1-3.4 13.9-6.9 20.1-18.2 30.5-38.4 58.8-57.6 88.9-1.6 2.5-2.8-2.3-3.8-3.1l-1.5-1.6c-4.4-2.4-6.1-2.6-8.2-1.2-0.7 1.3-1.3 2.6-1.9 3.8-4.5 10-12.6 25.9-18.3 36.2-0.9 1.6-2.9 2.1-4.5 1.2-1-0.6-1.7-1.7-1.7-2.9 0-11.5 0.1-22.9-0.1-34.4-0.1-7.1 0.1-15.9-9.8-15.9-9.7 0-10 8.4-10.1 15.8-0.1 6.7 0 13.4 0 21.1 0 1.8-1.5 3.4-3.3 3.4-0.6 0-1.3-0.2-1.8-0.5-8.1-6.1-17.1-11-26.6-14.6-15.4-6.2-32.9-4.2-46.6 5.1l2.1-1.9c11.7-10.6 27.7-14.9 43.1-11.5 4.2 0.9 8.5 1.3 12.8 1 1.8-0.1 3.2-1.7 3.1-3.5 0-0.3-0.1-0.7-0.2-1-6-15.9-24.6-74.1 13.7-93.9 1-0.5 1.7-1.5 1.9-2.6 1.3-10.7 20.8-56.9-32.1-87.1-8.3 7.4-18.6 24.6-31.6 35.7 23.1 5 35.3-9 46.4-18.6-4.6 26.9-25.6 28.9-42.3 38.6 14.4-6.2 28.7 2.2 45.8-6.8-12.4 23.7-36.8 12-51.9 24.5 14.4 9.3 27.8 4.2 41 2.8 3.7-0.5 7.5-0.4 11.2 0.4-3.1 4.5-6.7 8.7-10.8 12.4-5.1 3.9-10.9 6.7-17.1 8.5-6.3 2-13 2.2-19.4 0.5-18.9-5.9-37.5-13-55.9-20.2-3.6-1.7-6.2-4.9-7.3-8.7-1.2-6 0.2-12.4-0.3-18.6-1.5-7.9 3.7-15.4 11.5-16.9 17.4-4.8 32.6-15.3 43.3-29.8 3.6-5.2 6.1-11 7.6-17.1v-0.3c0-5.7-1-11.3-2.9-16.6-1.1-4.2-1-8.7 0.3-12.8l0.3-1.4v-0.2h0.1l3.8-16.1c1.2-5 4.2-9.4 8.5-12.4l1.1-0.7c0.5-0.4 0.9-0.7 1.4-0.9 7.1-3.7 14.5-6.7 22.1-9 26.9-10.6 47.5-32.8 56-60.4 3.2-9.2 4-19 2.3-28.6-2.6 5.2-6.5 15.7-9 21-3 8.4-11.4 13.7-20.3 12.7-24.6 0.2-48.2 4.3-61.7 29.9-5.7 13.7-16.1 25-29.3 31.7-0.2-7.4 0.9-14.8 3.4-21.9-11.4-4.7-6.9-11.3-0.8-18 8.3-9 16.7-17.9 25.5-27.2-7.4-1.8-14.2-5.6-19.7-11h48c0-0.5 0.1-1 0.1-1.4-14.7-2.7-28.8-7.7-41.9-15 22.3-13.8 68.7-6.9 76.5-9.4 0.1-1.9-6.4-3.2-13.1-5.4-15.4-4-21.2-5.2-36.5-9.4-15.2-4.1-29.9-10.1-43.8-17.7h63c-21.4-12.2-45.1-20-69.6-23.1-13.8-0.9-23.8-0.9-32.3-0.7l-0.1-4v4c-8.5-0.1-18.5-0.2-32.3 0.7-24.5 3-48.1 10.9-69.6 23.1h63c-13.8 7.6-28.5 13.6-43.8 17.7-15.4 4.1-21.1 5.4-36.5 9.4-6.7 2.2-13.2 3.6-13.1 5.4 7.8 2.6 54.2-4.3 76.5 9.4-13 7.3-27.2 12.3-41.9 15 0 0.5 0.1 1 0.1 1.4h48a44.3 44.3 0 0 1-19.7 11c8.8 9.4 17.2 18.3 25.5 27.2 6.1 6.6 10.6 13.2-0.8 18 2.4 7 3.6 14.4 3.4 21.9-13.2-6.8-23.6-18-29.3-31.7-13.4-25.7-37.1-29.8-61.7-29.9-8.9 1-17.3-4.3-20.3-12.7-2.4-5.3-6.4-15.7-9-21-1.7 9.6-0.9 19.4 2.3 28.6 8.5 27.6 29.1 49.8 56 60.4 7.6 2.3 15 5.4 22.1 9 0.5 0.3 1 0.6 1.4 0.9 0.4 0.2 0.8 0.4 1.1 0.7 4.2 3 7.2 7.4 8.5 12.4l3.8 16.1h0.1v0.2l0.3 1.4c1.3 4.2 1.4 8.6 0.3 12.8-2 5.3-2.9 10.9-2.9 16.6v0.3c1.4 6.1 4 11.9 7.6 17.1 10.7 14.5 25.9 25 43.3 29.8 7.9 1.5 13 9.1 11.5 16.9-0.6 6.2 0.8 12.6-0.3 18.6-1.1 3.8-3.7 7-7.3 8.7-18.4 7.3-37 14.3-55.9 20.2-6.4 1.6-13.1 1.5-19.4-0.5-6.2-1.7-12-4.6-17.1-8.5-4-3.7-7.6-7.9-10.7-12.4 3.7-0.8 7.5-0.9 11.2-0.4 13.2 1.4 26.5 6.5 41-2.8-15.1-12.5-39.5-0.8-51.9-24.5 17.1 9 31.4 0.6 45.8 6.8-16.7-9.8-37.7-11.7-42.3-38.6 11.2 9.6 23.4 23.5 46.5 18.6-13.1-11-23.3-28.3-31.6-35.7-53 30.2-33.5 76.4-32.1 87.1 0.2 1.1 0.9 2.1 1.9 2.6 38.4 19.8 19.7 78 13.7 93.9-0.4 1-0.2 2.1 0.3 3 0.6 0.9 1.5 1.4 2.6 1.5 4.3 0.2 8.6-0.1 12.8-1 15.4-3.4 31.5 0.9 43.1 11.5l2.1 1.9c-13.7-9.4-31.2-11.3-46.6-5.1-9.5 3.5-18.5 8.4-26.7 14.6-1.6 1-3.6 0.5-4.6-1.1-0.3-0.5-0.5-1.2-0.5-1.8V608c-0.1-7.3-0.4-15.7-10.1-15.8-9.9 0-9.7 8.7-9.8 15.9-0.2 11.5-0.1 22.9-0.1 34.4 0 1.8-1.5 3.3-3.3 3.3-1.2 0-2.3-0.6-2.9-1.7-5.7-10.3-13.8-26.2-18.3-36.2-0.6-1.3-1.3-2.6-1.9-3.8-2.1-1.4-3.8-1.2-8.2 1.2L318 607c-1.1 0.8-2.3 5.6-3.8 3.1-19.2-30-39.4-58.3-57.6-88.9-3.6-6.2-5.9-13-6.9-20.1-2.2-20.3-1.6-40.9 1.7-61.1 0.9-10.3 3.2-20.4 6.8-30 1.3-3.2 3.1-6.1 5.3-8.6 0.8 0 1.1 7.7 1.1 9.4 0.6 11.1 0.4 22 1.3 32.8 3.5 41.5 9.2 77.4 38.3 108.5 5.9 6 12.9 11 20.5 14.6 1.7 0.7 3.7-0.2 4.3-1.9 0.3-0.9 0.3-1.8-0.1-2.7-8.9-18.1-18.5-35.9-25.7-54.7-7.3-19.1-12.2-39.2-17.8-59-0.5-1.8 0.5-3.6 2.2-4.1 0.6-0.2 1.3-0.2 2 0 4.2 1.4 9.7 3.7 14.1 5.4 1.7 0.7 3.6-0.2 4.3-1.9 0.3-0.7 0.3-1.4 0.1-2.1-5.6-19.1-23.6-75-23.6-75 1.1 1.3 11.6 16.7 12.4 18 8.5 13.6 15.9 27.9 22.3 42.7 3 7.8 5.5 13.4 6.8 16.4 0.6 1.3 0.8 2.8-0.3 3.7-15 12.7-2.9 36.9 3.5 44.5 8.8 10.5 15.1 22.9 18.5 36.2 0.9 2.7 2.1 6.6 3.4 10.7 0.6 1.7 2.5 2.6 4.3 2 1.3-0.5 2.2-1.8 2.2-3.2-1.1-17.1-4.1-40.3-9.8-45.6-8.7-8.2-6.9-36.4 2.9-41.4 9.1-4.7 11.1-9.6 6.5-17.6-1-1.6-0.4-3.7 1.2-4.6l41.7-23.9c1.6-0.9 2.2-2.9 1.3-4.5-0.5-0.9-1.4-1.5-2.4-1.7-14.5-1.3-28.9 2.9-40.3 11.9-8.7 5.2-20 2.3-25.1-6.4-0.7-1.2-1.3-2.5-1.7-3.8-0.9-2.1-1.6-4.3-2.2-6.5-0.5-1.8 1.2-3.3 2.9-3.8 20.5-5.1 23.6-6.2 24.6-12.4 0.3-1.8-1-3.5-2.8-3.8h-0.5c-7.1 1-14.4 0.2-21.1-2.6-4-4-6.6-9.2-7.4-14.8-0.5-1.8 0.5-3.6 2.3-4.1 0.7-0.2 1.5-0.2 2.2 0.1 7.2 3.1 9.2 3 13.2-0.1 1.5-1.2 1.8-3.3 0.6-4.8 0 0 0-0.1-0.1-0.1-0.9-1.1-1.9-2.2-3-3.1-15-11.7-38.2-76.6-37.4-95.7-6 5.2-10.6 11.9-13.1 19.4-15.9-6.5-28-8.5-25.8-30.9l17.6 9.1s0.9-6.8-8.5-14.7c-20.2-16.9-23.3-39.4-23.9-63.9-1-11.8 7.7-22.3 19.6-23.3 4.6-0.4 9.1 0.7 13.1 3.1 39.3 18.5 93.4 37.1 138.1 31.3l1.5-0.3 0.1-0.1-0.1 0.1c27.8-5.7 56.1-8.7 84.5-9h0.2c28.4 0.2 56.7 3.2 84.5 9l-0.1-0.1 0.1 0.1 1.5 0.3c44.7 5.7 98.8-12.8 138.1-31.3 10.2-6.2 23.4-3 29.6 7.2 2.4 3.9 3.5 8.5 3.1 13.1-0.6 24.4-3.7 47-24 63.9-9.4 7.9-8.5 14.7-8.5 14.7l17.6-9.1c2.3 22.4-9.9 24.4-25.8 30.9-2.5-7.5-7-14.3-13.1-19.4 0.8 19.1-22.3 84-37.4 95.7-1.1 0.9-2.1 1.9-3 3.1-0.6 0.7-0.9 1.6-0.8 2.6 0.1 0.9 0.6 1.7 1.3 2.3 4 3.1 5.9 3.2 13.2 0.1 1.7-0.7 3.6 0.1 4.4 1.8 0.3 0.7 0.3 1.5 0.1 2.2-0.8 5.6-3.4 10.8-7.4 14.8-6.7 2.7-14 3.6-21.1 2.6-1.8 0-3.3 1.6-3.3 3.4v0.4c1 6.2 4.1 7.3 24.6 12.4 1.8 0.4 3.4 2 2.9 3.8-0.6 2.2-1.3 4.4-2.2 6.5-3.1 9.7-13.4 15-23 12-1.3-0.4-2.6-1-3.8-1.7-11.4-8.9-25.9-13.2-40.3-11.9-1.8 0.3-3 2-2.8 3.8 0.2 1 0.8 1.9 1.7 2.4l41.7 23.9c1.6 0.9 2.2 3 1.2 4.7-4.6 8-2.6 12.9 6.5 17.6 9.8 5 11.5 33.2 2.9 41.4-5.6 5.3-8.7 28.5-9.8 45.6 0 1.8 1.4 3.3 3.2 3.4 1.4 0 2.7-0.8 3.2-2.2 1.3-4.1 2.4-8 3.4-10.7 3.4-13.3 9.7-25.6 18.5-36.2 6.4-7.5 18.5-31.8 3.5-44.5-1-1-1.1-2.6-0.3-3.7 1.3-2.9 3.8-8.6 6.8-16.4 6.3-14.8 13.8-29 22.3-42.7 0.8-1.4 11.3-16.8 12.4-18 0 0-18 55.9-23.6 75-0.5 1.8 0.5 3.6 2.3 4.1 0.7 0.2 1.4 0.2 2.1-0.1 4.4-1.7 10-4 14.1-5.4 1.7-0.6 3.6 0.3 4.2 2.1 0.2 0.6 0.2 1.4 0 2-5.6 19.8-10.5 39.8-17.8 59-7.2 18.8-16.8 36.6-25.7 54.7-0.8 1.6-0.2 3.6 1.5 4.5 0.9 0.4 1.9 0.5 2.7 0.1v-0.3zM413.7 419l-1.8 0.9c0.7-0.2 1.3-0.5 1.8-0.9z m-75.2-244.2c3.5 0.9 6.8 1.6 10 2.3-3.3-1-6.6-1.7-10-2.3z m-4.4 4.8c-46.3-3.6-37.7 30.5-28.8 50.8l7.5 12.4c0.4 0.5 0.8 1.1 1.1 1.7 0 0.1 0.1 0.2 0.1 0.3 11.5 27.2 21.1 85.1 76.7 107.3-2.1-1.2-4.2-2.6-6.4-4.1-16-13.6-29.1-30.2-38.6-49-24.8-49.9-18.3-81.2-21.3-93.6 4.8 1.7 21.8 5.3 25.1 6.5 0.3-0.8-29.8-13.9-38.5-18.4 3.8-2.4 8.1-3.9 12.6-4.5 19.6-2 26.9 4.2 39.6 6 8.5 0.8 17 0.1 25.3-2l-54.4-13.4z m264.4 239.5l1.8 0.9-1.8-0.9z m65.3-241.9c3.2-0.7 6.5-1.5 10-2.3-3.4 0.5-6.7 1.2-10 2.3z m34.4 67.6c0-0.1 0.1-0.2 0.2-0.3 0.3-0.6 0.6-1.2 1.1-1.7l7.5-12.4c9-20.3 17.6-54.4-28.7-50.8L623.6 193c8.3 2.1 16.8 2.7 25.3 2 12.7-1.8 20-8 39.6-6 4.5 0.6 8.7 2.1 12.6 4.5-8.6 4.5-38.8 17.6-38.5 18.4 3.4-1.2 20.4-4.8 25.1-6.5-3 12.5 3.5 43.8-21.3 93.6-9.4 18.8-22.5 35.4-38.6 49-2.1 1.5-4.2 2.9-6.4 4.1 55.7-22.2 65.3-80.1 76.8-107.3zM506 422.1c-6.7 0-13.9 0-23.1-0.2-8.4 0.1-16.7-1.5-24.5-4.7-4.3-3-6.5-8.3-5.5-13.5 0.5-7 9.6-11.9 9.6-11.9-0.3 16.4 13.9 20.7 43.5 21h0.3c29.6-0.3 43.8-4.6 43.5-21 0 0 9.1 4.9 9.6 11.9 1 5.2-1.2 10.5-5.5 13.5-7.7 3.2-16.1 4.8-24.5 4.7-9.2 0.2-16.4 0.2-23.1 0.2l-0.1-0.7-0.2 0.7z m0.1 175.2c0.9 21.6-36.2 23.4-67.5 4.7-1.8-6.7 1.7-18.1-2-20.7-5.4-3.7-14 1.2-19.4 4.7s-9 10.1-14.3 14.3c2.3-33.3 35.6-63.6 86.7-66.4 5.6-0.3 11.3-0.7 16.6-0.7 5.3 0 11 0.3 16.6 0.7 51.1 2.8 84.4 33.1 86.7 66.4-5.4-4.2-8.8-10.8-14.3-14.3s-14-8.4-19.4-4.7c-3.6 2.6-0.2 14-2 20.7-31.5 18.7-68.5 16.9-67.7-4.7z" p-id="2518"></path></svg>