<?xml version="1.0" standalone="no"?><!DOCTYPE svg PUBLIC "-//W3C//DTD SVG 1.1//EN" "http://www.w3.org/Graphics/SVG/1.1/DTD/svg11.dtd"><svg t="1575530983367" class="icon" viewBox="0 0 1024 1024" version="1.1" xmlns="http://www.w3.org/2000/svg" p-id="1464" xmlns:xlink="http://www.w3.org/1999/xlink" width="200" height="200"><defs><style type="text/css"></style></defs><path d="M522.4 514.3c24 5.1 44.2 10.8 64.7 13.3 15.3 1.9 31.4 1.4 46.6-1 26.1-4.2 44.5-28.7 48.5-60.1 6.7-51.7-12.2-95.3-43.1-134.6-38.2-48.6-85.9-87-135.4-123.3-2.4-1.8-8.2-2-10.5-0.3-52.4 38.6-103 79.4-142.3 132.1-20.9 28-34.2 59.3-37.9 94.3-2.3 22 1.4 43.1 11.5 62.9 11.8 23 32.4 32.3 56.4 31.3 22.9-0.9 45.6-5.8 68.3-9.3 6.9-1.1 13.7-3.5 22.1-5.8 8.4 44.9 8.6 87.9-18.6 126.8-39.5 56.6-98 70-163.9 71.4 0-7.9-1.1-15.1 0.5-21.6 0.6-2.7 6.9-5.7 10.6-5.7 27.1-0.7 53.6-4.9 78.3-16.4 45.1-20.9 68.8-56.6 70.8-106.4 0.2-4-0.5-8-0.7-12-18.7 2.2-36.4 5.4-54.1 6.1-12.9 0.6-26.3-0.4-38.8-3.3-36.8-8.3-61.3-38.7-67.5-81.5-8.6-59.1 11.8-109.4 47.3-154.8 44-56.1 99.3-100 156.9-141.1 2.6-1.9 8.5-2.7 10.7-1.1 67.1 48.4 132.5 98.8 177.8 170 17.7 27.8 27.7 58.6 30 91.5 1.9 27.3-3.2 53.4-16.6 77.6-15.9 28.7-41.6 41.5-72.8 42.3-20.7 0.5-41.5-3.1-62.2-5-3.2-0.3-6.4-1.1-10.8-1.9-2.9 42.3 10.4 76.6 42.6 102.7 27.5 22.3 60.3 29.9 94.7 32.6 7 0.5 14 0.7 21.3 1.1v25.3C609.2 716.3 532 664 522 582.2c-2.7-21.9 0.1-44.5 0.4-67.9z" p-id="1465"></path><path d="M598.6 600.6c25.5 38.2 66 41.6 107.8 44.1v25c-67.2 15.5-150.3-44-144.3-101.9 21.6 0.6 43.3 3.3 64.5 1.2 53.1-5.1 88.4-42 95.9-96.3 8.4-60.5-11.8-112.5-47.2-159.7-38.2-51-86.5-91.6-137.2-129.5-11.1-8.3-22.2-16.5-33.8-23.9-2.9-1.9-9-2.3-11.6-0.5C424.6 206.7 359 257.4 311.3 327c-30 43.8-45 92.1-37.2 146.1 8.8 60.4 49.8 96.6 110.8 96.6 16.3 0 32.7-1.8 49.1-2.7 9.3 56-69.6 113.2-144.5 103.1v-25.4c41.8-2.6 82.8-5.6 109.8-46.3-3.8-0.7-5.8-1.3-7.8-1.3C279 599.2 245 515.6 245.2 445c0.1-58.3 22.6-109.1 58.6-154.1 52.9-66 118.6-117.4 188.2-164.3 2.8-1.9 9-2.3 11.7-0.5 77.6 52.5 152 108.9 205.4 187.6 36.1 53.3 52.3 112.2 37.2 176.7-16 67.9-62.6 105-132.3 106.6-4.7 0.1-9.5 0-14.2 0l-1.2 3.6zM145.2 816.6c-2-6.5-4.8-15.4-16.2-15.4-8.5 0-12.7 5.3-12.7 12.6 0 9.4 7.2 13.1 14.8 16.8 5.2 2.5 19.6 7.3 19.6 21.3 0 11.7-9.4 20.1-24.2 20.3-4.8-0.2-8.9-0.9-11.9-1.8-2.8-0.9-4.3-1.7-5-2.1-0.9-2.9-2.1-11-2.8-17.7h1.9c1.9 6.1 6.9 18.8 20.7 18.8 9 0 14.6-4.7 14.6-14.6 0-11.3-9.6-15.2-15.8-18.5-1.1-0.6-18.3-5.8-18.3-19.5 0-9.3 8-18.1 21.8-18.1 3.9 0 7.3 0.3 13.7 2.4 0.5 3.8 1.1 8 1.9 15.6h-2.1zM158 896.4c6.8-0.4 8.8-1.9 8.8-9.2v-50.5c0-7.5-0.5-7.9-8.2-9.1v-1.5c3.8-0.6 10-2.6 13.9-4.6v8.1l14.1-5.8c1.9-0.7 3.3-1.1 4.7-1.1 13.3 0 21 9.7 21 19.3 0 17-14.3 27.6-32 29.9-3.4-0.2-6.5-1.5-7.7-2.5v16.4c0 8.8 1.6 10.2 11.7 10.7v1.3H158v-1.4z m14.4-34.8c2.6 2.9 7.3 5.1 13.3 5.1 10.1 0 19.8-6.6 19.8-20.5 0-10.7-6.2-18.9-18.8-18.9-4.5 0-10.7 2.5-14.3 5.2v29.1zM255.6 871.9c-0.2 0-2.6-0.9-3.8-2-1.4-1.5-1.9-2.8-2.6-5.3-4.6 3.4-9.9 7.3-14.2 7.3-8.1 0-13.6-5.8-13.6-12.8 0-5.1 3.6-8.6 11.7-11 6-1.7 13.4-4.4 16.1-6 0-5.5-0.1-15.3-10.7-15.3-1.9 0.1-8.2 0.6-10.2 9.5-0.2 0.8-0.9 1.9-2.6 1.9-1.6 0-3.5-1.6-3.5-3.8 0-1.7 1.4-3 3.3-4 2.9-1.9 10.8-6.5 16.5-7.7 5.8 0 13 3.6 13 13.5v24.1c0 4.6 1.8 6.4 4.2 6.4 2 0 3.9-0.7 5.2-1.5l1.1 1.9-9.9 4.8z m-6.3-27c-2.5 1.3-9.9 4-12.4 5.1-5.3 1.9-8.5 4-8.5 8.2 0 5.8 4.9 8.9 9.2 8.9 4 0 9.3-2.8 11.7-5.7v-16.5zM302.1 797c6.1-0.8 13.3-2.7 15.6-3.8v66c0 5.5 1.4 6.6 5.3 7.1l4.2 0.3v1.3c-2.6 0.4-9.7 1.8-15.1 3.9v-8l-6.8 3.6c-6.8 3.5-10.7 4.4-12.1 4.4-10.1 0-22.3-8.1-22.3-22.6-0.2-14.7 13-26.6 30.9-26.6 2.6 0 7.2 0.3 10.3 1.2v-16.6c0-7.6-0.9-8-10-8.9V797z m10 34.8c-3.4-4-9.3-5.8-15.5-5.8-7.5 0-18.9 4-18.9 20.3 0 12.8 8.8 20.5 19.2 20.5 7-0.1 12-3.7 15.1-6.1v-28.9zM372.5 862.1c-6.9 7.6-14.9 9.8-17.6 9.8-13.9 0-22.4-10.6-22.4-22.5 0-16.5 14.1-26.7 23.6-26.7 10.1 0 17.4 7.9 17.4 15.8 0 2.2-0.1 2.6-2 2.9-1.9 0.3-16.9 1.6-33.1 2-0.1 17.1 10.6 23.1 18.7 23.1 4 0 8.2-0.8 14.2-6.2l1.2 1.8z m-33.4-22.2c2.7 0 19.2-0.2 24.3-0.3 2.9 0 2.9-1.1 2.9-1.8 0-6.3-4.9-11.9-13.4-11.9-5.8-0.1-12 4.9-13.8 14zM416.3 829.1c2.3 2.4 4 6.2 4 9.5 0 11.8-11 17.4-19.4 17.4-1.2 0-2.5-0.1-4.2-0.3-2.9 1-6.8 3.4-6.8 5.7 0 2.1 2.7 4.2 7.3 4.2 4.9 0 9.5-0.4 14-0.4 8.1 0 16.4 2.2 16.4 12.6 0 10.2-12.8 21.4-28.2 21.4-12.9 0-20-7.2-20-14.4 0-2.8 1.2-4.8 2.3-6.5 2.3-2.6 7.7-6.2 10.3-8.2-4.8-1-10.2-4.9-9.7-9.7 3.6-1 9.2-4 10.9-5.8-5.3-1.7-10.7-7.1-10.7-13.6 0-15.3 17.7-22.6 29.5-15.5 6-0.4 10.6-1 15.7-1.9l0.7 0.9c-1.4 1.5-3.6 3.9-5.3 4.6h-6.8z m-30.1 53.3c0 7.1 6.8 12.8 16.7 12.8 13.3 0 19.4-7 19.4-14.8 0-3.6-1.9-6.7-4.9-8.3-3.3-1.8-7.3-1.9-13.7-1.9-17 0-17.5 10.3-17.5 12.2z m3.7-44.7c0 10.4 5.4 16.1 12.7 16.1 5.3 0 10.6-3.6 10.6-13.1 0-10.1-4.2-15.8-12.2-15.8-6.5 0-11.1 4.4-11.1 12.8zM467.5 871.9c-0.2 0-2.6-0.9-3.8-2-1.4-1.5-1.9-2.8-2.6-5.3-4.6 3.4-9.9 7.3-14.2 7.3-8.1 0-13.6-5.8-13.6-12.8 0-5.1 3.6-8.6 11.7-11 6-1.7 13.4-4.4 16.1-6 0-5.5-0.1-15.3-10.7-15.3-1.9 0.1-8.2 0.6-10.2 9.5-0.2 0.8-0.9 1.9-2.6 1.9s-3.5-1.6-3.5-3.8c0-1.7 1.4-3 3.3-4 2.9-1.9 10.8-6.5 16.5-7.7 5.8 0 13 3.6 13 13.5v24.1c0 4.6 1.8 6.4 4.2 6.4 2 0 3.9-0.7 5.2-1.5l1.1 1.9-9.9 4.8z m-6.3-27c-2.5 1.3-9.9 4-12.4 5.1-5.3 1.9-8.5 4-8.5 8.2 0 5.8 4.9 8.9 9.2 8.9 4 0 9.3-2.8 11.7-5.7v-16.5zM479.8 869c8.5-0.6 10-2.1 10-9.2v-22.1c0-7.5-0.5-8-7.7-9.3v-1.5c4.9-1 9.7-2.1 13.5-4.7v9.1c12.1-8.1 15.3-8.6 18.7-8.6 4.3 0 10 3.1 12.3 9.1 13.7-8.8 17.1-9.1 19.5-9.1 8.6 0 14.2 5.7 14.2 13.6v23c0 8.2 1.2 9.3 8.2 9.8v1.6h-23.8V869c8.2-0.4 10-1.9 10-10v-17.5c0-7.1-1.9-13.9-12.2-13.9-4.9 0.2-10.2 3.1-14.9 6.5 0.1 1.6 0.4 2.8 0.4 3.5v21.7c0 7.6 1.3 9.3 8.2 9.8v1.6H512V869c8.8-0.4 10.2-2.1 10.2-9.8V841c0-7.3-2.2-13.5-12.4-13.5-5.5 0-10.6 3.9-14.3 6.6v25c0 7.6 1.2 9.3 7.6 9.8v1.6h-23.2V869zM574.2 869c7.5-0.6 8.7-2 8.7-8.5v-23.4c0-7.2-0.8-7.7-7.5-8.9v-1.5c4.9-1 8.7-2.2 13.1-4.5v38.2c0 6.5 1.2 8 8.8 8.5v1.6h-23.1V869z m16.1-66.7c0 2.4-2 4.5-4.5 4.5-2.3 0-4.5-2.1-4.5-4.5 0-2.7 2.1-4.7 4.5-4.7 2.7 0 4.5 2.4 4.5 4.7zM602.5 869c6.8-0.4 8.7-2.1 8.7-8.9v-22.6c0-7.5-0.8-8-7.4-9.2v-1.5c4.7-1.1 9.4-2.1 13-4.7v9.3c2.3-1.3 5.3-3.4 8.9-5.7 3.3-1.9 6.2-3.1 9.5-3.1 9.7 0 15.3 5.7 15.3 14.6v22.3c0 7.9 1.1 9 7.6 9.4v1.6h-22.7V869c8-0.4 9.4-2 9.4-9.4v-18.4c0-6.4-1.9-13.6-12.7-13.6-5.8 0-11.7 3.4-15.4 6.8v25.3c0 7.2 1.2 8.9 9.3 9.3v1.6h-23.6V869zM700.6 829.1c2.3 2.4 4 6.2 4 9.5 0 11.8-11 17.4-19.4 17.4-1.2 0-2.5-0.1-4.2-0.3-2.9 1-6.8 3.4-6.8 5.7 0 2.1 2.7 4.2 7.3 4.2 4.9 0 9.5-0.4 14-0.4 8.1 0 16.4 2.2 16.4 12.6 0 10.2-12.8 21.4-28.2 21.4-12.9 0-20-7.2-20-14.4 0-2.8 1.2-4.8 2.3-6.5 2.3-2.6 7.7-6.2 10.3-8.2-4.8-1-10.2-4.9-9.7-9.7 3.6-1 9.2-4 10.9-5.8-5.3-1.7-10.7-7.1-10.7-13.6 0-15.3 17.7-22.6 29.5-15.5 6-0.4 10.6-1 15.7-1.9l0.7 0.9c-1.4 1.5-3.6 3.9-5.3 4.6h-6.8z m-30.1 53.3c0 7.1 6.8 12.8 16.7 12.8 13.3 0 19.4-7 19.4-14.8 0-3.6-1.9-6.7-4.9-8.3-3.3-1.8-7.3-1.9-13.7-1.9-17 0-17.5 10.3-17.5 12.2z m3.7-44.7c0 10.4 5.4 16.1 12.7 16.1 5.3 0 10.6-3.6 10.6-13.1 0-10.1-4.2-15.8-12.2-15.8-6.5 0-11.1 4.4-11.1 12.8z" p-id="1466"></path><path d="M883.3 871.7v-4.9h0.4v8.8c-0.3-0.4-0.5-0.7-0.7-0.9-1.7 2.3-1.8 3.2-0.5 4.6 0.2 0.2 0.7 0.1 1.1 0.2v2.1c-2-0.8-3.8 0.5-3.8 2.6 0 1.2-0.1 2.5-0.2 3.7-0.1 1.5-0.5 1.9-1.9 1.5-1.4-0.3-2.2 0-2.3 1.5 0 0.4-0.4 0.8-0.6 1.2-1.1 1.8-2 3.7-1.8 5.9 0.2 2.1-1 4-3 4.2-2.7 0.3-3.6 2.3-4.6 4.2-0.3 0.6-1 1-1.4 1.6-1.4 2.3-3.3 2.6-5.7 2.1-0.6-0.1-1.5 0.3-2.1 0.7-1.2 0.7-3.8 0.7-4.8-0.2-0.3-0.2-0.6-0.5-0.9-0.5-2.5 0-5.1 0-7.6 0.1-1.2 0.1-2.3 0.1-3-1.2-0.8-1.4-2.1-1.6-3.6-1.4-1.3 0.1-2.1 0.9-2.4 2.1-0.4 1.4-0.5 2.8-0.8 4.3h-3c0.6-0.3 0.9-0.4 1-0.4-1.3-0.8-2.6-2.1-4-2.2-2.5-0.2-3.8-1.6-5.5-3.1-1.2-1-2.9-1.4-4.3-2.2-0.5-0.3-1.2-0.9-1.2-1.4 0-2.1-1.5-2.7-3-3.4-0.5-0.3-1-0.7-1.3-1.1-1-1.5-2.3-2.6-4.3-2.6-0.5 0-0.9-0.1-1.4-0.1-1.3 0-2-0.6-1.9-1.9 0.1-1.2 0.1-2.5 0.1-3.7 0-1.3 0.7-1.8 2-1.7h14.6c0.7 0 1.4 0 2.1-0.1 0.4-0.1 0.7-0.5 1.1-0.7-0.3-0.3-0.7-0.8-1.1-0.9-0.6-0.2-1.2-0.1-1.8-0.1h-14.7c-2 0-2.3-0.3-2.3-2.2 0-1.7 0.5-2.2 2.3-2.3 2.9-0.1 5.8 0.1 8.6-0.2 2.9-0.3 5.4-1.6 6.9-4.3 2.2-4.1-1.1-9.8-5.8-10-3.2-0.1-6.3-0.2-9.5-0.4-1.8-0.1-3.3-2.9-2.3-4.4 0.2-0.3 0.8-0.6 1.3-0.6 1.2-0.1 2.5-0.1 3.7-0.1 2.4 0.1 4.3-1 6.2-2.3 1.5-1.1 1.7-2.7 1.7-4.4-0.1-3.2 0-3.2 3.2-3.1 0.9 0 1.9 0.1 2.8-0.1 0.5-0.1 0.9-0.7 1.4-1.1-0.4-0.4-0.8-1.1-1.3-1.2-1.3-0.2-2.7-0.1-4-0.1-1.8 0-2-0.2-2-2-0.1-3.4 0.3-3.2-3.1-3.1h-0.2c-3.9 0-4 0-4.2 3.9-0.1 0.9-0.5 1.3-1.3 1.3h-15.7c-1 0-1.3-0.6-1.3-1.5 0-3.7-0.1-3.7-3.8-3.7h-1.1c-1.3 0-1.7-0.8-1.3-2 0.4-1.1 0.7-2.2 0.8-3.3 0.1-2.8 0-5.6 0-8.4 0-1.9 1.6-3.9 3.5-4.2 2.1-0.2 4.2-0.5 6.3-0.5 6.2-0.1 12.4 0 18.6 0 1.8 0 2.3 0.6 2.3 2.4 0 4-0.1 8.1 0 12.1 0 2.5 0.6 2.9 3 3 3.9 0.2 4.6-0.5 4.5-4.7-0.1-3.5 0-7.1 0-10.6 0-1.7 0.5-2.3 2.2-2.3h20.1c1.6 0 3.3-0.1 4.7 0.6 1.3 0.6 2.7 1.9 3.2 3.2 0.6 1.8 0.7 4 0.5 6-0.2 1.9-1.2 3.6-1.8 5.4-0.2 0.5-0.2 1.6 0 1.6 0.7 0.2 1.5 0.4 2.2 0.2 1.2-0.3 2.2-0.8 3.4-1.2 1.3-0.4 3.2-2.8 3.4-4.2 0.1-0.9 0.1-1.9 0.4-2.7 0.9-2.5-0.1-4.7-0.5-7.1 0-0.2-0.2-0.5-0.4-0.6-2.3-1.5-4.3-3.4-7.5-3.3-9.2 0.1-18.3-0.1-27.5-0.3-0.6 0-1.6-0.6-1.7-1.1-0.3-1.2-0.4-2.6-0.3-3.9 0-0.4 1-0.9 1.5-0.9 1.6-0.1 3.2-0.1 4.8-0.1h20.7c0.7 0 1.5-0.3 2.1-0.7 0.4-0.3 0.8-1.1 0.7-1.5-0.1-0.4-0.9-0.7-1.4-0.8-1.5-0.1-3.1 0-4.6 0h-60.7c-0.5 0-1 0-1.3 0.2-0.7 0.4-1 1.2-0.3 1.6 1 0.6 2.2 1.1 3.4 1.2 8.3 0.1 16.7 0 25 0 2 0 2.6 0.6 2.5 2.6-0.1 2.7-0.8 3.4-3.5 3.4-6 0-12.1-0.1-18.1 0-2.4 0.1-4.8 0.8-7.2 1.1-0.8 0.1-1.7-0.1-2.4-0.5-1.1-0.6-5.6-1.1-6.5-0.3-0.4 0.3-0.6 0.9-0.6 1.4-0.1 5.1-0.1 10.1-0.1 15.2 0 1.4 1.5 2.8 3.3 2.7 1.6-0.1 2 0.6 2 2v2.9c0 1.1-0.5 1.5-1.5 1.4-1.2 0-2.4 0-3.5-0.1-0.9 0-1.4 0.3-1.4 1.3 0 1.1 0.5 1.3 1.4 1.3 1.2 0 2.4 0 3.5-0.1 1.1 0 1.6 0.5 1.5 1.6-0.1 1.8-0.1 3.6 0 5.4 0 2.1 1 3 3.1 2.9 1.4 0 2.6 0 4-0.5 1.3-0.5 3-0.2 4.5 0.1 1.3 0.3 1.9 3.2 0.8 4.2-0.8 0.7-1.9 1.1-2.9 1.4-1.8 0.4-3.6 0.6-5.4 1-1 0.2-1.6 0-2.3-0.7-1.7-1.7-4.3-1.9-6.2-0.4-0.4 0.3-0.7 1-0.8 1.5-0.1 3.5 0 7.1 0 10.6 0 1.7 1.1 2.7 2.8 2.7 1.7 0 3.5 0.4 4.6-1.5 0.2-0.3 1.3-0.4 1.8-0.1 2.1 1.2 4.4 1.8 6.8 1.6 1.6-0.1 2.1 0.7 2 2.4-0.1 1.7-0.4 2.1-2.1 2.1h-16.4c-0.8 0-2.2-0.4-2.2 1 0 1.3 1.3 0.9 2.2 0.9h16.3c1.3 0 2 0.4 2 1.8s0.1 2.9 0.1 4.3c0 1.2 0.2 2.3 1.7 2.7 1.2 0.4 1 1.5 0.7 2.3-0.2 0.5-1 0.8-1.6 0.9-1.5 0.3-2.8-0.1-3.9-1.1-1.7-1.6-4-1.4-6-0.9-3.3 0.9-6.7 0.9-10 0.9-1.8 0-3.6 0.1-5.4 0.1-0.3 0-0.7 0-0.9 0.2-1.2 1.4-2.8 1.2-4.3 1.1-1.8-0.1-3 0.8-4.3 1.7-2.1 1.4-4.2 1.1-6.2-0.5-1.6-1.3-3.4-2.4-5.2-3.5-1.7-1.1-2.2-2-1.8-4 0.3-1.7-0.3-3-1.8-3.9-0.4-0.3-0.7-0.9-1-1.4-0.6-1-1.2-1.9-1.7-2.9-0.2-0.4-0.2-1.1 0-1.5 0.7-1.6 0.4-2.7-1.3-3.4-0.6-0.2-1.4-0.3-2.1-0.3-1.8-0.1-2.4-1-1.7-2.6 1.2-3.1 1.2-3.1-2.1-3.3-0.4 0-0.7 0-1-0.2-1.9-1.1-3.5-5-2.8-7.1 0.1-0.4 0.4-0.8 0.8-1.1 1-0.7 2.1-1.3 3-2.1 0.4-0.4 0.8-1.1 0.7-1.7 0-0.3-1-0.5-1.5-0.8h-0.3c-0.8-0.2-2-0.2-2.4-0.7-0.8-0.9 0.2-1.7 0.7-2.5 0.6-1 0.9-2.3 1.4-3.4 0.7-1.5 1.3-1.7 2.8-1.1 1 0.4 1.6 0 1.6-1 0.1-2.1 0.2-4.3 0.2-6.4 0-0.5 0-1-0.2-1.5-0.7-1.5-1.6-3-2.3-4.6-0.3-0.8-0.2-1.7-0.3-2.6 1 0 2.1-0.1 3 0.2 0.8 0.3 1.4 1 2.2 0.3 0.9-0.9 0.1-1.5-0.4-2.3-0.7-1.2-1.4-2.4-2-3.6-1.2-2.4-0.1-4.4 1.2-6.4 0.7-1 1.4-2 1.8-3.1 0.3-0.8 0-1.8-0.1-2.7 0-0.4-0.5-0.8-0.4-1.1 0.7-1.8 0.2-3.6 0-5.4-0.4-3.7-0.8-7.3-2.8-10.6-1-1.6-0.4-2.7 1.5-2.8 1.6-0.1 3.7-2.5 3.5-4.1-0.1-1-0.5-1.4-1.6-1.4-0.4 0-1-0.5-1.3-0.9-1.4-2.2-1.1-4.7-1.4-7.1-0.2-1.5 1.5-3.7 2.9-4.5 1.8-1 3.5-2.1 3.9-4.5 0.2-1.1 0.8-2.1 1.4-3 1.3-1.8 1.2-3.9 0-5.6-0.4-0.6-0.4-1.6-0.2-2.3 0.1-0.4 1.1-0.7 1.8-0.7 0.8-0.1 1.9 0.3 2-0.8 0.1-1.1-0.3-2.3-0.5-3.4-0.2-0.6-0.8-1.2-0.8-1.8-0.1-1.5 0-2.9 0.9-4.5 0.7-1.2 0.1-3.1 0.4-4.6 0.4-1.7 1.1-3.4 1.7-5.1 0.4-1 0.8-1.9 1.2-2.9 0.4-1.1 0.7-2.2 1.3-3.2 0.3-0.5 1.1-0.9 1.8-1 1.6-0.4 3.2-0.7 4.8-0.9 1.5-0.2 3-0.2 4.4-0.3 2.2-0.1 2.8-0.7 2.7-2.9-0.1-2 0.6-2.8 2.4-3.8 1.3-0.7 2.5-1.3 4-1 0.4 0.1 0.9 0 1.2 0.3 1.4 1.4 3.1 1.1 4.8 1.1H823.4c0.9-0.1 1.8-0.4 1.6-1.4-0.1-0.6-1-1.4-1.6-1.4-1.7-0.2-3.4-0.1-5.1-0.1h-8.6c-1.9 0-2.4-0.3-2.5-2.3-0.1-1.9-0.1-3.9-0.1-5.8 0-1.4-0.4-2-1.8-2-0.7 0-1.5 0.1-2.1 0-0.5-0.1-1.2-0.5-1.2-0.8 0-0.5 0.2-1.4 0.7-1.6 1-0.5 2.3-0.5 3.2-1.1 1.3-0.8 2.5-1.8 3.6-2.9 0.6-0.7 0.7-1.8 1.2-2.6 0.3-0.5 1-1.1 1.5-1.1 1.8 0.2 3.7 0 5.4 1.3 2.1 1.6 3.5 0.8 5.2-2.1 0.4-0.7 0.9-1.5 1-2.2 0.6-3.4 5.1-4.4 7.5-2.7 1.3 0.9 2.4 0.2 2.7-1.3 0.6-3.5 0.6-3.4 4.1-3.3 2.5 0 3.7 1.8 5 3.3 1 1.2 1.7 2.2 3.4 1.8 1.2-0.2 2.3 1.4 2.6 3.3 0.3 1.6 0.5 3.2 1 4.8 0.6 1.7 2 2.4 3.8 2.1 1.6-0.3 2.4 0.4 3.1 1.8 0.7 1.4 2 2.4 2.9 3.7 0.3 0.4 0.7 1.2 0.5 1.6-0.2 0.4-0.9 0.7-1.5 0.8-0.6 0.1-1.3 0.1-2 0-1.9-0.1-3.4 0.4-4.8 1.8-0.9 1-2.6 1.4-4 1.6-2.8 0.2-5.6 0-8.4 0.1-0.8 0-1.6 0.5-2.4 0.7-0.4 0.1-0.7 0.4-1.1 0.5-3.5 0.8-6.3 3.6-6.4 7.2-0.2 7.7-0.1 15.5-0.2 23.2 0 8.1 0.1 16.3-0.1 24.4-0.1 3.7-0.2 7.6-1.1 11.1-0.8 3.2-2 6.4-4.5 8.8-1.2 1.1-2.3 2.3-3.4 3.4-0.8 0.8-0.6 1.5 0.4 1.6 2.6 0.1 5.3 0.6 7.7-0.8 2.6-1.5 4.8-3.5 5.5-6.7 0.5-2.3 1.3-4.6 1.9-6.9 0.3-1.4 0.5-2.8 0.5-4.2 0.1-9.3 0-18.5 0.1-27.8 0-2.1 0.2-2.3 2.3-2.3h9.1c1.2 0 1.7 0.5 1.7 1.6v45.5c0 0.7 0.5 1.5 1 2 1.3 1.4 3.1 1.2 4.8 0.9 1.2-0.3 1.7-1.4 1.7-2.7v-44.5c0-2.5 0.2-2.7 2.7-2.7h4.3c1 0 2.1-0.3 2-1.6 0-1.2-1-1.3-2-1.3h-24.3c-2.1 0-3.3-1.1-3.3-3.2 0-4 0.1-8 0-12-0.1-3.4 0.7-6.4 2.8-9.1 0.3-0.4 1-0.8 1.5-0.9 2.7-0.2 5.5-0.3 8.2-0.5 2.7-0.2 5.5-0.4 8.2-0.6 0.9-0.1 1.8 0 2.8 0 1.2-0.1 1.9 0.5 2.4 1.5 0.6 1.1 1.3 2.2 1.9 3.3 0.5 1 0.4 2-0.1 3-0.6 1.2-1.1 2.5-1.3 3.8-0.1 0.4 0.6 1.1 1.1 1.4 2 1.1 3.2 2.5 3.4 4.8 0.2 1.6 1.9 1.9 3.2 2.5 0.4 0.2 0.8 0.2 1.2 0.2 1.4 0 2.1 0.8 2.1 2.1s-0.3 2.5-0.2 3.8c0 1.1 0.1 2.2 0.5 3.2 1.3 3.2 1 6.4 0 9.6-0.8 2.5-0.5 4.8 0.3 7.3 1.5 4.9 3.6 9.7 2.5 15.1-0.6 2.9 0.3 5.5 1.5 8 0.5 1 1.1 1.5 2.3 0.9 1.4-0.7 1.9-0.3 1.9 1.4 0 1.8 0.1 3.7 0 5.5 0 0.8-0.5 1.5-0.6 2.3-0.2 1.8-0.6 3.6-0.5 5.4 0.2 2.7-0.6 4.5-2.9 6-0.5 0.3-0.9 1.2-1 1.9-0.2 1.1 0 2.2 0 3.4 0 0.4 0.1 0.8 0 1.1-1.4 2.7 0.4 5 1 7.5 0.3 1.6 0.4 3.2 0.5 4.8 0 1 0.1 1.6 1.3 1.8 1.1 0.1 1.2 0.9 0.6 1.9-0.4 0.7-0.6 1.6-0.7 2.5-0.1 0.4 0.1 0.8 0 1.2-0.7 5.3 1.1 10.3 1.1 15.6 0 0.4 0.1 0.9 0.3 1.1 1.6 1.8 1.4 4 1.4 6.1v2.1c-0.4-0.5-0.2-0.4 0-0.4z m-84.5-84.4c0 3.7 0.1 7.4-0.1 11.1-0.1 3.9-1.3 4.8-4.7 4.6-2.4-0.1-4.9-0.6-7.3-0.9-0.4 0-1.1-0.1-1.2 0.2-0.2 0.3-0.1 0.9 0.1 1.3s0.5 0.8 0.8 1.1c0.7 0.6 1.5 1.3 2.3 1.7 1.1 0.5 2.2 0.9 3.3 1.2 0.8 0.3 1.8 0.2 2.5 0.6 1.8 1.1 3.3 1.1 5-0.1 0.3-0.2 0.7-0.5 1.1-0.4 2.7 0.1 3.7-2.2 4.4-4 0.9-2.3 1-4.9 1.1-7.4 0.1-6.6 0-13.2 0-19.8 0-2.3 0.4-2.7 2.8-2.7h12.7c0.7 0 1.4-0.1 2.1-0.3 1.1-0.4 1.3-1.5 0.5-2.2-0.7-0.5-1.7-1-2.6-1-4.3-0.1-8.7 0-13.1 0-1.9 0-2.5-0.6-2.5-2.5v-7.5c0-2.1 0.4-2.5 2.5-2.5 4.7 0 9.4 0.1 14.1 0 1 0 2.1-0.6 3.1-1 0.9-0.4 0.7-1.2 0-1.7-0.5-0.3-1.1-0.5-1.7-0.5-3.6 0-7.2 0-10.7 0.1-0.8 0-1.6 0.1-1.7-1-0.1-1 0.2-1.8 1.2-2 3.3-0.6 4.2-3.2 5.1-5.8 0.6-1.8 1.3-3.5 1.9-5.3 0.3-1 0.6-2.1 0.6-3.1 0-0.4-0.6-1.1-1.1-1.2-1.2-0.2-2.5-0.1-3.7 0-0.5 0.1-1.2 0.5-1.4 1-1.1 2.5-2.1 5-3.2 7.5-0.8 1.8-1.6 3.6-3.4 4.8-1.1 0.7-1.6 1.7-0.5 3 0.3 0.4 0.4 1.2 0.2 1.7-0.1 0.3-0.9 0.5-1.4 0.5h-8c-0.5 0-1.3-0.1-1.4-0.4-0.2-0.5 0-1.2 0.3-1.7 0.9-1.5 0.7-2.3-0.7-3.3-1.9-1.3-3.1-3.1-3.8-5.2-0.9-2.4-1.7-4.8-2.7-7.1-0.1-0.4-0.8-0.6-1.2-0.7-1.1-0.1-2.1-0.1-3.2 0-1.7 0.1-2.2 0.8-1.8 2.4 0.3 1.2 0.8 2.4 1.3 3.6 0.8 2 1.5 4.1 2.3 6.1 0.7 1.9 2 3.1 4.1 3.4 1.1 0.1 1.4 1 1.3 1.9-0.1 1.1-0.9 1-1.7 1-3.9 0-7.9-0.1-11.8 0-0.6 0-1.5 0.4-1.6 0.8-0.1 0.6 0.2 1.4 0.7 1.8 0.5 0.4 1.4 0.6 2.1 0.6h16c2.2 0 2.6 0.4 2.6 2.6v7.1c0 2.5-0.4 2.9-3 2.9h-14c-1.4 0-2.4 0.8-2.3 1.9 0.1 1.5 1.1 1.6 2.3 1.5h14.6c2 0 2.4 0.5 2.4 2.5 0.1 3.4 0.1 7.1 0.1 10.8z m37.8 107c-0.4 1.3 0.2 1.9 1.1 2.5 2.2 1.5 4.3 3.3 7.2 3.4 0.2 0 0.5 0.2 0.7 0.2 1.1 0.3 2.1 0.6 3.2 0.7 2 0.2 3.8-0.3 5.7-1.1 1.5-0.7 2.5-1.5 3.3-2.7 0.7-1.2 1.4-2.7 1.4-4.1 0.3-5.4 0.4-10.8 0.4-16.3 0-7.8-0.2-15.6-0.3-23.3 0-0.7-0.3-1.6-0.7-1.9-1.5-1.1-3.1-2.5-4.8-2.7-4.8-0.5-9.6-0.3-14.4-0.4-0.4 0-0.8 0.4-1.3 0.4-1 0.1-2.3 0.6-3.1 0.2-1.5-0.8-2.9-0.8-4.4-0.8-2.9 0-3 0.1-3 3 0 11.4 0.1 22.7-0.1 34.1-0.1 4.5-0.2 9.2-4 12.6l-0.1 0.1c-0.1 0.6-0.2 1.1-0.4 1.7 0.5 0.1 1.1 0.3 1.6 0.2 0.7-0.1 1.4-0.4 2.1-0.5 2.8-0.4 6.5-3.7 6.9-6.5 0.5-3.3 0.8-6.6 1.1-9.9 0.1-1.4 0.6-1.9 1.9-1.9h14.3c1 0 1.9 0.2 1.9 1.5 0 2.7 0 5.4-0.1 8.1-0.2 2.9-1.9 4.6-4.8 4.5-2.5-0.1-5-0.5-7.4-0.8-1.4 0.1-2.6-0.1-3.9-0.3z m-59.4-93.7c0.8-0.1 1.4-0.3 2.1-0.3 3.7-0.1 6.3-1.6 7.5-5.3 0.3-1 0.7-2 1-3l4.2-12.3c0.5-1.4 0.1-2-1.4-2.2-1.2-0.1-2.5 0-3.7-0.1-1.1-0.1-1.8 0.3-2.1 1.4-1.1 3.3-2.2 6.7-3.3 10-1.2 3.5-2.4 7-4.9 9.8-0.3 0.3-0.4 1-0.2 1.4 0 0.3 0.6 0.4 0.8 0.6z m38.1-22.9h-1.6c-1.4 0.1-2.3 0.6-1.9 2.2 0.4 1.6 1.1 3.2 1.2 4.8 0.2 3.2 2.1 5.8 3 8.7 0.1 0.4 0.4 0.8 0.8 0.9 2.4 1 4.7 2.7 7.6 2.1 1.2-0.2 1.4-0.7 0.7-1.6-3.2-3.9-4.5-8.7-5.6-13.5-0.6-2.4-1.5-4.3-4.2-3.6z m23.1 55.5s0-0.1 0 0H831c-0.9 0-1.9 0-1.9 1.2s1 1.3 1.9 1.3h14.7c0.9 0 1.9-0.2 1.9-1.3 0-1.2-1-1.3-1.9-1.3-2.4 0.1-4.9 0.1-7.3 0.1z m-38.4 2.5h5.8c0.8 0 1.6 0.1 2.3-0.2 0.4-0.2 0.9-0.8 0.9-1.3 0-0.3-0.7-0.8-1.1-1-0.4-0.2-0.9-0.1-1.4-0.1h-13.7c-0.9 0-1.8 0-1.8 1.3 0 1.2 0.9 1.3 1.9 1.3h7.1z m38.2 7c2.2 0 4.5 0.1 6.7 0 0.8 0 2.2-0.7 2.2-1 0-1.3-1.2-1-2.1-1.1h-13.7c-0.4 0-0.8 0-1 0.1-0.4 0.2-0.8 0.6-0.8 0.9 0 0.3 0.4 0.8 0.8 0.9 0.4 0.2 1 0.2 1.5 0.2h6.4z m-38.2-2.2c-2.3 0-4.7 0-7 0.1-0.5 0-1 0.6-1.5 0.9 0.5 0.4 1 0.8 1.5 1.1h0.3c4.5 0 9.1 0.1 13.6 0 0.6 0 1.2-0.7 1.9-1.1-0.6-0.3-1.2-0.9-1.9-1-2.3-0.1-4.6 0-6.9 0z" p-id="1467"></path><path d="M798.9 726c-0.1 4.5-0.1 4.5-4.5 4.5h-11.6c-0.5 0-1.4-0.5-1.5-0.9-0.1-0.6 0.2-1.5 0.7-2 1.3-1.3 2.7-2.6 4.1-3.8 0.5-0.4 1.3-0.8 2-0.8 1.8-0.1 3.4-0.1 5.2-0.8 1.4-0.5 3.3 0.2 4.9 0.5 0.3 0.1 0.6 0.9 0.7 1.4v1.9zM800.5 853.6h7.4c1.3 0 2 0.5 1.7 1.8-0.2 1.3 0.3 2.9-1.2 3.8-0.6 0.4-1.4 0.7-2.1 0.7-3.8 0.1-7.7 0.1-11.5 0-3-0.1-4.7-2.9-3.3-5.6 0.2-0.4 1-0.6 1.5-0.7h7.5zM804.1 875.5c0.1-4.3-0.9-4.5 4.5-4.4 1.5 0 3 0.3 4.5 0.5 0.9 0.1 2.1 2.5 2.1 3.9 0 3.1-1.5 4.6-4.6 4.7H806c-1.4 0-2-0.7-2-2.1 0.2-0.8 0.1-1.7 0.1-2.6zM796.4 875.6c0 5 0.2 4.7-4.6 4.7-0.7 0-1.4-0.1-2.1-0.1-1.4-0.2-2.9-0.3-3.4-2-0.6-2.1-0.5-4.1 1-5.9 0.2-0.3 0.7-0.5 1-0.6 2.1-0.2 4.2-0.4 6.2-0.6 1.3-0.1 2 0.5 1.9 1.9v2.6zM843.6 879c-2.2 0-4.5-0.1-6.7 0-1.4 0.1-2.1-0.5-2.1-1.8-0.1-3.3-0.2-6.6-0.1-9.9 0-0.5 1-1.4 1.6-1.4 4.8-0.1 9.7-0.1 14.5-0.1 1 0 1.8 0.5 1.8 1.6 0 3.2-0.1 6.3-0.1 9.5 0 1.5-0.7 2.1-2.2 2-2.2 0.1-4.4 0.1-6.7 0.1zM843.6 863.7h-6.7c-1.3 0-2-0.5-2-1.7-0.1-2.5-0.2-5.1-0.1-7.7 0-1.3 2.4-3.1 4.1-3.2 3.2-0.1 6.3-0.1 9.5 0 1.3 0 4.1 2.7 4.1 4.1 0.1 2.2 0.1 4.5 0.1 6.7 0 1.3-0.7 1.8-1.9 1.8h-7.1zM874.4 718.8v0.8h-4v10.1h-0.9v-10.1h-4v-0.8h8.9zM877.7 718.8l4.3 9.7 4.3-9.7h1.2v10.9h-0.9v-9.4l-4.1 9.4h-0.9l-4.1-9.4v9.4h-0.9v-10.9h1.1z" p-id="1468"></path></svg>