<svg id="圖層_1" data-name="圖層 1" xmlns="http://www.w3.org/2000/svg" viewBox="0 0 72.5 49.52"><title>04</title><path d="M37.75,42.76c0-5.15,0-10.3,0-15.45,0-2.72,1.13-3.84,3.88-3.84H72.08c3.07,0,4.17,1.12,4.17,4.22V57.83c0,3-1.12,4.14-4.09,4.14H41.71c-2.87,0-4-1.06-4-3.9Q37.74,50.42,37.75,42.76Zm23.18,0a4,4,0,0,0-4-4.07,4,4,0,0,0,0,8A4,4,0,0,0,60.93,42.79Zm-9.16,9.07a4,4,0,0,0-4-3.91,3.91,3.91,0,0,0-4,4,4,4,0,0,0,4,3.93A4,4,0,0,0,51.77,51.86ZM66.15,37.5a4,4,0,0,0,4-4,4,4,0,0,0-8,0A4,4,0,0,0,66.15,37.5Z" transform="translate(-3.75 -15.24)"/><path d="M40.64,21.46a5.5,5.5,0,0,0-4.76,3.74c-2.41-1.85-4.53-2-6.13-.39a4,4,0,0,0-.29,5.37c1.47,1.8,3.48,1.9,6.18.26,0,.38,0,.71,0,1,0,8.33,0,16.67,0,25a1.86,1.86,0,0,1-1.18,2c-3.76,1.84-7.46,3.8-11.19,5.69-2.29,1.17-3.8.67-5-1.62l-14-27.69C3.19,32.57,3.7,31,6,29.87q13.9-7,27.82-14.1c2.05-1,3.6-.55,4.67,1.45C39.19,18.55,39.85,19.91,40.64,21.46ZM24.52,56.31a3.93,3.93,0,0,0,3.92-3.94,4,4,0,1,0-7.94.1A3.92,3.92,0,0,0,24.52,56.31ZM24.5,40a4.07,4.07,0,0,0,4,4.06,4,4,0,0,0-.05-8A4.06,4.06,0,0,0,24.5,40Zm-8.28,0a4,4,0,0,0,3.94-4,4,4,0,0,0-8,0A4,4,0,0,0,16.22,39.92Z" transform="translate(-3.75 -15.24)"/></svg>