<?xml version="1.0" standalone="no"?><!DOCTYPE svg PUBLIC "-//W3C//DTD SVG 1.1//EN" "http://www.w3.org/Graphics/SVG/1.1/DTD/svg11.dtd"><svg t="1574739784465" class="icon" viewBox="0 0 1024 1024" version="1.1" xmlns="http://www.w3.org/2000/svg" p-id="2610" xmlns:xlink="http://www.w3.org/1999/xlink" width="200" height="200"><defs><style type="text/css"></style></defs><path d="M351.7 411c-3.1-1.1-6.1-2.5-9.3-3.2-2.9-0.6-6.2-0.9-9.1-0.2-3.7 0.9-6.8-0.2-7.3-4-0.5-3.5 4.9-9.9 8.4-10.2 1.2-0.1 2.3-0.9 3.4-1.4-1.2-0.9-2.4-2.5-3.7-2.6-1.5-0.1-3.2 0.9-4.5 1.8-2.4 1.6-4.7 3.6-7.1 5.5-2.9-3.5-5.5-6.6-8.1-9.8-0.3-0.3-0.7-1.1-0.5-1.3 3.1-4.2-1.5-6.3-2.8-9-0.6-1.3-3.9-1.4-6.1-1.8-2.5-0.4-5-0.5-7.5-0.6-1 0-2.3-0.2-3 0.3-4.7 2.9-8 6.9-10.9 11.8-2.7 4.6-7.5 7.9-11.6 11.7-0.6 0.6-2.4 0.8-3.1 0.3-5.1-3.1-7.6 0-10.1 3.7-2.2 3.2-5.5 3.7-8.8 2.3-3.3-1.5-4.6-4.4-3.8-8.5 2.7 1.4 4.9 5.4 8 1.5 0.9-1.1 1.9-2.9 1.5-4-0.4-1.1-2.3-2.1-3.6-2.2-5.5-0.8-11.1-1.2-16.7-1.8-3.9-0.4-6.4-2.3-7-6.3-0.6-4.1 1.8-6.2 4.6-7.7 0.7 2.5 0.7 5.4 2.1 6.9 2.5 2.5 4.6 1.4 5.2-2.2 0.9-6 3.8-10.7 9.6-13 2.1-0.8 4.6-0.8 6.9-1.1 0.1 0.4 0.2 0.9 0.3 1.3-0.8 0.5-1.7 1-2.5 1.4-2.2 1.1-4.6 2-6.6 3.5-2.6 1.9-4.8 4.4-3.3 8 1.3 3.1 7.4 6.1 10.3 5.1 4.2-1.6 8.3-3.3 12.3-5.4 0.4-0.2 0-3.4-0.9-4.3-1.7-1.6-4-2.6-6.1-3.9 2-1.4 4-2.8 6-4.3 0.5-0.4 0.8-1 1.1-1.5 5.9-10.9 17.3-15.6 29.1-11.5 3.5 1.2 7 2.8 10.3 4.5 3.3 1.6 6.4 3.6 9.6 5.4 0.4-0.3 0.9-0.6 1.3-0.9-0.7-1.3-1.1-3.3-2.2-3.8-7.2-3.7-14.3-8.1-22.1-10.3-4.5-1.3-10.2 0.5-15.1 1.9-5.5 1.5-10.5 4.9-16.5 2.3-0.4-0.2-1.7 1.5-2.6 2.4-1.2 1.3-2.3 3.7-3.3 3.7-2.1-0.2-4.7-1.2-5.9-2.7-2.2-2.9-3.6-6.4-5.1-9.8-1.3-2.9-3-4.5-6.4-4.4-5.8 0.1-10.7-1.9-14.7-6.2-2.2-2.4-8.8-2-11.6 0.2-1.6 1.2-3.6 2.1-5.5 2.7-3.5 1.1-7 2.1-10.6 2.8-1.4 0.3-3 0.1-4.3-0.4-3-1.2-5-1.5-8.6 0.4-5.6 2.9-12.7 2.7-19.2 3.8-0.2-0.8-0.5-1.6-0.7-2.3 1.7-0.9 3.2-2.3 5-2.8 5.2-1.4 10.6-2.3 11.9-8.9l-0.4-0.3c-5.3 5.1-12.2 6.9-18.8 9.7-5.7 2.4-10.6 6.7-15.8 10.1-0.6 0.4-1.3 1-2 1.1-9.6 1.7-16.8 8.2-25.2 12.6-2.3 1.2-3.1 2.9-2.7 6.4 0.4 2.9-3.7 6.4-6 9.6-0.3 0.4-1.6 0.2-1.7 0.6-2.5 6-7.3 4.3-11.9 3.7-4.2-0.6-7.1 1.8-9.6 4.8-2.8 3.3-5.8 6.5-8.5 9.9-2.1 2.6-3.8 5.6-6 8.1-1.9 2.2-4.4 3.9-6.7 5.8-1.8 1.6-3.9 2.9-1.5 5.8 0.5 0.5-0.4 3.3-1.2 3.6-7.5 2.7-10.3 9.6-13.4 15.6-14.3 28.8-22 59-20.5 91 0.7 14 3.3 28 5.2 42 0.2 1.3 1.2 2.5 1.9 3.7 1 1.9 2.4 3.7 3.1 5.8 1.6 4.9 3.3 9.7 4.3 14.8 2.4 11.6 10.9 19.7 16.2 29.5 5.3 9.9 13.4 16.7 20.7 24.5 3.4 3.7 6.7 7 11.3 9.5 5 2.7 9.2 7 14 10.8-0.6 0.9-1.1 1.9-2.2 3.7 6.5 3.2 12.8 6.4 19.2 9.6 9.1 4.5 18.1 9.2 27.4 13.3 6.1 2.7 11.9 6.3 19.1 5.7 1.8-0.2 3.8 0.3 5.5 0.9 4.1 1.6 8.2 3 12.7 1.5 1.1-0.4 2.5-0.1 3.7 0.2 28.6 6.3 56.1 1.1 82.8-9.2 13.5-5.2 26.4-12.1 39.6-18 4-1.8 8.4-2.6 12.5-3.9 1.1-0.4 3-1.2 3-1.8 0.1-4.8 3.7-4.6 6.9-5.2 9.6-1.7 15.4-8.2 19-16.6 11-26.1 22.1-52.3 32.6-78.6 10.8-27.2 20.8-54.8 31.3-82.2 0.6-1.5 3-3.1 4.7-3.3 5.1-0.4 10.4-0.1 15.5-0.2 2.9-0.1 3.9 1.2 4.8 3.9 8.3 25.5 16.7 51 25.3 76.3 0.7 2.1 3.1 4.4 5.2 5.3 17.1 7.3 31.2 18.6 44 31.8 0.6 0.6 1 1.4 1.2 2.5-13.8-9.4-27.7-18.7-45-23.8 0.9 2.9 1.3 4.9 2 6.8 8.3 21.8 16.5 43.7 24.9 65.5 2.5 6.4 6.1 12 14.3 12.6 4 0.3 2.6 4 2.7 6.4 0.2 2.9-1.8 3.1-4.1 3.1-18.7 0-37.4 0-56 0.1-3.3 0-4.6-1.1-4.5-4.4 0.1-2.9 0.1-5.5 4.1-5.3 1.2 0.1 2.5 0 3.8-0.1 9.2-0.8 12.6-5.2 10-14.2-3.5-12.2-7.5-24.3-11.3-36.4-3.6-11.4-7.4-22.7-10.9-34.1-1-3.4-2.7-4.4-6.1-4.1-19.4 1.8-36 9.9-49.4 23.7-3.7 3.8-5.2 9.9-7.2 15.1-4.1 11-8 22.1-11.7 33.2-0.8 2.3-0.9 5-0.8 7.4 0.2 5.5 2.9 8.3 8.4 9 1.9 0.3 3.7 0.4 5.6 0.4 5 0.2 7.1 2.8 5.2 7.5-0.5 1.2-3.2 2-4.8 2-17.6 0.1-35.2 0.1-52.7 0-3.9 0-6.8 1.4-9.6 4-3.3 3-7.7 5-11 8-12.8 11.8-29.4 15.4-45 21.1-5 1.8-10.4 2.3-15.6 3.5-1.4 0.3-2.9 0.7-5.1 1.3 1.7 1.5 2.6 2.4 3.9 3.5-1 0.3-1.8 0.8-2.6 0.8-9.4 0-18.8-0.3-28.2-0.1-2.8 0.1-5.5 1.5-8.3 2-1.4 0.3-3.2 0.4-4.3-0.3-3.7-2.1-6.9-1.8-10.7 0.1-1.9 1-4.6 1.2-6.7 0.6-3.9-1.1-7.5-3.2-11.8-1.5-0.7 0.3-1.8-0.4-2.6-0.7-4.5-1.7-8.9-3.6-13.4-5.2-0.9-0.3-2.2 0.5-3.2 0.8 0.5 1.1 0.7 2.7 1.5 3.1 4.7 2.4 9.5 4.6 14.3 6.7 1 0.5 2.2 0.5 4.2 0.9-10.5 3.1-21.9-2.8-24.9-12.4-11 2.8-20.6-1.9-30.9-5-9-2.8-15.6-8-21.9-14.4-3.3-3.4-7.2-6-10.7-9.2-11.3-10.1-21.9-20.7-30.3-33.8-17.8-27.8-30-57.6-38.8-89.3-4.1-14.5-3.6-29.2-3.5-43.9 0.1-8 3.5-15.9 4.1-23.9 1.4-19 10.2-35.7 15.9-53.4 1.9-5.8 3.7-11.7 6.4-17.1 1.5-3 4.6-5.3 7.4-7.5 4.9-3.8 10.5-6.9 10.7-14.3 0-1.1 1.4-2.3 2.4-3.3 5.4-5.7 10.9-11.3 16.4-16.9 0.1-0.1 0.3-0.2 0.3-0.4 0.7-2.5 1.4-5.1 2.2-7.6-2.3 0.7-5.5 0.7-6.9 2.3-5.8 6.6-11.2 13.4-16.3 20.5-2.9 4-4.9 8.7-7.6 13-1 1.6-2.5 2.8-3.7 4.2-0.4-0.2-0.8-0.5-1.2-0.7 0.2-0.9 0.1-2 0.6-2.8 6.5-12.7 13.5-25.2 23-36 1.9-2.2 3.4-4.3 2.1-7.6-0.4-0.9 0.7-3 1.7-3.9 5.9-5.2 11.9-10.2 17.9-15.2 5.8-4.8 11.9-9.3 17.4-14.4 7.3-6.9 16.5-9.5 25.7-12 1.6-0.4 3.6 0.6 5.4 0.6 2.3 0 5.5 0.6 6.7-0.7 2.3-2.4-0.2-4.4-2.1-6.1-0.3-0.3-0.6-0.7-1.3-1.5 5.6-1.9 10.2-0.6 15.1 3.1 1.2-4.4 2.3-8.4 3.8-13.6-6-0.3-11.6-0.6-17.2-0.9l-0.3-1.2c3.5-0.6 6.9-1.5 10.4-1.8 6.5-0.6 12.6-0.1 15.3 7.6 0.3 0.9 3.1 1.9 3.8 1.4 2.8-1.9 4.6-0.8 6.7 1 2.3 1.9 8.2 1.9 9.6-0.6 0.9-1.5 0.2-3.9 0.2-6.8l6.6 3.6c1.2 0.6 2.3 1.7 3.6 1.9 5.9 0.7 7.1-1.1 5.3-7.5 4.4-0.9 7.4 1.2 10.3 4.2 1.4 1.5 3.2 2.7 4.9 4 3.7 2.6 5.4 0.6 6.3-2.9 0.5-1.9 0.4-3.9 0.7-6.8-2.2 1.1-3.5 1.7-5.7 2.8 0.7-2.2 1-3.9 1.9-5.1 1.2-1.6 2.8-2.9 4.3-4.3 1.1 2.1 3 4.2 3 6.3 0 3.2-1.5 6.4-2 9.6-0.2 1.2 0.4 2.5 0.7 3.7 1.1-0.4 2.3-0.7 3.2-1.3 1.8-1.1 3.8-2.2 5.1-3.8 1.2-1.6 1.9-3.8 2.3-5.8 0.2-1.2-0.5-2.6-1-4.7 4.8 0.9 7.9 3.3 10.3 6.6 1.5 2.1 3 5 5.7 3.3 1.7-1.1 2.2-4.2 3.3-6.4 0.1-0.3 0.2-0.6 0.5-1.3 3.9 0.9 5.5 3.9 7 7.2 0.9 2 2.9 3.6 4.5 5.4 0.6-0.4 1.1-0.8 1.7-1.3-0.9-1.4-1.7-3-2.7-4.3-2-2.5-2.7-4.7-0.1-7.5 0.7-0.8 0.5-3.6-0.4-4.6-2.3-2.9-5.3-5.4-7.9-8.1-1-1-1.8-2.3-2.7-3.4 0.4-0.5 0.7-0.9 1.1-1.4 3.2 2.2 6.3 4.6 9.6 6.6 2 1.3 4.2 2.2 6.3 3.1 0 0 1.1-1.6 0.9-1.8-1.5-1.8-3.2-3.4-5.5-4.5-0.1-0.6-0.4-1.2-0.2-1.8 0.5-2 1.1-4.1 1.7-6.1 1.9 0.9 4.1 1.5 5.6 2.9 4 4 5.2-0.6 7.9-3.3 4.1 5.9 7.9 11.3 11.7 16.8 0.3-0.1 0.6-0.3 0.9-0.4v-3.8c0.5 0.2 1.1 0.3 1.2 0.5 1.9 4.5 4.5 8.9 5.5 13.6 1.2 5.3 1.5 10.6 4.1 15.4 0.6 0 1.1-0.1 1.7-0.1 0.3-2.4 0.5-4.9 0.8-7.8 4.2 1.4 6.4 4.5 7.9 8.3 0.9 2.5 1.2 6.1 4.6 5.4 2.5-0.5 4.8-2.9 7-4.7 0.8-0.6 1.1-1.7 1.6-2.6h1.3c0.3 2.9 1.6 6.2 0.8 8.7-1.4 4.3 1.3 6.3 3.5 8.3 0.7 0.6 3.6-0.1 4.7-1.1 1.5-1.4 2.2-3.7 3.5-6 3 3.9 4.1 8 3.4 12.7-0.1 0.9-0.7 1.9-0.6 2.7 0.1 1.3 0.7 2.6 1 3.8 1.2-0.6 2.4-1 3.4-1.7 0.8-0.6 1.3-1.7 2-2.6 3.9 5.4 3.2 9.7-2.5 13.1 1.8 2.8 3.7 5.6 5.5 8.3 0.5-0.1 0.9-0.2 1.4-0.2 1.2-5.2 3.3-10.4 3.5-15.6 0.4-8.4-0.5-16.9-0.8-25.3 0-0.7-0.3-1.8-0.8-2.1-4.7-2.6-3.3-5.7-1.2-9.3 1.2-2.1 1.6-4.6 3.4-6.9 1.6 6.7 3.1 13.4 4.8 20.5 2.2-0.7 4-1.2 6.3-1.8-0.2 1.4-0.1 2.2-0.5 2.5-5 3.9-3 8-0.7 12.3 1.7 3.3 2.8 7 4.7 10.3 3.2 5.7 3.8 11.4 2.3 17.7-0.5 2.2 0.7 4.8 1.1 7.3 0.2 1.4 0.6 2.8 0.6 4.2 0.2 5.7 2.5 8.9 9.4 11.6-5.2-10.2-1.7-19.6 0.2-29.7 1.4 1.7 2.5 3.1 3.7 4.4 0.5-0.1 1-0.2 1.6-0.3 0.3-3.3 0.7-6.6 0.7-9.9 0-3.3-0.3-6.6-0.5-9.9-0.2-2.8 0.4-4.5 3.3-5.8 2.5-1.1 4.3-3.8 6.2-6 1.2-1.3 1.9-3.1 2.8-4.6 0.4 0.1 0.9 0.3 1.3 0.4-0.4 1.4-0.4 3-1.1 4.3-2.8 5.4-3.4 10.8-1.8 16.8 1.7 6.1 0.9 12.1-1.9 18.2-2.4 5.4-2.5 11.8-3.8 17.7-0.6 2.9-1.4 5.9-2.7 8.6-2.1 4.3-2.8 8.1-1 13 3.6 9.4 9.3 18.1 9.8 28.6 0.3 5 4.1 7.7 8.2 10.2 3.4 2.1 6.4 4.8 9.8 6.8 1.5 0.9 3.7 1.8 5.3 1.4 3-0.7 5.7-2.4 9.4-4-1.6 4.5-4.4 6.7-8.4 7.6-7.6 1.8-8.9 4.8-5.2 11.9 0.8 1.5 2 2.9 2.6 4.5 0.5 1.3 1 3.5 0.4 4.1-1 1-3.1 1.6-4.5 1.3-7.7-1.8-15.3-3.9-23.2-6 1.6-5 1.5-8.8-2.7-12.2-2.7-2.2-3.7-6.2-6-8.9-2-2.3-4.8-3.8-7.9-1.3-2.8 2.3-2.3 5.4-0.6 7.6 2.6 3.4 1.7 6.6 1.1 10.2-0.4 2.1 0 5.3 1.3 6.6 2.6 2.4 5.4 6.3 10.2 2.9 2 4.3-1.3 6.6-3.2 9-0.6 0.8-3.3 0.4-4.8-0.1-4.5-1.7-8.9-3.7-13.4-5.5-0.9-0.4-2.4-0.7-2.9-0.3-3.4 3.4-7.1 6.7-9.8 10.7-3 4.4 2.1 3.6 4.4 6-1.8 0.6-3.8 2-5.2 1.5-1.5-0.5-3.5-3.3-3.1-4.3 1.4-3.8 3.2-7.8 5.9-10.8 2.7-3 3.6-4.4-0.4-7-3.8-2.4-5.8-6.4-5.9-12.1 3.1 2.3 5.7 4.2 8.2 6.1-0.3-10.4-12.8-12.9-13.5-23.7 3.1 2.3 5.6 4.1 8.1 5.9 0.5-0.5 0.9-1 1.4-1.5-2.5-2.7-5-5.4-7.5-8-2.7-2.8-5.7-5.3-8.3-8.2-0.9-1-1-2.7-1.9-5.1 2.6 1.4 4.1 2.2 5.6 2.9-2.3-6.5-11.2-10.5-5.6-19.1 2.4 1.1 4.8 2.3 7.3 3.4 0.4-0.4 0.7-0.8 1.1-1.2-4.6-4.2-9.1-8.6-14-12.4-1.5-1.2-4.5-0.7-6.7-0.4-1 0.1-1.8 1.7-2.7 2.7 1.1 0.6 2.1 1.8 3.2 1.9 4.4 0.3 8.7 1.8 11.5 6.1z m46.7 174.7l0.9 0.6c0.9-0.5 1.8-0.9 2.6-1.5 10.9-8.8 23.1-14.4 37-16 5.3-0.6 5.5-1.1 3.8-6.3-3.2-10.1-6.5-20.3-9.7-30.4-1.8-5.6-3.7-11.1-5.5-16.6h-1.3c-9.4 23.4-18.6 46.8-27.8 70.2zM140.3 345c-3.2-2.3-4.9-3.6-6.7-4.9-7.1-5-14.1-4.4-20.4 1.4-4 3.7-8.3 7.2-12.3 10.9-1.7 1.5-3.2 3.2-4.9 4.8 2.2-0.3 4.3-0.5 6.5-0.9 1.9-0.4 4.2-1.2 3.8 2-0.7 5.3 2.9 4.6 5.7 3.9 2.4-0.6 4.6-2.5 6.8-3.9 3.3-2 6.6-4.1 9.8-6.1 3.6-2.2 7.2-4.4 11.7-7.2z m222.2 59.4c0.3-0.9 1.5-2.6 1.2-3.9-1.4-6.9-3-13.7-4.7-20.5-0.2-0.8-1.1-1.6-1.8-2.1-3.9-3.1-7.6-6.7-12-9.1-5.6-3.1-11.4-5.5-12.3-12.9-0.1-0.6-1.6-0.9-2.5-1.4-0.4 0.8-1.1 1.6-1 2.3 0.9 5.6 0.8 11.7 6.7 15.2 3 1.7 5.8 3.7 8.5 5.8 0.9 0.7 2.1 2.4 1.8 3-3 5.9 1.8 8.5 4.8 11.7 3.7 4 7.4 7.9 11.3 11.9zM324.7 334c0.3 5.3 3.7 6.5 7.5 7.2 6.5 1.2 7.4 2.5 8.6 8.6 0.5 2.3 2.2 4.9 4.1 6.3 4.8 3.5 10.5 6.2 10.7 13.7 3.8-2.6 3.7-5.4 2.1-8.1-3.1-5.1-6.2-10.2-9.9-14.8-5.9-7.4-14.6-10-23.1-12.9z m77.8 89.1l0.9-1.5c-3.1-6.6-10-8.7-16-12.5-0.2 3-0.4 6.9 1.3 7.9 4.2 2.8 9.1 4.2 13.8 6.1z m-111-86.1c2.9-5.8 5.8-3 8.9-1.5 1.7 0.8 3.6 1 5.4 1.4 0.3-0.8 0.7-1.6 1-2.4-4.6-2.8-9.2-5.8-14.1-8.3-0.5-0.3-3.5 2.2-3.6 3.5-0.1 2 1.3 4.1 2.4 7.3z m84 109.3c0.3-3.5 0.8-5.6 0.6-7.7-0.1-1.3-1-2.8-2.1-3.6-0.7-0.6-2.2-0.2-3.4-0.2 0.1 2.5-0.3 5.2 0.5 7.5 0.6 1.5 2.8 2.6 4.4 4z m-97.6-151.5c-1.1 2.1-2.2 3.4-2 3.8 1 1.7 2.5 3.2 3.8 4.8 0.9-0.8 2.8-2.1 2.7-2.3-1-1.9-2.4-3.5-4.5-6.3z m147.4 153.5c-1.6 2.4-2.6 4-3.5 5.7-0.1 0.1 1.7 1.5 1.8 1.3 1.3-1.1 2.6-2.3 3.5-3.8 0.2-0.3-0.8-1.5-1.8-3.2zM277.9 379c-0.9-0.3-1.8-0.6-2.6-0.9-0.9 2.4-1.7 4.8-2.6 7.1 0.7 0.3 1.5 0.6 2.2 0.8 1-2.3 2-4.6 3-7z m-30-65.9c-3.2 1-5.2 1.6-7.5 2.4 3.2 3.9 4.3 3.6 7.5-2.4z" p-id="2611"></path><path d="M127.2 415.5c3.6-1.6 7.4-3.1 10.8-5 4-2.1 7.6-2.4 11.5 0.2 2.6 1.7 5.7 2.7 8.3 4.4 2.2 1.4 3.2 3.1 0.5 5.6-2.5 2.2-4.3 5.3-6.2 8.1-0.5 0.7-0.7 1.9-0.4 2.6 1.7 3.8 3.5 7.4 5.7 11.8 1.1-1.1 2.8-2.1 3.4-3.6 7.5-16.3 15-32.6 22-49.2 1.6-3.8 1.2-8.6 1.4-12.9 0.1-3.6 1.4-4.7 4.4-2.8 1.8 1.1 3.4 2.8 4.5 4.6 2 3.5 3.8 7.2 5.4 10.9 0.5 1.3 0.7 3.2 0.2 4.3-3.9 8.3-8 16.6-12.3 24.7-3.4 6.4-7.3 12.6-10.3 19.8 1.1-0.5 2.3-0.9 3.4-1.4 7.6-4 15.3-7.9 22.9-12 10.2-5.6 20.9-1.4 23.9 9.9 0.8 3.1 4.6 5.3 6.8 8 1.3 1.6 2.3 3.4 3.4 5.2-2.2 0.8-4.7 2.7-6.6 2.2-4.2-1-6.8 0.8-9.9 2.8-4.3 2.8-9 4.9-13.3 7.7-1.4 0.9-2 3.1-3.2 4.6-1 1.3-1.9 2.8-3.2 3.6-4.2 2.9-4.5 4.6-1.6 8.6 4.8 6.9 12.9 7.2 19.7 9.8 3.5 1.3 7.3 1.7 10.8 2.9 5 1.7 9.6 3.6 11.4 9.8 1.6 5.4 4.8 10.2 6.7 15.5 0.8 2.3 0 5.2 0 7.8-2.4-0.1-4.8 0-7.1-0.5-8.4-1.6-13.9-8.2-20.8-12.5-2.4-1.5-4.6-3.4-7.1-4.5-9.6-4-15.6-11.1-18.8-20.9-0.3-1.1-1.1-2-2.4-4.2-3.4 6.2-5.9 11.5-8.9 16.5-4.9 8.1-8.2 17.4-16.1 23.3-3.8 2.8-5.9 7.7-11.7 8.1-8.3 0.6-15.8-1.2-22.6-5.9-0.8-0.6-1.8-2.4-1.5-3 0.7-1.4 2-2.9 3.4-3.3 3.7-1.2 7.7-1.5 11.3-2.7 9.3-3.1 14.1-11.4 19.4-18.5 5.6-7.6 9.7-16.4 14.4-24.7 2.9-5 4.3-10.4 1.9-15.6-1.2-2.6-5.1-5.4-7.7-5.4-2.2 0-5.7 3.6-6.4 6.2-1.4 5.2-1.1 10.9-2 16.2-1.2 7.3-2.1 14.9-4.9 21.7-1.3 3.2-6.5 5-10.1 7-6.3 3.4-12.8 6.5-19.3 9.5-5.1 2.4-10.1 4.9-15.4 6.5-2.9 0.9-6.7 0.9-9.4-0.2-7.7-3.4-13.9-8.2-16.7-17.2-2.6-8.4-6.5-16.4-4.7-25.5 1.4-6.9 3.2-13.8 5.4-20.4 1.3-3.9 1.4-7.4 0.6-11.4-0.5-2.4-0.2-6.7 1.2-7.5 2-1.2 5.6-0.5 8.2 0.4 2.7 0.9 5.1 2.9 8.3 4.7 0.4-3.5 0.7-6.5 0.9-8.4-3.1-2.1-6.8-3.3-7.8-5.5-2-4.8-2.8-10.1-3.6-15.3-0.2-1.1 1.3-2.9 2.5-3.6 5.5-3.2 11.4-5.9 16.7-9.3 12.4-7.8 26.3-10.6 40.6-12.3 3.9-0.5 11.9 8.7 10.5 12-0.5 1.2-2.9 2.1-4.6 2.4-6.8 1.1-13.7 1.6-20.4 3-6.8 1.4-11.1 6.8-16.4 10.4 0.2 0.6 0.6 1.3 1 1.9z m-7 81.9c-1.6-2.1-2.7-3.2-3.5-4.5-2.7-4.2-6.1-8.2-7.6-12.7-1.6-4.9-1.2-10.4-1.8-15.6-0.1-1.1-0.9-2.6-1.7-2.9-0.7-0.3-2.2 0.7-3 1.5-0.9 0.8-1.7 2-1.9 3.2-1.3 6.4-2.5 12.8-3.7 19.3-1.1 6.4 3.8 10.2 6.7 14.9 0.3 0.5 1.5 0.7 2.1 0.5 4.6-1.1 9-2.3 14.4-3.7z m11.6-30.4c7 0 14-7 13.3-13.5-0.4-3.8-2.8-6-5.9-4.1-4.4 2.6-8.8 6-11.8 10-3.5 4.5-1.3 7.6 4.4 7.6z m-8.2 9.2c1.5 5.7 2.5 10.3 4 14.8 0.3 0.8 2.5 1.6 3.5 1.3 6.2-2 11.3-5.9 16.1-10.7-8-1.9-15.1-3.5-23.6-5.4z m83.7-31.3c-0.4-0.4-0.8-0.8-1.2-1.3-6-0.5-10.7 2.5-14.9 6.3-0.9 0.8-1.3 3.5-0.7 4.2 1.1 1.2 4.1 2.5 4.7 2 4.3-3.5 8.1-7.4 12.1-11.2z m-85.7 6.4c-0.2-0.6-0.3-1.2-0.5-1.9-2.7-0.4-5.5-1.4-8.1-1.1-2.3 0.3-4.6 1.9-6.7 3.3-0.9 0.6-1.2 2-1.8 3.1 2.6 1.1 5.6 3.6 7.6 3 3.6-1.1 6.4-4.2 9.5-6.4z m36.2 14.2c0.7 0.1 1.5 0.2 2.2 0.3 0.7-2.8 2.8-6.2 1.9-8.2-1.1-2.3-4.8-3.4-7.4-5-0.4 0.4-0.9 0.8-1.3 1.3 1.5 3.8 3.1 7.7 4.6 11.6z m-24.7-33.3l-1.8-2.1c-1.6 1.3-3.1 2.5-4.7 3.8l2.1 2.4c1.4-1.4 2.9-2.8 4.4-4.1z" p-id="2612"></path><path d="M287.7 528.7c7.7-2.2 13.9-3.4 19.7 0.9 0.4-0.8 0.6-1.2 0.7-1.6 0.8-2.2 1.5-4.4 2.3-6.6 2.3 1 5 1.6 6.7 3.2 7.1 6.5 9.9 18.4 6.3 25.2-1.8 3.4-4.5 3.8-6.9 0.9-2.4-2.9-4.7-5.8-6.9-8.8-1.6-2.1-15.1-3.6-16.9-1.7-2.5 2.6-0.6 3.8 1.7 5.3 5.3 3.3 10.5 6.7 15.5 10.5 3.1 2.4 4 5.4 2.2 9.5-2.5 5.8-4.2 12-6 18.1-0.8 2.8 0.3 4.1 3.4 3.6 3.6-0.5 7.2-1.3 10.7-1 4.1 0.3 8.2 1.3 12.1 2.5 1.2 0.4 2.6 2.6 2.4 3.7-0.2 1.2-2.1 2.9-3.4 3-3.7 0.3-7.5-0.3-11.2-0.1-5.1 0.3-10.2 1-16 1.5 2.6 4.5 4.8 7.7 6.4 11.2 0.6 1.4 0.4 4.4-0.5 5-4.1 2.5-4.3 6.6-4.1 10.4 0.3 6.8 1.6 13.6 1.9 20.5 0.2 5.1-0.7 10.1-1.2 15.2-0.1 1.7-0.2 3.4-0.4 5.1-0.5 3.1-2.1 5.3-5.4 5.5-13.7 0.9-26.3-1.2-38.1-9.8-8.4-6.1-12.5-14.3-16.7-22.7-1.6-3.1-0.3-7.6-0.3-10.5-3.6 0.9-7.7 2.1-12 2.8-2.7 0.4-7.7-4.3-7.5-7.7 0.1-1.9 2.4-3.9 4.1-5.3 2.5-2.1 5.3-3.8 8.5-6.1-0.1 1.5-0.2 2.6-0.3 4.2 3.7-1.7 7.1-3.2 10.3-5 0.7-0.4 1.2-2.4 0.9-3.3-2.2-5.3-4.8-10.5-7-15.9-0.4-1.1 0.1-2.8 0.6-4.1 3.8-9.3 8.4-18.4 8.1-28.9 0-0.6-0.4-1.1-0.7-2.3-5.6 3.1-10.6 6-12.8 12.4-0.6 1.8-2.2 3.6-3.8 4.5-4.2 2.5-9 3.9-12.8 6.8-2.8 2.1-5.7 5.6-6.2 8.8-1.1 7.1-0.7 14.4-0.9 21.6 0 0.6 0.5 1.3 1.2 2.8 3.6-6.3 6.9-11.9 10.1-17.5 0.4 0.1 0.8 0.1 1.2 0.2-1.6 5.9-2.7 12-4.7 17.8-4.7 13.2-9.8 26.3-5.6 40.8 0.4 1.4-0.4 3.1-0.6 4.7-1.6-0.4-3.5-0.4-4.7-1.3-3.2-2.5-7.5-4.9-8.7-8.3-1.6-4.3-0.7-9.6-0.6-14.4 0-2.3 1-4.5 1-6.8 0-7.3-0.3-14.6-0.4-22-0.1-4.3 0-8.6 0-14-4.9 1.2-8.6 1.8-12.1 2.9-7.6 2.5-8.7 2.1-10.9-5.6-2.4-8.5 0.2-14.5 8.2-18.5 0.6 1.4 1.1 2.7 1.8 4.4 4.3-1.9 8.6-3.5 12.5-5.6 1.2-0.7 2.2-2.6 2.4-4.1 1.5-10.6 2.9-21.1 4.2-31.7 0.3-2.9-0.2-6 0.3-8.9 0.4-2.1 1.9-4 2.9-6 1.4 1 3.1 1.8 4.2 3.1 3.5 4.1 6.8 8.4 10.3 12.6 1.9 2.3 1.9 4.2-0.5 6-5.4 4-3.3 9.9-4 15.1 0 0.3 2.6 1.6 3.6 1.3 3-1.1 5.3-1.1 7.4 1.8 1.5 2.1 2.9 2 4.8-0.2 4.5-4.9 9.6-9.4 14.2-14.3 1.1-1.1 1.6-2.9 2.1-4.5 2.1-7 4-14 6-21l1.5 0.3c-1.5 7.1-3 14.3-4.7 22.5 6.3-3.3 11.4-5.8 16.4-8.6 0.8-0.4 1.3-1.8 1.5-2.8 0.6-4.2 1.1-8.4 1.5-12.6 0.7-7.8 0-8.7-7.6-9.3 1.8-3.4 5.2-4.9 8.1-2.7 4.8 3.5 9.3 7.4 13.6 11.5 2.6 2.4 3.3 5.3-0.5 7.8-0.7 0.7-0.9 2.4-1.9 4.6z m-23.5 83.8c0.2 0.6 0.3 1.1 0.5 1.7 1.1 0.2 2.1 0.3 3.2 0.4 11.5 1.5 15.8 5.3 17.6 16.2 0.3 1.9-0.8 4.8-2.3 6-1.2 0.9-4.5 0.6-5.9-0.4-4.6-3.4-8.6-7.5-13-11.3-1.2-1.1-3.5-2.7-4.2-2.3-2.4 1.5-5.6 3.5-6.1 5.9-1.7 7.8 4.3 17.4 12.1 20.4 3.3 1.3 7 1.7 10.2 3 8.5 3.4 16-0.8 16.9-9.8 0.7-7 1.1-14.1 1.2-21.1 0-5.6-0.5-11.2-1.1-16.8-0.3-2.9-2.2-4.2-5-2.9-8.2 3.6-16.2 7.4-24.1 11z m-4.1-22.8c-0.6 0.1-1.1 0.3-1.7 0.4-0.3 4-0.9 7.9-0.9 11.9 0 0.7 2.9 2.3 3.2 2 1.9-1.6 6.8-1 5.4-5-1.1-3.4-3.9-6.2-6-9.3z m36-29.7c0.2-2.1 0.6-3.8 0.3-5.4-0.2-1-1.8-2.4-2.6-2.3-2.4 0.3-4.9 1-7.1 2.1-0.9 0.5-1.8 2.3-1.6 3.3 0.2 0.9 1.8 2 2.9 2.2 2.4 0.3 4.9 0.1 8.1 0.1z m-3.7 15.7l-1.4-1.4c-2.1 1-4.6 1.6-6.3 3.1-0.9 0.8-0.6 3-0.8 4.5 1.4 0 3.3 0.6 4-0.1 1.8-1.7 3-4 4.5-6.1z m-25.8 3c-0.6 0.8-1.1 1.6-1.7 2.5 1.6 1.4 3.1 2.8 4.7 4.2 0.8-1.3 1.6-2.6 2.3-4-1.7-0.9-3.5-1.8-5.3-2.7z m1.3-25c3-1.4 5.1-3 4.3-6.4-0.1-0.5-1.7-1.1-2.2-0.9-3.1 1.5-3.2 4-2.1 7.3zM774.8 573.5c1.7 0.9 2.6 1.5 3.6 1.8 11 4 17.4 11.7 19.2 23.4 2.8 17.4-5.2 33.5-20.8 39.6-4.7 1.8-10 2.7-15.1 2.8-13.2 0.3-26.3 0-39.5-0.2-1.3 0-2.5-1.5-3.8-2.4 0.8-1.1 1.6-3 2.5-3.1 5.6-0.5 7.6-4.6 8.1-9 1.2-10.6 2.2-21.2 2.5-31.8 0.5-19.4 0.5-38.9 0.7-58.4 0-3.3-0.4-6.6-0.8-9.8-0.4-3.6-2.5-5.8-5.8-7.4-1.3-0.6-2.1-2.5-3.1-3.8 1.4-0.6 2.9-1.6 4.3-1.7 10.4-0.2 20.7-0.1 31.1-0.3 15.6-0.3 26.4 5.5 30.8 16.8 5.5 13.9 2.1 28.6-8.9 38.7-1.4 1.6-2.9 2.9-5 4.8zM744.5 604v13.7c0 13 0.6 13.7 13.8 14.3 2.2 0.1 4.4 0 6.6-0.3 7.5-0.8 13-4.9 16.1-11.6 4.1-9.1 4.2-18.6 0.7-28-2-5.5-5.9-9.7-11.5-10.9-7-1.5-14.2-1.7-21.3-2.4-3.2-0.3-4.4 1.1-4.3 4.4 0.1 7-0.1 13.9-0.1 20.8z m0.6-57h-0.5c0 6.4 0.1 12.9 0 19.3-0.1 3.1 0.9 4.8 4.2 4.6 5.3-0.3 10.6-0.3 15.9-0.8 1.6-0.1 3.3-1.1 4.5-2.2 8.7-8.4 11-24.8 5.1-35.4-5.5-9.9-14.4-10.8-24.4-9.6-3.5 0.4-5 1.7-4.9 5.3 0.2 6.3 0.1 12.6 0.1 18.8zM852.9 640.9h-31.5c-1.3 0-2.7 0.4-3.7 0-1.2-0.5-2-1.9-2.9-2.8 1-0.9 2-2.6 3-2.6 5.1 0 7.6-2.9 8.5-7.2 1.3-6.6 2.8-13.3 2.9-20 0.5-25.6 0.5-51.2 0.6-76.8 0-2.2-0.3-4.4-0.9-6.5-1-3.4-3.4-5.4-7.1-6.1-1.1-0.2-1.9-2-2.8-3.1 1.2-0.7 2.4-2.1 3.5-2 8.5 0.1 17 0.7 25.4 0.6 12.2 0 24.5-0.3 36.7-0.8 3.7-0.1 5 0.9 5 4.7-0.1 6.3 0.5 12.5 0.5 18.8 0 1.5-1.4 3-2.1 4.5-0.9-1.2-2.2-2.4-2.5-3.7-2.2-9.7-4.4-12.4-14.1-13.6-8.2-1-16.6-0.8-24.9-0.8-1 0-2.9 1.9-2.9 3-0.3 12.2-0.5 24.5-0.4 36.7 0 1.2 1.3 3.3 2.2 3.5 8.3 1.3 16.7 2.5 25.1 3.2 4.9 0.4 8.2-2.5 9.5-7.4 0.3-1 1.6-1.8 2.5-2.7 0.6 1.1 1.8 2.2 1.8 3.3-0.3 8.6-0.7 17.3-1.2 25.9-0.1 2.7-1.4 4.3-4.5 4.2-3.3-0.1-3.2-2.2-3.1-4.5 0.1-6.1-1.7-8.6-7.7-9-7.2-0.5-14.4-0.4-21.6-0.3-1.1 0-3 2-3 3-0.1 14.8-0.1 29.5 0.2 44.3 0 1.2 2.1 3.5 3.2 3.5 10.3 0 20.7 0.3 30.9-0.8 8.1-0.9 11-8 13.7-14.7 0.7-1.7 0.3-4.7 3.6-3.6 3.2 1 2.4 3.2 1.8 5.7-1.7 6.4-3.5 12.8-4.4 19.3-0.6 4.5-2.6 5.1-6.5 5-11.2-0.5-22-0.3-32.8-0.2-0.1-0.1-0.1-0.1 0 0zM997.7 513.3c0.6 8.4 1.3 17.1 1.8 25.8 0 0.7-1 2.1-1.7 2.2-0.8 0.1-2.1-0.7-2.5-1.4-0.7-1.4-0.8-3-1.1-4.5-1.5-7.3-5.6-11.4-13-12.2-4.7-0.5-9.4-0.3-14.1-0.5-2.8-0.1-3.9 1.3-3.9 4l0.6 96.1c0.1 6.3 1.8 11.5 9.4 12.5 0.8 0.1 1.5 1.6 2.3 2.4-1 0.8-1.9 2.3-2.9 2.3-11.4 0.2-22.9 0.2-34.4 0.1-0.9 0-1.8-1.6-2.7-2.4 0.8-0.8 1.4-2.1 2.4-2.3 9.3-2.6 10.3-3.6 10.3-13.1-0.2-31.7-0.5-63.4-0.7-95.1 0-3.3-1.2-4.6-4.4-4.4-3.1 0.2-6.3 0-9.4 0.2-9.3 0.6-12.9 3.9-15.5 12.9-0.7 2.3 0.3 7-3.6 6.4-4-0.6-1.6-4.7-1.5-7.2 0.5-7.4 1.5-14.9 2.2-21.9 27.5 2.1 54.7 1.7 82.4 0.1zM657.4 641c-10 0-20.1 0.1-30.1-0.1-1.7 0-3.3-1-4.9-1.5 1.2-1.1 2.2-2.7 3.7-3.3 4.7-2.2 6-6.5 6.4-10.8 0.9-9.2 1.6-18.5 1.5-27.7-0.2-23.4-0.8-46.7-1.2-70.1-0.1-4.9-2-8-7.2-8.7-1.1-0.2-2-1.8-3-2.7 1.3-0.6 2.5-1.7 3.8-1.7 8.1-0.1 16.3 0.1 24.4 0.3 1.1 0 2.9 0.5 3.1 1.2 0.3 1-0.4 2.4-0.8 3.7-0.9 2.9-2.8 5.7-2.8 8.6-0.5 33.3-0.7 66.5-1.1 99.8 0 3.3 1.3 4.7 4.4 4.6 8.8-0.4 17.6-0.4 26.3-1.3 6.6-0.7 10.1-5.6 12.8-11.3 0.7-1.4 2.7-2.2 4.1-3.3 0.4 1.8 1.4 3.7 1 5.3-1.2 5.3-3.1 10.5-4.5 15.8-0.7 2.6-2 3.4-4.7 3.4-10.5-0.3-20.9-0.2-31.2-0.2zM559.7 641c-9.9 0-19.8 0.1-29.6-0.1-1.4 0-2.7-0.9-4.1-1.3 0.8-1.3 1.8-2.6 2.5-4 1.9-3.5 5-6.9 5.3-10.5 1.1-15 1.8-30.1 1.8-45.1 0-17.6-0.9-35.1-1.3-52.7-0.1-4.2-1.4-7.3-5.9-8.4-0.9-0.2-1.5-1.9-2.3-2.9 1.1-0.6 2.2-1.6 3.4-1.6 9.6-0.1 19.1-0.1 28.7 0.1 1.2 0 2.4 1.3 3.5 2-1 0.7-1.9 1.9-3.1 2.2-6.4 1.4-7.5 2-7.6 8.6-0.5 20.4-0.9 40.8-1.1 61.2-0.2 13-0.1 26.1-0.3 39.1-0.1 3.7 1.3 5.2 4.8 5.1 8.8-0.4 17.6-0.4 26.3-1.1 6.6-0.5 10.5-5 13.1-10.8 0.9-2 1.3-5.4 4.5-3.7 1 0.6 1 4.1 0.6 6-0.9 4.6-2.5 9-3.6 13.6-0.8 3.2-2.2 4.6-5.8 4.5-10-0.4-19.9-0.2-29.8-0.2zM583.3 662.4c55.3 27.5 114.4 37.4 175.3 37.8 61.1 0.4 120.1-9.5 175.2-37.8 0.2 0.5 0.5 1 0.7 1.5-5.5 3.4-10.9 7-16.5 10.1-25 13.7-51.8 22.1-79.7 27.6-32.4 6.4-65.1 8.6-97.9 6.9-42.7-2.2-84.5-9.5-124-26.7-10-4.4-19.5-10-29.2-15.2-1.6-0.8-2.9-2.1-4.4-3.1 0.1-0.3 0.3-0.7 0.5-1.1zM449.6 438.7c-1.3-6.8 3.6-12.8 9.7-12.3 3 0.2 5.9 0.5 8.9 0.4 7.9-0.3 12.6 4.3 16.5 10.6-12.2-10.5-24.2-17.5-35.1 1.3zM114.2 714.5c-2-1.3-3.9-2.6-5.9-3.8 2.2-0.8 4.3-1.6 6.5-2.3 0.4-0.1 1-0.2 1.4 0l5.1 3c-1.7 0.7-3.4 1.5-5.1 2.2-0.4 0.2-0.9 0-1.4 0-0.2 0.2-0.4 0.6-0.6 0.9zM189 291.6c-0.2 3.6-0.4 7.3-0.5 10.9-0.7 0.1-1.3 0.2-2 0.3-0.5-2.5-1.6-5-1.4-7.4 0.1-1.6 2-3.1 3-4.6 0.3 0.2 0.6 0.5 0.9 0.8zM201.3 292.8c-0.9-1.6-2.4-3.2-2.6-4.9-0.1-0.7 2.4-1.7 3.7-2.6 0.4 2.2 0.7 4.4 1.1 6.6-0.7 0.3-1.5 0.6-2.2 0.9zM256.2 298c-1.7-2.7-3.3-5.4-5-8.2 0.5-0.3 1.1-0.6 1.6-1 1.8 2.6 5.6 4.1 5 8.2-0.6 0.4-1.1 0.7-1.6 1zM192.1 290.9c1.7 0.9 3.3 1.7 4.9 2.6 0.1 0.1-0.4 1.2-0.7 1.9l-5.4-2.1c0.4-0.7 0.8-1.5 1.2-2.4z" p-id="2613"></path></svg>