<?xml version="1.0" standalone="no"?><!DOCTYPE svg PUBLIC "-//W3C//DTD SVG 1.1//EN" "http://www.w3.org/Graphics/SVG/1.1/DTD/svg11.dtd"><svg t="1575011380481" class="icon" viewBox="0 0 1024 1024" version="1.1" xmlns="http://www.w3.org/2000/svg" p-id="3928" xmlns:xlink="http://www.w3.org/1999/xlink" width="200" height="200"><defs><style type="text/css"></style></defs><path d="M952.8 346h35.4c0.5 0.2 0.9 0.4 1.4 0.5 2.9 1 4.9 2.8 6 5.6 0.3 0.7 0.5 1.4 0.8 2.1v3.1c-0.9 1.7-1.4 3.7-2.7 5.2-10.5 12.5-21.1 24.9-31.6 37.3-1.5 1.8-3.5 3.2-5.9 3.3-3.4 0.2-6.8 0.2-10.2 0.2-18.2 0.1-36.5 0.2-54.7 0.2-0.9 0-1.4 0.2-1.8 1.2-0.6 1.9-1.4 3.7-2.1 5.5-25.6 70.6-51.1 141.2-76.7 211.8-2 5.4-3.9 10.8-6.4 15.9-2.6 5.4-6.6 9.5-12.8 10.9H23.8c-0.4 0-0.8-0.2-1.3-0.3 0.4-0.5 0.8-0.9 1.1-1.4 16.9-24.6 33.7-49.3 50.7-73.9 6-8.7 14.4-13.2 25-13.2h26.2c-0.4-0.5-0.7-0.7-1.1-0.9-5.6-2.8-10.8-6.3-15.4-10.7-15.4-14.7-22.4-33-22.8-54.1-0.2-11.1 1.6-21.9 4.7-32.5 9.6-33.9 28.4-61.6 56-83.4 22.4-17.7 47.5-29 76.3-30.8 13.8-0.9 27.5 0.1 40.8 4.4 13.3 4.3 24.5 11.7 33.1 22.8 10.6 13.6 15.1 29.3 15.3 46.4v7.9c0.2-0.5 0.4-1 0.6-1.4 6.1-16.7 12.1-33.3 18.3-50 0.5-1.3 0.3-2-0.8-2.8-4.4-3.3-9.4-5.6-14.7-7.1-3.3-0.9-5.4-3-6.4-6.2-2.7-8.5 3.1-14.9 10.3-14.5 4.3 0.3 8.7 0 13 0 19.6-0.1 39.2-0.1 58.8-0.2 41.6-0.2 83.3-0.3 124.9-0.5 6.1 0 12 0.9 17.7 3.1 7.3 2.8 13.6 6.9 17.1 14.3 0 0.1 0.2 0.1 0.3 0.2 0.1-0.1 0.3-0.2 0.4-0.3 7.2-6.1 15.5-10.5 24.2-14 3.2-1.3 6.4-2.5 10.1-2.5 21.8 0 43.7-0.1 65.5-0.2l157.4-0.6c44.3-0.2 88.5-0.3 132.8-0.4 3.9 0.2 7.4 0.1 10.9 0z m-633.3 12.2v0.3c2.6 0.9 5.2 1.8 7.7 2.9 4.7 1.9 9.2 4.1 13 7.5 3.6 3.2 4.6 6.6 3.2 10.4-2.4 6.5-4.9 13-7.3 19.5-7.8 20.6-15.7 41.2-23.5 61.8-2 5.1-3.9 10.3-5.9 15.4-3 7.8-5.9 15.7-8.9 23.5-4.2 11.1-8.4 22.2-12.9 33.2-3.4 8.3-8.5 15.5-16.2 20.5-1.3 0.8-2.6 1.7-3.8 2.6 0 0.1 0 0.2 0.1 0.4h15.1c34.2-0.1 68.4-0.2 102.5-0.2 17.3 0 34.6-0.1 51.9 0 11.4 0 22-2.9 32-8.4 6.6-3.7 11.9-8.7 14.7-16 1.1-2.8 2.3-5.6 3.5-8.5 4.5-10.9 9.1-21.8 13.5-32.8 2.3-5.9 5-11.6 6.1-17.9 0.7-4.4-0.5-8.3-3.8-11.3s-7.5-4.3-11.8-5.2c-1.7-0.3-3.3-0.6-5.3-1 2.7-0.5 5.2-0.8 7.6-1.3 6-1.4 11.6-3.8 16.9-6.9 6.5-3.9 11.4-9.1 14.3-16.3 3.2-8.2 6.9-16.3 10.2-24.5 3.5-8.6 7-17.3 10.1-26.1 2.8-8 0.5-13.5-6.9-17.7-5.4-3.1-11.3-4.5-17.5-4.5-22.3 0-44.6 0.1-66.9 0.2-24 0.1-48 0.2-72 0.2-18.4 0.1-36.9 0.1-55.3 0.1-1.5 0.1-3 0.1-4.4 0.1z m395.4 77.1c-44.5 0.1-88.6 0.3-132.8 0.4 0.2-0.5 0.2-0.8 0.3-1 5.1-12.9 10.3-25.8 15.4-38.8 0.3-0.8 0.7-1 1.5-1 13.2-0.1 26.3-0.2 39.5-0.2l105.4-0.3c1 0 1.6-0.3 2.2-1 9.6-11.4 19.3-22.7 28.9-34 0.7-0.8 1.4-1.7 2.2-2.7-0.8 0-1.2-0.1-1.6-0.1-3.6 0-7.3 0.1-10.9 0.1l-87.3 0.3-92.1 0.3c-0.6 0-1.1 0.1-1.6 0.2-7.7 2.8-15 6.2-21.7 10.9-5.1 3.6-9.4 7.9-11.7 13.9-4.6 11.7-9.4 23.3-14.1 35-11.9 29.5-23.8 59-35.8 88.5-1.4 3.6-3 7.1-4.5 10.6-4.3 10.7-8.7 21.4-13 32.1-0.9 2.3-1.7 4.6-2.7 7h19.1l76.9-0.3 90.2-0.3c10.8 0 21.7 0 32.5-0.1 1.3 0 2.5 0 3.4-1.2 1.5-1.9 3.2-3.7 4.7-5.6 7.7-9.1 15.3-18.2 23-27.3 1-1.2 2-2.4 3.2-4-61.8 0.2-123.2 0.5-184.6 0.7 0.1-0.4 0.1-0.7 0.2-0.9l5.7-14.1c2.3-5.6 4.5-11.3 6.8-16.9 1.5-3.8 3.1-7.6 4.6-11.4 0.3-0.7 0.7-0.9 1.3-0.9 2.3 0 4.5-0.1 6.8-0.1l80.6-0.3c8.9 0 17.7-0.1 26.6-0.1 0.5 0 1.2-0.2 1.6-0.6 3.8-4.4 7.6-8.9 11.4-13.4 4.6-5.4 9.2-10.8 13.8-16.3 2.3-2 4.3-4.4 6.6-7.1z m-571.8 36.9h1.2l57-0.3 90.1-0.3c1 0 1.5-0.2 1.8-1.2 1.1-3.6 2.4-7.1 3.5-10.7 3.6-11.6 6-23.4 6.1-35.7 0.1-12.4-2.1-24.2-8.2-35.2-5.5-9.9-13.2-17.5-23.2-22.9-10.2-5.5-21.2-7.5-32.5-8.3-9.7-0.7-19.3 0-28.8 1.6-11.6 2-22.5 6-32.9 11.4-10.1 5.2-19.4 11.6-28.1 18.9-9.6 8.1-18.2 17.1-25.6 27.2-8 11-14.4 22.9-19.1 35.7-5 13.6-8.4 27.5-8.2 42.2 0.2 15.7 4.9 29.8 14.9 42 5.9 7.2 13.3 12.3 21.7 15.8 10.2 4.3 20.9 5.9 31.9 6.2 5.5 0.1 11-0.2 16.5-0.4 8-0.4 15.9-1.9 23.5-4.3 15.6-4.9 30.2-12 43.9-21 14.4-9.5 26.7-21.3 38.5-33.7 0.5-0.6 0.7-1.4 1.2-2.4h-1.8c-6.4 0.1-12.8 0.2-19.2 0.2-11 0.1-22.1 0.1-33.1 0.2-0.9 0-1.9 0.3-2.6 0.8-9.3 6.9-19.3 12.4-30.6 15.4-11.4 3.1-22.9 3.8-34.5 0.8-7.1-1.8-13.1-5.4-17.6-11.3-6.9-9.1-7.5-19.6-5.8-30.7z m420.3 35.7h7.7l161.9-0.6c4.4 0 7.7 1.8 9.5 5.8 1.8 4 1 7.6-1.8 10.9-8.6 10.1-17.1 20.1-25.6 30.2-0.3 0.3-0.5 0.6-0.7 1h38.3c0-2.4 0.6-4.5 2-6.3 0.8-1 1.6-2.1 2.2-3.3 2.8-5.6 5.8-11.1 8.2-16.9 16.8-41.2 33.5-82.4 50.2-123.6 0.1-0.3 0.2-0.7 0.3-1.1H814l-62.4 0.3-91.9 0.3c-17.7 0.1-35.5 0.1-53.2 0.1-1.3 0-1.9 0.4-2.3 1.6-2.4 6.1-4.8 12.2-7.2 18.2-0.2 0.4-0.3 0.8-0.5 1.5h2.1c38.5-0.1 77-0.3 115.6-0.4 4.3 0 7.6 1.8 9.4 5.7 1.8 3.9 1.1 7.6-1.7 10.9-10.4 12.3-20.9 24.6-31.3 36.9-2.3 2.7-5.1 3.9-8.5 3.9-18.6 0-37.2 0.1-55.9 0.2-17.2 0.1-34.3 0.1-51.5 0.1-1.1 0-1.6 0.3-1.9 1.3-2 5-4.1 10-6.1 15.1-1 2.6-2.1 5.3-3.3 8.2z m200 46.8h6.3c15.3-0.1 30.5-0.1 45.8-0.1 1.6 0 2.5-0.5 3.1-1.8 1.9-4 4-7.9 5.6-11.9 4-10 7.8-20.1 11.7-30.2 2.4-6.2 5-12.3 7.5-18.4 2.3-5.6 4.4-11.3 6.7-16.9 2.5-6.1 5-12.2 7.5-18.2 8.5-20.7 17-41.3 25.5-62 0.4-1 0.9-1.2 1.9-1.2 22-0.1 43.9-0.2 65.9-0.2 2.7 0 4.8-0.4 6.2-2.9 0.2-0.4 0.6-0.7 0.9-1.1 7.2-8.5 14.5-17 21.7-25.5 2.3-2.7 4.5-5.3 7-8.3H984l-69 0.3c-24 0.1-48.1 0.2-72.1 0.2-17.8 0.1-35.6 0.1-53.5 0.1-2 0-3.2 0.7-4.5 2.1-8.3 9.9-16.7 19.8-25.1 29.6-1.7 2-3.3 3.9-5.1 6h75.7c-0.2 0.4-0.3 0.8-0.4 1.1l-24 59.4c-4.1 10.1-8.3 20.3-12.4 30.4-1.8 4.4-3.5 8.7-5.2 13.1-2.5 6.2-5.1 12.4-7.6 18.6-2.9 7-5.6 14-8.7 20.8-2.8 5.7-5.8 11.2-8.7 17z m-469.7-73.3c-47.3 0.2-94.3 0.3-141.5 0.5v1.6c0.4 11.4 6.8 19.4 18 21.9 10.1 2.2 20 1.4 29.9-1.6 9.5-2.9 18.1-7.6 26-13.6 2.4-1.8 4.9-2.7 7.9-2.6 2.2 0.1 4.4 0 6.6 0l50.2-0.3c0.3 0 0.8-0.2 0.9-0.4 0.7-1.9 1.3-3.6 2-5.5z m431.6 139.8v-1.5c0-4.9 0-9.8 0.1-14.7 0.1-4.1 2-6.4 6-7.5 0.9-0.2 1.7-0.5 2.6-0.5 4.6-0.2 7.7 1.2 7.6 6.8-0.1 5.3 0 10.6 0 15.8v1.5h6.7v-1.6-15c0-3.4 1.5-5.6 4.7-6.8 1.3-0.5 2.7-0.8 4-0.8 5.5 0 7.5 1.8 7.4 7-0.1 5.2 0 10.5 0 15.7v1.5h6.5v-19.9c0-3.3-1.6-5.9-4.7-7.1-6.2-2.3-12.2-1.9-17.7 2.1-0.5 0.3-0.9 0.8-1.4 1.1-2.8-4-6.8-4.5-11.1-4.5s-8.1 1.2-11.6 4.2v-3.6h-5.8V621c2.3 0.2 4.4 0.2 6.7 0.2z m-439-3c1.5 0.9 2.8 1.9 4.3 2.5 5.9 2.1 11.6 1.4 17-1.9 7.5-4.6 8.1-16.3 1.6-21.9-4.2-3.7-9.4-4.3-14.7-3.8-2.8 0.3-5.3 1.5-7.7 3.4v-13.4h-6.6v38h6.1v-2.9z m-7.3-97c-18 17.1-38.9 29.7-62.3 38.9h37.7c0-0.4 0.1-0.6 0.1-0.8v-1.7c-0.4-4.9 1.5-8.5 5.9-10.8 4-2.1 7.6-4.9 10.3-8.6 3.8-5.2 6.2-11.1 8.3-17z m-47.9 87.4c0.8-4.4-1.1-9.3-4.8-11.9-6.8-4.7-14.2-4.8-21.7-2.1-6.1 2.2-9.3 7.3-9.1 13.4 0.3 6.5 3.7 10.7 10.2 12.8 3.8 1.2 7.6 1.3 11.5 1 3.4-0.3 6.7-1.1 9.5-3.2 1.9-1.4 3.4-3.1 4.3-5.6-1.3-0.1-2.4 0-3.4-0.3-2.2-0.5-3.5 0-5.1 1.9-4.1 4.7-14.1 4.2-18-0.6-1.2-1.5-1.9-3.3-2-5.4h28.6z m164.4 0c0.1-0.3 0.1-0.5 0.2-0.6v-0.8c-0.1-5.7-2.7-9.8-7.9-12.2-6.2-2.8-12.6-2.8-18.9-0.3-6 2.4-9.2 7.3-8.9 13.4 0.3 6.3 3.6 10.7 9.8 12.7 5.7 1.8 11.5 1.8 17.2 0 3.8-1.2 6.8-3.5 8.4-7.6-1.3-0.1-2.4 0-3.5-0.3-2.2-0.5-3.5 0.1-5.1 1.9-4.1 4.7-14.1 4.2-18-0.7-1.2-1.5-1.9-3.3-1.9-5.4 9.6-0.1 19.1-0.1 28.6-0.1z m256.8-15.7c-1.5 0.1-3 0.2-4.5 0.4-3.6 0.6-7 1.8-9.8 4.3-7 6.5-4.5 18.8 4.6 22.5 5.7 2.3 11.5 2.4 17.4 0.6 6-1.8 9.9-5.5 10.3-12.2 0.3-4.8-1-8.9-5.1-11.9-3.8-2.8-8.2-3.7-12.9-3.7zM583.8 611c-0.4 1-0.7 2-1.2 2.8-1.6 2.6-4.2 3.4-7 3.9-6.7 1-11.6-2.5-12.2-9.2-0.5-5.6 1.4-9.3 6.6-10.9 1.2-0.4 2.6-0.6 3.9-0.6 3.9 0 7.3 0.9 9.1 4.8 0.1 0.2 0.6 0.5 0.9 0.5 1.9-0.1 3.8-0.3 5.7-0.5-0.9-3.3-2.9-5.7-6.2-7.1-5.7-2.4-11.6-2.3-17.4-0.5-6.1 1.9-9.4 6.5-9.5 12.7-0.1 6.7 2.9 11.2 9.1 13.6 3.7 1.4 7.4 1.6 11.3 1.2 3.4-0.3 6.5-1.3 9.2-3.5 2.1-1.7 3.5-3.8 4.1-6.7-2.2-0.1-4.2-0.3-6.4-0.5z m-125-17.5h-6.5v-9.7c-2 0.8-3.7 1.7-5.5 2.3-1 0.4-1.3 0.9-1.2 1.9 0.1 1.8 0 3.6 0 5.5h-4.7v3.7h4.7v1.8c0.1 5.7 0.1 11.5 0.2 17.2 0 2.6 1.4 4.2 3.7 4.9 3.3 1.1 6.7 0.8 10.3 0.3-0.3-1.5-0.6-2.8-1-4.1h-3.3c-2.4-0.1-3.2-0.9-3.2-3.3v-15.5c0-0.4 0.1-0.7 0.1-1.2h6.3c0.1-1.4 0.1-2.5 0.1-3.8z m51.8 27.7v-5h-7.3v5h7.3z" p-id="3929"></path><path d="M286.2 607.5c-0.3 7.7 5 10.3 10.1 10.3 6.3 0.1 10.6-4.3 10.5-10.5-0.1-6.3-4.1-10.5-10.3-10.3-5.3 0.1-10.6 3.3-10.3 10.5zM224.2 604.5c-0.2-2.5-1.3-4.3-3.3-5.6-4.3-2.8-11.1-2.5-15.2 0.6-1.6 1.3-2.6 2.9-2.8 5h21.3zM388.5 604.6c-0.2-2.5-1.3-4.4-3.3-5.7-4.3-2.8-11.1-2.5-15.2 0.6-1.7 1.3-2.6 2.9-2.8 5.1h21.3zM663.6 607.4c0.1-4.9-2.2-8.2-6.8-9.7-3.1-1-6.3-1-9.4 0.1-3.3 1.2-5.6 3.5-6.2 7-0.2 1.2-0.2 2.4-0.1 3.7 0.1 3.6 1.8 6.3 5 7.9 1.5 0.7 3.2 1.1 4.8 1.4 7.1 1 12.5-3.5 12.7-10.4z" p-id="3930"></path><path d="M450.4 473.6c-1.2 3.1-2.2 5.9-3.3 8.6-2.2 5.5-4.5 11-6.7 16.5-2.5 6.1-5 12.3-7.4 18.4-0.3 0.8-0.9 1-1.6 1-3.3 0-6.6 0.1-9.9 0.1-21.4 0.1-42.9 0.1-64.3 0.1h-17c1.1-2.6 2.1-5.3 3.2-7.9 4-10 8.1-20 12.1-30 0.7-1.8 1.4-3.7 2.2-5.4 0.2-0.4 0.8-0.9 1.3-0.9 4.1-0.1 8.3-0.2 12.4-0.2l72.5-0.3h6.5z m-95.7 34.7c0.5 0 0.8 0.1 1.1 0.1 23.1-0.1 46.1-0.2 69.2-0.2 0.9 0 1.2-0.4 1.5-1.1 3-7.6 6.1-15.2 9.1-22.8 0.1-0.3 0.2-0.7 0.3-1.1h-4.8c-21.6 0.1-43.3 0.1-64.9 0.2-1.1 0-1.6 0.4-2 1.4-2.8 7-5.6 14.1-8.5 21.1-0.4 0.7-0.7 1.5-1 2.4zM373.7 436.1c0.8-2.1 1.6-4.2 2.4-6.2 4.3-10.8 8.6-21.5 12.8-32.3 0.5-1.3 1.1-1.9 2.6-1.9 8.5 0 17.1-0.1 25.6-0.1 15.5 0 30.9 0 46.4-0.1 5.7 0 11.5-0.1 17.2-0.2h1.8c-5.6 13.7-11.2 27.2-16.8 40.8h-92z m14.4-10.5c0.7 0 1.2 0.1 1.7 0.1 3 0 6 0 9.1-0.1 19.6-0.1 39.2-0.1 58.8-0.1 1.1 0 1.6-0.3 2.1-1.4 2.4-6.1 4.9-12.1 7.4-18.2 0.2-0.5 0.4-0.9 0.6-1.6h-1.9c-14.3 0.1-28.6 0.1-42.9 0.2-8.5 0-17 0-25.5 0.1-0.7 0-1.2 0-1.5 0.8-2.5 6.7-5.2 13.3-7.9 20.2zM258 433.7c-33.5 0.2-67 0.3-100.4 0.5 0-0.1-0.1-0.3 0-0.4 6.2-8 12.6-15.8 20.9-21.7 12.9-9.2 27.3-14.2 43.3-13.9 7.9 0.1 15.5 1.8 22.2 6.4 8.8 6 13.3 14.5 14 25 0.1 1.4 0 2.7 0 4.1z m-10.9-9.5c-0.4-2.4-2.2-5.5-4.3-7.8-5.2-5.7-11.9-8-19.3-8.3-15.2-0.8-28.6 4.1-40.6 13.2-1.2 0.9-2.2 1.9-3.5 3 22.7-0.1 45.1-0.1 67.7-0.1zM286.2 607.5c-0.3-7.2 5-10.4 10.3-10.5 6.2-0.1 10.3 4 10.3 10.3 0.1 6.3-4.2 10.6-10.5 10.5-5.1 0-10.4-2.6-10.1-10.3zM224.2 604.5h-21.3c0.2-2.1 1.1-3.8 2.8-5 4.1-3.1 10.9-3.4 15.2-0.6 2 1.3 3.1 3.1 3.3 5.6zM388.5 604.6h-21.3c0.2-2.2 1.2-3.8 2.8-5.1 4.1-3.1 10.9-3.3 15.2-0.6 2.1 1.3 3.2 3.2 3.3 5.7zM663.6 607.4c-0.1 6.9-5.6 11.4-12.6 10.3-1.6-0.3-3.3-0.6-4.8-1.4-3.3-1.5-4.9-4.3-5-7.9 0-1.2-0.1-2.5 0.1-3.7 0.6-3.6 2.8-5.9 6.2-7 3.1-1.1 6.3-1.2 9.4-0.1 4.4 1.6 6.8 4.9 6.7 9.8z" p-id="3931"></path></svg>