<?xml version="1.0" standalone="no"?><!DOCTYPE svg PUBLIC "-//W3C//DTD SVG 1.1//EN" "http://www.w3.org/Graphics/SVG/1.1/DTD/svg11.dtd"><svg t="1575007583255" class="icon" viewBox="0 0 1024 1024" version="1.1" xmlns="http://www.w3.org/2000/svg" p-id="2666" xmlns:xlink="http://www.w3.org/1999/xlink" width="200" height="200"><defs><style type="text/css"></style></defs><path d="M18 601.5c6.1-12.6 11.5-25.7 18.6-37.7 8.4-14.2 17-28.6 27.9-40.8 19.6-21.9 46.3-31.6 74.5-36.9 28.2-5.2 56.7-4.6 87.3-2.3-3.2 14.5-4.9 28.8-9.5 42.1-27.7 81.1-114.4 117.5-191.9 81.2-2.2-1-4.5-1.6-6.8-2.4-0.1-1-0.1-2.1-0.1-3.2zM870.3 657c-4.3-2.1-8.9-3.7-12.9-6.3-12.3-8.2-11.3-20.8 1.9-27.2 2.6-1.3 5.4-2.2 8.2-3.2-23.6-10.7-18.7-27.4-0.3-35.7-15.8-14.1-19.2-27.6-9.5-40.7 9.6-13 23.5-15.8 38.6-13.6 5.8 0.9 11.4 3 16.3 4.3 9-4.7 17.4-9.6 26.3-13.4 3-1.3 8.3-1.3 10.6 0.5 3 2.5 5.7 7.4 5.6 11.2 0 2.8-4.5 7.6-7.3 7.8-3.8 0.3-7.9-2.8-11.6-4.9-1.1-0.6-1.4-2.8-2.7-5.5-5.6 3.1-10.8 6-15.4 8.6 2.3 6.7 5.4 12.1 6 17.7 1.6 16.4-11.2 29.7-30.2 31.9-7.5 0.9-15.2 0.8-22.8 1.3-5.2 0.3-9.9 2.7-8.6 8.3 0.7 3 5.5 6.9 8.7 7.2 11.9 1 23.8 0.2 35.7 0.9 15.5 0.9 22.8 6.5 24.8 17.6 2 10.9-4.5 21.9-16.8 27.9-4.3 2.1-9 3.6-13.5 5.3h-31.1z m21.3-39c-6.9 2.1-16.1 3.6-24 7.7-7.9 4.1-7.9 13.8-1.3 19.1 10.9 8.8 40.1 7.4 50-2.4 7.2-7.2 5.7-16.6-4-20.1-5.7-2.2-12.1-2.6-20.7-4.3z m15.9-59.6c0.2-14.3-7.2-23.7-18.9-23.9-12.5-0.2-20 9.9-19.2 25.8 0.8 14.8 9.1 23.3 21.5 21.8 9.9-1.1 16.4-10.4 16.6-23.7zM997.6 469.2h-38.3c-0.5-0.6-1.1-1.2-1.6-1.7 1.6-1.8 2.9-4.7 4.8-5.2 5.5-1.3 7.7-4.2 7.6-9.7-0.2-14.1 0-28.3-0.4-42.4-0.3-10.6-5.7-17.5-14.1-19.7-9.8-2.5-19.4 1-24.5 10.1-2.8 5.1-4.8 11.1-5.3 16.8-0.8 11.6-0.3 23.4-0.4 35.1 0 4.9 1.5 8.2 6.9 9.4 2.2 0.5 3.8 3.3 5.7 5.1-0.5 0.6-1.1 1.3-1.6 1.9h-40.2c2.7-3.1 3.9-5.9 5.8-6.4 5.2-1.6 7.6-4.2 7.5-9.9-0.2-17.4 0-34.8-0.1-52.2-0.1-9.2-2.5-11.6-11.8-13.2-1.6-0.3-2.9-2.1-4.4-3.1 1.5-1.1 2.9-3 4.4-3.1 8.1-0.9 16.2-1.3 24.9-1.9 1.1 6 2.1 11.4 3.3 18 8.2-10.4 17.3-17.3 29.9-17.9 16.1-0.8 27.2 7.3 28.6 23.5 1.4 15.7 0.7 31.5 1 47.2 0.2 10.1 1.8 11.4 12.2 11.1 0.1 2.8 0.1 5.5 0.1 8.2z" p-id="2667"></path><path d="M583.5 619c-19 0-38 0.7-56.9-0.4-5.3-0.3-10.3-6-16.4-9.7-8.7 9.9-21.4 15-37 12.5-8.9-1.4-16.4-4.8-19.2-14-2.9-9.6 0.4-17.7 8-24 12.2-10.1 27.1-13.2 42.2-16 2.4-0.4 4.7-0.8 7.7-1.3 0.6-9.8 2.3-19.5-6.8-26.2-8-5.8-16.9-5-25.6-1.4-4.9 2-7.5 5.2-3.4 10.6 3.3 4.3 4.1 10-0.6 13-3.2 2.1-9.7 2.8-12.3 0.9-3-2.2-5.5-8.5-4.6-12.1 3.3-13.8 14.8-18.6 27.3-20.7 5.6-0.9 11.4-0.8 17.1-0.2 16.2 1.6 24.7 11.2 24.7 27.5 0 14.1-0.4 28.3 0.2 42.4 0.2 4.1 2.4 10.9 5 11.6 5.5 1.6 12.1 0.4 18-0.6 1.3-0.2 2.7-4.5 2.7-6.9 0.2-18.5 0.1-37 0.1-55.5 0-5.6-2-9.2-7.8-10.7-1.9-0.5-3.2-2.9-4.8-4.5 0.5-0.7 1-1.3 1.4-2 7.8-0.6 15.6-1.1 24-1.8 1.1 5.7 2.1 10.9 3.4 17.3 8.2-9.4 16.5-16.9 29-17.1 13.2-0.3 20.6 6.8 25 19.5 1.9-2.4 3.1-4.3 4.7-5.7 3.8-3.5 7.4-7.4 11.7-10 16.9-9.8 34.9-1.8 38.7 17.2 1.4 6.9 1.2 14 1.4 21.1 0.2 9.8 0 19.6 0.1 29.4 0 2.2-0.5 4.8 0.5 6.4 5.7 9.7 15.2 3.8 23 4.9 4.9 0.7 7.4-2.9 7.5-7.7 0.1-18.8 0.2-37.5-0.1-56.3-0.1-6.4-4.3-9.4-10.4-10.5-2-0.4-3.5-2.9-5.3-4.4 0.5-0.8 1-1.5 1.5-2.3h30.1v13.5c0 19-0.1 38.1 0 57.1 0.1 9.3 1.7 10.7 11.1 10.8 19.9 0.1 19.9 0.1 19.9-20.1 0-13.6-0.1-27.2 0-40.8 0.1-7.7-3-12.4-11.1-13.2-1.6-0.2-3.1-2-4.6-3 1.5-1.1 3-3 4.6-3.2 7.8-0.8 15.7-1.1 24.5-1.6 1 5.8 1.9 11.2 2.9 17.1 4.5-4 8.2-8.3 12.8-11.3 10.5-6.8 22-8.4 33.3-2.7 10.7 5.4 13.4 15.8 13.5 26.9 0.1 13.1 0 26.1 0 39.2 0.1 10.7 1.1 11.8 11.6 13.7 2.2 7.8-3.8 5.9-7.5 5.9-30.4 0.3-30.4 0.2-30.3-5.9 11.2-2.5 11.4-2.5 11.2-14.7-0.2-13.8-0.3-27.7-1.1-41.5-0.4-7.6-4.6-13.7-12.1-15.8-8.3-2.3-17.2-1.8-22.3 5.7-4.4 6.4-7.6 14.4-8.6 22.1-1.4 11-0.3 22.3-0.4 33.4 0 5.6 1.6 9.4 8.1 10 1.6 0.1 3 3 4.6 4.6-0.5 0.7-1.1 1.3-1.6 2h-19.5l-109.3 0.3c-3.7 0-8.3 0.8-6.4-6.2 2.2-0.3 4.5-0.5 6.8-0.8 5.1-0.6 7.8-3.3 7.8-8.6-0.1-15 0.3-29.9-0.2-44.9-0.4-10.9-5.4-16.9-13.9-18.4-9.4-1.7-17.7 2.4-21.7 11.9-2.3 5.6-3.6 11.9-4 18-0.7 8.9-0.2 17.9-0.2 26.9 0 13.3 0 13.3 15.7 15.4-2.3 2.7-3.8 5.8-5.4 5.9-12.2 0.4-24.5 0.3-36.7 0.1-1.5 0-2.9-2.2-4.3-3.3 1.4-1.2 2.8-3.4 4.3-3.4 8.1-0.3 10.6-4.4 10.3-12.2-0.5-12.8 0-25.6-0.2-38.3-0.2-12.6-4.9-19.5-13.8-21-10.1-1.7-18.7 3-22.4 14.5-2.4 7.6-2.6 15.9-3.1 24-0.5 7.6 0.2 15.2-0.2 22.8-0.4 6.9 2.6 10.3 9.2 10.4 4.6 0 6.9 1.2 4.9 6.4zM511 571.1c-10.8 3.6-20.7 5.9-29.7 10-10.1 4.6-13.9 18.6-8.6 27.1 4.9 7.9 17.9 9.2 26.6 1 5.2-4.9 8.9-12.1 11.3-19 1.8-5 0.4-11.1 0.4-19.1zM378.2 468.9H267.9c-1.7-4.4-0.9-6.7 4.3-6.5 8.1 0.3 10.5-3.8 10.5-11.7-0.4-31.8-0.3-63.6 0-95.4 0.1-7.5-2.2-11.3-10.2-11.1-1.8 0-3.6-2-5.4-3.1 1.6-1.3 3.2-3.6 4.8-3.7 33.2-0.1 66.3 0 99.5 0.1 0.5 0 1 0.4 2.2 1 0.8 10.9 1.6 22.1 2.5 33.4l-2.1 1.8c-1.7-1.6-4-3-4.8-5-1.2-2.7-1.2-5.8-1.9-8.7-2.3-8.9-7.9-14.4-17.2-14.9-13.3-0.7-26.6-0.8-39.9-0.4-2.3 0.1-6.2 3.9-6.3 6.1-0.6 15.2-0.3 30.4-0.3 45.4 20.4 4.6 31.8-4.6 33.4-22 0.2-1.9 3.1-3.5 4.7-5.3l2.1 1.5c0 19.6 0.1 39.1-0.1 58.7 0 1.6-1.8 3.2-2.8 4.8-1.4-1.6-3.8-3.2-3.9-4.8-1.2-19.1-12-27.5-33.2-24.2 0 17.1-0.2 34.4 0.3 51.6 0.1 1.8 4.4 4.9 6.8 5 11.7 0.3 23.4 0.5 35-0.8 15.1-1.6 22.8-10.8 27-29.4 1.4-6.5 1.4-6.5 7.9-6.1-0.9 14.3-1.7 28.6-2.6 43.7zM418.4 497.8c2.4-4.3 4.2-8 6.5-11.3 0.9-1.2 3.3-2.2 4.8-2 1.2 0.2 2.8 2.4 2.9 3.8 1.2 16.8 2.1 33.5 3.1 50.3-0.7 0.5-1.4 1.1-2.1 1.6-1.9-1.9-4.2-3.6-5.5-5.8-6-10.5-10.2-22.6-18-31.4-16.4-18.6-44.6-14.5-57.4 6.9-9.4 15.6-10.7 33.1-9 50.5 1.1 11.9 3.7 24.3 8.7 35.1 8.4 18.1 31.1 24.4 48.9 15.3 10.4-5.3 15.3-14.2 16.4-25.5 0.2-1.9 0.3-3.8 0.3-5.7-0.3-13.5 3.6-18.4-16.6-17.8-1.9 0.1-3.9-2.2-5.9-3.3 1.8-1 3.6-2.9 5.4-2.9 16.3-0.2 32.5-0.1 48.8-0.1 0.4 0.8 0.9 1.7 1.3 2.5-1.7 1.3-3.4 3.8-5.1 3.8-7.9 0.3-9.9 4.5-9.8 11.8 0.4 16 0.1 32 0.1 48.1-8.2 2.1-7.1-4.4-8.5-8-1.6-4.2-2.7-8.7-4-13-0.9 0.1-1.7 0-1.9 0.3-21.8 26.3-56.7 27.3-81.6 1.8-18.7-19.1-25.7-42.4-18.2-68.2 7.4-25.7 24-43.6 50.9-49.8 11-2.6 21.6-1.1 31.6 4.4 4.5 2.6 8.7 5.4 13.9 8.6zM808.6 469.2c-12.5 0-25 0.2-37.4-0.2-1.8-0.1-3.5-2.9-6.5-5.6 15.4-2 15.8-2.5 15.8-15.1 0-15 0.1-29.9 0-44.9-0.1-10-2.7-13.1-12.3-13.4-13.5-0.4-27.1-0.1-41.8-0.1v57.8c0 6.4 2.6 11.3 9 12.9 6.3 1.6 11.5-1.1 14.4-6.7 2.2-4.3 2.9-9.2 4.7-13.7 0.8-1.9 2.7-3.4 5.3-6.7 2.8 22.4-9.5 36.9-27.8 36.1-13.4-0.6-21.2-8.1-21.5-21.6-0.4-16.3-0.1-32.6-0.2-49v-9.2c-5.1-0.2-9.4-0.4-15.3-0.7 1.1-2.5 1.5-5.9 2.8-6.3 16-4.7 19.2-17.7 21.1-31.7 0.6-4.3 1.2-7.7 7.4-5v34.2H796V403c0 16.6 0.1 33.2-0.1 49.8-0.1 6 2.2 9 8.3 9.7 2.1 0.2 4.1 2.4 6.1 3.7-0.5 1.1-1.1 2-1.7 3zM685.5 379.4v69.7c0 10.7 1 11.7 11.9 13.5 1.6 0.3 2.9 2.1 4.4 3.2-1.5 1.1-3 3-4.5 3.1-8.1 0.3-16.3 0.1-25 0.1-0.7-4.6-1.5-9.3-2.4-15.2-4.1 3.5-7.4 6.5-10.9 9.2-9.9 7.8-20.8 10.6-32.7 5.5-11.4-4.9-15.4-14.7-15.7-26.4-0.3-12.2-0.5-24.4-0.5-36.7-0.1-14.4-0.6-15.1-14.7-17.1-1.9-4.2-0.8-6.5 4.1-6.7 1.1 0 2.2-0.2 3.2-0.3 7.3-0.6 14.6-1.1 23.1-1.8v22.8c0 12-0.1 23.9 0 35.9 0.1 10.7 4.8 18.2 12.7 20.7 8.8 2.8 19.6 0.3 24.7-8 3.8-6.2 5.9-13.8 7-21.1 1.2-8 0.3-16.3 0.3-24.4 0-15.1-0.6-15.8-17.5-19.1 2.6-2.5 4.1-5.1 5.8-5.3 8.3-0.9 16.9-1.1 26.7-1.6zM468.4 426.9c-0.1-17.3 5.1-31.1 18.2-41.1 17.6-13.5 43.2-8.7 56.6 10.4 12.5 17.7 11.2 48.2-3.5 62.9-12 12-26.8 16.8-43.3 11-17.1-6-25.3-19.6-27.7-37-0.3-2.5-0.3-5-0.3-6.2z m66.9-2.1c-1.5-8-2.2-16.2-4.6-23.8-3-9.8-11.4-15.5-20.6-15.7-9.1-0.2-16.7 4.7-20.4 14.7-6.2 16.6-6.2 33.5 0 50.2 3.7 10 11.1 14.7 20.4 14.6 10.3-0.1 17.1-5.9 20.2-15 2.6-7.9 3.3-16.4 5-25zM895 423.8c-0.1 33.3-23.7 53.9-52 47.2-18.9-4.5-33.1-25-30.9-47 1-9.4 3.7-19.5 8.4-27.5 9.4-15.8 26.4-21.4 43.8-16.8 15.9 4.2 28.5 19.8 30.3 37.7 0.4 2.6 0.4 5.4 0.4 6.4z m-67.2 1.1c2.1 9 3.4 18.4 6.7 27.2 3 8.1 9.8 12.7 19.1 12.6 9.6-0.1 16.4-4.9 19.7-13.3 6.6-17 7.1-34.5 0.7-51.7-3.3-8.9-10.1-14-19.9-14.3-9.9-0.3-16.9 4.9-20.2 13.6-2.9 8-4 16.7-6.1 25.9z" p-id="2668"></path><path d="M373.2 381.3h45.5l1.5 1.8c-1.7 1.5-3.2 3.9-5.1 4.4-9.1 2-10.5 3.8-6.9 12 7.1 16.1 14.4 32.1 22.2 49.4 7.4-17.4 14.4-33.5 21.1-49.9 2.6-6.4-2.2-8.4-7.1-10.5-2.4-1-4.2-3.4-6.3-5.1 0.5-0.7 1-1.3 1.4-2h37.4c-2.4 3.1-3.6 5.1-5.1 6.7-3.7 4-9 7.2-11.1 11.9-10 21.7-19.2 43.7-28.8 65.6-1 2.2-3.1 4-4.7 6-1.9-2-4.5-3.6-5.6-6-10.1-21.9-20.2-43.9-29.8-66-3.1-7.2-7.1-11.9-15.5-12-1.7 0-3.4-2.7-5.1-4.1 0.6-0.8 1.3-1.5 2-2.2zM550.6 467c1.8-1.5 3.4-4.2 5.3-4.4 7.1-0.9 9.4-4.6 9.3-11.6-0.3-31-0.1-61.9-0.1-92.9 0-10.8-1.8-12.5-12.5-13.9-2.2-0.3-4.3-2.5-6.4-3.8 2.3-1.2 4.5-3.1 6.9-3.4 8.9-0.9 17.8-1.2 27.9-1.8v9.2c0 35.6 0.2 71.2-0.1 106.8-0.1 7 1.8 10.7 9.1 11.3 1.7 0.2 3.2 2.8 4.8 4.4-0.5 0.6-1 1.2-1.4 1.8h-41.3c-0.5-0.5-1-1.1-1.5-1.7zM716.9 489.8c6.7 0.7 10.5 4 10.4 10.5-0.1 6.5-3.7 10.2-10.2 10.1-6.3-0.1-10.3-3.7-10.2-10.2 0.1-6.4 4.2-9.6 10-10.4zM784.3 339.4c7 0.5 11.3 3.5 11.4 10 0.1 6.2-3.3 10.4-9.9 10.5-6.2 0.1-10.4-2.9-10.6-9.7 0-6.5 4-9.5 9.1-10.8zM18 350.1s176.3-78.4 207.3 122.4c0 0-169.7 29.4-207.3-122.4zM212.1 581.9c8.2 0 14.9 6.5 14.9 14.7 0 8.1-6.6 14.7-14.8 14.7-8.2 0-14.8-6.6-14.8-14.8 0-8 6.6-14.6 14.7-14.6z m13 14.8c0-7.3-5.6-12.9-12.9-12.9-7.1 0-12.9 5.8-12.9 12.9 0 6.9 6 12.8 12.9 12.7 7.1 0.1 12.9-5.6 12.9-12.7z" p-id="2669"></path><path d="M209.4 604.7h-3.1v-16.6h1.7c2.3 0 4.5 0.1 6.8 0.2 0.6 0 1.2 0.2 1.8 0.4 1.9 0.6 2.9 1.9 3 3.7 0.1 2.2-0.8 3.6-2.8 4.4-0.3 0.1-0.6 0.2-1 0.4 1.2 2.5 2.4 4.9 3.7 7.6-1.2 0-2.2 0.1-3.1 0-0.3 0-0.6-0.4-0.7-0.7-0.9-1.7-1.7-3.4-2.5-5.2-0.4-1-1-1.3-2-1.2-0.5 0.1-1.1 0-1.7 0-0.1 2.3-0.1 4.6-0.1 7z m0-9c1.7-0.1 3.4-0.2 5-0.4 1.1-0.2 1.8-1 1.8-2.2 0.1-1.3-0.4-2.3-1.5-2.7-1.8-0.7-3.6-0.4-5.4-0.4 0.1 2 0.1 3.7 0.1 5.7z" p-id="2670"></path></svg>