<?xml version="1.0" standalone="no"?><!DOCTYPE svg PUBLIC "-//W3C//DTD SVG 1.1//EN" "http://www.w3.org/Graphics/SVG/1.1/DTD/svg11.dtd"><svg t="1575453218874" class="icon" viewBox="0 0 1024 1024" version="1.1" xmlns="http://www.w3.org/2000/svg" p-id="958" xmlns:xlink="http://www.w3.org/1999/xlink" width="200" height="200"><defs><style type="text/css"></style></defs><path d="M215.7 499.8c-0.2 54-43.8 97.5-97.8 97.4-54.3-0.1-97.8-43.9-97.6-98.3 0.2-53.4 44.2-96.9 97.8-96.7 54.2 0 97.8 43.7 97.6 97.6zM78.2 463.7c0 0.6-0.1 1-0.1 1.4v107.1c0 1.5 0.6 2.1 1.8 2.7 17 8.4 34.8 11.1 53.4 7.7 45.8-8.5 75.6-51.3 68-97.3-7.4-44.8-50.4-75.9-95.6-69.2-37.9 5.7-67.4 35.9-71.5 73.7-3.2 29.2 6.7 53.7 28.4 73.4 0.7 0.7 1.5 1.3 2.7 2.2V449.7c0.6-0.1 1.1-0.1 1.5-0.1 23.7 0 47.4-0.3 71.1 0.1 16 0.3 29 7.2 38 20.7 6.8 10.1 8 21.4 6.2 33.1-2.1 14.1-9.1 24.8-22.5 30.7-7 3.1-14.4 3.9-21.9 4-11.7 0.1-23.3 0-35 0-0.8 0-1.6-0.1-2.4-0.1v-51.2c0.8 0 1.4-0.1 2.1-0.1h33.9c4.4 0 7.3 2.7 7.4 6.7 0 4.1-2.9 6.8-7.5 6.8h-22.5v24.3H138c18.1 0.1 31-12.6 30.9-30.6-0.1-12.4-4.8-22.4-16.8-27.4-4.1-1.7-8.8-2.8-13.3-2.8-20-0.3-39.9-0.2-59.9-0.2 0 0-0.2 0-0.7 0.1zM463.8 452.1v69.6h-15.6V415.6c5.1 0 10.2-0.1 15.3 0.1 0.6 0 1.3 1 1.6 1.8 7.4 16 14.7 32 22 48 2.4 5.3 4.8 10.6 7.4 16.1 0.5-1 0.8-1.7 1.2-2.4l29.1-61.5c0.7-1.6 1.5-2.2 3.3-2.1 4.5 0.1 9.1 0 13.7 0v106.1h-16.4v-69.6c-0.1 0-0.3-0.1-0.4-0.1-0.4 0.7-0.8 1.3-1.1 2-7.5 15.4-15 30.8-22.5 46.3-0.8 1.7-1.7 2.5-3.7 2.4-2.2-0.2-4.5-0.2-6.7 0-2.1 0.2-3.1-0.5-4-2.5-7.2-15.5-14.5-30.9-21.8-46.4-0.3-0.6-0.6-1.3-1-1.9-0.1 0-0.2 0.1-0.4 0.2zM315.8 478.1h-22.7v-13.5h38.8v8.7c0 7.2 0.2 14.3-1.5 21.4-3.4 14.3-15.9 25.4-30.8 27.6-15 2.2-27.4-2.3-37-14.2-4.8-6.1-7.2-13.2-7.3-20.8-0.3-13-0.3-26.1 0.4-39.2 1.2-21.4 19.5-32.5 34.9-33.3 12-0.6 22.9 2.3 31.4 11.3 5.4 5.8 8.4 12.8 9.8 20.5 0.1 0.3 0 0.6 0 1.1-5.1 0-10.1 0.1-15.1-0.1-0.5 0-1.3-1.1-1.5-1.8-2.2-7.2-6.1-12.8-13.5-15.3-11.9-4.1-28.1 0.8-29.9 19.3-1.2 12.8-1.6 25.6-0.1 38.5 0.5 4.4 1.8 8.4 4.6 12 5.7 7.3 13.2 9.4 22 7.3 8.9-2.1 14.6-7.7 16.4-16.7 0.8-4.1 0.7-8.4 1.1-12.8zM637.6 415.7V430h-51.7v30.9h43.5v14.5h-44.1v31.8h51.3v14.4H570v-106c22.4 0.1 44.9 0.1 67.6 0.1zM431.7 521.7h-17.2c-2.1-6.3-4.3-12.7-6.3-19.1-0.5-1.6-1.1-2.2-2.9-2.2-12.6 0.1-25.1 0.1-37.7 0-1.6 0-2.4 0.5-2.9 2-2 5.9-4.2 11.8-6.2 17.7-0.4 1.3-1 1.7-2.4 1.7-5-0.1-10 0-15.4 0 0.3-0.8 0.5-1.5 0.7-2.1 12.9-34.1 25.9-68.1 38.8-102.2 0.5-1.4 1.1-2 2.7-1.9 3.1 0.1 6.1 0.2 9.2 0 1.6-0.1 2.1 0.6 2.6 2l33.6 94.8c1.2 3 2.2 6.1 3.4 9.3z m-61.2-35.1h32.6c-5.1-15.6-10.2-31-15.5-47-5.8 16-11.4 31.4-17.1 47zM675.3 521.7h-15.2v-106c0.6 0 1.2-0.1 1.8-0.1h39c5 0 9.8 0.9 14.4 2.8 12.5 5.2 20 18 18.6 31.7-1.9 18.1-14.5 29.6-33.2 30-7.5 0.2-15.1 0-22.7 0.1h-2.7v41.5z m0.6-91.4v35h22.9c1.6 0 3.3-0.2 4.9-0.5 8.8-1.6 14.2-8.5 14-17.8-0.2-9.2-5.9-16-14.9-16.6-8.8-0.5-17.7-0.1-26.9-0.1zM937.1 521.7H831.8c11.4-22.9 22.8-45.7 34.3-68.8 1.1 2.1 2.1 3.9 3 5.7 1.5 2.8 2.9 5.7 4.5 8.5 0.7 1.2 0.6 2.1 0 3.3-5.8 11.5-11.5 23-17.2 34.4-0.4 0.7-0.7 1.4-1.1 2.4h58.2c-0.4-0.9-0.8-1.8-1.2-2.6-11.6-23.6-23.2-47.1-34.8-70.7-0.7-1.5-0.9-2.6 0-4.1 2.4-4.5 4.6-9.2 7.2-14.3 17.7 35.6 35 70.8 52.4 106.2zM1001 415.6c-0.6 1.2-1 2.1-1.4 2.9-10 19.2-20.1 38.5-30.1 57.7-0.7 1.3-1 2.8-1 4.2-0.1 12.8 0 25.7 0 38.5v2.7h-16.2v-2.7c0-12.7 0.1-25.4-0.1-38.1 0-1.8-0.5-3.9-1.3-5.5-9.5-19.3-19-38.5-28.6-57.7-0.3-0.6-0.5-1.2-1-2.2h10.9c2.2 0 4.9-0.6 6.6 0.4 1.5 0.9 2 3.7 2.9 5.6l17.7 38.1c0.3 0.7 0.7 1.3 1.2 2.3 0.6-1.1 1-1.9 1.4-2.7 6.9-14 13.7-28 20.5-42 0.7-1.3 1.4-1.8 2.9-1.8 5 0.3 10.1 0.3 15.6 0.3zM754 415.7h16v91.6h50v14.4h-66v-106zM318.3 584.2h-6v-39.5c1.6 0 3.1-0.2 4.6 0.1 0.7 0.1 1.4 1 1.9 1.6 5.2 7.8 10.3 15.6 15.4 23.4 0.4 0.7 0.9 1.3 1.7 2.3v-27.2h6V584c-4.4 1-5.2 0.7-7.6-3-5.2-7.9-10.3-15.7-16-23.5v26.7zM544.9 567.6v16.5h-6v-38.9c6.4 0 12.7-0.4 19 0.1 5 0.5 8.1 4.8 8.6 10.1 0.5 4.8-1.9 8.8-6.5 10.9-0.3 0.2-0.7 0.3-1.3 0.6 2.9 5.7 5.9 11.3 9 17.4-2.3 0-4.3 0.1-6.2-0.1-0.6-0.1-1.2-0.9-1.6-1.6-2.3-4.4-4.5-8.9-6.7-13.4-0.6-1.3-1.4-1.7-2.8-1.7-1.8 0.2-3.6 0.1-5.5 0.1z m0-5.1c3.3 0 6.4 0.1 9.4 0 3.8-0.2 5.9-2.5 6-5.9 0.1-3.5-1.9-6-5.5-6.3-3.2-0.3-6.5-0.1-9.9-0.1v12.3zM972 561.7h16.2v5.2h-16.1v11.8h19v5.3H966v-39.2h25.1v5.2h-19c-0.1 4-0.1 7.7-0.1 11.7zM464.8 544.8h25v5.2h-19v11.6H487v5.4h-16.2v11.8h19v5.3h-25v-39.3zM644.7 584.3c-1.8 0-3.5 0.1-5.2 0-0.4 0-0.9-0.6-1.3-0.9-0.1-0.1-0.2-0.4-0.2-0.6-0.7-2-0.9-4.8-2.4-5.8-1.6-1.1-4.3-0.4-6.5-0.4-2.4 0-4.8 0.1-7.2 0-1.2 0-2 0.3-2.2 1.6-0.1 0.6-0.4 1.1-0.6 1.7-1.8 5.2-1.8 5.2-7.7 4.4 0.1-0.5 0.1-1 0.3-1.4 4.4-12.1 8.9-24.2 13.3-36.3 0.5-1.3 1.1-1.8 2.4-1.6 1.2 0.2 2.8-0.8 3.5 1.3 4.5 12.4 9.1 24.8 13.6 37.1 0.2 0 0.1 0.3 0.2 0.9z m-10.6-13.2c-1.9-5.7-3.8-11.2-5.9-17.3-2.2 6.1-4.1 11.6-6.1 17.3h12zM717.2 556.6c-1.5 0-3.2 0.1-4.8-0.1-0.6-0.1-1.2-0.9-1.5-1.6-1.8-3.9-4.8-5.6-9-5-3.2 0.5-5.8 2.5-6 5.7-0.4 5.8-0.4 11.6 0 17.4 0.2 3.4 3 5.6 6.3 6 3.5 0.5 6.9-0.8 8.1-3.9 1.1-2.9 2.9-3 5.3-2.8 0.6 0.1 1.2 0.1 1.8 0.1-0.2 6.2-5.8 11.5-12.4 12-7.5 0.6-15.3-4-15.5-13-0.1-5.2-0.2-10.5 0.2-15.6 0.6-6.8 6.7-11.6 13.9-11.6 7.2 0.1 12.9 4.9 13.8 11.6 0 0.3-0.1 0.4-0.2 0.8zM889.1 544.9c0.2-0.1 0.3-0.2 0.4-0.2 5.5-0.4 5.5-0.4 7.1 4.8 2.2 7 4.4 13.9 6.6 20.9 0.2 0.8 0.5 1.5 1 2.8 2.3-7.2 4.4-14 6.6-20.7 0.7-2.1 1.4-4.2 2-6.4 0.3-1.1 0.9-1.6 2-1.5 1.5 0.1 3 0 4.6 0-0.1 0.7-0.2 1.2-0.3 1.6l-12 36.3c-0.4 1.3-1.2 1.8-2.4 1.6-1.2-0.2-2.7 0.7-3.3-1.3-4-12.5-8.2-24.9-12.2-37.4-0.1 0-0.1-0.3-0.1-0.5zM406.4 584.2h-6.1v-34h-10.8v-5.3H417v5.1h-10.6v34.2zM761.7 544.8h27.5v5.2h-10.7v34.2h-6v-34h-10.8v-5.4zM261 584.2h-5.7v-39.3h5.7v39.3zM842.7 584.2H837v-39.3h5.7v39.3z" p-id="959"></path></svg>