<?xml version="1.0" standalone="no"?><!DOCTYPE svg PUBLIC "-//W3C//DTD SVG 1.1//EN" "http://www.w3.org/Graphics/SVG/1.1/DTD/svg11.dtd"><svg t="1575013735183" class="icon" viewBox="0 0 1024 1024" version="1.1" xmlns="http://www.w3.org/2000/svg" p-id="9572" xmlns:xlink="http://www.w3.org/1999/xlink" width="200" height="200"><defs><style type="text/css"></style></defs><path d="M342.7 318c11 5.8 14.3 15.4 14.2 27.3-0.2 40.6-0.2 81.2 0.1 121.7 0 4.5 1.2 9.4 3.4 13.3 41 74 5.7 178.3-91 193.5-1.1 0.2-2.1 0.9-3.1 1.4h-28.4c-1.4-0.5-2.7-1.3-4.1-1.5-93.8-14.3-132.3-115.8-92.1-191.6 2.8-5.2 4.4-11.6 4.4-17.5 0.4-38.4 0.3-76.9 0.2-115.4 0-12.5 1.1-24.2 13.4-31.3 60.9 0.1 121.9 0.1 183 0.1z m-91.2 315.1c45 2.3 91-36.3 90.8-90.3-0.1-50.7-39.8-90.4-90.9-90.4-51.2-0.1-90.4 39.2-90.4 90.5 0.1 51.2 39.2 90.2 90.5 90.2zM21 483.3h18.9v57h59.8V484h18.4v142.8h-18v-60.9H40.2v61.3H21V483.3z" p-id="9573"></path><path d="M504.3 567.6h-47.4v-23.5h66.2c8.9 48.7-20.6 79.5-58.9 84.6-40.2 5.4-76-21-82-58.9-6.9-43.6 17.5-79.9 59.6-87.3 24.7-4.4 46.9 2 65.6 19.5 5.4 5 2.3 10.2 0.2 14.8-1.6 3.5-5.4 6.1-8.3 9.2-7.2-4.9-13.7-10.1-20.8-14-33.8-18.5-77.8 7-77.1 44.5 0.4 21.6 18 42.4 40 47.5 23.6 5.4 48-4.6 58.2-23.9 1.6-3.5 2.6-7.2 4.7-12.5zM921.1 667c1-8.2 1.9-15.3 2.9-23.2 7.3 1.3 13.6 2.6 19.9 3.6 26.2 4 40.4-7.9 40.4-34.1 0-11.8 0.3-23.7-0.1-35.5-0.6-15.9-12.1-28-26.8-29.3-16.5-1.4-28.7 7.4-32.6 23.6-4.6 19 14.3 37 34.9 33 5.7-1.1 11.1-3.7 17.8-5.9 0 7 0.3 13.9-0.2 20.8-0.2 1.9-2.7 4.4-4.7 5.3-29.9 13.3-64.8-8.1-66.2-40.8-0.3-7-0.3-14.3 1.1-21.2 5.2-25.5 27.3-41.4 52.6-38.5 25.7 3 42.1 21.8 42.2 48.4 0 15.4 0.1 30.8 0 46.2-0.2 34.8-20.1 53.9-54.8 52.1-8.8-0.5-17.1-2.8-26.4-4.5zM703.3 536.9c10.8-10.8 22.9-14.8 37-11.1 13.6 3.6 23.5 12.3 24.2 26.2 1.3 24.7 0.4 49.5 0.4 74.7h-17.3v-47.2c0-4.1 0.1-8.3-0.1-12.4-0.6-12.6-6.7-19-17.7-18.8-11.1 0.2-17.3 6.7-17.5 19-0.2 13.9-0.1 27.8-0.1 41.7v17.4h-17.9v-31.2c0-9.2 0.2-18.4-0.1-27.5-0.5-13.3-7.2-19.8-19-19.4-10.5 0.4-16.2 7.3-16.2 20.1-0.1 19.2 0 38.4 0 58.1h-17.8v-26.1c0-13.3 0.3-26.6-0.1-39.9-0.4-15.2 5.4-26.7 19.5-32.8 14.3-6.2 27.7-4 39.6 6.4 0.9 0.8 1.7 1.6 3.1 2.8zM604 593.9v12.9c0 15.4-4.9 20.7-20.5 22.1-26.8 2.5-47-14.1-51.7-42.5-6.7-40.9 21.8-68.6 62.3-60.4 19.7 4 33.4 18.4 34.3 38.7 0.9 20.4 0.2 40.8 0.2 61.8H611v-17.1-32c0-14.6-5.4-22.7-18.2-27.2-13.6-4.8-28.3-1.3-36.5 8.7-9.1 11.1-9 24.8 0.1 35.7 9.4 11.2 25.5 14.1 37.7 6.7 3-1.8 5.6-4.1 9.9-7.4zM831.8 626.9h-18.9c1-25 0.4-49.9 3.5-74.3 2.3-17.8 21.1-28.9 40.1-28.1 19.7 0.9 36.4 13.2 37.9 32.1 1.9 23.1 0.4 46.5 0.4 70.1h-17.2c0-19.1 0.2-37.6-0.1-56.2-0.2-11.8-8.9-20.9-20.3-22-12.1-1.1-22.3 6.2-24.6 18.1-0.8 4-0.8 8.2-0.9 12.4 0 15.6 0.1 31.3 0.1 47.9zM795.9 627.2c-4.3 0-7.6 0.1-10.8 0-1.7 0-3.5-0.3-6-0.5V527h16.8v100.2zM797.7 509.9c0.7 7.2-1.5 12.7-10.1 13.1-7.5 0.3-10.6-4.7-10.5-15.9 0.1-6.9 3-11.3 10.4-11.5 7.4-0.2 10.4 4 10.2 14.3z" p-id="9574"></path><path d="M254 482.1c-6 4.5-13 10.1-20.3 15.2-9.2 6.4-18.8 12.3-28 18.7-14.3 9.9-20.3 23.5-16.5 40.7 2.9 13.5 10.2 24 23.9 28.1 12.8 3.8 22.6-2.4 30.9-11.7 1.8-2 3.7-4 5.6-6 0.9 0.3 1.8 0.7 2.7 1-2.5 10.8-4.9 21.5-7.3 32.1h16.4c-2.9-10.4-5.7-20.4-8.5-30.4 4.9 1.9 7.9 4.1 10.6 6.6 10.4 9.6 25.9 11.5 36.5 4.4 19.7-13.3 22.2-43.4 4.6-59.4-4.1-3.8-9.1-6.6-13.5-10.1-13.4-10.4-26.7-21-37.1-29.2z" p-id="9575"></path><path d="M254 482.1c10.4 8.2 23.7 18.8 37.1 29.3 4.4 3.5 9.4 6.3 13.5 10.1 17.5 16 15.1 46.1-4.6 59.4-10.6 7.2-26 5.3-36.5-4.4-2.7-2.5-5.7-4.7-10.6-6.6 2.8 10 5.6 20 8.5 30.4H245c2.4-10.6 4.9-21.3 7.3-32.1-0.9-0.3-1.8-0.7-2.7-1-1.9 2-3.8 3.9-5.6 6-8.3 9.3-18.1 15.5-30.9 11.7-13.6-4.1-20.9-14.6-23.9-28.1-3.8-17.3 2.2-30.8 16.5-40.7 9.2-6.4 18.8-12.3 28-18.7 7.3-5.3 14.2-10.8 20.3-15.3z" p-id="9576"></path></svg>