<?xml version="1.0" standalone="no"?><!DOCTYPE svg PUBLIC "-//W3C//DTD SVG 1.1//EN" "http://www.w3.org/Graphics/SVG/1.1/DTD/svg11.dtd"><svg t="1575515110376" class="icon" viewBox="0 0 1024 1024" version="1.1" xmlns="http://www.w3.org/2000/svg" p-id="4711" xmlns:xlink="http://www.w3.org/1999/xlink" width="200" height="200"><defs><style type="text/css"></style></defs><path d="M280.7 518.5c-4.7-19-1.4-29.5 11.9-42.9l-21.3-27.9c-24.1 4.4-47.4 5.5-68.2-10.2-20.8 15.7-43.7 14.7-68.2 10.2l-21.3 27.9c17.6 17.6 16.7 31.6 8.2 54.1-14.6 38.5 2.9 58.6 42.7 73.5 15.9 5.9 26.9 11.1 38.6 23.3 11.7-12.2 22.7-17.4 38.6-23.3 37.5-14 58-33.2 42.7-73.4-1.4-3.8-2.8-7.6-3.7-11.3z m2.1 38.9c-5.4 40.5-55.7 34.2-79.7 59.4-24.1-25.2-74.3-18.9-79.7-59.4-1.9-14.5 5.4-24.4 8.6-37.4 4.2-17 3.6-31.8-9.6-45l15.3-20.1c20.7 3.8 48.1 3.9 65.4-9.2 17.3 13.1 44.7 13 65.4 9.2l15.3 20.1c-13.2 13.2-13.8 28-9.6 45 3.2 13 10.6 22.9 8.6 37.4zM272 392.5c1.6-0.9 3.1-2 4.4-3.2 11.2-10.8 25.1-18.1 39.6-20.5 4.1-0.7 6.9 2.7 1.7 5.4-15.8 8.4-28.5 23.9-33.6 42.5-0.5 1.2-2 2.6-4.5 1.1-2.5-1.7-5-3.3-7.6-4.8v-20.5z m0 49.8v-8.5c1.4 0.7 2.9 1.5 4.2 2.3 7.4 4.2 4.7 10.5-2.8 6.9-0.5-0.2-0.9-0.4-1.4-0.7z m0-12.9c2.3 0 4.5-1.4 5.4-3.6 1.1-2.9-0.4-6.2-3.3-7.3-0.7-0.3-1.4-0.4-2.1-0.4v11.3z m-21.1-70.3c0.8-0.2 1.6-0.3 2.4-0.3 5.2 0 9.5 4.2 9.5 9.3 0 5.1-4.3 9.3-9.5 9.3-0.8 0-1.5-0.1-2.3-0.3-0.1 0.2-0.1 0.4-0.2 0.6v-18.6h0.1z m0 26.4c1 4 3.6 7.2 7.5 8.7 4.1 1.6 9.3 0.7 13.6-1.7V413c-6.7-4-13.7-7.4-21.1-10.1v-17.4zM272 418v11.4c-0.7 0-1.4-0.1-2.1-0.4-3-1.1-4.5-4.4-3.3-7.3 0.9-2.3 3.1-3.7 5.4-3.7z m0 15.8c-6.6-3.4-13.7-6.2-21.1-8.5v9.3c7.4 2.1 14.5 4.6 21.1 7.7v-8.5z m-21.1-13c3 0 5.7-2 6.5-4.9 0.9-3.5-1.3-7-4.8-7.9-0.5-0.1-1.1-0.2-1.6-0.2v13z m-23.1-74.2c1.1 2 1.9 4.2 2.1 6.8 0.2 3.2-0.6 6.2-2.1 8.6v-15.4z m0 40v9.9c8 1.5 15.7 3.6 23.1 6.4v-17.4c-0.6-2.4-0.6-5 0-7.7v-18.7c-4.1 1-7.1 4.7-7.1 9 0 3.3 1.8 6.3 4.5 7.9-3.7 6.3-11.9 10.6-20 10.6h-0.5z m23.1 21.1v13c-0.5 0-1.1-0.1-1.6-0.2-3.6-0.9-5.7-4.4-4.8-7.9 0.7-2.9 3.4-4.9 6.4-4.9z m0 17.6c-7.4-2.3-15.2-4-23.1-5.2v9.8c7.9 1.1 15.6 2.6 23.1 4.7v-9.3z m-23.1-9.5V401c0.3 0 0.6 0 0.9 0.1 4.1 0.5 7 4.2 6.5 8.2-0.4 3.7-3.7 6.5-7.4 6.5z m-24.7-98.3c5 15.2 19.3 19.5 24.7 29.1V362c-3.9 6.3-12.7 8.8-21.1 1.5-0.1 0.8-0.1 1.6-0.1 2.4 0 11.3 9.5 20.5 21.2 20.7v9.9c-8-1.5-16.3-2.3-24.7-2.3v-76.7z m24.7 83.5v14.7c-0.3 0-0.6 0-0.9-0.1-4.1-0.5-7-4.2-6.5-8.2 0.4-3.6 3.7-6.4 7.4-6.4z m0 19.1v9.8c-8.1-1.1-16.4-1.6-24.7-1.6v-9.9c8.3-0.1 16.6 0.5 24.7 1.7z m-24.7-5.4V398c4.7 0 8.5 3.7 8.5 8.3 0 4.6-3.8 8.4-8.5 8.4z m0-20.5c-8.4 0-16.7 0.8-24.7 2.3v-9.9c11.7-0.3 21.2-9.5 21.2-20.7 0-0.8 0-1.6-0.1-2.4-8.4 7.3-17.2 4.8-21.1-1.4v-15.4c5.4-9.6 19.7-13.9 24.7-29.1v76.6z m0 3.8v16.6c-4.7 0-8.5-3.7-8.5-8.3 0-4.5 3.8-8.3 8.5-8.3z m0 20.3v9.9c-8.3 0-16.6 0.5-24.7 1.6V420c8.1-1.1 16.4-1.7 24.7-1.7z m-24.7-2.5V401c3.7 0 7 2.7 7.5 6.5 0.5 4-2.4 7.7-6.5 8.2-0.4 0-0.7 0.1-1 0.1z m0-19.3c-8 1.5-15.7 3.6-23.1 6.4v-17.4c0.6-2.3 0.6-5 0-7.7V359c4.1 1.1 7.1 4.7 7.1 9 0 3.3-1.8 6.3-4.5 7.9 3.7 6.3 11.9 10.6 20 10.6h0.5v10z m0-34.5v-15.4c-1.1 2-1.9 4.2-2.1 6.8-0.2 3.2 0.6 6.2 2.1 8.6z m0 39c-0.3 0-0.6 0-0.9 0.1-4.1 0.5-7 4.2-6.5 8.2 0.5 3.7 3.7 6.5 7.5 6.5V401h-0.1z m0 19.1v9.8c-7.9 1.1-15.6 2.6-23.1 4.7v-9.3c7.4-2.3 15.2-4 23.1-5.2z m-23.1 0.7c0.5 0 1.1-0.1 1.6-0.2 3.6-0.9 5.7-4.4 4.8-7.9-0.8-3-3.5-4.9-6.5-4.9v13z m0-17.9c-7.4 2.8-14.4 6.2-21.1 10.1v-20.5c4.3 2.3 9.4 3.3 13.6 1.7 3.9-1.5 6.5-4.7 7.5-8.7v17.4z m0-25.1c0-0.2-0.1-0.4-0.2-0.7-0.7 0.2-1.5 0.3-2.3 0.3-5.2 0-9.5-4.2-9.5-9.3 0-5.1 4.3-9.3 9.5-9.3 0.8 0 1.6 0.1 2.4 0.3v18.7h0.1z m0 29.9c-0.5 0-1.1 0.1-1.6 0.2-3.6 0.9-5.7 4.4-4.8 7.9 0.8 3 3.5 4.9 6.5 4.9v-13h-0.1z m0 17.6v9.3c-7.4 2.1-14.5 4.6-21.1 7.7v-8.5c6.6-3.4 13.7-6.2 21.1-8.5z m-21.1 4.1c0.7 0 1.4-0.1 2.1-0.4 3-1.1 4.5-4.4 3.3-7.3-0.9-2.3-3.1-3.6-5.4-3.6v11.3z m0-16.4c-2.6 1.5-5.1 3.2-7.6 4.9-2.5 1.5-4 0.1-4.5-1.1-5.2-18.6-17.9-34.1-33.6-42.5-5.2-2.8-2.4-6.1 1.7-5.4 14.5 2.3 28.4 9.6 39.6 20.5 1.3 1.2 2.8 2.3 4.4 3.2V413z m0 5c-0.7 0-1.4 0.1-2.1 0.4-3 1.1-4.5 4.4-3.3 7.3 0.9 2.3 3.1 3.6 5.4 3.6V418z m0 15.8v8.5c-0.5 0.2-1 0.4-1.4 0.7-7.5 3.6-10.2-2.7-2.8-6.9 1.4-0.8 2.8-1.5 4.2-2.3z" p-id="4712"></path><path d="M203.8 557.2c1.2 1.2 1.8 2.6 1.8 4.2 0 1.7-0.6 3-1.8 4.1v-8.3z m0-78.1v13.6c4.8 0.8 7.1 4.9 7.1 12.3 0 4.3-0.9 7.5-2.6 9.4-1.1 1.2-2.6 2.1-4.5 2.5v14.2c1.6 0.4 2.9 1.2 3.9 2.3 1.5 1.7 2.8 4.6 3.8 8.7 1.5 6.4 2.9 11.1 4 14.1s2.5 5.5 4.2 7.5c3.6 4.5 9.6 6.7 18 6.7 6.3 0 11.2-0.8 14.9-2.5 1.6-0.8 3-1.8 4-3.2 1-1.4 1.5-2.7 1.5-4 0-1-0.3-2-0.8-2.8-0.6-0.8-1.3-1.4-2.1-1.6-2.7-0.8-4.4-1.6-5.1-2.4-0.7-0.8-1.3-2.7-1.7-5.5-0.9-6.8-2.4-11.9-4.5-15.2-2.1-3.3-5.4-5.8-10-7.4-2.1-0.8-3.2-1.8-3.2-3 0-1 0.7-1.8 2.1-2.4 3.3-1.6 5.9-4.1 7.8-7.3 1.9-3.3 2.8-6.9 2.8-10.8 0-7.1-2.7-12.7-8.1-16.7-6-4.4-13.7-6.7-22.9-6.7-1.6-0.3-4.4-0.2-8.6 0.2z m-2.7 51.7c-1.6 0-2.7 0.5-3.1 1.5-0.4 1-0.7 3.3-0.7 6.9 0 5.5 0.4 9.7 1 12.8 0.2 0.9 0.6 1.5 1 2s1.3 1.1 2.5 1.7c0.8 0.4 1.5 0.9 2 1.5v8.3c-0.9 0.8-2.1 1.4-3.5 1.9-3.6 1.2-9.7 1.8-18.3 1.8-15.9 0-23.9-3-23.9-9.1 0-1 0.2-1.9 0.7-2.5 0.5-0.6 1.6-1.5 3.2-2.6 1.9-1.3 3.2-2.7 3.8-4.4 0.7-1.7 1.1-4.6 1.4-8.8 0.2-3 0.3-14 0.3-32.9 0-6-0.3-10.1-0.9-12.2-0.6-2.1-1.9-3.7-3.9-4.7-1.9-0.9-3.2-1.7-3.8-2.5-0.6-0.8-1-1.7-1-2.9 0-1.6 0.6-3 1.9-4.2 1.2-1.2 2.9-2.1 5.1-2.6 1.8-0.5 4.4-0.7 7.6-0.7 1.4 0 5 0.2 10.7 0.6 1.1 0.1 2.8 0.1 5.1 0.1 3.9 0 9-0.3 15.4-0.8v13.6c-0.5-0.1-1.1-0.1-1.7-0.1-1.7 0-2.9 0.4-3.5 1.2-0.7 0.8-1.1 2.1-1.2 4.1l-0.7 15.1v0.6c0 1.6 0.2 2.6 0.7 3.1 0.4 0.5 1.4 0.8 2.7 0.8 1.4 0 2.6-0.1 3.7-0.4v14.2c-0.7-0.2-1.6-0.4-2.6-0.4zM366.8 562.9v-13.8c0.2 0.5 0.4 1 0.6 1.4 1.2 3.3 1.2 6.9 0 10.7-0.2 0.6-0.4 1.2-0.6 1.7z m0-24.6v-5c1.2 0.1 2.2-0.3 3.1-1.1 0.9-0.8 1.5-2.2 1.7-4 0.2-1.8 0-3.5-0.6-5s-1.6-2.7-2.9-3.5c-0.4-0.2-0.8-0.5-1.4-0.6V514c3.2 0.4 5.3 0.5 6.2 0.5 1.2-0.1 2.3-0.3 3.5-0.8l-0.6 4.9c-1 0.4-2.2 0.5-3.5 0.5 1.3 1.9 2.1 3.7 2.5 5.4 0.4 1.7 0.5 3.4 0.3 5.3-0.4 3-1.4 5.3-3.1 6.7-1.4 1.3-3.2 1.9-5.2 1.8z m0-48.9v-5c1.5-0.1 3 0.2 4.4 1 1.5 0.8 2.6 2 3.6 3.7 0.9 1.6 1.4 3.6 1.6 5.7 0.3 3.6-0.2 6.4-1.5 8.4s-3.4 3.4-6.3 4.2l-1.1-4.6c1.8-0.4 3.2-1.3 4.1-2.6 0.9-1.3 1.2-3 1-5.1-0.2-2.2-0.8-3.7-1.7-4.7-1-1-2.1-1.4-3.2-1.3-0.4 0.2-0.6 0.2-0.9 0.3z m0-12.7v-4.8l5.7-1.1 0.9 4.6-6.6 1.3z m0-14.8v-5l2.3-0.8 1.5 4.4-3.8 1.4z m0-5v5l-9.3 3.2v-5l9.3-3.2z m0 15v4.8l-9.3 1.8v-4.8l9.3-1.8z m0 12.6v5c-0.7 0.2-1.2 0.7-1.6 1.4-0.4 0.7-0.7 2.3-1.2 4.9-0.6 3.5-1.1 6-1.6 7.4-0.5 1.4-1.3 2.5-2.4 3.3-0.8 0.6-1.6 1-2.6 1.2v-5.5c0.3-0.4 0.5-0.9 0.7-1.5 0.1-0.5 0.4-1.9 0.8-4.3 0.6-3.4 1.1-5.8 1.6-7.1 0.4-1.4 1.2-2.5 2.2-3.3 1-0.8 2.3-1.3 3.9-1.5h0.2z m0 29.6v5.1c-0.9-0.3-1.9-0.5-3.2-0.7l-1.7-0.2c0.5 1.8 0.8 4.4 0.8 7.8 0 2 0.2 3.4 0.4 4.2 0.2 0.8 0.7 1.5 1.3 2 0.6 0.5 1.3 0.8 2.1 0.9h0.2v5c-0.2 0-0.5 0-0.7-0.1-1.4-0.2-2.5-0.6-3.6-1.4-1-0.7-1.8-1.7-2.4-2.7-0.6-1.1-0.9-2.3-1.1-3.6-0.1-0.9-0.2-2.4-0.2-4.2 0-3.8-0.2-6.7-0.6-8.5l-0.7-0.1v-4.8c0.3 0 0.7 0.1 1 0.1l6.2 0.8c0.9 0.2 1.6 0.3 2.2 0.4z m0 35v13.8c-1.2 3.1-2.9 5.4-4.9 7.1-1.3 1.1-2.8 1.9-4.4 2.5v-5.2c0.7-0.4 1.3-0.8 1.9-1.3 1.8-1.5 3-3.4 3.7-5.6 0.9-2.7 0.8-5.2-0.1-7.6-0.9-2.3-2.8-4.3-5.6-6v-0.3l2.7-4.2c3.1 1.8 5.3 4.1 6.7 6.8z m-9.3-102.9v-5l5.8-2 1.5 4.5-7.3 2.5z m0-5v5l-8.6 3c-0.5 0.2-0.9 0.3-1.3 0.5v-5l9.9-3.5z m0 18.9v5l-9.9 3.4v-7c1.7 0.8 4.1 0.6 7.2-0.5l2.7-0.9z m0 13.6v4.8l-9.9 1.9v-4.8l9.9-1.9z m0 28.4v5.5c-0.3 0.1-0.7 0.1-1 0.2-1.2 0.1-2.4-0.1-3.5-0.6s-2-1.2-2.8-2.1c-0.6-0.7-1.2-1.6-1.6-2.9-0.5-1.2-0.8-2.6-0.9-4V495c0.1-0.9 0.2-1.7 0.5-2.5 0.5-1.7 1.2-3 2.2-3.9 1-0.9 2.4-1.5 4.1-2l1 4.5c-1.4 0.3-2.5 1-3.2 2.1-0.7 1.1-1 2.5-0.8 4.3 0.2 2.2 0.7 3.7 1.5 4.5 0.8 0.9 1.7 1.3 2.6 1.2 0.6-0.1 1.1-0.3 1.6-0.7 0-0.1 0.2-0.2 0.3-0.4z m0 10.8v4.8l-0.5-0.1c-1.9-0.2-3.3 0-4.2 0.8-1.2 1.1-2 2.8-2.2 5.1-0.3 2.2-0.1 3.9 0.6 5 0.6 1.1 1.9 2.1 3.8 2.8l-1.2 4.5c-1.9-0.7-3.4-1.5-4.5-2.6-0.7-0.7-1.3-1.6-1.7-2.7v-11.9c0.2-0.7 0.5-1.4 0.8-1.9 0.7-1.4 1.6-2.4 2.5-3 0.9-0.6 2-0.9 3.4-1.1 0.6 0.1 1.7 0.2 3.2 0.3z m0 33.5v0.3l-0.1-0.1 0.1-0.2z m0 20.8v5.2c-1.3 0.5-2.8 0.8-4.4 0.9-1.9 0.2-3.7 0.1-5.6-0.1V568c1.9 0.4 3.6 0.5 5.3 0.4 1.8 0 3.3-0.4 4.7-1.2z m-9.9-128.6V433c2.1-1.5 3.4-3.1 4-4.9 0.8-2.2 0.6-4.4-0.6-6.4-0.8-1.5-2-2.5-3.4-3.1v-4.7c0.7 0.2 1.3 0.6 1.9 0.9 2 1.2 3.6 2.9 4.8 5 1.9 3.4 2.4 6.7 1.5 10-1 3.3-3.5 6.2-7.5 8.5-0.3 0.1-0.5 0.2-0.7 0.3z m0-24.8v4.7c-0.6-0.3-1.2-0.4-1.8-0.6-2.3-0.4-5 0.2-8.2 2.1-3 1.7-4.8 3.7-5.6 5.9-0.8 2.2-0.5 4.4 0.6 6.4 1.2 2 2.9 3.3 5.2 3.8 2.3 0.5 5-0.2 8.1-2 0.6-0.4 1.2-0.7 1.7-1.1v5.7c-4.2 2.2-8 2.8-11.3 1.6-3-1-5.3-3-7-6-1.9-3.3-2.4-6.6-1.4-10 1-3.4 3.3-6.1 7.2-8.3 3.1-1.8 5.8-2.7 8.1-2.8 1.4-0.2 2.9 0.1 4.4 0.6z m0 30.9v5c-1.1 0.5-2 0.9-2.6 1.4-0.8 0.7-1.3 1.5-1.5 2.6-0.2 1.1-0.1 2.2 0.3 3.4 0.7 1.9 1.8 3.3 3.5 4.3 0.1 0.1 0.2 0.1 0.3 0.2v7l-3.2 1.1-1.4-4 3.7-1.3c-3.6-0.9-6-3.2-7.2-6.9-0.5-1.6-0.8-3.1-0.6-4.7 0.1-1.5 0.5-2.8 1.2-3.7 0.7-1 1.6-1.8 2.8-2.5 0.8-0.4 2.2-1 4.2-1.7l0.5-0.2z m0 30.9v4.8l-1.4 0.3-0.9-4.6 2.3-0.5z m0 19.4v3.1c-0.1-1.1-0.1-2.1 0-3.1z m0 23.7v11.9c-0.2-0.6-0.4-1.1-0.6-1.8-0.4-1.9-0.5-4-0.2-6.4 0.2-1.4 0.4-2.6 0.8-3.7z m0 49.3v5.2c-1.6-0.2-3.2-0.6-4.8-1.1-3.8-1.2-6.9-3-9.2-5.4-2.4-2.4-3.8-5.1-4.4-8.3-0.6-3.2-0.4-6.3 0.7-9.6 1.2-3.6 3.1-6.4 5.8-8.3 2.7-1.9 5.8-2.8 9.5-2.6l-0.4 5.1c-2.9 0-5.3 0.6-7 1.8-1.7 1.2-3 3-3.8 5.5-0.9 2.8-1 5.4-0.3 7.7s2.1 4.2 4.1 5.7c2 1.5 4.2 2.6 6.6 3.4 1 0.4 2.1 0.7 3.2 0.9z m-40.4 75.1v-4.4c0.7-0.3 1.5-0.7 2.2-1.3 1.4-1.1 2.4-2.5 3-4 0.6-1.5 0.7-3 0.4-4.5-0.3-1.1-1.1-2.5-2.4-4.1l-1.1-1.3c-0.5 0.9-1.2 1.9-2.2 3.1v-12.8c0.1 0.1 0.3 0.2 0.4 0.3 0.6 0.5 1.6 1.6 2.9 3.2l3.9 4.9c2.8 3.4 4.6 5.5 5.5 6.3 0.9 0.8 1.9 1.4 3 1.8l-3.8 3.1c-1-0.5-2-1.1-2.9-2.1-0.4 2.3-1.1 4.1-1.9 5.6-0.9 1.5-2 2.8-3.5 4-1.1 1.1-2.3 1.8-3.5 2.2z m0-39.4l21.5 20 3.2-3.4-24.7-23v6.4z m33.9-122l-5.3 1-0.9-4.6 5.3-1 0.9 4.6z m-33.9 115.6v6.4l-6.6-6.1 3.2-3.4 3.4 3.1z m0 16.5v12.8c-0.8 0.9-1.7 2-2.7 3.1-1.3 1.4-2.2 2.5-2.6 3.3-0.4 0.8-0.6 1.6-0.5 2.4 0.1 0.8 0.4 1.5 0.9 2.2 0.8 1 1.8 1.5 3.1 1.5 0.6 0 1.2-0.1 1.8-0.3v4.4c-1.1 0.4-2.1 0.6-3.2 0.5-2.2-0.1-4-1.1-5.5-2.9-0.9-1.1-1.4-2.2-1.6-3.5-0.2-1.3-0.2-2.5 0.2-3.6 0.4-1.2 0.9-2.3 1.7-3.3 0.6-0.8 1.5-1.8 2.8-3.2 2.7-2.7 4.5-4.9 5.5-6.5-0.4-0.5-0.6-0.8-0.7-1-1.2-1.5-2.4-2.3-3.6-2.3-1.6-0.1-3.3 0.6-5.2 2.1-1.7 1.4-2.7 2.7-3.1 4-0.3 1.3-0.1 2.8 0.8 4.7l-2.4 1.5v-10.9c0.8-0.9 1.7-1.8 2.8-2.7 1.8-1.5 3.5-2.5 5-3s2.8-0.6 3.9-0.4c0.8 0.1 1.7 0.5 2.6 1.1z m-14.4 39.1v-6.8l2.9 5.1-2.9 1.7z m0-34.2v10.9l-1.5 0.9c-0.9-1.8-1.4-3.5-1.4-5s0.5-3.2 1.5-4.8c0.3-0.7 0.8-1.4 1.4-2z m0 27.4l-5.6-9.7c-1.1-1.9-1.9-3.2-2.5-3.8-0.9-1-1.9-1.8-3-2.3-1.1-0.5-2.4-0.7-3.9-0.5-1.5 0.2-3 0.7-4.5 1.5-3.3 1.9-5.1 4.7-5.4 8.4l-2-3.4-2.3 1.4v3.1l12.6 21.8 4.1-2.4-7.6-13.1c-1.8-3.1-2.4-5.5-1.7-7.4 0.6-1.8 1.8-3.2 3.5-4.3 1.1-0.6 2.2-0.9 3.3-0.9 1.1 0 2 0.4 2.8 1 0.8 0.6 1.7 1.8 2.6 3.5l8.5 14.6 1.1-0.7v-6.8z m-29.2 18V652c1.1 3.4 1.5 6.2 1.2 8.4-0.2 1.3-0.6 2.5-1.2 3.7z m0-26.4v3.1l-1.3-2.3 1.3-0.8z m0 14.3v12.1c-0.4 0.8-1 1.6-1.7 2.4-1.6 1.7-3.5 3-5.8 3.8-1.6 0.6-3.2 0.8-4.7 0.8V667c1.1 0.1 2.3 0 3.5-0.4 2.2-0.8 3.8-2.2 4.7-4.4 0.9-2.2 0.7-5-0.5-8.4-1.1-3.2-2.7-5.5-4.8-6.6-1-0.5-1.9-0.9-2.9-1v-4.1c1.9 0 3.7 0.5 5.4 1.3 3.1 1.4 5.4 4.3 6.8 8.6z m-12.2-10.1v4.1c-1.1-0.1-2.3 0-3.4 0.4-2.2 0.8-3.8 2.2-4.7 4.4-0.9 2.2-0.8 4.9 0.4 8.3 1.2 3.4 2.8 5.6 4.8 6.8 1 0.5 1.9 0.9 2.9 1v4.1c-1.9 0-3.7-0.4-5.4-1.3-3.1-1.6-5.4-4.6-6.9-9-1.7-4.9-1.6-8.9 0.3-12.2 1.6-2.7 4-4.6 7.3-5.8 1.6-0.5 3.2-0.8 4.7-0.8z m-27.9 35v-0.8l0.2 0.8h-0.2z m0-37.6v-1.1l4.4-0.9 1 5.3-4.6 0.9-0.8-4.2z m7.1 36.6l-5.3-27.3 4.6-0.9 5.3 27.3-4.6 0.9z m-7.1-37.7v1.1l-0.2-1 0.2-0.1z m0 37.9v0.8c-1.2 0.4-2.3 0.6-3.3 0.7-1.7 0.1-3 0-4-0.5s-1.7-1.1-2.2-2c-0.5-0.8-0.8-2.7-1.1-5.5l-1.4-15.9-3.4 0.3-0.3-3.6 3.4-0.3-0.6-6.9 4.4-3.2 0.8 9.7 4.7-0.4 0.3 3.6-4.7 0.4 1.4 16.2c0.1 1.3 0.3 2.2 0.5 2.6 0.2 0.4 0.5 0.6 0.9 0.8 0.4 0.2 0.9 0.3 1.6 0.2 0.5 0 1.2-0.2 2-0.4l1 3.4z m-32.1 1.5v-3.5c1-0.1 1.9-0.4 2.7-0.7 1.5-0.7 2.6-1.7 3.4-3 0.6-1 1-2.6 1.2-4.6l0.2-1.7c-1.7 0.5-4.2 0.9-7.4 1.1v-3.9c3.4-0.1 6-0.4 7.7-0.9 0.1-0.6 0.1-1 0.1-1.2 0.2-1.9-0.2-3.3-1-4.2-1.1-1.2-2.8-1.9-5.2-2.1-0.6-0.1-1.2-0.1-1.7-0.1V649c0.9 0 1.8 0 2.7 0.1 2.4 0.2 4.3 0.7 5.7 1.3 1.4 0.7 2.5 1.5 3.1 2.4 0.6 0.9 1 2 1.2 3.3 0.1 0.8 0 2.3-0.1 4.3l-0.5 6.3c-0.4 4.4-0.5 7.1-0.4 8.3 0.1 1.2 0.4 2.3 0.9 3.4l-5-0.4c-0.4-1-0.6-2.2-0.6-3.5-1.9 1.3-3.6 2.2-5.3 2.7-0.6 0.2-1.1 0.3-1.7 0.4z m0-28.6v3.8c-1.4 0-2.5 0.3-3.3 0.8-1.1 0.7-2 2-2.7 3.9l-4.5-1c0.6-1.9 1.4-3.5 2.5-4.6 1.1-1.1 2.5-1.9 4.4-2.4 1.1-0.3 2.3-0.5 3.6-0.5z m0 12.2v3.9h-0.4c-2 0.1-3.4 0.3-4.2 0.6-0.8 0.3-1.5 0.7-2 1.4-0.5 0.6-0.8 1.3-0.9 2.2-0.1 1.3 0.3 2.3 1.2 3.3 0.9 0.9 2.2 1.4 4 1.6 0.8 0.1 1.5 0.1 2.2 0v3.5c-1.2 0.2-2.4 0.2-3.7 0.1-3-0.3-5.3-1.2-6.8-2.8-1.5-1.6-2.2-3.6-1.9-5.9 0.1-1.4 0.5-2.6 1.3-3.6 0.7-1.1 1.6-1.9 2.7-2.5 1.1-0.6 2.2-1 3.5-1.2 0.9-0.2 2.3-0.3 4.2-0.3l0.8-0.3z m-40.5 8.6v-10.5l4.9-17 4.1 1.2-1.1 3.8c2.8-2.4 6.1-3 9.8-2 1.6 0.5 3 1.2 4.2 2.1 1.2 1 2 2 2.4 3.2 0.4 1.1 0.6 2.4 0.5 3.7-0.1 0.9-0.4 2.4-1 4.5l-4.7 16.4-4.5-1.3 4.7-16.2c0.5-1.8 0.8-3.3 0.7-4.3-0.1-1-0.5-1.9-1.2-2.7-0.7-0.8-1.7-1.4-2.9-1.7-1.9-0.6-3.8-0.4-5.5 0.4-1.8 0.8-3.1 2.9-4.1 6.4l-4.2 14.6-2.1-0.6z m0-24.1l2.8-2.8c-0.8-1.2-1.7-2.2-2.8-2.9v5.7z m0-5.7v5.7l-0.5 0.5c-0.7-1.1-1.6-1.9-2.7-2.4-0.9-0.4-1.9-0.5-2.9-0.3s-1.9 0.8-2.7 1.6c-1.2 1.3-2.2 2.8-3 4.6l-6.1 13.2-2.9-1.4v-3.4l10.4-22.3 3.8 1.8-1.8 3.8c1.8-1.3 3.3-2.1 4.4-2.3 1.1-0.2 2.1 0 3.1 0.4 0.3 0.2 0.6 0.3 0.9 0.5z m0 19.3l-2.8 9.7 2.8 0.8v-10.5zM130 642.5c1.2-2.7 1.6-5.3 1.1-7.8-0.2-1.2-0.6-2.4-1.1-3.4v11.2z m0-11.2v11.2c-0.5 1-1 2.1-1.7 3.1-0.2 0.2-0.4 0.6-0.7 1l-13.6-8.8v-4.6l11.6 7.5c1.1-2.1 1.6-3.9 1.4-5.4-0.3-2.3-1.4-4.2-3.4-5.5-1.8-1.2-3.7-1.6-5.8-1.2-1.4 0.3-2.6 0.9-3.8 1.9v-5.4c0.5-0.2 1.1-0.4 1.6-0.5 3.4-0.9 6.7-0.2 10 1.9 2 1.4 3.5 3 4.4 4.8z m0 26.8v3.4l-1.3-0.6 1.3-2.8z m-16-5.1v-4.2c0.8 0.3 1.7 0.4 2.6 0.3 1.5-0.1 3.1-0.8 4.8-2.1l3.8 3.2c-2.2 2-4.6 3-7.2 3.2-1.4 0.2-2.7 0-4-0.4z m0-43.1V608l1.5 0.3-1.5 1.6z m0-2v1.9l-4.4 5.1v-7.1l0.5-0.5 3.9 0.6z m0 17.4v5.4c-0.5 0.5-1 1-1.5 1.6l1.5 0.9v4.6l-3.8-2.5-0.6 1.2v-8.3c1.4-1.3 2.8-2.3 4.4-2.9z m0 23.5v4.2c-1.3-0.4-2.7-1-4-1.9-0.1-0.1-0.3-0.2-0.4-0.3v-5.5c0.6 1 1.4 1.8 2.5 2.5 0.6 0.5 1.3 0.8 1.9 1z m-4.4-28V616l3.1 2.7-2.4 2.8-0.7-0.7z m0-13v7.1l-0.5 0.6 0.5 0.4v4.8l-2.9-2.5L96 630.5c-0.9 1-1.4 1.7-1.5 2.1-0.1 0.4-0.1 0.8 0 1.2 0.1 0.4 0.5 0.9 1 1.3 0.4 0.3 1 0.8 1.7 1.2L95 640c-0.6-0.3-1.1-0.6-1.6-0.9v-12.7l9.7-11.2-2.6-2.3 2.4-2.8 2.6 2.3 4.1-4.6z m0 20.5c-1 1-2 2.2-2.9 3.6-2.5 3.8-3.4 7.4-2.7 10.8 0.6 3.3 2.5 6 5.7 8.1v-5.5c-0.5-0.8-0.8-1.7-1-2.7-0.4-1.9 0-3.9 1-6.1v-8.2h-0.1zM93.4 614c1.1-0.9 1.8-1.7 2.3-2.2 0.8-1.1 1.4-2.2 1.7-3.4 0.3-1.2 0.2-2.5-0.2-3.9-0.4-1.5-1.2-2.8-2.3-4.1-0.5-0.6-1-1.1-1.5-1.5V614zM76.1 420.7l15.3 8.1-8 15c-1.6 3-3.1 5.1-4.6 6.4-0.8 0.7-1.7 1.2-2.7 1.6v-5.6c1.2-0.8 2.4-2.2 3.5-4.2l5.7-10.7-9.2-4.9v-5.7z m17.3 178.1V614c-0.3 0.3-0.7 0.6-1.1 0.9l-13.1 11-3-3.6 12.9-10.9c1.5-1.2 2.4-2.3 2.9-3.2 0.5-0.9 0.7-1.9 0.5-3-0.2-1.1-0.6-2.1-1.5-3.1-1.3-1.5-2.9-2.4-4.8-2.8-1.9-0.3-4.2 0.7-7 3l-3.3 2.8V599l9.9-8.3 2.7 3.2-3 2.5c3.2-0.2 5.8 0.6 7.9 2.4z m0 27.6V639c-0.5-0.4-1-0.7-1.4-1.1-1.3-1.1-2.1-2.2-2.5-3.2-0.4-1-0.4-2-0.1-2.9 0.3-0.9 1.4-2.4 3.2-4.6l0.8-0.8z m-17.3-38v-6l12.3-7.7 2.7 4.3-15 9.4zM57.5 410.9l18.6 9.9v5.7l-2-1.1L69 435c-1.1 2-1.7 3.8-1.9 5.1-0.2 1.4 0 2.6 0.6 3.7s1.5 1.9 2.6 2.5c1.6 0.9 3.2 1 4.9 0.4 0.3-0.1 0.7-0.3 1-0.5v5.6c-0.8 0.3-1.6 0.4-2.5 0.5-2 0.1-4-0.3-5.9-1.3-2.4-1.3-4-3.1-4.8-5.6-0.8-2.4-0.6-5.4 0.7-8.9-1.2 0.9-2.2 1.5-3.1 1.8-1.9 0.7-4.1 1.1-6.5 1.3l-1 0.1v-5.4l1-0.1c2.7-0.2 4.9-0.5 6.4-0.8 1.5-0.3 2.7-0.6 3.5-1.1 0.8-0.4 1.5-1 2-1.6 0.4-0.5 0.9-1.3 1.5-2.4l2.8-5.2-15-8 2.2-4.2z m18.6 171.6v6l-17.6 11-2.7-4.3 20.3-12.7z m0 16.6l-11.3 9.5 3 3.6 8.3-7v-6.1z m-23-57.5v-4.8l18.2-4.2 1.1 4.6-19.3 4.4z m0-11.6v-5.2c0.4-0.2 0.7-0.5 1-0.8 1-1.3 1.4-3.1 1.2-5.5-0.2-2.2-0.7-3.8-1.5-4.8-0.2-0.2-0.4-0.4-0.7-0.6v-5.2c0.6 0.2 1.1 0.5 1.6 0.9 1.3 0.9 2.3 2.2 3.1 4 0.8 1.8 1.3 3.8 1.4 6.2 0.2 2.4 0 4.3-0.4 5.8-0.5 1.5-1.1 2.7-1.9 3.4-0.8 0.8-1.8 1.3-3.1 1.7-0.2 0-0.5 0.1-0.7 0.1z m0-27.8v-4.8l4.9 2.3-0.4 4.7-4.5-2.2z m0-16.5v-4.8l6.7-1.9-0.4 5.1-6.3 1.6z m0-10.2c1.7-0.1 3.2-0.6 4.6-1.4 3.1-1.6 5.1-4.3 6.2-8 0.9-3.3 0.8-6.4-0.6-9.2-1.6-3.4-4.9-5.9-9.8-7.3l-0.4-0.1v5c2.9 1 5 2.4 6.1 4.2 1.3 2 1.6 4.1 0.9 6.4-0.6 2.2-2 3.8-4.2 4.9-0.9 0.4-1.8 0.7-2.9 0.7v4.8z m0-35.7l-11.4 0.9 3-5.6 8.4-0.6v5.3z m0 9.7v5l-0.9-0.3c-3.4-1-6.2-1-8.3 0-2.1 1-3.5 2.6-4.2 4.9-0.1 0.4-0.2 0.8-0.2 1.2V452c0.8-0.8 1.7-1.4 2.7-2 2.9-1.4 6.5-1.6 10.9-0.5z m0 21.2v4.8c-1.9 0.2-4.1-0.1-6.4-0.7-3.2-0.9-5.6-2.1-7.3-3.5v-8.8c0.2 1.1 0.6 2.1 1.2 3.1 1.3 2 3.7 3.5 7.2 4.5 2 0.5 3.7 0.7 5.3 0.6z m0 10.2v4.8l-10.3 2.7c-1.1 0.3-2.2 0.6-3.4 0.8v-4.5l13.7-3.8z m0 16.5v4.8l-13.6-6.5v-4.6c1 0.4 2 0.8 2.9 1.3l10.7 5z m0 10.5v5.2c-0.9-0.7-2.1-1.1-3.6-1.4l0.3-4.6c1.2 0.1 2.3 0.4 3.3 0.8z m0 16.9c-0.7 0.4-1.7 0.7-3 0.8-0.2 0-0.6 0-1.2 0.1-0.8-1.7-1.5-4.5-2.2-8.3-0.4-1.8-0.7-3.2-1-4.1-0.4-1.2-1-2.3-1.8-3.3-0.7-1-1.7-1.7-2.9-2.2-0.5-0.2-1-0.4-1.6-0.5v5.1c0.2 0.1 0.4 0.2 0.5 0.3 0.7 0.4 1.3 1 1.7 1.7 0.4 0.8 0.8 2.1 1.2 4 0.7 3.4 1.5 5.9 2.3 7.5l-1.7 0.1c-1.6 0.1-3 0-4-0.2v5.3c1.1-0.1 2.3-0.2 3.8-0.3l6.3-0.4c1.6-0.1 2.8-0.2 3.6-0.4v-5.2z m0 12v4.8l-13.6 3.1v-4.8l13.6-3.1z m-13.7-84.7v8.3c-0.1 0.7-0.1 1.4 0 2.1v8.8c-0.1-0.1-0.3-0.2-0.4-0.3-1.7-1.6-2.8-3.5-3.3-5.8s-0.4-4.6 0.2-6.9c0.8-2.6 1.9-4.7 3.5-6.2z m0 32.6v4.5c-1.1 0.2-2.1 0.4-3.2 0.6 1.1 0.4 2.2 0.8 3.2 1.2v4.6l-9.1-4.3c-2.9-1.4-5-2.5-6-3.2-1.5-1-2.5-2-3.2-3.2-0.6-1.1-0.9-2.5-0.7-4 0.1-0.9 0.4-1.9 0.8-3l4.4-0.1c-0.4 1-0.6 1.9-0.7 2.7-0.1 1 0 1.9 0.3 2.5 0.3 0.7 0.7 1.2 1.3 1.7 0.4 0.3 1.6 0.9 3.4 1.7 0.3 0.1 0.6 0.3 1.1 0.5l8.4-2.2z m0 22.6v5.1c-0.5-0.2-1.1-0.3-1.7-0.2-1.3 0.1-2.3 0.6-3 1.6-0.8 1-1.1 2.4-1 4.2 0.1 1.8 0.6 3.4 1.5 4.7 0.9 1.3 2.1 2.3 3.5 2.9 0.2 0.1 0.5 0.2 0.7 0.2v5.3c-2.2 0.2-3.7 0.4-4.5 0.6-1.1 0.3-2.2 0.8-3.2 1.4l-0.3-4.9c0.9-0.5 2.1-0.9 3.4-1.2-1.6-1.6-2.8-3.2-3.5-4.8-0.7-1.6-1.1-3.3-1.3-5.1-0.2-3 0.4-5.4 1.7-7.2 1.4-1.7 3.2-2.7 5.5-2.8 0.8 0 1.5 0 2.2 0.2z m0 32.6v4.8l-4.5 1-1.1-4.6 5.6-1.2z" p-id="4713"></path><path d="M631.6 451.5c1.1-0.6 2.2-1.4 3.1-2.2 7.8-7.5 17.4-12.6 27.4-14.2 2.8-0.5 4.8 1.8 1.2 3.8-10.9 5.8-19.7 16.6-23.3 29.4-0.3 0.8-1.4 1.8-3.1 0.8-1.7-1.2-3.5-2.3-5.2-3.4v-14.2h-0.1z m0 34.5v-5.9c1 0.5 2 1 2.9 1.6 5.1 2.9 3.2 7.3-1.9 4.8-0.3-0.2-0.6-0.4-1-0.5z m0-9c1.6 0 3.1-1 3.7-2.5 0.8-2-0.2-4.3-2.3-5.1-0.5-0.2-1-0.3-1.4-0.3v7.9zM617 428.3c0.5-0.1 1.1-0.2 1.7-0.2 3.6 0 6.6 2.9 6.6 6.5s-3 6.5-6.6 6.5c-0.5 0-1.1-0.1-1.6-0.2 0 0.1-0.1 0.3-0.1 0.4v-13z m0 18.3c0.7 2.8 2.5 5 5.2 6 2.9 1.1 6.4 0.5 9.4-1.2v14.2c-4.6-2.7-9.5-5.1-14.6-7v-12z m14.6 22.6v7.9c-0.5 0-1-0.1-1.4-0.3-2.1-0.8-3.1-3.1-2.3-5.1 0.6-1.6 2.1-2.5 3.7-2.5z m0 10.9c-4.6-2.3-9.5-4.3-14.6-5.9v6.4c5.1 1.4 10 3.2 14.6 5.3v-5.8z m-14.6-9c2.1 0 3.9-1.4 4.5-3.4 0.6-2.4-0.9-4.9-3.4-5.5-0.4-0.1-0.7-0.1-1.1-0.1v9z m-15.9-51.4c0.8 1.4 1.3 2.9 1.4 4.7 0.2 2.2-0.4 4.3-1.4 5.9v-10.6z m0 27.7v6.8c5.5 1 10.9 2.5 16 4.5v-12c-0.4-1.6-0.4-3.5 0-5.3v-13c-2.8 0.7-4.9 3.3-4.9 6.3 0 2.3 1.3 4.4 3.1 5.5-2.6 4.4-8.2 7.3-13.8 7.3-0.2-0.1-0.3-0.1-0.4-0.1zM617 462v9c-0.4 0-0.7 0-1.1-0.1-2.5-0.6-4-3.1-3.4-5.5 0.6-2 2.5-3.4 4.5-3.4z m0 12.2c-5.1-1.6-10.5-2.8-16-3.6v6.8c5.5 0.7 10.8 1.8 16 3.3v-6.5z m-15.9-6.6v-10.2h0.6c2.8 0.3 4.9 2.9 4.5 5.7-0.3 2.6-2.5 4.5-5.1 4.5z m-17.1-68c3.4 10.5 13.4 13.5 17.1 20.1v10.7c-2.7 4.4-8.8 6.1-14.6 1-0.1 0.6-0.1 1.1-0.1 1.7 0 7.8 6.6 14.2 14.7 14.4v6.8c-5.5-1-11.3-1.6-17.1-1.6v-53.1z m17.1 57.8v10.2h-0.6c-2.8-0.3-4.9-2.9-4.5-5.7 0.2-2.6 2.5-4.5 5.1-4.5z m0 13.2v6.8c-5.6-0.8-11.4-1.1-17.1-1.1v-6.9c5.7 0 11.4 0.4 17.1 1.2z m-17.1-3.8v-11.5c3.2 0 5.9 2.6 5.9 5.8-0.1 3.1-2.7 5.7-5.9 5.7z m0-14.1c-5.8 0-11.6 0.5-17.1 1.6v-6.8c8.1-0.2 14.7-6.6 14.7-14.4 0-0.6 0-1.1-0.1-1.7-5.8 5.1-11.9 3.3-14.6-1v-10.7c3.8-6.6 13.7-9.6 17.1-20.1v53.1z m0 2.6v11.5c-3.2 0-5.9-2.6-5.9-5.8 0-3.1 2.6-5.7 5.9-5.7z m0 14.1v6.9c-5.7 0-11.5 0.4-17.1 1.1v-6.8c5.6-0.8 11.3-1.2 17.1-1.2z m-17.1-1.8v-10.2c2.6 0 4.8 1.9 5.2 4.5 0.3 2.8-1.7 5.3-4.5 5.7h-0.7z m0-13.4c-5.5 1-10.8 2.5-16 4.5v-12.1c0.4-1.6 0.4-3.4 0-5.3v-13c2.8 0.7 4.9 3.3 4.9 6.2 0 2.3-1.3 4.4-3.1 5.5 2.6 4.4 8.2 7.3 13.8 7.3h0.4v6.9z m0-23.8v-10.7c-0.8 1.4-1.3 2.9-1.4 4.7-0.2 2.2 0.3 4.3 1.4 6z m0 27h-0.6c-2.8 0.3-4.9 2.9-4.5 5.7 0.3 2.6 2.6 4.5 5.2 4.5v-10.2h-0.1z m0 13.2v6.8c-5.5 0.7-10.8 1.8-16 3.3v-6.4c5.1-1.7 10.5-2.9 16-3.7z m-16 0.5c0.4 0 0.7 0 1.1-0.1 2.5-0.6 4-3.1 3.4-5.5-0.5-2-2.4-3.4-4.5-3.4v9z m0-12.4c-5.1 1.9-10 4.3-14.6 7v-14.2c3 1.6 6.5 2.3 9.4 1.1 2.7-1 4.5-3.3 5.2-6v12.1z m0-17.4c0-0.2-0.1-0.3-0.1-0.5-0.5 0.1-1 0.2-1.6 0.2-3.6 0-6.6-2.9-6.6-6.5s3-6.5 6.6-6.5c0.6 0 1.1 0.1 1.7 0.2v13.1z m0 20.7c-0.4 0-0.7 0-1.1 0.1-2.5 0.6-4 3.1-3.4 5.5 0.5 2 2.4 3.4 4.5 3.4v-9z m0 12.2v6.4c-5.1 1.4-10 3.2-14.6 5.3V480c4.6-2.3 9.5-4.2 14.6-5.8z m-14.6 2.8c0.5 0 1-0.1 1.4-0.3 2.1-0.8 3.1-3.1 2.3-5.1-0.6-1.6-2.1-2.5-3.7-2.5v7.9z m0-11.3c-1.8 1.1-3.5 2.2-5.3 3.4-1.7 1-2.7 0.1-3.1-0.8-3.6-12.9-12.4-23.6-23.3-29.4-3.6-1.9-1.7-4.2 1.2-3.8 10 1.6 19.7 6.7 27.4 14.2 0.9 0.9 1.9 1.6 3.1 2.2v14.2z m0 3.5c-0.5 0-1 0.1-1.4 0.3-2.1 0.8-3.1 3.1-2.3 5.1 0.6 1.6 2.1 2.5 3.7 2.5v-7.9z m0 10.9v5.9c-0.3 0.2-0.7 0.3-1 0.5-5.2 2.5-7.1-1.9-1.9-4.8 0.9-0.6 1.9-1.1 2.9-1.6zM497.1 520.4c4.4-3.1 7.9-6.7 10.3-10.8 2.5-4.1 3.7-8.4 3.7-12.9 0-1.3-0.4-2.6-1.1-3.8-0.7-1.2-1.8-2.3-3.1-3.2-1.3-0.9-2.8-1.6-4.5-2.1-1.7-0.5-3.6-0.8-5.5-0.8H463c-13.2 0-24.5 3.3-33.9 9.9-9.4 6.5-14 14.4-14 23.7v23.7c0 2.7 1.4 5.1 4.2 7 2.8 1.9 6.1 2.9 9.9 2.9 2 0 3.9-0.3 5.6-0.8 1.7-0.5 3.2-1.2 4.5-2.1 1.3-0.9 2.3-1.9 3-3.1 0.7-1.2 1.1-2.5 1.1-3.9v-23.7c0-3.8 1.9-7.1 5.7-9.7 3.9-2.7 8.6-4.1 14-4.1H477c-3.8 2.6-8.4 3.9-13.9 3.9-2 0-3.8 0.3-5.5 0.8-1.7 0.5-3.2 1.2-4.4 2.1-1.3 0.9-2.3 2-3 3.2-0.7 1.2-1.1 2.5-1.1 3.8 0 2.7 1.4 5.1 4.2 7 2.8 1.9 6.1 2.9 9.9 2.9 5.5 0 10.1 1.4 14 4.1 3.9 2.7 5.8 6 5.8 9.7 0 2.7 1.4 5.1 4.2 7 2.8 1.9 6.1 2.9 9.9 2.9 1.9 0 3.7-0.3 5.5-0.8 1.7-0.5 3.2-1.2 4.5-2.1 1.3-0.9 2.3-2 3.1-3.1 0.7-1.2 1.1-2.5 1.1-3.9 0-4.5-1.2-8.9-3.7-12.9-2.7-4.1-6.1-7.7-10.5-10.8z m137.2 0c0-9.3-4.7-17.2-14.2-23.7-9.4-6.6-20.7-9.9-33.9-9.9s-24.5 3.3-33.9 9.9c-9.4 6.5-14 14.4-14 23.7 0 9.3 4.7 17.3 14 23.8 9.4 6.5 20.7 9.8 33.9 9.8 13.3 0 24.6-3.3 33.9-9.8 9.5-6.6 14.2-14.5 14.2-23.8z m-28.2 0c0 3.9-1.9 7.2-5.8 9.8-4 2.7-8.7 4-14 4-5.4 0-10-1.3-14-4-3.8-2.8-5.7-6.1-5.7-9.8 0-3.8 1.9-7.1 5.7-9.7 3.9-2.7 8.6-4.1 14-4.1 5.5 0 10.1 1.4 14 4.1 3.8 2.7 5.8 6 5.8 9.7z m114.6 8.4c9.7-2.1 17.8-6.1 24.3-12.1 6.4-5.9 9.6-12.6 9.6-20 0-1.3-0.4-2.6-1.1-3.8-0.7-1.2-1.8-2.3-3.1-3.2-1.3-0.9-2.8-1.6-4.5-2.1-1.7-0.5-3.6-0.8-5.5-0.8-2 0-3.8 0.3-5.5 0.8-1.7 0.5-3.2 1.2-4.4 2.1-1.3 0.9-2.3 2-3 3.2-0.7 1.2-1.1 2.5-1.1 3.8 0 3.9-1.9 7.2-5.8 9.8-4 2.7-8.7 4-14 4-5.4 0-10-1.3-14-4-3.8-2.8-5.7-6.1-5.7-9.8 0-1.3-0.4-2.6-1.1-3.8-0.7-1.2-1.8-2.3-3.1-3.2-1.3-0.9-2.8-1.6-4.5-2.1-1.7-0.5-3.6-0.8-5.5-0.8-2 0-3.8 0.3-5.5 0.8-1.7 0.5-3.2 1.2-4.4 2.1-1.3 0.9-2.3 2-3 3.2-0.7 1.2-1.1 2.5-1.1 3.8 0 7.5 3.2 14.2 9.5 20.1 6.4 5.9 14.6 9.9 24.4 12v15.4c0 2.7 1.4 5.1 4.2 7 2.8 1.9 6.1 2.9 9.9 2.9 1.9 0 3.7-0.3 5.5-0.8 1.7-0.5 3.2-1.2 4.5-2.1 1.3-0.9 2.3-2 3.1-3.1 0.7-1.2 1.1-2.5 1.1-3.9v-15.4h-0.2z m154.2-8.4c0-9.3-4.7-17.2-14.2-23.7-9.4-6.6-20.7-9.9-33.9-9.9s-24.5 3.3-33.9 9.9c-9.4 6.5-14 14.4-14 23.7v23.7c0 2.7 1.4 5.1 4.2 7 2.8 1.9 6.1 2.9 9.9 2.9 2 0 3.9-0.3 5.6-0.8 1.7-0.5 3.2-1.2 4.5-2.1 1.3-0.9 2.3-1.9 3-3.1 0.7-1.2 1.1-2.5 1.1-3.9v-23.7c0-3.8 1.9-7.1 5.7-9.7 3.9-2.7 8.6-4.1 14-4.1 5.5 0 10.1 1.4 14 4.1 3.9 2.7 5.8 6 5.8 9.7v23.7c0 2.7 1.4 5.1 4.2 7 2.8 1.9 6.1 2.9 9.9 2.9 1.9 0 3.7-0.3 5.5-0.8 1.7-0.5 3.2-1.2 4.5-2.1 1.3-0.9 2.3-2 3.1-3.1 0.7-1.2 1.1-2.5 1.1-3.9v-23.7h-0.1z m-33.9 0c0 1.4-0.4 2.7-1.1 3.9-0.7 1.2-1.8 2.2-3.1 3.1-1.3 0.9-2.8 1.6-4.5 2.1-1.7 0.5-3.6 0.8-5.5 0.8-3.8 0-7.1-1-9.9-2.9-2.8-1.9-4.2-4.3-4.2-7 0-1.3 0.4-2.6 1.1-3.8 0.7-1.2 1.7-2.3 3-3.2 1.3-0.9 2.7-1.6 4.4-2.1 1.7-0.5 3.5-0.8 5.5-0.8 1.9 0 3.7 0.3 5.5 0.8 1.7 0.5 3.2 1.2 4.5 2.1 1.3 0.9 2.3 2 3.1 3.2 0.9 1.2 1.2 2.5 1.2 3.8z m158.5 23.7c0-1.3-0.4-2.6-1.1-3.8-0.7-1.2-1.8-2.3-3.1-3.2-1.3-0.9-2.8-1.6-4.5-2.1-1.7-0.5-3.6-0.8-5.5-0.8h-53.7v-37.5c0-1.3-0.4-2.6-1.1-3.8-0.7-1.2-1.8-2.3-3.1-3.2-1.3-0.9-2.8-1.6-4.5-2.1-1.7-0.5-3.6-0.8-5.5-0.8-2 0-3.8 0.3-5.5 0.8-1.7 0.5-3.2 1.2-4.4 2.1-1.3 0.9-2.3 2-3 3.2-0.7 1.2-1.1 2.5-1.1 3.8v47.4c0 2.7 1.4 5.1 4.2 7 2.8 1.9 6.1 2.9 9.9 2.9h67.8c1.9 0 3.7-0.3 5.5-0.8 1.7-0.5 3.2-1.2 4.5-2.1 1.3-0.9 2.3-2 3.1-3.1 0.8-1.2 1.1-2.5 1.1-3.9zM528.8 596.1H523v-26h5.8v10.3h10.3v-10.3h5.9v26h-5.8v-11.4h-10.5v11.4h0.1z m41.5-26h5.9v16.3c-0.3 6.5-4.2 9.8-11.8 10-7.8-0.2-11.8-3.5-12-10v-16.3h5.9v14.2c-0.4 5.8 1.6 8.6 6.1 8.3 4.2 0.3 6.2-2.5 5.9-8.3v-14.2z m16.9 26h-5.6l9.9-26h6.9l9.6 26h-5.9l-2.1-5.5h-10.8l-2 5.5z m3.5-9.9h7.8l-3.7-11.1h-0.2l-3.9 11.1z m46.8 9.9h-8.4l-10.6-21.7-0.1 0.1V596h-5.5v-26h8.7l10.3 20.5 0.1-0.1V570h5.5v26.1z m25.2-9.6h-5.3v-4.4h11.1v13.1c-2 0.6-4 0.8-6 0.8-1.6 0.2-3.6 0.3-6.2 0.3-8.4-0.4-12.6-4.8-12.8-13.2 0.2-8.4 4.5-13 12.8-13.7 8.5 0 12.7 2.8 12.7 8.4h-6.2c0-2.9-1.8-4.4-5.5-4.4-5.1 0.2-7.7 3.4-7.7 9.6 0 6.2 2.6 9.3 7.7 9.4 1.5 0 3.2-0.1 5.2-0.4 0.1 0 0.2 0 0.3-0.1v-5.4h-0.1z m31.8-16.4h5.8v17.5c-0.2 5.7-3.2 8.7-9.1 8.9-5.8 0.1-8.9-2.8-9.1-8.6h5.9c0 3.2 1.1 4.8 3.2 4.8 2 0 3-1.6 3.2-4.8 0-0.1 0-0.2 0.1-0.4v-17.4z m18.5 0v26h-5.9v-26h5.9z m10.3 26h-5.6l9.9-26h6.9l9.6 26h-5.9l-2.1-5.5h-10.8l-2 5.5z m3.6-9.9h7.8l-3.7-11.1h-0.2l-3.9 11.1z m48.8 0.3h-5.3v-4.4h11.1v13.1c-2 0.6-4 0.8-6 0.8-1.6 0.2-3.6 0.3-6.2 0.3-8.4-0.4-12.6-4.8-12.8-13.2 0.2-8.4 4.5-13 12.8-13.7 8.5 0 12.7 2.8 12.7 8.4h-6.2c0-2.9-1.8-4.4-5.5-4.4-5.1 0.2-7.7 3.4-7.7 9.6 0 6.2 2.6 9.3 7.7 9.4 1.5 0 3.2-0.1 5.2-0.4 0.1 0 0.2 0 0.3-0.1v-5.4h-0.1z m31.3-16.4h5.9v16.3c-0.3 6.5-4.2 9.8-11.8 10-7.8-0.2-11.8-3.5-12-10v-16.3h5.9v14.2c-0.4 5.8 1.6 8.6 6.1 8.3 4.2 0.3 6.2-2.5 5.9-8.3v-14.2z m25.6 26.3c-8.6-0.2-12.9-4.6-13.1-13.2 0.2-8.8 4.6-13.4 13.1-13.7 8.4 0.3 12.7 4.8 13 13.7-0.3 8.6-4.6 13-13 13.2z m0-22.8c-4.7 0-7 3.2-6.9 9.6-0.1 6.4 2.2 9.5 6.9 9.4 4.5 0 6.8-3.1 6.8-9.4 0-6.4-2.3-9.6-6.8-9.6z m37.9-3.5h5.8v17.5c-0.2 5.7-3.2 8.7-9.1 8.9-5.8 0.1-8.9-2.8-9.1-8.6h5.9c0 3.2 1.1 4.8 3.2 4.8 2 0 3-1.6 3.2-4.8 0-0.1 0-0.2 0.1-0.4v-17.4z m18.5 0v26h-5.9v-26h5.9zM903.7 578.6h96.3v8.1h-96.3zM409.4 578.6h96.3v8.1h-96.3z" p-id="4714"></path></svg>