<?xml version="1.0" standalone="no"?><!DOCTYPE svg PUBLIC "-//W3C//DTD SVG 1.1//EN" "http://www.w3.org/Graphics/SVG/1.1/DTD/svg11.dtd"><svg t="1575514236207" class="icon" viewBox="0 0 1024 1024" version="1.1" xmlns="http://www.w3.org/2000/svg" p-id="3761" xmlns:xlink="http://www.w3.org/1999/xlink" width="200" height="200"><defs><style type="text/css"></style></defs><path d="M611.1 476.2v69.9h-15.4v-90.9h25.7c7.7 21.1 15.5 42.5 23.5 64.3 7.3-20.4 14.5-40.3 21.5-60.3 1.2-3.4 2.7-4.7 6.3-4.5 6.9 0.3 13.8 0.1 21.2 0.1v91.3h-16V476c-0.4-0.1-0.7-0.2-1.1-0.2-3.5 9.1-7 18.2-10.4 27.3-4.9 13.1-9.8 26.1-14.4 39.2-1.5 4.3-4.5 4.5-8.1 4.5-3.4-0.1-5.6-0.3-7-4.5-7.5-21.8-15.7-43.3-23.6-65-0.2-0.6-0.5-1.2-0.7-1.8-0.5 0.1-1 0.4-1.5 0.7zM877 455.3v90.4c-0.8 0.4-1.2 0.8-1.6 0.8-19.4 0.3-19.1 0.2-28.9-16.7-10-17.3-20.7-34.3-31.9-52.7v69.1h-16.4v-91.6c6.1 0 12.4-0.6 18.5 0.3 2.3 0.3 4.7 3.6 6.3 6.1 11.6 18.4 23 36.9 34.5 55.4 0.7 1.1 1.6 2.1 3.2 4.2v-56c0-9.7 0-9.7 9.5-9.3 2.2 0.1 4.5 0 6.8 0zM421.1 530.3v-17.9c0-1.4-0.1-2.7-0.2-4.5h-18c-0.4-1-0.9-1.6-0.9-2.2 0.3-12.1 0.3-12.1 12.7-12.1h22.7v48.7c-21.4 6.8-43.2 11.3-64.4-2.6-11.6-7.6-17.1-18.6-19.1-32.5-3.5-23.8 9.6-42.5 25.8-50 14.3-6.7 45.5-6.4 58.2 7.4-3.7 3.9-7.5 7.8-11.2 11.7-18.2-14-35-10.3-45.6-0.3-10.8 10.2-12 31.9-3.4 44.8 8.2 12.3 24.9 16.3 43.4 9.5zM984.6 507.5h-19.2v-13.4h34v47.5c-19.2 7.3-38.5 9.9-58.4 1-17.2-7.7-27.3-31.4-24.2-49.7 2.9-17 11.4-29.3 26.6-35.7 19.4-8 38.6-6 57.4 6.7-4.6 3.9-8.8 7.4-13.2 11.1-8.7-5.5-18.2-9.9-30.1-6.8-18 4.6-25.1 23.3-23 36.2 3.5 21.3 15.1 29.2 33.9 28.6 16-0.5 16-1 16-17 0.2-2.5 0.2-5 0.2-8.5zM536 525.9h-39.3c-1.6 3.9-3.6 7.6-4.5 11.6-1.8 8.3-7 10.4-14.5 9.2-2-0.3-4.1 0-7.6 0 2.7-6.5 5-12.2 7.4-17.9 10-23.3 20.2-46.5 30.1-69.8 1.4-3.3 3-4.7 6.6-4.3 3 0.3 6 0.1 9.7 0.1 13 30.1 26 60.4 39.4 91.3h-19c-2.6-6.3-5.4-13-8.3-20.2z m-19.6-51.2c-5.1 13.2-9.6 24.8-14.1 36.6H530c-4.5-12.1-8.8-23.6-13.6-36.6zM737.7 546.5c0-29.7-0.1-58.6 0.2-87.5 0-1.4 2.4-2.9 3.8-4.2 0.4-0.3 1.3-0.1 2-0.1 10.7-0.2 10.7-0.2 10.7 10.2 0 24.2 0 48.3-0.1 72.5 0 9.3 0 9.3-9.6 9.2-1.9-0.2-4-0.1-7-0.1z" p-id="3762"></path><path d="M83.4 391.9c0.6-11.9 7.7-17.3 13.3-23.7 1.7-1.9 3.4-3.9 4.5-6.2 0.8-1.8 0.7-4.1 1-6.2-2.3-0.2-5.5-1.6-6.7-0.5-8.3 6.8-16.9 13.5-24.1 21.5-17.2 19.3-9.5 38.7 5.6 56.8 11.7 14 25.4 26.2 37.7 39.7 9 9.9 16.7 20.9 17.2 35.1 10.9-6.6 22-13.1 32.8-20 1.5-0.9 2.2-3.4 2.8-5.4 12.7-37.3 24.5-74.9 31.6-113.7 2.9-16 7.3-32.1 3.5-48.8-0.4-1.7 1.5-5.4 2.8-5.7 2.9-0.6 6.8-0.7 9.1 0.9 6.3 4.2 12 9.4 18.1 14.2-2.6 21-3.2 42.2 0.7 63.5 4 21.8 8 43.6 11.5 65.4 1.5 9.3 9.3 5.9 14.2 8.1 2.6 1.1 5.7 1.2 8.4 2.5-6 0.6-11.9 1.1-19 1.8 4.1 13.3 8 25.6 11.7 37.4 15.7-7.7 31-15.2 46.2-22.7 0.3 0.6 0.7 1.2 1 1.9-10.7 7.2-21.4 14.6-32.3 21.7-11.8 7.8-12.1 7.8-7.5 21 10.1 29.1 20.3 58.1 30.6 87.1 3.7 10.5 7.8 20.9 11.4 31.5 3.5 10.2-1 21.9-10.7 28.6-7 4.8-16.7 5.2-25.6-3-21.5-19.8-43.1-39.5-63.9-60-9.5-9.3-15.7-21.4-16.7-34.9-1.2-15.7 6.2-28.6 16.8-39.3 6.9-6.9 14.7-12.9 22.8-18.3 3.2-2.1 3.2-3.7 2.4-6.4-4-13.1-8-26.2-12.2-39.9-9 3.6-18.2 7.7-27.7 10.9-8.4 2.8-12.2 8.6-15.5 16.5-4.7 11.2-11.1 21.9-17.9 32-3.9 5.8-10.4 9.3-18.3 6.4 5.2-10.7 10.3-21.2 15.4-31.7-0.5-0.5-1-1-1.4-1.5-6.6 4.9-13.6 9.2-19.5 14.7-12.1 11.3-23.7 23.2-35.5 34.9-13.4 13.6-29 24.3-47.2 29.9-7.4 2.3-16.3 1.8-24.1 0.3-9.5-1.8-12.6-14.5-6.7-23 9.1-12.9 22.8-19.8 35.9-27.2 5.4-3 11.4-5.3 17.3-7.2 2.3-0.8 5.2 0.2 7.8 0.4 0.3 1 0.6 2.1 0.9 3.1-9.7 7.6-19.3 15.2-29.9 23.4 14.7 3.2 31.9-6.1 35.7-18.3 0.5-1.6-1.4-3.8-1.3-5.7 0.1-3.2-0.3-7.3 1.5-9.4 8.5-9.8 9.1-14.4 0.1-24.1-8.1-8.7-17-16.6-25.2-25.1-11.2-11.5-23.3-22.5-32.9-35.2-13.6-18.1-12.9-38-0.9-56.9 17.2-27 41.2-46.8 69.9-60.5 8.4-4.1 17.8-6.8 27-8.5 7.9-1.4 12.4 4.2 13.2 12.3 1.5 14.7-4.2 26.2-15.4 35.2-11.1 8.8-22.4 17.5-33.9 25.9-2.6 2-6 2.6-10.4 4.4z m195 265c0.4-0.2 0.7-0.4 1.1-0.6-13.4-42.2-26.7-84.5-40.6-128.4-8.9 9.3-17.5 16.9-24.3 25.8-9.3 12.1-11.5 26.8-0.5 40.7 5.4 6.8 11.1 13.5 17.4 19.5 15.3 14.5 31.2 28.7 46.9 43z m-57.1-189.8c-4-19.2-7.9-38.3-12-58-7 22.9-13.8 45-20.7 67.6 10.9-3.2 21.3-6.3 32.7-9.6z" p-id="3763"></path><path d="M315.8 469.4c-6 7.5-22.3 7.3-27.2-0.3-2.3-3.6-0.2-7.1 4.5-7.7 6.4-0.8 16.1 2.7 22.7 8z" p-id="3764"></path></svg>