<?xml version="1.0" standalone="no"?><!DOCTYPE svg PUBLIC "-//W3C//DTD SVG 1.1//EN" "http://www.w3.org/Graphics/SVG/1.1/DTD/svg11.dtd"><svg t="1575512293105" class="icon" viewBox="0 0 1024 1024" version="1.1" xmlns="http://www.w3.org/2000/svg" p-id="2864" xmlns:xlink="http://www.w3.org/1999/xlink" width="200" height="200"><defs><style type="text/css"></style></defs><path d="M701.4 231.8c41.4 0 82.8 0.7 124.2-0.2 36.8-0.8 75.6 31.8 75.9 74.6 0.7 83.1 0.5 166.3 0.1 249.4-0.2 40-34.4 73.3-74.6 73.4-82.8 0.3-165.6 0.2-248.5 0-39.4-0.1-74.4-34.4-74.2-79.5 0.4-78.6 0.1-157.2 0.2-235.8 0-5.6 0.3-11.3 0.8-16.9 3.1-35.9 34.6-65.1 70.6-65.1 41.8 0 83.6 0.1 125.5 0.1z m0.2 376.8h121.6c33.7 0 57.9-23.9 57.9-57.5 0.1-81 0.1-162 0-242.9 0-33.9-22.9-56.5-56.9-56.5H583.6c-34.6 0-58.7 23.8-58.8 58.3-0.1 80.8-0.1 161.5 0 242.3 0 33.4 23.1 56.3 56.4 56.4 40.2-0.1 80.3-0.1 120.4-0.1zM285.5 231.8c41.2 0 82.4 0.7 123.6-0.2 31.9-0.7 65.9 23.3 74.4 59.3 1.4 6 2.2 12.4 2.2 18.6 0.1 81.2 0.2 162.4 0.1 243.6-0.1 42.3-33.7 76-76 76.1-81.9 0.1-163.9 0.1-245.8 0-41-0.1-74.8-34.1-74.8-75 0-83.4 0.1-166.7-0.1-250.1-0.1-39 34.3-73.3 72.3-72.4 41.2 0.8 82.7 0.1 124.1 0.1z m179.7 198c0-40.7 0.1-81.4 0-122.1-0.2-33.3-22.8-55.9-56.1-56-81.1-0.1-162.2-0.2-243.2 0.2-9 0.1-18.8 2.3-26.8 6.4-21.1 10.8-30.2 29.5-30.2 52.8-0.1 55.6 0 111.3 0 166.9 0 24.7-0.2 49.4 0.1 74 0.4 34.2 22.9 56.5 57 56.5 80.6 0.1 161.3 0 241.9 0 4.3 0 8.7-0.1 12.9-1.1 27.6-6.7 44.4-27.9 44.5-56.2 0.1-40.5-0.1-81-0.1-121.4zM631.3 728.1c12.9 8.4 9.6 21.1 9.1 32.6-0.3 6.9-5.7 11.1-12.1 13-4.3 1.3-8.9 2-13.4 2.1-22.3 0.2-44.7 0.1-67 0.1-8.2 0-9.6-1.5-9.6-10 0-25.8 0.2-51.5-0.2-77.3-0.1-6 1.8-7.2 7.4-7.1 23.2 0.3 46.4 0.2 69.6 0.1 10.2-0.1 19.3 2 23.6 12.4 4.8 11.8 1.8 25.8-7.4 34.1z m-41.3 8.4c-7.1 0-14.3-0.3-21.4 0.1-1.9 0.1-5.3 2.4-5.3 3.7 0 5.1 1 10.2 1.8 15.3 0 0.2 1.2 0.3 1.8 0.3 14.9-0.1 29.9 0.1 44.8-0.3 8-0.2 5.4-6.8 5.8-11.3 0.5-4.4-0.6-7.8-6-7.8H590z m0.1-36.1h-15c-13.1 0.1-12-2.3-12.3 12-0.1 4.9 1.8 5.8 6.1 5.7 9.7-0.2 19.5-0.1 29.3-0.1 4.3 0 8.7 0.2 13-0.3 8-0.9 5.6-7.2 5.9-12.1 0.4-5.2-3.3-5.3-6.9-5.3-6.7 0.1-13.4 0.1-20.1 0.1zM173.3 701.1c-17 0-33.7-0.1-50.3 0.2-1.5 0-3.9 2.8-4.3 4.6-0.7 3.1-0.2 6.4-0.2 10.5 2.4 0.2 4.6 0.6 6.9 0.6 15.4 0 30.8 0 46.2 0.1 3.9 0 7.8 0.5 11.6 1.1 6.6 1.1 12.3 5.4 12.8 11.4 1 12.3 0.9 24.9-0.8 37.2-1 7.5-9.3 8.8-15.8 8.9-22.3 0.4-44.7 0.6-67 0-13.3-0.3-21.2-10.7-19.5-23.9 0.1-1 0.4-2.8 0.9-2.9 6.2-1.3 12.5-2.6 18.9-3 1 0 2.2 5.1 3.6 8.7h59.1c0-4.3 0.5-8.9-0.3-13.2-0.3-1.5-3.8-3.5-5.9-3.5-16-0.3-32.1-0.1-48.1-0.2-18.5-0.1-24.4-6.1-24.4-24.6 0-6.3-0.1-12.6 1-18.7 1.5-8.1 6.8-12.4 16.6-12.6 21-0.4 42.1-0.5 63.1 0 11.7 0.3 17.4 6.7 19.2 18.2 0.7 4.6-0.9 7-5.3 7.9-1.9 0.4-3.8 0.9-5.7 1.3-10.4 2.6-10.4 2.6-12.3-8.1zM408.7 716.5v9.1c0 14.5-0.1 29 0.1 43.5 0.1 5.1-1.9 7-6.9 6.9-13.8-0.2-16.4 1.8-16.1-15.3 0.5-24 0.2-48 0-72.1-0.1-5.3 1.3-7.2 6.9-7.1 5.6 0.1 10.3 1 14.8 4.9 19.4 16.6 39 32.9 58.6 49.3 2.3 1.9 4.4 3.9 7.5 6.5v-12.5c0-14.1 0.1-28.1-0.1-42.2-0.1-4.4 1.1-6.1 5.9-6 16.7 0.4 17-2.6 16.8 16.9-0.2 22.1 0.1 44.1-0.2 66.2 0 3.6-1.2 10-2.5 10.1-5 0.7-11.3 1-15.3-1.5-7.5-4.5-13.9-10.9-20.7-16.6-14.4-12.1-28.7-24.3-43.1-36.5-1.4-0.9-2.9-1.7-5.7-3.6zM702.8 755.3h11.4c17.6 0 35.1 0.2 52.7-0.1 6-0.1 8.4 2.4 8.1 8.1-0.1 1.7-0.2 3.5 0 5.2 0.7 5.8-2 7.6-7.6 7.5-26.9-0.2-53.8 0-80.6-0.1-7.4 0-9-1.9-9-9.3 0-26 0.1-52-0.1-77.9 0-5.1 1-7.2 6.7-7.2 27.3 0.3 54.6 0.2 81.9 0 6 0 8.4 2.4 8 8.2-0.1 1.7-0.2 3.5 0 5.2 0.5 4.5-1.4 6.1-6 6-19.3-0.2-38.6-0.2-57.9 0-2.5 0-6.9 1-7.1 2.3-0.9 4.1-0.5 8.5 0 12.8 0.1 0.6 3.4 1.2 5.2 1.3 9.3 0.1 18.6 0 28 0.1 6.9 0 7.5 1.5 7.9 11.6 0.2 5.9-2.2 7.5-7.7 7.4-9.1-0.3-18.2 0.1-27.3-0.2-5.2-0.2-7.1 1.8-6.7 6.8 0.3 3.6 0.1 7.3 0.1 12.3zM319.1 754.8v-73c6.9 0 13.4-0.5 19.7 0.3 1.8 0.2 4.4 4.3 4.4 6.6 0.3 22.9 0.2 45.9 0 68.8-0.2 11.8-6.2 18.1-18.2 18.3-22.5 0.4-45.1 0.4-67.6 0-12.1-0.2-19-7.2-19.2-19.3-0.4-24.6-0.1-49.3-0.1-74.8 6.9 0 13.3-0.4 19.7 0.1 4.5 0.4 5.3 4.1 5.3 8.2-0.1 20.3-0.1 40.7-0.1 61v3.7c18.6 0.1 37.1 0.1 56.1 0.1zM789.8 681.7H889.1c7.5 0 8.8 1.4 8.8 10 0 9.4-0.3 9.8-8.5 9.8-8.5 0-16.9 0.4-25.4-0.1-6.2-0.4-8.4 1.7-8.3 8 0.3 19.7-0.1 39.4 0.3 59.1 0.1 5.8-2 7.6-7.5 7.5-17.3-0.2-17.8 1.4-17.4-17.2 0.3-16.7-0.1-33.3 0.2-50 0.1-5.5-1.1-7.8-7.2-7.5-9.1 0.5-18.2 0-27.3 0.2-5.3 0.1-7.6-2-7.1-7.4 0.4-3.8 0.1-7.7 0.1-12.4z" p-id="2865"></path><path d="M689.2 501.6c12.6 7.1 25.2 14.2 37.8 21.1 6.9 3.8 7.1 4.3 3.2 10.7-9.8 16.2-9.8 16.2-26 7-12.1-6.8-24.1-13.8-36.2-20.4-5-2.7-5.9-5.5-2.2-10.1 2.3-2.7 3.9-6 6-9.4-18.1-0.5-16.4 1.4-16.4-16.5 0-2.6-0.4-5.3 0.1-7.8 0.5-2.6 1.8-5.1 3.2-8.6v-71c-7.8 0-14.2 0.1-20.7 0-4-0.1-5.4 1.8-5.3 5.6 0.1 3.7 0 7.4 0 11 0 45.3-0.1 90.5 0.1 135.8 0 6-1.8 8.3-7.8 7.8-4.1-0.4-8.2-0.2-12.4-0.1-5.4 0.2-7.7-2-7.7-7.7 0.2-48.1 0-96.2 0.3-144.2 0-6.8-2-8.4-8.5-8.2-21.6 0.4-18.1 1.6-18.3-18.3-0.1-9 0-9 9.2-9h17.3v-53.7c0-12.8-1.5-11.2 11.5-11.4 18.6-0.3 16.1 0 16.1 16.1 0 14.3 0.2 28.6-0.1 42.9-0.1 5 1.6 6.4 6.3 6.2 8-0.3 16 0.2 24.1-0.1 2.1-0.1 4.6-1.2 6.1-2.7 4.7-4.5 10.3-6.1 16.6-6 11.1 0.1 22.1 0.1 33.2-0.1 1.6 0 3.2-1.6 4.8-2.5-1.7-0.9-3.4-2.5-5.1-2.6-18.4-0.2-36.9-0.3-55.3 0-6 0.1-8.3-2.3-8-8.1 0.3-5.2 0.4-10.4 0-15.6-0.4-5.3 1.4-7.2 6.9-7.1 18.2 0.3 36.4 0.1 54.6 0.1 2.1 0 4.2-0.2 6.7-0.3v-20.2c8.8 0 17.2-0.3 25.5 0.3 1.7 0.1 4 3.7 4.4 6 0.7 4.2 0.2 8.6 0.2 13.6 2.1 0.2 4.1 0.6 6.2 0.6 8.5 0.1 16.9 0.1 25.4 0 7.8 0 12.8-4.7 12.1-12.5-0.6-6.9 1.8-8.8 8.3-8.2 5.2 0.5 10.4 0 15.6 0 4.2 0 6.1 2.3 6.5 6.4 2.5 25-21.3 47.1-41.6 44.9-8.8-1-17.8-0.3-26.6-0.1-2.1 0-4.3 1.2-6.4 1.8l0.3 2.4c2.2 0.3 4.3 1 6.5 1 10.8 0.2 21.7 0.1 32.5 0.4 13.5 0.4 27 8.6 26.5 27.9-0.7 24.9-0.1 49.8-0.2 74.7 0 4.4 0.4 7 5.8 6.5 3.8-0.4 6 2.1 6 6 0 6.5 0.3 13-0.2 19.5-0.1 1.7-2.8 3.3-4.5 4.8-0.4 0.3-1.3 0-1.9 0.1-14.2 0.3-14.4 0.3-14.1 14.9 0.3 15.9-4.7 29.1-18.9 37.3-4 2.3-8.9 3.7-13.5 3.9-11.7 0.5-23.4 0.1-35.1 0.2-4.9 0-7.2-1.8-7-6.9 0.3-7.3 0.1-14.7 0.1-23.3h15.6c6.9 0 13.9-0.2 20.8 0.1 5 0.2 7.5-2.1 7.7-6.6 0.3-6.2 0.1-12.5 0.1-19.3h-89.9c0.1 0.3-0.1 0.6-0.3 1z m34.4-32.1c0-4.1-0.2-7.7 0-11.3 0.2-3.9-1.3-5.5-5.3-5.3-5 0.2-10 0-15 0.1-16 0.3-14.7-2.8-14.5 15 0 0.4 0.4 0.7 0.8 1.5h34z m63.9-8.3c1.9-7.4 1.4-8.2-5.6-8.2h-13c-17.7 0.1-14.8-1.6-15.1 15.2 0 0.3 0.4 0.7 0.9 1.4h24.9c0.2-2.8 0.5-5.3 0.7-8 2.4-0.1 4.5-0.3 7.2-0.4zM723.6 399c0-4.2 0.3-7.5-0.2-10.6-0.2-1.4-2.1-3.5-3.3-3.5-9-0.3-18.1-0.3-27.2-0.2-5 0.1-4.3 4-4.1 7.1 0.1 2.8-1.8 7.1 3.7 7.2 10.2 0.1 20.3 0 31.1 0z m64.8 0c0-4.1 0.3-7.6-0.2-10.9-0.2-1.3-2.2-3.3-3.4-3.3-8.9-0.2-17.8-0.2-26.6 0-5.9 0.1-4.1 4.9-4.5 8.2-0.3 3.3 0 6.1 4.5 6h30.2z m-62.9 35.5c-2.1-4.8-3.3-10.7-5.1-10.9-9.2-1-18.5-0.7-27.7-0.1-1.4 0.1-3.2 4.2-3.6 6.6-0.2 1.3 2.2 4.2 3.5 4.2 10.1 0.4 20.2 0.2 32.9 0.2z m62.3-0.5c1.5-10.8 1.4-10.9-8.6-10.9H763c-9.7 0-9.9 0.3-8.9 10.9h33.7zM278 333.9c0-8.6 0.3-16.2-0.1-23.7-0.3-5 1.7-6.5 6.4-6.2 4.1 0.3 8.2 0.1 12.4 0.1 7.6 0 8.8 1.1 8.8 8.4v20.8c2.5 0.2 4.7 0.5 7 0.5 14.5 0 29.1-0.1 43.6 0 23.3 0.1 40.8 17.3 40.9 40.5 0.1 31.2 0.1 62.4 0 93.5-0.1 24.1-18 41.6-42.2 41.6-14.3 0-28.6 0.1-42.9-0.1-4.7-0.1-6.6 1.4-6.5 6.3 0.2 11.5-0.1 23 0.2 34.4 0.1 4.8-1.6 6.8-6.4 6.5-4.8-0.3-9.5-0.1-14.3 0-4.9 0-7-2.2-6.9-7.2 0.2-11.5-0.1-23 0.2-34.4 0.1-4.3-1.4-5.6-5.7-5.5-16.3 0.2-32.5 0.1-48.8 0.1-19.9 0-37.7-16-39.8-35.9-0.3-2.8-0.5-5.6-0.5-8.4 0-30.7 0.4-61.5-0.1-92.2-0.3-20.6 14.7-40.5 39.5-39.3 16 0.8 32.1 0.1 48.1 0.1 2.1 0.1 4.2 0.1 7.1 0.1z m0 79.7c0-14.5-0.1-27.8 0.1-41.2 0.1-4.2-1.4-5.6-5.7-5.6-16.9 0.2-33.8 0.2-50.7 0-6.2-0.1-8.5 2.5-8.3 8.6 0.3 9.1 0.1 18.2 0.1 27.2 0 11 0 11 10.9 11H278z m88.7 0c0-14.2-0.1-27.4 0-40.6 0-4.5-2-6.2-6.3-6.2-16.5 0.1-33 0.1-49.4 0-3.9 0-5.5 1.5-5.5 5.4 0.1 12.3-0.1 24.7 0.2 37 0 1.5 2.5 4.2 3.9 4.2 18.7 0.3 37.5 0.2 57.1 0.2z m-88.7 68c0-13.4 0.2-25.9-0.2-38.4 0-1.7-2.6-4.7-4-4.7-18.4-0.3-36.8-0.3-55.2 0-1.7 0-4.8 2.3-4.8 3.6-0.1 11.2 0.1 22.4 0.6 33.7 0.2 4.7 3.4 6.4 8.1 6.4 16.7-0.1 33.3 0 50-0.1 1.6-0.2 3.3-0.4 5.5-0.5z m58.8-43.4c-8.2 0-16.5 0.2-24.7-0.1-5.1-0.2-7 1.5-6.8 6.7 0.3 10.4 0.3 20.7 0 31.1-0.2 5 1.9 6.2 6.5 6.1 13.4-0.2 26.8-0.1 40.2-0.1 10 0 13.8-3.2 14.3-13.2 0.5-8.6 0.1-17.3 0.3-25.9 0.1-3.8-1.7-4.7-5.2-4.7-8.1 0.3-16.3 0.1-24.6 0.1z" p-id="2866"></path></svg>