<?xml version="1.0" standalone="no"?><!DOCTYPE svg PUBLIC "-//W3C//DTD SVG 1.1//EN" "http://www.w3.org/Graphics/SVG/1.1/DTD/svg11.dtd"><svg t="1574758772520" class="icon" viewBox="0 0 1024 1024" version="1.1" xmlns="http://www.w3.org/2000/svg" p-id="3255" xmlns:xlink="http://www.w3.org/1999/xlink" width="200" height="200"><defs><style type="text/css"></style></defs><path d="M212.2 496.1m-14.2 0a14.2 14.2 0 1 0 28.4 0 14.2 14.2 0 1 0-28.4 0Z" p-id="3256"></path><path d="M212.2 434.8m-14.2 0a14.2 14.2 0 1 0 28.4 0 14.2 14.2 0 1 0-28.4 0Z" p-id="3257"></path><path d="M212.2 556.6m-14.2 0a14.2 14.2 0 1 0 28.4 0 14.2 14.2 0 1 0-28.4 0Z" p-id="3258"></path><path d="M273.2 495.7m-14.2 0a14.2 14.2 0 1 0 28.4 0 14.2 14.2 0 1 0-28.4 0Z" p-id="3259"></path><path d="M151.3 495.7m-14.2 0a14.2 14.2 0 1 0 28.4 0 14.2 14.2 0 1 0-28.4 0Z" p-id="3260"></path><path d="M169.2 452.6m-14.2 0a14.2 14.2 0 1 0 28.4 0 14.2 14.2 0 1 0-28.4 0Z" p-id="3261"></path><path d="M255.3 538.8m-14.2 0a14.2 14.2 0 1 0 28.4 0 14.2 14.2 0 1 0-28.4 0Z" p-id="3262"></path><path d="M255.3 452.6m-14.2 0a14.2 14.2 0 1 0 28.4 0 14.2 14.2 0 1 0-28.4 0Z" p-id="3263"></path><path d="M169.2 538.8m-14.2 0a14.2 14.2 0 1 0 28.4 0 14.2 14.2 0 1 0-28.4 0Z" p-id="3264"></path><path d="M212.2 377m-14.2 0a14.2 14.2 0 1 0 28.4 0 14.2 14.2 0 1 0-28.4 0Z" p-id="3265"></path><path d="M212.2 319.2m-14.2 0a14.2 14.2 0 1 0 28.4 0 14.2 14.2 0 1 0-28.4 0Z" p-id="3266"></path><path d="M212.2 615.3m-14.2 0a14.2 14.2 0 1 0 28.4 0 14.2 14.2 0 1 0-28.4 0Z" p-id="3267"></path><path d="M93.1 496.1m-14.2 0a14.2 14.2 0 1 0 28.4 0 14.2 14.2 0 1 0-28.4 0Z" p-id="3268"></path><path d="M331.4 496.1m-14.2 0a14.2 14.2 0 1 0 28.4 0 14.2 14.2 0 1 0-28.4 0Z" p-id="3269"></path><path d="M296.5 411.9m-14.2 0a14.2 14.2 0 1 0 28.4 0 14.2 14.2 0 1 0-28.4 0Z" p-id="3270"></path><path d="M128 580.4m-14.2 0a14.2 14.2 0 1 0 28.4 0 14.2 14.2 0 1 0-28.4 0Z" p-id="3271"></path><path d="M128 411.9m-14.2 0a14.2 14.2 0 1 0 28.4 0 14.2 14.2 0 1 0-28.4 0Z" p-id="3272"></path><path d="M296.5 580.4m-14.2 0a14.2 14.2 0 1 0 28.4 0 14.2 14.2 0 1 0-28.4 0Z" p-id="3273"></path><path d="M257.8 386.1m-14.2 0a14.2 14.2 0 1 0 28.4 0 14.2 14.2 0 1 0-28.4 0Z" p-id="3274"></path><path d="M166.7 606.2m-14.2 0a14.2 14.2 0 1 0 28.4 0 14.2 14.2 0 1 0-28.4 0Z" p-id="3275"></path><path d="M102.2 450.5m-14.2 0a14.2 14.2 0 1 0 28.4 0 14.2 14.2 0 1 0-28.4 0Z" p-id="3276"></path><path d="M322.3 541.7m-14.2 0a14.2 14.2 0 1 0 28.4 0 14.2 14.2 0 1 0-28.4 0Z" p-id="3277"></path><path d="M166.7 386.1m-14.2 0a14.2 14.2 0 1 0 28.4 0 14.2 14.2 0 1 0-28.4 0Z" p-id="3278"></path><path d="M257.8 606.2m-14.2 0a14.2 14.2 0 1 0 28.4 0 14.2 14.2 0 1 0-28.4 0Z" p-id="3279"></path><path d="M102.2 541.7m-14.2 0a14.2 14.2 0 1 0 28.4 0 14.2 14.2 0 1 0-28.4 0Z" p-id="3280"></path><path d="M322.3 450.5m-14.2 0a14.2 14.2 0 1 0 28.4 0 14.2 14.2 0 1 0-28.4 0Z" p-id="3281"></path><path d="M212.2 675.3m-14.2 0a14.2 14.2 0 1 0 28.4 0 14.2 14.2 0 1 0-28.4 0Z" p-id="3282"></path><path d="M376.652678 501.113917a14.2 14.2 0 1 0 27.289561-7.86383 14.2 14.2 0 1 0-27.289561 7.86383Z" p-id="3283"></path><path d="M20.557154 501.133618a14.2 14.2 0 1 0 27.289562-7.863829 14.2 14.2 0 1 0-27.289562 7.863829Z" p-id="3284"></path><path d="M86.4 371.4m-14.2 0a14.2 14.2 0 1 0 28.4 0 14.2 14.2 0 1 0-28.4 0Z" p-id="3285"></path><path d="M338.1 623.1m-14.2 0a14.2 14.2 0 1 0 28.4 0 14.2 14.2 0 1 0-28.4 0Z" p-id="3286"></path><path d="M338.1 371.4m-14.2 0a14.2 14.2 0 1 0 28.4 0 14.2 14.2 0 1 0-28.4 0Z" p-id="3287"></path><path d="M86.4 623.1m-14.2 0a14.2 14.2 0 1 0 28.4 0 14.2 14.2 0 1 0-28.4 0Z" p-id="3288"></path><path d="M58.1 408.2m-14.2 0a14.2 14.2 0 1 0 28.4 0 14.2 14.2 0 1 0-28.4 0Z" p-id="3289"></path><path d="M366.4 586.3m-14.2 0a14.2 14.2 0 1 0 28.4 0 14.2 14.2 0 1 0-28.4 0Z" p-id="3290"></path><path d="M301.3 343.1m-14.2 0a14.2 14.2 0 1 0 28.4 0 14.2 14.2 0 1 0-28.4 0Z" p-id="3291"></path><path d="M123.2 651.4m-14.2 0a14.2 14.2 0 1 0 28.4 0 14.2 14.2 0 1 0-28.4 0Z" p-id="3292"></path><path d="M123.2 343.1m-14.2 0a14.2 14.2 0 1 0 28.4 0 14.2 14.2 0 1 0-28.4 0Z" p-id="3293"></path><path d="M301.3 651.4m-14.2 0a14.2 14.2 0 1 0 28.4 0 14.2 14.2 0 1 0-28.4 0Z" p-id="3294"></path><path d="M354.784821 416.371484a14.2 14.2 0 1 0 23.222049-16.349204 14.2 14.2 0 1 0-23.222049 16.349204Z" p-id="3295"></path><path d="M46.530126 594.430532a14.2 14.2 0 1 0 23.222048-16.349204 14.2 14.2 0 1 0-23.222048 16.349204Z" p-id="3296"></path><path d="M40.3 451.2m-14.2 0a14.2 14.2 0 1 0 28.4 0 14.2 14.2 0 1 0-28.4 0Z" p-id="3297"></path><path d="M384.2 543.3m-14.2 0a14.2 14.2 0 1 0 28.4 0 14.2 14.2 0 1 0-28.4 0Z" p-id="3298"></path><path d="M258.3 325.3m-14.2 0a14.2 14.2 0 1 0 28.4 0 14.2 14.2 0 1 0-28.4 0Z" p-id="3299"></path><path d="M166.2 669.2m-14.2 0a14.2 14.2 0 1 0 28.4 0 14.2 14.2 0 1 0-28.4 0Z" p-id="3300"></path><path d="M166.2 325.3m-14.2 0a14.2 14.2 0 1 0 28.4 0 14.2 14.2 0 1 0-28.4 0Z" p-id="3301"></path><path d="M258.3 669.2m-14.2 0a14.2 14.2 0 1 0 28.4 0 14.2 14.2 0 1 0-28.4 0Z" p-id="3302"></path><path d="M371.018717 456.419289a14.2 14.2 0 1 0 26.404922-10.456581 14.2 14.2 0 1 0-26.404922 10.456581Z" p-id="3303"></path><path d="M27.097238 548.520716a14.2 14.2 0 1 0 26.404923-10.456581 14.2 14.2 0 1 0-26.404923 10.456581Z" p-id="3304"></path><path d="M968.4 397.2c0-9 7.3-16.3 16.3-16.3s16.3 7.3 16.3 16.3-7.3 16.3-16.3 16.3-16.3-7.3-16.3-16.3zM968.5 443.5h32.5v167.1h-32.5zM702.1 493.6c-4.3-4.3-11.9-7.6-20.1-10v-54.8c0-13.2-4.7-24.5-14.1-33.9-9.4-9.4-20.7-14.1-33.9-14.1H482.1v229.7h186c8.6 0 16.4-2 23.4-6 3.8-2.1 7.3-4.8 10.5-8 9.4-9.4 14.1-20.7 14.1-33.9v-35.2c0.1-13.2-4.6-24.5-14-33.8zM634 413.4c4.2 0 7.9 1.5 10.9 4.6 3 3 4.6 6.7 4.6 10.9v50.7H514l0.6-50.7c0-2 0.4-3.9 1.1-5.6 0.8-1.9 2-3.7 3.6-5.3 3.2-3 6.9-4.6 11.1-4.6H634zM530.4 578.1c-4.2 0-7.9-1.5-11.1-4.6-3.2-3-4.8-6.7-4.8-10.9v-50.2h156.9c2.7 0.6 5.1 2 7.2 4.1 3 3 4.6 6.7 4.6 10.9v35.2c0 4.2-1.5 7.9-4.6 10.9-3 3-6.7 4.6-10.9 4.6H530.4zM705.3 380.9v32.5h99.4v197.1h32.8V413.4h99.4v-32.5z" p-id="3305"></path></svg>