<?xml version="1.0" standalone="no"?><!DOCTYPE svg PUBLIC "-//W3C//DTD SVG 1.1//EN" "http://www.w3.org/Graphics/SVG/1.1/DTD/svg11.dtd"><svg t="1574735724811" class="icon" viewBox="0 0 1024 1024" version="1.1" xmlns="http://www.w3.org/2000/svg" p-id="2114" xmlns:xlink="http://www.w3.org/1999/xlink" width="200" height="200"><defs><style type="text/css"></style></defs><path d="M185.4 407.7c2.4 1 4.7 2 7.1 3 11.1 4.6 17 13.1 17.1 25 0.2 40.5 0 81 0 121.5 0 11.3-4.5 20.1-14.6 25.4-3.5 1.8-7.7 3.1-11.6 3.1-45.6 0.2-91.2 0.2-136.8 0.1-9.7 0-16.4-5.8-21.7-13.5-0.9-1.3-1.8-2.4-2.8-3.7V426c0.6-0.6 1.3-1.1 1.6-1.8 3.3-7.1 8.9-11.6 16.1-14.4 1.7-0.6 3.4-1.4 5-2.2H123c-0.8 1.1-1.3 2.8-2.4 3.3-4.5 1.9-9.3 3.2-13.8 5.2-13.5 6.2-25.5 14.6-35.5 25.6-7.9 8.8-15.2 18.1-20.1 28.9-7.4 16-10.4 33-8.8 50.5 0.7 7.7 1.8 15.8 4.7 22.9 3.9 9.7 10.5 17.9 19.9 23 7.5 4.1 14.8 9.1 23.7 9.4 16.6 0.5 33.1 0.3 49.3-5.1 18.2-6.1 35.5-13.3 49.5-26.7 4.8-4.6 8.7-10.1 7.3-17.4-0.3-1.5-1.7-2.8-2.6-4.3-1.1 0.8-2.5 1.4-3.4 2.3-9.8 10.4-20.4 19.4-33.6 25.4-8.6 3.9-17.3 6.5-26.5 8.4-8.4 1.7-16.5 1.1-24.1-1.9-19.4-7.6-29.8-22.1-31.8-43-1.8-18-1.1-35.3 7.5-51.8 7.5-14.4 17.8-25.7 33.2-31.3 8.5-3.1 17.7-5.2 26.7-6.2 15.4-1.7 30.6-0.7 42 13.2 1.3-1.9 2.6-3.9 3.9-5.8 6.1-9.1 4.4-15.8-5.1-21.3-1-0.6-1.4-2.3-2.1-3.5 1.6 0.3 3 0.3 4.5 0.3zM420.8 407.7c0.9 1.9 2.7 3.9 2.7 5.8 0.1 55.5 0 111.1 0.2 166.6 0 4.3-1 6-5.6 5.8-8.9-0.3-17.9-0.3-26.8 0-4.2 0.1-5.7-1.3-5.7-5.5 0.1-23.8 0.1-47.5 0.1-71.3 0-13.4 0.1-26.8 0.1-40.2 0-1.2-0.3-2.4-0.5-3.7-0.5-0.1-0.9-0.2-1.4-0.3-1.4 3.8-2.9 7.5-4.2 11.3-3.8 10.7-7.6 21.3-11.3 32-5 14.2-9.9 28.5-14.9 42.7-3.7 10.7-7.4 21.3-11.5 31.9-0.5 1.4-3.1 2.8-4.8 2.9-8.2 0.3-16.4 0-24.6 0.1-3 0-4.1-1.7-4.9-4.1-3.3-9.7-6.7-19.5-10.1-29.2-5.8-16.5-11.6-33.1-17.5-49.6-4.4-12.3-9.1-24.6-13.6-36.9-0.4 0-0.8 0.1-1.1 0.1-0.2 1.2-0.5 2.3-0.5 3.5 0.1 37 0.1 74 0.3 111 0 3.7-0.9 5.2-4.9 5.1-9.8-0.2-19.6-0.2-29.4 0-3.2 0-4.3-1-4.3-4.3 0.1-56.4 0-112.8 0.1-169.2 0-1.6 1.1-3.1 1.7-4.7h51.8c1.5 1.3 3.7 2.2 4.4 3.9 2.3 5.4 4.2 11.1 6.2 16.7 5.9 17.1 11.7 34.3 17.6 51.4 5.3 15.4 10.6 30.7 16 46 0.3 1 1.4 1.7 2.6 3.1 2.9-8.3 5.6-15.7 8.1-23.1 4.6-14.2 9.1-28.4 13.7-42.6 3.5-10.9 7.1-21.8 10.9-32.6 2.7-7.7 5.6-15.2 8.5-22.8 17.4 0.2 35 0.2 52.6 0.2zM441.9 497.7v-82.6c0-5.3 0.9-6.4 5.9-6.4 26 0.1 52.1-0.2 78.1 0.6 18.8 0.6 35 8.1 48 21.9 10.2 10.9 16.3 23.9 19.3 38.4 3.8 18.7 3.6 37.5-0.4 55.9-5.7 25.8-19.9 45.8-45.7 55.4-7.7 2.8-16.1 4.5-24.3 4.7-24.1 0.6-48.3 0.2-72.4 0.2-9.6 0-8.4 0.3-8.4-8.1-0.1-26.7-0.1-53.4-0.1-80z m38.1-0.6c0 17.2 0.1 34.4 0 51.6 0 3.2 1.3 4 4.2 4 9.5 0 19-0.1 28.5 0.1 24.9 0.5 39-14 43.2-36.6 2.5-13.3 1.5-26.9-1.2-40.3-3.8-18.6-18.2-32.4-37.3-33.6-11.1-0.7-22.2-0.3-33.3-0.6-3.9-0.1-4.1 2.2-4.1 5.1v50.3zM972.4 497.7c4.1 1.9 7.6 3.3 10.8 5 11.8 6.3 17 16.7 17.9 29.6 1.8 24.3-16.3 39.3-36.4 44.3-12.2 3-24.4 3.2-36.5 1.6-16.3-2.2-30.5-8.6-39.2-23.8-10.8-18.9-4.3-46.7 19.4-54.7 1.2-0.4 2.3-0.9 4.6-1.8-3.7-2.1-6.3-3.6-9-5.1-16.1-8.9-20-25.7-15.4-41 4.9-16.1 17.2-23.9 32.9-28.1 11.6-3 23.3-2.9 34.8-1.5 16.9 2 31.6 9 39 25.6 8.2 18.3 0.9 40.2-19.5 47.7-1 0.5-1.9 1.3-3.4 2.2zM942.8 550c4-1 8.3-1.6 12.1-3.2 12.4-5.1 14.7-21.8 4.3-30.2-8.3-6.7-17.8-7.2-27.3-3.6-10.7 4.1-15.4 15.5-10.4 25 4.3 8.3 11.8 11.8 21.3 12z m1.1-65.4h2.8c6.4-0.3 13-5.1 15.1-10.9 2.5-7.3 0.9-12.2-4.8-17.6-5.6-5.2-12.2-5-18.9-4.5-7.2 0.6-12.4 4.9-14.6 11.5-2.3 6.7-0.3 12.7 5.5 17.6 4.1 3.5 8.7 4.1 14.9 3.9zM843.9 424.6c-12.6 17.8-24.6 34.8-37.4 52.7 5.7 0 10 0.1 14.4 0 21.4-0.3 43.2 17.5 47.3 39.6 4.5 24.9-9.6 46.9-29.2 55.8-13.2 5.9-26.6 6.8-40.6 6-13.1-0.8-24.9-5.2-34.9-13.3-15-12.3-20.7-28.4-17.8-47.8 2.3-15.8 10.2-28.8 19.1-41.5 10.9-15.5 21.8-30.9 32.4-46.6 2.6-3.9 5.6-5.8 10.4-5.7 10.1 0.2 20.2 0.1 30.3 0.1 1.5 0.1 3.2 0.4 6 0.7z m-40.6 124.8c14.9-0.1 23.6-4.1 28.7-14.8 3.8-8.1 0.4-22.4-6.8-27.1-8.7-5.6-17.6-7.1-27.4-4.5-14.5 3.9-22 21-14.6 33.7 5.2 9.1 13.3 13.2 20.1 12.7zM702.1 498.2c2.5 0.9 5.2 1.5 7.5 2.7 13.1 6.7 19.5 17.2 20.1 32.1 0.9 20.8-13.8 35.7-29.9 41.6-12.8 4.6-25.9 4.7-39.3 4.2-9.9-0.4-19-3.1-27.4-7.8-11.2-6.2-17.8-16.1-20.4-28.5-0.2-1 2.4-3.4 4-3.8 6.5-1.8 13-3 19.6-4.4 1-0.2 2-0.3 3-0.6 7.1-1.9 7.1-1.9 10.5 4.4 3.7 6.8 9.3 10.9 17.2 10.9 5.2 0 10.4-0.4 15.6-1.1 4.9-0.7 7.8-4.3 9.4-8.8 3.2-8.5 4.7-17.9-2.7-23.8-3.1-2.5-7.4-4.1-11.4-4.8-6.6-1.1-13.4-1.2-20.1-1.3-3.5-0.1-4.6-1.3-4.5-4.7 0.2-5.4 0.3-10.8 0-16.2-0.2-3.5 1.4-4.1 4.4-4.3 6.6-0.2 13.2-0.2 19.6-1.4 10.8-2.1 16.3-9.3 13.3-19.9-1.7-6-6.8-9.2-12.5-10.5-10.5-2.4-20.1-0.8-26.2 9.6-0.8 1.3-3.3 2.7-4.7 2.4-9.4-2.2-18.6-4.6-27.8-7.4-1-0.3-2.1-3.2-1.7-4.4 5-15 15.1-24.9 30.7-28.8 12.4-3.1 25.1-3 37.5-1.3 15.5 2.1 29 8.6 37 23.2 7.4 13.5 5.3 31.7-5.5 42.5-3.3 3.2-8.1 5-12.2 7.3-1.1 0.6-2.2 1-3.3 1.5 0.1 0.6 0.1 1 0.2 1.4z" p-id="2115"></path></svg>