<?xml version="1.0" standalone="no"?><!DOCTYPE svg PUBLIC "-//W3C//DTD SVG 1.1//EN" "http://www.w3.org/Graphics/SVG/1.1/DTD/svg11.dtd"><svg t="1575006906536" class="icon" viewBox="0 0 1024 1024" version="1.1" xmlns="http://www.w3.org/2000/svg" p-id="1763" xmlns:xlink="http://www.w3.org/1999/xlink" width="200" height="200"><defs><style type="text/css"></style></defs><path d="M302.9 373.6c-6.2-7.3-10.8-13.3-16-18.7C253.1 320 211 307.5 165 318.6c-45.9 11.1-77.6 40.7-91.4 87.8-17 57.9 11.2 119.9 62.2 145.4 38.5 19.2 78.1 17 117.7 5.4 27.4-8.1 51.4-23.2 75-39 6.5-4.3 6.4-8.1 4.2-14.3-25.6-71.6-12.2-136.1 41.6-188.7 48.7-47.6 108.4-60.6 173.9-39.2 57.4 18.8 93.9 58.7 111.7 115.6 11.2 35.6 9 71.5-2.8 106.7-2.2 6.6-2.7 10.9 4.4 15.3 55.3 34 113.9 56.7 180.2 51.5 44-3.5 75.7-26.4 97.7-63.9 0.7-1.2 0.8-2.7 1.9-6.9-5.4 2.9-9.1 4.3-12.1 6.7-26.6 20.9-56.4 32.3-90.5 34.8-71.9 5.4-142.8-41.9-155.3-111.1-9.2-51 9.2-92.3 48.2-124.5 37.6-31 82.3-39.9 128.8-30.8 123.7 24.1 182.2 165.1 111.7 267.9-36.4 53.1-87.7 78-152.1 76.6-56.5-1.2-108.3-18.3-157.2-45.4-8-4.5-15.8-9.3-23.9-13.8-6.7-3.8-12.1-3.6-18.2 2.9-41.2 43.9-91.9 62.6-151.6 54.5-37-5-69.5-20.9-95.8-47.8-8.6-8.8-15.5-9.5-25.8-2.5-35.4 24.1-73.5 42.7-116.1 49.7-107.8 17.9-196.3-51.9-208.6-149.8-9-72.1 19.9-129.1 79.4-168.2 48.9-32.1 102.9-36.1 158-13.7 23.1 9.4 43.1 22.9 59.4 41.6 2.7 3.1 4.6 9.6 3.2 12.9-5.4 12.7-12.3 24.7-19.9 39.3z m190 191.6c32.7 1.4 60.9-9.5 85.1-31.2 6.3-5.6 7.6-9.5-2-14-44.6-20.7-90-26.1-137.3-9.9-4.5 1.6-12.3 0.9-15.4-2.1-6.6-6.2-11.3-14.4-16.3-22.1-4.6-7.2-4-13.2 5.4-15.9 18.6-5.4 36.9-12.9 56-15.6 41.6-5.9 81.6 1.9 119.8 19.3 25.1 11.4 26.4 16.2 30.9-17.8 7.2-54.2-21.2-104.1-70.3-128.7-44-22.1-102-13.3-140.1 21.1-37.2 33.5-50.5 88.9-33.4 135.2 18.3 49.7 67.2 84.1 117.6 81.7z m343.8-75.3c10.5-3.3 29.2-6.6 45.7-14.6 59.3-28.8 64.3-103.8 9.7-140.7-37.2-25.1-77.3-26.4-116.4-6.1-48.6 25.2-57.7 75.8-36.6 112.1 19.5 33.8 51.9 46.5 97.6 49.3zM530.9 746.3h-14c-1.5-20.3 0-40.6-0.9-62.4-2.1 2-3.4 3-4.5 4.2-5.5 6.2-11.2 12.3-16.3 18.8-3.5 4.5-5.8 3.8-9-0.2-5.3-6.6-11-12.9-16.6-19.3-0.9-1-2-1.7-4.3-3.8v62.7h-9.1c-0.4-2.9-1.1-6.1-1.1-9.2-0.1-21.8-0.2-43.6 0.1-65.4 0-2.7 1.4-7.6 2.8-7.8 4.1-0.7 8.9-2.3 12.6 2.1 6.4 7.8 13.2 15.3 19.5 23.1 2.9 3.6 4.7 3.7 7.8 0 6.3-7.6 13.2-14.7 19.4-22.4 3.8-4.8 8.4-3.5 12.9-3 1 0.1 2.4 3 2.4 4.7 0.2 24 0.2 47.9 0 71.9-0.1 1.9-1.2 3.9-1.7 6zM348.7 736.2v-31.6c0-3.5 0.3-6.6 5-6 4.2 0.6 10.7-2.6 11 5.1 0.5 12.5 0.2 25 0.1 37.5 0 1.5-0.9 3-1.5 5-13.6 0-27.6 1.3-41.2-0.5-7.7-1-15.3-6.1-21.9-10.9-7.3-5.3-10.9-13.3-12.8-22.5-5.3-26.7 12.3-43.4 28.9-48.9 15.7-5.2 30.6-1.7 44.2 7.3 2.2 1.5 4.8 3.4 2.1 6.8-2.2 2.8-4 2.9-7.4 1.1-6.1-3.3-12.8-6.9-19.5-7.4-18.9-1.4-32.6 11.6-32.1 33.5 0.5 20.8 15.8 30.8 31.7 31.4 4.3 0.3 8.6 0.1 13.4 0.1zM736.1 746.4c-13.8 0-27.5 1.8-40.6-0.5-11.2-2-22.5-7.2-29.2-17.9-6.8-10.8-9.2-22.3-5.6-35 4.2-14.7 13.9-24.3 27.6-29.1 15.9-5.5 31.3-2.5 45.1 7.3 2.2 1.6 4.4 3.6 1.7 6.9-2.3 2.8-4.2 2.8-7.1 0.8-7-4.9-14.9-8.6-23.6-7.7-17 1.7-25.3 11.1-28 27-1.2 7.1-0.6 14.4 3.2 21.2 6.9 12.2 25.1 20.5 38.7 16.8 1.1-0.3 2.4-2.8 2.4-4.4 0.2-8.7 0.3-17.5 0-26.2-0.2-6.3 3.1-7.1 8.2-7 4.9 0.1 8.5 0.4 8.3 6.9-0.3 11.3 0 22.6-0.1 33.9 0.1 2.2-0.6 4.4-1 7zM586.6 663.9c6.8-2.4 10.6 0.5 14.1 5.7 10.2 15 20.8 29.7 31.2 44.5 1.4 2 3.2 3.7 5.9 6.9v-8.4-43.4c0-3.5 0.1-6.1 4.9-6.1 4.9-0.1 5.4 2.4 5.3 6.3-0.1 23.2 0 46.4-0.1 69.6 0 2.3-0.5 4.7-0.7 6.6-8.4 3.3-13-1-17.3-7.3-10.3-15-21-29.6-31.6-44.4-0.4-0.5-1.1-0.9-3.2-2.6v54.9h-8.6c0.1-27.6 0.1-55 0.1-82.3zM446.8 746.1c-1.9 0.1-2.5 0.1-3.1 0.2-8.5 1.8-14.1-1.1-16.5-9.7-1-3.8-3.7-4.5-7.3-4.4-8.1 0.2-16.3 0.5-24.4 0-5.6-0.4-8.8 1.6-10 6.7-1.5 6.1-4.9 8.8-12.6 6.7 0.7-2.8 1-6 2.2-8.8 9.4-22.6 19-45.1 28.6-67.6 0.4-0.9 0.7-1.9 1.4-2.6 1.4-1.3 3.2-3.4 4.6-3.3 1.9 0.2 4.5 1.8 5.2 3.5 8.1 18.6 15.9 37.4 23.8 56.1 2 4.8 4.3 9.5 6.2 14.4 0.9 2.7 1.2 5.6 1.9 8.8z m-39.2-55.5c-0.6 0.1-1.2 0.1-1.8 0.2-4.3 10.3-8.6 20.6-13.2 31.4h28.5c-4.8-11.1-9.2-21.3-13.5-31.6zM565.1 746.2h-13.4c-0.3-2.2-0.9-4.6-0.9-7-0.1-23.4 0.1-46.7-0.1-70.1 0-4.8 1.4-6.6 6.1-5.9 1.7 0.2 3.8-0.5 5.3 0.2 1.7 0.8 4.1 2.7 4.1 4.1 0.3 24.6 0.2 49.1 0.2 73.7-0.1 1.6-0.9 3.3-1.3 5z" p-id="1764"></path></svg>