<?xml version="1.0" standalone="no"?><!DOCTYPE svg PUBLIC "-//W3C//DTD SVG 1.1//EN" "http://www.w3.org/Graphics/SVG/1.1/DTD/svg11.dtd"><svg t="1575525144086" class="icon" viewBox="0 0 1024 1024" version="1.1" xmlns="http://www.w3.org/2000/svg" p-id="964" xmlns:xlink="http://www.w3.org/1999/xlink" width="200" height="200"><defs><style type="text/css"></style></defs><path d="M740.4 470c-4.5 6.9-10.5 14-17.4 21.8h33.8v-16.5l8.2 1.2c2.3 0.3 3.5 1 3.5 2.2 0 1.2-0.7 2.3-2.2 2.9-1.5 0.6-2.2 1.6-2.2 2.5v7.7h32.7l3.2-4.2 6.3 5c0.9 0.6 1.3 1.6 1.3 2.8-0.1 1-0.9 2-2 2.5-1 0.4-1.5 1.2-1.5 1.9V534c0 5.1-5.6 7.6-10.8 8.5 0-4.7-5.7-6.6-11-7.9-1-0.3-1.6-0.9-1.6-1.6 0-1 0.4-1.6 1.5-1.6 0.3 0 0.4 0.1 0.7 0.1 4.7 0.9 8 1.3 10.2 1.3 2.6 0 3.7-0.3 3.7-3.4v-33.2h-32.7v53.2c0 2.5-4.7 3.2-5.7 3.2s-1.6-0.4-1.6-1.3v-55.1H726v46c0 2.3-5 2.6-5.7 2.6-1 0-1.6-0.7-1.6-2.6v-45.9c-15.1 15.6-27.2 22.5-28.3 22.5-0.7 0-1-0.7-1-1.5 0-0.3 0-0.6 0.3-0.9 17.7-11.8 32-28.1 42.8-46.5H691l-1.2-4.5H735l4.1-8.8 1.2-3.9 7.9 3.4c1.6 0.7 2.2 1.6 2.2 2.3 0 0.6-0.6 2-2.3 2-1.2 0-1.9 0.1-2 0.6l-2.6 4.4h59l9.2-7.6 9.4 7c0.7 0.3 1.2 1.2 1.2 2.2 0 1.9-1.5 2.9-3.4 2.9h-78.5z m50.6-50.1c1.2 0.7 1.9 1.6 1.9 2.3 0 1.9-3.1 1.9-5.6 1.9-5.4 4.2-11.5 8.3-18.3 12.1 4.4 1.9 14.9 6.6 21.9 13 1.6 1 4.1 3.1 4.1 6.1 0 2.9-2.9 3.8-3.5 3.8-1.2 0-3.4-0.9-5.8-3.1-7.2-5.7-15.3-11-24.3-15.6-8.6 4.7-18.3 8.3-29.2 11-11.7 2.8-22.5 4.8-31.9 5.7-0.9 0-1.5-0.4-1.5-1 0-0.7 0.3-1.3 1-1.3 12.6-2 24.1-4.8 34.5-8.2 7.7-2.6 14.8-5.8 21-9.1-19-7.6-25.7-10.2-38.3-12.9-0.7-0.1-1-0.6-1-1 0-0.6 0.6-0.9 1.2-0.9l21.5 4.4c8.5 1.3 16.5 3.7 23.7 6.4 7.9-5.3 15.3-11.1 21.8-18.1l6.8 4.5zM856.6 549.8c0 0.7-0.6 1.5-1.8 1.9-4.2 1.5-5.6 1.9-5.6-1.9v-91.6c-7.3 4.5-13.9 7.3-15.1 7.3-1 0-1.3-0.6-1.3-1.2s0.3-1.2 0.9-1.3c6.6-3.2 20.5-10.8 30.7-27.9l0.6-2.3 7.5 2.2c1.5 0.4 2.3 1.3 2.3 2.3 0 0.9-0.6 2-2.3 2-1 0-2 0.3-2.6 0.9-2.3 3.2-5.8 6.7-10.2 10.5H899v-23.5h-60.8l-1.2-4.5h112.1l9.2-7.6 9.4 7c0.7 0.3 1.2 1.2 1.2 2.2 0 1.9-1.5 2.9-3.4 2.9h-59.2v23.5h41.2l1.6-2-3.4-3.1c-5.6-4.8-10.8-7.9-15.3-9.4-0.6-0.3-1-0.6-1-1 0-1 0.6-1.5 1.5-1.5 5.1 0 30.4 13.6 36.5 25.3l0.9 3.9c0 1.9-1.9 2.9-3.4 2.9-1.6 0-2.8-1.2-3.1-1.8l-5.3-7.3v0.1c-1.2 0.4-1.8 1.2-1.8 1.8v82.9c0 2.5-1.5 7.2-13.3 8.9l-1.8-4.2c-0.7-1.5-4.2-3.1-9.6-4.8-0.9-0.3-1.3-0.9-1.3-1.6 0-0.9 0.3-1.3 1.2-1.3h0.4c5.7 1.2 9.9 1.6 12.7 1.6 1.9 0 4.4 0 4.4-3.5v-81.5h-41.2v92.2c0 2.2-5.3 2.8-5.6 2.8-1.2 0-1.8-0.9-1.8-2.8v-92.2h-42.4v94.7z m24.7-73.5c3.2 2.6 9.8 8.6 9.8 14.2 0 3.2-4.7 2.8-5.6 0.7-2.3-4.2-5.1-8.2-7.6-11.4l-2.3 2.6c-8.8 8.6-15.6 11.3-15.8 11.3-0.7 0-1-0.7-1-1.2 0-0.4 0.1-0.7 0.4-0.9 7-4.8 10.1-8.2 15.6-15.3l-1.2-1c-4.2-4.2-8.2-7-11.8-8.5-0.6-0.1-0.9-0.6-0.9-1 0-0.7 0.6-1 1.3-1 1.2 0 7.5 2.6 15.1 8l4.5-8.3 1.2-3.4 6.4 2.9c1 0.4 1.8 1.2 1.8 1.9 0 1.5-1.2 1.8-3.7 2.3l-6.2 8.1z m-5.6 45.6c-9.8 10.1-15.9 12.1-16.1 12.1-0.7 0-0.9-0.7-0.9-1 0-0.4 0.1-0.7 0.4-0.9 5.1-3.7 9.8-8.2 13.7-13.6l2.8-4.1c-4.1-4.1-7.3-7.3-12.3-9.4-0.4-0.1-0.7-0.6-0.7-1 0-0.6 0.4-1.2 1.3-1.2 1.2 0 7.5 3.2 14 8.2l3.8-7.7 0.9-3.2 6.6 2.5c1.2 0.4 1.8 1.3 1.8 2 0 0.4-0.3 1.8-1.8 1.8l-1.8 0.6-5.6 7.6c7 6.4 9.6 10.2 9.6 14.8 0 2.2-1.6 2.2-3.8 2.2l-1.8-1.6c-2.2-4.4-4.7-8.5-7.3-11.5l-2.8 3.4z m55.7-46.2c1.6 1.3 9.9 8.2 9.9 14.2 0 2.9-4.7 2.9-5.6 0.7-2.5-4.2-5.1-8-7.7-11.3-8.6 9.8-16.5 13.2-17 13.2-0.7 0-1-0.7-1-1.2s0.1-0.7 0.4-0.9c7.5-5.1 11.3-10.2 14.5-14.8l-0.7-0.6c-4.1-4.1-8.2-7-11.5-8.3-0.6-0.1-0.9-0.6-0.9-1 0-0.7 0.6-1 1.3-1 1 0 6.7 2 13.9 7.6l3.9-7.3 1-3.4 6.4 2.9c1.2 0.4 1.8 1 1.8 1.8 0 0.4-0.4 1.9-1.8 1.9l-1.8 0.6-5.1 6.9z m4.4 53.6c-2.5-4.5-5-8.6-7.6-11.7-9.1 11.7-15.8 15.8-16.5 15.8s-1-0.6-1-1c0-0.3 0-0.6 0.3-0.7 4.4-3.8 8.5-8.5 11.8-13.9l2.2-4.1-0.3-0.1c-3.9-4.2-8-7-11.5-8.5-0.4-0.1-0.7-0.6-0.7-1 0-0.6 0.4-1.2 1.3-1.2s5.1 1.5 13.2 7.5l2.8-7.3 0.6-3.4 6.7 1.9c1.5 0.4 2.2 1.2 2.2 2 0 0.7-0.7 1.8-1.8 1.8l-1.8 0.7-4.7 7.6c5.1 4.4 8.5 8.5 9.9 12l0.4 3.1c0 2.2-1.6 2.2-3.8 2.2l-1.7-1.7zM116 570.5h885v2.5H116zM189.1 438.1c0.1-1.1 0.2-2.2 0.4-3.3 2.5-9.5 0-16.3-8.2-21.9-10.8-7.4-23.1-8.3-35.6-6.8-19.3 2.4-35.2 12-49.2 24.8-17.4 15.8-31.8 34-42.4 55.1-3.4 6.8-5.7 14.3-7.5 21.8-2.5 10.3 2.4 18.4 12.6 21.8 10.7 3.6 21.6 3 32.3 0 28.1-8 51-23.6 67.9-47.6 2-2.9 3.3-6.3 5.6-10.9-11.7 0.8-21.6 1.6-31.6 2.3-0.2-0.6-0.5-1.2-0.7-1.7 1.7-0.8 3.4-2.1 5.2-2.2 12.7-0.9 25.4-1.5 38-2.4 4.3-0.3 8.6-1.3 13.8-2.1-1 1.6-1.3 2.9-1.9 3-6 1.2-8.9 5.8-12 10.4-17.8 26-35.3 52.4-53.9 77.8-14.4 19.6-31.7 36.5-54.8 46.2-13.7 5.7-27.7 8-42.3 4.6-1.7-0.4-3.2-1.6-4.7-2.4 0.2-0.5 0.4-1 0.7-1.5 4.1 1 8.2 2.3 12.5 2.8 9.4 1.1 18.2-1.2 26.5-5.7 12.8-6.8 23.8-15.8 33.7-26.3 19.3-20.5 35.9-43 50.7-67.3-1.3 0.9-2.6 1.7-3.9 2.6-15.6 11.5-32.6 20.2-51.8 24.1-11.6 2.4-23.1 2.2-34.5-1.4-16.5-5.4-23.6-18.5-19-34.9 4.2-15.2 11.9-28.6 21.5-40.9 21.4-27.3 48.3-46.1 83.1-52.1 15.6-2.6 31.2-3.2 46.8 0.5 0.7 0.2 1.4 0.3 2 0.5 14.5 4.3 15.8 6.9 9.3 20.2-2.2 4.6-4.7 9-7.1 13.5-0.4-0.2-1-0.4-1.5-0.6zM373.5 493.5c0.1-0.2 0.2-0.4 0.3-0.4 4.4-1.8 10-4.7 13.1-0.4 3.2 4.5-1.5 8.8-4.9 12.1-5.8 5.6-13.2 8.2-21.1 8.7-3.4 0.2-5.3 1.4-6.2 4.4-1.2 4-2.9 8-3.3 12.1-0.7 6.3 2.7 9.9 8.9 8.4 7.2-1.8 14.1-5.1 21-8 2.3-1 4.3-2.8 7.3-4.7-7.4 9.8-29.8 19-40.6 16.5-2.9-0.7-5.3-3.6-8.1-5.6-3.8 3.4-7.9 8.1-13 11.4-4.9 3.1-10.7 5.8-16.3 6.7-9.2 1.4-14.2-4.5-11.8-13.7 1.6-6.1 4.7-11.7 7.2-17.5 0.5-1.3 1.3-2.4 2-3.6-0.3-0.3-0.7-0.6-1-0.9-3.3 3.4-6.3 7.1-9.9 10.2-4.8 4.1-9.7 8.2-15.2 11.4-2.5 1.4-6.3 0.7-9.4 0.9 0-3.1-0.1-6.3 0-9.4 0-0.9 0.7-1.9 1.4-3.6-5.4 3.1-9.8 6.4-14.7 8.4-5.8 2.3-12 4.5-18.1 5.1-9.1 0.9-13-5.2-9.6-13.6 1.8-4.5 4.4-8.7 6.4-12.7-4.1 0-8.4 0.7-12.3-0.2-3.7-0.9-7-3.6-10.8-5.7-1.9 2.8-3.9 6.7-6.8 9.8-6 6.4-12.4 12.4-18.8 18.4-1.7 1.6-4.2 3.1-6.5 3.3-4 0.4-8.9 1-11.8-0.9-1.7-1.1-1.6-7.4-0.2-10.5 6.8-15.9 17.7-28.3 33.7-35.7 1.7-0.8 3.5-1.2 5.4-1.5-11.9 7.8-20.4 18.5-27 30.7-1.8 3.3-3.1 7.1-3.8 10.9-0.9 4.4 1.2 5.9 5.5 4.5 1.8-0.6 3.6-1.6 5.1-2.8 9.8-7.9 17.7-17.3 23-28.6 1.6-3.3 1.2-7.5 1.6-11.3 1.1-8.6 3.9-12.8 11.7-12.5-1.4 5.1-3.3 10.2-4.3 15.4-1.4 7.2 0.8 12.6 5.1 14.3 5.7 2.2 13.2-0.6 17.2-5.9 21.4-29 42.7-58 64.4-86.7 9.9-13.1 23.1-22.1 37.8-29.1 1.9-0.9 3.9-1.7 5.9-2.2 4.2-1 6.5 1.1 5 5.1-1.7 4.6-3.7 9.2-6.4 13.3-20.1 31.1-46.1 56-78.5 74.1-2.6 1.5-5.2 3.7-6.9 6.2-7.1 10.5-14.2 21.1-20.7 31.9-2.2 3.7-3.4 8.1-4.2 12.3-0.9 4.4 1.9 6.9 6.2 6.4 4-0.4 8.1-1.3 11.7-2.9 9.3-4.3 17.7-9.9 24.5-18 11-13.2 24.1-23.2 41.5-26.6 2-0.4 4.1-2.6 5.4-4.5 17.7-24.9 36.6-48.9 58.5-70.3 10.7-10.4 21.7-20.3 35.9-25.7 4.1-1.5 8.5-2.2 12.8-2.8 1.7-0.2 3.6 0.7 6 1.3-1.8 3-3 5.5-4.7 7.7-0.6 0.7-2.5 1-3.5 0.6-8.9-3-17.4-1.6-24.7 3.6-8 5.7-16.1 11.7-22.6 19-27.7 31.2-52.8 64.4-73.6 100.7-3.7 6.4-6.6 13.3-8.9 20.2-1 3-0.6 8 1.3 10.1 1.7 1.8 6.9 2 9.7 0.9 12.3-4.8 22.2-12.3 27.4-25.2 6-14.9 15.9-26.5 30.8-33.3-5.2 5.6-10.5 11.3-16.4 17.6 9.8 1.4 17.7-2.2 21.2-9.2 1.1-2.2 1-5 1.5-7.5-2.5-0.4-4.6-0.7-6.8-0.9z m-102-14.8c29.1-15.6 53-36.5 69.2-65.2 2.1-3.6 3.6-7.7 4.7-11.7 0.5-1.9-0.4-4.2-0.7-6.3-2.1 0.6-4.5 0.7-6.2 1.9-2.7 1.9-5.2 4.3-7.3 6.8-11.6 13.7-23.2 27.4-34.5 41.4-8.7 10.9-16.8 22.1-25.2 33.1z m52.2 16.3c-0.3-0.5-0.5-1.1-0.8-1.6-4.4 1.4-9.4 1.8-13 4.3-12.6 8.4-21.7 20-28.1 33.7-0.6 1.3 0 3.2 0.1 4.9 1.5-0.3 3.2-0.2 4.4-1 15.4-10.7 27.1-24.8 37.4-40.3zM426.4 499.6c4.4-3.1 8.8-6.4 13.4-9.2 1.1-0.7 3.1-0.1 4.6-0.1-0.3 1.6-0.2 3.5-1 4.8-4.3 6-9.1 11.7-13.2 17.8-4.1 6.1-7.8 12.6-11.1 19.2-1.1 2.2-0.3 5.3-0.4 8 2.7 0.1 5.7 1 8 0.1 14.1-5.4 25.4-14.9 35.4-26 1.3-1.4 2.5-2.8 4.6-3.6-0.7 1-1.3 2.1-2.1 3-9.7 11.1-20.6 20.9-34.3 26.8-4.3 1.9-9 3.2-13.7 3.6-7.1 0.7-9.2-2.5-6.2-8.9 1.9-4.1 4.4-8 6.9-11.9 4.9-7.5 10-14.9 14.9-22.4 0.7-1 1-2.1 2.1-4.5-3.3 1.5-5.5 2.6-7.7 3.6l-0.2-0.3z" p-id="965"></path><path d="M426.6 499.9c-0.3 0.4-0.5 0.9-0.9 1.2-14.2 9.4-25.7 21.4-34.7 35.9-0.9 1.5-2.2 2.8-3.3 4.1-0.2 0.2-0.6 0.3-1.2 0.5-2.7-3.5-2.1-6.7 0.6-9.9 9.6-11.2 17.4-23.5 24.6-36.3 1.1-2 2-5.3 5.3-3.3 3.5 2.1 1.1 4.5-0.4 6.6-2.8 4.2-5.6 8.4-7.8 13.1 5.8-4 11.6-8.1 17.5-12.1 0.1-0.1 0.3 0.2 0.3 0.2z" p-id="966"></path><path d="M485.9 415.8h15.6v23.9h17v-23.9h15.6v68.4h-15.6v-27.7h-17v27.7h-15.6v-68.4zM545 415.8h15.6v68.4H545v-68.4zM571.8 415.8h15.6v51.5h24.3v16.8h-39.8v-68.3zM618.7 415.8h15.6v51.5h24.3v16.8h-39.8v-68.3z" p-id="967"></path><path d="M488 497.9l3 2.5h42.8l1.5-1.9 2.8 1.8c0.2 0.1 0.2 0.3 0.2 0.6 0 0.7-0.5 1.1-0.9 1.2-0.5 0.2-0.7 0.4-0.7 0.6V552c0 0.3-0.2 0.6-0.6 0.8-2.1 0.5-2.4 0.5-2.4-0.7v-1.9H491v2.3c0 0.7-0.4 0.9-2.4 1.3-0.4 0-0.5-0.4-0.5-1.3v-54.6z m3 50.5h42.8v-46.1H491v46.1z m22.9-36.5v-7.5l3.2 0.7c0.9 0.2 1.4 0.5 1.4 1s-0.2 0.9-0.7 0.9c-0.5 0.1-0.8 0.4-0.8 0.9v4.1h8.1l3.3-3.3 3.1 2.9c0.3 0.2 0.4 0.6 0.4 1 0 0.6-0.5 1.2-1.2 1.2h-13.8c0.1 4.1 0.4 10.3 3.1 16.9 1.8-2.9 3-5.8 4.1-9.4l0.5-2.3 3.2 1.5c0.5 0.2 0.8 0.5 0.8 0.8 0 0.3-0.2 0.7-0.8 0.7-0.4 0-0.7 0.1-0.9 0.4-1 2.6-2.2 5.2-3.6 7.7l-1.9 3c2.6 4.6 5.3 6.6 6.1 6.6 0.2 0 0.6-0.5 1.1-1.5l1.5-3.8c0.1-0.2 0.3-0.3 0.5-0.3 0.5 0 0.8 0.3 0.7 0.8l-1.2 5c-0.1 0.4-0.1 0.9-0.1 1.2 0 0.5 0.1 1 0.2 1.3 0.2 0.4 0.4 0.8 0.4 1.2 0 0.5-0.3 1.3-1.3 1.3-2 0-6.5-3.9-9.8-9.2-2.4 2.9-4.2 4.7-7.2 6.5-3.6 2.4-7.3 3.6-7.6 3.6-0.2 0-0.4-0.1-0.4-0.3 0-0.2 0.1-0.3 0.3-0.4 5.2-2.4 9.6-6.1 12-9.3l1.7-2.3c-3.6-7.1-4-14.6-4.2-19.7h-19.7l-0.5-1.8h20z m-16.4 29c-0.2 0-0.4 0.4-0.5 1-0.1 1-0.9 1.1-1 1.1-0.4 0-0.8-0.5-1-1.4l-1-3.9h3.1c3.6 0 10-1.7 15.2-4.2 0.1-0.1 0.2-0.1 0.4-0.1 0.4 0 0.7 0.4 0.7 0.7 0 0.2-0.1 0.4-0.4 0.5-2.6 1.6-5.5 3.1-8.6 4.2l-6.9 2.1z m-0.3-23.2l3 2.1h7.7l1.3-2.1 2.4 1.7c0.4 0.2 0.5 0.7 0.5 1-0.1 0.3-0.3 0.7-0.7 0.8-0.3 0.2-0.5 0.4-0.5 0.7V532c0 0.8-0.3 0.8-2.3 1.3-0.7 0-0.7-0.6-0.7-2.9h-7.6c0 1.9 0 2.1-0.7 2.4-1.9 0.5-2.3 0.5-2.3-1v-14.1z m3.1 3.9v6.9h7.6v-6.9h-7.6z m25.2-11.8c-0.1 0.7-0.4 0.7-1.7 0.7l-0.5-0.7c-0.4-1.3-1.6-4-3.2-4.9-0.2-0.1-0.2-0.2-0.2-0.4 0-0.3 0.2-0.4 0.4-0.4 0.9 0 4.4 2.5 5.2 4.4v1.3zM558.6 507.5c-1 2.5-2.4 5.4-4.1 8.4-0.1 0.1-0.1 0.2-0.1 0.4s0.1 0.4 0.4 0.5c5.6 5.4 6.4 11.5 6.4 13.8 0 3.2-1.6 10.1-7.3 9.5l-0.4-0.8c-0.1-1.2-1.9-2.6-3.2-3v16.2c0 0.7-0.5 0.9-2.4 1.3-0.4 0-0.6-0.4-0.6-1.3V497l3 2.5h8.2l0.8-2.4 3.2 2.2c0.4 0.2 0.7 0.7 0.7 1.1 0 0.5-0.6 1-1.7 1.3-0.5 0.1-0.9 0.5-1.1 1l-1.8 4.8z m-3.4 3.6c1.1-2.7 2-6 2.9-9.7h-7.7V535l3.2 0.7c0.4 0.1 0.8 0.1 1.2 0.1 1.3 0 1.8-0.1 2.5-1.3 0.9-1.4 0.9-3.5 0.9-4.3 0-2.7-0.6-5.8-2.2-9.2l-2.3-4c-0.3-0.2-0.5-0.5-0.5-0.8 0-0.1 0.1-0.2 0.2-0.4l1.8-4.7z m13.8 26.8l2.9 1.8c0.5 0.3 0.7 0.6 0.7 0.9 0 0.5-0.5 0.6-1.9 0.8-4 6.1-12.1 10-12.6 10-0.4 0-0.5-0.3-0.5-0.5 0-0.1 0.1-0.3 0.2-0.4 3.9-2.3 8.5-6.9 10.7-11.1l0.5-1.5z m12.7-35.1c0.4 0.1 0.6 0.5 0.6 0.9s-0.2 1.2-1 1.3c-0.5 0.1-0.9 0.3-1 0.7-1.8 4.1-3.4 7.2-4.8 9.4-3.7 5.6-12.4 12.7-13.1 12.7-0.4 0-0.7-0.4-0.7-0.6 0-0.1 0.1-0.2 0.1-0.3 2.5-2 4.9-4.1 6.7-6.3 4.8-5.6 7.6-11.2 9-16.3h-7.4l-1.6 2.5 2.4 1.5c1.9 1.5 2.5 2.2 2.5 3.8 0 0.9-0.7 0.9-1.6 0.9l-0.7-0.7c-0.6-1.3-1.3-2.4-2-3.3l-1.4-1.3-1.2 1.9-2.5 2.9c1.9 0.9 4.6 3.3 5.1 4.7v1.3c0 0.7-0.2 0.7-1.6 0.7l-0.7-0.7c-0.4-1.3-1-2.5-1.7-3.3l-1.8-1.9c-1.5 1.6-4 3.6-4.3 3.6s-0.4-0.2-0.4-0.4c0-0.1 0-0.2 0.1-0.4 2.5-2.2 4.8-4.9 6.7-8 2.4-3.9 3.6-6.4 4.1-9.8l2.9 0.8c0.6 0.1 0.9 0.5 0.9 0.9-0.1 0.3-0.4 0.6-0.7 0.6l-0.6 0.4-0.7 1.5h7l1.2-1.5 2.2 1.8z m9.4 30.2l3.8-3.2 3.9 2.9c0.3 0.2 0.5 0.5 0.5 0.9 0 0.7-0.5 1.2-1.4 1.2h-15.6v13.7c0 3.3-3.5 4.7-5.5 5.2 0-0.4-0.2-1.1-0.7-1.8-0.5-0.7-2.1-1.6-4.8-2.5-0.3-0.1-0.4-0.3-0.4-0.5s0.2-0.3 0.6-0.3c3 0.4 5.2 0.6 6.4 0.6 1 0 1.4 0 1.4-1.2v-13.1h-14.8l-0.5-1.9h27.1z m-7.5-9.3l3.5-2.7 3.2 2.4c0.3 0.2 0.5 0.5 0.5 1 0 0.8-0.6 1.2-1.3 1.2h-17.8l-0.5-1.9h12.4z m15.6-19.2c-0.4 0-0.8 0.1-1 0.4-2.9 3.6-5.5 6.9-7.9 9.5 3 3.3 7 5.5 11.2 6.9 0.4 0.7 0.4 0.7-1.2 0.7-0.8 0-1.5 0.4-2 1.1-0.4 0.7-0.8 1-1 1-0.1 0-5.2-2.6-8.7-7.3-2-2.9-3.5-5.7-4.3-8.6-0.9-2.9-1.5-5.9-1.7-9.4 0-0.5 0.2-0.9 0.6-0.9 0.3 0 0.5 0.2 0.6 0.8 0.8 7.5 2.9 11.1 5.8 14.8 2.6-3.3 4.8-6.7 6.4-10.3h-8.5l-0.4-1.8h9.5l1.9-2 2.2 2.7c0.4 0.4 0.6 0.8 0.6 1.2 0 0.6-0.4 1.2-1.2 1.2h-0.9zM586 538.9c0-0.5 0.4-0.5 0.5-0.5 2 0 11.7 7.3 11.7 11.1 0 0.2 0 1.6-1.4 1.6-1.1 0-1.3-0.8-1.4-0.9-2.6-5.6-6.1-9.4-9-10.8-0.3-0.1-0.4-0.3-0.4-0.5zM610.9 524.2l0.2-26.2 3.1 0.4c1 0.1 1.6 0.5 1.6 1 0 0.6-0.3 0.9-0.9 1l-0.8 0.4-0.1 14.8h6.6v-17.7l3.2 0.6c1 0.1 1.3 0.5 1.3 1s-0.2 0.8-0.7 0.9c-0.5 0.2-0.7 0.5-0.7 1v14.3h1.1l3.3-3.2 3.2 2.9c0.3 0.2 0.4 0.5 0.4 0.9 0 0.6-0.5 1.3-1.3 1.3H614l-0.1 7.1-0.2 3.6h7.3l1.6-1.6 2.8 1.8c0.2 0.1 0.4 0.4 0.4 0.6 0 0.3-0.3 0.9-0.9 1-0.5 0.1-0.8 0.4-0.8 0.7v20.5c0.1 0.4-0.2 0.7-0.6 0.9-1.9 0.5-2.4 0.6-2.4-0.9v-21.1h-7.5l-0.7 8c-0.5 4-1.2 7.3-2.1 9.8-1.3 3.4-3 5.2-3.6 5.2-0.2 0-0.5-0.2-0.5-0.6 0-0.2 0.1-0.3 0.2-0.4 1.9-3.3 3-9.6 3.5-15.8l0.5-12.2z m26.1-7c-0.2 10.6-1.7 20.7-5.3 27.8-1.9 3.7-5 8.1-6 8.1-0.3 0-0.4-0.4-0.4-0.5 0-0.1 0.1-0.2 0.1-0.4 4.7-6.4 8.7-15.2 8.7-40.2v-13.1l3 2.3h17.1l3.7-3.2 3.7 2.7c0.4 0.4 0.7 0.9 0.7 1.2 0 0.7-0.5 1.1-1.3 1.1h-23.9v12.4h17.8l1-0.8 2.9 1.4c0.5 0.2 0.7 0.6 0.7 1 0 0.5-0.4 0.9-0.9 1-0.5 0.1-0.8 0.4-0.9 0.8-1.4 7.7-4.2 14.7-7.8 19.9 4.2 6.3 8.8 9 12.6 10.5 0.4 0.1 0.5 0.3 0.5 0.5-0.1 0.2-0.5 0.5-1.4 0.6-0.8 0.1-1.4 0.5-1.6 1.2-0.2 0.5-0.4 0.7-0.7 0.7-0.2 0-6-3.9-10.8-11.6-6.1 8.3-16.2 12.7-16.4 12.7-0.5 0-0.6-0.5-0.6-0.7 0-0.1 0.1-0.2 0.1-0.2 4.2-2.4 8.1-5.4 11.5-9.1l4.1-5c-1.5-2.7-2.7-5.8-3.8-9.5-1.2-4.2-2.1-8.2-2.5-11.7H637z m13.9 14.6c1.8-4.1 3-8.7 3.8-13.7l0.1-0.7h-12.6c1.8 10.3 4.6 15.8 6.3 19l2.4-4.6z" p-id="968"></path></svg>