<?xml version="1.0" encoding="utf-8"?>
<!-- Generator: Adobe Illustrator 23.1.1, SVG Export Plug-In . SVG Version: 6.00 Build 0)  -->
<svg version="1.1" id="圖層_1" xmlns="http://www.w3.org/2000/svg" xmlns:xlink="http://www.w3.org/1999/xlink" x="0px" y="0px"
	 viewBox="0 0 1024 1024" style="enable-background:new 0 0 1024 1024;" xml:space="preserve">
<g>
	<path d="M129,608.1c-18.6,0-37.3,0-55.9,0c-28.9,0-51.2-22.5-51.2-51.4c0-36.7,0-73.4,0-110.1c0-28.9,22.4-51.3,51.4-51.3
		c37.1,0,74.3,0,111.4,0c28.9,0,51.3,22.5,51.3,51.4c0,36.7,0,73.4,0,110.1c0,28.9-22.5,51.2-51.4,51.3
		C166.1,608.1,147.6,608.1,129,608.1z M106.6,488.9c1.2,1.1,1.8,1.6,2.3,2.1c13.2,13.3,26.4,26.6,39.7,39.8c1.5,1.5,3.3,2.8,5.3,3.4
		c3.7,1.1,7.3-0.9,9.1-4.2c1.8-3.4,1.3-6.9-1.6-9.9c-18.9-19-37.9-38.1-56.9-57.1c-2.8-2.8-5.9-3.5-9.2-2c-3.4,1.5-5.4,4.7-5.3,8.6
		c0.1,16.7,0.1,33.4,0.2,50.1c0,2.4-0.1,4.8,0.2,7.1c0.7,5.1,5.6,8.2,10.5,6.7c3.6-1.1,5.8-4.4,5.8-8.9
		C106.6,513,106.6,501.4,106.6,488.9z M215.8,524.7c-0.5-0.8-1.1-2.9-2.4-4.2c-19.1-19.3-38.2-38.5-57.3-57.6
		c-3.5-3.5-8.5-3.3-11.8,0.2c-3.2,3.4-3.3,8.1,0.1,11.5c19.1,19.2,38.2,38.4,57.4,57.6c2.5,2.5,6,3,9,1.5
		C214.1,532.1,215.8,529.5,215.8,524.7z M52.5,497c0,9,0,18,0,27.1c0,6,3.4,9.8,8.4,9.7c4.9,0,8.2-3.8,8.3-9.5c0.1-2.4,0-4.7,0-7.1
		c0-15.1,0-30.2,0-45.3c0-1,0-2,0-3c-0.4-5.1-3.8-8.5-8.4-8.4c-4.7,0-8.2,3.7-8.2,8.9C52.4,478.5,52.5,487.8,52.5,497z"/>
</g>
<g>
	<path d="M874.5,511.5c6.9,5.8,13.7,11.5,21.8,18.2c-11.2,3.5-18.1,2.1-23.3-6c-2.2-3.4-5.5-6.1-7.8-9.4c-3.7-5.3-8.3-6.8-15.1-4.4
		c0,6.7,0,13.6,0,21c-3.8,0-6.9,0-10.4,0c0-19.3,0-38.5,0-58.8c14.3,0,29-1.7,43.1,0.5c12.5,1.9,6.5,14.2,7.5,22.1
		c0.7,6.1,0.4,12.8-8.1,14c-2,0.3-4.1,0.3-6.1,0.4C875.6,509.9,875.1,510.7,874.5,511.5z M850.5,498.4c8.8,0,16.6,0.5,24.4-0.3
		c1.9-0.2,4.6-4.6,4.6-7c0-2.9-2.4-8.1-4.2-8.3c-8.2-0.9-16.5-0.4-24.8-0.4C850.5,488.3,850.5,492.8,850.5,498.4z"/>
	<path d="M693.7,531c-3.3,0-6.1,0-9.6,0c0-12.3,0-24.2,0-36.1c-0.6-0.2-1.2-0.4-1.8-0.7c-6.3,10.1-12.5,20.2-19.5,31.5
		c-7.1-11.7-13.4-22-21.1-34.7c0,14.8,0,27.2,0,40c-3.6,0-6,0-8.9,0c0-19.6,0-38.8,0-58.2c6.1-2.5,9.5-0.1,12.6,5.2
		c5.5,9.6,11.6,18.9,18.3,29.6c4.6-7.6,8.3-14.8,13.1-21.2c4.3-5.7,4.6-17,17-14C693.7,491.7,693.7,510.9,693.7,531z"/>
	<path d="M341.4,472.3c3.7,0,6.5,0,9.8,0c0,19.5,0,38.9,0,60.9c-4.6-2.5-8.7-3.6-11.3-6.2c-11-11.1-21.6-22.6-33.9-35.6
		c0,14.6,0,26.9,0,39.6c-3.7,0-6.5,0-9.8,0c0-19.5,0-38.9,0-60.8c4.5,2.4,8.6,3.5,11.3,6.1c11,11,21.6,22.5,33.9,35.4
		C341.4,497.3,341.4,485,341.4,472.3z"/>
	<path d="M386.5,508.3c0,8.4,0,15.4,0,22.7c-3.7,0-6.7,0-10.2,0c0-19.5,0-38.6,0-58.9c14.3,0,28.7,0,43.1,0c0.6,0,1.2,0.2,1.7,0.5
		c10.4,6.9,5.3,17.4,5.7,26.4c0.3,6.2-4.4,9.2-10.4,9.3C406.8,508.3,397.2,508.3,386.5,508.3z M387,497.9c8.4,0,16,0.5,23.4-0.3
		c2.2-0.2,5.6-4.1,5.7-6.4c0.1-2.9-2.4-8.2-4.2-8.4c-8.2-0.9-16.5-0.4-24.8-0.4C387,488,387,492.4,387,497.9z"/>
	<path d="M963.2,500.8c-7.5-9.5-14.5-18.4-21.7-27.6c17.6-6.4,19.7,10.4,29,17.9c3.3-4.4,7.2-8.6,9.8-13.5c3.6-6.6,9.1-6.1,16.4-5.1
		c-6.6,9-12.9,17.5-19.7,26.8c8,10.2,16,20.4,24.6,31.4c-9,1.9-15.7,1.6-20.4-6.9c-2.9-5.3-7.2-9.8-10.7-14.3
		c-10.3,6.5-9.7,25.9-29.1,21.3C948.8,520.5,955.8,511,963.2,500.8z"/>
	<path d="M560.2,530.4c-8.8,3.2-13.1,0.1-16.1-7.9c-4.6-12.5-10.4-24.6-16.4-38.5c-6.2,14.1-11.9,27-17.6,40
		c-3.5,7.9-3.4,7.9-14,6.9c8.6-19,16.9-37.8,25.6-56.4c1.9-4.1,10.9-3.6,12.9,0.7C543.4,493.4,551.7,511.9,560.2,530.4z"/>
	<path d="M772.7,530.6c-9.5,2.9-13.6-0.7-16.5-8.7c-4.5-12.5-10.3-24.5-16.2-38.1c-6.1,14.1-12,26.7-17.1,39.7
		c-2.5,6.4-5.6,9.9-13.8,7c0.9-2.4,1.8-5,2.9-7.5c6.9-15.4,13.7-30.9,21-46.1c1.1-2.3,4.3-4.5,6.8-4.8c2.5-0.2,6.6,1.4,7.6,3.4
		C756,493.6,764.2,511.9,772.7,530.6z"/>
	<path d="M454.9,520.1c12.7,0,23.7,0,35.1,0c0,3.8,0,6.9,0,10.7c-14.9,0-29.8,0-45.5,0c0-19.2,0-38.5,0-58.4c3.1,0,6.2,0,10.4,0
		C454.9,487.8,454.9,503.3,454.9,520.1z"/>
	<path d="M560.1,473c9.6-2.9,16-0.7,20.3,7.5c2.4,4.6,6,8.5,9,12.7c11-5.4,10.5-25.6,29.5-20.4c-12.1,17.8-31.6,32.1-21.9,58
		c-5.5,0-8.8,0-14,0C591,505.7,572.7,490.6,560.1,473z"/>
	<path d="M825.4,472.6c0,3.1,0,5.9,0,9.5c-6.7,0-13.3,0-20.9,0c0,16.6,0,32.5,0,48.8c-4.1,0-7.1,0-11.4,0c0-16,0-31.9,0-48.5
		c-7.8,0-14.4,0-21.6,0c-0.2-3.5-0.3-6.3-0.5-9.9C789.3,472.6,807.1,472.6,825.4,472.6z"/>
	<path d="M270.9,531.2c-3.4,0-6.2,0-9.7,0c0-19.4,0-38.8,0-58.9c2.9-0.1,6-0.3,9.7-0.4C270.9,491.6,270.9,510.9,270.9,531.2z"/>
	<path d="M913.6,472.2c3.3,0,6.1,0,9.6,0c0,19.4,0,38.7,0,58.9c-2.9,0.1-5.9,0.3-9.6,0.5C913.6,511.8,913.6,492.4,913.6,472.2z"/>
</g>
</svg>
