<?xml version="1.0" standalone="no"?><!DOCTYPE svg PUBLIC "-//W3C//DTD SVG 1.1//EN" "http://www.w3.org/Graphics/SVG/1.1/DTD/svg11.dtd"><svg t="1575529276233" class="icon" viewBox="0 0 1024 1024" version="1.1" xmlns="http://www.w3.org/2000/svg" p-id="750" xmlns:xlink="http://www.w3.org/1999/xlink" width="200" height="200"><defs><style type="text/css"></style></defs><path d="M20 386.4c1.1 0 1.2 0.9 1.4 1.7 3.3 12.2 8.5 23.7 13.4 35.3C47 452.2 66 476.1 90 496.1c16.5 13.7 34.4 24.9 54.3 33 11.6 4.7 23.7 7.5 36.2 8.4 3.4 0.2 6.8 0 10.7 0-4.5-9.3-8.7-18.2-13.1-27.5 3.3 0.6 6.1 1.1 8.9 1.6 15.8 3.1 30.7 6.1 45.5 8.9 4.5 0.8 9.1 1.4 13.7 1.6 9.5 0.4 18.9 0.5 28.4 0.5 10.6 0 20.7-2 30.3-6.6 4.9-2.3 9.2-5.4 12.8-9.5 0.3-0.4 0.6-0.7 1.1-1.4-1.4-0.8-2.7-1.6-4.1-2.3-5.7-2.7-11.7-4-17.9-4.9-9.5-1.3-19.1-2.1-28.5-4.3-9.7-2.3-19.1-5.6-27.7-10.7-6.5-3.9-12.1-8.7-16.3-15-1.6-2.4-2.7-5-2.9-7.9-0.1-1.5-0.2-3.1-0.2-4.6-0.3-8-0.5-16-0.8-24-0.6-18.8 6.1-34.2 20.8-46.1 12.2-9.8 26-16.3 41.2-19.6 15.6-3.4 31.4-4.7 47.3-3.9 18 0.8 35.6 4.4 52.8 9.8 5.5 1.7 10.9 3.6 16.3 5.5 4.1 1.4 7.8 3.6 11.3 6 0.9 0.6 1.3 1.2 1.3 2.4-0.1 6-0.1 12 0 17.9 0 1.9-1 2.9-2.3 4-11.1 8.4-22.1 16.9-33.2 25.4-0.6 0.4-1.2 0.8-1.8 1.3-1.2-0.6-2.3-1.2-3.5-1.8-12.7-6.8-26.1-11.7-40.4-14.1-11.3-1.9-22.4-1.6-33.3 2.2-5.9 2.1-11.1 5.1-15.9 9.5 1.8 1.4 3.7 2.1 5.7 2.7 8.7 2.6 17.4 5.1 26 7.7 11.5 3.5 22.9 7 33.9 11.7 5.3 2.3 10.5 4.8 15.4 7.7 8.1 4.9 13.8 11.9 15.6 21.5 0.4 1.9 0.5 3.9 0.5 5.8 0 8.5 0 17-0.1 25.5 0 1.6-0.4 3.2-0.9 4.7-3.7 11.9-10.4 22-19 30.9-10.1 10.4-22 18-35.2 23.7-14.8 6.5-30.2 10.6-46.2 12.6-7.5 0.9-15.1 1.6-22.7 2.4-0.8 0.1-1.5 0.3-2.5 0.4 0.4 0.9 0.6 1.6 0.9 2.2 3.5 6.9 6.9 13.7 10.4 20.5 1.1 2 1.9 4.1 1.9 6.4 0 5.8-0.1 11.6-0.1 17.4h-7.8c-0.7-0.1-1.4-0.3-2.1-0.4-10.2-0.8-20.3-2.1-30.3-3.9-23.3-4.2-45.7-11.1-67.1-21-31.8-14.7-59.1-35.1-81.3-62.3-19.4-23.8-33-50.7-42.1-79.9-7.1-22.8-11.2-46.1-13.2-69.8-0.1-1.4-0.6-2.8-0.9-4.2 0.2-2 0.2-3.9 0.2-5.8z m243.8 227.1c-4.5-0.7-8.7-1.4-12.9-2-12.9-1.8-25.7-4.1-38.3-7.3-28.5-7.3-55.5-18.1-80.4-33.6-21.5-13.4-40.8-29.4-56.7-49.2-14.8-18.3-26.1-38.7-35-60.4-6.9-16.9-12.1-34.4-16.4-52.2-0.2-0.8-0.5-1.6-0.7-2.4-0.3 0.5-0.3 1-0.2 1.5 0.9 6.2 1.8 12.3 2.7 18.5 3.7 23.3 10.1 45.7 19.6 67.3 15.3 34.8 37.7 64.1 68 87.3 25.3 19.4 53.6 32.6 84.2 41.4 15.1 4.3 30.5 7.4 46.1 9 6.1 0.7 12.3 0.8 18.4 1.1 0.6 0 1.2-0.1 1.8-0.2-0.2-6.4-0.2-12.5-0.2-18.8z m146.3-229.3c-1.4 1.2-2.4 2-3.4 2.9-7 6.3-14.1 12.7-21 19.1-2.3 2.1-4.7 2.6-7.6 1.8-2.1-0.6-4.2-1.3-6.2-2-19.7-6.5-39.7-10.3-60.6-8.4-8.9 0.8-17.4 2.8-25.2 7.2-2.3 1.3-4.5 2.9-6.3 4.8-4.5 4.6-5 12.5-1.4 17.5 1.4 1.9 1.9 2 3.7 0.6 9.8-8 21.3-11.2 33.8-11.6 7.6-0.2 15 0.9 22.4 2.6 11.9 2.8 23.1 7.3 33.8 13.1 1.5 0.8 2.6 0.9 4.1-0.2 10.7-8.3 21.4-16.5 32.2-24.6 1.6-1.2 2.3-2.5 2.3-4.5-0.1-5 0-10-0.1-15-0.2-1.1-0.4-2-0.5-3.3z m-90.5 119.9c0.6-1 1.1-1.7 1.5-2.5 3.5-7 1.4-13.4-5.5-16.9-1.4-0.7-2.9-1.4-4.5-1.8-7-1.8-13.9-3.8-20.9-5.2-16.9-3.5-33.4-8.4-49.2-15.4-8.5-3.8-14.5-9.8-17.9-18.4-0.2-0.4-0.5-0.8-0.8-1.3-0.3 0.9-0.3 1.7-0.3 2.5 0.1 3.7 0.5 7.4 0.3 11.1-0.2 5.1 1.4 9.5 4.5 13.4 5.6 7 12.7 12 20.7 15.8 12.3 5.8 25.4 8.6 38.8 10.2 5.2 0.6 10.4 1.2 15.6 2.2 6.1 1 12 3.1 17.7 6.3z m-75.8 67.6c0.5 1 0.8 1.7 1.1 2.4 1.4 2.9 2.9 5.8 4.3 8.7 1.5 3.1 1.6 3.2 5 2.9l18.3-1.8c14.4-1.5 28.4-4.8 41.9-9.8 14.3-5.3 27.5-12.5 38.8-22.9 9.7-8.9 17.3-19.2 21.9-31.5 1.2-3.2 2-6.5 2-9.9 0-2.3-0.1-4.5-0.1-6.8 0-0.5-0.1-1-0.2-1.4-0.5 0.7-0.7 1.4-0.9 2.1-1.6 5.5-3.7 10.7-6.6 15.6-8.9 15.3-21.9 26.2-37.9 33.6-7.2 3.4-14.7 6.3-22.4 8.5-10.6 3.1-21.3 5.9-32.4 7.1-9.6 1-19.2 1.9-28.7 2.8-1.2 0-2.6 0.2-4.1 0.4z" p-id="751"></path><path d="M404.5 419.7H454c-2.8 35-5.6 69.8-8.4 104.6 0.1 0.1 0.3 0.2 0.4 0.3 0.8-0.8 1.6-1.5 2.3-2.3 12.9-14.4 25.7-28.9 38.6-43.3 16.1-18.1 32.2-36.1 48.2-54.2 0.6-0.7 1.2-1.3 1.8-2 2.5-2.7 5.6-4 9.3-4 7.7 0.1 15.4 0.1 23.1 0 8.6-0.1 17.2-0.3 25.7-0.5h3.6c0.1 1 0.3 1.8 0.3 2.7 0 6.5 0 12.9 0.1 19.4 0 2-0.8 3.4-2.1 4.7l-28.8 31.5c-41.2 45.2-82.4 90.3-123.7 135.5-0.5 0.5-1 1-1.5 1.6-1.8 2.2-4 3-6.8 3-10.2-0.1-20.4-0.1-30.6-0.1h-6.9c-0.1-0.8-0.2-1.4-0.2-2-0.2-18 0.5-36 1.2-54l0.6-17.4c0.9-26.9 1.7-53.8 2.6-80.7 0.4-13.3 0.9-26.7 1.4-40 0.1-0.9 0.2-1.8 0.3-2.8z m193.2 0.5c-0.2-0.1-0.3-0.2-0.5-0.2-1 1-2 2.1-3 3.1-16.6 17.9-33.3 35.7-49.9 53.6-34.8 37.5-70.2 74.6-104.1 112.9-3.6 4-8 5.8-13.4 5.7-8.1-0.2-16.2-0.1-24.3-0.2-0.9 0-1.7 0.1-2.6 0.2-0.5 2.6-0.4 18.4 0.1 20.4h37.3c1.7 0 2.9-0.6 4-1.8 30.2-33.2 60.5-66.3 90.8-99.4 21.1-23 42.1-46.1 63.2-69.1 1.8-2 2.7-4.1 2.6-6.8-0.2-5.1-0.1-10.2-0.1-15.3 0-1.1-0.1-2.1-0.1-3.1zM844.5 503.8c0.3 1.1 0.6 2.2 0.9 3.2 2.3 6.2 3.2 12.7 3.7 19.2 0.2 2.7 0.6 5.3 0.9 7.9 0.3 2.4 0.2 4.7-0.6 6.9-6.7 19.4-16.2 37-31 51.4-8.8 8.5-18.9 14.6-31 17.2-3.4 0.7-6.9 1.2-10.3 1.2-10.5 0.2-21 0.1-31.6 0.1-2.8 0-5.4-0.7-8-1.7-7.2-2.8-12.9-7.6-17.1-14.2-4.4-6.9-6.6-14.5-7.7-22.5-1.1-7.7-1.2-15.5-0.4-23.2 0.2-2.2 0.6-4.3 1.2-6.4 3.3-11.7 9.3-21.8 18.4-30 6-5.4 12.1-10.7 18.5-15.7 3.7-3 5.4-6.4 4.6-11.2-0.8-4.9-1.1-9.8-0.7-14.7 0.8-9 3.4-17.3 8.5-24.7 11.3-16.6 26.3-27.9 46.2-32 10.6-2.2 21.1-1.8 31.4 1.8 12.2 4.2 19.3 12.9 21.4 25.5 1.6 10.2 2 20.4 0.1 30.6-2.2 12-7.2 22.4-16.7 30.3-0.3 0.4-0.5 0.7-0.7 1z m3.3 24.6c-0.5 1.7-0.9 3.4-1.4 5.1-5.4 16.2-14.9 29.5-28.4 39.9-20 15.3-42.9 20.5-67.6 18.6-3.5-0.3-6.9-0.9-10.3-1.4-9.4-1.5-16.8-6.1-21.7-14.3-1.6-2.7-2.7-5.7-4-8.5-0.3-0.5-0.5-1.1-0.9-2-0.1 0.7-0.2 0.9-0.2 1.2 0.1 1.6 0.2 3.2 0.4 4.8 0.9 8.3 3.2 16.1 7.8 23.2 4 6.2 9.5 10.8 16.4 13.5 2.5 1 5.1 1.7 7.8 1.7h30.8c4.3 0 8.5-0.6 12.7-1.7 11.4-3 21-9 29.3-17.3 14.1-14.1 23.4-31 29.7-49.7 1.5-4.5 0.9-8.8-0.4-13.1z m-59.9-4.9c-7.5-0.1-16 2.4-23.8 7.3-8.6 5.4-15.2 12.7-20.6 21.2-0.5 0.8-0.6 1.6-0.4 2.5 0.8 3.6 2.5 6.8 4.9 9.6 1.7 1.9 3.8 3.3 6.4 3.7 5.5 0.8 11 1.8 16.6 1.1 8.7-1 17-3.1 24.6-7.5 7.5-4.4 13.4-10.2 17.4-18.1 0.9-1.8 1-3.4 0.1-5.2-4.9-9.6-12.5-14.8-25.2-14.6z m-45.3 26.7c0.2 0 0.4 0.1 0.6 0.1 0.5-0.6 0.9-1.3 1.4-1.9 3.1-4.5 6.7-8.7 10.8-12.4 10.8-9.6 23.4-14.5 38-13.4 1.4 0.1 2.8 0.2 4.1 0.6 7.1 2.4 12.6 6.7 16.1 13.5 0.3 0.6 0.7 1.2 1.2 2.1 1.9-4.6 2.5-9 1.6-13.6-1.8-9.1-8.6-15.8-17.8-17.6-6.1-1.2-12.2-0.7-18.3 0.5-19.3 3.7-33.5 18-37 37.4-0.3 1.6-0.5 3.2-0.7 4.7z m86.1-85.7c0.8-2.4 1.9-4.6 2.3-7 1.4-6.4-1.5-12.2-7.4-14.7-8.9-3.7-17.6-3.5-25.9 1.8-6.6 4.3-11 10.3-13.7 17.7-0.8 2.2-1.1 4.6-0.9 6.9 0.3 3.2 1.1 6.1 3.7 8.6 10.4-15.5 24.2-20.3 41.9-13.3z m0.1 1.7c-13.3-7.4-31.5-4.5-41 12.7 0.6 0.5 1.1 1.1 1.8 1.5 3.3 2.3 7 3.4 11 3.2 11.2-0.8 20.1-6 26.8-15 0.5-0.7 0.9-1.6 1.4-2.4z m32.8-10.2c-0.2 0.8-0.4 1.2-0.5 1.6-2 9.2-6.7 16.8-13.4 23.4-2.5 2.5-5.1 5-7.6 7.5-0.6 0.6-1.1 1.1-1.6 1.8-0.9 1.2-1.2 2.6-0.5 3.9 1.7 2.9 3.5 5.7 5.3 8.6 14.1-9.6 20.1-31 18.3-46.8zM981.4 505.4c0.9 2.2 1.6 4.2 2.5 6.2 1.5 3.4 2.2 6.9 2.2 10.6 0 6.1 0.1 12.3 0.2 18.4 0 2.1-0.3 4-1 5.9-5.4 14.5-12.6 28-22.6 39.9-5.9 6.9-12.5 13.1-20.4 17.8-9.2 5.4-19.1 8.2-29.8 8.2-8.9 0-17.8-0.1-26.7 0.1-9 0.2-16.4-3.3-22.7-9.3-4.6-4.4-7.8-9.7-9.9-15.7-4.7-13.8-5.5-28-2.5-42.3 2-9.7 7.1-18 13.4-25.5 4.1-4.9 8.9-9.1 13.9-13.2 3.4-2.8 6.8-5.7 10.3-8.4 3.5-2.7 4.7-6.2 4-10.5-1.1-6.9-1.2-13.8 0.1-20.7 1.1-5.7 3-11.1 6-16 10.3-16.7 24.5-28.4 43.6-33.7 11.2-3.1 22.5-3.2 33.8 0.1 13.6 4 21.3 13.1 23.4 27.1 1.1 7 1.5 14 1 21-0.4 7.3-1.9 14.4-4.7 21.2-2.8 6.8-6.9 12.6-12.5 17.3-0.5 0.5-1 0.9-1.6 1.5z m3.8 26c-0.1 0-0.2-0.1-0.3-0.1-0.2 0.6-0.5 1.3-0.7 1.9-1.2 3.2-2.1 6.5-3.5 9.5-10.1 22.1-27.2 36.9-49.7 45.3-13.8 5.2-28.2 6.3-42.8 5.3-3.5-0.2-7.1-0.9-10.6-1.4-7-1.1-13.1-3.9-18-9.2-3.3-3.6-5.7-7.8-7.4-12.4-0.3-0.9-0.7-1.7-1-2.6-0.2 0-0.3 0.1-0.5 0.1 0.2 2.3 0.3 4.6 0.6 6.9 1 7.1 3 13.9 6.7 20.1 3.9 6.5 9.2 11.4 16.2 14.4 3.2 1.4 6.6 2.1 10.1 2.1 9.5-0.1 18.9 0 28.4 0 5.9 0 11.6-0.9 17.2-2.7 11.4-3.8 20.9-10.6 28.9-19.4 11.9-13 20.1-28.1 26.1-44.5 0.2-0.5 0.4-0.9 0.4-1.4-0.1-3.8-0.1-7.9-0.1-11.9z m-80.2 39c2.2-0.2 4.6-0.4 6.9-0.7 9.1-1.2 17.6-4.2 25.1-9.6 6.4-4.6 11.2-10.5 14.3-17.7 0.4-0.9 0.8-1.8 0.2-2.8-3.7-7.2-9.5-12-17.5-13.6-5.3-1-10.7-0.6-15.9 0.6-16.9 3.9-28.3 14.9-36.9 29.2-0.3 0.5-0.3 1.4-0.1 2 0.9 3 2.4 5.6 4.6 7.9 1.4 1.5 3.1 2.7 5.1 3 4.6 1 9.3 1.9 14.2 1.7z m-24.6-15.7c0.7-1.1 1.2-1.7 1.6-2.4 3.6-5.6 7.9-10.7 12.9-15 10.4-8.9 22.3-13.5 36.1-12.7 1.8 0.1 3.7 0.3 5.5 0.9 6.4 2.1 11.4 6 14.9 11.8 0.3 0.5 0.7 0.9 1 1.5 0.2-0.3 0.3-0.5 0.4-0.6 4.4-12.7-3.6-26.5-16.8-29.1-5.1-1-10.1-0.8-15.2-0.1-21 2.8-36.1 16.9-40.3 37.7-0.6 2.5-0.9 5.1-0.1 8z m85.5-88.8c2-2.1 2.3-4.8 2.7-7.3 0.9-6.4-1.8-11.6-7.3-14.2-3.5-1.6-7.2-2.6-11-2.6-9.5 0-17.2 3.9-23.1 11.3-2.7 3.4-4.6 7.2-6 11.3-1 2.9-1 5.9-0.4 8.8 0.5 2.2 1.4 4.2 3.3 6.1 10.4-15.6 24.3-20.5 41.8-13.4zM925 480.3c3.6 3.5 7.9 4.9 12.6 4.6 11.5-0.7 20.4-6 27.1-15.3 0.5-0.6 0.8-1.4 1.1-2.1-11.1-6.4-30.2-5.9-40.8 12.8z m55.5 23.8c0.6-0.3 0.9-0.3 1.1-0.5 0.6-0.5 1.3-1 1.9-1.6 4.2-3.9 7.5-8.4 10-13.6 4.1-8.4 5.6-17.3 5.7-26.6v-4c-0.4 0.1-0.5 0.1-0.5 0.1-0.1 0.2-0.3 0.4-0.3 0.6-1.5 7.8-5.1 14.4-10.4 20.2-3.2 3.5-6.6 6.9-9.9 10.3-0.7 0.8-1.5 1.5-2.2 2.3-1.1 1.3-1.4 2.8-0.5 4.3 1.6 3 3.4 5.7 5.1 8.5zM660 468.7h-30.7c-0.1-1-0.2-1.9-0.2-2.7 0-6.1-0.1-12.3 0-18.4 0-1.1 0.5-2.1 0.8-3.2 0.2-0.7 0.6-1.3 0.8-2 1.9-5.7 3.8-11.3 5.8-17 1.3-3.9 2.3-4.6 6.4-4.5l75 0.9c1.7 0 3.4 0.3 5.1 0.5 3.3 0.5 5.6 2.5 6.7 5.6 1.2 3.8 1.9 7.7 1.4 11.7-0.6 4.8-0.5 9.5-0.1 14.3 0.3 3.5 0.4 7.1 0.9 10.6 0.4 2.8-0.5 4.5-2.7 6.1-10.4 7.6-20.8 15.4-31.1 23.2-1 0.7-1.9 1.5-3.4 2.6 0.8 0.6 1.5 1 2.2 1.5 6.7 5.4 10.3 12.7 12.3 20.9 1.6 6.3 1.6 12.6 1.3 19-0.2 4.8-0.5 9.7-0.8 14.5-0.1 1-0.3 2.1-0.6 3.1-5.8 14-13.6 26.6-24.5 37.2-8.6 8.3-18.3 14.6-30 17.5-1.9 0.5-4 0.8-6 0.8-25 0.1-50 0-75 0-0.6 0-1.1-0.1-1.9-0.1-0.1-1-0.3-1.9-0.3-2.9 0-4.7-0.1-9.4 0-14.1 0-1.4 0.2-2.8 0.6-4 1.6-5.3 3.3-10.5 4.9-15.7 1-3.4 3.3-5.3 6.7-5.8 1.4-0.2 2.9-0.2 4.4-0.2 15.1 0 30.3 0.1 45.4 0.1 4.2 0 8.4 0.1 12.6-0.2 2.7-0.2 5.5-0.6 8.1-1.5 8.3-2.6 15.3-7.3 21.1-13.7 5.7-6.3 6.9-13.8 5.9-22.2h-55.7c-0.1-1.1-0.3-1.9-0.3-2.8 0-6.9-0.1-13.7 0-20.6 0-2.1 0.3-4.2 0.7-6.2 1.2-6.2 4.4-11 9.7-14.5 7.6-5.1 15.1-10.3 22.7-15.4 0.8-0.6 1.6-1.3 2.4-1.9-0.5-0.1-0.5-0.3-0.6-0.5zM572.3 610h75.8c1.8 0 3.7-0.3 5.5-0.7 9.4-2.3 17.8-6.9 25.2-13.1 12.8-10.7 21.7-24.3 28.4-39.4 1.4-3.1 1.4-6.5 1.2-9.9-0.6 0.6-0.9 1.3-1.2 2-0.7 1.4-1.4 2.9-2.2 4.3-4.5 6.9-9.6 13.4-15.4 19.3-6.8 7.1-14.7 12.6-24 16-7.6 2.8-15.5 3.8-23.6 3.8-21.2 0-42.4-0.1-63.6-0.1-2 0-4 0.2-6 0.3-0.1 6-0.1 11.6-0.1 17.5z m120.4-163.7c-0.2-0.2-0.2-0.3-0.3-0.3-0.2-0.1-0.4-0.2-0.7-0.2h-59.9c-0.4 0-0.8 0.1-1.2 0.2-0.1 0-0.1 0.1-0.2 0.1-0.1 0.1-0.1 0.1-0.1 0.2v21.2c0.9 0.1 1.7 0.1 2.5 0.1h27.4c2 0 3.7-0.5 5.4-1.7 8.4-6.1 16.8-12 25.2-18.1 0.6-0.6 1.2-1.1 1.9-1.5z m-12.4 83c-0.3-1.2-0.5-2.3-0.9-3.4-3.5-8.9-10-14.6-19.3-16.8-2.8-0.7-5.8-1-8.7-0.9-7.4 0.1-14.9 0.6-22.3 0.9-1 0-2 0.3-3 0.5v19.7h54.2z m13.3-33.9c0.5-0.3 0.8-0.4 1.1-0.6 11.5-8.5 22.9-17.1 34.4-25.6 1.2-0.9 1.7-2 1.6-3.5-0.5-5.5-0.9-10.9-1.4-16.4 0-0.5-0.2-1-0.4-2.1-2.4 4.3-5.5 7-9 9.4-12.2 8.6-24.4 17.3-36.6 26-1 0.7-2 1.6-3.3 2.5 4.6 3.5 9.1 6.9 13.6 10.3z" p-id="752"></path></svg>