<?xml version="1.0" standalone="no"?><!DOCTYPE svg PUBLIC "-//W3C//DTD SVG 1.1//EN" "http://www.w3.org/Graphics/SVG/1.1/DTD/svg11.dtd"><svg t="1575517642716" class="icon" viewBox="0 0 1024 1024" version="1.1" xmlns="http://www.w3.org/2000/svg" p-id="6193" xmlns:xlink="http://www.w3.org/1999/xlink" width="200" height="200"><defs><style type="text/css"></style></defs><path d="M66.9 752.8C82 711 96.8 670.2 111.5 629.4c42-116.4 84.2-232.8 125.9-349.4 3.6-10 7.9-14.2 19.3-14.2 222.3 0.4 444.7 0.3 667 0.3 3.6 0 7.3 0.5 12.4 0.9-1.5 5.3-2.4 9.9-4 14.3C874.7 434 817.2 586.5 760.2 739.2c-4.1 11.1-9.2 14.8-20.9 14.8-219.3-0.3-438.5-0.2-657.8-0.3-4.2 0.1-8.4-0.4-14.6-0.9z m263.9-449.2c1.2 11.1 4.7 19.5 2.4 26-16 46.3-31.6 92.8-50.2 138.1-18.2 44-23.4 93.9-57.6 129.6h88.8c-1.1-9.1-4.9-17.7-2.6-24.1 24.9-70.4 50.7-140.6 76.7-210.6 1.5-4.1 7.2-9.4 10.9-9.4 38.1 0.1 76.3 0.2 114.4 2.3 19.2 1.1 24.8 12 20 30.9-6.2 24.2-25.2 40.5-51.9 42.1-21.5 1.3-43.1 0.3-64.6 1.3-5.3 0.2-13.1 2.6-15 6.3-6.8 13.3-11.5 27.7-16.9 41.3 35.3 0 68.5 1.6 101.5-0.4 48-2.9 83.4-27.6 105.8-69.7 32.6-61.2 7.7-103.1-61.7-103.7-59.1-0.5-118.2-0.1-177.4-0.1-7.8 0.1-15.7 0.1-22.6 0.1z m239.1 303c32.1-23.2 65.6-6.3 96.6-11.8-1.7 32.6-18.5 48.1-47.1 51.4-25.5 3-51.3 7.9-76.7 6.9-52.4-2.1-79-40.2-63.2-89.8 6-18.8 17.7-36 28-53.3 4.5-7.6 11.9-13.5 20.1-22.6-17 2.8-31.3 8.6-44.3 6.7-37.9-5.5-52.4 17.4-63.2 46.5-4.3 11.5-8.9 22.9-11.8 34.8-16.1 67 16 117 84 126.3 29.4 4 60.3 3.3 89.8-0.3 47.1-5.9 91.2-22.7 133.6-44.4-12.1-20.2 7.1-73.2 35.2-100.9-0.8-0.9-1.5-2.5-2.3-2.5-50.5-0.3-100.9-0.7-151.4-0.5-3.3 0-8.4 3.2-9.6 6.2-6.5 15.4-11.9 31.4-17.7 47.3z m153.6-117.9c18.7-22 36.4-42.7 52.2-61.3-16.3-4.4-31.4-7.1-45.4-12.5-33.4-12.8-67.6-17.3-103-14.3-5.2 0.4-12.6 1.5-15.1 4.9-12.5 17.3-23.6 35.6-35.6 54 53-13.7 103.4-13.7 146.9 29.2z" p-id="6194"></path></svg>