<?xml version="1.0" standalone="no"?><!DOCTYPE svg PUBLIC "-//W3C//DTD SVG 1.1//EN" "http://www.w3.org/Graphics/SVG/1.1/DTD/svg11.dtd"><svg t="1574847734474" class="icon" viewBox="0 0 1024 1024" version="1.1" xmlns="http://www.w3.org/2000/svg" p-id="3598" xmlns:xlink="http://www.w3.org/1999/xlink" width="200" height="200"><defs><style type="text/css"></style></defs><path d="M300.6 811.1l160.1-119.9L521.8 355c0.8-4.2 6.6-4.7 8-0.7l105.6 286.9 52.2 31-126.4-478.1c-1-3.9-6.4-4.2-7.9-0.5l-259 612.6c-1.7 3.9 2.9 7.5 6.3 4.9z" p-id="3599"></path><path d="M455.9 369.3l-25.8 61.1c-0.6 1.4-1.8 2.3-3.3 2.5l-104.4 13.7c-3.9 0.5-5 5.7-1.6 7.7l365.4 217.1c0.9 0.6 1.6 1.5 1.9 2.5l34.3 128.6c1 3.9-3.4 6.8-6.6 4.4L131.6 353.1c-3.2-2.5-1.3-7.7 2.8-7.5l317.8 17.8c2.9 0.2 4.8 3.2 3.7 5.9z m406.4 17.2l-254.1-14.7 10.4 39.4 95-11.4c4-0.5 6.3 4.4 3.4 7.2l-60.2 56.9c-1.1 1.1-1.6 2.6-1.2 4.1l14.4 54.1c0.7 2.8 4 4 6.4 2.4l188-130.4c3.3-2.3 1.9-7.4-2.1-7.6z" p-id="3600"></path></svg>