<?xml version="1.0" standalone="no"?><!DOCTYPE svg PUBLIC "-//W3C//DTD SVG 1.1//EN" "http://www.w3.org/Graphics/SVG/1.1/DTD/svg11.dtd"><svg t="1574996468304" class="icon" viewBox="0 0 1024 1024" version="1.1" xmlns="http://www.w3.org/2000/svg" p-id="4377" xmlns:xlink="http://www.w3.org/1999/xlink" width="200" height="200"><defs><style type="text/css"></style></defs><path d="M803.5 470.5c-23 26.1-52.7 51-88.4 71.6C697.7 644.6 608.5 722.8 501 722.8c-107 0-195.8-77.3-213.8-179.1-7.8-4.5-15.5-9.2-23-14.2-24-16.1-46.4-35.3-65.9-57.2-1.2 10.9-1.8 22-1.8 33.3C196.5 673.7 332.9 810 501 810c168.2 0 304.5-136.3 304.5-304.5 0-11.9-0.7-23.5-2-35z" p-id="4378"></path><path d="M501.1 201c-145.3 0-266.9 101.8-297.2 238 1.2 1.3 2.5 2.6 3.7 3.9 20.5 21.1 46.1 41.3 76.2 58.5C286 383.3 382.4 288.3 501 288.3c118.4 0 214.5 94.7 217.1 212.4 26.6-15.3 51.8-34.1 73.9-56.3 2-2 4-4.2 6-6.3C767.4 302.3 646.1 201 501.1 201z" p-id="4379"></path><path d="M501 308.1c-109 0-197.4 88.4-197.4 197.4S392 702.9 501 702.9s197.4-88.4 197.4-197.4S610.1 308.1 501 308.1zM345.3 438.6c3.3-7.7 7.1-15 11.4-21.9 51.8-6.3 125.6-8.5 174.2 18.9 81.6 46 47.9 78.2 8.5 82.7s-72.7-24.7-124.2 16.1c-30.3 23.9-16.1 77.5 0.7 117.6-73.2-42.5-104.8-133.7-70.6-213.4z m323.6 90.6c-0.4 2.5-0.8 5-1.2 7.4-0.1 0.3-0.1 0.6-0.2 0.9-0.4 2.2-0.9 4.3-1.4 6.5-0.1 0.6-0.3 1.3-0.4 1.9-0.4 1.8-0.9 3.6-1.5 5.5-0.3 1-0.5 1.9-0.8 2.9-0.4 1.5-0.9 3-1.4 4.5-0.4 1.3-0.9 2.6-1.3 3.9-0.4 1.2-0.9 2.4-1.3 3.6-0.6 1.6-1.2 3.1-1.9 4.7-0.4 1-0.8 1.9-1.2 2.9-0.8 1.7-1.5 3.4-2.4 5.1-0.4 0.8-0.8 1.7-1.2 2.5-0.9 1.8-1.8 3.5-2.7 5.2-0.4 0.8-0.8 1.5-1.2 2.2-1 1.8-2 3.5-3.1 5.2-0.4 0.6-0.8 1.3-1.2 1.9-1.2 1.9-2.4 3.7-3.6 5.5-0.3 0.5-0.6 0.9-0.9 1.4-1.4 2.1-2.9 4.1-4.4 6.1-0.1 0.2-0.2 0.3-0.4 0.5-46.1 59.7-128.4 83.1-200.9 52-1.5-0.6-2.9-1.3-4.4-2-5.8-33-6.6-76.3 22.1-95.2 49.5-32.5 91 20.5 153.2-2.2 62.2-22.7 33.8-144.2-84.2-172.9-55.1-13.4-107.7-6-148.2 5.8 1.6-1.9 3.3-3.8 5-5.6l0.1-0.1c1.7-1.8 3.4-3.5 5.2-5.2 0.4-0.4 0.8-0.8 1.2-1.1 1.7-1.7 3.5-3.3 5.3-4.9 0.3-0.2 0.6-0.5 0.9-0.7 5.6-4.8 11.5-9.3 17.7-13.3 0.7-0.4 1.3-0.9 1.9-1.3 1.7-1.1 3.5-2.1 5.2-3.2 1-0.6 2.1-1.2 3.2-1.8 1.6-0.9 3.2-1.8 4.8-2.6 2.6-1.3 5.2-2.6 7.8-3.8 0.9-0.4 1.9-0.8 2.8-1.2 2.2-0.9 4.4-1.9 6.6-2.7l3.3-1.2c1.5-0.5 3-1.1 4.6-1.6 1.1-0.4 2.2-0.7 3.3-1.1 1.6-0.5 3.3-1 4.9-1.4 1-0.3 2.1-0.6 3.1-0.8 1.7-0.4 3.5-0.8 5.2-1.2 1-0.2 1.9-0.4 2.9-0.6 1.9-0.4 3.7-0.7 5.6-1 0.8-0.1 1.7-0.3 2.5-0.4 2.1-0.3 4.2-0.6 6.2-0.8 0.6-0.1 1.2-0.2 1.8-0.2l7.2-0.6c0.3 0 0.6 0 0.9-0.1 72.1-3.9 141.5 38.8 168.1 110 10.2 27.4 12.9 55.7 9.1 82.8-0.3-0.2-0.3-0.2-0.3-0.1z" p-id="4380"></path></svg>