<?xml version="1.0" standalone="no"?><!DOCTYPE svg PUBLIC "-//W3C//DTD SVG 1.1//EN" "http://www.w3.org/Graphics/SVG/1.1/DTD/svg11.dtd"><svg t="1575532438144" class="icon" viewBox="0 0 1024 1024" version="1.1" xmlns="http://www.w3.org/2000/svg" p-id="3635" xmlns:xlink="http://www.w3.org/1999/xlink" width="200" height="200"><defs><style type="text/css"></style></defs><path d="M227.9 381.4c0 1 0.1 1.9 0.1 2.9v181.4H22.8V381.4h205.1zM64.4 532.3c0.3-0.7 0.5-1.3 0.8-1.7 3.5-6.6 7.2-13 10.3-19.8 2-4.4 4.7-6 9.4-6.6 25.1-3.6 50.2-7.4 75.3-11.3 1.6-0.2 2.3 0.1 3 1.5 8.5 16.3 17.1 32.6 25.6 49 0.6 1.2 1.4 1.6 2.7 1.6 7.9-0.1 15.9 0 23.8 0 0.6 0 1.2-0.1 2-0.1-10.4-18.5-20.6-36.8-31-55.3 7.7-1.3 15.1-2.5 22.4-3.6-0.3-0.3-0.6-0.4-0.8-0.4-7.4-0.4-14.7-0.9-22.1-1.2-1.7-0.1-2.8-0.6-3.7-2.2-9.8-17.7-19.7-35.3-29.6-52.9-2.4-4.3-4.8-8.5-7.3-13 12.3-4.6 24.3-9.1 36.4-13.6-0.6-0.4-1-0.5-1.5-0.5H114c-1.4 0-2.1 0.6-2.7 1.7-25.6 46.5-51.2 93-76.9 139.6-0.3 0.5-0.4 1-0.7 1.5h66.5c0-0.1 0-0.2 0.1-0.3-11.9-4.3-23.8-8.3-35.9-12.4zM338.9 615.2v-34.3c0.7 0 1.4-0.1 2.1-0.1h24.4c0.8 0 1.5 0 2.3 0.1 4.1 0.4 5.9 2.2 6 6.4 0.1 2.8 0.1 5.5 0 8.3-0.1 3.9-1.6 5.7-5.5 6.2-1.9 0.2-3.9 0.2-6.3 0.3 5.3 4.6 10.2 8.9 15.2 13.2h-8.7c-4.4-4.3-8.8-8.5-13.1-12.8-0.2-0.2-0.6-0.5-0.9-0.5h-9.6v13.3c-2-0.1-3.9-0.1-5.9-0.1z m5.9-29.8v11.9h20.1c1.6 0 2.8-0.9 2.8-2.7 0.1-2.1 0.1-4.3 0-6.4-0.1-1.8-1.2-2.8-3-2.8h-19.9zM712.7 615.2V581c2.8-0.6 4.9-0.3 6.7 2.4 4.1 6 8.6 11.7 12.9 17.5 0.5 0.6 1 1.3 1.6 2.1 3.4-4.9 6.7-9.7 10-14.4 1-1.4 2.2-2.7 2.9-4.3 1.6-3.4 4.2-4.2 7.9-3.2v31.7c0 0.8 0.1 1.6 0.2 2.5h-5.8c0.1-0.7 0.2-1.5 0.2-2.2v-20.3-4.4c-4.6 6.7-9.1 13.3-13.7 20-1.6 2.3-2.1 2.3-3.7 0.1-4.7-6.4-9.4-12.8-14.3-19.5v26.4c-1.6-0.2-3.3-0.2-4.9-0.2zM804.7 615.2c0.1-0.8 0.2-1.6 0.2-2.5v-29.2-2.6h32.9v4.6h-26.9v9.3h16.4v4.7h-16.4v10.8h27.4v4.9h-33.6zM259.4 615.2v-34.3h33v4.6h-26.8v9.4h16.3v4.6h-16.3v10.7H293v4.9c-11.3 0.1-22.4 0.1-33.6 0.1zM100.3 615.2c0.1-0.8 0.2-1.6 0.2-2.5v-29.2-2.6c2.1-0.3 3.7-0.3 5.4 1.3 7.9 7.3 16 14.4 24 21.6 1.2 1 2.3 2.1 3.3 3.1v-26h5.2v34.2h-3.3c-9.8-8.9-19.5-17.7-29.2-26.5v20.6c0 2 0.1 4 0.2 6h-5.8zM21.1 580.8h33v4.8h-27v9.3h16.4v4.7H27.1v10.7h27.6v4.9H21.1v-34.4zM624.4 615.2V581c2.3-0.4 3.9-0.2 5.6 1.4 6.8 6.3 13.9 12.5 20.8 18.7 2.2 2 4.3 4 6.5 6.1V581h5.2v34.3h-3.7c-0.5-0.6-0.9-1.2-1.4-1.7-5.6-5-11.1-10.1-16.7-15.1-3.6-3.3-7.2-6.5-10.9-9.9v26.7c-1.8-0.1-3.6-0.1-5.4-0.1zM884.2 615.2V581c2-0.3 3.6-0.2 5.3 1.3 7.8 7.2 15.8 14.2 23.7 21.3 1.2 1.1 2.5 2.1 3.6 3V581h5.1v34.3h-3.3l-10.8-9.9c-6.1-5.6-12.3-11.2-18.2-16.5v26.4c-1.8-0.1-3.6-0.1-5.4-0.1zM481.5 615.2c2.1-4 4.2-8.1 6.3-12 3.7-6.9 7.6-13.8 11.3-20.7 0.7-1.3 1.5-1.6 2.9-1.7 3.1-0.4 4.8 0.8 6.3 3.6 5.1 9.8 10.6 19.3 15.9 29 0.3 0.6 0.5 1.2 0.8 1.9h-6.2c-1.2-2.5-2.4-4.9-3.8-7.3-0.3-0.6-1.2-1.1-1.9-1.1-6.8-0.1-13.5-0.1-20.3 0-0.6 0-1.5 0.3-1.7 0.7-1.4 2.5-2.6 5.1-3.8 7.7-2-0.1-3.9-0.1-5.8-0.1zM503 585c-3.1 6-6 11.5-9 17.2h18c-3-5.8-5.9-11.3-9-17.2zM979.5 615.2c0.1-1 0.2-2.1 0.2-3.1v-23.8-2.7h-15.5v-4.7h36.8v4.6h-15.2c-0.1 0.6-0.3 1.1-0.3 1.5v26.9c0 0.4 0.1 0.8 0.2 1.2-2 0.1-4.1 0.1-6.2 0.1zM196 615.2v-29.6h-15.4v-4.7h36.9v4.6h-15.6v29.7H196zM429.3 615.2v-29.6h-15.4v-4.7h36.9v4.6h-15.6v29.7h-5.9zM568.5 615.2v-34.3h6V612.7c0 0.8 0.1 1.6 0.2 2.5h-6.2zM647.2 405.4h2.4c37.4 0 74.8-0.1 112.3 0.1 4.7 0 9.5 0.6 14.1 1.7 9.8 2.4 14.9 9.4 15.7 19.1 0.7 9.3 0.6 18.6 0.2 27.9-0.4 9.8-6.3 15.7-15.5 18.3-2 0.6-4.2 1-6.5 1.5 1.5 0.4 2.7 0.6 3.9 0.9 11.2 2.9 18.1 10.5 18.9 22.1 0.6 8.6 0.7 17.3 0.2 25.9-0.7 11.9-7 19.1-18.6 22.6-6.9 2.1-14 2.6-21.1 2.6H649c-0.5 0-1.1 0-1.8-0.1V405.4zM671 528.6h81.8c1 0 1.9 0 2.9-0.1 8-0.6 11.6-3.2 12.6-10.5 1.1-8.5 1.2-17.1-0.2-25.6-0.8-5.1-3.9-8.3-9.1-9.1-1.9-0.3-3.8-0.6-5.8-0.6h-80c-0.7 0-1.5 0.1-2.3 0.1 0.1 15.3 0.1 30.4 0.1 45.8z m0-64.6h83.4c1 0 1.9 0 2.9-0.1 6.2-0.7 9.6-3.2 9.9-8.4 0.4-7.5 0.4-15 0-22.5-0.2-4.3-2.8-6.7-7-7.5-2.3-0.4-4.7-0.7-7-0.7h-79.9c-0.7 0-1.5 0.1-2.3 0.1V464zM416.4 405.6v142.5h-22c0.7-38.7-0.9-77.2 1.1-116.3-0.7 1.3-1.1 2.1-1.5 2.9-4.7 9.8-11.3 18.3-17.3 27.2-14.1 20.7-28.4 41.3-42.5 62-1.8 2.6-6.9 2.7-8.7 0.2-18.5-25.2-37.1-50.4-55.5-75.7-3.3-4.5-6-9.5-8.6-13.8v113.5h-19.9V405.5h7.2c3.5 0 6.9 0.1 10.4 0 1.3 0 2.1 0.4 2.9 1.5 15.2 20.4 30.4 40.7 45.6 61.1 7.1 9.6 14.3 19.1 21.4 28.7 0.3 0.4 0.7 0.8 1.2 1.5 1-1.4 2-2.8 2.9-4.1 20.2-29.1 40.4-58.1 60.7-87.2 0.5-0.7 1.4-1.4 2.2-1.4 6.6-0.1 13.1-0.1 19.7-0.1 0.1 0 0.3 0 0.7 0.1zM609.6 528.5v19.6H471.3V405.6h137.3v19.1H495.4v39.6h69.1v19h-69.1v45.3c38-0.1 76.1-0.1 114.2-0.1zM994.1 548.1c-0.9 0-1.6 0.1-2.2 0.1h-22c-1.5 0-2.3-0.5-3-1.8-5.3-10.3-10.7-20.6-15.9-30.9-0.9-1.9-2-2.5-4.1-2.5-30.4 0.1-60.8 0.1-91.1 0-2 0-2.9 0.7-3.7 2.3l-15.9 30.9c-0.7 1.4-1.5 2-3.2 2-6.3-0.1-12.7 0-19.1-0.1-0.7 0-1.3-0.1-2.3-0.1 0.4-0.8 0.6-1.4 1-2 25.3-46.3 50.5-92.6 75.8-139 0.7-1.3 1.4-1.9 3-1.8 7.2 0.1 14.5 0.1 21.7 0 1.3 0 2.1 0.4 2.7 1.6 19.4 35.1 38.9 70.1 58.3 105.1 6.2 11.1 12.3 22.2 18.5 33.3 0.4 1 0.9 1.9 1.5 2.9zM901.5 422c-12.8 24.4-25.4 48.4-38.1 72.6h76.4c-12.8-24.2-25.5-48.2-38.3-72.6z" p-id="3636"></path><path d="M157.1 482.8c-21.9-1.1-43.3-2.2-65.1-3.3 1.9-3.7 3.7-7.1 5.4-10.5 6.9-13.3 14-26.4 20.7-39.8 1.7-3.4 4.1-5.1 7.8-5.8 10.3 19.6 20.6 39.3 31.2 59.4z" p-id="3637"></path></svg>