<?xml version="1.0" standalone="no"?><!DOCTYPE svg PUBLIC "-//W3C//DTD SVG 1.1//EN" "http://www.w3.org/Graphics/SVG/1.1/DTD/svg11.dtd"><svg t="1574751170180" class="icon" viewBox="0 0 1024 1024" version="1.1" xmlns="http://www.w3.org/2000/svg" p-id="2328" xmlns:xlink="http://www.w3.org/1999/xlink" width="200" height="200"><defs><style type="text/css"></style></defs><path d="M20.6 659.7c2-11.2 3.8-22 5.7-32.9l24.3-138c6.3-35.8 12.6-71.6 18.8-107.4 0.6-3.5 2.7-3.5 5.3-3.5h223.8c2-11 4.3-21.8 5.7-32.6 0.6-4.7 2.6-5.4 6.7-5.4 82.2 0.1 164.4 0.1 246.6 0.1H587c-2.4 14-4.7 27.2-7.1 40.5l-24.3 138c-5.8 32.7-11.7 65.4-17.3 98.1-0.7 4.1-2.1 5.3-6.2 5.3-27.3-0.2-54.7-0.1-82-0.1-45.1 0-90.3 0-135.4-0.1-3.9 0-6.1 0.5-6.7 5.3-1.4 10.9-3.7 21.6-5.7 32.6-93.7 0.1-187.2 0.1-281.7 0.1z m396.9-140.1h58.9c-18.6 21.2-40 33.8-67.3 33.8-37.8 0-64.4-31-58-68.3 6.2-36.2 28.4-59.4 62.9-70.4 30-9.5 62.2 1.9 74.8 29.6 0.5 1 2.1 2.2 3.2 2.2 11 0.2 22 0.1 34.7 0.1-3.3-8.4-5.5-16.3-9.2-23.5-16.4-31.7-52.4-48.8-90.1-43.4-37.7 5.4-67.1 24.4-88.8 55.2-17.7 25.1-25.6 53.3-19.7 84.1 8.8 45.2 49.1 72.4 97.9 66.3 36.2-4.5 64.7-23 86.6-51.6 4.6-6.1 9.5-12.1 10.6-20.3 1.2-8.7 2.9-17.4 4.5-26.5h-95.3c-1.8 10.6-3.6 21-5.7 32.7zM43.4 620.8c0.3 0.4 0.5 0.9 0.8 1.3 10.7 0 21.3-0.1 32 0.1 3.4 0.1 5.4-1.1 7.3-3.8 14.5-19.6 29.1-39.1 43.6-58.6 1.8-2.5 3.7-3.6 6.9-3.6 30.3 0.1 60.6 0.1 90.9 0 3.6 0 5.2 1.2 6.4 4.4 7 18.3 14.3 36.4 21.5 54.6 0.6 1.5 1.4 2.9 2.8 5.5 0.6-2.2 0.9-3 1-3.7 3.5-19.6 7-39.2 10.4-58.8 0.3-1.5-0.2-3.3-0.8-4.7-19.2-48.5-38.5-96.9-57.7-145.4-0.5-1.3-1.2-2.6-2.1-4.6-54.7 72.9-108.8 145.1-163 217.3zM655.7 565.1c-5.5 0.7-10.6 1.3-15.7 1.9-8.9-17.5-30.6-17.9-43-0.9-5.4 7.3-8.2 15.7-8.6 24.8-0.5 11.7 5.2 17.9 16.9 17.3 6.5-0.3 13.3-1.5 19.1-4.3 3.3-1.6 4.6-7.1 7.6-12.2h-22.5c1.3-4.2 2.3-8 3.8-11.5 0.4-1 2.1-2.1 3.2-2.1 11.3-0.2 22.7-0.1 34.6-0.1-0.4 1.8-0.5 3.2-0.9 4.5-2.8 8.9-5.6 17.9-8.7 26.7-0.6 1.8-2.2 3.8-3.9 4.6-13.1 6.3-26.9 9.6-41.6 7.8-15.9-2-24.3-11.3-24.8-27.3-0.7-25 18-48.8 42.6-53.4 9.1-1.7 18.4-1.5 27.1 2.5 9.1 4.1 13.4 11.5 14.8 21.7zM754.2 620.5c3.7-11.6 7.3-22.5 10.8-33.4 0.8-2.3 1.6-4.7 2.1-7.1 1.1-4.8-1.8-7.8-6.6-6.8-6.5 1.4-11 5.6-13.3 11.5-3.4 8.7-6.3 17.7-9.2 26.6-3 9.2-2.9 9.2-12.5 9.2h-7.1c1.9-6.1 3.6-11.5 5.4-16.9 3.9-12.2 8-24.4 11.8-36.6 0.9-2.8 2-4.1 5.1-3.8 3.7 0.3 7.5 0.1 11.6 0.1-0.3 2-0.6 3.5-0.9 5.3 18.3-9.6 27.7-8.9 33.4 2.4 6.3-5.2 13.3-9 21.8-9 11.3 0.1 16.6 6.4 13.4 17.2-3.8 12.9-8 25.7-12.2 38.5-0.4 1.2-2.4 2.6-3.8 2.7-4.2 0.4-8.5 0.1-13.6 0.1 1.2-3.9 2.2-7.4 3.3-10.9 3.1-9.5 6.3-19 9.1-28.7 0.6-1.9 0.5-5.2-0.7-6.1-1.6-1.3-4.6-1.6-6.8-1.1-6.4 1.6-10.4 6.4-12.6 12.2-3.8 10-7.2 20.1-10.4 30.3-1 3.2-2.3 4.6-5.8 4.3-3.8-0.2-7.8 0-12.3 0zM982.4 571.8c4.7-9.6 5.3-9.8 18.6-8.1-0.8 2.7-1.5 5.3-2.3 7.9-5.2 16.1-10.5 32.2-15.7 48.2-5.8 18-13.4 25.9-39.8 23.8-2.6-0.2-5.2-0.8-7.7-1.6-8.5-2.7-11.7-9.3-9.1-18.4 4.8 0.6 9.7 1.2 14.5 1.9 0.8 0.1 1.8 0.8 2.2 1.5 3.7 7 14.9 7.6 19.6 0.6 2.3-3.4 3.4-7.6 4.9-11.3-5.9 1.6-11.1 3.8-16.5 4.3-11.1 1-17.9-4.8-19.3-15.8-1.4-11.4 3.8-31.3 19.3-39.5 12.1-6.2 22.6-4.2 31.3 6.5z m-34.1 24.3c-0.2 11.4 7.3 16.1 15.9 11.3 7.9-4.4 10.8-12 12.3-20.3 1-5.4-1.3-10.4-5.5-12.7-4-2.2-9-1.4-13.1 2.4-6 5.6-8.8 12.9-9.6 19.3zM657.5 442.9c1.9 26.6 3.7 52.6 5.6 79.1h-16.4c-0.4-5.5-0.9-11.1-1.4-17.2-10.6 0-20.9-0.1-31.2 0.1-1 0-2.2 1.1-3 2-1.4 1.6-2.9 3.3-3.6 5.3-4.6 11.7-13.9 11.4-24.3 9.7 0.8-1.4 1.5-2.6 2.3-3.8 16.7-23.9 33.5-47.7 50.1-71.6 1.8-2.6 3.7-3.7 6.9-3.6 4.8 0.2 9.7 0 15 0z m-14.4 18.9c-0.4-0.1-0.7-0.2-1.1-0.3-7.1 9.6-14.2 19.3-21.7 29.4h24.3c-0.5-10-1-19.5-1.5-29.1zM821.9 522.2h-13.7c-0.5-1.8-0.9-3.5-1.3-4.8-4.2 1.8-8.1 4-12.3 5.3-9.4 2.8-17.8-0.8-20.7-8.4-3.2-8.3 0.9-19.7 9.5-22.8 7-2.6 14.7-3.1 22.1-4.5 2.3-0.4 4.5-0.8 6.8-0.9 3.8-0.2 4.9-3 4.5-5.8-0.3-1.9-2.3-4.6-4-5.1-4.8-1.4-9.3-0.6-13 3.4-1.1 1.2-3.2 2.1-4.8 2.1-3.9 0-7.8-0.6-13.6-1.2 3.9-4.2 6.6-8.3 10.3-10.8 10.3-6.9 21.7-7.2 33.1-3.4 6.8 2.2 9.9 8.3 8.3 15.3-1.1 5.1-3 10.1-4.4 15.1-2.3 8.6-4.4 17.1-6.8 26.5z m-9.8-26.9c-6.4 1.4-12 2.2-17.4 3.8-4.5 1.3-6.7 5.2-5.4 8.5 1.7 4.2 5.3 4.5 9 3.8 8.1-1.5 11.8-7.2 13.8-16.1zM705.5 620.3h-14.8c-0.3-1.5-0.6-2.9-0.9-4.4-0.4 0-1-0.1-1.4 0.1-4.3 1.9-8.5 4.4-13 5.6-7.5 1.9-14.4-0.9-17.7-6.4-3.5-5.7-2.5-14.7 2.2-20.4 4.3-5.2 10.2-7 16.5-7.9 5.9-0.8 11.7-1.5 17.6-1.9 4-0.3 5.6-2.5 5.8-6 0.3-3.8-2.5-5.2-5.6-5.7-4.6-0.7-8.7 0.4-12 4.2-0.9 1.1-2.9 1.8-4.4 1.8-4-0.1-8-0.6-12.6-1 3-7.2 8-11.5 14.5-14 7.6-3 15.5-3.2 23.3-1.6 10.9 2.2 15 8.7 12 19.4-2.1 7.6-4.9 15-7 22.6-1.2 4.8-1.6 9.9-2.5 15.6z m-10.9-26.5c-6.6 1.5-12.5 2.6-18.2 4.4-3.3 1-5.6 3.9-4.5 7.7 1.2 3.9 4.5 4.9 8.3 4.3 7.9-1.3 12.1-5.8 14.4-16.4zM894.7 620.5c4.2-13.2 8.3-25.6 11.9-38 0.7-2.3 0.6-6.3-0.8-7.5-1.8-1.5-5.6-1.7-8.1-1-7.2 2.1-12.1 7.3-14.6 14.4-3.3 9.4-6.4 19-9.5 28.5-0.8 2.6-1.9 3.8-4.8 3.7-4.1-0.3-8.2-0.1-13.1-0.1 6.3-19.5 12.4-38.3 18.4-57.2h15.4c-0.3 1.9-0.5 3.5-0.8 5.9 2.2-1.3 3.8-2.6 5.6-3.1 5.8-1.6 11.6-3.8 17.5-4 8.9-0.3 14.1 6 12.7 14.8-1 6.3-3.2 12.4-5.1 18.5-2.2 7.2-4.7 14.4-6.9 21.6-0.7 2.3-1.7 3.6-4.4 3.5-4.2-0.1-8.5 0-13.4 0zM737.4 478.5c-4.3 0.7-8.5 1.6-12.7 2.1-1 0.1-2.4-0.5-3.1-1.3-4.3-4.7-10.4-6.6-16.4-4.3-1.9 0.7-3.3 2.8-4.9 4.3 1.5 1.5 2.7 3.8 4.5 4.5 4.9 2 10.1 3.1 15 5 13 5 15.3 16.5 5.3 26.3-10.2 10.1-33.8 11.9-44.9 2.8-3.1-2.5-4.6-6.9-6.9-10.4-0.1-0.2 0-0.6 0.1-1.5 4.3-0.7 8.8-1.6 13.3-2 1.1-0.1 2.8 1.2 3.6 2.3 4.2 6.2 15.7 8 21.4 3 3.2-2.8 2.8-5.8-1.4-7.4-5.2-2.1-10.5-3.9-15.8-5.7-14.6-5-12-20.2-3.2-26.4 11.6-8.1 24.4-8.7 37.1-3.7 3.7 1.4 6 6.4 8.9 9.8 0.5 0.5 0.1 1.6 0.1 2.6zM773.6 464.7c-5.1 15.9-9.9 30.8-14.8 45.8-4 12.2-4 12.2-16.9 11.9-0.9 0-1.9-0.2-3.4-0.3 3.2-10 6.2-19.6 9.3-29.3 2.6-8.1 5.3-16.2 7.8-24.4 0.8-2.5 1.8-3.9 4.8-3.7 4.1 0.2 8.2 0 13.2 0zM858.2 563.2c-5.3 16.5-10.4 32.1-15.4 47.8-3.1 9.6-3.1 9.6-13.2 9.6h-6.1c0.4-1.8 0.6-3.2 1-4.4 5.1-16 10.4-31.9 15.3-47.9 1.3-4.1 3.3-5.4 7.3-5 3.4 0.2 6.8-0.1 11.1-0.1zM759.4 457.1c1.4-4.5 2.4-8.2 3.9-11.8 0.4-1 2-2.2 3.1-2.2 4.4-0.3 8.8-0.1 14.3-0.1-1.6 4.7-2.8 8.8-4.4 12.9-0.3 0.7-1.8 1.2-2.7 1.3-4.5 0-8.9-0.1-14.2-0.1zM844 555.5c1.5-4.7 2.6-8.6 4.1-12.3 0.3-0.9 1.9-1.7 2.9-1.8 4.6-0.2 9.1-0.1 14.2-0.1-1.4 4.4-2.6 8.5-4 12.4-0.3 0.7-1.3 1.7-2 1.7-4.9 0.2-9.7 0.1-15.2 0.1z" p-id="2329"></path><path d="M216.4 523.2h-61.8c13.5-18.1 26.6-35.6 40.4-54 7.4 18.5 14.3 36 21.4 54z" p-id="2330"></path></svg>