<?xml version="1.0" standalone="no"?><!DOCTYPE svg PUBLIC "-//W3C//DTD SVG 1.1//EN" "http://www.w3.org/Graphics/SVG/1.1/DTD/svg11.dtd"><svg t="1574847098170" class="icon" viewBox="0 0 1024 1024" version="1.1" xmlns="http://www.w3.org/2000/svg" p-id="2726" xmlns:xlink="http://www.w3.org/1999/xlink" width="200" height="200"><defs><style type="text/css"></style></defs><path d="M164 646.6c-0.4-0.1-0.9-0.2-1.3-0.2-23.9-1.1-45.9-8.2-65.5-22-15.9-11.2-28.5-25.6-37.4-42.9-4.6-8.8-7.5-18.3-9.3-28-0.4-2.2-0.7-4.3-1-6.5-0.1-0.3 0-0.7 0.1-1.1 0.2 0.2 0.3 0.4 0.5 0.7 10.8 15.7 24 29.1 39.2 40.5 16.1 12.1 33.8 21.5 52.6 28.7 13.4 5.1 27.1 9 41.1 11.6 8 1.5 16.1 2.6 24.3 3.2 7.4 0.6 14.9 0.7 22.3 0.6 1.9 0 3.9-0.2 5.9-0.1-0.2 0.1-0.3 0.3-0.5 0.4-12.9 6-26.4 10.4-40.4 12.9-6.5 1.2-13.1 2-19.7 2.2-0.4 0-0.8 0.1-1.2 0.2-3.3-0.2-6.5-0.2-9.7-0.2zM362 525.4c-0.1 0.3-0.2 0.6-0.2 0.8-0.6 11.7-3.4 22.8-8.3 33.4-5.8 12.8-14.2 23.7-24.7 33.1-10 8.9-21.3 15.8-33.5 21.3-11.4 5-23.2 8.6-35.4 10.9-2.8 0.5-5.7 1-8.5 1.4-0.1 0-0.3 0-0.5-0.1 14.8-8.4 28.4-18.3 40.5-30.2 12.1-11.9 22.4-25.3 30.8-40.1 8.4-14.7 14.6-30.3 18.7-46.8 4.1-16.5 5.8-33.2 4.9-50.5 0.3 0.4 0.4 0.5 0.6 0.7 6.8 12.8 11.7 26.3 14.1 40.6 0.7 3.9 1.2 7.8 1.3 11.7 0 0.3 0.1 0.6 0.2 1v12.8z" p-id="2727"></path><path d="M222.1 628.3c-5.7 0-12.6-0.3-19.5-1-14.8-1.5-29.3-4.4-43.6-8.7-19.2-5.8-37.5-13.8-54.5-24.5-15.8-9.9-30-21.8-42.1-36.1-4.7-5.5-9-11.3-12.9-17.4-0.5-0.8-0.7-1.5-0.8-2.4-0.3-5.3-0.2-10.7 0.1-16 0.5-8 1.7-15.8 3.5-23.6 5.6-23.8 15.9-45.3 30.4-64.8 14.8-20 32.9-36.2 54.1-49.1 15-9.1 30.9-16.4 47.8-21.6 1.5-0.5 3-0.4 4.5-0.3 18 2 35.5 6.1 52.6 12 18.3 6.3 35.6 14.8 51.4 25.9 16.3 11.4 30.4 24.9 42 41 2.3 3.2 4.4 6.6 6.6 9.9 0.5 0.7 0.7 1.5 0.8 2.3 0.4 5.3 0.7 10.6 0.6 16-0.1 5.5-0.4 10.9-1 16.4-1.1 9.4-2.9 18.6-5.5 27.7-7.5 26.5-20.4 50.1-38.5 70.8-12.2 13.9-26.3 25.5-42.1 35-4 2.4-8.2 4.7-12.3 7-0.6 0.3-1.4 0.6-2.1 0.6-5.9 0.6-12.1 0.9-19.5 0.9zM80.2 551.7h1.1c4.5 0.1 8.9 0.1 13.4 0.2 5.5 0.1 10.9 0 16.4-0.1 9.7-0.2 19.5-0.1 29.2-0.2 7.2-0.1 14.3-0.2 21.5-0.4 4.1-0.1 7.9-1.2 11.3-3.7 8.8-6.6 13.4-15.6 14-26.6 0.1-1.6 0.1-3.1 0.2-4.7 0.2-2.9-0.5-5.6-1.9-8.1-2.4-4.2-5.7-7.6-10-10.1-0.3-0.2-0.6-0.3-0.8-0.5-0.9-0.7-0.9-1.2 0-1.8 0.3-0.2 0.7-0.3 1.1-0.4 0.7-0.3 1.5-0.5 2.1-0.8 1-0.5 1.9-1.1 2.8-1.6 2.6-1.6 5.2-3.2 7.5-5.3 7-6.2 10.1-14 8.9-23.3-1.1-8.9-8-16.9-16.5-19.4-1.7-0.5-3.5-1.1-5.3-1.5-1.9-0.5-3.8-1.1-5.7-1.3-3.5-0.4-7-0.6-10.5-0.7-15-0.1-30-0.1-45-0.1-2 0-3.9 0-5.9 0.1-1.6 0-2.3 0.5-2.9 2-0.2 0.4-0.3 0.9-0.4 1.4-1.6 6.9-3.3 13.8-4.8 20.8-0.8 3.6-1.3 7.2-2.1 10.7-1.2 5.3-2.5 10.6-3.7 15.9-2.3 9.6-4.5 19.2-6.8 28.8-2.2 8.9-4.5 17.8-6.3 26.8-0.3 1.2-0.6 2.5-0.9 3.9z m170.5-41.5c0.9 0.1 1.7 0.2 2.4 0.2h32.1c1.4 0 2.9 0.1 4.4 0.5-1.1 6-3.7 11.2-8.3 15.2-2.1 1.8-4.4 3.4-6.8 5-2 1.4-4.3 2.3-6.8 2.6-3.4 0.5-6.7 0.9-10.1 1.4-2.1 0.3-4.3 0.4-6.4 0.1-2-0.2-3.9-0.5-5.9-0.8-1.5-0.2-3-0.7-4.4-1.4-2.2-1.2-4.4-2.5-6.4-4-6.7-5.2-9.8-12.2-10.1-20.6-0.1-2.2 0-4.5 0-6.7 0-4 0.2-7.9 1-11.9 1.2-5.9 3.9-11.1 7.4-16 4.1-5.6 9.3-9.9 15.7-12.5 2.3-0.9 4.7-1.7 7-2.4 4.6-1.4 9.2-1.7 14-1.2 1.3 0.1 2.6 0.2 3.7 0.8 2.6 1.3 5.2 2.8 7.7 4.5 4.7 3.2 8 7.6 9.2 13.2 0.2 0.8 0.8 1.2 1.5 1.4 0.4 0.1 0.8 0.1 1.2 0.1 6.9 0 13.9 0.1 20.8 0.1 0.5 0 1 0 1.4-0.1 0.8-0.2 1.2-0.7 1.2-1.5 0-0.5 0-1.1-0.1-1.6-0.2-1.1-0.4-2.2-0.6-3.2-0.8-3.8-1.9-7.4-4-10.7-2.2-3.5-4.8-6.6-7.9-9.3-9.6-8.2-20.8-12-33.2-12.5-4.2-0.1-8.4 0.1-12.6 0.7-3.8 0.5-7.6 1-11.2 2.3-3.7 1.3-7.4 2.8-11.1 4.3-2.7 1.1-5.2 2.4-7.6 4-10.1 6.9-17.1 16.3-22.3 27.2-1.8 3.8-2.8 8-3.9 12.1-1.5 5.7-2.4 11.6-2.2 17.5 0.1 2.3 0.1 4.6 0.2 6.9 0 0.7 0.1 1.4 0.2 2.1 0.1 0.7 0.3 1.4 0.4 2.1 0.1 0.6 0.1 1.2 0.2 1.7s0.2 1.1 0.4 1.6c1.5 3.1 2.9 6.3 4.6 9.3 3.8 6.5 9.1 11.6 15.6 15.3 6.2 3.5 12.8 5.8 19.8 7 3.9 0.7 7.8 0.9 11.7 0.6 2.8-0.2 5.6-0.5 8.4-0.6 7-0.3 13.8-1.6 20.5-3.7 8-2.5 14.7-7 20.2-13.3 2.9-3.4 5.2-7.1 7.2-11.1 2.3-4.8 4.6-9.6 5.8-14.8 0.9-3.5 1.5-7.1 2.3-10.7 0.3-1.5 0.5-2.9 0.9-4.4 0.3-1.3-0.8-2.6-2-2.4-0.9 0.1-1.7 0-2.6 0h-56.2c-1.9 0-2.4 0.4-2.9 2.3-0.1 0.3-0.1 0.6-0.2 0.9-0.6 2.7-1.3 5.5-1.9 8.2-0.5 1.9-0.9 3.9-1.4 6.2z" p-id="2728"></path><path d="M45.7 533.3c-0.2-0.4-0.3-0.6-0.4-0.7-1.4-2.6-2.8-5.1-4.2-7.7-3.7-7-6.2-14.4-8.3-22-2.6-9.6-4-19.3-4.1-29.2-0.1-18.9 4-36.7 13.3-53.2 6.8-12.1 16.1-22.2 27.2-30.5 10.9-8.2 23-14.4 35.9-18.9 9.6-3.4 19.4-5.7 29.4-7.3 11.6-1.8 23.3-2.5 35-2.3 3 0.1 6 0.2 9 0.5-0.3 0.1-0.5 0.2-0.8 0.3-18.6 6.3-35.9 15.1-52 26.2-30.7 21.3-53.5 49-67.8 83.6-4.8 11.5-8.2 23.3-10.2 35.6-1.4 8.2-2 16.4-2 24.6v1zM194.6 360.3c2.3-0.5 4.7-1 7-1.5 6.3-1.2 12.6-2.1 19-2.6 6.3-0.5 12.5-0.6 18.8-0.3 6.8 0.3 13.4 1.1 20.1 2.4 8.5 1.7 16.7 4.2 24.6 8 1.5 0.7 3.1 1.5 4.7 2.2 19.2 9.2 33.2 23.7 42.5 42.8 4.7 9.7 7.8 19.9 9.7 30.5 0.2 1.3 0.4 2.6 0.5 3.9-0.2-0.2-0.4-0.4-0.5-0.7-13.1-19.6-29.7-35.6-49.3-48.7-16-10.8-33.3-18.9-51.5-25-12.2-4.1-24.6-7.2-37.3-9.4-2.6-0.4-5.1-0.8-7.7-1.2-0.2 0-0.3-0.1-0.5-0.1 0-0.1-0.1-0.2-0.1-0.3zM345.4 451.8c-0.7-4.6-1.4-9.1-2.2-13.9 0.5 1.1 0.9 2 1 3 0.4 3.5 0.9 7.1 1.3 10.6v0.3h-0.1z" p-id="2729"></path><path d="M125.8 535.3h10.3c4.4 0 8.8-0.2 13.2-1.1 2.1-0.4 4.2-0.9 6.2-1.8 2.5-1.3 4.5-3.1 6.4-5.3 1.8-2.1 2.9-4.5 3.1-7.2 0.4-5.1-1.2-9.3-5.7-12-1.9-1.1-3.9-1.9-6-2.3-3.2-0.7-6.4-0.9-9.7-0.9-8-0.1-16.1-0.1-24.1-0.1h-4.4c-1.4 0-1.9 0.4-2.3 1.7-0.2 0.6-0.4 1.2-0.5 1.8-1.8 7.5-3.5 15.1-5.3 22.6-0.2 0.9-0.4 1.9-0.4 2.8-0.1 1.1 0.2 1.5 1.4 1.7 0.6 0.1 1.2 0.1 1.7 0.1h16.1z m-7.9-49c0.6-0.1 1.1-0.1 1.6-0.1 1-0.1 2-0.2 2.9-0.2 9.3-0.1 18.5-0.3 27.8-0.4 2.4 0 4.8-0.1 7.2-0.5 6.3-1.1 11.2-4.3 14.1-10.2 0.8-1.7 1.2-3.5 0.9-5.4-0.6-3.5-2.5-6.1-5.6-7.8-3.4-1.8-7.1-2.4-10.9-2.4-9-0.1-18.1-0.1-27.1-0.1-0.6 0-1.2 0-1.7 0.1-1.6 0.1-2.7 1-3.2 2.6-0.1 0.4-0.3 0.9-0.3 1.4-0.3 1.3-0.5 2.6-0.8 3.9-1.5 6-3 12.1-4.6 18.1-0.2 0.2-0.2 0.6-0.3 1z" p-id="2730"></path><path d="M125.8 535.3h-16.1c-0.6 0-1.2 0-1.7-0.1-1.2-0.2-1.5-0.5-1.4-1.7 0.1-0.9 0.2-1.9 0.4-2.8 1.7-7.5 3.5-15.1 5.3-22.6 0.1-0.6 0.3-1.2 0.5-1.8 0.4-1.3 0.9-1.7 2.3-1.7h4.4c8 0 16.1 0 24.1 0.1 3.2 0 6.5 0.2 9.7 0.9 2.1 0.5 4.1 1.2 6 2.3 4.5 2.8 6.2 6.9 5.7 12-0.2 2.7-1.4 5.1-3.1 7.2-1.8 2.1-3.8 4-6.4 5.3-1.9 1-4.1 1.4-6.2 1.8-4.4 0.9-8.8 1.1-13.2 1.1h-10.3zM117.9 486.3c0.1-0.4 0.2-0.8 0.2-1.1 1.5-6 3.1-12.1 4.6-18.1 0.3-1.3 0.5-2.6 0.8-3.9 0.1-0.5 0.2-0.9 0.3-1.4 0.5-1.5 1.6-2.4 3.2-2.6 0.6 0 1.2-0.1 1.7-0.1 9 0 18.1 0.1 27.1 0.1 3.8 0 7.5 0.7 10.9 2.4 3.2 1.6 5 4.3 5.6 7.8 0.3 1.9 0 3.7-0.9 5.4-2.9 5.9-7.8 9.1-14.1 10.2-2.4 0.4-4.8 0.4-7.2 0.5-9.3 0.2-18.5 0.3-27.8 0.4-1 0-2 0.1-2.9 0.2-0.4 0.1-0.9 0.2-1.5 0.2z" p-id="2731"></path><path d="M460.2 428.2c-1.4-0.1-2.2-0.2-3.1-0.2-11.9 0-23.7 0-35.6 0.1-2.8 0-4.6-0.9-5.9-3.5-3.1-6-6.5-12-9.8-17.9-1.6-2.9-0.9-4 2.6-4 20.6 0 41.2 0 61.8 0.1 3.2 0 5.2-0.8 6.7-3.7 4.2-7.7 8.7-15.1 13-22.7 1.1-1.9 2.5-2.4 4.6-2.4 9.5 0.1 19 0.1 28.5 0.1 4.1 0 5.1 1.9 2.9 5.7-3.7 6.4-7.4 12.8-11 19.2-0.5 0.9-1 1.9-1.7 3.4 1.6 0.2 2.6 0.4 3.7 0.4 15.7 0 31.3 0 47-0.1 3.1 0 5.1 1 6.5 3.7 3.1 5.7 6.2 11.3 9.3 17 1.8 3.3 0.8 4.7-2.9 4.7-24.9 0-49.7 0-74.6-0.1-2.7 0-4.4 0.9-5.6 3.3-1 2.2-2.6 4.2-3.7 6.4-0.4 0.8-0.7 1.9-0.5 2.7 0.1 0.4 1.6 0.6 2.4 0.6 7.2 0 14.3 0 21.5-0.2 2.6 0 4.4 0.8 5.8 3.1 10.8 17.3 21.8 34.6 32.7 51.9 8.1 12.7 16.2 25.4 24.3 38.2 0.6 1 1.2 2.7 0.8 3.6-0.4 0.8-2.2 1.2-3.4 1.2-9.7 0.1-19.5 0-29.2 0.1-3 0-4.9-1-6.6-3.6-13.6-21.8-27.4-43.5-41.2-65.2l-10.8-17.4c-1.8-2.9-2.7-2.8-4.3 0.1-14.6 26.1-29.2 52.2-43.8 78.4-0.8 1.5-1.7 2.9-2.5 4.4-1.2 2.3-3 3.4-5.7 3.4-9.9-0.1-19.7 0-29.6 0-3 0-3.9-1.7-2.4-4.4 5.3-9.3 10.6-18.6 15.9-28 10.9-19.4 21.8-38.8 32.7-58.1 3.4-6 6.9-12 10.3-18 0.3-0.7 0.5-1.2 0.9-2.3zM661.6 625.4c0.9-1.3 1.8-2.2 2.3-3.2 6-11.6 11.9-23.3 17.8-35 4.3-8.6 11-12.8 20.6-11.6 6 0.7 10.5 4.1 13.3 9.2 6.5 12.1 12.6 24.4 18.9 36.6 1 2 2.2 3.9 3.3 5.9 0.4-0.1 0.7-0.2 1.1-0.3 0.1-0.9 0.4-1.8 0.4-2.7-0.1-14.5-0.2-29.1-0.2-43.6 0-3.7 1.1-4.7 4.9-4.7 2 0 4-0.1 6 0 3.6 0.2 6.7 1.3 9.1 4.2 6.7 8.2 13.5 16.4 20.1 24.7 1.7 2.2 3 2.2 4.7 0.1 6.4-7.9 12.8-15.8 19.3-23.6 4.1-4.9 12.8-7.5 18.6-5.1 1.2 0.5 2.1 3 2.2 4.6 0.2 12 0.1 23.9 0.1 35.9 0 3.7 0 7.4 0.1 11.1 0.1 2.9-1.1 4.3-4.1 4.4-8.8 0.3-9 0.3-8.9-8.6l0.3-28.8c0-0.5-0.2-1-0.4-2.2-1.1 0.9-2 1.4-2.6 2.2-6.5 7.8-12.9 15.7-19.5 23.5-3.7 4.4-10.9 4.3-14.6-0.2-6.4-7.7-12.8-15.5-19.2-23.3-0.6-0.8-0.9-1.8-1.3-2.7l-1.5 0.9c-0.1 0.9-0.3 1.8-0.3 2.7 0 10.6 0.1 21.3 0.1 31.9 0 3.9-0.9 4.8-4.7 4.8h-17.8c-2.4 0-4-0.8-5.1-3-1.2-2.6-2.4-5.3-4.1-7.7-1-1.3-2.9-2.7-4.4-2.8-11-0.2-21.9-0.1-32.9-0.1-2.2 0-3.8 0.8-4.7 3-1.2 2.5-2.7 4.9-3.9 7.4-1.2 2.5-3.1 3.2-5.7 3.2-18.1-0.1-36.3 0-54.4-0.1-6.1 0-12.3-0.9-16.8-5.5-2.7-2.8-5.4-6.3-6.4-10-2.6-9.5-2.7-19.2 1.3-28.6 2.5-5.8 7.2-9.1 13.1-10.6 4-1 8.2-1.5 12.3-1.6 12.4-0.2 24.9-0.1 37.3-0.1 4.5 0 5.2 0.7 5.2 5.3 0 7.8 0 7.8-7.6 7.8H618c-2.1 0-4.3 0.1-6.3 0.5-4.4 1-7.6 3.5-7.9 8.3-0.3 4-0.6 8-0.1 12 0.7 6.4 3.9 9.4 10.4 9.6 10.3 0.3 20.6 0.1 30.9 0.1 2.5 0 3.3-1.2 3.2-3.6-0.2-3.5-0.1-6.9-0.1-10.4 0-3.9 1-4.8 4.7-4.9 8.7-0.1 8.7-0.1 8.7 8.6 0 4.9-0.1 9.8-0.1 14.7-0.5 0.3-0.3 0.5 0.2 1.4z m50-18.5c0.2-0.4 0.4-0.7 0.6-1.1-3-5.5-5.6-11.3-9.1-16.5-2.5-3.7-6.6-2.5-9 1.8-2.2 4.1-4.4 8.2-6.6 12.4-1.4 2.6-0.9 3.3 2.1 3.3 4.5 0.1 8.9 0 13.4 0 2.8 0.1 5.7 0.1 8.6 0.1zM879.7 374.1c2-0.1 3.2-0.2 4.4-0.2 6.2 0 12.4 0.6 18.5-0.2 6.4-0.8 10.3 1.7 13 7 2.1 4.1 5.1 5.9 9.8 5.2 2.3-0.4 4.7-0.1 7-0.1 2.9 0 3.8 1.5 3.2 4.1-0.9 4-1.9 8.1-2.8 12.1-0.7 3-2.4 4.3-5.5 4.2-5.7-0.2-11.4 0.1-17.1-0.2-3-0.1-4.4 1-4.9 3.7-1 4.9-2 9.9-3 14.8-0.5 2.7 0.9 3.3 3.2 3.3 9-0.1 17.9-0.1 26.9-0.1 5.2 0 5.8 0.9 4.7 5.9-1.4 6.5-2.5 13.2-3.7 19.8-2.3 12.4-4.5 24.8-6.7 37.3-1.2 6.5-2.4 13-3.5 19.5-0.6 3.4-2.5 4.6-5.9 4.4-5-0.2-10.1 0-15.1 0-3.3 0-4.5-1.3-3.9-4.6 3.5-19 6.9-38 10.4-57 0.1-0.8 0.4-1.5 0.7-2.2 0.8-2.1-0.1-2.9-2.2-3h-0.3c-2.6 0.1-5.7-0.7-7.5 0.5-1.6 1.1-1.8 4.4-2.2 6.7-2.9 15.1-5.8 30.3-8.7 45.4l-2.1 10.5c-0.4 2.4-2 3.5-4.2 3.5-5.7 0.1-11.4 0.1-17.1 0-2.9-0.1-4-1.5-3.4-4.4 3.6-18.8 7.2-37.5 10.8-56.3 2.8-14.7 5.5-29.4 8.4-44.1 0.5-2.4-0.1-3.8-2.8-3.5-2.8 0.2-4.6-1.1-5.9-3.5-2.3-4.1-4.9-8-7.2-12.1-0.6-1.1-1.1-2.6-0.8-3.6 0.2-0.7 2-1.1 3.1-1.1 5.1-0.1 10.3 0 15.4 0 0.9 0 1.8-0.4 2.7-0.7-0.4-0.9-0.6-1.8-1.1-2.6-0.9-1.3-2.1-2.3-2.9-3.7-0.8-1.2-1.1-2.8-1.7-4.7z" p-id="2732"></path><path d="M906.4 539.4h-80.9c-4.1 0-5.1-1.1-4.3-5 3.5-17.8 7.1-35.5 10.6-53.3 1.8-9.1 2.9-18.4 5.4-27.3 1.8-6.5-0.1-11.4-3.3-16.5-3.5-5.7-6.8-11.6-10.1-17.4-1.6-2.8-0.6-4.5 2.6-4.6 6.4-0.1 12.8-0.2 19.1 0.1 1.7 0.1 4 1.4 4.8 2.8 5.3 8.8 10.3 17.8 15.1 26.8 0.8 1.5 0.6 3.7 0.3 5.5-3.7 19.5-7.5 39-11.2 58.6-0.5 2.6-1.2 5.2-1.8 7.8-0.7 2.9 0.5 4 3.3 3.8 1.8-0.1 3.6 0 5.4 0h131.3c3.7 0 4.5 0.9 3.4 4.4l-2.7 9.3c-1.1 3.9-2.5 5-6.4 5h-80.6z" p-id="2733"></path><path d="M954.6 514.6h-20.1c-3.7 0-4.6-1.1-3.8-4.7 0.9-3.7 1.8-7.4 2.6-11.1 0.6-2.7 2.2-4 5-3.9 5.1 0.1 10.3 0 15.4 0.1 2.7 0.1 4-0.8 3.8-3.7-0.2-3-0.1-6 0-9 0.1-2.1-0.8-3.1-2.9-3.1-4.5 0.1-8.9 0-13.4 0.1-2.7 0-4-1.2-3.4-4 0.9-3.7 2-7.3 2.8-11 0.7-3.2 2.6-4.4 5.8-4.2 2.5 0.2 4.9 0 7.4 0.2 2.4 0.2 3.9-0.7 4.4-3.1 0.9-3.6 1.8-7.1 2.7-10.7 0.5-1.9-0.7-2.4-2.2-2.4h-10.4c-3.9 0-4.6-1.1-3.5-4.7 1.1-3.5 2.1-7.1 3-10.6 0.6-2.3 1.9-3.3 4.3-3.3 12.9 0.1 25.7 0 38.6 0 3.1 0 4.1 1.4 2.8 4.3-3.9 8.8-8 17.4-11.9 26.2-0.5 1.1-0.6 2.3-0.9 3.4 1.1 0.3 2.2 0.7 3.4 0.7 3 0.1 6-0.1 9.1-0.1 2.6-0.1 3.8 1.2 3.1 3.8-1.1 4-2.3 7.9-3.5 11.9-0.8 2.5-2.4 3.7-5.2 3.7-8.3-0.1-8.3 0-8.3 8.2v22.1c0 4.2-0.9 5-5.2 5-6.5-0.2-13-0.1-19.5-0.1zM474.7 603.7c1 0.8 1.6 1.5 2.3 1.9 7.5 3.9 8.4 18.8-1.3 23.5-3.8 1.8-8.3 3-12.5 3.1-15.7 0.4-31.3 0.2-47 0.2-3.1 0-4.5-1.3-4.5-4.4v-47.6c0-3.1 1.5-4.4 4.5-4.4 14.2 0.1 28.4-0.2 42.6 0.2 4.9 0.1 10 1.3 14.6 3 9.8 3.5 10.4 18.7 2.6 23.1-0.3 0.2-0.6 0.7-1.3 1.4z m-29 16.6h9.4c3 0 6 0.1 9-0.1 2.8-0.1 5.1-1.4 5.5-4.4 0.5-3.3-1.8-4.9-4.6-5.7-2-0.6-4.2-0.8-6.3-0.8-8.9-0.1-17.9 0.1-26.8 0-8.5-0.1-7.1-0.2-7.3 7.5-0.1 2.6 1 3.6 3.6 3.6 5.9-0.2 11.7-0.1 17.5-0.1z m-0.4-22.5h8.7c3.2 0 6.5 0.1 9.7-0.2 2.6-0.2 4.5-1.8 4.6-4.5 0.1-2.4-1.4-4-3.8-4.4-1.6-0.3-3.3-0.6-5-0.6h-29.2c-5.7 0-5.5 0-5.8 5.8-0.1 3 1 4 3.9 3.9h16.9zM920.4 604.1v23.1c0 4.5-0.6 5.1-5 5.1-3.1 0-6.3 0.1-9.4-0.2-7.9-0.6-13.2-5.7-17.9-11.4-7.2-8.7-14-17.7-21.1-26.5-1.1-1.4-2.5-2.6-3.9-3.6-2.2-1.5-3.3-0.9-3.3 1.8-0.1 2.8 0.1 5.6 0.1 8.4v26.5c0 4.3-0.6 5-4.8 5-8.6 0-8.6 0-8.6-8.6v-42.3c0-4.6 0.9-5.7 5.5-5.3 5.2 0.4 10.5 0.8 15.5 2.3 6.4 2 10.4 7.5 14.4 12.7 6 7.8 11.9 15.7 17.8 23.6 0.3 0.4 0.5 0.8 0.9 1 1.8 1.1 3.5 2.1 5.3 3.1 0.4-1.8 1.2-3.7 1.2-5.5 0.1-10.7 0-21.5 0-32.2 0-4.2 1-5.1 5.2-5 7.3 0.1 8.3-1.6 8.1 8.3-0.1 6.5 0 13.1 0 19.7zM967.6 632.4h-20.8c-13.7 0.1-22.5-7.6-23.5-21.3-0.4-5.6-0.2-11.4 0.5-17 1.1-8.6 6.5-14.1 14.8-16.3 4.1-1.1 8.4-1.5 12.6-1.6 12.5-0.2 25.1-0.1 37.6-0.1 3.8 0 4.8 0.9 4.8 4.7 0.2 8.4 0.2 8.4-8.4 8.4h-35.6c-10.1 0.1-13.7 3.8-13.7 13.9 0 1.9-0.1 3.8 0.1 5.7 0.5 7 4.2 10.7 11.2 10.9 10.2 0.2 20.4 0 30.6 0.1 2.7 0 3.5-1.2 3.4-3.8-0.2-3.6-0.1-7.2-0.2-10.7 0-3.1 1.4-4.4 4.5-4.4 8.4 0 8.4-0.1 8.4 8.2v18.4c0 4.3-0.8 5-5.2 5-7-0.1-14-0.1-21.1-0.1zM545.2 631.7c-8.6 0-17.2 0.5-25.8-0.1-9.7-0.7-16-6.8-17.8-16-1.6-8.4-2-17.1 0.9-25.5 2.4-6.9 7.5-10.8 14.2-12.5 4.1-1 8.4-1.4 12.6-1.5 12.2-0.2 24.4-0.1 36.6-0.1 4.5 0 5.2 0.7 5.2 5.3 0 7.8 0 7.8-7.9 7.8h-34.6c-1.7 0-3.4-0.1-5 0.2-5.5 1-9.1 2.8-9.3 9.1-0.1 4.9 0 9.8 0.5 14.6 0.4 3.5 4.8 6.4 9.6 6.5 10.5 0.2 21 0.1 31.5 0.1 2.2 0 2.9-1.1 2.9-3.2-0.1-3.8-0.1-7.6-0.1-11.4-0.1-2.9 1.3-4.2 4.2-4.3 8.5-0.2 8.5-0.3 8.5 8.3v18.4c0 4.2-0.7 4.9-4.8 4.9h-21.5c0.1-0.2 0.1-0.4 0.1-0.6zM978.5 406.1c-4 0-8.1 0.1-12.1 0-2.3 0-3.6 0.9-3.8 3.2-0.1 0.7-0.2 1.3-0.3 2-1.1 5.4-2 6-7.4 6-5.1 0-10.3 0.1-15.4 0-3.6 0-4.2-1.1-3.3-4.6 2.7-10.6 5.3-21.2 7.9-31.9 0.2-0.7 0.2-1.3 0.4-2 1.2-4.7 1.5-4.9 6.3-4.9h16.1c3.2 0 4.2 1.2 3.6 4.3-0.3 1.5-0.9 3-1.3 4.5-0.6 2.3 0.2 3.3 2.7 3.3 7.5-0.1 15-0.1 22.5-0.1 1.3 0 2.7 0 4 0.4 2.2 0.7 3.4 1.3 1.3 4.1-1.9 2.6-2.4 6.4-3.3 9.7-1.4 5.7-1.9 6.1-7.7 6.1-3.5 0-6.8 0-10.2-0.1 0 0.1 0 0 0 0zM833.7 373.9c1.5 0 3 0.2 4.3 0 6.2-1.2 9.7 1.4 12.3 7 3.3 7 7.6 13.6 11.3 20.4 0.6 1.2 1.2 2.8 0.8 3.9-0.2 0.7-2.3 1-3.5 1-5.8 0.1-11.6-0.1-17.4 0.1-3.2 0.1-5.2-1.1-6.8-3.8-4.4-7.9-8.9-15.7-13.4-23.5-2-3.5-1.1-5 3-5h4.7c1.6-0.1 3.1-0.1 4.7-0.1z" p-id="2734"></path><path d="M484.9 604.1v-23.5c0-4 0.7-4.6 4.8-4.6 8.7 0 8.7 0 8.7 8.6v42.6c0 4.2-0.9 5.1-5.1 5.1-8.5 0-8.4 0-8.3-8.4 0.1-6.6 0-13.2-0.1-19.8 0.1 0 0.1 0 0 0zM828.8 604v-23.1c0-4 0.9-4.9 5-4.9 8 0 8 0 8 7.9v43.3c0 4.4-0.7 5.1-5 5.2-8 0.1-8 0.1-8-7.8V604z" p-id="2735"></path></svg>