<?xml version="1.0" standalone="no"?><!DOCTYPE svg PUBLIC "-//W3C//DTD SVG 1.1//EN" "http://www.w3.org/Graphics/SVG/1.1/DTD/svg11.dtd"><svg t="1575012968003" class="icon" viewBox="0 0 1024 1024" version="1.1" xmlns="http://www.w3.org/2000/svg" p-id="7521" xmlns:xlink="http://www.w3.org/1999/xlink" width="200" height="200"><defs><style type="text/css"></style></defs><path d="M65.9 516.1c10.6-25.3 25.3-47.1 45.5-64.9 16.7-14.8 35.4-26.4 57.1-32.5 28.9-8.2 57.7 9.7 63.7 39.1 4.8 23.4-11.4 48.4-35.7 54.7-9.3 2.4-19.1 3-28.3 5.9-32.9 10.3-57.7 29.8-66.6 64.5-7.1 27.5 1.6 51.2 21.1 71.3 25.2 26.1 56.6 33.6 91.6 30.7 15.9-1.3 31.8-4 45.6-12.1 9.1-5.3 17.1-12.9 24.7-20.3 3-2.9 4.6-8.1 5.2-12.4 1.8-13.5-5.4-21.9-19-22.1-7.3-0.1-14.6 1.5-22 1.8-8.2 0.3-16.7 0.9-24.7-0.4-20.5-3.5-28.3-16.2-23.4-36.5 5.8-23.9 21.3-40.4 41.2-53.2 22.3-14.3 47.2-21.2 73.4-23.8 26.3-2.7 52.4-2.5 77.9 5.6 22.8 7.3 42.2 19.5 54.6 40.7 19.4 33.2 12.3 65-8.9 93.5-30.4 41-72.5 66.1-121.2 79.7-126.2 35.1-257.2-40-289.5-167.1C10 486.1 19.3 417.4 65 356.5c38.3-51 89.6-81.3 152.8-89.9 84-11.4 155.5 14.6 214.4 75.3 12.5 12.9 23.9 26.9 27.9 45.2 6 26.9 0.1 50.7-21.2 68.7-21.1 17.8-45.4 20.1-70.5 9.5-25.2-10.7-45.7-28.1-65.3-46.8-13.7-13-26.9-27-42.3-37.4-30.4-20.5-64.8-28.2-101.3-22.9-6.2 0.9-12.1 6.4-17.5 10.5-42.2 32.3-67 74.9-74.5 127.6-0.9 6.5-1.1 13.2-1.6 19.8zM532 637v11.6h18.4v5.5H532V672h-10v-40.4h29.5v5.4H532zM570.4 672v-40.4h9.8v35h15.2v-35h9.8V672h-34.8zM644.9 672l-13.7-24.9V672h-10v-40.4h11.3l13.6 25.4v-25.4h9.9V672h-11.1zM729.6 672v-4.3l-2.5 4.3h-22.4v-40.4h34.7v5.2h-24.6v29.9h14.8v-14.2h-7.4v-5.3h17.4V672h-10zM780.9 672l-2.6-9.7h-15l-2.6 9.7h-10.6l11.5-40.4h18.3l11.6 40.4h-10.6z m-9.5-35h-1.5l-5 19.8h11.9l-5.4-19.8zM840.6 672v-26l-8.3 26h-7.7l-8.1-25.7V672h-9.2v-40.4h13l8.3 25.7 8.1-25.7h12.8V672h-8.9zM869.1 672v-40.4h9.7V672h-9.7zM919.5 672l-13.7-24.9V672h-10v-40.4h11.3l13.6 25.4v-25.4h9.9V672h-11.1zM972.3 672v-4.3l-2.5 4.3h-22.4v-40.4h34.7v5.2h-24.6v29.9h14.8v-14.2h-7.4v-5.3h17.4V672h-10zM508.2 611.2H1001v5.7H508.2z" p-id="7522"></path><path d="M533.8 562.1V330.3H731l-23.2 30.4H567.9v79.9h102.6V471H567.9v117.2l-34.1-26.1zM908.4 487.1v-30.3l73.8-0.2v95.7c-16.8 13.4-34.1 23.4-51.9 30.2-17.8 6.7-36.1 10.1-54.9 10.1-25.3 0-48.4-5.4-69.1-16.3-20.7-10.9-36.3-26.5-46.9-47.1-10.6-20.5-15.8-43.5-15.8-68.8 0-25.1 5.3-48.5 15.8-70.3 10.5-21.8 25.6-37.9 45.3-48.5 19.7-10.6 42.4-15.8 68.1-15.8 18.7 0 35.5 3 50.6 9.1 15.1 6 26.9 14.5 35.5 25.3 8.6 10.8 15.1 24.9 19.5 42.2l-32.3 0.7c-3.9-13.1-7.1-15.7-12.9-23.3-5.7-7.5-14-13.5-24.6-18-10.7-4.5-22.5-6.8-35.6-6.8-15.6 0-29.1 2.4-40.5 7.1-11.4 4.8-20.6 11-27.5 18.7-7 7.7-12.4 16.3-16.3 25.5-6.6 16-9.9 33.3-9.9 51.9 0 23 4 42.2 11.9 57.7s19.4 27 34.6 34.5c15.1 7.5 31.2 11.3 48.2 11.3 14.8 0 29.2-2.8 43.3-8.5 14.1-5.7 24.8-11.8 32-18.2v-48.1h-40.4z" p-id="7523"></path><path d="M682.8 439.9h29.3L682.8 472zM899.9 455.9V487h-33.5z" p-id="7524"></path></svg>