<?xml version="1.0" standalone="no"?><!DOCTYPE svg PUBLIC "-//W3C//DTD SVG 1.1//EN" "http://www.w3.org/Graphics/SVG/1.1/DTD/svg11.dtd"><svg t="1575013406342" class="icon" viewBox="0 0 1024 1024" version="1.1" xmlns="http://www.w3.org/2000/svg" p-id="8297" xmlns:xlink="http://www.w3.org/1999/xlink" width="200" height="200"><defs><style type="text/css"></style></defs><path d="M537.6 567.5H20V440.9h577c28 40.8 56.1 81.6 84 122.5 0.8 1.1 0.9 2.8 1.3 4.2h-32.6c-4.5-6.2-9-12.4-13.3-18.7-1.6-2.4-3.3-3.4-6.2-3.3-24.6 0.1-49.2 0.1-73.8 0-2.9 0-4.6 1-6.2 3.4-4.1 6.2-8.4 12.3-12.6 18.5z m-383.3-70.6H94.4v16.8h41.7c0 2.8-0.3 5 0.1 7.2 0.9 5.1-1.5 7.6-6 9.1-16.6 5.5-33.2 6-49.9 0.9-7.7-2.3-13.3-7.4-16.1-15.2-6.9-18.9 2.2-36.4 21.9-40.2 19.5-3.8 38.8-3.8 55.9 9.9 3.5-4.4 7-8.7 11.1-13.9-6.4-3.4-11.8-7.2-17.9-9.2-20.4-6.8-41.1-6.9-61.6-0.1-11.1 3.7-20.2 10.2-26 20.7-13.3 24.2-2.1 52.7 24.5 62.6 14.7 5.4 30 5.8 45.4 4.2 12.2-1.3 23.8-4.6 33.8-12.2 1.3-1 2.9-2.6 3-4 0.1-12.1 0-24.3 0-36.6z m276.9 51.6v-92.2c-3.1 1.7-5.6 2.5-7.4 4.1-14.8 13.9-29.4 28-44.1 41.9-2.4 2.3-4.8 4.5-7.3 6.8-1.4-1.3-2.5-2.2-3.6-3.2-16.6-15.2-33.2-30.4-49.9-45.5-1.8-1.7-4.5-2.4-7.4-3.8v91.9h18.9v-53.1c1.9 1.6 3.1 2.6 4.3 3.6 11.1 10.1 22.2 20.2 33.2 30.4 3.2 3 5.6 3.2 8.8 0 10.6-10.4 21.4-20.6 32.1-30.9 0.8-0.8 1.8-1.4 3.6-2.8v52.8h18.8z m136.1-89.2H463v89.5h43.9c0.9 0 2.1-0.4 2.5-1 3.4-5.1 6.8-10.2 10.7-16.3h-37.9v-20.3h5.6c13.9 0 27.8 0 41.7-0.1 1.6 0 3.9-0.3 4.7-1.3 3.5-4.7 6.5-9.7 10.3-15.5h-62.2v-17.9h5.6c21.4 0 42.8 0 64.2-0.1 1.7 0 4.2-0.4 5.1-1.5 3.4-4.8 6.5-9.9 10.1-15.5z m-273.9 89.5c-0.4-1.3-0.5-1.8-0.7-2.2-20.1-29.3-40.2-58.7-60.4-88-2.6-3.8-4.6-3.5-7.5 0.8-19.1 28.5-38.3 57-57.4 85.4-0.7 1-1.2 2.1-2.1 3.7 6.9 0 13.6 1.2 19.4-0.5 3.4-1 5.4-6.7 8-10.3 0.6-0.8 0.9-1.9 1.6-2.3 1.8-1.2 3.8-3 5.8-3 19.1-0.2 38.3-0.1 57.4-0.2 2.8 0 4.7 0.7 6.3 3.2 2.2 3.7 4.7 7.2 7.3 10.6 0.9 1.1 2.4 2.4 3.6 2.5 6.1 0.5 12.1 0.3 18.7 0.3z m299.4-63.2c-7.5 11.2-14.5 21.7-21.8 32.5h44.1c-7.6-11.1-14.8-21.5-22.3-32.5z m104.8 81.9c-0.1-1.4-0.3-2.9-0.3-4.3V448.1c0-1 0.1-1.9 0.2-3.1 0.9-0.2 1.8-0.5 2.7-0.5 30 0 60-0.4 90 0.4 9.4 0.2 19 2.6 27.9 5.8 13.7 5 20.9 15.6 21.5 30.5 0.6 15.6-5.8 27.2-19.6 34.4-3.5 1.8-7.3 3.1-11.3 4.8 1 1.2 1.7 2.4 2.7 3.4 11.8 13 23.6 26 35.3 39.1 1.1 1.3 1.6 3.1 2.4 4.6h-37.4c-0.3-0.5-0.5-1.1-0.9-1.6-12.1-13.4-24.2-26.8-36.4-40-1.4-1.5-4-2.6-6.1-2.6-12-0.2-23.9-0.1-35.9-0.1-1.4 0-2.7 0.2-4.3 0.3v38.3c0 1.9-0.5 3.7-0.7 5.6-9.9 0.1-19.9 0.1-29.8 0.1z m30.7-71.4c0.9 0.2 1.3 0.4 1.8 0.4 19.2 0 38.3 0.1 57.5-0.2 4.7-0.1 9.5-1.3 14.1-2.5 5-1.3 7.1-4.9 7-10.1-0.1-5.1-2.6-8.1-7.3-9.3-2.9-0.8-5.9-1.7-8.9-1.8-20.9-0.4-41.8-0.6-62.7-0.8-0.4 0-0.8 0.3-1.4 0.6-0.1 7.8-0.1 15.6-0.1 23.7z m185 71.4v-94.9h-57.4V445H1001v27.4h-57.2V562c0 1.9-0.5 3.7-0.7 5.6-10-0.1-19.9-0.1-29.8-0.1z" p-id="8298"></path><path d="M207.7 515.4h42.1c-7.2-10.5-14.1-20.5-21.2-30.9-7.1 10.4-13.7 20.3-20.9 30.9z" p-id="8299"></path><path d="M207.7 515.4c7.1-10.6 13.8-20.5 20.8-30.9 7.2 10.4 14 20.4 21.2 30.9h-42z" p-id="8300"></path></svg>