<?xml version="1.0" standalone="no"?><!DOCTYPE svg PUBLIC "-//W3C//DTD SVG 1.1//EN" "http://www.w3.org/Graphics/SVG/1.1/DTD/svg11.dtd"><svg t="1574850214687" class="icon" viewBox="0 0 1024 1024" version="1.1" xmlns="http://www.w3.org/2000/svg" p-id="1086" xmlns:xlink="http://www.w3.org/1999/xlink" width="200" height="200"><defs><style type="text/css"></style></defs><path d="M318.1 326.5c0.4-1.3 0.7-2.6 0.9-3.9 0.3-1.4 0.5-2.8 0.6-4.2 0.1-1.4 0.2-2.9 0.2-4.3l4.5 0.1c0-1.6 0-3.1-0.1-4.7s-0.3-3.1-0.6-4.7c-0.3-1.5-0.6-3.1-1-4.6l-4.4 1.1c-0.4-1.4-0.8-2.8-1.2-4.1-0.5-1.4-1-2.7-1.6-4-0.6-1.3-1.2-2.6-1.9-3.8-0.7-1.2-1.5-2.5-2.3-3.6l3.7-2.5c-0.9-1.3-1.8-2.5-2.8-3.8-1-1.2-2-2.4-3.1-3.5s-2.2-2.2-3.4-3.2l-2.9 3.4c-1.1-0.9-2.2-1.8-3.4-2.7-1.2-0.8-2.4-1.6-3.6-2.3l2.3-3.9c-1.3-0.8-2.7-1.5-4.1-2.2-1.4-0.7-2.8-1.3-4.3-1.8l-1.6 4.2c-1.3-0.5-2.6-0.9-3.9-1.3h-0.2c-1.3-0.4-2.7-0.7-4.1-1-1.4-0.3-2.8-0.5-4.2-0.6-1.4-0.1-2.9-0.2-4.3-0.2s-2.9 0-4.3 0.1l-0.3-4.5c-1.6 0.1-3.1 0.3-4.7 0.6-1.5 0.3-3.1 0.6-4.6 1l1.1 4.4c-1.4 0.4-2.8 0.8-4.1 1.2-1.4 0.5-2.7 1-4 1.6-1.3 0.6-2.6 1.2-3.8 1.9-1.2 0.7-2.5 1.5-3.6 2.3-1.2 0.8-2.3 1.7-3.4 2.6l-2.9-3.5c-1.2 1-2.4 2-3.5 3.1s-2.2 2.2-3.2 3.4c-1 1.2-2 2.4-2.9 3.7l3.7 2.6c-0.8 1.2-1.6 2.4-2.3 3.6-0.7 1.2-1.4 2.5-2 3.8l-4.1-2c-0.7 1.4-1.3 2.8-1.8 4.3-0.5 1.4-1 2.9-1.5 4.4l4.3 1.2c-0.4 1.4-0.7 2.8-1 4.2-0.3 1.4-0.5 2.8-0.6 4.2-0.1 1.4-0.2 2.9-0.2 4.3l-4.5-0.1c0 1.6 0 3.1 0.1 4.7s0.3 3.1 0.6 4.7c0.3 1.5 0.6 3.1 1 4.6l4.4-1.1c0.4 1.4 0.8 2.8 1.2 4.1 0.5 1.3 1 2.7 1.6 4 0.6 1.3 1.2 2.6 1.9 3.8 0.7 1.2 1.5 2.5 2.3 3.6l-3.7 2.5c0.9 1.3 1.8 2.5 2.8 3.8 1 1.2 2 2.4 3.1 3.5s2.2 2.2 3.4 3.2l2.9-3.4c1.1 0.9 2.2 1.8 3.4 2.7 1.2 0.8 2.4 1.6 3.6 2.3l-2.3 3.9c1.3 0.8 2.7 1.5 4.1 2.2 1.4 0.7 2.8 1.3 4.3 1.8l1.6-4.2c1.3 0.5 2.6 0.9 4 1.3h0.2c1.4 0.4 2.7 0.7 4.1 1 1.4 0.3 2.8 0.5 4.2 0.6 1.4 0.1 2.9 0.2 4.3 0.2s2.9 0 4.3-0.1l0.3 4.5c1.6-0.1 3.1-0.3 4.6-0.6 1.5-0.3 3.1-0.6 4.6-1l-1.1-4.4c1.4-0.4 2.8-0.8 4.1-1.2 1.3-0.5 2.7-1 4-1.6 1.3-0.6 2.6-1.2 3.8-1.9 1.2-0.7 2.5-1.5 3.6-2.3 1.2-0.8 2.3-1.7 3.4-2.6l2.9 3.5c1.2-1 2.4-2 3.5-3.1s2.2-2.2 3.2-3.4c1-1.2 2-2.4 2.9-3.7l-3.7-2.6 2.4-3.6c0.7-1.2 1.4-2.5 2-3.8l4.1 2c0.7-1.4 1.3-2.8 1.8-4.3 0.5-1.4 1-2.9 1.5-4.4l-4.3-1.2v-0.3z m-34.5-8.5c0 3.7-3 6.8-6.8 6.8h-12.2c-3.7 0-6.8-3-6.8-6.8v-9.1c0-3.7 3-6.8 6.8-6.8h12.2c3.7 0 6.8 3 6.8 6.8v9.1zM263.3 555.9c-1.1-1.2-2.6-1.9-4.2-1.9h-54.3c-1.5 0-2.9 0.6-4 1.6l-19.1 19.1c-1.1 1.1-1.6 2.5-1.6 4v62.7c0 1.5 0.6 2.9 1.6 4l19.1 19.1c1.1 1.1 2.5 1.6 4 1.6H275.7c3.1 0 5.6-2.5 5.6-5.6v-51c0-3.1-2.5-5.6-5.6-5.6h-40.1c-3.1 0-5.6 2.5-5.6 5.6v11c0 3.1 2.5 5.6 5.6 5.6h6.9c3.1 0 5.6 2.5 5.6 5.6v6.3c0 3.1-2.5 5.6-5.6 5.6H223c-3.1 0-5.6-2.5-5.6-5.6v-56.1c0-3.1 2.5-5.6 5.6-5.6h15.3c3.1 0 5.6 2.5 5.6 5.6 0 4.5 2.5 5.6 5.6 5.6h26.1c3.1 0 5.6-1.3 5.6-5.6v-3.5c0-1.4-0.5-2.7-1.4-3.7l-16.5-18.8zM360.2 577.9c-0.9-0.9-2.2-1.4-3.5-1.4h-52c-1.3 0-2.5 0.5-3.5 1.4l-8.4 8.4c-0.9 0.9-1.4 2.2-1.4 3.5v4.3c0 2.7 1.2 4.9 4.9 4.9h43.4c2.7 0 4.9 2.2 4.9 4.9v5.4c0 2.7-2.2 4.9-4.9 4.9h-31.5c-1.3 0-2.5 0.5-3.4 1.4l-12.2 12.1c-0.9 0.9-1.4 2.2-1.4 3.5v18.4c0 1.3 0.5 2.6 1.5 3.5l12.2 12c0.9 0.9 2.1 1.4 3.4 1.4h24.6c1.3 0 2.5-0.5 3.4-1.4l3.5-3.5c1.8-1.8 4.9-0.5 4.9 2 0 2.3 1.3 2.9 2.9 2.9h28.8c2.7 0 4.9-2.2 4.9-4.9v-60.5c0-1.3-0.5-2.5-1.4-3.5l-19.7-19.7z m-15.6 62.5c0 2.7-2.2 4.9-4.9 4.9h-8.2c-2.7 0-4.9-2.2-4.9-4.9v-6c0-2.7 2.2-4.9 4.9-4.9h8.2c2.7 0 4.9 2.2 4.9 4.9v6zM514.8 577.3c-0.6-0.6-1.4-0.9-2.2-0.9h-20.2c-0.8 0-1.6 0.3-2.2 0.9l-7.8 8.1c-1.2 1.2-3.2 1.3-4.4 0l-8.2-8.2c-0.6-0.6-1.4-0.9-2.2-0.9h-26.4c-0.8 0-1.6 0.3-2.2 0.9l-4.3 4.3c-1.9 1.9-5.3 0.6-5.3-2.2 0-2.5-1.4-3.1-3.1-3.1H395c-1.7 0-3.1 1.4-3.1 3.1v83.6c0 1.7 1.4 3.1 3.1 3.1h31.3c1.7 0 3.1-1.4 3.1-3.1v-61.2c0-1.7 1.4-3.1 3.1-3.1h7.8c1.7 0 3.1 1.4 3.1 3.1v61.2c0 1.7 1.4 3.1 3.1 3.1h31.3c1.7 0 3.1-1.4 3.1-3.1v-61.2c0-1.7 1.4-3.1 3.1-3.1h7.8c1.7 0 3.1 1.4 3.1 3.1v61.2c0 1.7 1.4 3.1 3.1 3.1h31.2c1.7 0 3.1-1.4 3.1-3.1v-67c0-0.8-0.3-1.6-0.9-2.2l-16.6-16.4zM610.2 577.9c-0.9-0.9-2.2-1.4-3.5-1.4h-52c-1.3 0-2.6 0.5-3.5 1.4l-8.4 8.4c-0.9 0.9-1.4 2.2-1.4 3.5v4.9c0 2.3 1.9 4.2 4.2 4.2h44.1c2.7 0 4.9 2.2 4.9 4.9v5.3c0 2.7-2.2 4.9-4.9 4.9h-31.5c-1.3 0-2.5 0.5-3.5 1.4l-12.2 12.1c-0.9 0.9-1.4 2.2-1.4 3.5v18.4c0 1.3 0.5 2.6 1.5 3.5l12.1 11.9c0.9 0.9 2.2 1.4 3.4 1.4h24.5c1.3 0 2.5-0.5 3.5-1.4l3.5-3.5c1.8-1.8 4.9-0.6 4.9 2 0 2.5 1.7 3 2.9 3h28.7c2.7 0 4.9-2.2 4.9-4.9V601c0-1.3-0.5-2.6-1.4-3.5l-19.4-19.6z m-15.6 62.4c0 2.7-2.2 4.9-4.9 4.9h-8.2c-2.7 0-4.9-2.2-4.9-4.9v-5.9c0-2.7 2.2-4.9 4.9-4.9h8.2c2.7 0 4.9 2.2 4.9 4.9v5.9zM704.6 576.4h-20.2c-1.3 0-2.3-1-2.3-2.3v-14.9c0-2.5-2.5-4.3-4.9-3.5l-29.9 10.2c-1.5 0.5-2.5 1.9-2.5 3.5v4.7c0 1.6-0.7 2.4-3 2.4-2.8 0-4.4 0.9-4.4 3.7v15.1c0 2 1.7 3.6 3.8 3.6 3.3 0 3.7 1 3.7 3.7v39.7c0 1 0.4 1.9 1.1 2.6l20.3 20.2c0.7 0.7 1.6 1.1 2.6 1.1h34.3c2.1 0 3.7-1.7 3.7-3.7v-15c0-2.1-1.7-3.7-3.7-3.7H686c-2.1 0-3.7-1.7-3.7-3.7v-39.3c0-1.1 0.9-2 2-2h20.5c2 0 3.6-1.6 3.6-3.6V580c-0.2-2-1.8-3.6-3.8-3.6zM788.6 577.6c-0.6-0.7-1.5-1.1-2.5-1.1h-19.8c-0.9 0-1.7 0.4-2.4 1l-4.6 4.7c-2.1 2.1-5.7 0.6-5.7-2.3 0-1.8-0.9-3.3-3.3-3.3h-30.7c-1.8 0-3.3 1.5-3.3 3.3V663c0 1.8 1.5 3.3 3.3 3.3h30.7c1.8 0 3.3-1.5 3.3-3.3v-60.7c0-1.8 1.5-3.3 3.3-3.3h8c1.8 0 3.3 1.5 3.3 3.3v15.2c0 1.8 1.5 3.3 3.3 3.3h30.8c1.8 0 3.3-1.5 3.3-3.3v-18.7c0-0.8-0.3-1.6-0.8-2.2l-16.2-19zM884.7 578.8c-1.5-1.5-3.5-2.3-5.7-2.3h-42.2c-2.1 0-4.2 0.8-5.7 2.3l-17.7 17.7c-1.5 1.5-2.3 3.5-2.3 5.7v38.3c0 2.1 0.8 4.2 2.3 5.7l17.7 17.7c1.5 1.5 3.5 2.3 5.7 2.3H879c2.1 0 4.2-0.8 5.7-2.3l17.7-17.7c1.5-1.5 2.3-3.5 2.3-5.7v-38.3c0-2.1-0.8-4.2-2.3-5.7l-17.7-17.7z m-18.1 58.4c0 4.4-3.6 8-8 8H856.9c-4.4 0-8-3.6-8-8v-30.4c0-4.4 3.6-8 8-8H858.6c4.4 0 8 3.6 8 8v30.4zM1001 595.7l-18.2-18.2c-0.6-0.6-1.5-1-2.4-1h-18c-0.9 0-1.7 0.4-2.4 1l-4.7 4.7c-2.1 2.1-5.7 0.6-5.7-2.4s-1.6-3.3-3.3-3.3h-31c-1.8 0-3.3 1.5-3.3 3.3v83.1c0 1.8 1.5 3.3 3.3 3.3h31c1.8 0 3.3-1.5 3.3-3.3v-60.7c0-1.8 1.5-3.3 3.3-3.3h8.2c1.8 0 3.3 1.5 3.3 3.3v60.7c0 1.8 1.5 3.3 3.3 3.3h30.8c1.8 0 3.3-1.5 3.3-3.3V598c0.2-0.9-0.2-1.7-0.8-2.3z" p-id="1087"></path><path d="M210.4 689.9c-6.2 0.4-10.3 5.3-14.3 7.4-4.1 2.1-12.8 4.4-19 3.4-6.2-1-10.9-6.8-18.1-4.1-6.8 2.5-10.8 10.8-15.1 15.2-3.3 3.4-11.2 8.2-15.2 9.1-4 0.9-8.3 0.8-12.1 5.3-3.8 4.5-3.9 12.2 1.1 16.9 5.1 4.7 14.6 4.5 18.9-1.7 4.5-6.6 2.1-8.7 4.5-12.7s6.1-7.5 10.7-5.3c8.7 4.1 1.3 26.7-1.8 30.5-3 3.7-5.9 4.5-7.5 10.5-1.8 6.9 2.8 14.3 10.4 14.8 7.6 0.5 14.7-2.9 15.5-11.3 0.5-5.4-3-9.3-4.2-14.4-1.2-5.3-1-22.4 6.5-25.6 8.4-3.6 16.7 8.2 18.7 12.2 1.4 2.8 1.7 5.4 4.8 9.1 4.4 5.2 13.7 5.8 18.5-0.7 4.8-6.5 2.7-14.8-1-17.7-5.8-4.6-10.6-2.4-14.8-3.1-3.6-0.6-18.6-9-17.1-15.9s15-4.8 17.6-3.5c6.1 3 8.4 7.1 15.2 6.3 6.7-0.8 10.4-6.7 10-13.7-0.5-6.8-5.8-11.4-12.2-11zM93.2 273.7c4.4 1.2 12.1 5.6 15.8 10.6 3.7 5 3.2 12.6 10.1 15.6 6.5 2.8 15-0.6 21-1 4.6-0.3 13.5 1.6 16.9 3.7 3.4 2.1 6.4 5.1 12.2 4.4 5.8-0.7 11.1-6.4 10.6-13.4s-7.3-13.5-14.5-11.8c-7.6 1.8-7.4 5.1-11.8 6.4-4.4 1.4-9.4 1.4-11.2-3.4-3.4-9.1 17.2-20.9 21.9-21.6 4.6-0.7 7.1 0.4 12.5-2.7 6.1-3.5 7.7-12.6 2.6-18.3-5.1-5.7-12.4-8-18.6-2.3-4 3.7-4.1 9-6.7 13.7-2.7 4.8-14.4 17.5-21.9 14.7-8.4-3.1-6.3-17.6-5.1-22.1 0.9-3.1 2.4-5.2 2.7-10.2 0.4-6.9-5.8-13.8-13.6-12.3s-11.9 9.2-11.2 13.9c1 7.4 5.9 9.1 8.4 12.5 2.2 2.9 7.1 19.6 1.4 23.8-5.7 4.1-13.9-6.8-14.9-9.6-2.3-6.5-1-11.7-6.6-15.2-5.6-3.6-12.9-2.1-16.4 3.3-4.4 7-3.7 12.7 1.1 16.8 4.7 4.2 11 3.3 15.3 4.5z m122.4 219.4c3.2-26.4-3.6-33.2-5.4-42.2 24.1-9.2 33.8-18.9 38.3-25.4 1.9-2.7 3.4-4.8 4.4-9 0.8-3.3 1.1-7.9 1.2-13 0.4-16 7.5-24.7 11.7-35.2 3.8-9.3 4.1-25.8-7.4-35.2-16.5-13.6-40.3-3.4-46.6 3.4-3.3 3.6-8.7 8.9-15.4 11.1-9.8 3.3-16.1 3.6-20.9 5.2-3.6 1.2-7.7 5.2-9.9 7.3-8.7 8.7-12.6 20.5-16.1 33.1-5.9-9.5-27.2-21.4-48.9-31 0 0 24.1-52.5 13.4-57.7-9.4-4.6-66.8 60.6 6 109.3-86.5 30.7-115.9 83.4-90 135.3 28.7 57.4 79.3 77.8 79.3 77.8-31.6 6.8-54.8 43.1-61.8 56.8-1.8 3.5 2.2 5.1 2.2 5.1 57.5 27 99.2 13.5 99.9 5.6 1.3-14.8-68.7-19.8-68.7-19.8s53.5-17.4 60.8-53.9c3-15.3-12.4-35.2-31.5-53.4 11.2-4.1 23.2-10.5 35.7-20.2 31.2-24.4 33.7-59.1 45.4-73.8 0.6-0.7 1.3-1.6 2-2.4-4.1 54.9 49.8 41.7 49.8 41.7s17.1-3.5 17-10.6v-0.3c0.3-10.1-44.5-8.6-44.5-8.6zM336 481.2c-5.4 0.4-8.8 4.5-13.6 6.5-5 2.1-21.8 4.6-25.9-2.5-4.5-7.9 6.1-17.9 9.8-20.6 2.6-1.9 5.1-2.5 8.4-6.3 4.6-5.2 4.1-14.6-2.8-18.4-6.9-3.8-14.8-0.3-17.2 3.8-3.8 6.5-1.1 10.9-1.3 15.2-0.1 3.7-6.7 20-13.7 19.6-6.9-0.4-6.4-14.3-5.4-17.1 2.3-6.6 6.5-9.8 4.4-16.2-2.1-6.4-8.6-9.9-14.6-7.9-7.7 2.7-10.8 7.6-9.6 13.9 1.1 6.1 6.4 9.4 9 13.2 2.6 3.8 5.8 12.1 5.5 18.5-0.3 6.4-5.4 11.9-1.9 18.7 3.3 6.4 11.9 9.1 16.7 12.7 3.7 2.7 9.3 9.9 10.6 13.7s1.7 8.2 6.6 11.3c4.9 3.1 12.5 2 16.5-3.8s2.6-15.1-3.8-18.6c-5.8-3.2-8.8-0.7-13-2.5-4.2-1.8-8-4.9-6.4-9.8 3-9.3 26.1-5.5 30.2-3 4 2.4 5.2 4.9 11.2 5.9 6.8 1.1 12.9-5 13.3-12.7 0.2-7.1-4.7-14.2-13-13.6z m-66.1-90.7c1.4 0.3 2.6 1 3.6 2-0.3-9.1-5.1-16.7-5.1-16.7s-8 7.7-10.2 19.1c-2.2 11.3 2.4 22 2.4 22s7.4-5.4 11-14c-1.2 0.6-2.7 0.9-4.1 0.6-3.6-0.7-5.9-4.1-5.2-7.7 0.6-3.7 4.1-6 7.6-5.3z m-97.3-44.4s10.8 2.8 21.6-1.2 17.5-13.5 17.5-13.5-8.5-3.5-17.7-2.1c1.2 0.7 2.1 1.8 2.6 3.2 1.3 3.4-0.4 7.2-3.8 8.5-3.4 1.3-7.2-0.4-8.5-3.8-0.5-1.4-0.5-2.8-0.2-4.1-7.5 4.9-11.5 13-11.5 13z" p-id="1088"></path></svg>