<?xml version="1.0" standalone="no"?><!DOCTYPE svg PUBLIC "-//W3C//DTD SVG 1.1//EN" "http://www.w3.org/Graphics/SVG/1.1/DTD/svg11.dtd"><svg t="1574763515884" class="icon" viewBox="0 0 1024 1024" version="1.1" xmlns="http://www.w3.org/2000/svg" p-id="10620" xmlns:xlink="http://www.w3.org/1999/xlink" width="200" height="200"><defs><style type="text/css"></style></defs><path d="M150.2 697h-0.3c-0.6-0.4-1.2-0.9-1.8-1.2C106 671.5 64 647.2 21.9 622.9c-1.2-0.7-1.7-1.4-1.5-2.7v-0.1-147c0-4.8 0.1-9.6 0.3-14.4 0.2-5.4 5.4-9.2 10.7-7.9 3.9 1 6.5 4.3 6.6 8.3 0.1 4.6 0 9.1 0 13.7 0.1 4.2 3.1 7.6 7.4 8.3 3.9 0.7 8-1.7 9.3-5.6 0.4-1.1 0.5-2.4 0.5-3.6v-38.8-1.6c0.3-5.9 6.2-9.8 11.7-7.7 3.1 1.2 5.6 4.2 5.6 8.1v13.6c0 0.8 0 1.6 0.2 2.3 0.6 4.2 4.3 7.3 8.5 7.3 4.3 0 8-3.2 8.5-7.5 0.1-0.8 0.1-1.6 0.1-2.5v-52.7c0-0.7 0-1.5 0.1-2.2 0.5-5 5.4-8.6 10.4-7.5 4.1 0.9 6.8 4.4 6.9 8.8v35.9c0.1 4.5 3.5 8.2 8 8.5 4.3 0.3 8.2-2.6 9.1-7 0.1-0.8 0.2-1.5 0.2-2.3v-25.5c0-4.3 3.3-7.9 7.5-8.3 4.5-0.5 8.4 2.1 9.5 6.4 0.2 0.8 0.3 1.7 0.3 2.6v11.8c0.1 4.3 3.4 8 7.5 8.4 4.5 0.5 8.5-2.2 9.5-6.5 0.2-0.9 0.2-1.9 0.2-2.9v-31.8-1.3c0.2-4.4 3.3-7.9 7.7-8.4 4.2-0.5 8.2 2.1 9.3 6.3 0.3 1.1 0.3 2.2 0.3 3.3v36.6c0 0.7 0 1.5 0.1 2.2 0.5 5.6 6.4 9.2 11.6 7.1 3.4-1.4 5.6-4.6 5.6-8.3v-13.7c0.1-6.3 6.7-10.3 12.3-7.6 3.3 1.6 4.9 4.3 4.9 8v36.3c0.2 4.2 3.5 7.8 7.6 8.2 4.5 0.4 8.3-2.2 9.4-6.4 0.2-1 0.3-2 0.3-3 0.3-5.8 6-9.7 11.4-7.8 3.3 1.1 5.6 4.1 5.8 7.6v21.9c0 5.7 4.7 9.6 10.1 8.7 4-0.6 7-4.1 7.1-8.4 0.1-1.6 0-3.1 0.1-4.7 0.3-3.8 3.1-6.9 6.7-7.7 3.9-0.8 7.7 1 9.5 4.4 0.3 0.6 0.5 1.3 0.8 2v166.3c-0.2 0.1-0.4 0.1-0.5 0.2-1.9 1.1-3.9 2.2-5.8 3.3l-121.5 70.2c-0.7 0.2-1.2 0.6-1.6 0.9z m-20.5-131.7h40.7V596c1.5 0.3 39.4 0.3 40.6 0v-96.6c-1.9-0.3-39.5-0.2-40.6 0.1v26.9c0 1.8 0.1 3.6-0.1 5.3-2.6 0.3-39.5 0.2-40.6-0.1v-16.1-16.1H89.1v96.7c1.4 0.3 39.4 0.3 40.6 0v-30.8z" p-id="10621"></path><path d="M141.4 357.7v12.5c0 4.1-2.7 7.4-6.6 8.4-5.3 1.3-10.5-2.7-10.6-8.1-0.1-8.5 0-17 0-25.5 0-4.6 3.9-8.3 8.6-8.4 4.7 0 8.6 3.7 8.6 8.3 0.1 4.2 0 8.5 0 12.8zM176 334.7v12.7c0 4-2.9 7.2-6.1 8.1-5.1 1.5-10.3-1.9-11-7.1-0.1-0.5-0.1-1-0.1-1.5v-24.5c0-2.4 0.7-4.5 2.4-6.2 2.6-2.6 5.8-3.3 9.2-2 3.5 1.3 5.4 3.9 5.5 7.7 0.1 4.3 0.1 8.5 0.1 12.8zM201.9 368.3c4.7 0 8.6 3.8 8.7 8.4 0 4.8-3.8 8.6-8.6 8.6-4.7 0-8.6-3.7-8.7-8.4 0-4.7 3.8-8.5 8.6-8.6zM133 304c4.5-0.1 8.5 3.9 8.5 8.6 0 4.6-4.1 8.6-8.9 8.5-4.7-0.2-8.4-4-8.3-8.8 0-4.3 3.8-8.5 8.7-8.3z" p-id="10622"></path><path d="M1001 520.8h-4.8l0.3-14.1c-0.1 0-0.2 0-0.2-0.1-1.5 4.7-3.1 9.4-4.6 14.2h-4.5c-1.6-4.7-3.1-9.3-4.7-14h-0.3c0.1 4.6 0.2 9.2 0.4 13.9-0.9 0-1.7 0.1-2.5 0.1h-2.3c-0.3-1.1-0.4-17.5-0.1-19h7.9l3.6 11.7h0.3c1.1-3.9 2.3-7.8 3.4-11.8h8.1v19.1zM650.9 581.8h-21.2c-0.3-1.1-0.4-78.7-0.1-81.1 0.9-0.3 34.8-0.4 36.8-0.1 0.8 2.1 1.6 4.3 2.4 6.5 6.6 17.9 13.3 35.7 19.9 53.6 0.2 0.4 0.3 0.9 0.5 1.3 0.1 0.2 0.4 0.3 0.9 0.5 0.1-7.1-0.1-13.9-0.2-20.8l-0.3-20.5c-0.1-6.9-0.2-13.7-0.3-20.7h21.6v81.3h-37c-0.2-0.4-0.4-0.9-0.6-1.4-6.5-17.8-13.1-35.6-19.6-53.4-0.9-2.3-1.7-4.6-2.5-7-0.2-0.6-0.5-1-1.3-0.6 0.4 20.7 0.7 41.5 1 62.4zM468.9 500.4h43.5c4.7 0 9.3 0.4 13.7 1.9 0.6 0.2 1.1 0.4 1.7 0.6 5.1 1.9 8 5.6 9 10.8 1.3 6.3 1 12.5-0.7 18.6-0.8 2.9-2.6 4.9-5.3 6.1-1.6 0.7-3.3 1.1-5 1.6l-0.9 0.3c0 0.7 0.5 0.5 0.8 0.6 1.6 0.4 3.2 0.6 4.8 1.1 3.4 1.1 5.7 3.3 6.8 6.7 0.6 1.9 1.1 3.8 1.3 5.7 0.5 5 0.3 10.1-1 15-0.3 1.1-0.7 2.1-1.1 3.1-1.3 3.1-3.5 5.2-6.5 6.6-2.7 1.2-5.6 1.9-8.5 2.2-3.2 0.3-6.3 0.5-9.5 0.5-13.8 0.1-27.6 0-41.5 0h-1.7c0.1-27.1 0.1-54.1 0.1-81.4z m21.9 63.4c0.4 0 0.7 0.1 1 0.1h15c2.1 0 4.2-0.2 6.3-0.7 1.8-0.4 3-1.4 3.5-3.2a15 15 0 0 0 0-8.4c-0.4-1.4-1.4-2.4-2.8-2.7-2-0.3-4.1-0.7-6.1-0.8-5.2-0.1-10.5 0-15.7 0-0.3 0-0.7 0.1-1 0.1-0.2 5.3-0.2 10.4-0.2 15.6z m0-30.8H504.7c2.6 0.3 5.2-0.1 7.8-0.7 1.7-0.4 2.6-1.5 3-3.1 0.6-2.5 0.5-4.9-0.2-7.3-0.4-1.5-1.5-2.6-3-2.9-1.2-0.3-2.4-0.5-3.7-0.5-5.6-0.1-11.2 0-16.8 0-0.3 0-0.7 0.1-1.1 0.1 0.1 4.8 0.1 9.5 0.1 14.4zM791.9 500.5c0.4 0 0.6-0.1 0.9-0.1 14.4 0 28.8 0 43.3 0.1 4.5 0 8.9 0.7 13.1 2.1 0.3 0.1 0.7 0.2 1 0.4 5.1 1.8 8.4 5.3 10 10.5 1.2 3.9 1.6 7.8 1.7 11.8 0.1 5.1-0.2 10.3-1.5 15.3-0.8 2.9-2.5 5-5.1 6.5-2.4 1.4-5 2.2-7.7 2.9-0.6 0.2-0.6 0.2-1.1 0.8l1.2 0.3c1 0.2 2.1 0.3 3.1 0.5 5.8 1.4 9 5.1 10.1 10.9 0.3 1.4 0.4 2.8 0.4 4.2v13.9c0 0.4 0 0.7-0.1 1.2h-22c0-0.5-0.1-1-0.1-1.5v-9.2c0-1.8-0.2-3.6-0.7-5.3-1.1-3.4-3.1-5.1-6.7-5.3-0.8-0.1-1.6-0.1-2.3-0.1h-15.7v21.2c-1.1 0.3-20 0.4-21.8 0.1v-81.2z m21.9 41.2h17.3c1 0 2-0.1 3-0.2 2.9-0.4 4.2-1.5 4.9-4.3 0.9-3.6 0.8-7.2 0.4-10.8-0.1-1.1-0.4-2.2-0.7-3.3-0.4-1.4-1.3-2.4-2.8-2.8-1.2-0.3-2.4-0.7-3.6-0.7l-17.9-0.3c-0.2 0-0.4 0.1-0.6 0.1v22.3zM870.7 544.3c0-4.1-0.1-8.2 0-12.2 0.2-4.4 0.5-8.8 1.6-13.1 0.6-2.4 1.5-4.7 2.8-6.9 2.2-3.6 5.2-6.3 9.1-7.8 6.1-2.4 12.5-3.8 19-4.1 5.9-0.3 11.8-0.1 17.6 0.6 4.2 0.5 8.3 1.5 12.2 3.2 4.9 2.2 8.2 5.7 10.2 10.6 1.4 3.5 2.2 7.2 2.7 10.9 1 8.1 0.7 16.2 0.1 24.3-0.4 5.5-1.2 11-2.8 16.4-0.4 1.3-0.8 2.5-1.3 3.8-1.1 3-3.1 5.3-5.7 7-3.4 2.2-7.1 3.4-11 4.1-7 1.4-14 1.5-21.1 1.3-3.9-0.2-7.9-0.4-11.8-1.2-2.9-0.6-5.7-1.5-8.4-2.6-4.1-1.6-7.2-4.4-9.3-8.2-1.8-3.3-2.9-6.8-3.3-10.4-0.4-3.5-0.5-6.9-0.6-10.4-0.2-1.8-0.1-3.6 0-5.3-0.1 0-0.1 0 0 0z m53.4-2.6c0-3.6 0.1-6.7 0-9.7-0.1-2.7-0.5-5.5-1.5-8.1-0.8-2.1-2.3-3.4-4.3-4.1-0.7-0.3-1.5-0.5-2.2-0.6-4.1-0.8-8.1-0.5-12.2-0.1-1.8 0.2-3.5 0.6-5.2 1.1-2 0.6-3.4 1.9-3.9 4.1-0.4 1.9-0.9 3.8-1.1 5.7-0.8 6.6-0.7 13.2-0.5 19.8 0.1 3.1 0.5 6.2 1.5 9.2 0.5 1.5 1.5 2.6 2.9 3.3 0.9 0.4 1.9 0.9 2.8 1 1.7 0.3 3.4 0.6 5.2 0.6 3.6 0.1 7.1 0 10.7-0.9 3.7-0.9 6-3.1 6.8-6.7 0.4-1.9 0.8-3.9 0.9-5.8 0-3.2 0-6.2 0.1-8.8zM370 581.8h-21.8v-31.9h-28.4v31.9H298v-81.3h21.7v30.6c3.2 0.2 6.3 0.1 9.4 0.1h19v-30.7h21.8c0.1 27.1 0.1 54.1 0.1 81.3zM402.7 500.5h33.2c8.2 27.1 16.5 54.1 24.8 81.3h-22.2c-1.4-4.6-2.8-9.2-4.3-13.9h-29.3c-1.3 4.6-2.6 9.3-3.9 13.9h-22.4l-0.1-0.1-0.1-0.1c0-0.2 0.1-0.5 0.1-0.7 8.1-26.8 16.1-53.6 24.2-80.4z m17 16.6h-0.3c-3.3 11.6-6.5 23.1-9.8 34.8h20.2c-3.4-11.7-6.7-23.2-10.1-34.8zM565.9 500.5H599c8.2 27 16.5 54.1 24.7 81.2-1.1 0.3-20.2 0.4-22.2 0.1-1.4-4.6-2.8-9.2-4.2-13.9h-29.2c-1.3 4.6-2.6 9.3-3.9 13.9h-22.5c0-1.1 23.4-79.4 24.2-81.3z m17 16.6h-0.3c-3.3 11.6-6.6 23.2-9.8 34.8 1.9 0.3 19.1 0.2 20.2-0.1-3.5-11.6-6.8-23.1-10.1-34.7zM778.3 533v15.1h-34.6v15.6c1.5 0.3 3.1 0.1 4.6 0.1h33c0.3 1.1 0.4 16.3 0.1 17.9h-59.5v-81.1c1-0.3 57-0.3 58.8-0.1v17.8h-37v14.6c11.5 0.1 23 0.1 34.6 0.1zM969.4 520.8h-5.1v-14.6h-4.8V502c1-0.3 13.3-0.3 15-0.1v4.2h-5.1c-0.1 5 0 9.8 0 14.7z" p-id="10623"></path></svg>