<?xml version="1.0" standalone="no"?><!DOCTYPE svg PUBLIC "-//W3C//DTD SVG 1.1//EN" "http://www.w3.org/Graphics/SVG/1.1/DTD/svg11.dtd"><svg t="1574994174978" class="icon" viewBox="0 0 1024 1024" version="1.1" xmlns="http://www.w3.org/2000/svg" p-id="919" xmlns:xlink="http://www.w3.org/1999/xlink" width="200" height="200"><defs><style type="text/css"></style></defs><path d="M168.6 592.6c-0.5-0.1-0.9-0.2-1.4-0.2-2.1-0.2-4.2-0.6-6.1-1.4-5.1-2-8.3-5.8-9.7-11.1-0.7-2.4-0.9-4.8-0.9-7.3v-5.5-155.8c0-0.6-0.1-1.2 0.1-1.8 0.2 0 0.4-0.1 0.5-0.1H184c0.1 0.3 0.2 0.5 0.2 0.8v153h0.8c0.7-0.1 1.3-0.3 2-0.4 1.1-0.2 2.1-0.3 3.2-0.3H211.9c0.1-0.3 0.1-0.5 0.2-0.8 0-1.8 0.1-3.5 0.1-5.3V411.3c0-0.6-0.1-1.2 0.1-1.9 0.3 0 0.5-0.1 0.7-0.1h31.2c0.5 0 1-0.1 1.6 0.1 0 0.2 0.1 0.4 0.1 0.6v162.3c0 2.3-0.2 4.5-0.7 6.8-1.7 6.7-5.9 10.9-12.6 12.5-1.2 0.3-2.5 0.4-3.8 0.6-0.4 0.1-0.7 0.1-1.1 0.2-19.8 0.2-39.5 0.2-59.1 0.2zM303.7 592.6c-0.5-0.1-0.9-0.2-1.4-0.2-1.9-0.2-3.7-0.5-5.5-1.2-5.2-1.9-8.5-5.5-10.1-10.7-0.7-2.3-1-4.6-1-7v-27.1c0-5.9 0-11.7 0.1-17.6 0-0.5-0.1-0.9 0.1-1.4 0.2 0 0.4-0.1 0.6-0.1h32.7c0.1 0.3 0.1 0.5 0.1 0.8V563c0.5 0.3 1 0.2 1.4 0.2h23c0.1-0.3 0.1-0.5 0.2-0.8v-1.2-24.3-2.9c-0.4-0.4-0.9-0.8-1.3-1.3-12.2-11.6-24.4-23.1-36.6-34.7-4.4-4.2-8.8-8.4-13.3-12.6-3.3-3.1-5.6-6.9-6.5-11.4-0.4-1.7-0.6-3.4-0.6-5.1v-40c0-2.3 0.3-4.6 0.9-6.9 1.8-6.3 5.9-10.2 12.2-11.8 2.2-0.5 4.4-0.7 6.6-0.7h52.5c2.5 0 4.9 0.3 7.3 0.9 6.2 1.7 10.1 5.8 11.7 12 0.5 2 0.8 4.1 0.8 6.2V472c-0.3 0-0.6 0.1-0.9 0.1h-32.6c0-0.3-0.1-0.6-0.1-0.8v-1.2-29.5-1.4l-0.2-0.2H320c-0.2 0-0.3 0-0.6 0.1 0 0.3-0.1 0.6-0.1 0.9v25.5c0.4 0.4 0.8 0.7 1.2 1.1 16.5 15.5 32.9 31 49.4 46.5 0.7 0.6 1.4 1.3 2 2 2.8 3 4.5 6.6 5.3 10.7 0.4 1.9 0.5 3.8 0.5 5.8v40.9c0 2.6-0.2 5.2-1 7.8-1.2 4.3-3.6 7.6-7.5 9.8-1.9 1.1-3.9 1.7-6 2.1-0.8 0.1-1.7 0.2-2.6 0.3-0.3 0-0.6 0.1-0.9 0.2-18.6-0.1-37.3-0.1-56-0.1zM20.8 525.9c0.5 0 1-0.1 1.5-0.1h32.2c0.1 0.3 0.1 0.6 0.1 0.8V560.9c0 0.5-0.1 1 0.1 1.5 0.2 0 0.3 0.1 0.4 0.1h21c0.1 0 0.2-0.1 0.4-0.1 0-0.2 0.1-0.5 0.1-0.7v-1.4-148.8-1.8c0.3-0.1 0.6-0.1 0.8-0.2h32.8c0.1 0.3 0.1 0.5 0.1 0.8v162.3c0 2.5-0.3 5-1 7.5-1.7 5.9-5.5 9.7-11.4 11.5-1.5 0.4-3.1 0.7-4.7 0.8-0.4 0-0.7 0.1-1.1 0.2h-53c-0.4-0.1-0.7-0.2-1.1-0.2-1.6-0.1-3.1-0.4-4.7-0.8-5.3-1.6-9-5-10.9-10.2-0.6-1.7-1-3.5-1.1-5.3-0.1-0.7-0.2-1.4-0.5-2v-48.2zM439.2 592.6v-1.3-71.5-77.9c0-0.5 0.1-1.1-0.1-1.7-0.5-0.2-0.9-0.1-1.4-0.1h-27.2l-0.2-0.2v-0.1-0.8-29.1c0-0.1 0-0.2 0.1-0.3 0.2 0 0.5-0.1 0.7-0.1h90.5c0 0.3 0.1 0.6 0.1 0.8V440c-0.3 0.1-0.5 0.1-0.8 0.1h-28c-0.1 0.3-0.1 0.5-0.2 0.8v69.6c0 26.9-0.1 53.8-0.1 80.6 0 0.5-0.1 1-0.1 1.5h-33.3z" p-id="920"></path><path d="M20.8 574c0.3 0.6 0.4 1.3 0.5 2 0.1 1.8 0.5 3.6 1.1 5.3 1.9 5.3 5.5 8.6 10.9 10.2 1.5 0.5 3.1 0.7 4.7 0.8 0.4 0 0.8 0.1 1.1 0.2H20.8V574zM566.7 591.5h-33.4c-0.1-0.2-0.1-0.5-0.2-0.7v-1c0-29.5-0.1-59.1 0-88.6 0.1-15.2 0-30.4 0.1-45.5v-45.5-1.4c0.3-0.1 0.6-0.1 0.8-0.1h71.7c2.5 0 4.9 0.2 7.3 0.9 1.9 0.5 3.7 1.3 5.3 2.5 3.1 2.2 5.1 5.2 6.1 8.8 0.7 2.3 1 4.6 1 7v53c-0.3 9.2-0.1 18.4-0.2 27.6 0 2.4-0.3 4.8-1 7.1-1.9 6.4-6.1 10.3-12.5 11.8-2.4 0.6-4.7 0.7-7.2 0.7h-37.9c0 0.3-0.1 0.6-0.1 0.8v61c0.3 0.4 0.3 1 0.2 1.6z m24.7-93.7c0-0.3 0.1-0.4 0.1-0.6 0-3.2 0.1-6.3 0.1-9.5v-47.6-0.9c0-0.2-0.1-0.5-0.1-0.7-0.2 0-0.4-0.1-0.6-0.1h-23.7-0.1l-0.2 0.2c-0.1 1.9 0 3.8 0 5.8v47.3c0 2-0.3 3.9 0 5.9 0.4 0 0.7 0 1.1 0.1 9.9 0.3 22.3 0.3 23.4 0.1zM801 591.5h-32.6c-0.1-0.3-0.2-0.5-0.2-0.7 0-1.1-0.1-2.2 0-3.3 0.1-1.1 0.3-2.2 0.6-3.3 1.3-6.5 2.5-13 3.8-19.6 1.5-7.7 3-15.5 4.5-23.2 1.3-6.9 2.6-13.7 4-20.6 1.3-6.9 2.7-13.7 4-20.6 1.3-6.9 2.6-13.7 4-20.6 1.3-6.9 2.7-13.7 4-20.6 0.3-1.3 0.5-2.7 0.8-4 1.2-5 2-10 3-15 1.2-6 2.3-11.9 3.5-17.9 0.8-4.4 1.7-8.7 2.6-13.1 0-0.2 0.1-0.4 0.2-0.7 0.4 0 0.8-0.1 1.1-0.1h32.5c0.1 0.3 0.2 0.5 0.3 0.8 0.9 4.9 1.9 9.8 2.8 14.6 1.2 6 2.3 12 3.5 18.1 0.2 1.3 0.5 2.6 0.6 3.9 0.2 1.7 0.6 3.3 0.9 4.9 1.1 5.6 2.2 11.2 3.2 16.8 1.1 5.6 2.1 11.1 3.2 16.7 1.2 6 2.3 12 3.5 18 1.2 6.1 2.3 12.2 3.5 18.3 1.1 6 2.3 12 3.4 17.9 1.2 6 2.3 12 3.5 18.1s2.3 12 3.5 18c1 5.2 2 10.4 3 15.7 0.1 0.5 0.2 0.9 0.1 1.4-1 0.2-31.8 0.2-33.5 0-0.1-0.3-0.2-0.7-0.3-1-1.2-7.5-2.4-15.1-3.6-22.6-0.5-2.9-0.9-5.8-1.4-8.8 0-0.2-0.1-0.5-0.2-0.8-0.4 0-0.7-0.1-1.1-0.1-10-0.1-24.2-0.1-25.4 0.1-0.5 2.7-0.9 5.4-1.3 8.2-0.5 2.8-0.9 5.6-1.3 8.4-0.4 2.8-0.9 5.5-1.3 8.3-0.5 2.8-0.9 5.5-1.4 8.4z m26.8-63.4c0-0.1 0.1-0.2 0.1-0.3-2.7-16.7-5.4-33.5-8.1-50.2-0.1-0.4-0.2-0.7-0.3-1.3-0.1 0.5-0.2 0.7-0.2 1-2.7 16.8-5.5 33.6-8.2 50.5v0.4c0.1 0 0.3 0.1 0.4 0.1h15.9c0.2-0.1 0.3-0.1 0.4-0.2zM898.2 408.6c0.3 0 0.5-0.1 0.8-0.1 4.4-0.1 31-0.1 32.2 0.1 0.1 0.3 0.3 0.7 0.4 1 1.7 6 3.4 12 4.9 18.1 1.2 5.1 2.7 10.1 4.1 15.1 1.3 5 2.7 10 4.1 15 1.4 5 2.8 10.1 4.2 15.1 0.1 0.4 0.2 0.7 0.4 1.1 0.4-0.4 0.4-0.8 0.5-1.2 3.2-11.5 6.3-23.1 9.5-34.6 1.2-4.3 2.3-8.7 3.6-13 1.6-5.3 3-10.6 4.5-16 0.1-0.2 0.2-0.5 0.2-0.7 0.4-0.3 0.9-0.2 1.3-0.2h30.5c0.5 0 1-0.1 1.6 0.1 0 0.3 0.1 0.6 0.1 0.9v3.6c0 0.3 0 0.7-0.1 1-0.4 1.3-0.7 2.6-1.3 3.9-0.2 0.3-0.3 0.7-0.4 1.1-7.2 22.6-14.3 45.2-21.5 67.8-0.8 2.4-1.7 4.7-2.5 7-2.8 8.3-5.3 16.6-7.8 25-0.3 1.2-0.7 2.4-1 3.6-0.3 0.9-0.4 1.8-0.4 2.8v64.4c0 0.6 0.1 1.1-0.1 1.7-0.4 0.3-0.9 0.2-1.4 0.2H933.8c-0.5 0-0.9 0.1-1.5-0.1 0-0.2-0.1-0.5-0.1-0.7v-1.3-63.9c0-1.3-0.1-2.6-0.4-3.8-1.5-6.4-3.4-12.6-5.6-18.8-1.6-4.5-3.2-8.9-4.7-13.5-1.7-5.1-3.3-10.3-4.9-15.4-4-12.7-8-25.3-12-38-1.8-7-4.2-13.8-6.4-20.6-0.5-1.5-0.6-2.9-0.3-4.4 0.1-0.8 0-1.6 0.3-2.3zM739.6 560.7c0.1 0.2 0.1 0.4 0.1 0.6v29.8c0 0.1-0.1 0.2-0.2 0.4h-76.1c0-0.3-0.1-0.5-0.1-0.7v-1.2c0-37-0.1-74.1 0-111.1 0.1-22.8 0-45.6 0.1-68.4 0-0.5-0.1-0.9 0.2-1.4 0.2 0 0.3-0.1 0.5-0.1h32.4c0.2 0 0.3 0.1 0.5 0.1 0 0.2 0.1 0.3 0.1 0.4v60.6c-0.4 7.5-0.1 14.9-0.2 22.4v68.7c0.3 0 0.6 0.1 0.8 0.1H738c0.6-0.2 1.1-0.2 1.6-0.2z" p-id="921"></path><path d="M20.8 525.9h33.3c0.1 0 0.2 0.1 0.3 0.1 0 0.2 0.1 0.4 0.1 0.7V560.8c0 0.5-0.1 1.1 0.2 1.6 1 0.2 20.3 0.2 21.8 0 0-0.2 0.1-0.5 0.2-0.7v-1.5-148.7-1.8c0.3-0.1 0.5-0.2 0.8-0.2H108.6c0.5 0 1-0.1 1.5 0.2 0 0.2 0.1 0.3 0.1 0.5v161.9c0 1.2-0.1 2.4-0.2 3.6 0 0.2-0.1 0.4-0.1 0.6-0.9 0.4-1.9 0.5-2.9 0.6-8.3 1.5-16.6 2.9-24.8 4.4-7.6 1.3-15.2 2.6-22.8 4-8.6 1.5-17.1 3-25.7 4.5-0.8 0.1-1.7 0.3-2.5 0.4-0.6 0.1-1.2 0-1.7-0.3-3.1-1.8-5.3-4.3-6.6-7.6-0.9-2.1-1.4-4.3-1.6-6.6-0.1-0.9-0.2-1.8-0.5-2.6v-47.2zM377.7 471.7c-0.4 0.3-0.9 0.2-1.3 0.2H346c-0.5 0-1.1 0.1-1.6-0.1-0.3-0.4-0.2-0.9-0.2-1.4v-16.9-13.1-1.5c-0.4 0-0.8-0.1-1.2-0.1h-23.4c-0.3 0.5-0.2 1-0.2 1.4v24.5c0 0.3 0.1 0.6 0.3 0.8l1.1 1.1c16.5 15.5 33 31.1 49.5 46.6 0.6 0.5 1.1 1.1 1.7 1.6 2.9 3.1 4.7 6.8 5.4 11 0.2 1.1 0.4 2.1 0.3 3.3-0.3 0.1-0.5 0.2-0.8 0.3-3.3 0.6-6.7 1.2-10 1.8l-15.3 2.7c-2.1 0.4-4.1 0.7-6.2 1.1h-0.8c-0.1-0.1-0.1-0.1-0.1-0.2 0.1-1-0.5-1.6-1.2-2.3-16.7-15.7-33.3-31.5-49.9-47.2-2.9-2.8-5.1-6-6.3-9.8-0.7-2.4-1-4.9-1-7.4v-13.6-25.2c0-2.5 0.2-5 0.9-7.4 0.2-0.6 0.3-1.2 0.5-1.7 1.9-5.1 5.5-8.3 10.7-9.9 2.6-0.8 5.2-1 7.9-1H357.8c1.8 0 3.7 0.1 5.5 0.4 1.6 0.3 3.2 0.7 4.7 1.4 4.1 1.8 6.9 4.8 8.5 8.9 1 2.6 1.3 5.2 1.5 7.9V470.1c-0.2 0.6-0.1 1.1-0.3 1.6zM533.4 408.5c0.6 0 1-0.1 1.4-0.1h71c2.3 0 4.5 0.2 6.8 0.8 6.5 1.7 10.5 5.9 12.1 12.4 0.6 2.2 0.8 4.5 0.8 6.8v54.5c-0.3 0.4-0.7 0.4-1 0.5-3.4 0.6-6.8 1.2-10.1 1.8-4.7 0.8-9.4 1.6-14.1 2.5-2.5 0.4-5.1 0.9-7.6 1.3h-0.8c-0.1-0.3-0.1-0.5-0.1-0.8v-1.3-47c0-0.5 0.1-1.1-0.1-1.6-0.2-0.1-0.3-0.1-0.4-0.1h-23.7c-0.2 0-0.3 0.1-0.5 0.1 0 0.3-0.1 0.5-0.1 0.7v54.2c-0.3 0.1-0.6 0.3-0.8 0.3-4 0.7-7.9 1.4-11.9 2.1l-15.6 2.7c-1.5 0.3-3 0.5-4.4 0.8h-0.6c-0.1-0.2-0.1-0.5-0.1-0.7v-1.2-87c-0.2-0.3-0.2-0.9-0.2-1.7zM410.5 439.9c-0.1-1.2-0.2-29 0-30.3 0.3 0 0.5-0.1 0.8-0.1h88.5c0.6 0 1.2-0.1 1.8 0.2 0 0.1 0.1 0.3 0.1 0.4v29.5c0 0.1-0.1 0.2-0.1 0.4-0.5 0.1-1 0.1-1.5 0.1h-25.6c-0.5 0-1-0.1-1.6 0.1 0 0.2-0.1 0.4-0.1 0.6v71.8c-0.5 0.4-0.9 0.4-1.4 0.5-9 1.6-18.1 3.2-27.1 4.7-1.1 0.2-2.3 0.4-3.4 0.6-0.4 0.1-0.8 0.2-1.3 0-0.1-0.2-0.1-0.5-0.1-0.7v-1.4-74.2c0-0.6 0-1.3-0.1-1.9-0.5-0.3-1-0.2-1.4-0.2H412.2c-0.7-0.1-1.2-0.1-1.7-0.1zM184 563.3c-11 1.9-21.8 3.8-32.7 5.7h-0.5c0-0.2-0.1-0.3-0.1-0.5V409.6c0.3-0.1 0.5-0.2 0.8-0.2h32.6c0.1 0.3 0.2 0.6 0.2 0.8v151c-0.1 0.7-0.1 1.3-0.3 2.1zM212.3 409.6c0.5-0.3 0.9-0.2 1.3-0.2h30.5c0.5 0 1-0.1 1.5 0.2 0.1 1 0.2 140.9 0 142.8-0.2 0.1-0.5 0.2-0.8 0.3-3.9 0.7-7.9 1.4-11.8 2.1-5.2 0.9-10.3 1.8-15.5 2.7-1.5 0.3-3 0.5-4.6 0.8h-0.7c-0.1-0.3-0.2-0.5-0.2-0.7v-1.2-145c0.3-0.6 0.2-1.2 0.3-1.8zM697.1 470.7c-0.7 0.1-1.2 0.3-1.8 0.4-10.5 1.8-20.9 3.6-31.4 5.4-0.1 0-0.1-0.1-0.3-0.1 0-0.2-0.1-0.4-0.1-0.6V409c0-0.1 0.1-0.2 0.2-0.4 0.3 0 0.7-0.1 1-0.1 9.2-0.2 30.9-0.1 32.2 0.1 0 0.2 0.1 0.5 0.1 0.7v59.6c0.1 0.5 0.1 1.1 0.1 1.8zM843.8 445c-16.3 2.9-32.5 5.7-48.6 8.5h-0.5c-0.2-0.4-0.1-0.7 0-1 1-5.4 2.1-10.9 3.2-16.3 1.2-6 2.3-11.9 3.5-17.9 0.6-3.1 1.2-6.1 1.8-9.2 0-0.2 0.1-0.5 0.2-0.7 1-0.1 32-0.2 33.5 0 0.1 0.2 0.2 0.5 0.3 0.8 0.9 4.9 1.9 9.8 2.8 14.6 1.2 6 2.3 12 3.5 18.1 0 0.9 0.3 1.9 0.3 3.1zM931.3 408.5c1.9 6.7 3.7 13.3 5.5 19.9-0.2 0.4-0.5 0.4-0.8 0.5-3 0.5-5.9 1-8.9 1.6-4.7 0.8-9.4 1.6-14.1 2.5-2.5 0.4-5.1 0.9-7.6 1.3-0.3 0.1-0.7 0-1.1 0.1-0.1-0.4-0.3-0.7-0.4-1.1-2-6.3-3.9-12.5-5.9-18.8-0.1-0.4-0.3-0.9-0.3-1.4-0.1-1.5 0.3-3 0.5-4.5 0.3 0 0.5-0.1 0.7-0.1h32.4zM286.1 545.4c-0.1-0.3-0.2-0.5-0.2-0.6v-17c0-0.2 0.1-0.3 0.1-0.5 0.3 0 0.5-0.1 0.8-0.1 5.4-0.2 31.2-0.1 32.5 0.1 0 0.2 0.1 0.4 0.1 0.6V539c0 0.2 0 0.3-0.1 0.5-0.2 0.1-0.3 0.2-0.5 0.2-10.8 1.9-21.7 3.8-32.7 5.7zM1001 408.7v4.8c0 0.3-0.1 0.6-0.2 0.9-0.2 0.8-0.5 1.5-0.7 2.3-0.2 0.8-0.6 1.1-1.4 1.2-1.3 0.2-2.5 0.4-3.8 0.7-6.8 1.2-13.5 2.4-20.3 3.6-3.4 0.6-6.8 1.2-10.1 1.8h-0.9c0.1-1 3.6-13.8 4.1-15.3 0.5-0.2 1-0.1 1.5-0.1H999.5c0.4-0.1 0.9-0.2 1.5 0.1z" p-id="922"></path></svg>