<?xml version="1.0" encoding="utf-8"?>
<!-- Generator: Adobe Illustrator 23.1.1, SVG Export Plug-In . SVG Version: 6.00 Build 0)  -->
<svg version="1.1" id="圖層_1" xmlns="http://www.w3.org/2000/svg" xmlns:xlink="http://www.w3.org/1999/xlink" x="0px" y="0px"
	 viewBox="0 0 1024 1024" style="enable-background:new 0 0 1024 1024;" xml:space="preserve">
<path d="M280.7,552.3c-4.7-8.7-10-16.8-13.5-25.6c-4.2-10.5-7.5-21.4-9.9-32.4c-2.7-12.4-3.9-25-5.8-37.6c-0.7-4.9-5.9-9.7-11-10.4
	c-4.1-0.5-9.8,2.7-11.9,7.1c-3.7,7.7-7,15.6-10.7,23.4c-5.7,12.1-11,24.3-17.3,36.2c-6.7,12.7-13.7,25.3-21.6,37.3
	c-5.3,8.1-12,15.3-18.5,22.5c-2.8,3.2-5.3,2.5-7.3-1.2c-4.5-8.3-6.9-17-8.5-26.4c-5.5-32-5.6-64.2-4.5-96.4
	c0.5-14.4,2.1-28.9,3.6-43.3c0.9-8.8-1.3-14.9-7.5-17.8c-6.5-3-13.3,0.2-17.2,7.4C107.6,416.9,96.6,439,83.8,460
	c-17.1,28.1-35.6,55.3-53.5,82.9c-0.7,1.1-1.6,2-3.2,4.2c-1.4-4.2-2.8-7.5-3.5-10.9c-4.8-22.1-5.2-44.4,0-66.5
	c5.7-24,16.6-45.4,32.9-63.9c15.9-18.2,35-31.8,57.6-40.6c16.5-6.4,33.4-10.2,51.4-10.2c15.9,0.1,31.7,0.9,46.9,5.8
	c28,9,51.9,24.4,71,47c12.7,15.2,22.3,32.1,28.1,50.9c7.1,23.1,8.9,46.6,4.4,70.5c-7.3,39-26.7,70.5-58.6,93.9
	c-34.2,25-72.7,33.9-114.6,26.3c-38.9-7.1-69.9-27-93.6-58.4c-6.3-8.4-6-5.4-0.7-14.1c18.4-30.7,36.8-61.5,55.1-92.3
	c3.2-5.4,5.9-11.1,9-16.7c0.4-0.8,1.2-1.3,2.9-3.1c0.4,3.1,0.8,5,0.8,6.9c0.2,14.8-0.2,29.7,0.7,44.5c1,17,2.9,34.1,8.1,50.5
	c3.1,10,7.5,19.6,16.4,26c10.4,7.5,26.1,6.8,36.4-3.4c9.2-9.1,17.7-19.3,24.4-30.3c10.9-17.7,20.1-36.4,29.9-54.7
	c1.7-3.2,3-6.7,4.4-10.1c0.5-0.1,1-0.2,1.5-0.3c2.4,5,4.7,10,7.1,14.9c7.5,15.5,16.1,30.2,28.8,42.1
	C277.1,554.1,277.1,554.1,280.7,552.3z"/>
<path d="M373,514.8c5-15.8,10-31.5,15.1-47.3c1.4-4.5,2.7-9.1,4.6-13.4c0.6-1.4,2.5-2.9,4-3.1c4-0.4,8.2-0.4,12.2,0
	c1.2,0.1,3.2,2.2,3.2,3.4c0.2,25.9,0.2,51.9,0.1,77.8c0,5.1-4.2,3.3-7,3.7c-3.1,0.4-4.4-0.8-4.4-4.1c0.3-22.8,0.4-45.7,0.6-68.5
	c0-0.9-0.2-1.8-1.4-3c-0.5,1.2-1,2.3-1.4,3.5c-7.2,22.8-14.4,45.6-21.8,68.3c-0.5,1.6-3,3.7-4.5,3.7c-1.7-0.1-4.1-2.1-4.6-3.8
	c-7.4-22.8-14.5-45.6-21.7-68.4c-0.3-1-1.1-1.8-2.2-3.7c-0.3,1.7-0.6,2.4-0.5,3.1c0.1,22.8,0.1,45.7,0.4,68.5c0,3.5-1.2,4.7-4.6,4.6
	c-3.3-0.2-6.9,0.5-6.9-4.5c0-25.3,0-50.6,0-75.9c0-3.5,1.6-5.1,5.2-4.8c1,0.1,2,0.1,2.9,0.1c14.6-0.1,10.3-1.1,14.8,11.5
	c5.1,14.5,9.5,29.4,14.2,44.1c0.9,2.9,1.7,5.8,2.6,8.6C372.2,515,372.6,514.9,373,514.8z"/>
<path d="M763.6,475.8c8.8-6.1,17.6-7.9,26.9-5.9c2.9,0.6,5.9,2,8.2,3.9c2.2,1.8,3.5,1.9,5.8,0.4c8.3-5.4,17.4-6.1,26.8-4.1
	c6.4,1.3,11.7,6.9,12,13.8c0.6,16.1,0.9,32.3,0.8,48.4c0,5.4-5,3.1-8,3.6c-3.2,0.5-3.7-1.6-3.7-4.3c0.1-13.1,0.1-26.1,0-39.2
	c0-5.6-0.1-11.4-6.5-14c-7.8-3.2-14.7-0.6-21.3,3.5c-0.8,0.5-0.9,2.6-0.9,4c0.2,15.5,0.6,31,0.8,46.5c0.1,4.5-3.4,3.3-6,3.6
	c-3,0.3-4.6-0.7-4.5-4c0.1-11.6,0.1-23.2,0.1-34.8c0-2.4-0.1-4.9-0.2-7.3c-0.7-12-8.3-13.6-18.2-12.2c-1.3,0.2-2.5,0.9-3.7,1.2
	c-4.9,1.5-7.3,3.9-7,9.8c0.6,14.2,0.1,28.4,0.3,42.6c0.1,3.9-1.5,4.9-5,4.6c-3.4-0.2-7.2,0.9-7.2-4.7c0.1-18.9-0.1-37.9,0.1-56.8
	c0-1.5,1.8-4,3.1-4.2C759.7,469.7,763.7,469.3,763.6,475.8z"/>
<path d="M662.7,475.1c2.2-2,3.6-4.4,5.4-4.8c5.3-1.3,6.6,0.1,6.6,5.6c0,16.5,0.1,33-0.1,49.4c-0.1,6-0.7,12-1.6,18
	c-1.2,8.5-7.4,14.6-16.1,15.1c-8.3,0.5-16.6-0.1-24.9-0.1c-2.6,0-4-1.1-3.8-3.8c0.3-2.7,1.1-4.6,4.5-4.5c6.7,0.1,13.4,0.5,20-0.2
	c6.5-0.6,8.6-3.3,9.4-9.8c0.3-2.7,0.6-5.4,1-9.2c-3.4,1.3-6,2.2-8.6,3.3c-7,2.8-14.3,2.4-21.2,0.7c-8.2-2-12.6-8.4-13.1-16.5
	c-0.6-10.2-0.6-20.6,0-30.8c0.6-10.3,7.3-16.4,17.5-17.8C647.1,468.3,655.5,470.2,662.7,475.1z M663,502.9
	C662.9,502.9,662.9,502.9,663,502.9c-0.1-4.1-0.1-8.1-0.1-12.2c0-9-0.2-9.2-9.1-12.1c-1.1-0.4-2.2-0.8-3.3-1
	c-9.4-2.2-17.3,2-18.5,11.3c-1.2,9.1-1.1,18.6-0.1,27.7c1,8.9,7.2,12.6,16.7,11.3c4.1-0.6,8.2-2.2,12-4c1.3-0.6,2.2-3.1,2.3-4.8
	C663.1,513.6,663,508.2,663,502.9z"/>
<path d="M991.4,476c0.3-7.9,5-5.8,9.3-5.7c0.1,1.6,0.3,3,0.3,4.4c0,20.7,0,41.4,0,62.1c-0.1,13.7-6.3,20.8-20.2,21.9
	c-7.3,0.5-14.7-0.2-22-0.4c-2.5-0.1-4.1-1.1-3.5-4c0.5-2.5,1.1-4.6,4.7-4.4c6.3,0.3,12.7,0.6,19,0c6.9-0.6,8.6-2.6,10-9.3
	c0.7-3.1,0.9-6.2,1.5-10.3c-3.9,1.6-6.6,3-9.5,3.8c-8.4,2.6-16.8,2.6-24.8-1.2c-6.2-3-8.9-9-9.1-15.3c-0.3-11.5,0-23.1,1.2-34.5
	c0.9-7.8,7.3-12.2,15.3-13.5C973.4,468.1,982.3,470.2,991.4,476z M990.1,503C990.1,503,990.1,503,990.1,503
	c-0.1-4.2-0.1-8.5-0.1-12.7c0-8.2-0.5-8.8-8.2-11.4c-1.2-0.4-2.5-0.8-3.7-1.2c-10.2-2.9-18.5,2-19.3,12.4
	c-0.7,9.2-0.2,18.5,0.3,27.8c0.2,4.8,3.3,7.8,8.1,9.2c7.5,2.2,14.2-0.2,20.7-3.5c1.2-0.6,2-2.9,2.1-4.4
	C990.3,513.8,990.1,508.4,990.1,503z"/>
<path d="M729.1,474.5c2.8-1.9,4.5-3.7,6.6-4.2c4-1,5.8,0.8,5.8,5.3c-0.2,18.1-0.1,36.2-0.1,54.3c0,2.4,1.2,5.7-2.8,6.1
	c-3.6,0.4-7.6,0.9-7.4-5.1c-4.2,1.8-8,3.5-11.8,5c-7.4,2.8-14.9,1.9-21.9-1.1c-6-2.5-9.7-7.7-10-14c-0.5-11.7-0.6-23.4,0-35.1
	c0.4-8.5,7.5-14.5,16.1-15.9C713.1,468.2,722.1,470.1,729.1,474.5z M729.6,503.6C729.5,503.6,729.5,503.6,729.6,503.6
	c0-3.6,0-7.2,0-10.8c0-11.9-0.7-12.8-12.4-15.3c-10.8-2.4-18.4,3-18.9,13.9c-0.4,8.3-0.3,16.6,0.1,24.9c0.4,7.8,4.7,11.7,12.4,12.5
	c6,0.7,11.4-0.9,16.3-4c1.3-0.8,2.4-3,2.5-4.6C729.7,514.7,729.6,509.1,729.6,503.6z"/>
<path d="M610.5,505.1c-0.4,3.9-0.4,9.8-1.6,15.5c-2.3,10-9.8,14.6-19.4,16c-8.3,1.3-16.5,0.9-24.4-2.7c-5.9-2.6-9.2-7.2-10.7-13.1
	c-2.7-11.2-2.5-22.6-0.4-33.9c1.7-8.7,7.1-14.4,15.5-16.3c8.5-1.9,17.1-2.1,25.6,0.5c9.3,2.9,13.4,9.8,14.5,18.8
	C610.3,494.3,610.2,498.7,610.5,505.1z M599.3,503.2c-0.2,0-0.5,0-0.7-0.1c0-3.6,0.2-7.2,0-10.8c-0.8-10.7-5.6-15.3-16.3-15.2
	c-3,0-6.1,0.7-9.1,1.4c-4.3,1-7.1,4.2-7.2,8.3c-0.4,10.8-0.6,21.7,0,32.6c0.3,5.7,5,9,11.9,9.3c7.1,0.3,14.7,1.3,18.9-6.8
	c0.3-0.6,0.4-1.2,0.5-1.9C598,514.4,598.6,508.8,599.3,503.2z"/>
<path d="M891.2,474.5c5.6-1.8,10.4-4,15.4-4.7c5.1-0.7,10.4-0.4,15.6,0.3c7.7,1.1,13.3,7.5,13.6,16.3c0.5,15.3,0.4,30.7,0.4,46
	c0,5-4.4,3.1-7.1,3.5c-2.9,0.5-4.6-0.5-4.6-3.9c0.1-12.6,0-25.1-0.1-37.7c0-0.7,0-1.3,0-2c-0.6-11.7-4.9-16-16.6-15.1
	c-4.6,0.4-9.1,2.4-13.4,4.3c-1.2,0.5-2,3.2-2,4.9c-0.1,14.8-0.2,29.7,0,44.5c0.1,3.9-1.2,5.3-5.1,5c-3.4-0.3-6.8,0.7-6.8-5
	c0.3-18.1,0-36.2,0.2-54.3c0-2.2,1-5.9,2.4-6.3C886.5,469.4,890.6,469.2,891.2,474.5z"/>
<path d="M459.5,503.2c0.7,5.9,1.1,12,2.4,17.8c0.5,2.3,2.9,5,5.1,6c6.3,2.9,13,2.8,19.4,0c3.9-1.6,5.2-5.2,5.3-9.2
	c0.2-6.7,5.3-3.7,8.4-4c3.5-0.4,3,2.6,2.7,4.9c-1,10.6-7.8,17.2-20.1,18.1c-6.5,0.5-13.4-0.2-19.8-1.8c-7.9-2.1-12.9-8.2-13.5-16.3
	c-0.8-9.9-0.8-19.8-0.2-29.7c0.6-9.7,6.5-16.5,16.1-18.5c8.8-1.8,17.8-2.1,26.5,1.3c6.6,2.6,11.8,10.4,11,17.4
	c-0.1,1.2-2.3,3.2-3.6,3.2c-2.7,0-6.5,1.8-7.5-3c-2.1-10-6.2-12.9-17.3-12.1c-9.3,0.7-13.6,5.1-14.1,14.8c-0.2,3.7,0,7.5,0,11.2
	C460,503.2,459.8,503.2,459.5,503.2z"/>
<path d="M523.1,474.9c8-2,14.9-4,21.9-5.4c2.1-0.4,5.4-0.7,5.3,3.2c-0.1,3.3-0.9,6-5.5,5.5c-6.4-0.7-12.3,1.7-17.4,5.3
	c-1.3,0.9-2.3,3.1-2.4,4.8c-0.2,14.2-0.2,28.4,0.1,42.6c0.1,4.9-2.2,5.3-6,5.2c-3.6-0.1-6.3-0.2-6.3-5.1c0.2-18.3,0.1-36.5,0.1-54.8
	c0-2.7-0.8-5.9,3.6-6c3.6-0.1,7.2-0.3,6.8,5C523.4,475.3,523.8,475.6,523.1,474.9z"/>
<path d="M426.1,503c0-9.5,0.1-18.9-0.1-28.4c-0.1-3.8,1.4-4.9,5-4.6c3.2,0.3,7.1-1.3,7,4.6c-0.2,18.9-0.2,37.9,0,56.8
	c0,5-3.2,4.4-6.3,4.5c-3.1,0.1-5.8,0-5.7-4.5C426.3,522,426.1,512.5,426.1,503z"/>
<path d="M868.6,503.1c0,9.3-0.3,18.6,0.1,27.8c0.2,5.1-2.8,4.9-6.2,5.1c-3.9,0.2-5.7-0.9-5.7-5.1c0.1-18.7,0.2-37.5,0-56.2
	c-0.1-5.3,3.2-4.4,6.5-4.6c3.5-0.2,5.5,0.4,5.4,4.7C868.4,484.2,868.6,493.6,868.6,503.1z"/>
<path d="M431.9,462.8c-4.5,1.1-6.5-0.7-5.8-5.4c0.4-2.9-1.6-6.9,4.2-6.7c7.6,0.3,7.5,0.2,7.9,6.9
	C438.5,462.7,436.1,463.5,431.9,462.8z"/>
<path d="M868.8,457.7c0.7,3.7-0.7,5.5-5.3,5.3c-4.1-0.2-7.5,0.2-6.9-5.7c0.4-3.6-0.1-6.8,5.3-6.5
	C868.8,451.1,868.8,450.9,868.8,457.7z"/>
</svg>
