<?xml version="1.0" standalone="no"?><!DOCTYPE svg PUBLIC "-//W3C//DTD SVG 1.1//EN" "http://www.w3.org/Graphics/SVG/1.1/DTD/svg11.dtd"><svg t="1575019917546" class="icon" viewBox="0 0 1024 1024" version="1.1" xmlns="http://www.w3.org/2000/svg" p-id="14215" xmlns:xlink="http://www.w3.org/1999/xlink" width="200" height="200"><defs><style type="text/css"></style></defs><path d="M678.1 393.4H714.5c1.4 0 2.2 0.3 3 1.6 21.9 34.6 43.8 69.2 65.6 103.8 5.3 8.4 10.4 16.8 16 25.2V393.5H842v214.4c-0.6 0-1.2 0.1-1.7 0.1H805c-1.2 0-1.9-0.4-2.6-1.4-22.2-35.3-44.4-70.5-66.6-105.7-5-7.9-9.9-15.9-15.1-24.4v131.4H678c0.1-71.4 0.1-142.8 0.1-214.5zM62.8 477.1v130.8H20.3V393.5c0.6 0 1.2-0.1 1.9-0.1h34.7c1.3 0 2 0.4 2.7 1.5C84.8 435 110.1 475 135.3 515c1.9 3 3.8 6.1 6 9V393.5h42.8V608H147.3c-1.3 0-2-0.4-2.7-1.5-17.6-27.9-35.4-55.7-52.9-83.6-9.1-14.5-18-29.1-27-43.7-0.5-0.7-0.9-1.5-1.4-2.2-0.2 0.1-0.4 0.1-0.5 0.1zM347.1 567.2v40.7H206.6V393.5H347v40.9h-97.5v45.1h83.3v41.1h-83.3v46.6h97.6zM545.3 607.9V682h-7.8V317.2h7.8v76.2h111.5v41.1h-97.6v45h83.5v41h-83.6v44.7c0 1.8 0.6 2.1 2.2 2h95.6v40.7H545.3zM1001 393.5v41.3h-48.7v173.1h-42.9v-173h-49.1v-41.4H1001zM458.8 607.9h-43V434.8h-49.1v-41.3h140.8v41.2h-48.7v173.2z" p-id="14216"></path></svg>