<?xml version="1.0" standalone="no"?><!DOCTYPE svg PUBLIC "-//W3C//DTD SVG 1.1//EN" "http://www.w3.org/Graphics/SVG/1.1/DTD/svg11.dtd"><svg t="1575519422619" class="icon" viewBox="0 0 1024 1024" version="1.1" xmlns="http://www.w3.org/2000/svg" p-id="7087" xmlns:xlink="http://www.w3.org/1999/xlink" width="200" height="200"><defs><style type="text/css"></style></defs><path d="M1000.2 537.1c0.9 88.2-75.8 161.8-163.4 157.9-81.6-3.7-153.6-73.6-150.4-165.3 3.1-85.1 73.4-151.5 154.4-151.9 93.5-0.6 161 74.9 159.4 159.3zM843.9 397.3c-75.8-2.3-138.5 64-138.9 137.2-0.4 77.6 62.4 140 137.3 140.6 77.9 0.6 138.6-64.7 139.2-137.8 0.6-77.3-64-141.4-137.6-140zM701.5 314.4c11.9-6.6 17.8-3.9 59 27-3.4-33.4-11.3-65.1-6.7-100.4 23.5 26.3 36.5 56.1 51.2 85.5 3.3-22.9 12.5-41.7 30.1-55.7 0.9 0.3 1.9 0.6 2.8 1-1.9 7.2-3.7 14.4-5.7 21.5-5.5 19.6-5.6 39.2-0.2 58.8 2.9 10.4 1.5 11.9-9.1 12.7-20.5 1.6-39.6 8.4-57.6 18-6.2 3.3-9.6 3.4-12.4-3.6-10.3-26.6-26.4-48.6-51.4-64.8zM373.4 563.8c5.5-13.2 10.3-24.7 15.1-36.4 2.6-6.4 5.2-12.9 7.8-19.3 3.3-8 9.5-11 17.7-7.8 1.8 0.7 3.6 3.9 3.7 6 0.3 24.2 0.1 48.4 0.3 72.6 0 5.7-2.8 7.2-7.9 7.1-5.4-0.1-8.7-1.4-8.6-7.7 0.2-11.2 0.1-22.4 0.1-33.6 0-3.2-0.3-6.4-2.2-10-3.6 9.2-7.3 18.4-10.8 27.6-2.2 5.6-3.6 11.7-6.5 16.8-1.7 3-6 6.2-9 6.2-3-0.1-7.4-3.5-8.7-6.5-6.5-15-12.1-30.4-19.6-45.4 0 14.4-0.4 28.7 0.1 43.1 0.3 8.1-3.5 10.6-10.4 9.1-2.3-0.5-5.6-3.8-5.6-5.8-0.4-24.8-0.5-49.6-0.2-74.4 0-1.9 3.4-5.2 5.3-5.3 5.3-0.3 11.8-2.7 14.8 4.8 4.6 11.4 9.5 22.7 14.3 34.1 3.2 7.7 6.4 15.4 10.3 24.8zM308.9 549.8c-10 0-17.3 0.5-24.5-0.3-2.5-0.3-4.5-3.9-6.8-5.9 2.2-2.1 4.2-6 6.5-6.1 12-0.6 24-0.3 35.8-0.3 7 29.9-14.7 46.6-32.7 48.8-27 3.3-47-13.9-48.6-41.3-1.6-26.9 16.3-46.9 42.2-47.3 16.8-0.3 38.4 11.3 37.8 29.8-7.3 1.6-13.3 1.9-18.7-5.8-6.1-8.7-16.2-10.4-26.2-7.5-11.7 3.4-17.3 12.4-19 24.1-1.8 12.4 4.6 26.1 14.4 30.9 11.2 5.5 24.1 3.4 32.3-5.8 3-3.2 4.4-7.5 7.5-13.3zM135.4 551.1c6.4 10.8 12.5 21.1 18.5 31.4 0.3 0.6-0.3 1.7-0.5 2.6-9 2.5-15.8 0.6-20.3-8.4-3.5-7-7.6-13.7-12.2-20-2-2.8-5.8-4.2-10.7-7.6 0 11.9-0.2 20.7 0.1 29.4 0.2 5.4-1.8 7.7-7.4 7.5-5.1-0.1-8.9-0.6-8.9-7.2 0.1-24.5 0.1-49 0-73.4 0-5.5 2.3-7.6 7.6-7.4 8.8 0.3 17.6-0.1 26.3 0.5 15.7 1.2 24.3 8.4 26.3 21.2 2.6 16.2-2.1 24.3-18.8 31.4z m-24.7-11.6c9.8-1.5 20.7 3.6 26.4-6.6 2.2-3.9 0.8-11.3-1.5-15.8-3.2-6-15.4-6.7-24.9-3.1v25.5zM674.1 528.3c-8.6 2.3-14.2 1.3-19.7-5.8-12-15.8-34.7-12.5-42.7 5.6-5.3 12-4 23.7 4 34.2 6.7 8.9 16.3 10.5 26.1 7.3 5.1-1.7 10.6-5.3 13.5-9.6 3.6-5.3 7.6-5.9 12.9-5.7 5.6 0.2 7.1 2.6 4.8 7.5-6.9 14.5-18.2 23-34.4 24.3-17.2 1.4-31.2-4.8-39.9-19.7-11.3-19.5-7.4-44.2 8.3-59.2 19.8-18.8 57.5-9.7 66.5 16.1 0.5 1.3 0.3 2.9 0.6 5zM468.1 498c2.9 3 7 5.6 8.4 9.2 9.3 23.7 18.1 47.7 26.8 71.7 0.7 1.9-0.9 6.5-1.2 6.5-4.5-0.2-9.1-1-13.5-1.9-0.7-0.2-1.3-2-1.5-3.2-2.1-12.2-10.3-14.5-21-12.9-2.7 0.4-5.5 0.4-8.1 0-7.1-1-11.5 1.3-12.7 8.9-1.2 7.4-5.6 10.7-13.4 9.9-5.2-0.5-6.4-2.8-4.8-7.1 9-23.9 18.2-47.7 27-71.7 2.3-6.2 5.9-8.6 14-9.4z m-1.6 24.2c-0.7 0-1.3-0.1-2-0.1-3.6 10.2-7.3 20.3-11.1 31.1H477c-3.7-10.9-7.1-21-10.5-31zM237.1 584.8c-14.6 1.7-14.7 3-18.1-9.2-1.9-6.8-5.8-9.2-12.6-8.3-3.3 0.5-6.7 0.5-10 0-10.2-1.3-17.5 0.7-19.2 12.8-0.7 5.1-10.3 8.3-14.8 5.3-1.3-0.8-2-4.3-1.4-5.9 9.1-25.2 18.2-50.3 27.9-75.2 0.9-2.4 6.3-4.3 9.6-4.2 3.7 0.1 9.5 1.8 10.6 4.4 9.9 25.2 19.1 50.6 28.4 76 0.4 1.3-0.3 2.9-0.4 4.3z m-50.1-32h23.7c-3.9-10.8-7.5-20.5-11-30.2-0.7 0.1-1.4 0.2-2.1 0.2-3.6 10-7.1 20-10.6 30zM40.6 553.4c0 9.1-0.1 17.2 0 25.3 0.1 6.3-3.4 7.4-8.7 7.3-5.5 0-7.5-2.4-7.5-7.7 0.1-24.1-0.1-48.3 0.2-72.4 0-2.6 2.8-7.5 4.2-7.4 13.7 0.6 27.9 0.3 41.1 3.5 11.5 2.8 16.7 16 14.5 28.8-1.9 11.1-10.6 19.5-22 20.8-6.8 0.8-13.7 1.2-21.8 1.8z m0.1-41.9v14c0 14.5 1.6 15.7 16 13.2 0.3-0.1 0.6-0.1 0.9-0.2 7.2-1.5 10.9-5.9 11-13.2 0-7-3.6-11.5-10.4-12.7-5.3-0.9-10.7-0.7-17.5-1.1zM523.2 511.7c-6 0-11.3 0.7-16.2-0.3-2.6-0.5-6.7-4.5-6.4-5.9 0.7-2.9 4-7.1 6.4-7.2 16.6-0.7 33.3-0.3 49.9-0.5 5.5 0 6.2 3 6.4 7.6 0.2 4.9-1.9 6.1-6.4 6.4-17.4 1-17.4 1.1-17.4 18.7 0 15.1-0.1 30.2 0 45.3 0.1 5.8 0.6 10.6-8 10.4-8.7-0.2-7.8-5.4-7.8-11v-57.1c0-1.7-0.3-3.5-0.5-6.4zM584.1 543.2c0 11.7-0.1 23.5 0.1 35.2 0.1 5.3-1.8 7.7-7.4 7.6-5.2-0.1-8.6-0.9-8.5-7.4 0.2-24.4 0.2-48.8 0-73.2-0.1-6.2 2.9-7.6 8.4-7.6 5.3 0 7.7 1.9 7.7 7.4-0.4 12.7-0.3 25.4-0.3 38z" p-id="7088"></path><path d="M886.4 483.5c-21.5-2.4-39-9-48.2-29.7-6.4-14.5-1.4-31.7 17.8-35.9 22.2-4.8 55 6.2 62.3 32.9 3.4 12.5-2.7 26.3-15.1 29.7-5.7 1.6-11.7 2.1-16.8 3zM918.3 584.1c-13.8 3.9-15.8 3.3-19.5-7.9-2.2-6.8-5.6-10.1-13-8.9-3.2 0.5-6.7 0.4-10 0.1-10-1.2-17.4 0.2-18.9 12.7-0.9 8-8.8 6.8-14 5.5-7.1-1.8-2.1-7.1-1-10.3 8.2-23.2 16.6-46.3 25.5-69.2 1.1-2.7 5.6-5.7 8.6-5.7 4.2-0.1 11.3 1.3 12.3 4 10.7 26.1 20.1 52.6 30 79.7z m-51.9-30.8h23.9c-3.8-10.9-7.3-21.1-11.7-33.7-4.6 12.6-8.2 22.6-12.2 33.7zM739.2 553.4c0 9-0.2 17.2 0.1 25.3 0.2 7.2-4.2 7.4-9.6 7.4-5.4 0-7.2-1.9-7.1-7.6 0.4-23.8 0.5-47.7 0.3-71.5-0.1-6.6 2-9.5 8.8-9 9.3 0.6 18.8 0.1 28.1 1.1 15.1 1.7 23.5 12.1 23.3 27.2-0.2 14.6-8.7 23.8-23.8 25.6-6.4 0.6-12.7 0.9-20.1 1.5z m0.4-14.5c9.7-0.4 19.8 2.9 25.3-6.7 2.1-3.6 1.9-10.6-0.4-14.1-5.9-9-15.6-6.4-24.9-5.8v26.6zM936.9 535.8c5.5-10.9 10.4-20.3 15.1-29.9 4.3-8.8 10.4-10.5 20.2-4.9-7.4 14.3-14.1 29.1-22.4 42.9-6.3 10.5-5.2 21.5-4.8 32.5 0.2 7.8-2.6 11.1-9.9 9.2-2.5-0.7-6.3-4.5-6-6.4 3-21.5-5.7-39.3-16.6-56.7-2.7-4.3-5.1-8.9-7-13.7-1.3-3.1-1.4-6.7-2-10.1 5.3 0.8 13.1-0.2 15.3 2.9 6.3 8.6 10.4 18.9 15.3 28.5 0.6 1.4 1.3 2.7 2.8 5.7zM806.6 571.9h17.2c12.2 0.1 13.1 1.3 9.3 13.9-12.1 0-24.5 0.3-36.9-0.3-2-0.1-5.6-3.8-5.6-6-0.4-25.1-0.2-50.1-0.3-75.2 0-6.2 3.9-6.2 8.5-6.3 5.3-0.1 7.9 1.5 7.9 7.2-0.1 18.4-0.1 36.9-0.1 55.3v11.4z" p-id="7089"></path></svg>