<?xml version="1.0" standalone="no"?><!DOCTYPE svg PUBLIC "-//W3C//DTD SVG 1.1//EN" "http://www.w3.org/Graphics/SVG/1.1/DTD/svg11.dtd"><svg t="1574998187103" class="icon" viewBox="0 0 1024 1024" version="1.1" xmlns="http://www.w3.org/2000/svg" p-id="1980" xmlns:xlink="http://www.w3.org/1999/xlink" width="200" height="200"><defs><style type="text/css"></style></defs><path d="M849.9 409.9c0.4-2.1 0.5-3.4 1.1-4.6 0.3-0.7 1.3-1.6 2-1.6 11.8-0.6 23.4-2.7 34.5-6.7 0.5-0.2 1-0.2 1.5-0.2h6c-8.8 30.3-17.5 60.4-26.2 90.4 0.2 0.1 0.3 0.2 0.5 0.3 1.9-1.8 3.8-3.5 5.7-5.3 12.2-11.1 24.9-21.8 39.5-29.7 5.2-2.8 10.5-5.2 16.4-5.8 2.2-0.2 4.6-0.1 6.8 0.3 3.6 0.7 5.9 3.3 5.9 7.3-0.1 4-0.7 8.1-1.8 12-5.9 19.6-12.1 39.2-18.2 58.7-1 3.1-1.5 6.4-2.1 9.6-0.4 2.2 0.8 3.8 2.5 4.5 1.1 0.5 3 0.2 3.9-0.5 4.7-3.6 9.2-7.5 13.7-11.3 0.6-0.5 1.2-1.2 1.9-2 1.3 1 2.5 2 3.9 3.1-8 9.1-16.1 17.8-27.5 22.3-3.3 1.3-7.1 1.7-10.6 1.7-6.6 0-10.4-4.9-8.8-11.3 1.7-6.7 3.9-13.3 6-19.9 4.9-15.8 9.8-31.7 14.7-47.5 0.5-1.6 0.9-3.3 1.2-4.9 0.6-3.8-1.5-6.5-5.3-6.3-2.3 0.1-4.8 0.7-6.8 1.8-4.7 2.6-9.4 5.3-13.8 8.6-8.8 6.5-17.2 13.5-24.5 21.7-4 4.6-6.9 9.8-8.6 15.7-3.9 13.2-7.8 26.5-11.8 39.7-0.3 1-0.6 1.9-0.9 2.7h-18.5c1.9-6.8 3.9-13.6 5.9-20.4-0.2-0.2-0.4-0.4-0.6-0.5-1.5 1.6-2.9 3.4-4.5 4.9-10.7 10.4-23.6 16.1-38.6 16.3-15.5 0.2-28.2-6.9-34.4-21.8-0.2-0.5-0.5-1-0.8-1.7-3.6 2.5-6.9 5.1-10.4 7.4-11.3 7.6-23.2 13.6-36.9 15.4-6.7 0.9-13.3 0.9-19.8-1.3-8.4-2.8-13.6-8.6-16.1-17-0.3-0.9-0.5-1.9-0.9-3.2-2 2.2-3.7 4.1-5.5 5.9-5.7 5.8-11.8 11.2-19.5 14.3-3.5 1.4-7.2 2-11 1.3-7.3-1.3-11.9-8-10.5-16.3 1.4-8.1 3.4-16 5.5-24 5-19 10.2-37.9 15.2-56.9 0.1-0.5 0.2-1 0.3-1.7h-14.1c3.5 11-0.8 20.9-4.9 30.5-13.7 31.8-31.1 61.5-53.2 88.3-6.3 7.7-13.6 14.4-22.6 19-7.7 3.9-15.7 5.2-24.1 2.8-8-2.2-11.6-7.7-10.8-15.7 0.6-6.1 6.5-11.3 13.6-12 5-0.5 9.3 1.1 13.5 3.6 2.1 1.3 4.2 2.5 6.4 3.7 2.3 1.3 4.7 1 6.6-0.6 6-4.9 10.7-10.7 9.7-19-1.3-10.6-2.6-21.2-4.5-31.6-3.2-17.1-7-34.1-10.7-51.2-0.7-3.2-2.1-6.3-3.5-9.2-0.7-1.5-2.3-2.6-3.6-4-0.5 0.8-0.8 1.1-0.9 1.5-6.2 22.1-12.5 44.2-18.6 66.3-0.5 2-0.7 4.2-0.3 6.2 0.4 2.6 2.7 3.8 5 2.3 2.6-1.8 5-4 7.1-6.4 2-2.2 3.6-4.9 5.6-7.6 1.7 1.3 3.3 2.4 5.2 3.8-7.9 12.2-15.6 24.3-31 28-5.1 1.2-10.1 1-15-0.7-5.3-1.8-8.5-5.5-8.6-11.1-0.1-4.9 0.6-9.7 1-14.8-0.6 0.9-1.1 1.7-1.6 2.5-5.4 8.5-11.6 16.1-20.8 20.8-7.8 4-16.1 5.1-24.7 3-8.2-2.1-13.6-7.2-16.5-15.1-0.3-0.9-0.6-1.7-1-3-1.6 1.8-2.9 3.4-4.3 4.9-5 5.6-10.6 10.5-17.9 12.9-4.4 1.5-8.9 1.8-13.5 1-10.6-1.8-14.7-10.5-13.4-19.7 1.1-7.6 3.3-15 5-22.5 0.1-0.6 0.3-1.2 0.3-1.1-3.7 5.7-7.4 12.2-11.8 18.1-6.9 9.3-15.2 17.2-26.1 21.7-10 4.1-20.2 5.6-30.6 1.3-1.9-0.8-3.7-1.9-5.8-3.1-0.9 3.3-1.8 6.6-2.7 9.8-1.4 5.1-3 10.1-4.2 15.2-0.7 2.8-0.9 5.7-0.9 8.5 0 3.6 1.6 5.5 5.1 6.4 2.7 0.7 5.5 1 8.3 1.5v4.9h-61.2c-0.1-0.3-0.2-0.7-0.2-1.1-0.2-4.2-0.2-4.2 3.9-4.7 4.4-0.5 7.5-2.7 8.9-6.9 2.2-6.8 4.2-13.6 6-20.5 7.6-29.4 15.2-58.8 22.7-88.2 2.4-9.6 0.6-11.8-9.1-12.6-0.5 0-1-0.2-1.5-0.3v-4.6c16.5-2 33-4.1 49.6-6.1-2 6.8-4 13.6-6 20.5 0.1 0.1 0.2 0.1 0.3 0.2 2.2-2.6 4.4-5.3 6.7-7.8 6.2-6.7 13-12.6 22.2-15 11.4-3 23.2 0.7 29.1 9.3 4.2 6.1 5.1 13 5.1 20.1 0 1.2 0 2.3 0.4 3.6 0.6-2.3 1.3-4.5 1.9-6.8 4.8-17.9 9.6-35.8 14.3-53.7 0.3-1.2 0.6-2.5 0.7-3.7 0.7-5.1-1-7.4-6.1-8.2-1.6-0.2-3.2-0.3-4.9-0.4v-4.8c8.4-1 16.8-1.8 25.1-2.9 8.4-1.1 16.7-2.6 25.3-3.9-1 3.9-2 7.9-3.1 11.8-10.1 38.1-20.2 76.1-30.3 114.2-0.6 2.3-1.3 4.6-1.7 6.9-0.3 2 0 4 2 5.1 1.9 1 3.7 0.2 5-1.3 2.3-2.7 4.7-5.4 6.4-8.4 1-1.8 0.6-4.3 0.9-6.4 4.7-27.5 18.1-49.5 41.7-64.9 7.5-4.9 16-7.3 25.1-6 7.8 1.1 12.7 5.6 14.8 13.1 0.2 0.6 0.4 1.1 1 1.7 0.8-3.1 1.8-6.1 2.5-9.3 0.4-1.9 1.2-2.4 3.1-2.4 8.7 0.1 17.5 0 26.2 0.1 1 0 2.7-0.9 2.9 1.3 0 0.1 1.6 0.2 2.4 0.1 8.9-1.2 17.8-2.3 26.6-3.7 2.6-0.4 4 0.4 4.8 2.5 1.8 4.8 4 9.6 5.1 14.6 3.7 16.6 7 33.3 10.5 50 0.5 2.4 1 4.7 2.1 7.2 3.6-7.3 7.4-14.4 10.7-21.8 2.4-5.3 4.3-10.8 6.3-16.3 1.3-3.6 0.3-6.7-2.6-9.1-1.2-1-2.5-2.1-3.7-3.1-5.4-4.3-7-9-5.1-15.2 1.7-5.6 6.9-9.8 13.1-9.8 3.4 0 6.8 1 10.2 1.5 0.5 0.1 1.1 0.2 1.6 0.1 14.4-3.4 25.3-11.8 33.5-23.9 2.4-3.6 4.7-7.2 6.7-11.1 1.2-2.4 2.7-3.4 5.3-3 0.9 0.1 1.8 0 3.2 0-3 12.2-6 24-9.1 36.2h18.7c-0.6 2.7-1.2 5-1.8 7.6-5.5 0-11 0.1-16.5-0.1-2.2-0.1-3 0.7-3.6 2.8-6.1 23.4-12.4 46.8-18.6 70.3-0.5 1.8-0.7 3.7-0.6 5.5 0.1 5.5 4.1 8.1 9.2 6 1.8-0.7 3.5-1.8 5-3 2-1.6 3.8-3.6 5.8-5.3 4.6-3.9 6.3-8.8 6.9-14.9 2.8-27.1 23.1-57 52.3-65.8 8.2-2.5 16.5-3.4 25-1.6 17.4 3.7 19.3 17.9 14.3 29.1-2.9 6.6-8.1 11.2-13.9 15.2-11.1 7.6-23.6 11.7-36.7 14.1-5.4 1-10.9 1.6-16.3 2.2-1.9 0.2-3 0.8-3.1 2.8-0.4 4.2-1.1 8.4-1.2 12.6-0.3 13.7 11.4 20.5 23 18 8.8-1.8 16.5-6.1 23.9-10.8 4.5-2.9 8.7-6.2 13.1-9.3 1.4-1 1.8-2.1 1.8-3.8-0.5-30.5 20.9-59.7 50.2-68.5 9.5-2.8 19.2-3.6 28.7-0.4 8.1 2.7 13.8 7.7 14.7 16.9 0.9 9-6.9 16.2-15.8 14.5-5.2-1-8.3-6.8-6.5-12.6 0.7-2.4 2.1-4.6 3.1-6.9 1.2-2.7 0.8-4.7-2.1-5.4-3.4-0.8-7.1-1.1-10.5-0.6-8.2 1.3-15.1 5.6-20.6 11.7-11.8 12.8-18.9 27.8-20 45.3-0.2 4 0.1 8.2 1.1 12.1 3 12.8 17.9 23.2 34.8 14.7 12.5-6.3 21.9-15.9 29.4-27.4 2.1-3.2 2.6-7.5 3.7-11.3 7.4-25.5 14.8-51 22.1-76.6 0.6-2.3 1.2-4.6 1.3-6.9 0.2-3.9-1.3-5.6-5.2-5.8-5.6-0.4-10.7-0.2-16.3-0.2zM359 476.6c-0.1-1.4-0.1-2.7-0.2-3.9-0.7-7.5-6.5-10.9-13.2-7.6-2.2 1.1-4.5 2.7-5.9 4.7-3.2 4.6-6.6 9.2-8.4 14.3-4.2 11.7-7.8 23.6-11.3 35.5-1.6 5.3-2.8 10.8-3.7 16.3-0.8 5.1 2.5 8.4 7.6 7.9 2.3-0.2 4.8-1 6.5-2.4 3.2-2.7 6.3-5.7 8.7-9.1 6.3-8.8 10.1-18.9 13.6-29.1 3.1-8.5 5.8-17.4 6.3-26.6z m149-7.6c-0.1-1 0-2.1-0.2-3.2-0.7-6.7-6-9.7-12-6.9-3.8 1.8-6.4 4.9-8.7 8.3-8.8 12.8-15.4 26.7-19.2 41.8-1.4 5.5-2.3 11.4-2 17 0.5 8.6 7.6 11.7 14.6 6.5 3-2.2 5.6-5.1 7.9-8.2 6.3-8.5 10-18.4 13.3-28.4 2.9-8.7 5.6-17.5 6.3-26.9z m190.6 31.7c4.5-0.6 8.4-0.9 12.2-1.6 13.2-2.4 24.9-7.6 34.2-17.4 4.5-4.7 7.1-10.3 7.3-16.9 0.2-6.2-2.9-9.5-9-9.8-6.2-0.3-12 1.3-17.2 4.6-14.9 9.5-21.9 24.4-27.5 41.1zM93.7 592c-18.1-0.2-32.3-1.7-45.6-7.6-9.7-4.3-17.9-10.3-22.9-20-5.9-11.5-5-23.3-0.7-35 5.2-14.2 14.1-26 24.6-36.7 12.5-12.8 26.8-23.4 42.2-32.4 2.3-1.3 3.2-2.7 3.1-5.4-0.2-7.3-0.1-14.6-0.1-21.9 0-10.2 9.9-15.9 18.8-10.8 8.3 4.8 16.4 9.8 24.7 14.6 1 0.6 2.5 1 3.4 0.7 15.2-4.9 30.6-8.6 46.5-10.1 18.2-1.8 36.2-1.5 53.7 4.5 10.4 3.6 19.6 8.9 25.9 18.3 7.1 10.5 7.8 22 4.5 33.9-4.1 15.1-12.9 27.5-23.5 38.8-18.7 20-41.1 34.6-65.7 46.2-21.2 10-43.4 17.2-66.7 20.6-8.5 1.4-17.2 1.9-22.2 2.3z m75.6-134.9v0.6l2.1 1.2c12 6.6 24.1 13.2 36.1 19.8 8 4.4 8.3 14.8 0.4 19.4l-95.1 55.2c-9.2 5.3-18.4-0.1-18.4-10.8V511v-7.4c-0.7 0.5-1 0.6-1.2 0.8-6.3 7.5-11.7 15.6-15.1 24.8-2.2 6.1-3.5 12.5-1.9 18.9 2.7 11.2 11 16.1 21.5 18.1 7.9 1.6 15.9 1.3 23.8-0.2 35.9-6.9 65.8-24.3 89.3-52.3 6.7-8 12-16.9 14.6-27.1 4.2-16.4-3.1-28.3-19.5-32.1-8-1.8-16-1.5-24-0.2-4.3 0.9-8.5 1.9-12.6 2.8z m-61.2 30.2h0.3v18.5c0 6.3 0 12.5 0.1 18.8 0.1 7.2 6.6 10.9 12.8 7.3 21.3-12.3 42.6-24.7 63.9-37.1 6-3.5 6.1-10.3 0.2-13.9-21.1-12.7-42.2-25.3-63.3-38-3.1-1.8-6.1-2.5-9.4-0.7-3.4 1.8-4.5 5-4.5 8.7-0.1 12.2-0.1 24.3-0.1 36.4z m-55.2 52.1c-0.3 0.2-0.5 0.3-0.6 0.4-2.2 7.8-2.9 15.7 0 23.5 3.8 10.4 11.8 16 22 18.9 11.8 3.3 23.6 2.8 35.5 0.7 20.1-3.5 38.7-11.1 56.4-20.9 1.9-1 3.7-2.1 5.6-3.2-0.6-0.3-1-0.2-1.3-0.1-17.4 7.4-35.4 12.4-54.3 14-13.6 1.1-27.1 0.7-40.1-4.3-13.1-5.2-22.2-13.8-23.2-29zM245.7 469c1.3-11.2-3.6-22.4-14.2-28.4-7.3-4.2-15.3-5.7-23.6-6.1-10.9-0.5-21.6 1-32.1 3.9-7.6 2.1-15.1 4.7-22.9 7.2 3.7 3.6 6.4 4.6 9.8 3.9 16.7-3.6 33.6-5.4 50.6-2.1 13.6 2.5 25.6 7.7 32.4 21.6z" p-id="1981"></path><path d="M680.9 569.1c5.2 0 10.3-0.3 15.3 0.1 4.3 0.3 6.1 2.6 6.3 6.6 0.2 4.7-1 6.4-5.5 7.7-0.2 0.1-0.4 0.2-1.3 0.6 5.9 0.4 5.7 4.4 5.9 8.2 0.1 2.3 0.5 4.7 0.8 7.3-1.4 0-2.7 0.2-4-0.1-0.6-0.1-1.3-1-1.4-1.6-0.4-2.2-0.5-4.5-0.7-6.8-0.5-4.1-1.7-5.3-5.8-5.5-1.4-0.1-2.8 0-4.5 0v13.8h-5.1v-30.3z m5 3.2v3.9c0 6.6 0.6 7.1 7.4 5.9 0.2 0 0.3-0.1 0.5-0.1 2.6-0.7 3.6-2.3 3.4-5.4-0.1-2.5-1.2-3.9-3.9-4.2-2.3-0.2-4.7-0.1-7.4-0.1zM647.5 584.5c0 2.9 0.1 5.8 0 8.6-0.1 3.1-1.9 5.2-4.9 6.1-4.2 1.2-8.4 1.1-12.5 0-2.9-0.8-4.6-2.8-4.7-5.7-0.2-6.2-0.2-12.5 0-18.7 0.1-2.4 1.7-4 3.9-4.9 4.7-1.9 9.4-1.9 14.1-0.1 2.6 1 4 3.1 4.2 5.8 0 3-0.1 5.9-0.1 8.9z m-17.1-0.4h0.1c0 2.9-0.2 5.8 0.1 8.6 0.2 2.6 2.4 4 5.5 4.1 3.2 0.1 5.8-1.4 5.9-3.9 0.2-5.6 0.3-11.3 0-16.9-0.1-3-2.4-4.2-5.9-4.1-3.5 0.1-5.5 1.5-5.7 4.5-0.2 2.4 0 5 0 7.7zM766.6 584.1c0-2.7-0.1-5.4 0-8.1 0.1-3.3 1.8-5.5 5-6.6 4.1-1.3 8.1-1.4 12.2 0 3 1 5 2.9 5.1 6.2 0.1 6 0.1 12-0.1 18-0.1 2.8-1.8 4.6-4.3 5.4-4.5 1.5-9 1.4-13.5 0-3.3-1-4.2-3.7-4.4-6.7-0.1-2.7 0-5.5 0-8.2z m17.2 0.2c0.1 0 0.1 0 0 0 0.1-2.2 0.1-4.4 0.1-6.6v-0.5c-0.4-3.8-2.1-5.4-5.9-5.4-4 0-6 1.6-6.1 5.4-0.2 4.8-0.1 9.6 0.1 14.4 0.2 3.6 2.2 5.1 5.9 5.1 3.6 0 5.7-1.7 6-5.1 0.1-2.4-0.1-4.9-0.1-7.3zM868.8 569h5.3v2.9c-0.1 7-0.1 14.1-0.2 21.1 0 2.9-1.6 4.8-4.2 5.8-4.5 1.7-9.1 1.7-13.7 0.1-2.4-0.9-4.1-2.6-4.1-5.3-0.1-8.1 0-16.2 0-24.5h5.2V590.8c0 4.1 1.6 5.8 5.2 6 4.1 0.2 6.1-1.4 6.3-5.5 0.3-6.3 0.1-12.7 0.2-19.1V569zM670 569h4.8c0.1 0.3 0.3 0.6 0.3 0.9 0 7.6 0 15.2-0.1 22.9 0 3-1.6 5-4.3 6-4.5 1.7-9.1 1.7-13.7 0-2.4-0.9-3.9-2.7-4.1-5.3-0.1-1.2-0.2-2.4-0.2-3.5v-20.9h5.4v22c0 3.7 1.6 5.5 5 5.7 4 0.3 6.3-1.2 6.5-5 0.3-6.2 0.2-12.5 0.3-18.8 0.1-1.3 0.1-2.6 0.1-4zM979.4 589.6h4.9c0.1 0.5 0.2 0.9 0.2 1.3 0 2.2 0.3 4.4 2.7 5.3 2.6 1 5.2 0.9 7.6-0.6 2.6-1.7 2.5-5.8-0.3-7.5-2.3-1.4-4.9-2.4-7.3-3.6-1.6-0.8-3.3-1.5-4.7-2.6-4.3-3.3-3.4-10.3 1.6-12.3 4.3-1.7 8.8-1.7 13.2-0.2 3.1 1.1 4.1 3.4 3.8 7.9h-4.8c-1-4.9-3.3-6.6-7.5-5.3-1.3 0.4-3 1.8-3.2 3-0.3 1.3 0.5 3.3 1.6 4.3 1.3 1.3 3.3 1.9 5.1 2.8 1.8 0.9 3.8 1.6 5.5 2.5 3.3 1.7 4.6 4.6 4.1 8.3-0.4 3.4-2.4 5.8-5.7 6.3-3.6 0.5-7.5 0.7-11 0.2-4.7-0.8-6.2-3.8-5.8-9.8zM846.7 577.3H842c-1.5-5.3-3.9-6.8-8.3-5.2-3.2 1.1-4 4.6-1.5 6.8 1.4 1.2 3.3 2 5 2.9 1.9 0.9 3.9 1.6 5.8 2.6 3.5 1.8 4.9 4.5 4.5 8.3-0.4 3.5-2.2 5.9-6.1 6.5-3.4 0.5-7.1 0.7-10.6 0.1-4.7-0.7-6.4-3.8-5.9-9.7h4.9c0.1 0.3 0.2 0.5 0.2 0.7 0.3 5.5 3.7 7.7 9 5.9 1.9-0.7 3.3-2 3.1-3.9-0.1-1.5-0.9-3.4-2-4.2-2.1-1.5-4.6-2.4-7-3.5-1.4-0.7-2.9-1.4-4.3-2.2-2.9-1.8-3.6-4.5-3.2-7.7 0.4-2.8 2.2-4.5 4.8-5.4 3.9-1.3 7.8-1.3 11.8-0.3 3.8 1.2 5.1 3.7 4.5 8.3zM598.5 589.6h4.8c0.1 0.5 0.2 1 0.3 1.4 0.6 5.3 5.7 7.7 10.2 4.7 2.8-1.8 2.7-6.1-0.4-7.8-3.3-1.8-6.8-3.3-10.3-5-2.2-1.1-3.5-2.8-4-5.3-0.7-3.6 0.9-6.9 4.4-8.2 4.2-1.5 8.5-1.6 12.7-0.2 3.3 1.1 4.4 3.3 4.1 7.9h-4.9c-1-4.8-2.7-6.1-7-5.5-2 0.3-3.6 1.2-4 3.3-0.5 2 0.5 3.5 2.1 4.5s3.5 1.8 5.2 2.6c1.7 0.8 3.4 1.4 5.1 2.3 3.4 1.8 4.7 4.5 4.3 8.2-0.4 3.5-2.4 6-5.8 6.4-3.6 0.5-7.4 0.7-11 0.1-4.7-0.4-6.3-3.6-5.8-9.4zM954 589.6h4.7c0.1 0.5 0.2 0.8 0.2 1.1 0.4 5.5 5.1 7.9 9.9 5.2 3-1.7 3.1-5.9 0.1-7.8-2.3-1.4-4.9-2.4-7.3-3.6-1.3-0.6-2.6-1.2-3.8-2-2.7-1.7-3.8-4.2-3.5-7.4 0.3-3 2.1-4.9 4.9-5.9 3.9-1.2 7.9-1.3 11.8-0.2 3.7 1.1 4.9 3.4 4.5 8.1h-4.9c-0.1-0.3-0.2-0.7-0.2-1.1-0.1-2-0.9-3.7-3-4.2-2.4-0.6-4.8-0.6-6.7 1.2-1.9 1.8-1.4 4.9 1.1 6.5 1.8 1.1 3.8 1.9 5.7 2.8 1.5 0.7 3.1 1.3 4.6 2.1 3.2 1.7 4.5 4.4 4.2 8-0.3 3.6-2.3 6-5.7 6.5-3.6 0.5-7.5 0.8-11 0.2-4.8-0.5-6.5-4-5.6-9.5zM900.8 577.6h-4.7c-0.1-0.2-0.3-0.5-0.3-0.7-0.5-4.8-4.2-6.8-8.4-4.4-1.2 0.7-2.2 2.5-2.3 3.8-0.3 5.1-0.2 10.3-0.1 15.5 0.1 3.2 1.6 4.7 4.6 4.9 3.4 0.3 5.2-1 5.9-4.2 0.2-0.8 0.3-1.7 0.5-2.6h4.7c1.1 5.3-1.2 9-6.3 9.7-2.6 0.4-5.2 0.3-7.8 0-4.1-0.5-6.5-2.6-6.8-6.7-0.3-5.8-0.2-11.7 0-17.5 0.1-3.6 2.6-5.8 5.9-6.4 3.1-0.5 6.4-0.6 9.5-0.1 4.6 0.7 6.2 3.5 5.6 8.7zM932.8 569h17.5v3.2h-12.2v9.8h11.3v3.4H938v10.8h12.6v3.2h-17.9c0.1-10.1 0.1-20.2 0.1-30.4zM927.4 577.6h-4.8c-0.9-5.2-2.5-6.5-6.9-5.7-2.7 0.5-4 1.9-4.1 4.7-0.1 4.9-0.1 9.8 0 14.7 0.1 3.8 1.6 5.4 5.1 5.5 3.5 0.1 5.1-1.4 5.5-5.2 0.1-0.5 0.1-1 0.2-1.8h4.7c1.3 4.7-0.7 8.8-5.1 9.5-3.3 0.6-6.9 0.4-10.3 0-3.3-0.5-5.2-2.9-5.3-6.3-0.2-5.9-0.1-11.9 0-17.8 0.1-2.8 1.8-4.7 4.4-5.7 4.1-1.5 8.3-1.6 12.5-0.2 3.6 1.2 4.7 3.6 4.1 8.3zM728.5 577.6h-4.7c-0.1-0.3-0.2-0.5-0.3-0.7-0.3-4-1.5-5.2-5.2-5.1-3.9 0.1-5.5 1.7-5.5 5.4 0 4.6-0.1 9.1 0 13.7 0 4.1 1.5 5.7 5 5.9 3.7 0.2 5.3-1.4 5.7-5.5 0-0.4 0.1-0.8 0.2-1.3h4.8c1.2 5-1.1 8.9-5.9 9.6-2.9 0.4-5.9 0.4-8.8 0-3.9-0.6-6-3.1-6.1-7-0.1-5.6 0-11.2 0-16.8 0-3.3 1.9-5.4 4.9-6.4 3.7-1.3 7.5-1.3 11.3-0.3 4 1.1 5.5 3.9 4.6 8.5zM734 599.4v-30.3h17.4v3.1h-12.2v9.9h11.4v3.3h-11.5v10.8h12.6v3.2H734zM794.7 569c0.7-0.1 1.3-0.1 1.9-0.2h15.1v3.3H800v9.8h11.2v3.5h-11.3v14h-5.1c-0.1-10.2-0.1-20.2-0.1-30.4z" p-id="1982"></path></svg>