<?xml version="1.0" standalone="no"?><!DOCTYPE svg PUBLIC "-//W3C//DTD SVG 1.1//EN" "http://www.w3.org/Graphics/SVG/1.1/DTD/svg11.dtd"><svg t="1575531859207" class="icon" viewBox="0 0 1024 1024" version="1.1" xmlns="http://www.w3.org/2000/svg" p-id="2763" xmlns:xlink="http://www.w3.org/1999/xlink" width="200" height="200"><defs><style type="text/css"></style></defs><path d="M973.7 505.9l27.3 44.2h-31.1l-25.8-41.5h-0.3v41.5h-28.1V442.4h41.9c9.7-0.6 19.4 2.3 27.3 8 7.2 6.2 11 15.4 10.3 24.9 0.2 7.2-2 14.2-6.2 20-3.3 5.6-8.9 9.5-15.3 10.6z m-9.3-35.7c-1.1-1.8-2.6-3.2-4.4-4.2-1.9-1-4-1.6-6.2-1.9-2.4-0.3-4.8-0.5-7.2-0.5h-2.7v26.9h2.7c2.4 0 4.8-0.2 7.2-0.5 2.1-0.3 4.2-1 6.2-1.9 1.8-0.9 3.4-2.4 4.4-4.2 2.2-4.3 2.2-9.4 0-13.7z m-127.3-27.8h61.4v23.8h-33.2v17.3h33.2v24.6h-33.2v17.3h33.2V550h-61.4V442.4z m-405.9 23.9H398v17.3h33.2v24.6H398v17.3h33.2v24.6h-61.4V442.4h61.4v23.9z m-104.1 83.8l-25.8-41.5h-0.3v41.5h-28V442.4h41.9c9.7-0.6 19.4 2.3 27.3 8 7.2 6.2 11 15.4 10.3 24.9 0.2 7.2-2 14.2-6.2 20-4.2 5.7-10.4 9.4-17.4 10.5l29.4 44.2-31.2 0.1z m-5.5-79.9c-1.1-1.8-2.6-3.2-4.4-4.2-1.9-1-4-1.6-6.1-1.9-2.4-0.3-4.8-0.5-7.2-0.5h-2.7v26.9h2.7c2.4 0 4.8-0.2 7.2-0.5 2.1-0.3 4.2-1 6.1-1.9 1.8-0.9 3.4-2.4 4.4-4.2 2.2-4.3 2.2-9.4 0-13.7z m183.2-23.7c6.1 2.7 11.7 6.6 16.3 11.5 4.7 5 8.4 10.9 10.9 17.3 5.2 13.5 5.2 28.5-0.1 42-2.5 6.4-6.3 12.2-11 17.2-4.6 4.9-10.1 8.8-16.3 11.5-6.1 2.7-12.7 4.2-19.4 4.1h-36.8V442.4h36.8c6.8 0 13.5 1.4 19.6 4.1z m-30.4 19.7v60.3h5.8c3.8 0 7.5-0.6 11.1-1.8 7.1-2.4 12.8-7.9 15.3-15 1.6-4.3 2.3-8.8 2.3-13.4 0.5-8.1-2.3-16.1-7.8-22.1-5.5-5.4-12.9-8.3-20.6-8h-6.1z m178.5 0h-23.2v84h-28v-84h-23.2v-23.7h74.4v23.7z m45.2 83.9H670v-108h28.1v108z m31.9-92.8c4.9-4.9 10.8-8.6 17.2-11 7-2.6 14.5-3.9 22-3.8 9.5-0.2 19 2.2 27.2 7.1 8 5.1 14.2 12.4 17.9 21.2l-24.7 10.4c-1.6-4.6-4.5-8.7-8.4-11.8-3.8-2.9-8.5-4.4-13.3-4.3-3.8-0.1-7.6 0.9-11 2.7-3.3 1.8-6.1 4.3-8.2 7.3-2.2 3.1-3.9 6.6-5 10.3-2.3 7.6-2.3 15.6 0 23.2 1.1 3.7 2.8 7.1 5.1 10.2 2.2 3 5.1 5.4 8.4 7.2 3.5 1.8 7.3 2.7 11.2 2.6 5.2 0.2 10.3-1.4 14.5-4.5 3.9-3.2 6.3-7.9 6.5-13h-21.2v-20.6h51.6c0 7.5-0.8 14.9-2.2 22.2-1.4 6.4-4.2 12.4-8 17.7-4.5 6.5-10.6 11.6-17.7 14.9-7.4 3.3-15.4 5-23.5 4.9-7.3 0.1-14.6-1.2-21.5-3.8-6.4-2.4-12.1-6.1-17-10.9-4.8-4.8-8.6-10.6-11-16.9-2.6-6.9-3.9-14.2-3.8-21.6-0.1-7.6 1.2-15.1 3.9-22.2 2.4-6.7 6.2-12.6 11-17.5zM156.6 466c-0.1 2.9 0.1 6.2-4.4 7.7-2.7 0.9-6-2.8-6.2-5.4 1.4-1.8 3.2-3.2 5.3-3.9 4.2-1.7 5.2-2 5.3 1.6z m-78.7 7.7c-4.6-1.5-4.3-4.8-4.4-7.7 0.1-3.5 1.1-3.2 5.3-1.6 2.1 0.8 4 2.1 5.3 3.9-0.2 2.6-3.5 6.3-6.2 5.4z m103.7 85.8c2.8-1.3 5.3-3.1 7.5-5.4 10.7-11.4 12.8-24.6 14-39.8 0.3-4 0.3-8 0.5-12 0-0.6 0.1-3.4 0.4-3.4 0.8 0.9 1.5 2 2 3.1 1.3 3.5 2.1 7.2 2.5 11 1.2 7.4 1.4 14.9 0.6 22.4-0.4 2.6-1.2 5.1-2.5 7.4-6.7 11.2-14.1 21.6-21.1 32.6-0.6 0.9-1-0.8-1.4-1.1l-0.6-0.6c-1.6-0.9-2.2-1-3-0.4-0.3 0.5-0.5 0.9-0.7 1.4-1.7 3.7-4.6 9.5-6.7 13.3-0.3 0.6-1.1 0.8-1.7 0.5-0.4-0.2-0.6-0.6-0.6-1.1v-12.6c0-2.6 0-5.8-3.6-5.8-3.5 0-3.6 3.1-3.7 5.8v7.7c0 0.7-0.5 1.2-1.2 1.2-0.2 0-0.5-0.1-0.7-0.2-3-2.2-6.3-4-9.8-5.3-5.7-2.3-12.1-1.6-17.1 1.9l0.8-0.7c4.3-3.9 10.2-5.5 15.8-4.2 1.5 0.3 3.1 0.5 4.7 0.4 0.7 0 1.2-0.6 1.1-1.3 0-0.1 0-0.2-0.1-0.4-2.2-5.8-9-27.2 5-34.4 0.4-0.2 0.6-0.5 0.7-0.9 0.5-3.9 7.6-20.9-11.8-31.9-3 2.7-6.8 9-11.6 13.1 8.5 1.8 12.9-3.3 17-6.8-1.7 9.9-9.4 10.6-15.5 14.2 5.3-2.3 10.5 0.8 16.8-2.5-4.5 8.7-13.5 4.4-19 9 5.3 3.4 10.2 1.6 15 1 1.4-0.2 2.8-0.1 4.1 0.2-1.1 1.7-2.5 3.2-3.9 4.5-1.9 1.4-4 2.5-6.3 3.1-2.3 0.7-4.8 0.8-7.1 0.2-6.9-2.2-13.7-4.7-20.5-7.4-1.3-0.6-2.3-1.8-2.7-3.2-0.4-2.2 0.1-4.6-0.1-6.8-0.5-2.9 1.4-5.7 4.2-6.2 6.4-1.8 12-5.6 15.9-10.9 1.3-1.9 2.3-4 2.8-6.3v-0.1c0-2.1-0.3-4.1-1.1-6.1-0.4-1.5-0.4-3.2 0.1-4.7l0.1-0.5v-0.1l1.4-5.9c0.5-1.8 1.6-3.4 3.1-4.5l0.4-0.3c0.2-0.1 0.3-0.2 0.5-0.3 2.6-1.4 5.3-2.5 8.1-3.3 9.8-3.9 17.4-12 20.5-22.1 1.2-3.4 1.5-7 0.8-10.5-0.9 1.9-2.4 5.7-3.3 7.7-1.1 3.1-4.2 5-7.5 4.7-9 0.1-17.7 1.6-22.6 11-2.1 5-5.9 9.1-10.7 11.6-0.1-2.7 0.3-5.4 1.2-8-4.2-1.7-2.5-4.2-0.3-6.6 3-3.3 6.1-6.5 9.3-10-2.7-0.7-5.2-2.1-7.2-4h17.6v-0.5c-5.4-1-10.6-2.8-15.3-5.5 8.2-5 25.2-2.5 28-3.5 0-0.7-2.4-1.2-4.8-2-5.6-1.5-7.8-1.9-13.4-3.4-5.6-1.5-11-3.7-16-6.5H152c-7.9-4.5-16.5-7.3-25.5-8.5-5.1-0.3-8.7-0.3-11.9-0.3v-1.5 1.5c-3.1-0.1-6.8-0.1-11.9 0.3-9 1.1-17.6 4-25.5 8.5h23.1c-5.1 2.8-10.5 5-16 6.5-5.6 1.5-7.7 2-13.4 3.4-2.4 0.8-4.8 1.3-4.8 2 2.9 0.9 19.9-1.6 28 3.5-4.8 2.7-10 4.5-15.3 5.5v0.5h17.6c-2 2-4.5 3.3-7.2 4 3.2 3.4 6.3 6.7 9.3 10 2.2 2.4 3.9 4.9-0.3 6.6 0.9 2.6 1.3 5.3 1.2 8-4.8-2.5-8.6-6.6-10.7-11.6-4.9-9.4-13.6-10.9-22.6-11-3.3 0.4-6.3-1.6-7.5-4.7-0.9-1.9-2.4-5.8-3.3-7.7-0.6 3.5-0.3 7.1 0.8 10.5 3.1 10.1 10.7 18.3 20.5 22.1 2.8 0.9 5.5 2 8.1 3.3 0.2 0.1 0.4 0.2 0.5 0.3 0.1 0.1 0.3 0.2 0.4 0.3 1.5 1.1 2.6 2.7 3.1 4.5l1.4 5.9v0.1l0.1 0.5c0.5 1.5 0.5 3.2 0.1 4.7-0.7 1.9-1.1 4-1.1 6.1v0.1c0.5 2.2 1.5 4.4 2.8 6.3 3.9 5.3 9.5 9.2 15.9 10.9 2.9 0.5 4.8 3.3 4.2 6.2-0.2 2.3 0.3 4.6-0.1 6.8-0.4 1.4-1.4 2.6-2.7 3.2-6.8 2.7-13.6 5.2-20.5 7.4-2.3 0.6-4.8 0.5-7.1-0.2-2.3-0.6-4.4-1.7-6.3-3.1-1.5-1.4-2.8-2.9-3.9-4.5 1.3-0.3 2.7-0.3 4.1-0.2 4.9 0.5 9.7 2.4 15-1-5.5-4.6-14.5-0.3-19-9 6.3 3.3 11.5 0.2 16.8 2.5-6.1-3.6-13.8-4.3-15.5-14.2 4.1 3.5 8.6 8.6 17 6.8-4.8-4-8.5-10.4-11.6-13.1-19.4 11.1-12.3 28-11.8 31.9 0.1 0.4 0.3 0.8 0.7 0.9 14.1 7.2 7.2 28.6 5 34.4-0.1 0.4-0.1 0.8 0.1 1.1 0.2 0.3 0.6 0.5 0.9 0.5 1.6 0.1 3.2 0 4.7-0.4 5.6-1.2 11.5 0.3 15.8 4.2l0.8 0.7c-5-3.4-11.4-4.1-17.1-1.9-3.5 1.3-6.8 3.1-9.8 5.3-0.6 0.4-1.3 0.2-1.7-0.4-0.1-0.2-0.2-0.4-0.2-0.7v-7.7c0-2.7-0.2-5.8-3.7-5.8-3.6 0-3.6 3.2-3.6 5.8-0.1 4.2 0 8.4 0 12.6 0 0.7-0.5 1.2-1.2 1.2-0.4 0-0.8-0.2-1.1-0.6-2.1-3.8-5.1-9.6-6.7-13.3-0.2-0.5-0.5-0.9-0.7-1.4-0.8-0.5-1.4-0.4-3 0.4l-0.6 0.6c-0.4 0.3-0.8 2-1.4 1.1-7.1-11-14.4-21.4-21.1-32.6-1.3-2.3-2.2-4.8-2.5-7.4-0.8-7.5-0.6-15 0.6-22.4 0.3-3.8 1.2-7.5 2.5-11 0.5-1.2 1.1-2.2 2-3.1 0.3 0 0.4 2.8 0.4 3.4 0.2 4.1 0.1 8.1 0.5 12 1.3 15.2 3.4 28.4 14 39.8 2.2 2.2 4.7 4 7.5 5.4 0.6 0.2 1.3-0.1 1.6-0.7 0.1-0.3 0.1-0.7 0-1-3.3-6.6-6.8-13.2-9.4-20-2.7-7-4.5-14.4-6.5-21.6-0.2-0.6 0.2-1.3 0.8-1.5 0.2-0.1 0.5-0.1 0.7 0 1.5 0.5 3.6 1.4 5.2 2 0.6 0.2 1.3-0.1 1.6-0.7 0.1-0.2 0.1-0.5 0-0.8-2-7-8.6-27.5-8.6-27.5 0.4 0.5 4.3 6.1 4.5 6.6 3.1 5 5.8 10.2 8.2 15.6 1.1 2.9 2 4.9 2.5 6 0.2 0.5 0.3 1-0.1 1.4-5.5 4.7-1 13.5 1.3 16.3 3.2 3.9 5.5 8.4 6.8 13.3 0.3 1 0.8 2.4 1.2 3.9 0.2 0.6 0.9 0.9 1.6 0.7 0.5-0.2 0.8-0.6 0.8-1.2-0.4-6.3-1.5-14.8-3.6-16.7-3.2-3-2.5-13.3 1.1-15.2 3.3-1.7 4.1-3.5 2.4-6.4-0.3-0.6-0.2-1.4 0.4-1.7l15.3-8.7c0.6-0.3 0.8-1.1 0.5-1.7-0.2-0.3-0.5-0.5-0.9-0.6-5.3-0.5-10.6 1.1-14.8 4.3-3.2 1.9-7.3 0.8-9.2-2.4-0.3-0.4-0.5-0.9-0.6-1.4-0.3-0.8-0.6-1.6-0.8-2.4-0.2-0.7 0.4-1.2 1.1-1.4 7.5-1.9 8.6-2.3 9-4.5 0.1-0.7-0.4-1.3-1-1.4h-0.2c-2.6 0.4-5.3 0.1-7.7-0.9-1.5-1.5-2.4-3.4-2.7-5.4-0.2-0.6 0.2-1.3 0.8-1.5 0.3-0.1 0.5-0.1 0.8 0 2.7 1.1 3.4 1.1 4.8 0 0.5-0.4 0.6-1.2 0.2-1.8-0.3-0.4-0.7-0.8-1.1-1.1-5.5-4.3-14-28.1-13.7-35.1-2.2 1.9-3.9 4.4-4.8 7.1-5.8-2.4-10.3-3.1-9.4-11.3l6.4 3.3s0.3-2.5-3.1-5.4c-7.4-6.2-8.5-14.4-8.8-23.4-0.4-4.3 2.8-8.2 7.2-8.5 1.7-0.1 3.4 0.2 4.8 1.1 14.4 6.8 34.2 13.6 50.6 11.5l0.5-0.1h0.1c10.2-2.1 20.6-3.2 31-3.3h0.1c10.4 0.1 20.8 1.2 31 3.3l0.5 0.1c16.4 2.1 36.2-4.7 50.6-11.5 3.7-2.3 8.6-1.1 10.8 2.6 0.9 1.4 1.3 3.1 1.1 4.8-0.2 9-1.4 17.2-8.8 23.4-3.5 2.9-3.1 5.4-3.1 5.4l6.4-3.3c0.8 8.2-3.6 9-9.4 11.3-0.9-2.8-2.6-5.2-4.8-7.1 0.3 7-8.2 30.8-13.7 35.1-0.4 0.3-0.8 0.7-1.1 1.1-0.2 0.3-0.3 0.6-0.3 0.9 0 0.3 0.2 0.6 0.5 0.8 1.5 1.1 2.2 1.2 4.8 0 0.6-0.3 1.3 0 1.6 0.7 0.1 0.3 0.1 0.5 0 0.8-0.3 2.1-1.3 4-2.7 5.4-2.5 1-5.1 1.3-7.7 0.9-0.7 0-1.2 0.6-1.2 1.2v0.2c0.4 2.3 1.5 2.7 9 4.5 0.7 0.2 1.3 0.7 1.1 1.4-0.2 0.8-0.5 1.6-0.8 2.4-1.1 3.5-4.9 5.5-8.4 4.4-0.5-0.2-1-0.4-1.4-0.6-4.2-3.3-9.5-4.8-14.8-4.3-0.7 0.1-1.1 0.7-1 1.4 0.1 0.4 0.3 0.7 0.6 0.9l15.3 8.7c0.6 0.3 0.8 1.1 0.4 1.7-1.7 2.9-0.9 4.7 2.4 6.4 3.6 1.8 4.2 12.2 1.1 15.2-2.1 1.9-3.2 10.5-3.6 16.7 0 0.7 0.5 1.2 1.2 1.2 0.5 0 1-0.3 1.2-0.8 0.5-1.5 0.9-2.9 1.2-3.9 1.3-4.9 3.6-9.4 6.8-13.3 2.4-2.8 6.8-11.6 1.3-16.3-0.3-0.4-0.4-0.9-0.1-1.4 0.5-1.1 1.4-3.1 2.5-6 2.3-5.4 5.1-10.6 8.2-15.6 0.3-0.5 4.1-6.2 4.5-6.6 0 0-6.6 20.5-8.6 27.5-0.2 0.6 0.2 1.3 0.8 1.5 0.3 0.1 0.5 0.1 0.8 0 1.6-0.6 3.6-1.5 5.2-2 0.6-0.2 1.3 0.1 1.5 0.8 0.1 0.2 0.1 0.5 0 0.7-2.1 7.2-3.8 14.6-6.5 21.6-2.6 6.9-6.1 13.4-9.4 20-0.3 0.6-0.1 1.3 0.5 1.6 1 0.6 1.3 0.6 1.6 0.5zM81.1 505.3l-0.7 0.3c0.3 0 0.6-0.1 0.7-0.3z m-27.5-89.5c1.3 0.3 2.5 0.6 3.7 0.9-1.3-0.4-2.5-0.7-3.7-0.9z m-1.6 1.8c-17-1.3-13.8 11.2-10.5 18.6l2.7 4.5c0.2 0.2 0.3 0.4 0.4 0.6 0 0 0 0.1 0.1 0.1 4.2 10 7.7 31.2 28.1 39.3-0.8-0.5-1.6-1-2.3-1.5-5.9-5-10.7-11.1-14.1-18-9.1-18.3-6.7-29.8-7.8-34.3 1.8 0.6 8 1.9 9.2 2.4 0.1-0.3-10.9-5.1-14.1-6.7 1.4-0.9 3-1.4 4.6-1.7 7.2-0.7 9.9 1.5 14.5 2.2 3.1 0.3 6.2 0 9.3-0.7L52 417.6z m96.9 87.7c0.2 0.1 0.4 0.2 0.7 0.3l-0.7-0.3z m23.9-88.6c1.2-0.3 2.4-0.6 3.7-0.9-1.3 0.2-2.5 0.5-3.7 0.9z m12.6 24.8s0-0.1 0.1-0.1c0.1-0.2 0.2-0.4 0.4-0.6l2.7-4.5c3.3-7.4 6.4-20-10.5-18.6l-20 4.9c3 0.8 6.2 1 9.3 0.7 4.6-0.7 7.3-2.9 14.5-2.2 1.6 0.2 3.2 0.8 4.6 1.7-3.2 1.7-14.2 6.5-14.1 6.7 1.2-0.4 7.5-1.8 9.2-2.4-1.1 4.6 1.3 16-7.8 34.3-3.4 6.9-8.3 13-14.1 18-0.8 0.5-1.5 1-2.3 1.5 20.3-8.2 23.8-29.4 28-39.4z m-70.4 65c-2.4 0-5.1 0-8.5-0.1-3.1 0-6.1-0.5-9-1.7-1.6-1.1-2.4-3-2-4.9 0.2-2.6 3.5-4.4 3.5-4.4-0.1 6 5.1 7.6 15.9 7.7h0.1c10.9-0.1 16.1-1.7 15.9-7.7 0 0 3.3 1.8 3.5 4.4 0.4 1.9-0.4 3.8-2 4.9-2.8 1.2-5.9 1.8-9 1.7-3.3 0.1-5.9 0.1-8.4 0.1v-0.3 0.3z m0 64.2c0.3 7.9-13.3 8.6-24.7 1.7-0.6-2.4 0.6-6.7-0.7-7.6-2-1.4-5.1 0.4-7.1 1.7s-3.3 3.7-5.2 5.2c0.8-12.2 13-23.3 31.8-24.3 2.1-0.1 4.1-0.2 6.1-0.2 1.9 0 4 0.1 6.1 0.2 18.7 1 30.9 12.1 31.8 24.3-2-1.5-3.2-4-5.2-5.2-2-1.3-5.1-3.1-7.1-1.7-1.3 0.9-0.1 5.1-0.7 7.6-11.8 6.9-25.4 6.2-25.1-1.7z" p-id="2764"></path></svg>