<?xml version="1.0" standalone="no"?><!DOCTYPE svg PUBLIC "-//W3C//DTD SVG 1.1//EN" "http://www.w3.org/Graphics/SVG/1.1/DTD/svg11.dtd"><svg t="1575530986857" class="icon" viewBox="0 0 1024 1024" version="1.1" xmlns="http://www.w3.org/2000/svg" p-id="1590" xmlns:xlink="http://www.w3.org/1999/xlink" width="200" height="200"><defs><style type="text/css"></style></defs><path d="M107.6 528.4c7.5 1.6 13.8 3.4 20.2 4.2 4.8 0.6 9.8 0.4 14.5-0.3 8.1-1.3 13.9-8.9 15.1-18.7 2.1-16.1-3.8-29.7-13.4-42-11.9-15.1-26.8-27.1-42.2-38.5-0.7-0.5-2.6-0.6-3.3-0.1-16.4 12-32.1 24.8-44.4 41.2-6.5 8.7-10.7 18.5-11.8 29.4-0.7 6.9 0.4 13.4 3.6 19.6 3.7 7.2 10.1 10.1 17.6 9.8 7.1-0.3 14.2-1.8 21.3-2.9 2.2-0.3 4.3-1.1 6.9-1.8 2.6 14 2.7 27.4-5.8 39.6-12.3 17.6-30.6 21.8-51.1 22.3 0-2.5-0.3-4.7 0.2-6.7 0.2-0.8 2.1-1.8 3.3-1.8 8.5-0.2 16.7-1.5 24.4-5.1 14.1-6.5 21.5-17.6 22.1-33.2 0-1.2-0.1-2.5-0.2-3.7-5.8 0.7-11.3 1.7-16.9 1.9-4 0.2-8.2-0.1-12.1-1-11.5-2.6-19.1-12.1-21.1-25.4-2.7-18.4 3.7-34.1 14.8-48.3 13.7-17.5 31-31.2 48.9-44 0.8-0.6 2.6-0.8 3.3-0.3 20.9 15.1 41.3 30.8 55.5 53 5.5 8.7 8.6 18.3 9.4 28.5 0.6 8.5-1 16.7-5.2 24.2-4.9 8.9-13 13-22.7 13.2-6.5 0.2-12.9-1-19.4-1.5-1-0.1-2-0.4-3.4-0.6-0.9 13.2 3.2 23.9 13.3 32 8.6 6.9 18.8 9.3 29.5 10.2 2.2 0.2 4.4 0.2 6.7 0.3v7.9c-30.4 1.8-54.5-14.5-57.6-40.1-0.9-6.9-0.1-14 0-21.3z" p-id="1591"></path><path d="M131.4 555.3c8 11.9 20.6 13 33.6 13.8v7.8c-20.9 4.8-46.9-13.7-45-31.8 6.7 0.2 13.5 1 20.1 0.4 16.6-1.6 27.6-13.1 29.9-30 2.6-18.9-3.7-35.1-14.7-49.8-11.9-15.9-27-28.6-42.8-40.4-3.4-2.6-6.9-5.1-10.6-7.4-0.9-0.6-2.8-0.7-3.6-0.1-21.3 14.8-41.7 30.7-56.6 52.4-9.4 13.7-14.1 28.7-11.6 45.6 2.7 18.8 15.5 30.1 34.6 30.1 5.1 0 10.2-0.5 15.3-0.8 3 17.3-21.6 35.1-45 31.9v-7.9c13-0.8 25.8-1.8 34.3-14.4-1.2-0.2-1.8-0.4-2.4-0.4-35.1 0.6-45.7-25.4-45.7-47.5 0-18.2 7-34 18.3-48.1 16.5-20.6 37-36.6 58.7-51.3 0.9-0.6 2.8-0.7 3.7-0.1 24.2 16.4 47.4 34 64.1 58.5 11.3 16.6 16.3 35 11.6 55.1-4.9 21.1-19.5 32.7-41.2 33.2H132c-0.4 0.5-0.5 0.9-0.6 1.2zM243.6 472.3c-2.5-8.3-6.1-19.5-20.6-19.5-10.7 0-16.1 6.7-16.1 16 0 12 9.1 16.7 18.8 21.4 6.6 3.1 24.9 9.3 24.9 27.1 0 14.8-11.9 25.5-30.7 25.8-6.1-0.3-11.3-1.1-15.1-2.3-3.6-1.1-5.5-2.1-6.4-2.7-1.2-3.7-2.7-14-3.6-22.5h2.4c2.4 7.7 8.8 23.8 26.2 23.8 11.5 0 18.5-6 18.5-18.5 0-14.4-12.2-19.3-20.1-23.5-1.3-0.7-23.3-7.4-23.3-24.8 0-11.8 10.1-23 27.7-23 4.9 0 9.2 0.4 17.4 3 0.6 4.8 1.3 10.1 2.4 19.8h-2.4zM259.8 573.7c8.6-0.6 11.2-2.4 11.2-11.7v-64.2c0-9.6-0.6-10-10.4-11.6v-1.9c4.8-0.7 12.7-3.3 17.6-5.8v10.3l17.9-7.4c2.4-0.9 4.2-1.4 6-1.4 16.8 0 26.7 12.3 26.7 24.5 0 21.5-18.2 35.1-40.7 37.9-4.3-0.3-8.2-1.9-9.8-3.1v20.8c0 11.1 2.1 13 14.9 13.5v1.7H260v-1.6z m18.3-44.2c3.3 3.7 9.2 6.4 16.8 6.4 12.8 0 25.2-8.4 25.2-26.1 0-13.5-7.9-24-23.9-24-5.7 0-13.6 3.1-18.2 6.6v37.1zM383.8 542.5c-0.3 0-3.3-1.1-4.8-2.6-1.8-1.9-2.4-3.6-3.3-6.7-5.8 4.3-12.5 9.3-18 9.3-10.3 0-17.3-7.4-17.3-16.3 0-6.4 4.6-11 14.9-14 7.6-2.1 17-5.6 20.4-7.6 0-7-0.1-19.4-13.6-19.4-2.4 0.1-10.4 0.7-13 12.1-0.3 1-1.2 2.4-3.3 2.4-2.1 0-4.5-2-4.5-4.9 0-2.1 1.8-3.8 4.2-5.1 3.7-2.4 13.7-8.3 21-9.8 7.3 0 16.5 4.6 16.5 17.1v30.7c0 5.8 2.2 8.1 5.4 8.1 2.5 0 4.9-0.9 6.6-1.9l1.3 2.4-12.5 6.2z m-8-34.2c-3.1 1.7-12.5 5.1-15.8 6.4-6.7 2.4-10.7 5.1-10.7 10.4 0 7.4 6.3 11.3 11.6 11.3 5.1 0 11.8-3.6 14.9-7.3v-20.8zM442.9 447.4c7.8-1 16.8-3.4 19.8-4.8v83.9c0 7 1.8 8.4 6.7 9l5.4 0.4v1.7c-3.3 0.6-12.4 2.3-19.2 5v-10.1l-8.6 4.6c-8.6 4.4-13.6 5.6-15.4 5.6-12.8 0-28.3-10.3-28.3-28.7-0.3-18.7 16.5-33.8 39.2-33.8 3.3 0 9.1 0.4 13.1 1.6v-21.1c0-9.7-1.2-10.1-12.7-11.3v-2z m12.6 44.2c-4.3-5.1-11.8-7.4-19.7-7.4-9.5 0-24 5.1-24 25.8 0 16.3 11.2 26.1 24.4 26.1 8.9-0.1 15.2-4.7 19.2-7.7v-36.8zM532.3 530.1c-8.8 9.7-18.9 12.4-22.4 12.4-17.6 0-28.5-13.4-28.5-28.5 0-21 17.9-33.9 30-33.9 12.8 0 22.1 10 22.1 20.1 0 2.9-0.1 3.3-2.5 3.7-2.4 0.4-21.5 2-42 2.6-0.1 21.7 13.4 29.4 23.7 29.4 5.1 0 10.4-1 18-7.8l1.6 2z m-42.5-28.3c3.4 0 24.4-0.3 30.9-0.4 3.7 0 3.7-1.4 3.7-2.3 0-8-6.3-15.1-17-15.1-7.4 0-15.3 6.3-17.6 17.8zM587.9 488.1c3 3 5.1 7.8 5.1 12.1 0 15-14 22.1-24.6 22.1-1.5 0-3.1-0.1-5.4-0.4-3.7 1.3-8.6 4.3-8.6 7.3 0 2.7 3.4 5.3 9.2 5.3 6.3 0 12.1-0.6 17.7-0.6 10.3 0 20.9 2.9 20.9 16 0 13-16.2 27.2-35.8 27.2-16.4 0-25.3-9.1-25.3-18.3 0-3.6 1.5-6.1 3-8.3 3-3.3 9.8-7.8 13.1-10.4-6.1-1.3-13-6.3-12.4-12.3 4.6-1.3 11.6-5.1 13.9-7.4-6.7-2.1-13.6-9-13.6-17.3 0-19.4 22.5-28.7 37.4-19.7 7.6-0.6 13.4-1.3 20-2.4l0.9 1.1c-1.8 1.9-4.6 5-6.7 5.8h-8.8z m-38.3 67.8c0 9 8.6 16.3 21.2 16.3 16.8 0 24.6-8.8 24.6-18.8 0-4.6-2.4-8.6-6.3-10.6-4.2-2.3-9.2-2.4-17.4-2.4-21.3-0.1-22.1 13.1-22.1 15.5z m4.8-56.8c0 13.3 6.9 20.4 16.1 20.4 6.7 0 13.4-4.6 13.4-16.7 0-12.8-5.4-20.1-15.5-20.1-8.2 0.2-14 5.7-14 16.4zM652.9 542.5c-0.3 0-3.3-1.1-4.8-2.6-1.8-1.9-2.4-3.6-3.3-6.7-5.8 4.3-12.5 9.3-18 9.3-10.3 0-17.3-7.4-17.3-16.3 0-6.4 4.6-11 14.9-14 7.6-2.1 17-5.6 20.4-7.6 0-7-0.1-19.4-13.6-19.4-2.4 0.1-10.4 0.7-13 12.1-0.3 1-1.2 2.4-3.3 2.4s-4.5-2-4.5-4.9c0-2.1 1.8-3.8 4.2-5.1 3.7-2.4 13.7-8.3 21-9.8 7.3 0 16.5 4.6 16.5 17.1v30.7c0 5.8 2.2 8.1 5.4 8.1 2.5 0 4.9-0.9 6.6-1.9l1.3 2.4-12.5 6.2z m-8-34.2c-3.1 1.7-12.5 5.1-15.8 6.4-6.7 2.4-10.7 5.1-10.7 10.4 0 7.4 6.3 11.3 11.6 11.3 5.1 0 11.8-3.6 14.9-7.3v-20.8zM668.6 538.9c10.7-0.7 12.7-2.7 12.7-11.7v-28.1c0-9.6-0.6-10.1-9.8-11.8v-1.9c6.3-1.3 12.4-2.7 17.1-6V491c15.4-10.3 19.4-11 23.7-11 5.5 0 12.7 4 15.7 11.6 17.4-11.1 21.8-11.6 24.7-11.6 10.9 0 18 7.3 18 17.3v29.2c0 10.4 1.5 11.8 10.4 12.4v2h-30.3v-2c10.4-0.6 12.7-2.4 12.7-12.7V504c0-9-2.4-17.7-15.5-17.7-6.3 0.3-13 4-18.9 8.3 0.1 2 0.4 3.6 0.4 4.4v27.5c0 9.7 1.6 11.8 10.4 12.4v2h-30.6v-2c11.2-0.6 13-2.7 13-12.4v-23.1c0-9.3-2.8-17.1-15.8-17.1-7 0-13.4 5-18.2 8.4v31.8c0 9.7 1.5 11.8 9.7 12.4v2h-29.5v-2zM788.5 538.9c9.5-0.7 11-2.6 11-10.8v-29.7c0-9.1-1-9.8-9.5-11.3v-1.9c6.3-1.3 11-2.9 16.7-5.7V528c0 8.3 1.5 10.1 11.2 10.8v2h-29.4v-1.9z m20.4-84.7c0 3-2.5 5.7-5.7 5.7-3 0-5.7-2.7-5.7-5.7 0-3.4 2.7-6 5.7-6 3.4 0 5.7 3 5.7 6zM824.4 538.9c8.6-0.6 11-2.7 11-11.3V499c0-9.6-1-10.1-9.4-11.7v-1.9c6-1.4 11.9-2.7 16.5-6v11.8c3-1.7 6.7-4.3 11.3-7.3 4.2-2.4 7.9-4 12.1-4 12.4 0 19.4 7.3 19.4 18.5v28.4c0 10 1.3 11.4 9.7 12v2h-28.8v-2c10.1-0.6 11.9-2.6 11.9-12v-23.4c0-8.1-2.4-17.3-16.1-17.3-7.3 0-14.9 4.3-19.5 8.7v32.1c0 9.1 1.5 11.3 11.8 11.8v2h-30v-1.8zM949 488.1c3 3 5.1 7.8 5.1 12.1 0 15-14 22.1-24.6 22.1-1.5 0-3.1-0.1-5.4-0.4-3.7 1.3-8.6 4.3-8.6 7.3 0 2.7 3.4 5.3 9.2 5.3 6.3 0 12.1-0.6 17.7-0.6 10.3 0 20.9 2.9 20.9 16 0 13-16.2 27.2-35.8 27.2-16.4 0-25.3-9.1-25.3-18.3 0-3.6 1.5-6.1 3-8.3 3-3.3 9.8-7.8 13.1-10.4-6.1-1.3-13-6.3-12.4-12.3 4.6-1.3 11.6-5.1 13.9-7.4-6.7-2.1-13.6-9-13.6-17.3 0-19.4 22.5-28.7 37.4-19.7 7.6-0.6 13.4-1.3 20-2.4l0.9 1.1c-1.8 1.9-4.6 5-6.7 5.8H949z m-38.3 67.8c0 9 8.6 16.3 21.2 16.3 16.8 0 24.6-8.8 24.6-18.8 0-4.6-2.4-8.6-6.3-10.6-4.2-2.3-9.2-2.4-17.4-2.4-21.3-0.1-22.1 13.1-22.1 15.5z m4.8-56.8c0 13.3 6.9 20.4 16.1 20.4 6.7 0 13.4-4.6 13.4-16.7 0-12.8-5.4-20.1-15.5-20.1-8.2 0.2-14 5.7-14 16.4zM984.3 482.8v1h-5.1v12.8H978v-12.8h-5.1v-1h11.4zM988.5 482.8l5.4 12.4 5.4-12.4h1.6v13.8h-1.2v-11.9h-0.1l-5.2 11.9h-1.1l-5.2-11.9h-0.1v11.9h-1v-13.8h1.5z" p-id="1592"></path></svg>