<?xml version="1.0" standalone="no"?><!DOCTYPE svg PUBLIC "-//W3C//DTD SVG 1.1//EN" "http://www.w3.org/Graphics/SVG/1.1/DTD/svg11.dtd"><svg t="1574996471780" class="icon" viewBox="0 0 1024 1024" version="1.1" xmlns="http://www.w3.org/2000/svg" p-id="4502" xmlns:xlink="http://www.w3.org/1999/xlink" width="200" height="200"><defs><style type="text/css"></style></defs><path d="M339.3 479.2c-12.1 13.7-27.8 26.9-46.6 37.8-9.2 54.1-56.2 95.3-113 95.3-56.4 0-103.3-40.8-112.8-94.5-4.1-2.4-8.2-4.8-12.1-7.5-12.7-8.5-24.5-18.6-34.7-30.2-0.6 5.8-1 11.6-1 17.6 0 88.7 71.9 160.7 160.7 160.7 88.7 0 160.7-71.9 160.7-160.7-0.2-6.3-0.5-12.5-1.2-18.5z" p-id="4503"></path><path d="M179.7 337C103 337 38.9 390.7 22.9 462.6c0.6 0.7 1.3 1.4 2 2.1 10.8 11.1 24.3 21.8 40.2 30.9 1.1-62.3 52-112.5 114.6-112.5 62.4 0 113.2 49.9 114.6 112.1 14-8.1 27.3-18 39-29.7 1.1-1.1 2.1-2.2 3.2-3.3C320.2 390.5 256.2 337 179.7 337z" p-id="4504"></path><path d="M179.7 393.5c-57.5 0-104.2 46.6-104.2 104.2s46.6 104.2 104.2 104.2c57.5 0 104.2-46.6 104.2-104.2s-46.7-104.2-104.2-104.2z m-82.2 68.9c1.7-4.1 3.8-7.9 6-11.6 27.3-3.3 66.3-4.5 91.9 10 43 24.3 25.3 41.3 4.5 43.6-20.8 2.3-38.3-13-65.5 8.5-16 12.6-8.5 40.9 0.4 62-38.7-22.3-55.3-70.5-37.3-112.5z m170.8 47.7l-0.6 3.9c0 0.2-0.1 0.3-0.1 0.5-0.2 1.1-0.5 2.3-0.7 3.4-0.1 0.3-0.1 0.7-0.2 1-0.2 1-0.5 1.9-0.8 2.9-0.1 0.5-0.3 1-0.4 1.5-0.2 0.8-0.5 1.6-0.8 2.4-0.2 0.7-0.5 1.4-0.7 2-0.2 0.6-0.5 1.3-0.7 1.9-0.3 0.8-0.6 1.7-1 2.5l-0.6 1.5-1.2 2.7c-0.2 0.4-0.4 0.9-0.6 1.3-0.5 0.9-0.9 1.8-1.4 2.7l-0.6 1.2c-0.5 0.9-1.1 1.9-1.6 2.8-0.2 0.3-0.4 0.7-0.6 1-0.6 1-1.3 1.9-1.9 2.9-0.2 0.2-0.3 0.5-0.5 0.7-0.8 1.1-1.5 2.2-2.3 3.2-0.1 0.1-0.1 0.2-0.2 0.2-24.3 31.5-67.7 43.9-106 27.4-0.8-0.3-1.6-0.7-2.3-1.1-3-17.4-3.5-40.3 11.6-50.2 26.1-17.1 48 10.8 80.8-1.1 32.8-12 17.9-76.1-44.4-91.2-29.1-7.1-56.8-3.1-78.2 3.1 0.9-1 1.7-2 2.6-2.9 0.9-0.9 1.8-1.9 2.7-2.8l0.6-0.6c0.9-0.9 1.8-1.7 2.8-2.6 0.1-0.1 0.3-0.3 0.5-0.4 3-2.6 6.1-4.9 9.3-7 0.3-0.2 0.7-0.5 1-0.7 0.9-0.6 1.8-1.1 2.7-1.7 0.5-0.3 1.1-0.6 1.7-0.9 0.8-0.5 1.7-0.9 2.5-1.4 1.4-0.7 2.7-1.4 4.1-2l1.5-0.6c1.2-0.5 2.3-1 3.5-1.4 0.6-0.2 1.2-0.4 1.8-0.7 0.8-0.3 1.6-0.6 2.4-0.8l1.8-0.6c0.9-0.3 1.7-0.5 2.6-0.7 0.5-0.2 1.1-0.3 1.7-0.4l2.7-0.6 1.5-0.3c1-0.2 2-0.4 2.9-0.5 0.4-0.1 0.9-0.2 1.3-0.2 1.1-0.2 2.2-0.3 3.3-0.4 0.3 0 0.6-0.1 1-0.1 1.3-0.1 2.5-0.2 3.8-0.3h0.5c38-2.1 74.6 20.5 88.7 58.1 5 14.1 6.5 29.1 4.5 43.4zM419.5 399.9c0.8-4.5 1.4-9.1 2.4-13.6 0.4-1.9-0.1-3-1.4-4.2-3.2-2.9-6.2-5.9-9.3-9-2.1-2.1-1.7-3.5 1.2-4 4.2-0.8 8.6-1.1 12.8-2 1.3-0.3 2.9-1.4 3.5-2.6 2.1-3.6 3.8-7.5 5.8-11.2 0.4-0.8 1.5-1.9 2.2-1.9 0.8 0 1.8 1.1 2.2 1.9 1.9 3.5 3.8 7.1 5.4 10.7 0.9 2.2 2.3 3 4.5 3.2 3.9 0.4 7.8 1 11.6 1.6 1 0.2 2.5 0.9 2.6 1.5 0.1 0.9-0.5 2.3-1.3 3-3 3.1-6.2 6-9.2 9.1-0.7 0.8-1.1 2.3-1 3.3 0.6 4.4 1.5 8.7 2.1 13.1 0.1 1-0.3 2.4-1 3.1-0.4 0.4-2-0.2-2.9-0.7-4-2-8-4.2-12-6.2-0.7-0.4-2-0.3-2.7 0.1-4.1 2.1-8.1 4.3-12.2 6.5-1.8 1.4-3.3 0.7-3.3-1.7zM764.9 399.9c0.8-4.7 1.7-9.4 2.3-14 0.1-1.1-0.3-2.6-1-3.3-3.2-3.3-6.6-6.5-9.9-9.7-1.9-1.8-1.6-3.1 1-3.7 4.1-0.8 8.3-1.4 12.5-1.9 2.3-0.3 3.8-1.1 4.8-3.4 1.5-3.5 3.3-6.9 5.1-10.2 0.6-1 1.6-2.1 2.6-2.3 0.6-0.1 1.8 1.3 2.3 2.2 1.8 3.3 3.6 6.7 5.1 10.2 1 2.4 2.6 3.3 5 3.5 3.9 0.4 7.8 1 11.6 1.7 1 0.2 2.3 0.8 2.6 1.5 0.3 0.6-0.6 1.9-1.3 2.6-2.9 3-5.9 6-9 8.8-1.4 1.3-1.9 2.4-1.5 4.4 0.9 4.1 1.6 8.3 2.1 12.4 0.1 1-0.5 2.2-0.7 3.3-1.1-0.3-2.2-0.3-3.2-0.8-3.9-2-7.8-4.2-11.8-6-0.9-0.4-2.3-0.3-3.2 0.2-4 2-7.9 4.2-11.9 6.4-2 1.2-3.5 0.4-3.5-1.9zM581.3 370.7c1.3-0.5 2.1-1.1 3-1.2 3.8-0.6 7.7-1.4 11.6-1.7 2.7-0.2 4.4-1.3 5.4-3.8 1.5-3.6 3.3-7.1 5.2-10.5 0.4-0.8 1.4-1.8 2-1.8 0.7 0 1.6 1 2 1.8 1.9 3.7 3.8 7.5 5.6 11.3 0.9 1.8 2.2 2.6 4.2 2.9 4.2 0.5 8.3 1.1 12.5 1.8 1 0.2 1.9 0.7 3.4 1.3-4.1 4-7.7 7.7-11.5 11.3-1.5 1.4-1.9 2.7-1.4 4.8 0.9 4 1.6 8.1 2.2 12.1 0.1 0.9-0.5 2-0.8 3-0.9-0.3-1.8-0.4-2.6-0.8-4-2.1-8-4.2-12-6.2-0.8-0.4-2-0.4-2.8 0-4.1 2-8.2 4.3-12.3 6.4-0.7 0.4-2.2 0.9-2.3 0.7-0.5-0.8-1.1-2-1-2.9 0.6-4.1 1.3-8.1 2.2-12.1 0.4-2 0.2-3.4-1.4-4.8-3.1-2.9-6-5.9-8.9-8.9-0.8-0.8-1.4-1.6-2.3-2.7zM364.2 621.1h-7.3v-6.9h21.4v6.9H371v38.5h-6.9v-38.5zM394.6 614.2c3.8 0 6.6 1.1 8.4 3.2 1.6 1.8 2.4 4.4 2.4 7.7v6.6c0 3.2-1.2 5.9-3.7 8.2l5.1 19.8h-7.4l-4.2-17.1h-4.6v17.1h-6.9v-45.4h10.9z m4.1 11c0-2.6-1.3-4-3.9-4h-4.1v14.5h4.1c1.1 0 2-0.4 2.8-1.2 0.8-0.8 1.1-1.7 1.1-2.8v-6.5zM419.5 659.7h-6.9v-45.4h6.9v45.4zM436.4 614.2c3.3 0 6 1.1 8 3.2 1.8 2 2.8 4.6 2.8 7.7v6.6c0 3-1 5.6-3.1 7.7-2.1 2.1-4.6 3.2-7.6 3.2h-4v17.1h-6.9v-45.4h10.8z m4.1 11c0-1.2-0.4-2.1-1.1-2.9-0.7-0.7-1.7-1.1-2.8-1.1h-4.1v14.5h4.1c1.1 0 2-0.4 2.8-1.2 0.8-0.8 1.1-1.7 1.1-2.8v-6.5zM471.3 659.7h-18.7v-45.4h6.9v38.6h11.8v6.8zM476 659.7v-45.5h19.5v6.9h-12.7v12.4h9.2v6.9h-9.2v12.4h12.7v6.9H476zM535 614.2c3.3 0 6 1.1 8 3.2 1.8 2 2.8 4.6 2.8 7.7v6.6c0 3-1 5.6-3.1 7.7-2.1 2.1-4.6 3.2-7.6 3.2h-4v17.1h-6.9v-45.4H535z m4.1 11c0-1.2-0.4-2.1-1.1-2.9-0.7-0.7-1.7-1.1-2.8-1.1h-4.1v14.5h4.1c1.1 0 2-0.4 2.8-1.2 0.8-0.8 1.1-1.7 1.1-2.8v-6.5zM562 614.2c3.8 0 6.6 1.1 8.4 3.2 1.6 1.8 2.4 4.4 2.4 7.7v6.6c0 3.2-1.2 5.9-3.7 8.2l5.1 19.8h-7.4l-4.2-17.1H558v17.1h-6.9v-45.4H562z m4.1 11c0-2.6-1.3-4-3.9-4h-4.1v14.5h4.1c1.1 0 2-0.4 2.8-1.2 0.8-0.8 1.1-1.7 1.1-2.8v-6.5zM589.8 613.7c3 0 5.6 1.1 7.7 3.2 2.1 2.1 3.2 4.7 3.2 7.7v24.8c0 3-1.1 5.6-3.2 7.7-2.1 2.1-4.7 3.2-7.7 3.2s-5.6-1.1-7.7-3.2c-2.1-2.1-3.2-4.7-3.2-7.7v-24.8c0-3 1.1-5.6 3.2-7.7 2.2-2.2 4.7-3.2 7.7-3.2z m3.7 10.7c0-1.1-0.4-2-1.1-2.8s-1.7-1.1-2.8-1.1c-1.1 0-2 0.4-2.8 1.1-0.8 0.8-1.2 1.7-1.2 2.8v24.9c0 1.1 0.4 2 1.2 2.8 0.8 0.8 1.7 1.1 2.8 1.1 1.1 0 2-0.4 2.8-1.1s1.1-1.7 1.1-2.8v-24.9zM613.5 659.7h-6.9v-45.5h19.5v6.9h-12.7v12.4h9.2v6.9h-9.2v19.3zM637.8 659.7h-6.9v-45.4h6.9v45.4zM650.6 621.1h-7.3v-6.9h21.4v6.9h-7.3v38.5h-6.9v-38.5zM692 648.4c0 3.2-0.8 5.9-2.5 8.1-1.1 1.5-2.7 2.6-4.7 3.2-1.1 0.3-2.4 0.5-3.8 0.5-2.7 0-4.9-0.7-6.7-2-1.5-1.1-2.6-2.6-3.5-4.4-0.9-1.9-1.4-4-1.5-6.4l6.5-0.5c0.3 2.6 1 4.6 2.1 5.8 0.8 0.9 1.8 1.3 2.8 1.3 1.5 0 2.7-0.8 3.6-2.2 0.5-0.7 0.7-1.7 0.7-3 0-1.9-0.9-3.8-2.6-5.6-1.4-1.3-3.4-3.2-6.1-5.8-2.3-2.2-3.9-4.2-4.8-5.9-1-2-1.5-4.1-1.5-6.4 0-4.1 1.4-7.3 4.2-9.4 1.7-1.3 3.8-1.9 6.4-1.9 2.4 0 4.5 0.5 6.3 1.6 1.4 0.8 2.4 2 3.3 3.6 0.8 1.5 1.3 3.3 1.5 5.3l-6.6 1.2c-0.2-1.9-0.7-3.3-1.6-4.4-0.6-0.7-1.5-1.1-2.7-1.1-1.3 0-2.2 0.6-2.9 1.7-0.5 0.9-0.8 2-0.8 3.3 0 2.1 0.9 4.2 2.7 6.3 0.7 0.8 1.7 1.8 3 2.9 1.6 1.3 2.6 2.3 3.2 2.8 1.7 1.7 3 3.4 3.9 5 0.4 0.8 0.8 1.5 1.1 2.1 0.7 1.5 1 3 1 4.3zM730.1 660.3c-3 0-5.6-1.1-7.7-3.2-2.1-2.1-3.2-4.7-3.2-7.7v-24.8c0-3 1.1-5.6 3.2-7.7 2.1-2.1 4.7-3.2 7.7-3.2s5.6 1.1 7.7 3.2c2.1 2.1 3.2 4.7 3.2 7.7v5.2h-7.1v-5.3c0-1.1-0.4-2-1.2-2.8-0.8-0.8-1.7-1.2-2.8-1.2s-2 0.4-2.8 1.2c-0.8 0.8-1.1 1.7-1.1 2.8v24.9c0 1.1 0.4 2 1.1 2.8 0.8 0.8 1.7 1.1 2.8 1.1s2-0.4 2.8-1.1c0.8-0.8 1.2-1.7 1.2-2.8v-8.9H730v-6.9h10.9v15.9c0 3-1.1 5.6-3.2 7.7-2.1 2-4.7 3.1-7.6 3.1zM754.4 649.2l-1.7 10.4h-7.1l7.7-45.4h9.4l7.6 45.4h-7.2l-1.6-10.4h-7.1z m3.6-24.5l-2.5 17.9h5.1l-2.6-17.9zM783 659.7h-6.9v-45.5h9.8l6.4 32.7 6.1-32.7h9.4v45.5h-6.9v-28.6l-5.9 28.6h-5.5l-6.6-28.5v28.5zM814.1 659.7v-45.5h19.5v6.9h-12.7v12.4h9.2v6.9h-9.2v12.4h12.7v6.9h-19.5zM861 648.4c0 3.2-0.8 5.9-2.5 8.1-1.1 1.5-2.7 2.6-4.7 3.2-1.1 0.3-2.4 0.5-3.8 0.5-2.7 0-4.9-0.7-6.7-2-1.5-1.1-2.6-2.6-3.5-4.4-0.9-1.9-1.4-4-1.5-6.4l6.5-0.5c0.3 2.6 1 4.6 2.1 5.8 0.8 0.9 1.8 1.3 2.8 1.3 1.5 0 2.7-0.8 3.6-2.2 0.5-0.7 0.7-1.7 0.7-3 0-1.9-0.9-3.8-2.6-5.6-1.4-1.3-3.4-3.2-6.1-5.8-2.3-2.2-3.9-4.2-4.8-5.9-1-2-1.5-4.1-1.5-6.4 0-4.1 1.4-7.3 4.2-9.4 1.7-1.3 3.8-1.9 6.4-1.9 2.4 0 4.5 0.5 6.3 1.6 1.4 0.8 2.4 2 3.3 3.6 0.8 1.5 1.3 3.3 1.5 5.3l-6.6 1.2c-0.2-1.9-0.7-3.3-1.6-4.4-0.6-0.7-1.5-1.1-2.7-1.1-1.3 0-2.2 0.6-2.9 1.7-0.5 0.9-0.8 2-0.8 3.3 0 2.1 0.9 4.2 2.7 6.3 0.7 0.8 1.7 1.8 3 2.9 1.6 1.3 2.6 2.3 3.2 2.8 1.7 1.7 3 3.4 3.9 5 0.4 0.8 0.8 1.5 1.1 2.1 0.6 1.5 0.9 3 1 4.3zM516.2 415.4H383.7c-14.8 0-26.8 12-26.8 26.8 0 32 0.1 85.2 0 116.7 0 7.8 2 15.1 5.8 21.7 6.2 10.6 15.5 16.5 28 16.5h125.5V415.4z m-18.1 67.7h-47.3v75.7h-29v-75.7h-46.9v-26.9h123.2v26.9zM529.4 415.4V597h158.5V415.4H529.4z m136.8 92.2c-0.3 2.3-1 4.4-2.2 6.2-1.2 1.8-3.3 3.3-6.3 4.4h-80v38.9h-26.5v-63.8h82c1.8 0 2.9-0.7 3.3-2 0.4-1.4 0.6-2.7 0.6-4.1 0-1.5-0.2-2.7-0.7-3.5-0.5-0.8-1.5-1.6-3-2.2h-82.2v-26.9h106.5c1.8 0.4 3.1 0.9 4.1 1.5 0.9 0.6 1.7 1.3 2.2 2.1 0.5 0.8 0.9 1.6 1.2 2.4 0.3 0.8 0.6 1.6 1 2.4v44.6zM806.2 415.4H703.1V597h103.1c30.2 0 54.7-24.5 54.7-54.7v-72.1c0.1-30.3-24.4-54.8-54.7-54.8z m39.4 65.9h-98.5v47.9H815c0.4-0.3 0.7-0.9 1-1.8 0.3-0.9 0.5-1.9 0.6-2.9 0-3.4-1.5-5.6-4.5-6.5H766v-24.7h66.9c2.6 0 4.7 0.8 6.3 2.3 1.6 1.6 2.9 3.5 3.9 5.8 0.9 2.3 1.6 4.9 1.9 7.6 0.3 2.8 0.5 5.5 0.5 8.1v23.5c0 1.8-0.4 3.6-1.3 5.5s-2.1 3.7-3.6 5.3c-1.5 1.6-3.2 3-5.1 4.1-1.9 1.1-3.8 1.6-5.7 1.6h-95c-1.6 0-3.4-0.6-5.3-1.7-1.9-1.2-3.7-2.5-5.3-4.2s-3-3.4-4.1-5.3c-1.1-1.9-1.6-3.7-1.6-5.3v-69.5c0-1.6 0.5-3.4 1.6-5.3s2.4-3.7 4.1-5.3c1.6-1.6 3.4-3 5.3-4.2 1.9-1.2 3.7-1.7 5.3-1.7h94.4c1.6 0 3.4 0.5 5.3 1.6s3.7 2.4 5.3 4.1c1.6 1.6 3 3.4 4.1 5.4 1.1 2 1.6 3.8 1.6 5.4v10.2zM927.1 515.7c0.2 0.4 0.7 1.1 1.7 1.4 1 0.3 1.8 0 2.2-0.2 0.4-0.2 1.1-0.7 1.4-1.7l14.5-44.8c-1.3-2.1-2.6-4.2-4-6.1L927 513.5c-0.4 1-0.1 1.8 0.1 2.2z" p-id="4505"></path><path d="M955.2 489.7l-7 21.6c0.1 0.8 0.3 1.6 0.3 2.5 0 10.3-8.3 18.6-18.6 18.6s-18.6-8.3-18.6-18.6c0-4.9 1.9-9.3 5-12.6l15.9-49.1c-6.9-6.5-14.8-11.8-23.5-15.7-15.9-7.1-33.9 4.4-33.9 21.8V576c0 12 11.5 20.8 23.1 17.5 35-10 60.6-42.3 60.6-80.5 0-8.1-1.2-15.9-3.3-23.3z" p-id="4506"></path><path d="M965.7 402.8c-3.2-1.1-6.2-2.6-8.8-4.5l-36.6 113c-1.7 5.1 1.2 10.7 6.3 12.3 5.1 1.7 10.7-1.2 12.3-6.3l36.6-113c-3.3 0.1-6.6-0.4-9.8-1.5z" p-id="4507"></path><path d="M975.6 372.1m-25.4 0a25.4 25.4 0 1 0 50.8 0 25.4 25.4 0 1 0-50.8 0Z" p-id="4508"></path></svg>