<?xml version="1.0" standalone="no"?><!DOCTYPE svg PUBLIC "-//W3C//DTD SVG 1.1//EN" "http://www.w3.org/Graphics/SVG/1.1/DTD/svg11.dtd"><svg t="1574758787848" class="icon" viewBox="0 0 1024 1024" version="1.1" xmlns="http://www.w3.org/2000/svg" p-id="3576" xmlns:xlink="http://www.w3.org/1999/xlink" width="200" height="200"><defs><style type="text/css"></style></defs><path d="M516.1 325.7m-16.5 0a16.5 16.5 0 1 0 33 0 16.5 16.5 0 1 0-33 0Z" p-id="3577"></path><path d="M516.1 254.5m-16.5 0a16.5 16.5 0 1 0 33 0 16.5 16.5 0 1 0-33 0Z" p-id="3578"></path><path d="M516.1 395.8m-16.5 0a16.5 16.5 0 1 0 33 0 16.5 16.5 0 1 0-33 0Z" p-id="3579"></path><path d="M586.8 325.2m-16.5 0a16.5 16.5 0 1 0 33 0 16.5 16.5 0 1 0-33 0Z" p-id="3580"></path><path d="M445.5 325.2m-16.5 0a16.5 16.5 0 1 0 33 0 16.5 16.5 0 1 0-33 0Z" p-id="3581"></path><path d="M466.2 275.2m-16.5 0a16.5 16.5 0 1 0 33 0 16.5 16.5 0 1 0-33 0Z" p-id="3582"></path><path d="M566.1 375.1m-16.5 0a16.5 16.5 0 1 0 33 0 16.5 16.5 0 1 0-33 0Z" p-id="3583"></path><path d="M566.1 275.2m-16.5 0a16.5 16.5 0 1 0 33 0 16.5 16.5 0 1 0-33 0Z" p-id="3584"></path><path d="M466.2 375.1m-16.5 0a16.5 16.5 0 1 0 33 0 16.5 16.5 0 1 0-33 0Z" p-id="3585"></path><path d="M516.1 187.5m-16.5 0a16.5 16.5 0 1 0 33 0 16.5 16.5 0 1 0-33 0Z" p-id="3586"></path><path d="M516.1 120.5m-16.5 0a16.5 16.5 0 1 0 33 0 16.5 16.5 0 1 0-33 0Z" p-id="3587"></path><path d="M516.1 463.9m-16.5 0a16.5 16.5 0 1 0 33 0 16.5 16.5 0 1 0-33 0Z" p-id="3588"></path><path d="M378 325.7m-16.5 0a16.5 16.5 0 1 0 33 0 16.5 16.5 0 1 0-33 0Z" p-id="3589"></path><path d="M654.3 325.7m-16.5 0a16.5 16.5 0 1 0 33 0 16.5 16.5 0 1 0-33 0Z" p-id="3590"></path><path d="M613.8 228m-16.5 0a16.5 16.5 0 1 0 33 0 16.5 16.5 0 1 0-33 0Z" p-id="3591"></path><path d="M418.4 423.4m-16.5 0a16.5 16.5 0 1 0 33 0 16.5 16.5 0 1 0-33 0Z" p-id="3592"></path><path d="M418.4 228m-16.5 0a16.5 16.5 0 1 0 33 0 16.5 16.5 0 1 0-33 0Z" p-id="3593"></path><path d="M613.8 423.4m-16.5 0a16.5 16.5 0 1 0 33 0 16.5 16.5 0 1 0-33 0Z" p-id="3594"></path><path d="M569 198m-16.5 0a16.5 16.5 0 1 0 33 0 16.5 16.5 0 1 0-33 0Z" p-id="3595"></path><path d="M463.3 453.3m-16.5 0a16.5 16.5 0 1 0 33 0 16.5 16.5 0 1 0-33 0Z" p-id="3596"></path><path d="M388.5 272.8m-16.5 0a16.5 16.5 0 1 0 33 0 16.5 16.5 0 1 0-33 0Z" p-id="3597"></path><path d="M643.8 378.6m-16.5 0a16.5 16.5 0 1 0 33 0 16.5 16.5 0 1 0-33 0Z" p-id="3598"></path><path d="M463.3 198m-16.5 0a16.5 16.5 0 1 0 33 0 16.5 16.5 0 1 0-33 0Z" p-id="3599"></path><path d="M569 453.3m-16.5 0a16.5 16.5 0 1 0 33 0 16.5 16.5 0 1 0-33 0Z" p-id="3600"></path><path d="M388.5 378.6m-16.5 0a16.5 16.5 0 1 0 33 0 16.5 16.5 0 1 0-33 0Z" p-id="3601"></path><path d="M643.8 272.8m-16.5 0a16.5 16.5 0 1 0 33 0 16.5 16.5 0 1 0-33 0Z" p-id="3602"></path><path d="M516.1 533.5m-16.5 0a16.5 16.5 0 1 0 33 0 16.5 16.5 0 1 0-33 0Z" p-id="3603"></path><path d="M706.75657 331.549652a16.5 16.5 0 1 0 31.709702-9.137549 16.5 16.5 0 1 0-31.709702 9.137549Z" p-id="3604"></path><path d="M293.761088 331.567653a16.5 16.5 0 1 0 31.709702-9.137548 16.5 16.5 0 1 0-31.709702 9.137548Z" p-id="3605"></path><path d="M370.1 181m-16.5 0a16.5 16.5 0 1 0 33 0 16.5 16.5 0 1 0-33 0Z" p-id="3606"></path><path d="M662.1 473m-16.5 0a16.5 16.5 0 1 0 33 0 16.5 16.5 0 1 0-33 0Z" p-id="3607"></path><path d="M651.496782 193.605713a16.5 16.5 0 1 0 21.257842-25.240923 16.5 16.5 0 1 0-21.257842 25.240923Z" p-id="3608"></path><path d="M359.498116 485.598579a16.5 16.5 0 1 0 21.257842-25.240922 16.5 16.5 0 1 0-21.257842 25.240922Z" p-id="3609"></path><path d="M337.3 223.7m-16.5 0a16.5 16.5 0 1 0 33 0 16.5 16.5 0 1 0-33 0Z" p-id="3610"></path><path d="M695 430.2m-16.5 0a16.5 16.5 0 1 0 33 0 16.5 16.5 0 1 0-33 0Z" p-id="3611"></path><path d="M612.765634 163.220416a16.5 16.5 0 1 0 13.255838-30.220568 16.5 16.5 0 1 0-13.255838 30.220568Z" p-id="3612"></path><path d="M406.259919 520.84767a16.5 16.5 0 1 0 13.255838-30.220569 16.5 16.5 0 1 0-13.255838 30.220569Z" p-id="3613"></path><path d="M412.9 148.2m-16.5 0a16.5 16.5 0 1 0 33 0 16.5 16.5 0 1 0-33 0Z" p-id="3614"></path><path d="M619.4 505.8m-16.5 0a16.5 16.5 0 1 0 33 0 16.5 16.5 0 1 0-33 0Z" p-id="3615"></path><path d="M681.474417 233.141618a16.5 16.5 0 1 0 26.983366-18.997314 16.5 16.5 0 1 0-26.983366 18.997314Z" p-id="3616"></path><path d="M323.809784 439.67729a16.5 16.5 0 1 0 26.983366-18.997315 16.5 16.5 0 1 0-26.983366 18.997315Z" p-id="3617"></path><path d="M316.7 273.5m-16.5 0a16.5 16.5 0 1 0 33 0 16.5 16.5 0 1 0-33 0Z" p-id="3618"></path><path d="M715.6 380.4m-16.5 0a16.5 16.5 0 1 0 33 0 16.5 16.5 0 1 0-33 0Z" p-id="3619"></path><path d="M569.6 127.5m-16.5 0a16.5 16.5 0 1 0 33 0 16.5 16.5 0 1 0-33 0Z" p-id="3620"></path><path d="M462.7 526.4m-16.5 0a16.5 16.5 0 1 0 33 0 16.5 16.5 0 1 0-33 0Z" p-id="3621"></path><path d="M462.7 127.5m-16.5 0a16.5 16.5 0 1 0 33 0 16.5 16.5 0 1 0-33 0Z" p-id="3622"></path><path d="M569.6 526.4m-16.5 0a16.5 16.5 0 1 0 33 0 16.5 16.5 0 1 0-33 0Z" p-id="3623"></path><path d="M700.248006 279.550915a16.5 16.5 0 1 0 30.681776-12.150252 16.5 16.5 0 1 0-30.681776 12.150252Z" p-id="3624"></path><path d="M301.357038 386.460258a16.5 16.5 0 1 0 30.681776-12.150252 16.5 16.5 0 1 0-30.681776 12.150252Z" p-id="3625"></path><path d="M762.2 645.9c0-10.4 8.5-18.9 18.9-18.9 10.4 0 18.9 8.5 18.9 18.9 0 10.4-8.5 18.9-18.9 18.9-10.4 0-18.9-8.5-18.9-18.9zM762.3 699.6H800v193.8h-37.7zM453.3 757.6c-5-5-13.8-8.8-23.4-11.5v-63.5c0-15.3-5.4-28.4-16.3-39.3-10.9-10.9-24-16.3-39.3-16.3H198.2v266.4H414c10 0 19-2.4 27.1-7 4.4-2.5 8.4-5.5 12.2-9.3 10.9-10.9 16.3-24 16.3-39.3v-40.9c0-15.3-5.4-28.4-16.3-39.3z m-78.9-92.9c4.9 0 9.1 1.8 12.6 5.3s5.3 7.7 5.3 12.6v58.8H235.1l0.8-58.8c0-2.3 0.4-4.5 1.2-6.5 0.9-2.2 2.3-4.3 4.2-6.1 3.7-3.5 8-5.3 12.9-5.3h120.2z m-120.2 191c-4.9 0-9.2-1.8-12.9-5.3-3.7-3.5-5.5-7.7-5.5-12.6v-58.2h182c3.1 0.7 5.9 2.3 8.4 4.7 3.5 3.5 5.3 7.7 5.3 12.6v40.9c0 4.9-1.8 9.1-5.3 12.6s-7.7 5.3-12.6 5.3H254.2zM457 627v37.7h115.3v228.6h38.1V664.7h115.2V627z" p-id="3626"></path></svg>