<?xml version="1.0" standalone="no"?><!DOCTYPE svg PUBLIC "-//W3C//DTD SVG 1.1//EN" "http://www.w3.org/Graphics/SVG/1.1/DTD/svg11.dtd"><svg t="1574733613968" class="icon" viewBox="0 0 1024 1024" version="1.1" xmlns="http://www.w3.org/2000/svg" p-id="1068" xmlns:xlink="http://www.w3.org/1999/xlink" width="200" height="200"><defs><style type="text/css"></style></defs><path d="M432 277c5.9 2.5 11.9 5.1 17.8 7.6 28 11.7 42.8 33 43 62.9 0.4 101.8 0.1 203.6 0.1 305.3 0 28.3-11.3 50.6-36.8 63.9-8.8 4.6-19.4 7.7-29.3 7.8-114.7 0.5-229.4 0.6-344.1 0.2-24.5-0.1-41.3-14.6-54.5-33.8-2.2-3.2-4.6-6.1-6.9-9.2V323.2c1.4-1.5 3.3-2.8 4.1-4.6 8.4-17.8 22.4-29.3 40.6-36.1 4.3-1.6 8.5-3.6 12.7-5.4h196.5c-2 2.8-3.4 7.1-6.1 8.2-11.4 4.8-23.5 7.9-34.7 13-34.1 15.5-64.2 36.6-89.3 64.5-19.9 22.1-38.1 45.6-50.6 72.7-18.5 40.3-26.2 82.9-22 126.9 1.9 19.5 4.6 39.7 11.8 57.6 9.7 24.3 26.4 45 50.1 57.9 18.8 10.3 37.2 22.9 59.7 23.6 41.8 1.2 83.2 0.8 124-12.9 45.7-15.3 89.3-33.4 124.4-67.2 12-11.5 21.9-25.3 18.4-43.7-0.7-3.8-4.2-7.2-6.4-10.7-2.9 1.9-6.2 3.4-8.5 5.9-24.5 26.1-51.3 48.8-84.5 63.9-21.5 9.8-43.6 16.3-66.6 21.1-21 4.4-41.5 2.8-60.5-4.7-48.9-19.1-74.9-55.6-80.1-108.2-4.4-45.2-2.8-88.7 18.7-130.2 18.8-36.1 44.8-64.7 83.5-78.6 21.5-7.7 44.4-13.1 67.1-15.5 38.8-4.2 76.8-1.7 105.6 33.1 3.2-4.8 6.5-9.7 9.9-14.7 15.4-23 11.1-39.8-12.9-53.4-2.6-1.5-3.6-5.8-5.3-8.8 3.7 0.1 7.4 0.1 11.1 0.1zM780.7 277c1.2 2.5 3.4 4.9 3.4 7.4 0.2 70.1 0.1 140.2 0.2 210.3 0 5.4-1.2 7.5-7 7.3-11.3-0.4-22.5-0.3-33.8 0-5.3 0.1-7.2-1.7-7.2-7 0.2-30 0.1-60 0.1-90 0-16.9 0.1-33.8 0.2-50.8 0-1.5-0.4-3.1-0.7-4.6-0.6-0.1-1.2-0.3-1.7-0.4-1.8 4.8-3.6 9.5-5.3 14.3-4.8 13.5-9.5 26.9-14.3 40.4-6.3 18-12.5 36-18.9 53.9-4.7 13.5-9.4 26.9-14.5 40.3-0.7 1.8-3.9 3.6-6 3.6-10.3 0.4-20.7 0-31 0.2-3.8 0-5.1-2.2-6.2-5.1-4.2-12.3-8.5-24.6-12.8-36.8-7.3-20.9-14.6-41.8-22.1-62.6-5.6-15.6-11.5-31.1-17.2-46.6-0.5 0-1 0.1-1.4 0.1-0.2 1.5-0.6 2.9-0.6 4.4 0.1 46.7 0.1 93.5 0.4 140.2 0 4.7-1.1 6.6-6.2 6.5-12.4-0.3-24.8-0.2-37.1 0-4 0.1-5.5-1.3-5.5-5.4 0.1-71.2 0-142.4 0.2-213.6 0-2 1.4-4 2.2-5.9h65.4c1.9 1.6 4.6 2.8 5.5 4.9 3 6.9 5.3 14 7.8 21 7.4 21.6 14.8 43.3 22.2 64.9 6.7 19.4 13.4 38.8 20.2 58.1 0.4 1.2 1.8 2.2 3.3 3.9 3.7-10.5 7.1-19.8 10.2-29.2 5.9-17.9 11.5-35.9 17.3-53.8 4.5-13.7 9-27.5 13.8-41.1 3.4-9.7 7.1-19.2 10.7-28.8h66.4zM807.3 390.6V286.3c0-6.7 1.1-8.1 7.5-8.1 32.9 0.1 65.8-0.3 98.6 0.8 23.7 0.7 44.2 10.2 60.5 27.7 12.9 13.8 20.6 30.1 24.3 48.5 4.7 23.6 4.6 47.4-0.6 70.6-7.2 32.6-25.1 57.9-57.7 69.9-9.7 3.6-20.4 5.7-30.7 6-30.5 0.8-60.9 0.3-91.4 0.3-12.1 0-10.6 0.4-10.6-10.3 0.2-33.7 0.2-67.4 0.1-101.1 0.1 0 0 0 0 0z m48.1-0.6c0.1 21.7 0.1 43.4 0 65.1 0 4 1.6 5.1 5.3 5.1 12-0.1 24-0.1 36 0.1 31.4 0.7 49.2-17.7 54.6-46.2 3.2-16.8 2-33.9-1.5-50.9-4.8-23.5-23-40.9-47.1-42.4-14-0.9-28-0.4-42.1-0.7-4.9-0.1-5.2 2.8-5.2 6.5V390zM966.5 624.6c5.1 2.4 9.3 4.1 13.3 6.2 14.5 7.8 20.9 20.5 22.1 36.4 2.2 29.9-20 48.4-44.8 54.6-15 3.7-30 4-45 1.9-20-2.7-37.5-10.6-48.2-29.3-13.3-23.2-5.3-57.5 23.8-67.4 1.4-0.5 2.8-1.1 5.6-2.3-4.5-2.5-7.8-4.4-11.1-6.2-19.8-10.9-24.6-31.6-18.9-50.4 6-19.8 21.2-29.5 40.4-34.5 14.2-3.7 28.7-3.5 42.8-1.8 20.8 2.5 38.8 11 48 31.5 10.1 22.6 1.1 49.5-24 58.7-1.1 0.5-2.2 1.5-4 2.6zM930 689c5-1.3 10.2-2 14.9-3.9 15.2-6.2 18.1-26.8 5.3-37.1-10.3-8.3-21.9-8.8-33.6-4.4-13.1 5-19 19.1-12.8 30.7 5.3 10 14.5 14.5 26.2 14.7z m1.4-80.5c0.2 0 1.8 0.1 3.4 0 7.9-0.3 16-6.2 18.5-13.4 3.1-8.9 1.2-14.9-5.9-21.6-6.8-6.4-15.1-6.2-23.3-5.5-8.9 0.7-15.3 6.1-18 14.1-2.8 8.2-0.4 15.6 6.8 21.6 5.2 4.2 10.9 5 18.5 4.8zM808.4 534.7c-15.5 21.9-30.3 42.8-46 64.9 7 0 12.4 0.1 17.7 0 26.3-0.4 53.2 21.5 58.2 48.7 5.6 30.6-11.8 57.7-36 68.7-16.2 7.3-32.8 8.4-50 7.4-16.2-0.9-30.7-6.4-42.9-16.4-18.5-15.2-25.5-35-21.9-58.8 2.9-19.4 12.6-35.5 23.5-51.1 13.4-19 26.8-38.1 39.9-57.3 3.3-4.8 6.8-7.2 12.7-7.1 12.4 0.3 24.8 0.1 37.3 0.1 1.9 0.1 4 0.5 7.5 0.9z m-50 153.5c18.3-0.1 29-5.1 35.3-18.2 4.7-10 0.5-27.6-8.3-33.4-10.7-6.9-21.6-8.7-33.8-5.5-17.8 4.7-27.1 25.8-18 41.5 6.4 11.2 16.4 16.2 24.8 15.6zM633.8 625.3c3.1 1.1 6.4 1.9 9.2 3.3 16.1 8.3 24 21.2 24.8 39.5 1.1 25.6-17 44-36.8 51.1-15.8 5.7-31.9 5.7-48.3 5.1-12.2-0.5-23.3-3.8-33.8-9.6-13.8-7.6-21.9-19.8-25.1-35-0.3-1.2 2.9-4.1 5-4.7 7.9-2.2 16.1-3.7 24.1-5.5 1.2-0.3 2.5-0.4 3.7-0.8 8.7-2.4 8.7-2.4 12.9 5.4 4.5 8.3 11.4 13.4 21.1 13.4 6.4 0 12.9-0.4 19.2-1.4 6-0.9 9.5-5.3 11.6-10.8 4-10.5 5.8-22-3.3-29.3-3.8-3.1-9.1-5.1-14-5.9-8.1-1.3-16.5-1.4-24.7-1.6-4.3-0.1-5.7-1.6-5.5-5.8 0.3-6.6 0.3-13.3 0-19.9-0.2-4.2 1.7-5.1 5.4-5.2 8.1-0.3 16.3-0.2 24.1-1.8 13.2-2.5 20.1-11.5 16.3-24.5-2.1-7.4-8.4-11.3-15.4-12.9-13-3-24.8-1-32.3 11.8-1 1.6-4.1 3.3-5.8 3-11.5-2.6-22.9-5.7-34.3-9.1-1.2-0.4-2.6-3.9-2.1-5.4 6.2-18.5 18.6-30.6 37.8-35.4 15.3-3.8 30.9-3.7 46.2-1.6 19 2.6 35.7 10.6 45.5 28.6 9.1 16.6 6.6 39-6.8 52.3-4 4-9.9 6.1-15 9-1.3 0.7-2.7 1.3-4.1 1.9 0.3 0.8 0.4 1.3 0.4 1.8z" p-id="1069"></path></svg>