<?xml version="1.0" standalone="no"?><!DOCTYPE svg PUBLIC "-//W3C//DTD SVG 1.1//EN" "http://www.w3.org/Graphics/SVG/1.1/DTD/svg11.dtd"><svg t="1574755790917" class="icon" viewBox="0 0 1024 1024" version="1.1" xmlns="http://www.w3.org/2000/svg" p-id="1560" xmlns:xlink="http://www.w3.org/1999/xlink" width="200" height="200"><defs><style type="text/css"></style></defs><path d="M575.9 598.9c-9.2 5.2-13.4 4.5-13.7-3.9-0.5-13-9.8-20.1-16.1-29.1-13.1-18.8-26.8-37.3-39.7-56.3-9-13.3-16.7-27.5-25.6-40.9-6.8-10.2-4.6-10.8 5.1-16.7 11.3-6.8 23.2-12.7 35.3-17.8 12.6-5.3 25.6-9.7 38.8-13.4 11.4-3.2 23.2-4.6 34.7-7.3 2.8-0.7 5.7-3.2 7.3-5.6 0.6-0.8-2-5.1-4-6.1-10.7-5.3-21.3-11.7-32.8-14.6-20-5-40.5-9.9-61.3-7.3-17.5 2.2-34.9 6.4-52.3 9.6-3.7 0.7-7.4 1.6-11.2 1.6-1.6 0-4.1-1.7-4.8-3.3-10.7-23.7-21.1-47.6-31.8-71.3-6.8-15.1-14.1-29.9-21.2-44.8-5.9-12.6-11.9-25.2-17.5-38-1.7-4 0.2-7.3 4.5-9.1 24.5-9.9 49.6-17.4 75.7-21.9 26.4-4.5 52.8-4.7 79-1.9 28.3 3.1 56 10 82.6 21.1 32.6 13.6 61.9 32.1 88 55.7 23.2 21 42.4 45.2 58.3 72.3 11.5 19.6 20.5 40.2 27.2 61.6 4.9 15.6 6.8 32 10.5 47.9 4.9 20.9 5.5 42.1 3.3 63.1-1.9 18.1-5.6 36-9.8 53.7-3.4 14-8 27.8-13.5 41.1-5.9 14.2-12.3 28.4-20.5 41.3-9.7 15.4-21.4 29.5-32.6 43.9-12.8 16.4-28.5 30.1-45.6 41.6-18.8 12.6-38.4 24.5-58.6 34.5-13.9 6.9-29.4 10.3-44.4 14.9-34.1 10.4-69.2 13.5-104.5 9.8-29.8-3.1-59-9.8-87-21.3-30.2-12.4-57.6-29.2-82.5-50-19.4-16.2-36-35-50.7-55.6-2.8-3.9-2.4-7.6 1.2-12.1 28.5-35.7 61.1-67.5 93.7-99.3 17-16.7 36-31.4 54.2-46.9 3.6-3 8.1-1.1 10.3 4.7 2.8 7 4.8 14.4 7.5 21.4 5.2 13.6 10.5 27.3 16.2 40.8 4.2 10 8.5 20.1 13.9 29.5 7.9 13.7 16.6 27 25.7 39.9 4.9 6.9 10.3 6.9 17.4 2.2 22.4-15 44.9-30 67.3-45 2.6-1.7 5.1-3.5 7.4-5.6 5-4.5 9.5-2.5 11.5 2.4 6.5 16.3 20.4 24.6 34.3 32.7 18.6 10.8 38.7 18.2 60.2 20.4 17.1 1.8 32.1-3.5 44.1-16.3 11.3-12.1 15.7-27.2 18.7-43 3.1-16.1 6.3-32.1 9.2-48.2 5.9-33.1 9.8-66.4 7.5-100-1.2-17.5-2.7-35.1-6.1-52.3-3.9-19.9-9.9-39.4-15.3-59.1-4-14.5-10.2-28-19.2-40.1-2.8-3.8-5.8-7.5-9.1-10.9-4.5-4.6-9.2-6.3-15.7-2.8-10.1 5.5-22 8.5-31.1 15.2-13.5 10.1-14.6 26.1-11.3 41 5.2 23.3 12.6 46.2 18.8 69.3 4.9 18.6 9.4 37.2 13.8 55.9 3.4 14.5 7.1 29.1 9.6 43.8 3.4 19.9 6.3 39.8 8.7 59.8 1 8.4 1.1 17 0.3 25.4-2 18.9-15.9 26.9-31.9 30.8-21.5 5.2-40.8-1.9-58.2-14.3-7.7-4.9-14.7-10.9-22.2-16.8z" p-id="1561"></path><path d="M343.8 237.6c1 4.4 1.8 7 2.1 9.6 2.2 20 3.9 40.2 6.7 60.1 3.6 25.6 8 51 12.3 76.5 1.5 9.1 4.2 18 5.5 27.2 2 13.6 0.7 14.7-10.5 21.7-14 8.8-28.3 17.4-41.1 27.7-22.4 18.1-44.7 36.6-65.4 56.6-16.3 15.7-30 34.1-45 51.1-2.5 2.8-5.6 5.1-9.8 8.8-12.8-50.8-13.1-100.1-0.7-148.4 21.4-83 69.8-146.5 145.9-190.9z" p-id="1562"></path></svg>