<?xml version="1.0" standalone="no"?><!DOCTYPE svg PUBLIC "-//W3C//DTD SVG 1.1//EN" "http://www.w3.org/Graphics/SVG/1.1/DTD/svg11.dtd"><svg t="1575525140824" class="icon" viewBox="0 0 1024 1024" version="1.1" xmlns="http://www.w3.org/2000/svg" p-id="840" xmlns:xlink="http://www.w3.org/1999/xlink" width="200" height="200"><defs><style type="text/css"></style></defs><path d="M389.6 642.1c-6.8 10.3-15.7 21-26 32.5H414V650l12.2 1.7c3.5 0.4 5.2 1.5 5.2 3.3 0 1.7-1.1 3.5-3.3 4.4-2.2 0.9-3.3 2.4-3.3 3.7v11.6h48.9l4.8-6.3 9.4 7.4c1.3 0.9 2 2.4 2 4.1-0.2 1.5-1.3 3.1-3.1 3.7-1.5 0.7-2.2 1.7-2.2 2.8v51.1c0 7.6-8.3 11.4-16.2 12.7 0-7-8.5-9.8-16.4-11.8-1.5-0.4-2.4-1.3-2.4-2.4 0-1.5 0.7-2.4 2.2-2.4 0.4 0 0.7 0.2 1.1 0.2 7 1.3 12 2 15.3 2 3.9 0 5.5-0.4 5.5-5v-49.6H425v79.5c0 3.7-7 4.8-8.5 4.8s-2.4-0.7-2.4-2v-82.3H368V750c0 3.5-7.4 3.9-8.5 3.9-1.5 0-2.4-1.1-2.4-3.9v-68.5c-22.5 23.4-40.6 33.6-42.4 33.6-1.1 0-1.5-1.1-1.5-2.2 0-0.4 0-0.9 0.4-1.3 26.4-17.7 47.8-41.9 64-69.4h-62l-1.7-6.8h67.7l6.1-13.1 1.7-5.9 11.8 5c2.4 1.1 3.3 2.4 3.3 3.5 0 0.9-0.9 3.1-3.5 3.1-1.7 0-2.8 0.2-3.1 0.9l-3.9 6.5h88.2L496 624l14 10.5c1.1 0.4 1.7 1.7 1.7 3.3 0 2.8-2.2 4.4-5 4.4H389.6z m75.5-74.9c1.7 1.1 2.8 2.4 2.8 3.5 0 2.8-4.6 2.8-8.3 2.8-8.1 6.3-17.2 12.4-27.3 18.1 6.6 2.8 22.3 9.8 32.7 19.4 2.4 1.5 6.1 4.6 6.1 9.2 0 4.4-4.4 5.7-5.2 5.7-1.7 0-5-1.3-8.7-4.6-10.7-8.5-22.9-16.4-36.2-23.4-12.9 7-27.3 12.4-43.7 16.4-17.5 4.1-33.6 7.2-47.6 8.5-1.3 0-2.2-0.7-2.2-1.5 0-1.1 0.4-2 1.5-2 18.8-3.1 36-7.2 51.5-12.2 11.6-3.9 22-8.7 31.4-13.5-28.4-11.4-38.4-15.3-57.2-19.2-1.1-0.2-1.5-0.9-1.5-1.5 0-0.9 0.9-1.3 1.7-1.3l32.1 6.5c12.7 2 24.7 5.5 35.4 9.6 11.8-7.9 22.9-16.6 32.5-27.1l10.2 6.6zM563.1 761.3c0 1.1-0.9 2.2-2.6 2.8-6.3 2.2-8.3 2.8-8.3-2.8V624.4c-10.9 6.8-20.7 10.9-22.5 10.9-1.5 0-2-0.9-2-1.7s0.4-1.7 1.3-2c9.8-4.8 30.6-16.2 45.8-41.7l0.9-3.5 11.1 3.3c2.2 0.7 3.5 2 3.5 3.5 0 1.3-0.9 3.1-3.5 3.1-1.5 0-3.1 0.4-3.9 1.3-3.5 4.8-8.7 10-15.3 15.7h58.7v-35.1h-90.8l-1.7-6.8h167.4L715 560l14 10.5c1.1 0.4 1.7 1.7 1.7 3.3 0 2.8-2.2 4.4-5 4.4h-88.4v35.1h61.6l2.4-3.1-5-4.6c-8.3-7.2-16.2-11.8-22.9-14-0.9-0.4-1.5-0.9-1.5-1.5 0-1.5 0.9-2.2 2.2-2.2 7.6 0 45.4 20.3 54.6 37.8l1.3 5.9c0 2.8-2.8 4.4-5 4.4-2.4 0-4.1-1.7-4.6-2.6l-7.9-10.9v0.2c-1.7 0.7-2.6 1.7-2.6 2.6v123.8c0 3.7-2.2 10.7-19.9 13.3l-2.6-6.3c-1.1-2.2-6.3-4.6-14.4-7.2-1.3-0.4-2-1.3-2-2.4 0-1.3 0.4-2 1.7-2h0.7c8.5 1.7 14.8 2.4 19 2.4 2.8 0 6.5 0 6.5-5.2V619.8h-61.6v137.7c0 3.3-7.9 4.1-8.3 4.1-1.7 0-2.6-1.3-2.6-4.1V619.8h-63.3v141.5zM600 651.5c4.8 3.9 14.6 12.9 14.6 21.2 0 4.8-7 4.1-8.3 1.1-3.5-6.3-7.6-12.2-11.4-17l-3.5 3.9c-13.1 12.9-23.4 16.8-23.6 16.8-1.1 0-1.5-1.1-1.5-1.7 0-0.7 0.2-1.1 0.7-1.3 10.5-7.2 15.1-12.2 23.4-22.9l-1.7-1.5c-6.3-6.3-12.2-10.5-17.7-12.7-0.9-0.2-1.3-0.9-1.3-1.5 0-1.1 0.9-1.5 2-1.5 1.7 0 11.1 3.9 22.5 12L601 634l1.7-5 9.6 4.4c1.5 0.7 2.6 1.7 2.6 2.8 0 2.2-1.7 2.6-5.5 3.5l-9.4 11.8z m-8.3 68.1c-14.6 15.1-23.8 18.1-24 18.1-1.1 0-1.3-1.1-1.3-1.5 0-0.7 0.2-1.1 0.7-1.3 7.6-5.5 14.6-12.2 20.5-20.3l4.1-6.1c-6.1-6.1-10.9-10.9-18.3-14-0.7-0.2-1.1-0.9-1.1-1.5 0-0.9 0.7-1.7 2-1.7 1.7 0 11.1 4.8 21 12.2l5.7-11.6 1.3-4.8 9.8 3.7c1.7 0.7 2.6 2 2.6 3.1 0 0.7-0.4 2.6-2.6 2.6l-2.6 0.9-8.3 11.4c10.5 9.6 14.4 15.3 14.4 22 0 3.3-2.4 3.3-5.7 3.3l-2.6-2.4c-3.3-6.5-7-12.7-10.9-17.2l-4.7 5.1z m83.2-69c2.4 2 14.8 12.2 14.8 21.2 0 4.4-7 4.4-8.3 1.1-3.7-6.3-7.6-12-11.6-16.8-12.9 14.6-24.7 19.6-25.3 19.6-1.1 0-1.5-1.1-1.5-1.7s0.2-1.1 0.7-1.3c11.1-7.6 16.8-15.3 21.6-22l-1.1-0.9c-6.1-6.1-12.2-10.5-17.2-12.4-0.9-0.2-1.3-0.9-1.3-1.5 0-1.1 0.9-1.5 2-1.5 1.5 0 10 3.1 20.7 11.4l5.9-10.9 1.5-5 9.6 4.4c1.7 0.7 2.6 1.5 2.6 2.6 0 0.7-0.7 2.8-2.6 2.8l-2.6 0.9-7.9 10z m6.6 80.1c-3.7-6.8-7.4-12.9-11.4-17.5-13.5 17.5-23.6 23.6-24.7 23.6-1.1 0-1.5-0.9-1.5-1.5 0-0.4 0-0.9 0.4-1.1 6.5-5.7 12.7-12.7 17.7-20.7l3.3-6.1-0.4-0.2c-5.9-6.3-12-10.5-17.2-12.7-0.7-0.2-1.1-0.9-1.1-1.5 0-0.9 0.7-1.7 2-1.7s7.6 2.2 19.6 11.1l4.1-10.9 0.9-5 10 2.8c2.2 0.7 3.3 1.7 3.3 3.1 0 1.1-1.1 2.6-2.6 2.6l-2.6 1.1-7 11.4c7.6 6.5 12.7 12.7 14.8 17.9l0.7 4.6c0 3.3-2.4 3.3-5.7 3.3l-2.6-2.6zM166.4 504H997v3.8H166.4zM275.7 306.1c0.2-1.6 0.2-3.3 0.6-4.9 3.7-14.2 0.1-24.4-12.3-32.8-16.2-11-34.5-12.4-53.1-10.1-28.9 3.5-52.6 18-73.6 37.1-25.9 23.6-47.5 50.8-63.3 82.2-5.1 10.2-8.6 21.4-11.3 32.5-3.7 15.4 3.7 27.5 18.9 32.6 16 5.3 32.3 4.5 48.2-0.1 42-11.9 76.2-35.3 101.4-71.1 3-4.3 4.9-9.4 8.4-16.2-17.5 1.3-32.3 2.3-47.1 3.4-0.4-0.9-0.7-1.7-1.1-2.6 2.6-1.1 5.1-3.1 7.7-3.3 18.9-1.4 37.9-2.2 56.8-3.6 6.4-0.5 12.8-1.9 20.6-3.2-1.4 2.3-2 4.3-2.9 4.5-9 1.8-13.3 8.7-17.9 15.5-26.7 38.9-52.7 78.2-80.5 116.2-21.5 29.3-47.4 54.5-81.9 68.9-20.4 8.5-41.4 12-63.2 6.8-2.5-0.6-4.7-2.3-7.1-3.6 0.3-0.7 0.6-1.5 1-2.2 6.2 1.4 12.3 3.4 18.6 4.1 14 1.6 27.1-1.8 39.5-8.4 19.1-10.2 35.6-23.6 50.3-39.2 28.9-30.6 53.7-64.3 75.8-100.6-1.9 1.3-3.9 2.5-5.8 3.8-23.3 17.2-48.7 30.1-77.3 36.1-17.3 3.6-34.6 3.2-51.5-2.1-24.3-7.7-34.9-27.3-28.2-51.8 6.3-22.7 17.7-42.7 32.1-61.1 32-40.8 72.1-68.9 124.2-77.8 23.3-4 46.6-4.7 69.9 0.7 1 0.2 2.1 0.4 3.1 0.7 21.7 6.4 23.5 10.3 14 30.1-3.3 6.8-7 13.5-10.6 20.2-0.9 0-1.7-0.3-2.4-0.7zM551.1 388.9c0.1-0.2 0.2-0.6 0.4-0.7 6.5-2.8 14.9-7.1 19.5-0.5 4.8 6.8-2.2 13.2-7.3 18-8.7 8.4-19.7 12.3-31.5 12.9-5.1 0.3-7.9 2.1-9.2 6.6-1.8 6-4.3 12-4.9 18.1-1 9.4 4.1 14.8 13.2 12.5 10.8-2.6 21.1-7.6 31.4-11.9 3.5-1.5 6.5-4.1 10.9-7-11.1 14.7-44.5 28.3-60.6 24.7-4.4-1-7.9-5.3-12.2-8.4-5.7 5.1-11.9 12.2-19.5 17-7.3 4.7-15.9 8.7-24.4 10-13.7 2.1-21.2-6.8-17.7-20.4 2.3-9 7-17.5 10.8-26.2 0.8-1.9 1.9-3.6 2.9-5.4-0.5-0.5-1-0.9-1.5-1.4-4.9 5.1-9.5 10.6-14.8 15.2-7.2 6.2-14.6 12.3-22.7 17-3.7 2.2-9.3 1-14.1 1.3 0-4.7-0.2-9.4 0-14.1 0.1-1.4 1.1-2.8 2.1-5.4-8 4.7-14.6 9.5-21.9 12.5-8.7 3.5-17.9 6.7-27.1 7.6-13.5 1.3-19.5-7.7-14.4-20.3 2.7-6.7 6.5-13.1 9.5-18.9-6.1 0-12.6 1.1-18.4-0.3-5.5-1.4-10.4-5.4-16.1-8.5-2.8 4.1-5.8 10-10.2 14.7-9 9.5-18.5 18.6-28.1 27.5-2.6 2.4-6.3 4.6-9.7 5-5.9 0.6-13.2 1.5-17.6-1.3-2.6-1.7-2.3-11.1-0.3-15.7 10.2-23.8 26.5-42.3 50.4-53.3 2.5-1.2 5.3-1.8 8.1-2.3-17.8 11.7-30.4 27.7-40.4 45.9-2.7 5-4.6 10.7-5.7 16.2-1.3 6.6 1.8 8.9 8.2 6.7 2.7-0.9 5.3-2.4 7.6-4.2 14.6-11.7 26.5-25.8 34.4-42.7 2.3-4.9 1.7-11.2 2.4-16.9 1.6-12.9 5.8-19.1 17.5-18.7-2.2 7.6-4.9 15.2-6.4 23-2.1 10.8 1.2 18.8 7.5 21.3 8.5 3.3 19.8-0.8 25.7-8.9 31.9-43.2 63.7-86.6 96.1-129.5 14.7-19.5 34.6-33 56.5-43.5 2.8-1.4 5.8-2.5 8.9-3.3 6.2-1.5 9.7 1.6 7.5 7.6-2.5 6.9-5.6 13.7-9.6 19.8-30 46.5-68.9 83.6-117.3 110.7-4 2.2-7.8 5.5-10.4 9.2-10.7 15.7-21.2 31.5-31 47.7-3.3 5.5-5.1 12.1-6.3 18.4-1.3 6.6 2.9 10.2 9.2 9.5 5.9-0.6 12.1-1.9 17.5-4.4 13.9-6.5 26.5-14.8 36.6-26.9 16.4-19.7 36-34.6 62-39.7 3-0.6 6.1-3.9 8.1-6.7 26.5-37.2 54.6-73.1 87.5-105 15.9-15.5 32.4-30.4 53.7-38.3 6.1-2.3 12.7-3.3 19.1-4.2 2.5-0.4 5.3 1.1 8.9 1.9-2.7 4.5-4.5 8.3-7 11.5-0.8 1.1-3.7 1.4-5.3 0.9-13.3-4.4-26-2.4-37 5.4-12 8.5-24.1 17.5-33.7 28.4-41.4 46.6-78.8 96.3-109.9 150.4-5.5 9.5-9.9 19.8-13.3 30.2-1.5 4.6-0.9 11.9 2 15.1 2.5 2.7 10.2 3 14.5 1.3 18.3-7.2 33.2-18.4 41-37.7 9-22.2 23.7-39.5 45.9-49.8-7.8 8.4-15.7 16.8-24.5 26.3 14.7 2.1 26.4-3.3 31.7-13.7 1.7-3.3 1.5-7.4 2.2-11.2-2.9 0.1-6.2-0.3-9.4-0.7z m-152.4-22c43.5-23.3 79.1-54.5 103.4-97.4 3.1-5.4 5.3-11.5 7-17.5 0.8-2.8-0.6-6.2-1-9.4-3.1 0.9-6.7 1.1-9.2 2.9-4.1 2.8-7.8 6.4-11 10.2-17.3 20.5-34.7 41-51.5 61.9-13 16-25.2 32.8-37.7 49.3z m77.9 24.3l-1.2-2.4c-6.5 2-14 2.7-19.5 6.4-18.8 12.6-32.4 29.9-41.9 50.4-0.9 2 0 4.8 0.1 7.3 2.2-0.5 4.8-0.4 6.5-1.5 23.2-16 40.7-37.1 56-60.2zM630.1 398.1c6.6-4.6 13.1-9.5 20-13.8 1.7-1.1 4.6-0.2 6.9-0.2-0.5 2.4-0.3 5.3-1.6 7.1-6.4 9-13.6 17.4-19.7 26.6-6.1 9.2-11.6 18.8-16.5 28.6-1.6 3.3-0.5 7.9-0.7 11.9 4 0.1 8.5 1.5 12 0.1 21.1-8.1 37.9-22.3 52.9-38.9 1.9-2.1 3.7-4.2 6.8-5.3-1 1.5-2 3.1-3.2 4.5-14.3 16.8-30.6 31.3-51 40.3-6.4 2.8-13.5 4.8-20.4 5.4-10.6 1-13.7-3.7-9.3-13.3 2.8-6.2 6.5-12 10.2-17.7 7.3-11.3 14.9-22.3 22.3-33.5 1-1.5 1.5-3.2 3.1-6.7-4.9 2.3-8.2 3.8-11.5 5.3l-0.3-0.4z" p-id="841"></path><path d="M630.4 398.5c-0.5 0.6-0.8 1.4-1.4 1.8-21.2 14.1-38.5 31.9-51.8 53.6-1.4 2.2-3.2 4.1-5 6.1-0.3 0.4-0.9 0.4-1.7 0.7-4-5.2-3.2-10 0.9-14.7 14.3-16.7 26-35.1 36.8-54.2 1.7-3 3-8 7.9-5 5.2 3.1 1.6 6.7-0.5 9.9-4.2 6.3-8.4 12.5-11.7 19.5 8.7-6 17.4-12.1 26.1-18.1 0.1 0 0.4 0.4 0.4 0.4zM719 272.9h23.2v35.7h25.4v-35.7H791V375h-23.3v-41.3h-25.4V375H719V272.9zM807.3 272.9h23.3V375h-23.3V272.9zM847.3 272.9h23.2v77h36.3V375h-59.5V272.9zM917.3 272.9h23.2v77h36.3V375h-59.5V272.9zM722.1 395.6l4.4 3.8h63.9l2.2-2.9 4.2 2.7c0.3 0.2 0.4 0.5 0.4 0.9 0 1.1-0.8 1.6-1.3 1.8-0.7 0.3-1 0.6-1 0.9v73.6c0 0.5-0.4 0.9-0.9 1.2-3.2 0.7-3.5 0.8-3.5-1.1v-2.8h-63.9v3.4c0 1.1-0.6 1.3-3.6 2-0.5 0-0.8-0.6-0.8-2v-81.5z m4.5 75.4h63.9v-68.8h-63.9V471z m34.3-54.6v-11.2l4.7 1c1.4 0.3 2.1 0.7 2.1 1.5s-0.4 1.3-1.1 1.4c-0.7 0.2-1.2 0.6-1.2 1.3v6.1h12.1l5-4.9 4.6 4.4c0.5 0.4 0.6 0.9 0.6 1.5 0 0.9-0.7 1.8-1.8 1.8h-20.6c0.1 6.1 0.5 15.3 4.6 25.2 2.7-4.3 4.4-8.6 6.1-14.1l0.7-3.4 4.8 2.3c0.8 0.3 1.2 0.8 1.2 1.3s-0.4 1-1.3 1c-0.6 0-1.1 0.2-1.3 0.5-1.5 3.9-3.4 7.8-5.4 11.5l-2.9 4.5c3.9 6.9 7.9 9.9 9.1 9.9 0.3 0 0.9-0.8 1.6-2.2l2.3-5.6c0.1-0.3 0.5-0.5 0.7-0.5 0.7 0 1.2 0.5 1.1 1.2l-1.7 7.4c-0.1 0.6-0.2 1.3-0.2 1.8 0 0.8 0.2 1.5 0.4 1.9 0.4 0.6 0.5 1.2 0.5 1.7 0 0.8-0.5 1.9-2 1.9-3 0-9.7-5.8-14.7-13.7-3.5 4.4-6.3 7-10.7 9.7-5.4 3.5-11 5.4-11.3 5.4-0.4 0-0.6-0.2-0.6-0.5s0.2-0.5 0.5-0.5c7.7-3.5 14.3-9.2 18-13.9l2.5-3.4c-5.4-10.6-6-21.9-6.3-29.5h-29.5l-0.7-2.7h30.1z m-24.6 43.3c-0.4 0-0.6 0.5-0.8 1.5-0.2 1.5-1.4 1.6-1.5 1.6-0.6 0-1.2-0.7-1.5-2.1l-1.5-5.9h4.6c5.4 0 14.9-2.5 22.7-6.3 0.2-0.1 0.4-0.1 0.5-0.1 0.6 0 1 0.5 1 1.1 0 0.4-0.2 0.6-0.5 0.8-3.8 2.4-8.2 4.6-12.9 6.3l-10.1 3.1z m-0.4-34.7l4.4 3.1h11.5l2-3.1 3.6 2.5c0.5 0.4 0.7 1 0.7 1.5-0.1 0.5-0.5 1-1 1.2-0.5 0.3-0.8 0.6-0.8 1v15.1c0 1.2-0.5 1.3-3.4 2-1.1 0-1.1-0.9-1.1-4.4h-11.4c0 2.8 0 3.1-1.1 3.6-2.9 0.7-3.4 0.8-3.4-1.5v-21z m4.6 5.8v10.3h11.4v-10.3h-11.4z m37.7-17.6c-0.2 1-0.5 1-2.5 1l-0.8-1c-0.6-2-2.4-6-4.7-7.3-0.3-0.1-0.4-0.4-0.4-0.6 0-0.5 0.3-0.6 0.6-0.6 1.4 0 6.6 3.7 7.8 6.5v2zM827.6 409.8c-1.5 3.7-3.5 8.1-6.1 12.6-0.1 0.2-0.2 0.4-0.2 0.5 0 0.4 0.2 0.6 0.5 0.8 8.3 8.1 9.5 17.2 9.5 20.7 0 4.7-2.4 15.1-10.9 14.2l-0.5-1.3c-0.2-1.7-2.9-3.9-4.8-4.4v24.2c0 1.1-0.8 1.3-3.6 2-0.6 0-0.9-0.6-0.9-2v-83l4.5 3.8h12.2l1.2-3.5 4.8 3.3c0.6 0.4 1.1 1 1.1 1.6 0 0.7-0.9 1.5-2.5 1.9-0.7 0.2-1.3 0.7-1.6 1.5l-2.7 7.1z m-5.1 5.4c1.6-4.1 3-8.9 4.3-14.5h-11.5V451l4.8 1.1c0.6 0.1 1.2 0.2 1.7 0.2 1.9 0 2.6-0.2 3.7-2 1.3-2.1 1.4-5.2 1.4-6.4 0-4.1-0.9-8.6-3.4-13.7l-3.4-6c-0.5-0.4-0.7-0.8-0.7-1.2 0-0.2 0.1-0.4 0.3-0.5l2.8-7.3z m20.6 40.1l4.4 2.6c0.7 0.5 1.1 0.9 1.1 1.4 0 0.8-0.7 0.9-2.8 1.2-6 9.2-18.1 14.9-18.9 14.9-0.5 0-0.8-0.5-0.8-0.7 0-0.2 0.1-0.5 0.4-0.5 5.8-3.4 12.7-10.2 16-16.6l0.6-2.3z m19-52.5c0.5 0.2 0.9 0.7 0.9 1.4 0 0.5-0.3 1.7-1.5 2-0.7 0.1-1.3 0.5-1.5 1-2.6 6.1-5.1 10.8-7.2 14-5.5 8.4-18.5 19-19.5 19-0.5 0-1-0.6-1-0.9 0-0.2 0.1-0.4 0.2-0.5 3.7-3 7.3-6.2 10.1-9.3 7.2-8.3 11.4-16.7 13.4-24.4h-11l-2.4 3.7 3.6 2.3c2.8 2.2 3.8 3.4 3.8 5.7 0 1.4-1 1.4-2.4 1.4l-1-1c-0.9-2-2-3.6-3-4.9l-2.1-2-1.8 2.8-3.7 4.4c2.9 1.4 6.9 4.9 7.6 7v2c0 1.1-0.4 1.1-2.4 1.1l-1-1.1c-0.6-1.9-1.5-3.7-2.5-5l-2.7-2.9c-2.3 2.4-6 5.4-6.4 5.4-0.5 0-0.6-0.4-0.6-0.6 0-0.2 0-0.4 0.2-0.5 3.7-3.3 7.2-7.3 10-11.9 3.6-5.8 5.4-9.5 6.1-14.6l4.3 1.2c0.9 0.2 1.4 0.7 1.4 1.4-0.1 0.5-0.5 0.9-1.1 0.9l-1.1 0.5-1 2.2H857l1.8-2.3 3.3 2.5z m14.1 45.2l5.7-4.8 5.8 4.4c0.5 0.3 0.7 0.7 0.7 1.4 0 1.1-0.8 1.8-2.1 1.8H863v20.4c0 5-5.2 7-8.3 7.7 0-0.6-0.4-1.6-1-2.7-0.7-1.1-3.1-2.4-7.2-3.8-0.5-0.1-0.6-0.5-0.6-0.8 0-0.4 0.4-0.5 0.9-0.5 4.5 0.6 7.8 0.9 9.5 0.9 1.5 0 2.1 0 2.1-1.7v-19.5h-22.1l-0.6-2.7h40.5zM865 434.1l5.2-4.1 4.7 3.6c0.5 0.3 0.7 0.8 0.7 1.5 0 1.2-0.9 1.8-2 1.8H847l-0.7-2.8H865z m23.3-28.8c-0.6 0-1.2 0.2-1.5 0.5-4.3 5.4-8.3 10.3-11.8 14.2 4.5 4.9 10.4 8.2 16.7 10.3 0.5 1.1 0.5 1.1-1.8 1.1-1.2 0-2.3 0.5-3 1.6-0.6 1-1.2 1.5-1.5 1.5-0.1 0-7.8-3.8-13.1-10.9-3-4.3-5.3-8.5-6.4-12.8-1.4-4.3-2.3-8.9-2.5-14.1 0-0.7 0.3-1.4 0.9-1.4 0.5 0 0.7 0.4 0.9 1.2 1.3 11.2 4.3 16.6 8.7 22.1 3.9-4.9 7.2-10.1 9.5-15.3h-12.7l-0.6-2.7h14.1l2.8-3 3.4 4.1c0.6 0.5 0.9 1.2 0.9 1.8 0 0.9-0.5 1.7-1.7 1.7l-1.3 0.1z m-19.8 51.4c0-0.8 0.5-0.8 0.8-0.8 3 0 17.4 11 17.4 16.6 0 0.4 0 2.4-2.1 2.4-1.6 0-2-1.2-2.1-1.4-3.9-8.3-9.2-14.1-13.5-16.1-0.3-0.1-0.5-0.4-0.5-0.7zM905.7 434.8l0.3-39.2 4.6 0.5c1.5 0.2 2.4 0.7 2.4 1.5 0 0.9-0.5 1.4-1.4 1.5l-1.2 0.6-0.2 22.1h9.8v-26.5l4.7 0.9c1.5 0.2 2 0.7 2 1.5s-0.4 1.2-1.1 1.4c-0.7 0.3-1.1 0.8-1.1 1.5V422h1.6l4.9-4.8 4.7 4.4c0.5 0.3 0.6 0.8 0.6 1.4 0 0.9-0.7 1.9-1.9 1.9h-24.3l-0.2 10.6-0.3 5.4h10.9l2.4-2.4 4.2 2.7c0.4 0.2 0.5 0.5 0.5 0.9 0 0.5-0.5 1.3-1.4 1.5-0.7 0.2-1.2 0.6-1.2 1v30.6c0.1 0.5-0.4 1.1-0.9 1.4-2.8 0.7-3.5 0.9-3.5-1.4v-31.5h-11.2l-1 11.9c-0.7 6-1.7 11-3.2 14.6-2 5.1-4.4 7.7-5.4 7.7-0.4 0-0.8-0.4-0.8-0.9 0-0.3 0.2-0.5 0.4-0.6 2.8-4.9 4.5-14.3 5.2-23.6l1.1-18z m39-10.4c-0.4 15.8-2.5 30.9-7.9 41.5-2.9 5.5-7.5 12.1-9 12.1-0.5 0-0.6-0.5-0.6-0.8 0-0.2 0.1-0.4 0.2-0.5 7-9.5 13-22.8 13-60V397l4.5 3.4h25.6l5.5-4.8 5.5 4.1c0.6 0.5 1 1.3 1 1.8 0 1-0.7 1.6-1.9 1.6h-35.7v18.6h26.6l1.5-1.2 4.4 2.1c0.7 0.4 1.1 0.9 1.1 1.5 0 0.8-0.5 1.4-1.4 1.5-0.7 0.2-1.2 0.6-1.3 1.2-2.1 11.5-6.3 21.9-11.6 29.7 6.3 9.4 13.2 13.5 18.8 15.7 0.5 0.2 0.7 0.5 0.7 0.8-0.1 0.4-0.8 0.7-2.1 0.9-1.3 0.2-2.1 0.8-2.4 1.8-0.3 0.7-0.6 1.1-1.1 1.1-0.3 0-9-5.8-16.1-17.3-9.1 12.3-24.2 19-24.5 19-0.7 0-0.9-0.8-0.9-1.1 0-0.2 0.1-0.3 0.2-0.4 6.3-3.5 12.2-8.1 17.1-13.6l6.1-7.5c-2.2-4-4.1-8.7-5.6-14.1-1.7-6.3-3.1-12.2-3.8-17.5h-5.9z m20.8 21.7c2.7-6.2 4.5-13.1 5.6-20.5l0.2-1.1h-18.8c2.6 15.3 6.9 23.6 9.3 28.4l3.7-6.8z" p-id="842"></path></svg>