<?xml version="1.0" standalone="no"?><!DOCTYPE svg PUBLIC "-//W3C//DTD SVG 1.1//EN" "http://www.w3.org/Graphics/SVG/1.1/DTD/svg11.dtd"><svg t="1575540011666" class="icon" viewBox="0 0 1024 1024" version="1.1" xmlns="http://www.w3.org/2000/svg" p-id="7033" xmlns:xlink="http://www.w3.org/1999/xlink" width="200" height="200"><defs><style type="text/css"></style></defs><path d="M187 485.3c0.4 0.1 0.8 0 1 0.2 7.8 5.8 17.1 7.9 26.3 9.8 18.5 3.7 37.2 5 56 5.2 18.7 0.2 37.3-0.1 56 0 23.8 0.2 47.6 1.3 71.3 3.6 20.7 2.1 41.3 4.9 61.5 10.5 69 19.3 134 47.5 194.4 86.2 9.9 6.3 19.3 13.3 29 19.9 0.6 0.4 1.1 0.9 1.8 1.5-0.8 0.8-1.4 1.4-2.1 2-11.7 9.4-24.1 17.6-37.3 24.8-1.6 0.9-2.9 1.5-4.9 0.3-25.2-15.9-52.7-26.3-81.1-35-27.7-8.5-55.9-14.7-84.5-19.4-23-3.8-46.2-6.4-69.4-8.7-24.5-2.4-49-2.1-73.6-2.1h-29.1c-1.2 0-2.4-0.2-3.5-0.6-23.2-8.8-45.7-19.1-66.2-33.2-17.2-11.8-29.8-27.5-39-46.1-2.3-4.7-3.6-9.9-5.4-14.8-0.4-1-0.9-1.9-1.4-2.8 0.2-0.4 0.2-0.8 0.2-1.3z" p-id="7034"></path><path d="M697.8 212.8c-4-1.2-8.1-2.4-12.1-3.6 0-0.2 0.1-0.4 0.1-0.6 7.4-1.1 14.7-2.2 22.8-3.4-3.6-2.5-6.2-5-6.3-9.4 1 0.3 1.9 0.4 2.7 0.7 5.3 2.1 10.6 4.4 16 6.4 1.6 0.6 3.5 1 5.2 0.9 7-0.4 13 1.5 18 6.5 3.1 3.1 6.9 5.1 11 6.5 3.7 1.2 7.2 2.6 10 5.4 0.9 0.9 2.3 1.3 3.4 1.9 11.5 5.7 22.9 11.4 34.4 17.1 1.6 0.8 3.2 1.7 4.5 2.9 2.6 2.2 3 4.7 0.7 7.2-3 3.4-5.2 7.1-7.5 10.9-2.4 3.9-6 5.5-10.4 4.4-3-0.8-5.8-2.1-8.6-3.4-2.2-1-4.1-2.4-6.2-3.5-5.6-3-11-2.8-16 1.6-4.7 4.1-10.3 6.4-16.6 7.1-4.3 0.5-8.3-0.3-12.4-1.4-3.1-0.8-3.8-0.5-5.6 2.2 47.4 64.4 63.7 135.7 46.2 213.9-12.1 54.2-40.4 99.1-82.4 135.8-2.6-2-5-3.7-7.3-5.6-41.7-33.1-87.9-58.5-137.2-78.5-29.3-11.9-59.2-21.8-90-29.1-18.7-4.4-37.6-7.1-56.7-9-31.2-3.1-62.6-4.3-93.9-4.3-13.8 0-27.5 0.3-41.3 0.6-2.6 0.1-4.9-0.4-7.3-1.5-14.3-6.8-25.7-16.9-34.6-29.9-10-14.7-15.9-31-19.4-48.2-0.8-4.2-1.4-8.5-2-12.7-0.1-0.6 0-1.3 0-2h0.5c6 8.2 14.6 12.5 23.9 15.7 10.6 3.7 21.5 5.7 32.5 7 3.4 0.4 6.9 0.7 10.7 1.1 0.1-1.9 0.2-3.4 0.2-4.9 0.9-33.4 8.2-65.3 21.7-95.9 33.1-74.6 100.7-129.4 180.4-146.2 26-5.5 52.2-6.8 78.6-4.2 43.2 4.2 82.8 18.7 118.7 43.2 1.9 1.3 3.7 1.7 6 1.5 6.3-0.7 12.6-1.3 18.9-1.9 2-0.2 4-0.4 6-0.7 0.6-0.2 0.7-0.4 0.7-0.6z m-77.2 3.8c-58.4-29.3-149.8-35-226.7 17-39.4 26.6-68 62-85.8 106-10.9 27-16.3 55-16.3 84.4 2.1 0.2 3.7 0.2 5.4 0.5 2.4 0.4 4.3-0.3 6.2-1.8 9.7-8 20.1-15.1 30.9-21.6 0.9-0.5 1.7-1.2 3.1-2.2-5.6-2.7-10.6-5-16.1-7.6 1.7-0.6 2.8-1.2 4.1-1.3 3.3-0.3 6.7-0.7 10-0.5 5.8 0.3 11-1.1 16.1-4 12.3-7.1 25.5-9.2 39.5-6.9 2.7 0.4 5.3 1.2 8.3 1.8 0.2-2.4 0.4-4.6 0.6-7.1 4.6 2.6 8.9 2 13-0.6 2-1.3 3.9-2.8 5.8-4.2 2.9-2.3 5.8-4.7 8.8-6.8 3.9-2.8 8.3-4.2 13.2-3.7 0.3 0 0.7-0.2 0.7-0.2 1.6-3.4 2.7-6.7 4.5-9.6 9.5-15.2 22.3-26.2 40.3-29.8 11-2.2 22.2-3.3 33.3-5.1 6.2-1 12.4-2.4 18.6-3.9 2.7-0.6 3.4-2.3 2.2-4.8-0.5-1.2-1.4-2.3-2.3-3.1-1-1-2.3-1.8-3.6-2.4-5-2.3-7.1-6.2-6.6-11.6 0.1-1.3 0.1-2.6 0.4-3.9 2.4-13.2 9.8-22.9 21.7-29.1 15.3-8 31.1-14.8 47.7-19.5 4.4-1.3 8-3.6 10.5-7.6 2.6-5.1 6.5-8.8 12.5-10.8z m92.6 78.8c-0.2 0.3-0.5 0.5-0.6 0.9-6.9 15.2-13.8 30.5-20.7 45.7-1.2 2.6-1.1 5.1 0.6 7.5 0.3 0.4 0.5 0.8 0.8 1.2 4.3 6.9 3.2 15-2.8 20.5-1.4 1.3-2.9 2.5-4.4 3.7-3.9 3-5.7 7-5.4 11.9 0.8 12.3 1.4 24.6 2.5 36.8 0.8 9.2 2.1 18.3 3.3 27.4 0.3 1.9-0.3 3.1-1.7 4.3-4.6 3.8-9.9 5.7-15.7 6.4-7.7 1-15.3-0.3-22.8-1.8-7.1-1.5-14.2-3.3-21.6-3.3-4 0-5.1 0.7-6 4.6-1.1 4.9-3.6 9-6.9 12.8-1.8 2.1-3.6 4.1-5.4 6.2-2.8 3.3-5.2 6.9-6.4 11.1-2.4 8.2-4.5 16.5-6.8 24.9 33.2 21.3 64.6 44.7 94.3 70.3 81.5-81 84.7-209.6 25.7-291.1z m-47.8-73.5c-72.1-52.1-179.3-63.7-268.6-11.1-45.4 26.7-79 64.2-100.9 112-14.5 31.7-21.7 65.1-22 100.1 4.1 0.3 7.7 0.8 11.4 0.4 1.4-60.7 21.6-113.7 62.5-158.1 40.8-44.4 91.7-69.9 151.8-75.8 60.1-5.8 114.7 9.7 164 45 1.2-1.3 2.4-2.5 3.8-3.9-4.4-2.6-8.9-3.5-13.5-5 3.7-1.2 7.4-2.3 11.5-3.6z m-72.7 217.4c0.7-2.3 2.4-3.2 4.1-4 1.7-0.8 3.5-1.4 5.3-2.3 8-3.9 11.9-14 8.9-22.3-1.2-3.2-3.2-5-6.8-5.3-12.9-1.1-25.7-2.3-38.6-3.6-5.1-0.5-9.1 1.2-12.2 5.2-8.1 10.1-16.2 20.1-24.3 30.1-0.6 0.7-1.3 1.6-1.3 2.5 0.1 7.6-0.4 10.3 7.4 13.7 0.5 0.2 1.1 0.5 1.6 0.7 11.1 4.9 22.3 9.9 33.4 14.8 1.3 0.6 2.5 1.2 4 2 0 5.5 0.2 10.9 0 16.2-0.2 5.5-0.9 10.9-1.4 16.6 0.9 0.5 1.9 1 2.4 1.3 5.2-7.9 10.1-15.5 15-23.1 2.5-3.9 5-7.9 7.2-12 2.5-4.5 4.2-9.3 5-14.5 1.3-8.1-1.6-13.1-9.7-16z m108.1 159.1c27.1-28 46.8-60.1 58.5-96.9 15.8-49.3 16.2-98.9 1.4-148.5-8.3-27.8-21.3-53.2-39-76.8-1.6 3.4-2.8 6.3-4.3 9-1.1 2.1-0.9 3.5 0.4 5.5 24 34.8 37.8 73.3 41.1 115.4 2.1 26.9-0.1 53.5-7 79.6-10.4 38.9-29.5 72.9-57 102.2-0.9 0.9-1.7 1.9-2.6 2.9 3 2.7 5.6 5.1 8.5 7.6zM558.2 495.2c0.6-3.9 1.1-7.1 1.6-10.2 0.1-1.1 0.1-2.1 0.1-3.2-0.2-6.8-3.1-10.7-9.5-12.7-1.1-0.4-2.3-0.7-3.5-1-16.5-4.3-33-8.6-49.6-12.9-1.1-0.3-2.2-0.7-3.3-1-0.5-2.4 0.7-4 1.9-5.4 1.4-1.6 3-3.1 4.3-4.8 2.9-3.9 1.2-8-3.6-8.7-1.3-0.2-2.6 0-3.9 0.3-1.8 0.5-3.6 1.4-5.3 2-8.6 3.2-17.2 6.4-25.9 9.5-2.2 0.8-4.5 1.2-6.7 1.8 36 12.1 70 27.7 103.4 46.3z m-93.3-74.1c-3.4-1.2-6.3-2.2-9.2-3.4-4.2-1.7-8.2-3.9-11.4-7.2-3.8-4-6.1-8.6-5.8-14.2 0.1-1.4 0.4-2.8 0.6-4.1-4-2.7-8.6-1.8-11.3 2.2-1.6 2.3-2.3 5-2.3 7.8 0 3.5 0.2 6.9 0.4 10.4 0.4 7.6-2.5 13.5-8.8 17.8-3.8 2.6-8.1 4.1-12.6 4.7-1.3 0.2-2.7 0.4-4 0.7 7.1 1.8 14.2 3.1 21.1 4.8 8.5 2 16.9 4.4 25.3 6.6 1.3 0.4 2.6 0.9 4-0.2 8.4-6.7 13.1-15.1 14-25.9z m158.3 23.1c0.7 0.3 1.1 0.5 1.5 0.7 11.5 3.3 23.3 4.1 35.2 2.9 2.3-0.2 4.5-0.6 6.7-1.1 2.6-0.6 3-1.9 1.7-4.2-0.6-1-1.4-1.9-2.2-2.8-5.5-6.7-10.8-13.4-14.3-21.4-0.8-1.7-1.8-3.4-2.8-5-2.8-4.5-4.6-4.5-7.3 0.1-2.2 3.8-4.2 7.8-6.1 11.7-2.3 4.7-4.8 9.3-9.4 12.4-2.2 1.5-3.6 3.6-3 6.7z m-245.3-11.8c0.1 0.3 0.1 0.6 0.2 0.9 3.4 0.4 6.8 0.9 10.2 1.1 1.6 0.1 3.4 0.2 4.9-0.3 4.8-1.5 9.6-3 14.2-5 2.3-1 4.4-2.8 6.3-4.6 1.8-1.7 2.8-3.9 2-6.9-14.8-0.7-26.7 6-37.8 14.8z m253.7-176.7c1.3 0.1 2.1 0.3 2.9 0.3 3.2-0.3 5.8-2 8.3-4 3.3-2.6 6.6-5.1 9.9-7.7 0.4-0.3 0.9-0.7 1.8-1.5-3-0.4-5.3-0.7-7.6-1-3.2-0.4-5.5 0.6-7.1 3.6-1.3 2.5-4.2 3.8-5 6.8-0.3 1.3-1.8 2.2-3.2 3.5z m22.5-19.3c0.1-0.3 0.2-0.5 0.3-0.8-2.1-1.4-4.2-2.8-6.8-4.5 0.3 2 0.5 3.3 0.8 4.9 2 0.1 3.9 0.3 5.7 0.4zM634.4 654.2c-95.1 47.9-225.3 30.6-304.5-62 2-0.2 3.7-0.5 5.3-0.5 12.9 0.2 25.8 0.3 38.7 0.9 13 0.6 26.1 1.4 39 2.6 13.6 1.2 27.1 2.7 40.7 4.4 20.2 2.6 40.2 6.1 60.1 10.5 33.4 7.4 65.9 17.3 96.9 31.7 8 3.7 15.5 8 23.8 12.4zM812.8 859.7c-0.4 1.7-0.7 3.3-1.2 5-2.5 7.6-7.3 13.5-14.1 17.6-12.2 7.2-24.9 7.8-37.7 1.8-10.6-5-15.9-13.8-16.7-25.4-0.6-9.2 2.7-16.6 10.2-22.2 2.7-2 5.4-4 8.1-5.9 0.7-0.5 1.4-1.1 2.5-1.9-1.1-0.7-1.9-1.2-2.7-1.6-5-2.9-9.9-6.1-14-10.2-4-4-7.1-8.5-8.2-14.1-2.6-13.4 1.5-24.5 12.5-32.8 8.8-6.6 18.9-8.9 29.8-7.8 5.6 0.6 10.9 2 15.8 4.7 8.4 4.6 13.6 11.5 15.1 21 1.5 9.8-0.8 18.4-9.2 24.5-3.4 2.5-7 4.9-10.4 7.3-0.8 0.6-1.6 1.1-2.7 1.8 0.9 0.6 1.6 1.1 2.3 1.6 3.7 2.7 7.5 5.3 11.1 8.3 3.9 3.3 6.8 7.5 8.5 12.4 0.5 1.4 0.9 2.9 1.3 4.3-0.3 4-0.3 7.8-0.3 11.6zM797 794.4c0-1 0.1-2 0-3-0.9-14.6-11.1-23.9-25.4-22.9-7.4 0.5-13.1 4-16.1 11-2.2 4.9-2.5 10.2-1.7 15.4 0.9 5.6 4 10 8.2 13.7 5.4 4.8 11.8 8 18.2 11.1 0.9 0.4 1.5 0.2 2.2-0.3 9.3-5.8 14.6-13.9 14.6-25z m-24.6 35.4c-7.4 4.6-12.4 10.8-14.3 19.2-0.9 4.2-0.9 8.4-0.2 12.7 2.2 13.4 11.8 20.8 23.7 19.8 6.9-0.6 12-3.9 14.9-10.2 2.4-5.2 2.8-10.6 1.9-16.2-1.1-6.7-5.1-11.7-10.2-15.8-4.9-3.8-10.2-6.7-15.8-9.5zM254.5 829.4c2.3 1.8 4.2 3.2 6 4.7 6 5 11 10.9 14.9 17.8 8.3 14.4 16.6 28.9 25.5 43 5.9 9.4 14.9 15.2 26 17.3 2.4 0.4 4.9 0 7.3 0h6c0.8 1.6 0.3 2.7-1 3.7-3.5 2.7-7.5 4-11.8 4.6-6.2 1-12.3 0.4-18.4-0.8-1.7-0.3-3.3-1-4.8-1.8-12.9-6.3-22.8-15.9-30.6-27.8-1.5-2.3-2.9-4.8-4.2-7.3-6.1-11.3-12.1-22.7-18.2-34-1.3-2.5-2.8-4.9-4.5-7.1-1.5-2.1-3.4-3.9-5.3-5.7-0.9-0.8-2.1-1.5-3.3-1.8-5-1.4-10.2-1-15.5-0.9-0.1 1.1-0.1 2-0.1 2.9v26.9c0 2.8 0.2 5.6 0.5 8.4 0.6 5 2.6 7.2 7.4 8.4 1.8 0.5 3.7 0.7 5.6 1 1.1 0.2 2.3 0.3 3.6 0.5v4.7c-1.9 0.6-47.3 0.8-50.2 0.1v-4.8c2.2-0.3 4.4-0.7 6.6-1 0.7-0.1 1.4-0.2 2.1-0.4 5.4-1.3 7.3-3.4 7.8-8.9 0.2-2.7 0.3-5.4 0.3-8.1v-75c0-3.4-0.2-6.9-0.7-10.3-0.4-3.6-2.7-5.9-6.2-6.7-3.2-0.7-6.4-1.2-9.8-1.8v-5c0.8 0 1.6-0.1 2.4-0.1H239c6.4 0 12.7 0.5 18.9 2.1 4.3 1.1 8.4 3 11.9 5.8 8.4 6.7 11.3 15.7 10.6 26-0.7 10-5.5 17.9-13.6 23.7-2.8 2.1-6.1 3.6-9.1 5.4-0.9 0.6-1.9 1.4-3.2 2.3z m-31.9-2.6c6.6 0.1 12.7 0.4 18.8-0.7 10.9-2 17.7-8.5 20.5-19.2 1.4-5.5 1.4-11.1 0.1-16.7-2.1-9.5-8-15.6-17.4-18.2-4.5-1.2-9.1-1.6-13.7-1.1-1.3 0.2-2.7 0.4-4 0.7-2.2 0.6-3.6 2.1-3.9 4.4-0.2 1.8-0.4 3.6-0.4 5.4v45.4zM411.3 886.6v-3.2c0-0.6 0.1-1.2 0.1-2.1 2.6-0.4 5.1-0.7 7.5-1.1 1.2-0.2 2.5-0.5 3.7-0.8 3.6-1 5.6-3.5 6.1-7.2 0.3-2.3 0.5-4.7 0.5-7v-79c0-2.3-0.2-4.7-0.4-7-0.6-5-2.7-7.5-7.7-8.5-3.1-0.6-6.2-1-9.6-1.4v-5c0.6-0.1 1.3-0.2 2-0.2H466c6.5 0 13 0.7 19.3 2.6 3.6 1.1 6.9 2.6 10 4.8 13.5 9.4 13 27.3 4.5 37.1-4.3 5-9.8 8.2-16 10.3-0.9 0.3-1.9 0.7-2.8 1-0.1 0-0.1 0.1-0.4 0.4 2 0.5 3.8 0.9 5.7 1.3 4.6 1.1 9 2.7 13.2 5 16.7 9 17.1 26.1 11.2 37.5-3.2 6.1-8.1 10.6-14 14-8.6 5-18 7.7-27.9 8.1-9.1 0.4-18.3 0.3-27.5 0.4-8.9 0.1-17.8 0-26.7 0h-3.3z m35.1-62c-0.1 1.1-0.1 1.7-0.1 2.3v35.8c0 2.3 0.2 4.5 0.5 6.8 0.8 5.9 3.7 8.8 9.6 9.7 4.9 0.8 9.8 0.8 14.6-0.1 12.5-2.1 21.9-9.8 23.3-23.5 1.4-14-4.6-23.9-17.6-28.2-0.5-0.2-1-0.3-1.6-0.5-5.9-1.8-12.1-2.3-18.3-2.4-3.4 0.1-6.8 0.1-10.4 0.1z m-0.2-6.5c6.2-0.2 12.1-0.1 18-0.6 3.4-0.3 6.8-1.2 10-2.3 7-2.5 11.1-7.5 12.5-14.8 0.4-2 0.6-4.1 0.6-6.2-0.2-9.4-4-16.6-12.9-20.5-7.5-3.3-15.3-3.3-23.2-2-0.3 0-0.5 0.1-0.8 0.2-2.2 0.7-3.5 2.1-3.8 4.5-0.2 2.2-0.4 4.3-0.4 6.5V818.1z" p-id="7035"></path><path d="M400.7 793.9h-5.4c-0.3-0.8-0.6-1.5-0.9-2.3-0.9-2.8-1.7-5.5-2.6-8.3-1.1-3.4-3.3-5.7-6.5-7.3-5-2.6-10.3-4.1-15.8-4.6-8.1-0.8-16.1-0.6-23.9 2-11.3 3.6-19.1 11.2-23.6 22-3 7.1-4.2 14.6-4.6 22.2-0.6 11.8 0.5 23.5 4.6 34.8 1.8 5.1 4.4 9.9 7.8 14.2 7.2 9.2 16.9 14.1 28.4 15.3 6.2 0.7 12.5 0.5 18.7-0.9 6.7-1.5 12.4-4.8 16.7-10.1 2.8-3.4 5-7.3 7.5-10.9 0.5-0.8 1-1.7 1.6-2.8 1 0.6 1.9 1.1 2.6 1.5-0.9 8-1.7 15.7-2.6 23.7-0.9 0.3-2.1 0.7-3.2 1.1-7.9 2.3-15.7 5.3-23.7 6.9-22.1 4.3-42.4-0.1-59.6-15.2-11.1-9.7-17.5-22.3-19.8-36.8-2.4-14.5-1.1-28.7 4.8-42.3 7.6-17.6 21.2-28.1 39.6-32.4 15.8-3.7 31.5-3.2 46.9 2.2 3.1 1.1 3.8 0.9 5.7-1.7 1-1.4 1.7-3.2 2.3-4.8 0.3-0.8 0.3-1.7 0.5-2.7h4.5c0.3 1.8 0.5 32.7 0 37.2zM673 831.2c-2.5-1.5-4.7-2.6-6.6-4.1-3.4-2.5-7-4.9-10-7.8-13.5-12.7-10.7-32.2-0.6-42.7 6.9-7.1 15.5-11 25.2-11.9 7.1-0.7 14.1 0 20.8 2.7 10.5 4.2 17.4 11.5 19.3 23 1.6 9.8-0.8 18.4-9.1 24.6-3.5 2.6-7.1 5-10.7 7.5-0.8 0.6-1.6 1.1-2.6 1.8 1 0.7 1.8 1.2 2.7 1.7 4.1 2.5 7.9 5.4 11.4 8.7 14.8 14.1 11 36.3-2 47.1-12.6 10.5-30.3 11.3-43.4 4.3-9.7-5.3-14.6-13.7-15.3-24.6-0.6-9.2 2.6-16.6 10-22.2l8.1-6c0.9-0.7 1.7-1.3 2.8-2.1z m33.3-35.4c-0.1-1.2-0.3-3.5-0.7-5.7-2-11.4-10.4-18.7-21.9-19.2-8.8-0.4-15.7 3.6-19 10.9-2.3 5.1-2.7 10.5-1.7 15.9 1.2 6.4 5.1 11.1 10.1 15 4.9 3.9 10.5 6.7 16.1 9.5 0.9 0.5 1.7 0.4 2.5-0.2 9.2-5.9 14.4-14.1 14.6-26.2z m1.8 66.7c-0.1-7-2.6-12.8-7.5-17.6-2.1-2.1-4.5-4-7-5.6-3.2-2.1-6.8-3.9-10.1-5.9-1.5-1-2.7-0.8-4.2 0.2-13.9 9.6-15.3 25.6-10.5 37.4 3.1 7.5 8.8 11.9 16.8 12.9 9.3 1.2 18.2-2.8 21-13.7 0.9-2.5 1.1-5.1 1.5-7.7zM609.4 828c-2.1 1.3-4.3 2.7-6.4 4-0.9 0.6-1.9 1.1-2.8 1.7-13.8 10.8-38.5 5.6-47.3-14.4-9.3-21.4 2.2-47 24.5-53.3 15.7-4.5 30.5 0.4 40.1 14.3 5.2 7.5 7.9 15.8 9.1 24.7 2.2 16.4-0.4 32-8.4 46.5-11.2 20.2-28.2 32.6-50.8 37.5-0.8 0.2-1.6 0.3-2.4 0.5-0.2 0-0.4 0-0.8-0.1-0.6-1.5-1.2-3.2-1.9-5 27.9-8.7 43.6-27.5 47.8-55.9-0.3-0.2-0.5-0.3-0.7-0.5z m0.9-13.5c-0.3-6.1-1.1-12.1-2.6-18-1.6-6.5-3.9-12.8-8.3-18.1-4.8-5.8-11-8.1-18.4-6.7-7.1 1.4-11.3 6-13.6 12.7-1.6 4.9-1.9 9.9-1.5 15 0.5 7 2.5 13.5 6.8 19.2 4.1 5.4 9.4 8.8 16.2 9.4 6.6 0.6 12.7-1.2 18.4-4.6 2.4-1.4 3.5-3.2 3.1-6-0.2-0.9-0.1-1.9-0.1-2.9z" p-id="7036"></path></svg>