<?xml version="1.0" encoding="utf-8"?>
<!-- Generator: Adobe Illustrator 23.1.1, SVG Export Plug-In . SVG Version: 6.00 Build 0)  -->
<svg version="1.1" id="圖層_1" xmlns="http://www.w3.org/2000/svg" xmlns:xlink="http://www.w3.org/1999/xlink" x="0px" y="0px"
	 viewBox="0 0 1024 1024" style="enable-background:new 0 0 1024 1024;" xml:space="preserve">
<g>
	<path d="M500.7,741.4c-50.6,0-101.1,0.1-151.7,0c-78.4-0.1-139.1-61-139.1-139.5c0-99.6,0-199.3,0-298.9
		c0-78.4,60.9-139.1,139.4-139.2c100.8-0.1,201.7-0.1,302.5,0c78.3,0.1,139.1,61,139.2,139.5c0.1,99.6,0.1,199.3,0,298.9
		c-0.1,78.4-60.9,139.1-139.4,139.2C601.2,741.5,551,741.4,500.7,741.4z M439.8,417.9c3.2,3,4.8,4.3,6.2,5.7
		c35.9,36,71.7,72.1,107.7,108c4,3.9,9,7.7,14.3,9.2c10,2.9,19.8-2.4,24.7-11.5c4.9-9.2,3.5-18.7-4.5-26.8
		c-51.4-51.7-102.9-103.3-154.3-154.9c-7.7-7.7-16.1-9.4-25-5.5c-9.3,4-14.5,12.7-14.5,23.5c0.2,45.3,0.3,90.7,0.5,136
		c0,6.4-0.3,12.9,0.6,19.3c1.9,13.9,15.2,22.2,28.5,18.2c9.7-2.9,15.8-12,15.8-24.2C439.8,483.3,439.8,451.7,439.8,417.9z
		 M736.2,515.1c-1.2-2.3-2.9-7.8-6.5-11.5C678,451.3,626.1,399.2,574.1,347.2c-9.4-9.4-23-8.8-32,0.5c-8.8,9.1-9,22,0.2,31.3
		c51.8,52.2,103.8,104.2,155.8,156.2c6.8,6.8,16.3,8.2,24.5,4.2C731.4,535.2,736.1,528.2,736.2,515.1z M292.8,440
		c0,24.5-0.1,49,0,73.5c0.1,16.2,9.1,26.6,22.8,26.4c13.3-0.1,22.2-10.2,22.5-25.9c0.1-6.4,0-12.9,0-19.3c0-41,0-82,0-123
		c0-2.8,0.1-5.5-0.1-8.3c-1.2-13.8-10.4-23-22.8-22.9c-12.7,0.1-22.2,10-22.4,24.2C292.7,389.8,292.9,414.9,292.8,440z"/>
</g>
<g>
	<path d="M743.5,896.3c6.9,5.8,13.7,11.5,21.8,18.2c-11.2,3.5-18.1,2.1-23.3-6c-2.2-3.4-5.5-6.1-7.8-9.4c-3.7-5.3-8.3-6.8-15.1-4.4
		c0,6.7,0,13.6,0,21c-3.8,0-6.9,0-10.4,0c0-19.3,0-38.5,0-58.8c14.3,0,29-1.7,43.1,0.5c12.5,1.9,6.5,14.2,7.5,22.1
		c0.7,6.1,0.4,12.8-8.1,14c-2,0.3-4.1,0.3-6.1,0.4C744.6,894.7,744.1,895.5,743.5,896.3z M719.5,883.2c8.8,0,16.6,0.5,24.4-0.3
		c1.9-0.2,4.6-4.6,4.6-7c0-2.9-2.4-8.1-4.2-8.3c-8.2-0.9-16.5-0.4-24.8-0.4C719.5,873.1,719.5,877.6,719.5,883.2z"/>
	<path d="M562.7,915.8c-3.3,0-6.1,0-9.6,0c0-12.3,0-24.2,0-36.1c-0.6-0.2-1.2-0.4-1.8-0.7c-6.3,10.1-12.5,20.2-19.5,31.5
		c-7.1-11.7-13.4-22-21.1-34.7c0,14.8,0,27.2,0,40c-3.6,0-6,0-8.9,0c0-19.6,0-38.8,0-58.2c6.1-2.5,9.5-0.1,12.6,5.2
		c5.5,9.6,11.6,18.9,18.3,29.6c4.6-7.6,8.3-14.8,13.1-21.2c4.3-5.7,4.6-17,17-14C562.7,876.5,562.7,895.7,562.7,915.8z"/>
	<path d="M210.4,857.1c3.7,0,6.5,0,9.8,0c0,19.5,0,38.9,0,60.9c-4.6-2.5-8.7-3.6-11.3-6.2c-11-11.1-21.6-22.6-33.9-35.6
		c0,14.6,0,26.9,0,39.6c-3.7,0-6.5,0-9.8,0c0-19.5,0-38.9,0-60.8c4.5,2.4,8.6,3.5,11.3,6.1c11,11,21.6,22.5,33.9,35.4
		C210.4,882.2,210.4,869.8,210.4,857.1z"/>
	<path d="M255.5,893.1c0,8.4,0,15.4,0,22.7c-3.7,0-6.7,0-10.2,0c0-19.5,0-38.6,0-58.9c14.3,0,28.7,0,43.1,0c0.6,0,1.2,0.2,1.7,0.5
		c10.4,6.9,5.3,17.4,5.7,26.4c0.3,6.2-4.4,9.2-10.4,9.3C275.8,893.2,266.2,893.1,255.5,893.1z M256,882.8c8.4,0,16,0.5,23.4-0.3
		c2.2-0.2,5.6-4.1,5.7-6.4c0.1-2.9-2.4-8.2-4.2-8.4c-8.2-0.9-16.5-0.4-24.8-0.4C256,872.9,256,877.2,256,882.8z"/>
	<path d="M832.2,885.6c-7.5-9.5-14.5-18.4-21.7-27.6c17.6-6.4,19.7,10.4,29,17.9c3.3-4.4,7.2-8.6,9.8-13.5c3.6-6.6,9.1-6.1,16.4-5.1
		c-6.6,9-12.9,17.5-19.7,26.8c8,10.2,16,20.4,24.6,31.4c-9,1.9-15.7,1.6-20.4-6.9c-2.9-5.3-7.2-9.8-10.7-14.3
		c-10.3,6.5-9.7,25.9-29.1,21.3C817.8,905.4,824.8,895.8,832.2,885.6z"/>
	<path d="M429.2,915.2c-8.8,3.2-13.1,0.1-16.1-7.9c-4.6-12.5-10.4-24.6-16.4-38.5c-6.2,14.1-11.9,27-17.6,40
		c-3.5,7.9-3.4,7.9-14,6.9c8.6-19,16.9-37.8,25.6-56.4c1.9-4.1,10.9-3.6,12.9,0.7C412.4,878.2,420.7,896.7,429.2,915.2z"/>
	<path d="M641.7,915.4c-9.5,2.9-13.6-0.7-16.5-8.7c-4.5-12.5-10.3-24.5-16.2-38.1c-6.1,14.1-12,26.7-17.1,39.7
		c-2.5,6.4-5.6,9.9-13.8,7c0.9-2.4,1.8-5,2.9-7.5c6.9-15.4,13.7-30.9,21-46.1c1.1-2.3,4.3-4.5,6.8-4.8c2.5-0.2,6.6,1.4,7.6,3.4
		C625,878.4,633.2,896.8,641.7,915.4z"/>
	<path d="M323.9,904.9c12.7,0,23.7,0,35.1,0c0,3.8,0,6.9,0,10.7c-14.9,0-29.8,0-45.5,0c0-19.2,0-38.5,0-58.4c3.1,0,6.2,0,10.4,0
		C323.9,872.6,323.9,888.2,323.9,904.9z"/>
	<path d="M429.1,857.8c9.6-2.9,16-0.7,20.3,7.5c2.4,4.6,6,8.5,9,12.7c11-5.4,10.5-25.6,29.5-20.4c-12.1,17.8-31.6,32.1-21.9,58
		c-5.5,0-8.8,0-14,0C460,890.5,441.7,875.4,429.1,857.8z"/>
	<path d="M694.4,857.4c0,3.1,0,5.9,0,9.5c-6.7,0-13.3,0-20.9,0c0,16.6,0,32.5,0,48.8c-4.1,0-7.1,0-11.4,0c0-16,0-31.9,0-48.5
		c-7.8,0-14.4,0-21.6,0c-0.2-3.5-0.3-6.3-0.5-9.9C658.3,857.4,676.1,857.4,694.4,857.4z"/>
	<path d="M139.9,916c-3.4,0-6.2,0-9.7,0c0-19.4,0-38.8,0-58.9c2.9-0.1,6-0.3,9.7-0.4C139.9,876.4,139.9,895.7,139.9,916z"/>
	<path d="M782.6,857c3.3,0,6.1,0,9.6,0c0,19.4,0,38.7,0,58.9c-2.9,0.1-5.9,0.3-9.6,0.5C782.6,896.6,782.6,877.3,782.6,857z"/>
</g>
</svg>
