<?xml version="1.0" standalone="no"?><!DOCTYPE svg PUBLIC "-//W3C//DTD SVG 1.1//EN" "http://www.w3.org/Graphics/SVG/1.1/DTD/svg11.dtd"><svg t="1574762011535" class="icon" viewBox="0 0 1024 1024" version="1.1" xmlns="http://www.w3.org/2000/svg" p-id="8398" xmlns:xlink="http://www.w3.org/1999/xlink" width="200" height="200"><defs><style type="text/css"></style></defs><path d="M231.5 890c6.4 6.5 12.7 13 19.2 19.7-2.6 2.4-5 4.7-7.7 7.2l-19.3-19.3c-0.5 0.3-1 0.6-1.4 0.9-12.7 10-27.3 15.4-43.3 16.9-11.2 1-22.4 0.9-33.3-2.4-27.7-8.3-46-26.1-53.8-54.2-2.2-7.7-3.3-15.7-3.4-23.7-0.1-14.6-0.2-29.3 0-43.9 0.2-14.6 3.6-28.4 10.8-41.2 7.7-13.5 18.7-23.3 32.5-30.3 7.3-3.7 15-5.3 22.9-6.9 21.2-4.2 40.8 0.4 59.4 10.6 12.1 8.2 22.5 18 28.7 31.6 4.7 10.2 7.4 20.9 7.6 32.2 0.2 8.1 0.1 16.3 0.2 24.4v26.5c-0.2 19-6.3 36-18.2 50.8-0.3 0.2-0.5 0.6-0.9 1.1z m-8.7-9.3c0.6-0.7 1-1.1 1.4-1.6 7.8-9.4 13.1-20 14.8-32.3 0.7-5.1 1.2-10.1 1.2-15.2-0.1-12.2 0-24.4 0-36.7 0-4.6-0.5-9.1-1.2-13.6-2.7-17.6-16.8-40.2-36.3-49.2-6.1-2.8-12.2-5.6-18.8-6.7-3.3-0.6-6.7-0.6-10.1-1.2-2.8-0.4-5.6-0.7-8.4-0.4-3.2 0.4-6.4 0.7-9.6 1.3-8.2 1.5-16 3.9-23.3 8.2-15 8.8-24.8 21.6-29.5 38.4-2.2 8-3.1 16.3-3.1 24.6 0 11.4-0.1 22.8 0 34.2 0 4.1 0.2 8.1 0.6 12.2 0.9 8 2.9 15.8 6.3 23.1 7.9 16.6 20.8 27.7 38.3 33.5 7.9 2.6 15.9 4.3 24.4 4.1 16-0.2 30.6-4.7 43.9-13.3 0.5-0.3 1-0.7 1.6-1.2-13.5-13.6-26.8-27.2-40.3-40.8 2.7-2.5 5.1-4.8 7.7-7.2l40.4 39.8zM581.1 854.4h11.3c0.4 1.9 0 3.7-0.3 5.5-0.9 5.1-2.7 10-4.9 14.7-1.8 3.7-3.7 7.4-5.7 11-0.4 0.7-0.9 1.4-1.4 2-8.8 11.1-19.9 19.3-33.1 24.5-4.1 1.6-8.6 2.5-13 3.3-13.1 2.4-26.2 2.2-39.2-1.4-8.3-2.3-16-6.1-23.2-10.7-0.3-0.2-0.7-0.5-1-0.7-5.5-5-10.8-10.3-15.5-16-4.1-5.1-6.5-11-8.6-17.1-3.8-10.8-5.4-22-4.6-33.4 0.6-9.2 3.1-17.9 6.3-26.5 5.4-14.3 15.6-24.3 28.3-32.2 8.2-5.1 17.3-7.9 26.7-9.5 3.5-0.6 7.1-1.2 10.6-1.6 4.8-0.6 9.5-0.1 14.2 0.5 16.2 2.1 30.4 8.6 42.8 19.3 1.5 1.3 2.8 2.7 4 4.2 3.2 3.9 6.4 7.7 8.9 12.2 6.9 12.4 10 25.8 9.7 39.9 0 0.2 0 0.4-0.1 0.6 0 0.1-0.1 0.1-0.3 0.4H453.9c0 2.8-0.2 5.5 0 8 0.8 7.6 3.2 14.8 6.7 21.6 3.4 6.6 7.7 12.4 13.7 16.9 2.2 1.6 4.3 3.3 6.4 4.9 6.5 4.8 14 7.4 21.7 9.2 15.7 3.7 30.9 1.9 45.4-4.9 9.3-4.3 16.6-11 22.6-19.3 5.2-7.2 8.8-15.1 10.1-24 0.3-0.4 0.5-0.8 0.6-1.4z m0.2-22.2c0.1-0.3 0.2-0.5 0.1-0.7-0.4-2.1-0.7-4.2-1.2-6.3-4.4-19.7-16.1-33.4-34.4-41.5-6.1-2.7-12.7-4.3-19.3-5.4-5.3-0.9-10.6-1.2-15.9-0.1-5.5 1.1-11 2.4-16.6 3.7-2.7 0.6-5.2 1.7-7.6 3.1-6.9 3.8-12.9 8.8-18.4 14.3-0.4 0.4-0.8 0.8-1 1.3-2.3 3.6-4.6 7.2-6.7 10.9-2.4 4.4-4.1 9.2-5 14.2-0.4 2.1-0.9 4.3-0.4 6.6 42.2-0.1 84.3-0.1 126.4-0.1zM774.3 916.7h-10.9V710c1.5-0.4 8.3-0.5 10.9-0.1v89.2c0.1 0 0.3 0.1 0.4 0.1 0.2-0.3 0.5-0.5 0.7-0.9 6.5-10.9 15.9-18.5 27-24.3 14.8-7.7 30.7-9.8 47-8.3 8.7 0.8 16.8 3.7 24.6 7.6 4.1 2.1 8.1 4.5 12.1 6.8 0.5 0.3 1 0.7 1.5 1.1 4.8 4.1 9.3 8.6 13.2 13.7 3.4 4.4 6 9.2 8.1 14.4 1.5 3.7 3.2 7.3 4 11.3 1.5 7.1 2 14.2 2 21.4v74.5c-1.5 0.5-8 0.6-11 0.2 0-0.8-0.1-1.6-0.1-2.4v-70.6c0-6.2-0.4-12.4-1.7-18.5-3.1-14.3-10.4-26-22.3-34.7-7-5.1-14.5-9.4-23.1-11.2-7.6-1.6-15.4-2.6-23.2-2-10.1 0.8-19.5 3.7-28.3 8.6-4.2 2.3-8.3 4.8-11.8 8-4.3 4-8 8.6-10.8 13.8-3.5 6.6-5.7 13.6-7 20.9-1.2 6.5-1.6 13.2-1.6 19.8V914c0.3 0.8 0.3 1.7 0.3 2.7zM748.8 905.8v11c-0.7 0-1.3 0.1-1.9 0.1-22.3 0-44.6 0.1-66.9 0-23.8-0.1-42.7-10.2-57.3-28.7-4.3-5.5-6.9-11.9-9.3-18.4-2.2-5.9-3.1-12.1-4.1-18.3-0.6-3.7-1.4-7.4-1.1-11.3 0.7-10.5 3-20.6 6.6-30.4 0.9-2.4 1.9-4.7 3.3-6.9 1.8-2.7 3.4-5.6 5.2-8.2 7.7-10.9 18.1-18.2 30.5-22.9 7.9-3 16-4.8 24.4-5.1 6.8-0.2 13.5-0.5 20.3-0.6 15.9-0.1 31.8 0 47.6 0h2.6v11.5h-51.4c-7.7 0-15.5 0.2-23.2 1.1-5.8 0.7-11.5 1.8-16.8 4.1-2.5 1.1-4.9 2.6-7.3 3.9-0.4 0.2-0.8 0.6-1.2 0.8-6.6 3.5-11.8 8.6-16 14.7-4.2 6.1-7.5 12.8-9.7 19.8-1.2 3.9-1.6 8-2.3 12-0.3 2-0.6 4.1-0.7 6.2-0.1 2.1 0 4.3 0.3 6.4 0.8 4.9 1.3 9.9 2.7 14.6 5 18 16.1 31 32.9 39.1 5.1 2.5 10.7 3.5 16.4 4.3 7 1 14 1.3 21.1 1.3h52.6c0.9-0.1 1.7-0.1 2.7-0.1zM352 916.7h-11.1c-0.1-6.5 0-12.9 0-19.4v-19.7-19.5-19.5-19.7-19.5-19.5-19.5-19.7V721h-75.7v-10.7c1.4-0.4 159.5-0.6 162.1-0.1V721c-2.2 0-4.5 0.1-6.7 0.1H352.4c-0.4 65.4-0.4 130.4-0.4 195.6z" p-id="8399"></path><path d="M484.4 632.6c-6.3-0.3-12.7-0.7-19-1-28.7-1.3-57-5.3-84.3-15-11-3.9-21.5-8.6-30.5-16.1-6.8-5.7-11.8-12.5-13.2-21.5-1.1-7 0.6-13.5 3.3-19.7 0.6-1.4 2.1-2.6 3.4-3.6 13.1-11 25.5-22.8 36.6-35.8 14.6-17.2 26.2-36 33-57.6 1.7-5.3 3.5-10.6 2.3-16.5-0.8-3.8 1-7.5 3.1-10.8 4.6-7.1 10.3-13.1 17.6-17.5 7.5-4.5 15.6-8 24-10.5 14.8-4.5 29.8-7.5 45.1-9.2 16.4-1.8 31.6 2.4 45.7 10.9 2.7 1.6 5.4 2.8 8.6 3.3 8.2 1.4 14.9 5.2 20.3 11.8 28.7 34.7 61.3 65.5 96.9 93.1 2.3 1.8 3.5 3.7 3.6 6.6 0.5 12.4-0.2 24.5-4.6 36.3-6.1 16.4-17.1 28.7-31.6 38.1-12.7 8.4-26.7 14-41.3 18.2-26.5 7.5-53.6 12.5-81.1 14.7-9.4 0.7-18.9 0.9-28.3 1.4-1 0-1.9 0.3-2.9 0.4h-6.7zM760.6 377.8c-0.2 1.4-0.6 2.7-0.6 4.1 0 15.7-1.9 31.3-4.7 46.7-3.3 18.2-12.9 32.9-26.7 45-4.5 4-9.5 7.6-14.6 10.9-14 9-31.4 8.4-43.7-6.4-0.6-0.8-1.3-1.5-1.8-2.3-5.4-9.4-13.4-16.7-20.6-24.6-3.5-3.9-7.2-7.5-10.6-11.5-6.9-7.9-11.7-16.9-13.4-27.4-1.9-11.5 1.5-21.5 9.1-30.1 16.9-19.1 34.1-38 51-57.2 4.2-4.7 7.6-10.2 11.3-15.3 2.5-3.6 5.1-7.1 7.4-10.8 1.6-2.5 2.9-5.1 4.1-7.8 2-4.7 5.4-7.8 10-9.8 5.1-2.2 10.6-3 16.1-3 4.5-0.1 8.1 2.4 10.9 5.7 4.9 5.8 8.3 12.4 9.8 19.9 3.6 18.1 6.1 36.4 6.2 55 0 1.2 0.4 2.5 0.6 3.7 0.2 5 0.2 10.1 0.2 15.2zM575.1 89c9.9 10.3 15.8 22.6 17.6 36.7 1 7.5 0.7 15.1 0.9 22.7 0 1.8-0.4 3.6-1 5.4-1.3 3.9-4.1 6-8.2 6.2-4.3 0.3-8.7 0.4-13 0.7-3.1 0.1-6.1-0.6-8.1-2.9-3-3.3-5.7-6.9-8.2-10.6-0.7-1-0.5-2.8-0.2-4.1 0.6-2 1.4-4 2.5-5.8 1.3-2.3 2.8-4.6 4.6-6.6 5.6-6.7 7.5-14.7 7.7-23.2 0.1-3.1 0.3-6.2 0-9.3-0.4-3.9 0.9-6.9 3.8-9.3 0.4 0.1 1 0.1 1.6 0.1zM499.1 336.3c-0.9 5.8-1.6 12.2-3 18.5-0.7 3.2-2.3 6.4-3.9 9.3-2.7 4.8-7.1 7.5-12.6 8.4-1.5 0.2-3 0.7-4.4 1.3-19.6 9.2-40.2 14.6-61.8 16.3-2.2 0.2-4.5 0-6.7-0.4-7.4-1.4-14.5-3.7-21.2-7.1-17.2-8.7-24.7-23.1-23.8-42.6 0.2-3.1 0.5-6.2 1.3-9.2 1.8-6.5 1.9-13.1 1.8-19.7 0-1 0.1-2 0-3-0.9-8.8 1.4-17 4.3-25.2 5.7-15.7 11.9-31.1 20.7-45.3 7.2-11.6 15.5-22.2 26.5-30.5 12.7-9.6 26.9-13.9 42.9-11.7 10.1 1.4 18.4 6.1 25.1 13.6 1.4 1.5 2.2 3.2 2.4 5.3 1.4 14.4 2.9 28.9 4.4 43.3 1.9 18.2 3.8 36.4 5.6 54.7 0.9 7.9 1.6 15.6 2.4 24zM646 289.6c0 34.7-14.1 62.5-41.2 83.8-5 3.9-10.4 7.3-15.6 10.8-8.8 5.8-18.5 6.5-28.5 4.8-8-1.3-14.9-5-21.3-9.8-15-11.3-20.7-21-23.4-39.8-1.9-13-2.3-26.1-1.3-39.2 1-13 2.7-25.8 6.2-38.4 7.6-27.3 24.1-47.7 49.3-60.5 10.2-5.2 21.1-4.2 31.5 0.5 8 3.7 14.3 9.5 19.7 16.4 8.9 11.3 15.5 24 20.1 37.5 2.3 6.7 2.8 14.1 3.7 21.2 0.6 4.2 0.5 8.5 0.8 12.7zM296.7 339.6c5-0.1 9.3 0.9 13 3.4 8.6 6 18.1 10.4 26.8 16.1 11.2 7.3 20.5 16.7 29.4 26.6 2.9 3.2 5.9 6.5 8.8 9.7 7.2 8 11.9 17.1 12.8 27.9 0.7 8.6-0.9 16.9-4.8 24.6-7.8 15.4-17 29.9-28.2 43.1-1.3 1.5-2.7 2.9-4.2 4.1-8.3 6.8-16.7 13.4-25 20.2-2.1 1.8-4 2.4-6.8 1.3-19.7-7.1-37.1-17.8-52.1-32.4-14.7-14.3-22-32.4-26.7-51.9-1.7-6.9-0.8-12.5 2.8-18.7 11.8-20.2 22.9-40.8 34.3-61.3 4-7.5 12.4-12.7 19.9-12.7zM286.9 220.4c2.5 4.2 3.5 8.1 3.3 12.2-0.1 2.4 0.5 4.2 2.2 6 4.3 4.8 7.1 10.5 7.8 17 0.2 1.5 0.7 3 1.2 4.5 3.9 13.5 1.2 26.2-5.1 38.4-0.3 0.6-0.7 1.3-1.3 1.7-4.4 3.1-9.1 5.7-14.8 5.6-5.6-0.1-10.3-3.4-12.2-8.7-5-13.8-4.2-27.7 0.2-41.5 4.1-12.5 10.5-23.9 18.7-35.2zM710.6 165.8c13 13.4 24.2 27.7 25.9 47.4 0.9 9.9-3.7 17-11.1 22.8-0.2 0.2-0.5 0.3-0.7 0.4-9.2 5.8-26.4-1.2-29.6-9.8-0.9-2.3-1.5-5-1.3-7.4 0.5-5.3 1.3-10.7 2.7-15.8 1.9-7.1 6.1-12.4 13.8-14 2.5-0.5 3.2-2.3 3-4.4-0.6-4.7-1.4-9.5-2.2-14.2-0.3-1.6-0.8-3.2-1.2-4.8 0.2 0 0.4-0.1 0.7-0.2zM441 109.9c-0.6 3.7-1.5 7.4-1.8 11.1-0.3 3.1-0.1 6.2 0.2 9.2 0.3 2.8 2 4.7 5 4.9 1.8 0.1 2.8 0.8 3.6 2.3 5.3 9 7.1 18.6 5.7 28.9-0.3 2.6-1.5 4.7-3.6 6.4-5.4 4.4-11.4 7.3-18.2 8.3-6.5 1-11.8-1.2-15.2-6.8-3.5-5.7-5.2-11.7-3.9-18.5 2.6-14 9.2-25.9 18.3-36.6 2.9-3.4 6.2-6.5 9.3-9.7 0.2 0.2 0.4 0.4 0.6 0.5z" p-id="8400"></path></svg>