<?xml version="1.0" encoding="utf-8"?>
<!-- Generator: Adobe Illustrator 24.2.1, SVG Export Plug-In . SVG Version: 6.00 Build 0)  -->
<svg version="1.1" id="圖層_1" xmlns="http://www.w3.org/2000/svg" xmlns:xlink="http://www.w3.org/1999/xlink" x="0px" y="0px"
	 viewBox="0 0 1024 1024" style="enable-background:new 0 0 1024 1024;" xml:space="preserve">
<g>
	<path d="M503.7,389.5h144.6v74.9l-17.4,18.4H530.2v38.5h126.3L638.1,548H503.7V389.5z M562.3,456v-40h-32.2v40H562.3z M621.8,456
		v-40h-32.7v40H621.8z"/>
	<path d="M864.4,415.3h-22.1l10.9-22.4h55.5v-5.7l30.2-7.4v13.1h62.6v22.4H893.7l-4.9,8.7h77.1v-5.7h27.8v14.1l-13.6,12.9h-131
		L864.4,415.3z M852.8,451h142.4v98.3h-57.8l12.4-18.8h18.4v-6h-88.5v24.8h-27V451z M968.2,481.7v-6h-88.5v6H968.2z M968.2,506.1v-6
		h-88.5v6H968.2z"/>
	<g>
		<g>
			<polygon points="346,435.2 397.8,402.5 397.6,490 380.9,480.9 381.1,442.1 			"/>
			<polygon points="323.9,449.5 334.7,442.4 358.6,447.1 340.6,458.7 			"/>
			<polygon points="319.7,493.2 371.4,460.5 371.3,548.1 354.6,538.9 354.8,500.1 			"/>
			<polygon points="297.6,507.5 308.4,500.4 332.3,505.1 314.2,516.7 			"/>
		</g>
		<polygon points="483.8,461.4 456.8,461.4 456.8,401.1 483.8,421.3 		"/>
		<rect x="414.6" y="389.4" width="26.8" height="102.5"/>
		<polygon points="484.3,469.6 456.7,469.6 456.7,491 382.3,517.1 382.3,548.1 484.3,512.1 		"/>
	</g>
	<polygon points="720.5,385.5 692.3,385.5 668,463.1 682.6,463.1 682.6,548.2 708.6,548.2 708.6,445.6 701.2,445.6 	"/>
	<polygon points="787.8,405.4 787.8,385.5 761,385.5 761,405.4 726,405.4 710.9,430.6 761,430.6 761,494.6 753.5,494.6 745.3,520.9 
		761,520.9 761,548.2 787.8,548.2 787.8,520.9 799,520.9 799,494.6 787.8,494.6 787.8,430.6 831.2,430.6 831.2,405.4 	"/>
	<polygon points="717.6,458.2 717.6,548.4 743.6,548.2 743.6,438.1 	"/>
	<polygon points="802.8,547.9 802.8,438.1 828.8,458.5 828.8,547.9 	"/>
	<g>
		<path d="M364.2,614.8c-6,0-11.2-2.1-15.5-6.4c-4.3-4.3-6.4-9.4-6.4-15.5c0-6,2.1-11.2,6.4-15.5c4.3-4.3,9.4-6.4,15.5-6.4h24.5
			v15.5h-24.5c-1.8,0-3.3,0.6-4.6,1.9c-1.3,1.3-1.9,2.8-1.9,4.6c0,1.8,0.6,3.3,1.9,4.6c1.3,1.3,2.8,1.9,4.6,1.9h7.7
			c6,0,11.2,2.1,15.5,6.4c4.3,4.3,6.4,9.4,6.4,15.5c0,6-2.1,11.2-6.4,15.5s-9.4,6.4-15.5,6.4h-24.5v-15.5h24.5
			c1.8,0,3.3-0.6,4.6-1.9c1.3-1.3,1.9-2.8,1.9-4.6s-0.6-3.3-1.9-4.6c-1.3-1.3-2.8-1.9-4.6-1.9H364.2z"/>
		<path d="M470.2,643.2V571h29.7c6,0,11.2,2.1,15.5,6.4c4.3,4.3,6.4,9.4,6.4,15.5c0,5.5-1.8,10.2-5.3,14.2c3.4,4,5.2,8.7,5.2,14.1
			c0,6-2.1,11.2-6.4,15.5c-4.3,4.3-9.4,6.4-15.5,6.4H470.2z M485.7,586.4v12.9h14.2c1.8,0,3.3-0.6,4.6-1.9c1.3-1.3,1.9-2.8,1.9-4.6
			c0-1.8-0.6-3.3-1.9-4.6c-1.3-1.3-2.8-1.9-4.6-1.9H485.7z M485.7,614.8v12.9h14.1c1.8,0,3.3-0.6,4.6-1.9c1.3-1.3,1.9-2.8,1.9-4.6
			s-0.6-3.3-1.9-4.6c-1.3-1.3-2.8-1.9-4.6-1.9H485.7z"/>
		<g>
			<polygon points="404.1,621.1 431.9,570.7 471.4,642.9 453.5,642.9 436.1,610.9 			"/>
			<polygon points="392.4,642.9 398.1,632.2 419.9,625.2 410.3,642.9 			"/>
		</g>
		<g>
			<polygon points="532.5,621.1 560.4,570.7 599.9,642.9 582,642.9 564.6,610.9 			"/>
			<polygon points="520.8,642.9 526.5,632.2 548.3,625.2 538.7,642.9 			"/>
		</g>
	</g>
	<g>
		<path d="M655.9,615.7c-6,0-11.2-2.1-15.5-6.4c-4.3-4.3-6.4-9.4-6.4-15.5c0-6,2.1-11.2,6.4-15.5c4.3-4.3,9.4-6.4,15.5-6.4h24.5
			v15.5h-24.5c-1.8,0-3.3,0.6-4.6,1.9c-1.3,1.3-1.9,2.8-1.9,4.6c0,1.8,0.6,3.3,1.9,4.6c1.3,1.3,2.8,1.9,4.6,1.9h7.7
			c6,0,11.2,2.1,15.5,6.4c4.3,4.3,6.4,9.4,6.4,15.5c0,6-2.1,11.2-6.4,15.5c-4.3,4.3-9.4,6.4-15.5,6.4h-24.5v-15.5h24.5
			c1.8,0,3.3-0.6,4.6-1.9c1.3-1.3,1.9-2.8,1.9-4.6s-0.6-3.3-1.9-4.6c-1.3-1.3-2.8-1.9-4.6-1.9H655.9z"/>
		<path d="M708.3,615.7v28.4h-15.5v-72.2h29.7c6,0,11.2,2.1,15.5,6.4c4.3,4.3,6.4,9.4,6.4,15.5c0,6.1-2.1,11.2-6.4,15.5
			c-4.3,4.3-9.4,6.4-15.5,6.4H708.3z M708.3,587.4v12.9h14.2c1.8,0,3.3-0.6,4.6-1.9c1.3-1.3,1.9-2.8,1.9-4.6c0-1.8-0.6-3.3-1.9-4.6
			c-1.3-1.3-2.8-1.9-4.6-1.9H708.3z"/>
		<path d="M846.6,615.7v28.4h-15.5v-72.2h29.7c6,0,11.2,2.1,15.5,6.4c4.3,4.3,6.4,9.4,6.4,15.5c0,6.1-2.1,11.2-6.4,15.5
			c-1.7,1.7-3.6,3.1-5.5,4.1l14.9,30.7h-17.2l-13.8-28.4H846.6z M846.6,587.4v12.9h14.2c1.8,0,3.3-0.6,4.6-1.9
			c1.3-1.3,1.9-2.8,1.9-4.6c0-1.8-0.6-3.3-1.9-4.6c-1.3-1.3-2.8-1.9-4.6-1.9H846.6z"/>
		<path d="M920.9,587.4v56.7h-15.5v-56.7H890v-15.5h46.4v15.5H920.9z"/>
		<path d="M965.6,615.7c-6,0-11.2-2.1-15.5-6.4c-4.3-4.3-6.4-9.4-6.4-15.5c0-6,2.1-11.2,6.4-15.5c4.3-4.3,9.4-6.4,15.5-6.4h24.5
			v15.5h-24.5c-1.8,0-3.3,0.6-4.6,1.9c-1.3,1.3-1.9,2.8-1.9,4.6c0,1.8,0.6,3.3,1.9,4.6c1.3,1.3,2.8,1.9,4.6,1.9h7.7
			c6,0,11.2,2.1,15.5,6.4c4.3,4.3,6.4,9.4,6.4,15.5c0,6-2.1,11.2-6.4,15.5c-4.3,4.3-9.4,6.4-15.5,6.4h-24.5v-15.5h24.5
			c1.8,0,3.3-0.6,4.6-1.9c1.3-1.3,1.9-2.8,1.9-4.6s-0.6-3.3-1.9-4.6c-1.3-1.3-2.8-1.9-4.6-1.9H965.6z"/>
		<path d="M777.6,590l-16.9-5.6c-2.4,2.7-4.2,5.6-5.7,8.7l14.8,4.9C771.7,594.6,774.4,591.9,777.6,590z"/>
		<path d="M768.4,614.5c-0.2-0.5-0.3-1-0.5-1.5c-0.1-0.4-0.2-0.9-0.3-1.3c-0.4-2.1-0.5-4.3-0.2-6.6l-14.8-4.9
			c-0.6,2.6-0.9,5.2-0.9,8c0,0.8,0.1,1.6,0.1,2.3l16.9,5.6C768.7,615.6,768.6,615,768.4,614.5z"/>
		<path d="M813.5,582.6c-7-7-15.6-10.6-25.5-10.6c-7.9,0-14.9,2.3-21,6.7l9.7,3.3l18.2,6c11,3.7,17,15.6,13.4,26.6
			c-3.7,11-15.6,17-26.6,13.3l-27.3-9.1l-0.9-0.3c0,0,0,0,0,0l-0.1,0c1.6,5.6,4.7,10.6,9.1,15c7,7,15.6,10.6,25.5,10.6
			c10,0,18.5-3.5,25.5-10.6c7-7,10.6-15.6,10.6-25.5C824.1,598.1,820.6,589.6,813.5,582.6z"/>
	</g>
	<path d="M146.7,604.9c7.7,1.2,15.5,1.9,23.1,2c15.3-3.8,29.6-9.9,42.4-18c-60.7-0.8-114.4-31.7-146.7-78.4
		c-0.5,5.5-0.8,11.1-0.8,16.7c0,14.9,1.9,29.4,5.3,43.2C92.2,588.4,118.3,600.3,146.7,604.9z"/>
	<path d="M57.6,564.5c3.7,8.1,7.9,15.9,12.7,23.4c0.8,1.2,1.6,2.5,2.4,3.7c-2.4-6.2-4.4-12.6-6.1-19.1
		C63.5,570,60.5,567.3,57.6,564.5z"/>
	<path d="M154.4,609.9c-2.8-0.3-5.5-0.7-8.3-1.1c-27.3-4.4-52.6-15.4-74.3-32c2.5,8.7,5.7,17.1,9.5,25.2c14.6,5.4,30.4,8.7,47,9.2
		C137.2,611.5,145.9,611,154.4,609.9z"/>
	<path d="M65.1,566.1c-2.8-12.5-4.2-25.5-4.2-38.9c0-7.4,0.5-14.6,1.3-21.8c-8.7-13.5-15.6-28.2-20.5-43.8
		c-3.5,32.3,0.7,64.2,11.9,93.2C57.2,558.8,61.1,562.6,65.1,566.1z"/>
	<path d="M141,519.3l-12.8,0l0,11.7l12.8,0c1.6,0,3-0.6,4.1-1.7c1.1-1.1,1.7-2.5,1.7-4.2c0-1.6-0.6-3-1.7-4.1
		C144,519.9,142.7,519.3,141,519.3z"/>
	<path d="M149.7,388.7c-70.1,0-127.1,57-127.1,127.1s57,127.1,127.1,127.1s127.1-57,127.1-127.1S219.8,388.7,149.7,388.7z
		 M161,525.1c0,5.5-1.9,10.2-5.8,14.1c-3.9,3.9-8.6,5.9-14.1,5.9l-26.9,0.1l-0.1-50.4l0.3,0l13.8,0l0,10.5l12.9,0
		c1.6,0,3-0.6,4.1-1.7c1.1-1.1,1.7-2.5,1.7-4.2c0-1.3-1-3.6-1.8-4.6c5.3-1.5,9.5-4.4,12.3-7c2,3.1,3.6,7.7,3.6,11.6
		c0,5-1.6,9.3-4.8,13C159.4,515.9,161,520.2,161,525.1z M125.5,443.9c1.2,1.2,2.6,1.7,4.2,1.7h7.2c5.6,0,10.4,2,14.4,6
		c4,4,6,8.8,6,14.4c0,5.6-2,10.4-6,14.4c-4,4-8.8,6-14.4,6h-22.7V472h22.7c1.7,0,3.1-0.6,4.2-1.7c1.2-1.2,1.7-2.6,1.7-4.2
		c0-1.7-0.6-3.1-1.7-4.2c-1.2-1.2-2.6-1.7-4.2-1.7h-7.2c-5.6,0-10.4-2-14.4-6c-4-4-6-8.8-6-14.4c0-5.6,2-10.4,6-14.4
		c4-4,8.8-6,14.4-6h22.7v14.4h-22.7c-1.7,0-3.1,0.6-4.2,1.7c-1.2,1.2-1.7,2.6-1.7,4.2C123.8,441.4,124.4,442.8,125.5,443.9z
		 M173.8,464.3l24.5-44.4l34.9,63.6h-15.8l-15.3-28.3L173.8,464.3z M187.7,467.9l-8.4,15.6h-15.8l5-9.5L187.7,467.9z M167.8,535.7
		l19.2-6.1l-8.4,15.6h-15.8L167.8,535.7z M173.1,525.9l12.5-22.6l16.9-30.7l40.6,72.7l-15.7-0.1l-17.6-32.6L173.1,525.9z
		 M44.7,581.9c8.6,6.5,17.9,12.1,27.9,16.5c-2-2.7-3.9-5.5-5.7-8.3c-6.7-10.5-12.3-21.5-16.8-33.1c-6.5-7-12.6-14.7-18-22.9
		c-2.2-3.3-4.3-6.7-6.2-10.1c-0.2-2.7-0.3-5.5-0.3-8.2c0-23.2,6.4-44.9,17.5-63.5c4.4,16.8,11.1,32.6,19.9,47
		C69.3,459,88.9,423,117.2,396c2.6-0.7,5.2-1.3,7.9-1.9c-31.5,27.8-53.2,66.6-58.8,110.3c31.7,48.4,86.4,80.5,148.5,80.5
		c1.1,0,2.2,0,3.4,0c29.4-20.7,49.7-51.9,54.3-87.9c0.9,6.1,1.4,12.4,1.4,18.8c0,25.5-7.8,49.3-21,69.1c-10.8,2.3-22,3.7-33.4,4
		c-10.4,7.2-21.9,13.1-34.3,17.5c23.7-1.9,46.4-9.1,67-20.6c-1.7,2.5-3.5,4.9-5.4,7.3c-23,11.4-48.3,17.7-74.5,17.7
		c-0.6,0-1.3,0-1.9,0c-11.7,2.9-24,4.4-36.6,4.4c-1.8,0-3.7,0-5.5-0.1c-15.3-0.5-29.9-3.3-43.6-7.9c9.1,10.7,19.3,19.9,30.4,27.7
		c-4.1-1.2-8.1-2.6-12-4.2c-4.1-3.4-8.1-6.9-11.9-10.7c1.6,2.6,3.3,5.2,5.1,7.7C75,617.6,57.2,601.6,44.7,581.9z"/>
</g>
</svg>
