<?xml version="1.0" standalone="no"?><!DOCTYPE svg PUBLIC "-//W3C//DTD SVG 1.1//EN" "http://www.w3.org/Graphics/SVG/1.1/DTD/svg11.dtd"><svg t="1574750502547" class="icon" viewBox="0 0 1024 1024" version="1.1" xmlns="http://www.w3.org/2000/svg" p-id="908" xmlns:xlink="http://www.w3.org/1999/xlink" width="200" height="200"><defs><style type="text/css"></style></defs><path d="M561.8 899c0.2-1.2 0.4-2.4 0.7-3.8 2.3-0.8 5-1.2 7.1-2.5 1.6-0.9 3.5-2.8 3.5-4.3 0-1.4-1.8-3.7-3.4-4.3-4.9-1.9-10.1-3.1-15.1-4.7-5.9-2-12.1-3.5-17.6-6.3-11.4-5.8-11.6-17.7-0.8-24.5 7.2-4.6 15.5-5.6 23.8-6 1.2 3.1 0.3 4.4-2.7 5.6-2.1 0.8-3.7 3.1-5.5 4.8 1.8 1.8 3.3 4.5 5.5 5.2 6.5 2.3 13.4 3.6 20 5.8 4.6 1.5 9.3 3.3 13.3 6 8.2 5.3 8.8 14.9 0.9 20.7-4.8 3.5-10.9 5.1-16.5 7.6-0.8 0.4-1.7 0.6-2.6 0.9-3.5-0.2-7-0.2-10.6-0.2zM208.7 899c0.1-3.1 1.5-4.8 4.8-5.1 1.3-0.1 2.6-0.8 3.8-1.5 4.1-2.3 4.3-6.2 0.1-8-5.2-2.2-10.9-3.3-16.3-5.2-5.9-2-12.1-3.6-17.5-6.5-10.8-5.8-10.9-17.5-0.6-24.1 7.3-4.6 15.5-5.7 24-6.1 1.2 2.9 0.8 4.8-2.5 5.3-0.4 0.1-0.9 0.2-1.1 0.4-1.5 1.6-4.2 3.2-4.1 4.8 0 1.6 2.3 3.9 4.2 4.7 3.6 1.6 7.5 2.4 11.3 3.6 5.5 1.6 11 3.1 16.4 4.9 2.2 0.7 4.2 1.9 6.1 3.2 8.6 5.7 9.2 15.8 0.7 21.6-4.8 3.3-10.8 4.8-16.3 7.1l-2.1 0.9h-10.9zM737.2 899c0.2-2.5 1-4.3 3.8-5.3 1.3-0.4 2.7-2.8 2.7-4.3 0.2-12.3 0.3-24.5 0-36.8 0-1.6-1.9-4-3.4-4.7-2.8-1.1-3.1-2.6-2.2-5.4 11.7 0.9 22.9 2.9 31.7 11.7 9.7 9.8 9.1 25.4-1.2 34.7-5.5 5-12.2 7.5-19.4 9.1-1 0.2-2 0.6-3 1h-9zM429.9 899c-4.4-1.6-9-2.9-13.2-5-6.6-3.1-11.8-7.8-14.6-14.7-3.6-9.2-1.6-17.5 5-24.5 8.5-9 19.5-11.8 31.4-12.4 1 2.9 0.4 4.4-2.3 5.6-1.5 0.7-3 3.1-3 4.7-0.3 12-0.3 24 0 35.9 0 1.7 1.4 4.2 2.8 4.9 2.7 1.2 3.2 2.9 2.9 5.4-3 0.1-6 0.1-9 0.1zM724.1 899c-4.4-1.4-8.9-2.4-13.1-4.1-14.6-6-21.1-19.7-15.8-32.9 2.6-6.4 7.4-10.7 13.3-13.8 7.3-3.7 15.1-5.1 23.4-5.6 0.6 2.5 0.9 4.2-2.3 5.4-1.7 0.6-3.6 3.3-3.6 5.1-0.3 12-0.1 24-0.2 36 0 4.2 3 5 6.4 6.2v3.9c-2.7-0.2-5.4-0.2-8.1-0.2zM87.4 899v-4.1c6.9-0.6 8.1-5.2 7.4-11.1-0.1-0.9 0-1.9 0-2.9 0-6.9-1-7.9-7.7-8.8-1.8-0.2-3.5-1.3-5.3-1.9 1.8-0.8 3.5-2 5.4-2.3 5.8-0.8 7.6-2.6 7.6-8.4 0-1.8-0.1-3.6 0-5.3 0.2-3.4-1.4-5.7-4.5-6.4-3.3-0.7-3.3-2.5-2.7-5.3 8.6-0.3 17 0.4 24.8 4.1 2 0.9 3.9 2.1 5.4 3.6 5.5 5 4.6 11.9-2.3 15.8-3.3 1.9-7.1 3-10.7 4.4 4 1.4 8.1 2.4 11.8 4.2 7.6 3.7 8.8 12 2.1 17.3-3.3 2.6-7.7 3.9-11.6 5.6-1.6 0.7-3.3 1-4.9 1.5H87.4zM443.9 899c0.2-2.5 0.8-4.7 3.9-5.2 0.6-0.1 1.5-0.8 1.5-1.3 0.2-5.4 0.4-10.8 0.2-16.2 0-0.5-2.6-0.7-3.9-1.4-1.3-0.6-2.5-1.6-3.7-2.4 1.2-0.7 2.4-1.9 3.7-1.9 10.8-0.2 21.6-0.1 32.3 0 1 0 2 1.1 3 1.7-0.6 0.9-1.3 1.8-1.9 2.7-0.8 1.4-1.9 2.7-2.2 4.2-0.4 2.1-0.4 4.4 0 6.5 0.9 5.1-1.5 7.5-6.1 8.7-5.4 1.4-10.7 3.1-16 4.7-3.7-0.1-7.3-0.1-10.8-0.1zM73.5 899c-3.4-1.1-6.9-2.1-10.3-3.4-5.5-2.2-8.1-5.6-7.7-9.3 0.4-3.6 4.1-6.7 9.9-6.9 3.9-0.2 8.2 0.3 11.8 1.8 5.7 2.4 5.7 7 0.4 10.4-0.9 0.6-1.7 1.1-3.4 2.2l7.5 1.5v3.8c-2.7-0.1-5.5-0.1-8.2-0.1zM176.7 899c-2.9-6.1-1.4-12.4-0.9-18.7 0.1-0.8 2.3-2.1 3.4-2 1.7 0.2 3.9 1 4.7 2.3 6.3 9.9 8.3 11.6 19.8 14.5v3.8h-9c-2.1-0.7-4.2-1.6-6.4-2-2.5-0.6-5.1-0.7-6.7 2-1.6 0.1-3.2 0.1-4.9 0.1zM529.9 899c-2.9-6-1.3-12.2-1-18.4 0-0.8 2-2.2 2.9-2.1 1.8 0.2 4.7 0.8 5.2 2 3.8 8.8 10.9 12.9 19.9 14.6v3.9h-9c-2.1-0.7-4.3-1.9-6.4-1.9-2.2 0-4.5 1.2-6.7 1.9h-4.9zM514.2 103.7c17 0.4 33.2 2.2 48.8 6.7 86.7 25.1 141.4 81.6 159.6 170 13.6 66.4-2.9 127.1-46.1 179.3-40.9 49.4-94.4 74.9-158.5 78.5-2.6 0.1-4.2-0.2-4.2-3.3 0.1-22.7 0.1-45.3 0.1-68 0-0.3 0.2-0.5 0.4-1 41.2-2 76.2-18.1 103.6-48.9 26.3-29.5 38.4-64.7 36.4-104.2-1.9-37.7-16.6-70-43.5-96.4-26.8-26.2-59.4-39.7-96.6-41.6v-71.1zM780.3 465.9c15.1-0.6 29.5-3.3 43.6-8.3 17.2-6.2 32.7-15.2 46.5-27.1 24.2-20.8 39.5-46.9 46.8-77.7 3.2-13.3 4.4-27 3.4-40.7-2.1-30.6-12.4-58.2-31.5-82.2-15-18.8-33.7-33.2-55.7-42.9-13.6-6-27.9-9.6-42.7-11.3-2.6-0.3-5.2-0.1-7.8-0.1-2.2 0-3.1-0.9-3.1-3.2 0.1-21.7 0-43.4 0.1-65.1 0-1.1 0.3-2.1 0.6-4.1 10.1 1.1 20.2 1.7 30.1 3.4 93.2 16 163.7 85.8 179.1 179 10.9 65.9-5.8 125.4-49.1 176.3-40.7 47.9-93.4 72.8-156.2 76.2-2.9 0.2-4.6-0.2-4.6-3.7 0.1-22.2 0.1-44.5 0.1-66.7 0.1-0.6 0.2-1 0.4-1.8zM504.3 175c-40.7 1.7-74.8 17.2-102.2 46.7-27.3 29.5-40.1 64.7-38.6 104.8 1.4 37.9 16.1 70.5 42.9 97.2 26.8 26.7 59.6 40.5 97.6 42.3 0.1 1.4 0.2 2.8 0.2 4.1v63.1c0 5.3 0 5.3-5.2 5-49.5-2.6-93.5-19.8-131.1-52-40.6-34.9-65.4-79-73.4-131.9-9.3-62.2 5.5-118.6 44.4-167.9 35.3-44.8 81.9-71.2 138.3-80.1 7.7-1.2 15.5-1.5 23.2-2.3 2.6-0.3 3.8 0.7 3.8 3.3 0.1 22.2 0.1 44.5 0.1 67.7zM237.7 465.9v72.4C162 533.6 101.1 502 60.9 437.9c-47.5-75.8-48.2-154.6-2-231.2 39.9-66.1 101.5-98.6 178.6-103.6 0.2 2.3 0.5 3.9 0.5 5.5 0 20.9-0.1 41.8 0.1 62.7 0 3.4-1.1 4.5-4.4 4.5-17 0.3-32.9 4.5-48.6 11.1-17 7.3-31.7 17.5-44.8 30.4-23.7 23.3-37.6 51.4-41.8 84.2-1.1 8.6-0.6 17.4-0.6 26.1-0.2 17.2 3.8 33.6 10.6 49.3 8.6 19.9 20.7 37.4 37.2 51.9 15.8 13.9 33.5 24.3 53.6 30.6 11.7 3.7 23.7 6 36 6.4 0.8-0.1 1.6 0 2.4 0.1zM901.1 794.7c8.9 0.7 17.3 1.8 25.7 1.9 8.2 0.1 11.6-4.5 10.5-13.1H821.5v29.7h-17.9v-4.3-93c0-6.8 1.1-7.9 7.8-7.9h136c6.9 0 7.8 1 7.8 7.8v74.1c0 15.3-5.7 22.4-20.9 23.6-9.4 0.7-19-0.4-28.5-0.9-1-0.1-2.8-1.2-2.9-2-0.8-5.4-1.2-10.8-1.8-15.9z m-79.5-27.8h115.9v-13.5H821.6v13.5zM937.8 737c0-3.3-0.3-6 0.1-8.7 0.5-4-1.3-4.7-4.9-4.7-35.6 0.1-71.2 0.1-106.9 0.1h-4.4V737h116.1zM731.9 768.9c-5.4 2.7-10 5.2-14.9 7.3-1 0.4-3.1-0.2-3.9-1.1-17.2-18.6-32.5-38.6-44.9-60.7-0.6-1.1-1.2-2.1-1.8-3.2-0.1-0.2-0.4-0.2-0.9-0.4v52h32.3v15.8h-32.3v34h-17.3v-33.8h-31.5V763h31v-52.6c-13.6 25.8-28.6 49.4-49.7 69.1-4.9-2.9-9.8-5.7-15.4-8.9 26.3-26 47.5-55.2 61.3-90h-49v-16.4h52.8v-27h17.4v26.7H725v16.6h-55.3c13.1 35.1 35.2 63 62.2 88.4zM391.2 640.6H462c6.4 0 6.4 0 6.4 6.6 0 19.2-0.1 38.5 0.1 57.7 0 3.7-1 5-4.9 5-48.4-0.1-96.9-0.1-145.3 0-3.5 0-4.8-0.9-4.8-4.6 0.2-20.1 0.2-40.1 0-60.2 0-3.7 1.4-4.6 4.8-4.6 24.3 0.1 48.6 0.1 72.9 0.1z m-60.5 27.2h121c0-2.8-0.2-5.3 0.1-7.7 0.4-3.7-1.1-4.5-4.6-4.5-37.4 0.1-74.8 0.1-112.2 0.1h-4.2c-0.1 4.2-0.1 8-0.1 12.1z m120.6 14.9H330.4v6c0 5.9 0 5.9 6 5.9h105.1c11.2 0 11.2 0 9.8-11.9zM297.8 769.2v-16.7h49.4v-13.9c-10.9 0.9-21.5 1.7-32 2.7-8.3 0.8-8.3 0.9-10.3-7.2-0.7-2.7-1.4-5.5-2.1-8.5 30.2-1.2 59.8-3.2 88.9-12.1 1.9 5.1 3.7 10 5.9 15.7-10.9 2.4-21.5 4.6-32.2 7v16h60.2v-34.5h17.5v34.5h40.6V769h-40.4v44.9h-17.5v-44.5c-1.7-0.1-3.1-0.3-4.4-0.3-18 0-36 0.1-54.1-0.1-3 0-4.2 1-5.3 3.7-8.5 20.6-24.7 33-44.7 41.2-0.9 0.4-2.7-0.1-3.3-0.9-3-3.9-5.7-8-8.7-12.3 17.1-5.5 32.2-13.3 39.9-31.6-16.1 0.1-31.6 0.1-47.4 0.1z" p-id="909"></path><path d="M977.1 701.7c-4.8 4.1-8.9 7.7-13.2 11.3-6.1-5.8-12-11.6-18.2-17.1-1.5-1.4-4-2.3-6.1-2.3-27.8 0.9-55.6 2-83.4 3.1-20.3 0.8-40.6 1.5-60.9 2.4-2.7 0.1-3.8-0.6-4.3-3.4-0.7-4.3-2-8.5-3.2-13.8 8.9 0 17.4 0.2 25.8-0.1 2.5-0.1 5.4-1 7.4-2.5 7.1-5.4 13.9-11.3 20.4-17.9h-52.3v-16h82v-10.1h18.6v10.1h81.6v15.8h-38.9c14.9 13.7 29.6 27 44.7 40.5z m-65.2-34.4c1.8-2 3.3-3.7 5.3-5.9H885c-6.3 0-13.2-1.5-18.6 0.6-5.5 2.1-9.5 8-14.1 12.2-2.2 2-4.4 4.1-7.3 6.9 27.3-0.9 53.3-1.8 80.5-2.7-5-4-9.1-7.4-13.6-11.1zM360.1 140.1c-16.6 13.8-31.4 29.3-43.2 47.5-2.4 3.7-4.6 3.9-8.3 2.6-9.9-3.6-19.6-7.6-29.8-10.3-8.5-2.2-17.4-2.9-26.1-4.2-1.5-0.2-2.9-0.2-4.6-0.4v-71.2c25.1-5.3 97.5 18 112 36zM248.2 537.6v-71.8c22.9-0.3 44.1-7.5 64.8-16.6 13.2 19.8 28.3 37.3 47.2 52.7-3.1 2.4-5.8 5.1-8.9 7-31.2 18.8-65.3 27.8-101.5 29-0.5 0-0.9-0.2-1.6-0.3zM659.2 501.4c17.4-13.9 31.6-30.2 43.9-48.3 1.9-2.7 3.3-3.2 6.2-2.1 9 3.4 17.8 7.2 27 9.5 10.9 2.8 22.1 4.2 33.8 6.3v70.6c-26.5 4.7-98.2-18.6-110.9-36zM770 103.8c0.2 1.7 0.4 3.1 0.4 4.4 0 21.1 0 42.3 0.1 63.4 0 3-1 4.2-3.9 4.1-18.2-0.5-34.9 5.3-51.3 12.1-3.1 1.3-6.7 3.8-9.4 3.1-2.5-0.6-4.1-4.7-6.2-7.2-10-11.4-19.9-22.8-30-34.1-2.5-2.8-5.5-5.3-8.5-7.6-2.2-1.7-2.3-2.5 0-4.4 10.9-8.6 23.3-14.5 36.1-19.5 22-8.6 44.9-13.2 68.6-14.4 1.2 0 2.4 0.1 4.1 0.1zM563.3 719.4c-1 1.4-2.1 2.8-3.1 4.2-4.1 5.8-4.1 5.8-10.8 3.1-3.4-1.4-6.8-2.8-9.4-3.9 7.5-13.6 15.5-26.9 22.4-40.7 6.9-13.9 10.6-29.1 13.3-44.8 6.1 1.1 11.8 2 18.5 3.2-3.6 12.7-7.3 24.9-10.6 37.2-1.1 4.1-2.1 8.5-2.1 12.7-0.2 39-0.1 78-0.1 117v5.1h-17.2v-92.9c-0.3 0-0.6-0.1-0.9-0.2zM237 787.8v16.8H53.2v-16.8H237zM226.5 662.4H63.8v-16.7h162.7v16.7zM218.5 715.7v16.8H70.9v-16.8h147.6zM383.4 898.2c-6.2 0-11.9 0.1-17.6-0.1-1 0-2.2-1-3-1.8-14.1-14.2-28.1-28.5-42.4-42.6-2.5-2.4-6.1-3.7-9.1-5.6-0.9-0.6-1.7-1.5-2.5-2.2 0.9-0.7 1.8-1.8 2.7-1.9 6.9-0.3 13.9 0.1 20.8-0.7 10.5-1.3 18.2 2.1 25 10.3 7.2 8.8 15.9 16.4 23.8 24.7 1.2 1.2 2 3.2 2.1 4.9 0.3 4.8 0.2 9.6 0.2 15zM276.5 898.2c-5.9 0-11.7 0.1-17.6-0.1-1.5-0.1-3-1.3-4.5-1.9 1.2-0.9 2.3-2.2 3.7-2.5 2.6-0.6 3.1-2 3.1-4.4-0.1-12.1-0.1-24.3 0-36.4 0-2.8-0.6-4.4-3.6-4.8-1.1-0.2-2.1-1.3-3.1-2.1 1.1-0.8 2.2-1.9 3.4-2.2 1.5-0.4 3.2-0.4 4.9-0.4 10.5 0 21 0 31.5 0.2 1.5 0 3 1.4 4.5 2.1-1.2 0.8-2.4 2.1-3.7 2.4-2.6 0.6-3.1 2.1-3.1 4.4 0.1 12.1 0.1 24.3 0 36.4 0 2.8 0.9 4.2 3.7 4.9 1.2 0.3 2.1 1.5 3.2 2.4-1.3 0.6-2.5 1.8-3.8 1.9-6.3 0.2-12.5 0.1-18.6 0.1zM823.1 842.6v4.8c0 13.5 0.1 27-0.1 40.5 0 2.9 0.5 4.6 3.8 5 1 0.1 1.9 1.4 2.9 2.2-1 0.7-2 1.5-3.2 2.1-0.6 0.3-1.3 0.1-2 0.1-11.5 0-22.9 0.1-34.4-0.1-1.6 0-3.1-1.4-4.7-2.1 1.2-0.8 2.4-2.1 3.7-2.4 2.4-0.6 3-1.8 3-4-0.1-12.4-0.1-24.8 0-37.2 0-2.8-1.1-3.8-3.6-4.4-1.2-0.3-2.1-1.6-3.1-2.5 1.1-0.7 2.2-1.9 3.3-1.9 11.4-0.2 22.7-0.1 34.4-0.1zM643.6 842.6v45.6c0 2.3 0.3 3.9 3 4.4 1.3 0.2 2.4 1.6 3.6 2.5-1.5 0.7-3 2-4.5 2-8.9 0.2-17.7 0.1-26.6 0.1-3.1 0-6.3 0.2-9.4-0.1-1.3-0.1-2.5-1.2-3.7-1.9 1-0.9 2-2.3 3.1-2.5 3-0.4 3.6-2.1 3.6-4.8-0.1-11.9-0.1-23.8 0-35.6 0-3-0.6-4.9-3.9-5.4-1-0.1-1.9-1.5-2.8-2.3 1.1-0.7 2.2-1.9 3.3-1.9 11.3-0.2 22.6-0.1 34.3-0.1zM900.6 842.7h30.6v45c0 2.8 0.6 4.7 3.8 5.1 1.1 0.1 2 1.4 3 2.2-1.1 0.8-2.3 2.2-3.4 2.2-12.4 0.2-24.8 0.2-37.2 0-1.2 0-2.4-1.3-3.6-2 1-0.8 1.9-2.1 2.9-2.2 3.4-0.4 4-2.4 4-5.4-0.1-13.4 0-26.7 0-40.1-0.1-1.6-0.1-3.1-0.1-4.8zM828.5 869c7.3-1.9 7.5-2.1 7.5-9.6 0-1.8-0.1-3.6 0-5.3 0.1-3.4-1.4-5.6-4.6-6.3-3.1-0.7-3.5-2.4-2.6-5.3 9.4-0.1 18.8-0.4 27.7 3.1 2.1 0.8 4.2 2 5.9 3.5 5.2 4.6 4.9 12.1-1 15.7-4 2.4-8.7 3.7-12.6 5.3 4 1.4 9 2.5 13.4 4.7 5.9 3 2.8 9.3 4.1 14.6 1.4-0.6 2.7-1.6 4-1.7 1.7-0.1 3.5 0.5 5.3 0.9-0.7 1.5-1 3.4-2.1 4.3-7.3 6.1-24 7.2-32.3 2.4-3.4-1.9-5.1-4.8-5.2-8.7 0-2.3 0-4.6-0.1-7-0.1-3.2-1.5-5.6-4.9-6.1-3-0.3-2.9-2-2.5-4.5zM649 876.2v-3.9c0.8-0.3 1.6-0.7 2.5-0.9 3.5-0.7 5.1-3 5.2-6.4 0.1-3.8 0.1-7.6 0-11.5-0.1-3.1-1.5-5.7-4.9-6.2-3.1-0.5-3.4-2.1-2.6-4.9 9.6-0.2 19.3 0 28.3 4.2 5.4 2.5 9.2 6.4 9 12.9-0.1 6.3-3.8 9.9-9.1 12.4-8.9 4.5-18.5 4.3-28.4 4.3zM318.5 857.4c5 3.9 8.4 7.6 7.5 14-0.6 4-0.1 8.2-0.1 12.3 0 6.1 1.5 8.2 7.1 10.4 1 0.4 1.8 1.3 2.6 2-1 0.7-2.1 1.9-3.1 2-7 0.2-13.9 0.2-20.9 0-1 0-2-1.1-3-1.7 0.8-0.8 1.4-1.9 2.4-2.3 6.1-2.6 7.5-4.4 7.5-11.1v-25.6zM81.5 843v3.9c-1.6 0.6-3.1 1.2-5.6 2.2 2 1.1 3.1 1.7 4.2 2.4 3.3 2.1 3.7 5.5 0.9 8.1-4.5 4.3-15.5 4.6-20.2 0.5-3.4-2.9-3-7.5 1-10.9 4.1-3.4 11.6-5.8 19.7-6.2zM444.5 846.8v-4.6c5.8 0.8 11.4 1.3 17 2.3 3.1 0.5 5.7 0.6 8.5-1.2 3.8-2.4 6.5-0.6 6.5 4 0 3.9 0.2 7.9-0.1 11.8-0.1 1.6-1.4 4.3-2.3 4.3-2 0.1-5.3-0.5-5.9-1.9-4.7-9.9-13-13.7-23.7-14.7zM383.4 874.6c-5.2-4-8.4-7.9-7.5-14.2 0.9-6.2-1-11.1-7.9-12.6-0.8-0.2-1.3-1.4-2-2.1 0.8-0.6 1.6-1.7 2.5-1.7 7.5-0.1 15-0.1 22.4 0 0.8 0 1.6 1.1 2.4 1.7-0.7 0.7-1.3 1.9-2.1 2.1-6.8 1.5-8.3 6.1-7.9 12.2 0.3 4.7 0.1 9.3 0.1 14.6zM213 846.8v-4.6c4.4 0.7 8.8 1.2 13.1 2.2 3 0.6 5.6 1.1 8.4-0.9 3-2.2 5.9-0.3 6 3.5 0.1 3.7 0.3 7.4-0.1 11-0.2 1.4-1.7 3.5-2.8 3.7-1.7 0.2-4.8-0.5-5.3-1.6-3.5-8.7-10.8-11.4-19.3-13.3zM566.5 842.1c4.7 0.9 9.2 2 13.7 2.4 2.3 0.2 5-0.2 7.2-1.1 3.8-1.6 6.2-0.5 6.3 3.6 0.1 3.5 0.3 7.1-0.1 10.6-0.2 1.5-1.6 3.9-2.7 4-1.8 0.2-5-0.6-5.5-1.9-3-7.5-9.2-10.5-16.2-12.2-3.1-0.7-3.5-2-2.7-5.4zM936.3 842.6h18.4c0 5.5 0.1 10.9-0.1 16.2 0 1-1.9 2.7-2.7 2.6-1.9-0.2-4.9-1-5.3-2.2-1.8-5-4-9.4-8.9-12.1-1-0.4-0.9-2.5-1.4-4.5zM877.2 842.7h17.6c0.8 2.5 0.1 3.8-1.9 5.7-2.8 2.6-5.1 6.2-6.8 9.7-1.3 2.7-2.7 3.8-5.5 3.6-2.2-0.2-3.5-1-3.4-3.5v-15.5z" p-id="910"></path></svg>